<?xml version="1.0" encoding="UTF-8"?><svg id="Layer_2" xmlns="http://www.w3.org/2000/svg" viewBox="0 0 2098.48 630.15"><defs><style>.cls-1{fill:#e945ab;}.cls-2{fill:#777ccb;}</style></defs><g id="Layer_1-2"><rect class="cls-2" width="2098.48" height="630.15"/><path class="cls-1" d="M371.27,249.5c11.05,8.48,19.38,18.28,24.98,29.41,1.86-8.48,2.8-15.1,2.8-19.87,0-6.89-.94-12.38-2.8-16.49-1.87-4.1-5.26-7.81-10.19-11.13-4.93-3.31-12.19-6.69-21.78-10.13,2.4-16.69,8.46-30.26,18.18-40.73,9.72-10.46,20.84-15.7,33.37-15.7,15.45,0,28.11,3.97,37.97,11.92,9.85,7.95,14.79,19.74,14.79,35.37,0,11.39-2.73,24.97-8.19,40.73-5.46,15.77-13.53,36.1-24.18,61-11.19,25.7-19.05,45.57-23.58,59.61,4.8-.53,10.25-.79,16.39-.79s11.12,1.53,15.79,4.57c4.66,3.05,6.99,8.28,6.99,15.7,0,10.07-2.87,21.13-8.59,33.18-5.73,12.06-13.26,22.19-22.58,30.4-9.33,8.21-19.05,12.32-29.17,12.32-8.53,0-15.32-3.18-20.38-9.54-5.06-6.36-8.26-14.7-9.59-25.04-25.85,24.38-49.96,36.56-72.34,36.56-16.52,0-30.44-5.5-41.76-16.49-11.33-10.99-16.98-30.26-16.98-57.82,0-21.99,4.06-45.43,12.19-70.34,8.12-24.9,20.18-46.03,36.17-63.39,15.99-17.35,35.17-26.03,57.55-26.03,12.25,0,23.91,4.24,34.97,12.72ZM302.13,384.61c4.93,5.83,13.25,8.74,24.98,8.74,6.13,0,11.92-.66,17.38-1.99,5.46-1.32,11.52-3.18,18.18-5.56,1.6-9.27,3.93-18.61,6.99-28.02,3.06-9.4,7.12-20.86,12.19-34.38l3.6-9.93c-4.26-3.71-9.93-6.96-16.98-9.74-7.06-2.78-13.26-4.17-18.58-4.17-12.53,0-22.92,3.12-31.17,9.34-8.26,6.23-14.33,13.98-18.18,23.25-3.87,9.28-5.79,18.42-5.79,27.42,0,10.87,2.46,19.21,7.39,25.04Z"/><path class="cls-1" d="M534.92,255.46c12.79-13.24,26.31-22.71,40.56-28.41,14.25-5.69,27.64-8.54,40.16-8.54,13.85,0,26.31,2.72,37.37,8.15,11.05,5.43,19.71,13.05,25.98,22.85,6.26,9.8,9.39,20.93,9.39,33.38,0,16.43-4.2,30.6-12.59,42.52s-20.05,21-34.97,27.22c-14.92,6.23-31.97,9.34-51.15,9.34-22.65,0-42.1-5.96-58.35-17.88l-.8,6.76c0,12.72,5.46,22.65,16.38,29.8,10.92,7.15,23.84,10.73,38.77,10.73,20.78,0,38.63-3.31,53.55-9.94.26,17.75-1.47,32.98-5.2,45.7-3.73,12.72-11.46,23.19-23.18,31.4-11.73,8.21-28.77,12.32-51.15,12.32-26.11,0-47.3-7.29-63.54-21.86-16.25-14.57-24.38-34.7-24.38-60.41,0-13.77,2.4-28.54,7.19-44.31,4.8-15.76,11.19-29.74,19.18-41.93-6.13-14.31-9.19-28.35-9.19-42.12s2.93-24.11,8.79-31c5.86-6.89,14.12-10.33,24.78-10.33,5.33,0,10.92.79,16.79,2.38-2.94,6.89-4.4,18.28-4.4,34.18ZM590.87,330.17c6.13,0,11.99-1.85,17.58-5.56,5.59-3.71,8.39-8.74,8.39-15.1,0-6.89-2.47-11.92-7.39-15.1-4.93-3.18-11.39-4.77-19.38-4.77-6.39,0-13.59,1.66-21.58,4.97-7.99,3.32-14.79,7.75-20.38,13.31,11.19,14.84,25.44,22.25,42.76,22.25Z"/><path class="cls-1" d="M750.72,285.66c1.06-13.77,5.4-26.49,12.99-38.15,7.59-11.66,16.99-20.86,28.17-27.62,11.19-6.76,22.51-10.13,33.97-10.13,12.25,0,22.04,2.65,29.37,7.95,7.33,5.3,11.25,12.32,11.79,21.06,1.06,16.69-3.93,31.46-14.99,44.31-11.06,12.85-27.24,23.51-48.56,31.99,21.84,29.41,32.77,58.55,32.77,87.43,0,12.72-4.13,24.24-12.39,34.57-8.26,10.33-19.05,18.42-32.37,24.24-13.33,5.82-26.91,8.74-40.76,8.74-23.98,0-41.16-5.63-51.55-16.89-10.39-11.26-15.59-24.84-15.59-40.73,0-6.36.74-12.52,2.2-18.48,1.47-5.96,3.4-10.79,5.79-14.5,19.18,5.04,36.9,7.55,53.15,7.55,14.92,0,25.44-2.51,31.57-7.55,2.66-2.38,4-5.69,4-9.94,0-4.5-1.14-9.74-3.4-15.7-2.27-5.96-6.06-14.77-11.39-26.43-16.52,3.97-28.38,5.96-35.57,5.96s-12.53-2.58-16.79-7.75c-4.27-5.17-6.93-12.65-7.99-22.45,19.98-7.15,35.17-12.98,45.56-17.49Z"/><path class="cls-1" d="M871.81,394.15c0-21.72,5.2-46.63,15.59-74.71,10.39-28.08,25.58-52.26,45.56-72.53,19.98-20.27,43.69-30.4,71.14-30.4,17.05,0,30.5,4.64,40.36,13.91,9.85,9.28,14.79,21.2,14.79,35.77,0,11.13-1.94,21.6-5.79,31.39-3.87,9.8-9.39,18.28-16.58,25.43-10.13-7.15-19.32-12.32-27.58-15.5-8.26-3.18-17.45-4.77-27.58-4.77s-18.25,2.06-25.18,6.16c-6.93,4.11-12.13,9.28-15.59,15.5-3.46,6.23-5.2,12.26-5.2,18.08,0,13.51,5,24.51,14.99,32.98,9.99,8.48,23.64,12.72,40.96,12.72,8.79,0,16.52-.66,23.18-1.99-5.59,28.88-14.46,50.21-26.58,63.98-12.13,13.77-28.84,20.67-50.16,20.67-11.73,0-22.65-2.72-32.77-8.15-10.13-5.43-18.25-13.91-24.38-25.43-6.13-11.52-9.19-25.89-9.19-43.12Z"/><path class="cls-1" d="M1079.22,250.29c-1.07-14.83,1.06-28.81,6.39-41.93,5.33-13.11,13.19-23.65,23.58-31.59s22.24-11.92,35.57-11.92,24.71,4.11,32.57,12.32c7.86,8.21,11.79,20.54,11.79,36.96,0,7.69-2.07,16.29-6.19,25.83-4.13,9.54-10.33,21.86-18.58,36.96-9.59,17.49-16.85,32.13-21.78,43.91-4.93,11.79-7.39,22.99-7.39,33.58s2.66,18.35,7.99,22.45c5.33,4.11,13.05,6.16,23.18,6.16,2.66,0,7.46-.26,14.39-.79-1.34,25.7-8.59,46.43-21.78,62.19-13.19,15.77-30.44,23.65-51.75,23.65-14.12,0-26.31-3.78-36.57-11.33-10.26-7.55-15.39-20.6-15.39-39.14,0-10.33,3.06-21.72,9.19-34.18,6.13-12.45,15.19-28.35,27.18-47.69,9.05-14.31,15.85-25.76,20.38-34.38,4.53-8.61,6.79-15.83,6.79-21.66,0-10.33-3.53-17.42-10.59-21.26-7.06-3.84-16.72-6.56-28.97-8.15Z"/><path class="cls-1" d="M1201.11,385.81c0-25.96,5.26-52.12,15.79-78.49,10.52-26.36,25.18-48.09,43.96-65.17,18.78-17.09,39.63-25.63,62.54-25.63,21.31,0,38.83,7.49,52.55,22.45,13.72,14.97,20.58,39.28,20.58,72.92,0,26.76-5.13,52.39-15.39,76.9-10.26,24.51-24.32,44.31-42.16,59.41-17.85,15.1-37.44,22.65-58.75,22.65-52.75,0-79.13-28.35-79.13-85.04ZM1264.05,380.44c8.92,5.43,18.85,8.15,29.77,8.15,13.85,0,25.38-3.84,34.57-11.52,9.19-7.68,13.79-18.28,13.79-31.79,0-10.86-3.8-19.8-11.39-26.83-7.59-7.02-17.25-10.53-28.97-10.53-14.92,0-27.18,4.31-36.77,12.92-9.59,8.61-14.39,19.14-14.39,31.59,0,13.25,4.46,22.59,13.39,28.02Z"/><path class="cls-1" d="M1420.31,387.59c4.93-10.46,11.79-22.19,20.58-35.17,5.33-7.68,9.12-13.71,11.39-18.08,2.26-4.37,3.4-8.41,3.4-12.12,0-7.68-3.2-13.44-9.59-17.29-6.39-3.84-14.39-6.16-23.98-6.95,0-16.69,2.8-31.13,8.39-43.32,5.6-12.18,13.25-21.59,22.98-28.22,9.72-6.62,20.84-9.94,33.37-9.94,11.45,0,22.04,3.65,31.77,10.93,9.72,7.29,14.59,18.75,14.59,34.38,0,9.8-2.07,18.95-6.19,27.42-4.13,8.48-10.19,18.81-18.18,31-7.19,11.13-12.59,20.27-16.19,27.42-3.6,7.15-5.4,14.7-5.4,22.65,0,6.36,1.33,10.93,4,13.71,2.66,2.78,8.26,4.17,16.79,4.17,5.86,0,12.99-2.71,21.38-8.15,8.39-5.43,16.72-12.78,24.98-22.06,2.13-46.89,8.39-81.53,18.78-103.92,10.39-22.38,25.71-33.58,45.96-33.58,11.45,0,20.51,3.71,27.18,11.13,6.66,7.42,9.99,16.16,9.99,26.23,0,11.92-3.27,22.99-9.79,33.18-6.53,10.2-17.78,24.31-33.77,42.32-3.47,3.71-10.13,11.26-19.98,22.65,6.13,6.89,11.39,11.66,15.79,14.31,4.4,2.65,9.52,3.97,15.39,3.97,4.8,0,10.52-.79,17.18-2.38,2.13,7.69,3.2,15.63,3.2,23.84,0,11.66-2.07,22.99-6.19,33.98-4.13,11-10.53,19.94-19.18,26.82-8.66,6.89-19.12,10.33-31.37,10.33s-22.18-4.5-29.77-13.51c-7.59-9-11.26-23.18-10.99-42.52-14.12,16.16-25.51,28.15-34.17,35.96-8.66,7.82-17.25,13.45-25.78,16.89-8.53,3.44-18.65,5.17-30.37,5.17-6.66,0-13.39-1.73-20.18-5.17-6.79-3.44-12.39-8.67-16.79-15.7-4.4-7.02-6.59-15.56-6.59-25.63,0-12.72,2.46-24.3,7.39-34.77Z"/><path class="cls-1" d="M1676.68,315.07c-1.6-9.54-2.4-18.28-2.4-26.23,0-23.05,5.33-40.34,15.99-51.86,10.65-11.53,24.38-17.29,41.16-17.29,13.85,0,24.18,3.64,30.97,10.93,6.79,7.29,11.25,16.29,13.39,27.02,2.13,10.73,3.73,25.1,4.8,43.12.53,10.6,1.13,19.34,1.8,26.23.66,6.89,1.8,13.38,3.4,19.47,2.93,12.98,8.52,22.39,16.79,28.21l-7.59,6.36c-5.33,4.51-11.46,11-18.38,19.47-6.93-17.75-11.99-29.94-15.19-36.56,9.59-5.3,17.71-11.13,24.38-17.49,9.85-9.27,17.38-19.67,22.58-31.2s7.79-23.11,7.79-34.77c0-19.08-3.47-34.83-10.39-47.29,17.32-7.15,32.77-10.73,46.36-10.73s24.64,4.04,32.37,12.12c7.72,8.08,11.59,18.22,11.59,30.4,0,9.54-2.4,19.14-7.19,28.81-4.8,9.67-11.73,18.35-20.78,26.03l-12.79,10.73c-13.06,11.39-30.64,26.1-52.75,44.11,4.26,2.38,7.06,3.84,8.39,4.37,9.85,3.45,23.44,7.02,40.76,10.73,9.32,1.86,16.52,3.58,21.58,5.17,5.06,1.59,9.05,4.11,11.99,7.55,2.93,3.45,4.4,8.21,4.4,14.31,0,6.89-1.27,14.44-3.8,22.65-2.54,8.21-7.39,15.5-14.59,21.86-7.19,6.36-17.18,9.54-29.97,9.54-10.93,0-20.25-3.12-27.98-9.34-7.73-6.22-14.26-14.11-19.58-23.65-5.33-9.54-11.06-21.99-17.18-37.36-3.47,4.77-8.66,12.46-15.59,23.05-10.13,15.63-18.85,27.42-26.18,35.37-7.33,7.95-15.12,11.92-23.38,11.92-15.72,0-28.38-4.91-37.97-14.7-9.59-9.8-14.39-22.78-14.39-38.95v-1.59c.27-6.36,1.8-11.52,4.6-15.5,2.8-3.97,8.65-7.68,17.58-11.13,8.92-3.44,22.71-7.15,41.36-11.13,14.12-2.91,27.04-7.55,38.77-13.91-7.46-16.16-15.99-28.67-25.58-37.55-9.59-8.87-21.58-13.31-35.97-13.31-8.53,0-16.25.66-23.18,1.99Z"/></g></svg>