<?xml version="1.0" encoding="UTF-8"?><svg id="Layer_2" xmlns="http://www.w3.org/2000/svg" viewBox="0 0 1187.3 745.75"><defs><style>.cls-1{fill:#e9e1db;}.cls-2{fill:#15263f;}</style></defs><g id="Layer_1-2"><rect class="cls-2" width="1187.3" height="745.75"/><path class="cls-1" d="M364.63,244.25l-68.96,257.25h-57.17l55.38-207.23v-50.02h70.74ZM298.53,415.39l1.07-47.16,8.58,1.43c17.38,2.62,32.63,3.93,45.73,3.93,5,0,10.6-.41,16.79-1.25,6.19-.83,11.31-1.96,15.36-3.39,4.52-6.91,8.09-13.22,10.72-18.94,2.62-5.72,4.88-12.38,6.79-20.01,1.66-5.72,2.5-11.55,2.5-17.51,0-8.81-2.38-15.72-7.15-20.72-4.77-5-12.03-7.5-21.79-7.5-6.91,0-18.58.84-35.01,2.5l-38.59-42.52h28.23c4.52,0,14.41-.23,29.65-.71,29.3-.71,45.97-1.07,50.02-1.07,15.96,0,28.41,4.64,37.34,13.93,8.93,9.29,13.4,22.04,13.4,38.23,0,9.05-1.31,18.22-3.93,27.51-7.39,27.39-20.25,50.38-38.59,68.96-18.34,18.58-44.66,27.87-78.96,27.87-17.15,0-31.21-1.19-42.16-3.57Z"/><path class="cls-1" d="M539.16,485.96c-16.56,12.5-36.26,18.52-59.13,18.04-15.49-.24-27.63-5.66-36.44-16.26-8.82-10.6-13.22-24.35-13.22-41.27,0-20.72,6.31-42.28,18.94-64.67,10.24-19.05,23.64-34.84,40.2-47.34,16.55-12.51,34.95-18.76,55.2-18.76,14.77,0,26.62,4.41,35.55,13.22,8.93,8.81,13.4,21.79,13.4,38.94s-4.53,37.16-13.58,59.31c-10.72,26.68-24.36,46.27-40.91,58.77ZM523.26,443.62c3.57-7.38,7.02-16.2,10.36-26.44,3.33-10.24,5-19.77,5-28.58,0-10.48-2.5-18.28-7.5-23.4-5-5.12-11.79-7.32-20.37-6.61-4.29,6.67-7.8,12.57-10.54,17.69-2.74,5.12-5.66,11.85-8.75,20.19-5.48,14.77-8.22,27.51-8.22,38.23s2.38,17.81,7.15,22.69c4.76,4.88,11.31,6.85,19.65,5.9,5.24-5.72,9.65-12.27,13.22-19.65Z"/><path class="cls-1" d="M585.78,501.5l57.52-214.37v-50.02l67.88-3.22-71.82,267.97-53.59-.36Z"/><path class="cls-1" d="M672.24,501.5l57.52-214.37v-50.02l67.88-3.22-71.82,267.97-53.59-.36Z"/><path class="cls-1" d="M868.75,412.71c9.29-19.41,13.93-37.69,13.93-54.84,0-9.05-1.55-17.38-4.64-25.01l53.59-21.44c4.52,8.82,6.79,18.22,6.79,28.23,0,11.2-2.38,22.87-7.15,35.01-4.77,12.15-10.54,23.76-17.33,34.84s-15.78,24.95-26.98,41.62c-9.77,14.06-17.03,25.13-21.79,33.23-3.57,5.72-5.36,11.91-5.36,18.58,0,3.81.36,7.62,1.07,11.43.95,6.67,1.43,12.27,1.43,16.79,0,11.67-4.11,21.67-12.33,30.01-8.22,8.33-18.52,14.53-30.91,18.58-12.39,4.05-24.78,6.07-37.16,6.07-13.58,0-26.02-3.28-37.34-9.83-11.31-6.55-19.35-13.4-24.12-20.54l40.02-36.09c7.63,8.58,15.01,15.3,22.15,20.19,7.15,4.88,16.2,7.32,27.15,7.32,5.24,0,11.67-.96,19.29-2.86l-15.01,12.5c4.05-8.1,6.07-14.77,6.07-20.01,0-2.14-.36-4.59-1.07-7.33-.71-2.74-1.19-4.95-1.43-6.61-.71-3.57-1.07-6.91-1.07-10,0-5,.83-9.41,2.5-13.22,1.66-3.81,3.69-7.5,6.07-11.08,2.38-3.57,4.16-6.31,5.36-8.22,16.2-25.48,28.94-47.93,38.23-67.35ZM841.24,494l-45.38,12.5-1.79-172.93,53.95-17.86-6.79,178.29Z"/></g></svg>