<?xml version="1.0" encoding="UTF-8"?><svg id="b" xmlns="http://www.w3.org/2000/svg" viewBox="0 0 1187.29635 745.75041"><g id="c"><rect width="1187.29635" height="745.75041" style="fill:#000e38;"/><path d="M478.01077,294.62911c0-16.19531-4.46582-28.94043-13.39844-38.23047-8.93164-9.28906-21.38086-13.93359-37.33691-13.93359-4.05273,0-20.72266.35645-50.02051,1.07129-15.24609.48047-25.13281.71484-29.6543.71484h-37.87305v50.02051l-55.37988,207.22754h57.16699l22.34717-83.3689c6.8374.55493,14.38965.83472,22.67041.83472,34.2998,0,60.61621-9.28906,78.96094-27.86816,18.33887-18.5791,31.20215-41.5625,38.58789-68.95703,2.61816-9.28906,3.92969-18.45605,3.92969-27.51074ZM419.41507,330.0002c-1.90918,7.62598-4.16992,14.29199-6.78809,20.00879-2.62402,5.71582-6.19629,12.03027-10.71875,18.93555-4.05273,1.42969-9.17188,2.5625-15.36328,3.39453-6.19727.83789-11.79102,1.25098-16.79297,1.25098-7.21777,0-15.10986-.41138-23.62744-1.20605l23.24121-86.70557c10.55322-.93896,18.42188-1.41064,23.61084-1.41064,9.76367,0,17.02637,2.50098,21.79395,7.50293,4.7627,5.00195,7.14551,11.91309,7.14551,20.72266,0,5.95703-.83691,11.79004-2.50098,17.50684Z" style="fill:#faf5f5;"/><path d="M596.09085,328.92891c-8.93262-8.80957-20.78418-13.21973-35.55078-13.21973-20.24805,0-38.64844,6.25195-55.20117,18.75781-16.55762,12.50488-29.95605,28.28711-40.19531,47.34082-12.62793,22.3916-18.93555,43.94629-18.93555,64.66895,0,16.91504,4.4043,30.6709,13.21973,41.2666,8.80859,10.60156,20.95703,16.0166,36.44336,16.25684,22.86621.47461,42.57324-5.53809,59.13086-18.04297,16.55273-12.50488,30.19141-32.09473,40.91016-58.77441,9.04883-22.15137,13.57617-41.91992,13.57617-59.30957,0-17.15039-4.46582-30.12988-13.39746-38.94434ZM549.4639,417.17891c-3.33789,10.24414-6.78809,19.05957-10.36133,26.43945-3.57227,7.38574-7.98242,13.93457-13.21973,19.65137-8.33984.9541-14.88867-1.01074-19.65039-5.89551-4.76758-4.87988-7.14551-12.44434-7.14551-22.68848,0-10.71777,2.73535-23.45801,8.2168-38.22949,3.09277-8.33496,6.0127-15.06152,8.75391-20.18652,2.73535-5.11914,6.25293-11.01465,10.54004-17.68652,8.5752-.71387,15.36328,1.49121,20.36523,6.61035,5.00195,5.125,7.50293,12.92383,7.50293,23.40234,0,8.81543-1.66895,18.34473-5.00195,28.58301Z" style="fill:#faf5f5;"/><polygon points="659.14749 237.10567 659.14749 287.12618 601.62405 501.49923 655.21683 501.85665 727.03226 233.88985 659.14749 237.10567" style="fill:#faf5f5;"/><polygon points="813.49319 233.88985 745.60843 237.10567 745.60843 287.12618 688.08499 501.49923 741.67776 501.85665 813.49319 233.88985" style="fill:#faf5f5;"/><path d="M947.47366,311.4211l-53.59277,21.4375c3.09277,7.62598,4.64453,15.96094,4.64453,25.01074,0,17.14941-4.64453,35.43262-13.93457,54.84375-6.86133,14.34106-15.61377,30.34155-26.24316,47.99268l5.52051-144.99658-53.9502,17.86426,1.78613,172.92773,22.88574-6.30688c-1.43701,3.61401-2.16309,7.73926-2.16309,12.3811,0,3.09277.35742,6.43066,1.07227,10.00391.23438,1.66406.71387,3.86914,1.42871,6.60938.71484,2.73633,1.07227,5.18066,1.07227,7.3252,0,2.80591-.60107,6.03735-1.76416,9.66626-3.15381.46118-6.02148.69507-8.59717.69507-10.95898,0-20.00879-2.44531-27.1543-7.32422-7.14551-4.88574-14.52637-11.6123-22.15234-20.1875l-40.01562,36.08594c4.76758,7.14648,12.80664,13.99023,24.11621,20.54492,11.31641,6.54785,23.75977,9.8252,37.33691,9.8252,12.38281,0,24.77051-2.02637,37.1582-6.07422,12.38281-4.05273,22.68848-10.24414,30.90527-18.5791,8.21777-8.33984,12.32715-18.34473,12.32715-30.01172,0-4.52734-.48047-10.12695-1.42969-16.79297-.71387-3.8125-1.07129-7.62598-1.07129-11.43359,0-6.66504,1.78613-12.8623,5.35938-18.57812,4.76172-8.0957,12.02441-19.1709,21.79395-33.22852,11.19336-16.66992,20.1875-30.54785,26.97559-41.62402s12.56055-22.6875,17.32812-34.83594c4.7627-12.14746,7.14648-23.81543,7.14648-35.01367,0-10.00488-2.2666-19.41113-6.78906-28.22656Z" style="fill:#faf5f5;"/></g></svg>