<?xml version="1.0" encoding="UTF-8"?><svg id="Layer_2" xmlns="http://www.w3.org/2000/svg" viewBox="0 0 2098.48 657.04"><defs><style>.cls-1{fill:#ffefe3;}.cls-2{fill:#232348;}</style></defs><g id="Layer_1-2"><rect class="cls-1" width="2098.48" height="657.04"/><path class="cls-2" d="M325.02,370.14c0-21.62-18.01-31.82-39.33-50.44l-29.72,9.31c-8.71,2.7-16.51,3.9-23.42,3.9-26.72,0-40.83-22.52-40.83-39.93,0-34.53,39.93-57.34,67.25-57.34,20.72,0,47.14,15.91,60.05,15.91,9.91,0,17.71-8.41,17.71-18.61,0-11.41-6.91-17.71-16.21-17.71-6.91,0-12.01,4.5-15.31,8.11-2.4-1.5-4.5-3-6.3-5.1,5.4-7.81,13.21-12.31,22.22-12.31,17.71,0,26.42,11.71,26.42,26.72,0,24.02-24.02,37.83-42.03,37.83-21.32,0-47.14-18.92-68.15-18.92-13.21,0-22.82,6.91-22.82,24.62,0,28.22,19.82,40.83,36.93,40.83,7.81,0,12.01.3,22.82-3.3l33.03-11.41c18.61,14.71,38.43,31.52,38.43,54.94,0,21.92-13.21,35.73-40.53,55.24-8.41,6-14.11,10.21-21.32,15.61-24.32-13.21-62.75-51.94-85.57-51.94-9.91,0-18.61,6-18.61,17.41,0,10.21,6.91,17.41,21.62,19.21,0,3.3-.3,6-.9,8.11-12.91.3-30.62-7.51-30.62-27.02,0-17.11,17.41-33.33,41.73-33.33,30.62,0,62.75,33.03,86.47,45.33,16.51-11.11,27.02-19.21,27.02-35.73Z"/><path class="cls-2" d="M366.75,384.85v-34.83c0-9.31-.3-15.61-.6-20.72,16.81-11.71,34.23-24.32,50.74-33.63,8.71,6.91,12.31,12.01,17.41,22.52-5.7,4.8-12.61,9.31-19.51,12.91-4.5-8.11-7.51-12.31-12.01-16.21-8.41,5.4-11.41,8.11-13.81,9.91.3,5.7.3,12.01.3,17.71v32.42c0,12.91-.3,16.51-.3,20.42,8.41,1.2,17.41,4.2,24.62,8.11l10.81-9.91c2.4,1.2,4.8,4.5,5.7,6.3-14.41,13.51-17.11,16.21-24.62,24.02-13.81-7.81-24.02-12.01-39.33-15.31.3-6,.6-12.91.6-23.72Z"/><path class="cls-2" d="M478.13,316.39c13.81-7.51,28.22-15.01,42.03-21.32,17.41,25.22,26.72,43.83,26.72,64.85,0,33.03-16.21,66.65-72.96,127.3-2.4-1.2-5.4-3.6-6.91-5.7,37.23-41.13,58.25-71.46,58.25-101.78,0-25.52-15.61-49.54-27.62-63.95-6.61,3-13.21,6-19.51,9.61v71.46c4.5,1.2,8.41,2.4,13.21,5.1l6-5.71c2.4,1.8,4.2,3.6,6,6-7.21,6.61-13.51,12.91-20.12,20.42-10.81-6.91-23.72-13.81-42.33-9.91-.9-1.5-1.8-3.6-2.1-5.7,4.8-3.3,10.21-7.21,16.81-9.61v-121.59c0-18.01-3.3-33.63-15.31-40.83.6-2.1,1.2-3.9,2.4-6,6.3,1.5,13.21,3,21.32,11.11,6.61-12.31,17.11-19.52,33.93-19.52,5.4,0,11.71,1.2,15.61,3.3-.3,2.1-.9,4.2-1.8,6.3-22.52-1.8-33.63,5.4-33.63,35.43v50.74Z"/><path class="cls-2" d="M610.23,406.46c-9.61.3-11.71,3.6-19.82,15.91-2.1.3-3.9.3-6,0-3.6-6.6-8.41-16.21-19.52-20.42-.3-1.8-.3-3.3,0-5.1,6.91-1.8,12.61-6.91,12.61-18.91v-46.24c0-5.4-2.7-9.91-8.11-9.91-1.2,0-3.3.3-5.71,1.2-1.5-1.5-2.4-3.3-3.3-5.4,9.01-7.21,17.11-14.11,22.52-24.92,1.5-.3,3.3-.3,4.8,0,3.6,7.21,10.81,17.41,24.32,20.72.3,1.8.3,3.6,0,5.4-6.91,3-13.51,5.71-13.51,18.92v48.34c0,6.31,2.7,9.01,6.91,11.71l23.12-.9c6-.3,11.11-3.9,11.11-9.61v-50.44c0-12.01-5.7-15.91-12.91-18.31-.3-1.8-.3-3.3,0-5.1,9.01-5.1,15.91-11.71,21.92-20.42,1.5-.3,3.3-.3,4.8,0,3.9,6.6,8.71,16.21,19.82,20.42.3,1.8.3,3.3,0,5.1-6.91,1.8-12.61,6.91-12.61,18.92v46.24c0,5.4,2.7,9.91,8.11,9.91,1.2,0,3.3-.3,5.71-1.2,1.2,1.5,2.4,3.3,3.3,5.4-10.21,8.11-17.11,14.11-22.52,24.92-1.5.3-3.3.3-4.8,0-2.7-5.1-8.41-13.81-13.81-17.41l-26.42,1.2Z"/><path class="cls-2" d="M775.06,291.17c0,9.61-7.81,19.21-15.91,24.02,7.21,2.4,9.31,9.31,9.31,13.81,0,3.9-1.2,9.01-4.2,12.31,7.81,6,14.11,14.71,14.11,24.32,0,9.01-3.3,16.51-12.91,30.02-9.91,13.21-20.72,24.92-36.03,24.92-5.71,0-12.01-.9-21.62-5.71l-4.8,7.81c-2.7-.9-5.1-2.1-7.21-4.2l10.81-19.21c-4.5-3.9-6.6-9.61-6.6-15.61,0-7.21,3.3-10.81,6.6-13.81-10.21-9.61-12.01-15.01-12.01-22.22,0-11.41,6.91-20.72,14.71-29.72,14.71-16.81,24.62-21.02,42.63-21.02,4.2,0,8.41,0,10.51-.9,3-.9,3.9-3.3,3.9-5.1,0-3.3-1.5-5.1-3.9-8.11,1.8-2.1,4.2-3.6,6.6-5.1,2.4,2.1,6,6.61,6,13.51ZM708.41,382.14c0,12.91,14.11,17.11,31.52,17.11,13.81,0,21.32-9.31,21.32-17.41,0-12.31-9.31-16.21-19.21-25.22-22.22,11.71-33.63,13.21-33.63,25.52ZM753.14,341.91c5.4-2.7,6.91-6.91,6.91-11.71,0-5.1-6-12.61-18.61-12.61-25.52,0-30.02,5.7-30.02,12.31,0,10.21,9.01,16.51,18.01,24.02l23.72-12.01Z"/><path class="cls-2" d="M849.81,421.18c-10.81-6.91-35.73-13.81-54.34-9.91-.9-1.5-1.8-3.6-2.1-5.7,4.2-3,11.11-6.3,18.31-8.41v-74.46h-18.31c-.9-1.5-1.5-4.8-1.2-6.91l64.85-56.14c2.4,1.8,4.2,4.2,5.4,6.61l-21.92,19.82c-6.91,6-7.81,10.81-7.21,21.32h34.53c1.8,3.9,1.2,11.11,0,15.01h-33.63v71.75c7.21.6,17.41,3,23.72,6.3l6-5.7c2.4,1.5,4.2,3.6,6,6-7.21,6.6-13.51,12.91-20.12,20.42Z"/><path class="cls-2" d="M939.88,295.38l13.51,15.61c3.9,4.5,6.61,9.61,6.61,13.81,0,7.81-8.11,18.01-23.72,28.52l-24.32,16.51v5.1c0,12.91-.3,16.51-.3,20.42,8.41,1.2,21.92,4.2,29.12,8.11l10.81-9.91c2.4,1.2,4.8,4.5,5.71,6.3-14.41,13.51-17.11,16.21-24.62,24.02-13.81-7.81-28.52-12.01-43.83-15.31.3-6,.6-12.91.6-23.72v-34.83c0-9.31-.3-15.61-.6-20.72,14.11-10.51,40.53-28.52,51.04-33.93ZM911.96,359.63l13.21-9.01c9.91-6.61,12.61-10.81,12.61-16.21,0-3.3-.9-6.91-5.1-11.71l-7.21-7.81-3.9,2.7c-4.5,3-5.71,3.9-9.91,7.21.3,5.7.3,12.01.3,17.71v17.11Z"/><path class="cls-2" d="M1029.95,422.68c-10.81-6.91-35.73-13.81-54.34-9.91-.9-1.5-1.8-3.6-2.1-5.7,3.9-2.7,10.21-5.7,16.81-8.11v-67.25c0-5.4-4.2-9.91-9.61-9.91-1.2,0-3.3.3-5.71,1.2-1.2-1.5-2.4-3-3-5.1,10.21-8.11,18.31-14.41,22.52-25.22,2.1-.3,3.9-.3,6,0,3.3,6.91,9.01,16.21,15.91,21.32,13.51-4.8,22.82-9.31,29.42-21.02,1.8-.3,3.6-.3,5.4,0,2.7,10.51,5.4,15.31,15.01,18.91.3,2.1.3,3.9,0,6-8.11,3.6-17.41,11.11-19.51,18.01-2.1.3-3.9.3-6,0-1.8-9.31-5.4-15.31-13.51-15.31-2.4,0-3.9-.3-10.81,2.4l-3.6,1.5v71.15c7.21.3,18.31,2.7,25.22,6.31l6-5.71c2.4,1.5,4.2,3.6,6,6-7.21,6.61-13.51,12.91-20.12,20.42Z"/><path class="cls-2" d="M1162.34,383.05c.6,2.7.9,5.7.6,8.41-15.91,1.5-33.33,12.01-33.33,35.73,0,25.22,20.72,39.93,42.63,39.93,25.82,0,42.33-15.31,42.33-45.93,0-39.03-38.43-67.25-38.43-109.58,0-16.51,8.71-33.63,23.42-54.64-19.81-12.01-37.53-25.52-55.84-25.52-20.72,0-33.03,18.31-33.03,34.83,0,15.31,6.91,25.82,23.12,32.12-.6,3.3-1.5,5.7-2.7,7.81-15.61-3.6-31.22-15.91-31.22-38.73,0-24.02,22.82-51.64,64.25-51.64s71.46,41.73,99.98,41.73c8.71,0,18.31-4.8,18.31-18.31,0-6.6-1.8-11.11-3.3-15.01,2.7-1.5,5.1-2.4,7.81-3.3,2.4,4.5,5.1,11.41,5.1,19.21,0,21.02-18.31,35.13-39.33,35.13-17.11,0-32.12-6.3-46.24-14.11-10.21,13.21-11.71,22.22-11.71,32.12,0,12.61,9.91,28.52,19.82,47.14,10.81-5.7,17.71-9.91,19.82-15.91.9-2.4,1.5-8.71-1.5-14.71,2.1-1.5,4.8-3,7.51-3.9,5.4,8.41,13.81,11.11,24.02,5.1,1.8,2.1,3,4.2,4.2,6.91-10.21,9.01-12.61,15.61-8.41,27.62-2.1,1.8-4.8,2.7-7.51,3.3-6.61-8.41-12.91-14.41-34.23-1.2,9.01,18.01,17.41,38.43,17.41,61.55,0,42.03-29.72,67.55-64.85,67.55-30.32,0-52.54-20.42-52.54-48.34,0-30.32,25.52-45.04,43.83-45.33Z"/><path class="cls-2" d="M1341.28,422.68c-10.81-6.91-35.73-13.81-54.34-9.91-.9-1.5-1.8-3.6-2.1-5.7,3.9-2.7,10.21-5.7,16.81-8.11v-67.25c0-5.4-4.2-9.91-9.61-9.91-1.2,0-3.3.3-5.71,1.2-1.2-1.5-2.4-3-3-5.1,10.21-8.11,18.31-14.41,22.52-25.22,2.1-.3,3.9-.3,6,0,3.3,6.91,9.01,16.21,15.91,21.32,13.51-4.8,22.82-9.31,29.42-21.02,1.8-.3,3.6-.3,5.4,0,2.7,10.51,5.4,15.31,15.01,18.91.3,2.1.3,3.9,0,6-8.11,3.6-17.41,11.11-19.51,18.01-2.1.3-3.9.3-6,0-1.8-9.31-5.4-15.31-13.51-15.31-2.4,0-3.9-.3-10.81,2.4l-3.6,1.5v71.15c7.21.3,18.31,2.7,25.22,6.31l6-5.71c2.4,1.5,4.2,3.6,6,6-7.21,6.61-13.51,12.91-20.12,20.42Z"/><path class="cls-2" d="M1471.87,422.38c-14.11-9.91-18.31-17.11-21.02-23.42h-1.2l-24.62,23.42c-8.71-5.1-21.32-11.11-37.23-13.81.3-6,.6-12.91.6-23.72v-34.83c0-9.31-.3-15.61-.6-20.72,18.91-11.71,36.93-23.12,54.94-35.73,9.01,7.21,22.52,18.01,35.13,18.01,2.4,0,5.7-.6,8.11-1.5.9.9,2.7,3.6,3.3,4.8-3.6,4.2-9.91,9.31-17.11,12.31v63.95c2.4,3.6,6.3,6.3,9.61,8.71l7.5-6.91c2.1,1.8,3.9,3.6,6,6.31-8.11,6.91-15.91,14.41-23.42,23.12ZM1433.15,401.96l16.51-15.31v-59.45c-6.61-1.8-13.81-5.71-23.42-12.01l-4.2,2.7c-3,1.8-9.01,5.7-11.71,8.11.3,5.4.6,12.31.6,18.31v30.62c0,12.91-.3,16.51-.3,20.42,7.81.6,16.51,3.3,22.52,6.61Z"/><path class="cls-2" d="M1560.44,359.63l-21.92,15.61v22.22c2.4.9,4.8,2.4,8.71,4.5l5.1-4.8c2.4,1.8,4.2,3.6,6,6-7.21,6.61-12.61,12.01-19.21,19.52-10.81-6.91-19.21-13.81-37.83-9.91-.9-1.8-1.8-3.9-2.1-5.7,4.8-3.6,10.21-7.21,16.81-9.61v-121.59c0-18.01-3.3-33.63-15.31-40.83.6-2.1,1.2-3.9,2.4-6,6.3,1.5,13.21,3,21.32,11.11,6.61-12.31,17.11-19.52,33.93-19.52,5.4,0,11.71,1.2,15.61,3.3-.3,2.1-.9,4.2-1.8,6.3-22.52-1.8-33.63,5.4-33.63,35.43v50.44c12.91-7.5,24.62-14.71,38.13-21.02,7.81,8.41,17.71,15.31,17.71,24.92,0,8.71-2.7,17.41-15.61,26.42,6.31,24.32,14.41,45.33,24.62,55.54l6-5.71c2.4,1.8,4.2,3.6,6,6-7.21,6.61-13.51,12.91-20.12,20.42-18.92-11.11-28.22-30.92-34.83-63.05ZM1559.24,314.29c-6.91,3-13.81,6.91-20.72,10.81v40.23l24.32-17.11c7.81-5.4,8.11-11.11,8.11-15.31,0-8.41-5.1-12.91-11.71-18.61Z"/><path class="cls-2" d="M1679.63,421.18c-10.81-6.91-35.73-13.81-54.34-9.91-.9-1.5-1.8-3.6-2.1-5.7,4.2-3,11.11-6.3,18.31-8.41v-74.46h-18.31c-.9-1.5-1.5-4.8-1.2-6.91l64.85-56.14c2.4,1.8,4.2,4.2,5.4,6.61l-21.92,19.82c-6.91,6-7.81,10.81-7.21,21.32h34.53c1.8,3.9,1.2,11.11,0,15.01h-33.63v71.75c7.21.6,17.41,3,23.72,6.3l6-5.7c2.4,1.5,4.2,3.6,6,6-7.21,6.6-13.51,12.91-20.12,20.42Z"/><path class="cls-2" d="M1760.69,406.46c-9.61.3-11.71,3.6-19.82,15.91-2.1.3-3.9.3-6,0-3.6-6.6-8.41-16.21-19.51-20.42-.3-1.8-.3-3.3,0-5.1,6.91-1.8,12.61-6.91,12.61-18.91v-46.24c0-5.4-2.7-9.91-8.11-9.91-1.2,0-3.3.3-5.71,1.2-1.5-1.5-2.4-3.3-3.3-5.4,9.01-7.21,17.11-14.11,22.52-24.92,1.5-.3,3.3-.3,4.8,0,3.6,7.21,10.81,17.41,24.32,20.72.3,1.8.3,3.6,0,5.4-6.91,3-13.51,5.71-13.51,18.92v48.34c0,6.31,2.7,9.01,6.91,11.71l23.12-.9c6-.3,11.11-3.9,11.11-9.61v-50.44c0-12.01-5.7-15.91-12.91-18.31-.3-1.8-.3-3.3,0-5.1,9.01-5.1,15.91-11.71,21.92-20.42,1.5-.3,3.3-.3,4.8,0,3.9,6.6,8.71,16.21,19.82,20.42.3,1.8.3,3.3,0,5.1-6.91,1.8-12.61,6.91-12.61,18.92v46.24c0,5.4,2.7,9.91,8.11,9.91,1.2,0,3.3-.3,5.71-1.2,1.2,1.5,2.4,3.3,3.3,5.4-10.21,8.11-17.11,14.11-22.52,24.92-1.5.3-3.3.3-4.8,0-2.7-5.1-8.41-13.81-13.81-17.41l-26.42,1.2Z"/><path class="cls-2" d="M1896.99,422.68c-10.81-6.91-35.73-13.81-54.34-9.91-.9-1.5-1.8-3.6-2.1-5.7,3.9-2.7,10.21-5.7,16.81-8.11v-67.25c0-5.4-4.2-9.91-9.61-9.91-1.2,0-3.3.3-5.71,1.2-1.2-1.5-2.4-3-3-5.1,10.21-8.11,18.31-14.41,22.52-25.22,2.1-.3,3.9-.3,6,0,3.3,6.91,9.01,16.21,15.91,21.32,13.51-4.8,22.82-9.31,29.42-21.02,1.8-.3,3.6-.3,5.4,0,2.7,10.51,5.4,15.31,15.01,18.91.3,2.1.3,3.9,0,6-8.11,3.6-17.41,11.11-19.51,18.01-2.1.3-3.9.3-6,0-1.8-9.31-5.4-15.31-13.51-15.31-2.4,0-3.9-.3-10.81,2.4l-3.6,1.5v71.15c7.21.3,18.31,2.7,25.22,6.31l6-5.71c2.4,1.5,4.2,3.6,6,6-7.21,6.61-13.51,12.91-20.12,20.42Z"/></g></svg>