<?xml version="1.0" encoding="UTF-8"?>
<svg xmlns="http://www.w3.org/2000/svg" baseProfile="tiny" version="1.2" viewBox="0 0 1673.19534 699.84003">
  <!-- Generator: Adobe Illustrator 28.6.0, SVG Export Plug-In . SVG Version: 1.2.0 Build 709)  -->
  <g>
    <g id="Layer_2">
      <rect y="-1.48799" width="1673.19534" height="701.32802" fill="#ffefe3"/>
      <g>
        <path d="M1336.37115,566.23321c-1.20115-1.60157-2.40987-3.00671-4.01153-4.01148l-4.01153,3.80749c-4.61584-2.40991-12.03449-4.01148-16.84676-4.20791v-47.53343l2.40987-1.00477c4.61584-1.80556,5.6131-1.60157,7.22223-1.60157,5.41667,0,7.81898,4.01148,9.02769,10.22889,1.40514.19643,2.60629.19643,4.01153,0,1.40514-4.61584,7.62255-9.62453,13.03922-12.03445.20399-1.40514.20399-2.60634,0-4.01148-6.41383-2.40991-8.21939-5.61305-10.02495-12.6388-1.20115-.19643-2.40987-.19643-3.61111,0-4.41185,7.81898-10.62926,10.83329-19.65704,14.03643-4.61584-3.40712-8.42338-9.62453-10.62926-14.24037-1.40514-.20399-2.60629-.20399-4.01153,0-2.81028,7.22218-8.22695,11.43009-15.0412,16.84671.40042,1.40514,1.20115,2.40235,2.00955,3.40712,1.60157-.60436,3.00671-.80078,3.80754-.80078,3.61111,0,6.4214,3.00671,6.4214,6.61782v44.92713c-4.41185,1.60157-8.62737,3.61111-11.23366,5.41662.20399,1.40514.80083,2.81028,1.40514,3.81506,12.43482-2.60634,29.08515,2.00198,36.29981,6.61782,4.41185-5.01625,8.62737-9.22416,13.43963-13.63601M1249.53125,568.24271c3.61111,2.40991,7.41856,8.21939,9.22412,11.63408,1.00473.19643,2.20597.19643,3.2107,0,3.61111-7.22218,8.22695-11.23366,15.0412-16.65029-.6044-1.40514-1.40514-2.60634-2.20597-3.61111-1.60157.60436-3.00671.80078-3.80754.80078-3.61111,0-5.41667-3.00671-5.41667-6.61782v-30.88314c0-8.02296,3.80754-11.43009,8.42338-12.6388.20399-1.2012.20399-2.20593,0-3.40712-7.41856-2.81028-10.62926-9.22416-13.23565-13.63601-1.00473-.19643-2.20597-.19643-3.2107,0-4.01153,5.81704-8.62737,10.22889-14.64079,13.63601-.20399,1.2012-.20399,2.20593,0,3.40712,4.81227,1.60157,8.62737,4.21547,8.62737,12.23087v33.69343c0,3.80749-3.40712,6.21741-7.41856,6.4214l-15.44153.60436c-2.81028-1.80556-4.61584-3.61111-4.61584-7.81898v-32.28828c0-8.82375,4.41185-10.6293,9.02769-12.6388.20399-1.2012.20399-2.40991,0-3.61111-9.02769-2.20593-13.83996-9.02774-16.24992-13.84-1.00473-.20399-2.20597-.20399-3.2107,0-3.61111,7.22218-9.02769,11.83046-15.0412,16.65029.6044,1.40514,1.20115,2.60634,2.20597,3.61111,1.60157-.60436,3.00671-.80078,3.8151-.80078,3.61111,0,5.41667,3.00671,5.41667,6.61782v30.8907c0,8.02296-3.8151,11.43009-8.42338,12.6388-.20399,1.2012-.20399,2.20593,0,3.40712,7.41856,2.81028,10.62926,9.22416,13.03922,13.63601,1.40514.20399,2.60629.20399,4.01153,0,5.41667-8.21939,6.82181-10.43288,13.23565-10.6293l17.6475-.80078-.00765-.00756ZM1191.16453,565.22844c-1.20115-1.60157-2.40987-3.00671-4.01153-4.01148l-4.01153,3.80749c-4.20786-2.20593-11.02967-3.80749-15.84194-4.21547v-47.93384h22.45976c.80083-2.60634,1.20115-7.41861,0-10.02495h-23.06417c-.40042-7.01819.20399-10.22889,4.81227-14.24037l14.64079-13.23562c-.80083-1.60157-2.00198-3.2107-3.61111-4.41187l-43.32552,37.50853c-.20399,1.40514.20399,3.61111.80083,4.61584h12.23083v49.7394c-4.81227,1.40514-9.42811,3.61111-12.23083,5.61305.20399,1.40514.80083,2.81028,1.40514,3.80749,12.43482-2.60634,29.07759,2.00198,36.29981,6.61782,4.41185-5.01625,8.62737-9.22416,13.43963-13.63601M1116.75944,491.22372c0,2.40991-.40042,5.01625-4.20786,7.22218l-11.23366,6.4214v-18.65227l10.43292-5.61305c3.61111,4.4119,5.01625,8.42338,5.01625,10.6293M1075.84379,514.89224h10.43292v49.135c-4.41185,1.60157-8.02296,4.01148-11.23366,6.4214.20399,1.2012.80083,2.60634,1.40514,3.80749,12.43482-2.60634,26.67528,2.00198,33.89741,6.61782,4.41185-5.01625,8.62737-9.22416,13.43963-13.63601-1.20115-1.60157-2.40987-2.81028-4.01153-4.01148l-4.01153,3.80749c-3.61111-2.00198-9.42811-3.00671-14.4368-3.61111v-48.5382h26.87918c.20399-1.80556.20399-3.80749,0-5.61305h-24.26532v-.60436l15.24519-8.22695c5.01625-2.81028,11.8305-6.61782,11.8305-14.24037,0-4.61584-3.80754-10.22891-8.82379-17.2471-6.61782,3.80752-13.63606,8.02296-20.85819,11.63405v-7.22218c0-12.83523,8.22695-19.65702,18.65222-19.65702,2.40987,0,6.82181.60436,11.23366,2.81031,1.00473-1.40514,2.00955-2.81031,2.60629-4.61584-4.61584-3.2107-10.62926-4.81227-15.24519-4.81227-12.03449,0-21.25861,5.41665-26.67528,15.84196-5.6131-8.02296-9.62453-10.02492-14.84478-12.83523-1.40514,1.40514-2.40987,2.81031-3.40712,4.61584,10.43292,7.819,12.6388,9.42813,12.6388,29.48554v25.07367h-10.43292c-.20399,1.80556-.20399,3.80749,0,5.61305M1013.66953,561.62489c0-2.60634.20399-5.01625.20399-13.63601v-20.45783c0-4.01148-.20399-8.62732-.40042-12.23087,1.80556-1.60157,5.81699-4.21547,7.81898-5.41662l2.81028-1.80556c6.4214,4.20791,11.23366,6.82181,15.64551,8.02296v39.71445l-11.02967,10.22889c-4.01153-2.20593-9.82852-4.01148-15.0412-4.4119M1070.23069,564.23123c-1.40514-1.80556-2.60629-3.00671-4.01153-4.21547l-5.01625,4.61584c-2.20597-1.60157-4.81227-3.40712-6.41383-5.81704v-42.72116c4.81227-2.00198,9.02769-5.41662,11.43009-8.21939-.40042-.80078-1.60157-2.60634-2.20597-3.2107-1.60157.60436-3.80754,1.00477-5.41667,1.00477-8.42338,0-17.45107-7.22218-23.46458-12.03445-12.03449,8.42338-24.06889,16.04593-36.70013,23.86495.20399,3.40712.40042,7.6226.40042,13.84v23.26811c0,7.22218-.20399,11.83046-.40042,15.84194,10.62926,1.80556,19.05264,5.81704,24.86972,9.22416l16.44634-15.64556h.80083c1.80556,4.21547,4.61584,9.02774,14.03638,15.64556,5.01625-5.81704,10.22894-10.83329,15.64551-15.44157M980.7844,566.23321c-1.20115-1.60157-2.40987-3.00671-4.01153-4.01148l-4.01153,3.80749c-4.61584-2.40991-12.03449-4.01148-16.84676-4.20791v-47.53343l2.40987-1.00477c4.61584-1.80556,5.6131-1.60157,7.22223-1.60157,5.41667,0,7.81898,4.01148,9.02769,10.22889,1.40514.19643,2.60629.19643,4.01153,0,1.40514-4.61584,7.62255-9.62453,13.03922-12.03445.20399-1.40514.20399-2.60634,0-4.01148-6.4214-2.40991-8.22695-5.61305-10.02495-12.6388-1.20115-.19643-2.40987-.19643-3.61111,0-4.41185,7.81898-10.62926,10.83329-19.65704,14.03643-4.61584-3.40712-8.42338-9.62453-10.62926-14.24037-1.40514-.20399-2.60629-.20399-4.01153,0-2.81028,7.22218-8.22695,11.43009-15.0412,16.84671.40042,1.40514,1.20115,2.40235,2.00955,3.40712,1.60157-.60436,3.00671-.80078,3.80754-.80078,3.61111,0,6.4214,3.00671,6.4214,6.61782v44.92713c-4.41185,1.60157-8.62737,3.61111-11.23366,5.41662.20399,1.40514.80083,2.81028,1.40514,3.81506,12.43482-2.60634,29.07759,2.00198,36.29981,6.61782,4.41185-5.01625,8.62737-9.22416,13.43963-13.63601M915.7999,450.30811c-1.80556.19643-3.40712.80078-4.81227,1.40514.40042,1.40514,1.00477,3.80752,1.00477,6.21743,0,5.01625-4.01148,10.22891-11.23366,10.22891-14.4368,0-31.08713-21.86297-59.7643-21.86297-23.86495,0-39.31404,16.84671-39.31404,33.69345s10.02495,23.26813,20.25384,26.27484c.80078-1.40514,1.40514-3.2107,1.80556-5.21268-11.23366-4.01148-16.04593-11.02967-16.04593-21.06218,0-13.03922,9.42811-21.86297,23.26811-21.86297,9.42811,0,18.65227,6.01344,28.67722,11.83048-5.81704,11.23369-9.82852,18.25188-9.82852,30.68674,0,33.09663,39.51046,47.337,39.51046,81.43084,0,20.45783-17.0507,33.69343-32.6887,33.69343s-31.29107-11.23366-31.29107-32.09186,17.24713-33.49704,17.24713-48.73463c0-11.23366-7.6226-15.84194-15.44157-20.25384-1.2012,1.40514-2.0095,3.00671-2.81028,4.4119,3.80749,2.81028,6.4214,5.01625,6.4214,8.82375,0,12.23087-18.44828,25.67046-18.44828,50.34376,0,29.07759,21.65898,43.52195,43.52195,43.52195s45.53149-18.44828,45.53149-54.55167c0-11.63408-4.81227-21.86297-11.23366-31.08713,9.22416-9.82852,13.84-13.84,19.05264-13.84,2.20593,0,4.4119.60436,6.61782,1.60157,1.00477-.80078,2.0095-1.80556,2.60634-3.00671-2.40991-3.61111-3.81506-6.82181-3.81506-10.22889,0-2.81028.80078-6.21741,2.60634-10.02495-1.00477-1.00477-2.0095-1.60157-3.40712-2.20593-2.81028,3.61111-6.21741,4.81227-9.22416,4.81227-3.40712,0-6.21741-1.40514-7.6226-2.20593-1.00477.80078-1.80556,1.60157-2.81028,2.81028,3.00671,4.61584,3.61111,7.22218,3.61111,10.22889,0,4.61584-3.80749,10.42532-11.02967,17.6475-12.03445-16.04593-27.47602-29.28157-27.47602-42.51717,0-5.61305,1.40514-10.02492,5.01625-16.65031,8.02296,4.41187,16.44634,8.22693,25.47403,8.22693,22.05939,0,27.68001-14.84475,27.68001-22.26336,0-2.81031-.40042-5.21266-1.60157-8.21939M800.47165,537.15563c-10.83329,3.2107-21.65898,6.21741-32.49227,8.62732-.60436,1.2012-.40042,6.82181,0,8.02296,10.83329-3.2107,21.65898-6.21741,32.49227-8.62732.40042-1.2012.60436-6.82181,0-8.02296M800.47165,510.48035c-10.83329,3.2107-21.65898,6.21741-32.49227,8.62732-.60436,1.2012-.40042,6.82181,0,8.02296,10.83329-3.2107,21.65898-6.21741,32.49227-8.62732.40042-1.2012.60436-6.82181,0-8.02296M748.93425,566.23321c-1.2012-1.60157-2.40991-3.00671-4.01148-4.01148l-4.01148,3.80749c-4.61584-2.40991-12.03445-4.01148-16.84671-4.20791v-47.53343l2.40991-1.00477c4.61584-1.80556,5.61305-1.60157,7.22218-1.60157,5.41662,0,7.81898,4.01148,9.02774,10.22889,1.40514.19643,2.60634.19643,4.01148,0,1.40514-4.61584,7.6226-9.62453,13.03922-12.03445.20399-1.40514.20399-2.60634,0-4.01148-6.41383-2.40991-8.22695-5.61305-10.02495-12.6388-1.2012-.19643-2.40991-.19643-3.61111,0-4.4119,7.81898-10.6293,10.83329-19.65704,14.03643-4.61584-3.40712-8.42338-9.62453-10.6293-14.24037-1.40514-.20399-2.60634-.20399-4.01148,0-2.81028,7.22218-8.22695,11.43009-15.04116,16.84671.40042,1.40514,1.2012,2.40235,2.00198,3.40712,1.60157-.60436,3.00671-.80078,3.80749-.80078,3.61111,0,6.4214,3.00671,6.4214,6.61782v44.92713c-4.4119,1.60157-8.62732,3.61111-11.23366,5.41662.19643,1.40514.80078,2.81028,1.40514,3.81506,12.43486-2.60634,29.08515,2.00198,36.29977,6.61782,4.4119-5.01625,8.62732-9.22416,13.43959-13.63601M656.67768,526.32233c0-3.80749,0-8.02296-.20399-11.83046,2.81028-2.20593,3.61111-2.81028,6.61782-4.81227l2.60634-1.80556,4.81227,5.21268c2.81028,3.2107,3.40712,5.61305,3.40712,7.81898,0,3.61111-1.80556,6.4214-8.42338,10.83329l-8.82375,6.01347v-11.43009l.00756-.00005ZM641.22855,517.49858c.20399,3.40712.40042,7.6226.40042,13.84v23.26811c0,7.22218-.19643,11.83046-.40042,15.84194,10.22889,2.20593,20.05741,5.01625,29.28157,10.22889,5.01625-5.21268,6.82181-7.01819,16.44634-16.04593-.60436-1.2012-2.20593-3.40712-3.80749-4.21547l-7.22218,6.61782c-4.81227-2.60634-13.84-4.61584-19.45305-5.41662,0-2.60634.20399-5.01625.20399-13.63601v-3.40712l16.24236-11.02967c10.42532-7.01819,15.84194-13.84,15.84194-19.05264,0-2.81028-1.80556-6.21741-4.4119-9.22416l-9.02774-10.42532c-7.01819,3.61111-24.66573,15.64556-34.09384,22.66375M574.84642,561.62489c0-2.60634.20399-5.01625.20399-13.63601v-20.45783c0-4.01148-.20399-8.62732-.40042-12.23087,1.80556-1.60157,5.81704-4.21547,7.81898-5.41662l2.81028-1.80556c5.81704,4.01148,11.02967,6.61782,15.64556,8.02296v39.71445l-11.02967,10.22889c-4.01148-2.20593-9.82852-4.01148-15.04116-4.4119M624.98619,584.28864c0-7.22218-2.40991-17.6475-9.02774-23.66852v-44.52672c4.81227-2.00198,9.02774-5.41662,11.43009-8.21939-.40042-.80078-1.60157-2.60634-2.20593-3.2107-1.60157.60436-3.80749,1.00477-5.41662,1.00477-8.42338,0-17.45107-7.22218-23.46454-12.03445-12.03445,8.42338-24.06889,16.04593-36.70018,23.86495.20399,3.40712.40042,7.6226.40042,13.84v23.26811c0,7.22218-.20399,11.83046-.40042,15.84194,10.6293,1.80556,19.05264,5.81704,24.86968,9.22416l15.44157-14.84478h1.00477c2.81028,8.82375,16.04593,11.63408,16.04593,26.87166,0,13.43959-12.03445,25.07367-27.87643,25.07367-14.84478,0-23.26811-8.02296-23.26811-12.63124,0-3.81506,3.00671-5.41662,3.00671-9.42811s-3.2107-7.6226-8.21939-7.6226c-4.01148,0-8.22695,2.81028-8.22695,10.02495,0,9.62453,12.23087,25.07367,36.29977,25.07367,16.44634,0,36.29977-9.22416,36.29977-37.9089M534.1348,522.51484c0-6.82181,2.40991-9.02774,8.42338-11.23366.20399-1.2012.20399-2.40991,0-3.61111-7.41861-2.81028-10.6293-8.42338-12.83523-13.43959-1.00475-.20399-2.20595-.20399-3.40712,0-4.20791,6.41383-9.82852,11.23366-17.45109,11.83046l-13.63601.60436c-3.80752-2.60634-7.62257-8.82375-9.62453-13.63601-1.20118-.20399-2.20595-.20399-3.40712,0-3.80752,7.22218-9.22414,11.43009-16.04593,16.84671.40039,1.40514,1.00475,2.40235,2.00196,3.40712,1.60157-.60436,3.00673-.80078,3.80752-.80078,3.61109,0,5.41665,3.00671,5.41665,6.61782v31.88791c0,6.82181-2.40991,9.02774-8.42336,11.23366-.20397,1.2012-.20397,2.40991,0,3.61111,7.41861,2.81028,12.03445,8.62732,14.2404,13.63601,1.20118.19643,2.60634.19643,3.81506,0,3.00673-5.81704,5.21266-10.22889,13.03922-13.03922.20397-1.40514.20397-2.60634,0-4.01148-5.81704-1.2012-8.62734-4.20791-8.62734-12.23087v-27.68001c0-4.81227,1.20118-9.62453,10.6293-10.42532l12.43484-.60436c2.40991,1.00477,5.61305,3.61111,5.61305,8.82375v31.4875c0,5.61305-2.81031,8.62732-9.02774,10.6293-.20397,1.40514-.20397,2.60634,0,4.01148,9.02774,2.20593,13.03922,8.42338,15.44157,13.23565,1.40514.20399,2.60634.20399,4.01148,0,3.61111-7.22218,5.21268-9.22416,15.04116-16.24236-.60436-1.40514-1.2012-2.60634-2.20593-3.80749-1.60157.60436-3.00671.80078-3.81506.80078-3.61111,0-5.41662-3.00671-5.41662-6.61782v-31.29107l.00752.00752ZM331.96656,573.05498c1.20118,1.00477,2.40991,2.0095,4.01148,2.60634,4.41189-4.81227,9.02773-9.22416,17.45108-9.22416,10.83327,0,18.25188,6.01347,23.6685,16.84671,1.20118.40042,2.40235.40042,4.01148.40042,8.82375-10.42532,22.05939-19.25663,33.69345-19.25663,9.62453,0,17.85149,7.01819,22.86772,16.44634,1.00475.60436,2.40991.80078,3.80752,1.00477l20.05741-24.46931c-1.20118-1.40514-2.81031-2.60634-4.41187-3.61111l-5.61305,6.4214c-4.21545-3.80749-9.02774-7.22218-15.04118-8.82375v-73.40788c5.41665-3.00673,9.82852-4.61584,16.84671-7.22218,0-1.60157-.20397-3.61109-.80078-5.41665-12.63883.20397-16.84671-6.01344-18.65227-13.63601-1.40514-.19643-2.60634-.19643-4.01148,0-6.82179,11.0297-17.85149,13.43961-25.07367,14.43682-.20397,1.80556-.20397,3.61109.19643,5.01625,6.82179,1.00475,11.0297,3.80752,15.04118,9.62453v70.80154c-8.62734,1.80556-16.04593,6.21741-25.07367,12.23087-7.01821-6.61782-14.64079-10.6293-22.46732-12.43486v-73.00751c6.4214-4.01148,11.0297-5.81704,16.65031-7.819,0-1.80556-.20397-2.81031-.60436-4.61584-12.63883,1.80556-22.05939-4.01148-24.8697-13.63601-1.40514-.20397-2.60634-.20397-4.01148,0-2.00196,5.81704-4.20791,7.819-10.6293,10.22891-9.82852,3.40712-12.63882,5.61305-15.64554,11.23366,1.20118,1.20118,2.00196,1.60157,3.61109,2.40991,2.00196-3.2107,4.61584-4.61584,7.22218-4.61584,3.61109,0,6.82179,3.2107,11.63405,7.819v71.39836c-11.43009,2.00198-19.05266,10.6293-23.86493,22.26334" fill="#232348"/>
        <path d="M1518.95028,368.71105c2.93118,2.66677,5.68862,3.82262,5.68862,7.46393,0,2.39481-2.221,5.15223-6.30806,5.15223-5.15219,0-9.32989-1.2465-9.32989-5.06158s3.37688-4.08703,9.94942-7.55458M1515.21836,367.91026c-2.66679-2.22105-5.33358-4.08703-5.33358-7.10887,0-1.95663,1.32961-3.64131,8.8842-3.64131,3.73192,0,5.50732,2.22105,5.50732,3.73197,0,1.42027-.44569,2.66677-2.04726,3.46755l-7.01824,3.55066h.00756ZM1526.94309,345.34473c-.71009.44572-1.42027.89144-1.95661,1.51092.71009.89144,1.15587,1.42027,1.15587,2.39481,0,.53637-.26439,1.2465-1.15587,1.51092-.61944.26442-1.86596.26442-3.11248.26442-5.33358,0-8.26467,1.2465-12.61612,6.21743-2.31175,2.66677-4.35145,5.41665-4.35145,8.79355,0,2.1304.53635,3.73197,3.55062,6.5725-.97457.89144-1.95661,1.95663-1.95661,4.08703,0,1.77533.61944,3.46755,1.95661,4.6234l-3.19557,5.6886c.61944.61948,1.32961.97455,2.13035,1.2465l1.42027-2.3117c2.84053,1.42027,4.70649,1.68468,6.39871,1.68468,4.53275,0,7.72832-3.46755,10.65951-7.37328,2.84053-3.99638,3.82266-6.21743,3.82266-8.8842,0-2.84053-1.86596-5.41665-4.17771-7.19952.89148-.97455,1.24652-2.48546,1.24652-3.64131,0-1.32961-.61944-3.3769-2.75744-4.08703,2.4024-1.42027,4.70649-4.2608,4.70649-7.10887,0-2.04729-1.06522-3.3769-1.77531-3.99638M1488.39203,327.84074c-3.73192,0-5.33358,2.48546-5.33358,5.33353,0,3.1956,2.66679,5.24288,5.33358,5.24288,1.15587,0,2.13035-.26442,3.11248-.61948.09065.44572.09065.97455.09065,1.51092,0,4.08703-2.13035,8.97485-8.08337,14.03641.35504.71013.80083,1.32961,1.51092,1.86598,7.90963-5.6886,10.30446-11.64162,10.30446-17.32266,0-6.30808-2.75744-10.04005-6.92759-10.04005M1469.28646,382.21109c-.53635-.71013-1.06522-1.32961-1.77531-1.77533l-1.77531,1.68468c-2.0397-1.0652-5.33358-1.77533-7.46393-1.86598v-21.05462l1.06522-.44572c2.04726-.80078,2.48549-.71013,3.19557-.71013,2.4024,0,3.46753,1.77533,3.9964,4.53275.61944.09065,1.15587.09065,1.77531,0,.61944-2.03975,3.37688-4.2608,5.77171-5.33353.09065-.61948.09065-1.15585,0-1.77533-2.84053-1.0652-3.64127-2.48546-4.4421-5.59795-.53635-.09065-1.06522-.09065-1.60157,0-1.95661,3.46755-4.70649,4.79717-8.71046,6.21743-2.0397-1.51092-3.73192-4.2608-4.70649-6.30808-.61944-.09065-1.15587-.09065-1.77531,0-1.24652,3.1956-3.64127,5.06158-6.6631,7.46393.17374.61948.53635,1.0652.89148,1.51092.71009-.26442,1.32961-.35507,1.69222-.35507,1.60157,0,2.84053,1.32961,2.84053,2.93118v19.89877c-1.95661.71013-3.82266,1.60157-4.97844,2.40235.09065.61948.35504,1.2465.61944,1.68468,5.50732-1.15585,12.8806.89144,16.08374,2.93118,1.95661-2.22105,3.82266-4.08703,5.95302-6.04367M1422.19877,364.53336c0-1.68468,0-3.55066-.09065-5.24288,1.24652-.97455,1.60157-1.2465,2.93118-2.1304l1.15587-.80078,2.13035,2.3117c1.24652,1.42027,1.51092,2.48546,1.51092,3.46755,0,1.60157-.80083,2.84053-3.73192,4.79717l-3.91331,2.66677v-5.06158l.00756-.00754ZM1415.36183,360.62763c.09065,1.51092.17374,3.3769.17374,6.12676v10.30446c0,3.1956-.09065,5.24288-.17374,7.01821,4.53275.97455,8.8842,2.22105,12.97125,4.53275,2.221-2.3117,3.02183-3.11248,7.28263-7.10887-.26439-.52883-.97457-1.51092-1.68466-1.86598l-3.19557,2.93118c-2.13035-1.15585-6.12676-2.03975-8.61981-2.40235,0-1.15585.09065-2.22105.09065-6.04367v-1.51092l7.19954-4.88782c4.6234-3.11248,7.01824-6.12676,7.01824-8.43848,0-1.2465-.80083-2.74988-1.95661-4.08703l-3.9964-4.6234c-3.11248,1.60157-10.93146,6.92756-15.10161,10.04005M1379.73448,380.17136c0-1.15585.09065-2.22105.09065-6.04367v-9.0655c0-1.77533-.09065-3.82262-.17374-5.41665.80083-.71013,2.57614-1.86598,3.46753-2.40235l1.24652-.80078c2.57614,1.77533,4.88779,2.93118,6.92759,3.55066v17.59463l-4.88779,4.53275c-1.77531-.97455-4.35145-1.77533-6.6631-1.95663M1401.94498,390.21139c0-3.1956-1.06522-7.819-3.9964-10.48577v-19.72503c2.13035-.89144,3.9964-2.40235,5.06153-3.64131-.17374-.35507-.71009-1.15585-.97457-1.42027-.71009.26442-1.68466.44572-2.4024.44572-3.73192,0-7.72832-3.1956-10.39511-5.33353-5.33358,3.73197-10.65951,7.10887-16.25748,10.56886.09065,1.51092.1813,3.3769.1813,6.12676v10.30446c0,3.1956-.09065,5.24288-.1813,7.01821,4.70649.80078,8.4385,2.57612,11.01455,4.08703l6.8445-6.5725h.44569c1.24652,3.90573,7.10889,5.15223,7.10889,11.90603,0,5.95302-5.33358,11.10525-12.35173,11.10525-6.57245,0-10.30446-3.55066-10.30446-5.59795,0-1.68468,1.32961-2.39481,1.32961-4.17768s-1.42027-3.3769-3.64127-3.3769c-1.77531,0-3.64127,1.2465-3.64127,4.4421,0,4.2608,5.41667,11.10525,16.08374,11.10525,7.28263,0,16.08374-4.08703,16.08374-16.79385M1355.48429,362.84868c0-3.02183,1.06522-3.99638,3.73192-4.97847.09065-.53637.09065-1.0652,0-1.60157-3.28623-1.2465-4.70649-3.73197-5.68862-5.95302-.44569-.09065-.97457-.09065-1.51092,0-1.86596,2.84053-4.35145,4.97091-7.72832,5.24288l-6.04367.26442c-1.68466-1.15585-3.37688-3.90573-4.26836-6.04367-.53635-.09065-.97457-.09065-1.51092,0-1.68466,3.1956-4.08706,5.06158-7.10889,7.46393.17374.61948.44569,1.0652.89148,1.51092.71009-.26442,1.32961-.35507,1.68466-.35507,1.60157,0,2.4024,1.32961,2.4024,2.93118v14.12708c0,3.02183-1.06522,3.99638-3.73192,4.97847-.09065.53637-.09065,1.0652,0,1.60157,3.28623,1.2465,5.33358,3.82262,6.30806,6.04367.52878.09065,1.15587.09065,1.68466,0,1.32961-2.57612,2.31175-4.53275,5.77928-5.77171.09065-.61948.09065-1.15585,0-1.77533-2.57614-.53637-3.82266-1.86598-3.82266-5.41665v-12.2611c0-2.1304.52878-4.26834,4.70649-4.6234l5.50732-.26442c1.06522.44572,2.48549,1.60157,2.48549,3.91327v13.94576c0,2.48546-1.24652,3.82262-3.9964,4.70651-.09065.61948-.09065,1.15585,0,1.77533,3.9964.97455,5.77171,3.73197,6.83694,5.86236.61944.09065,1.15587.09065,1.77531,0,1.60157-3.1956,2.31175-4.08703,6.6631-7.19196-.26439-.61948-.52878-1.15585-.97457-1.69222-.71009.26442-1.32961.35507-1.68466.35507-1.60157,0-2.4024-1.32961-2.4024-2.93118v-13.86267h.01522ZM1292.22212,384.52279c-9.14859,0-15.81178-12.61616-26.03307-8.43848l-.1813-.26442c15.10161-6.48182,19.5437-13.77201,19.5437-24.87724,0-14.48215-8.97485-19.72501-17.85905-19.72501-6.75375,0-16.25748,4.2608-16.25748,14.5728,0,9.59433,7.10889,12.70682,13.94573,12.52549.09065-.89144.17374-1.77533.09065-2.66677-5.41667-.09065-11.01455-2.04729-11.01455-10.22135,0-6.39873,5.15219-10.75018,10.48577-10.75018,8.61981,0,12.52547,6.84445,12.52547,19.46062,0,17.23957-9.05794,19.09799-23.18497,23.72139,0,.80078.26439,1.60157.61944,2.40235,14.21769-4.2608,20.69958,9.14859,31.98608,9.14859,4.17771,0,7.90963-1.51092,14.57282-6.04367.71009,2.04729,2.57614,3.64131,7.19954,5.86236,2.0397-2.3117,4.26836-4.70651,6.6631-7.01821-.09065-.44572-.44569-1.15585-.71009-1.51092-5.15219.35507-6.6631-1.2465-6.6631-7.10887v-32.60559c1.95661-1.32961,3.11248-1.60157,7.28263-2.48546,0-.89144-.1813-1.68468-.35504-2.57612-.97457.09065-1.95661.17376-2.84053.17376-1.60157,0-2.93118-.44572-4.53275-1.68468-1.60157-1.2465-2.31175-2.57612-2.84053-4.6234-.71009-.09065-1.51092-.09065-2.221,0-.71009,2.66677-1.77531,3.3769-4.17771,4.70651-4.08706,2.22105-5.33358,2.57612-7.01824,4.88782.53635.53637,1.24652,1.0652,1.95661,1.42027,1.24652-1.51092,2.221-2.3117,3.82266-2.39481,1.24652,0,2.221.61948,3.90575,2.03975v38.5586c0,.71013,0,1.42027.09065,1.95663-4.17771,2.57612-6.12676,3.55066-8.79355,3.55066M1204.36236,341.78652c0-8.8842,3.28623-11.01457,9.94942-10.48577.26439-.61948.44569-1.2465.52878-1.86598-1.15587-.61948-3.02183-.97455-4.61584-.97455-4.97844,0-8.08337,2.1304-10.04007,5.77171-2.39484-2.39481-4.4421-2.84053-6.30806-3.28625-.35504.61948-.53635,1.15585-.71009,1.77533,3.55062,2.1304,4.53275,6.7538,4.53275,12.07977v35.98249c-1.95661.71013-3.55062,1.86598-4.97844,2.84053.09065.61948.35504,1.2465.61944,1.68468,5.50732-1.15585,9.32989.89144,12.52547,2.93118,1.95661-2.22105,3.82266-4.08703,5.95302-6.04367-.53635-.71013-1.06522-1.2465-1.77531-1.77533l-1.77531,1.68468c-1.42027-.80078-2.57614-1.15585-3.91331-1.51092v-21.14527c1.86596-1.0652,3.82266-1.95663,5.77171-2.84053,3.55818,4.2608,8.17402,11.36964,8.17402,18.92422,0,8.97485-6.21741,17.9497-17.23952,30.12012.44569.61948,1.32961,1.32961,2.0397,1.68468,16.79383-17.9497,21.59097-27.89907,21.59097-37.66717,0-6.21743-2.75744-11.72471-7.90963-19.18864-4.08706,1.86598-8.35541,4.08703-12.44238,6.30808v-15.01852l.02269.0151ZM1165.003,384.07707c4.53275.97455,7.55458,2.22105,11.64164,4.53275,2.221-2.3117,3.02183-3.11248,7.28263-7.10887-.26439-.52883-.97457-1.51092-1.68466-1.86598l-3.19557,2.93118c-2.13035-1.15585-4.79714-2.03975-7.28263-2.40235,0-1.15585.09065-2.22105.09065-6.04367v-9.59433c0-1.68468,0-3.55066-.09065-5.24288.71009-.52883,1.60157-1.32961,4.08706-2.93118,1.32961,1.15585,2.221,2.40235,3.55062,4.79717,2.0397-1.0652,4.08706-2.39481,5.77928-3.82262-1.51092-3.11248-2.57614-4.61584-5.15219-6.66315-4.88779,2.75742-10.04007,6.48182-15.01852,9.9494.09065,1.51092.17374,3.3769.17374,6.12676v10.30446c0,3.1956-.09065,5.24288-.17374,7.01821M1147.32526,376.53005v-13.68136c0-3.91327,1.95661-4.70651,3.9964-5.15223.09065-.61948.09065-1.15585,0-1.77533-3.9964-.97455-6.04367-3.99638-7.10889-6.13432-.53635-.09065-1.06522-.09065-1.60157,0-1.51092,3.1956-3.46753,5.06158-6.4818,7.46393.17374.61948.44569,1.0652.89148,1.51092.71009-.26442,1.32961-.35507,1.68466-.35507,1.60157,0,2.39484,1.32961,2.39484,2.93118v13.68134c0,3.90573-1.95661,4.70651-3.9964,5.15223-.1813.61948-.1813,1.15585,0,1.77533,3.9964.97455,5.50732,3.99638,6.57245,6.12676.53635.09065,1.15587.09065,1.68466,0,1.51092-3.1956,3.90575-5.06158,6.92759-7.46393-.17374-.61948-.44569-1.0652-.89148-1.51092-.71009.26442-1.32961.35507-1.69222.35507-1.60157,0-2.39484-1.32961-2.39484-2.93118M1142.43746,342.58731c.89148.09065,1.77531.09065,2.66679,0,1.68466-2.3117,2.66679-4.88782,2.66679-6.92756,0-2.93118-1.24652-4.79717-3.90575-4.79717-2.13035,0-3.90575,1.51092-3.90575,4.88782,0,2.22105.97457,4.53275,2.48549,6.83689M1123.95889,382.21109c-.53635-.71013-1.06522-1.32961-1.77531-1.77533l-1.77531,1.68468c-2.04726-1.0652-5.33358-1.77533-7.46393-1.86598v-21.05462l1.06522-.44572c2.0397-.80078,2.48549-.71013,3.19557-.71013,2.4024,0,3.46753,1.77533,3.9964,4.53275.61944.09065,1.15587.09065,1.77531,0,.61944-2.03975,3.37688-4.2608,5.77928-5.33353.09065-.61948.09065-1.15585,0-1.77533-2.84053-1.0652-3.64127-2.48546-4.4421-5.59795-.52878-.09065-1.06522-.09065-1.60157,0-1.95661,3.46755-4.70649,4.79717-8.71046,6.21743-2.0397-1.51092-3.73192-4.2608-4.70649-6.30808-.61944-.09065-1.15587-.09065-1.77531,0-1.24652,3.1956-3.64127,5.06158-6.6631,7.46393.17374.61948.53635,1.0652.89148,1.51092.71009-.26442,1.32961-.35507,1.68466-.35507,1.60157,0,2.84053,1.32961,2.84053,2.93118v19.89877c-1.95661.71013-3.82266,1.60157-4.97844,2.40235.09065.61948.35504,1.2465.61944,1.68468,5.50732-1.15585,12.8806.89144,16.08374,2.93118,1.95661-2.22105,3.82266-4.08703,5.95302-6.04367M1072.51975,379.63497v-16.87694c0-1.69222,0-3.55066-.09065-4.88782,1.51092-.97455,3.37688-1.86598,5.15219-2.66677,6.21741,4.97091,8.61981,10.84083,8.61981,15.45667,0,4.08703-1.15587,6.66315-5.77171,11.1959-2.0397-1.0652-4.79714-2.22105-7.90963-2.22105M1065.766,384.07707c4.79714.44572,9.32989,1.95663,12.79742,4.35145,1.32961-1.86598,2.75744-3.55066,4.35145-5.24288,6.30806-6.5725,8.71046-10.84083,8.71046-16.61252,0-6.39873-2.4024-11.90603-7.81898-16.08372-5.59797-4.2608-14.30834-6.7538-14.30834-12.43484,0-2.40235,2.04726-5.06158,6.21741-5.06158.17374-.89144.17374-1.77533,0-2.66677-6.21741,0-10.04007,4.70651-10.04007,9.59433,0,3.82262,2.48549,8.97485,9.32989,13.41695l.1813.09065v.35507c-3.19557,1.60157-6.57245,3.28625-9.50363,5.06158.09065,1.51092.1813,3.3769.1813,6.12676v12.07977c0,3.1956,0,4.97847-.09065,7.01821M1038.40323,364.53336c0-1.68468,0-3.55066-.09065-5.24288,1.24652-.97455,1.60157-1.2465,2.93118-2.1304l1.15587-.80078,2.13035,2.3117c1.24652,1.42027,1.51092,2.48546,1.51092,3.46755,0,1.60157-.80083,2.84053-3.73192,4.79717l-3.90575,2.66677v-5.06912ZM1031.55882,360.62763c.09065,1.51092.17374,3.3769.17374,6.12676v10.30446c0,3.1956-.09065,5.24288-.17374,7.01821,4.53275.97455,8.8842,2.22105,12.97125,4.53275,2.221-2.3117,3.02183-3.11248,7.28263-7.10887-.26439-.52883-.97457-1.51092-1.68466-1.86598l-3.19557,2.93118c-2.13035-1.15585-6.12676-2.03975-8.61981-2.40235,0-1.15585.09065-2.22105.09065-6.04367v-1.51092l7.19954-4.88782c4.6234-3.11248,7.01824-6.12676,7.01824-8.43848,0-1.2465-.80083-2.74988-1.95661-4.08703l-3.9964-4.6234c-3.11248,1.60157-10.93146,6.92756-15.10161,10.04005M1013.88108,376.53005v-13.68136c0-3.91327,1.95661-4.70651,3.9964-5.15223.09065-.61948.09065-1.15585,0-1.77533-3.9964-.97455-6.04367-3.99638-7.10889-6.13432-.53635-.09065-1.06522-.09065-1.60157,0-1.51092,3.1956-3.46753,5.06158-6.4818,7.46393.17374.61948.44569,1.0652.89148,1.51092.71009-.26442,1.32961-.35507,1.68466-.35507,1.60157,0,2.39484,1.32961,2.39484,2.93118v13.68134c0,3.90573-1.95661,4.70651-3.9964,5.15223-.17374.61948-.17374,1.15585,0,1.77533,3.9964.97455,5.50732,3.99638,6.57245,6.12676.53635.09065,1.15587.09065,1.68466,0,1.51092-3.1956,3.91331-5.06158,6.92759-7.46393-.17374-.61948-.44569-1.0652-.89148-1.51092-.71009.26442-1.32961.35507-1.68466.35507-1.60157,0-2.4024-1.32961-2.4024-2.93118M1008.99328,342.58731c.89148.09065,1.77531.09065,2.66679,0,1.68466-2.3117,2.66679-4.88782,2.66679-6.92756,0-2.93118-1.24652-4.79717-3.91331-4.79717-2.13035,0-3.90575,1.51092-3.90575,4.88782,0,2.22105.97457,4.53275,2.48549,6.83689M990.52227,382.21109c-.53635-.71013-1.06522-1.32961-1.77531-1.77533l-1.77531,1.68468c-2.04726-1.0652-5.33358-1.77533-7.46393-1.86598v-21.05462l1.06522-.44572c2.0397-.80078,2.48549-.71013,3.19557-.71013,2.39484,0,3.46753,1.77533,3.9964,4.53275.61944.09065,1.15587.09065,1.77531,0,.61944-2.03975,3.37688-4.2608,5.77171-5.33353.09065-.61948.09065-1.15585,0-1.77533-2.84053-1.0652-3.64127-2.48546-4.4421-5.59795-.52878-.09065-1.06522-.09065-1.60157,0-1.95661,3.46755-4.70649,4.79717-8.71046,6.21743-2.0397-1.51092-3.73192-4.2608-4.70649-6.30808-.61944-.09065-1.15587-.09065-1.77531,0-1.24652,3.1956-3.64127,5.06158-6.6631,7.46393.17374.61948.53635,1.0652.89148,1.51092.71009-.26442,1.32961-.35507,1.68466-.35507,1.60157,0,2.84053,1.32961,2.84053,2.93118v19.89877c-1.95661.71013-3.82266,1.60157-4.97844,2.40235.09065.61948.35504,1.2465.61944,1.68468,5.50732-1.15585,12.8806.89144,16.08374,2.93118,1.95661-2.22105,3.82266-4.08703,5.95302-6.04367M912.42303,389.93943c0,8.26472,6.5725,14.30082,15.54735,14.30082,10.39511,0,19.18866-7.55458,19.18866-19.98942,0-6.84445-2.48549-12.88056-5.15219-18.21409,6.30806-3.90573,8.17402-2.1304,10.13072.35507.80083-.1813,1.60157-.44572,2.221-.97455-1.24652-3.55066-.52878-5.5073,2.48549-8.17407-.35504-.80078-.71009-1.42027-1.24652-2.03975-3.02183,1.77533-5.50732.97455-7.10889-1.51092-.80083.26442-1.60157.71013-2.221,1.15585.89148,1.77533.71009,3.64131.44569,4.35145-.61944,1.77533-2.66679,3.02183-5.86236,4.70651-2.93118-5.5073-5.86236-10.21379-5.86236-13.94576,0-2.93118.44569-5.59795,3.46753-9.50366,4.17771,2.3117,8.61981,4.17768,13.68134,4.17768,6.21741,0,11.64164-4.17768,11.64164-10.39511,0-2.3117-.80083-4.35145-1.51092-5.6886-.80083.26442-1.51092.53637-2.31175.97455.44569,1.15585.97457,2.48546.97457,4.4421,0,3.99638-2.84053,5.41665-5.41667,5.41665-8.4385,0-16.87691-12.35175-29.58378-12.35175s-19.01487,8.17407-19.01487,15.28293,4.6234,10.39511,9.23924,11.46031c.35504-.61948.61948-1.32961.80078-2.3117-4.79714-1.86598-6.83689-4.97091-6.83689-9.50366,0-4.88782,3.64131-10.30446,9.77563-10.30446,5.41667,0,10.65951,3.99638,16.52187,7.55458-4.35145,6.21743-6.92759,11.28655-6.92759,16.1668,0,12.52549,11.36969,20.88086,11.36969,32.43182,0,9.0655-4.88779,13.59069-12.52547,13.59069-6.4818,0-12.61616-4.35145-12.61616-11.81538,0-7.01821,5.15223-10.1307,9.85872-10.56886.09065-.80078,0-1.68468-.1813-2.48546-5.41667.09065-12.97121,4.4421-12.97121,13.41695M876.26675,362.84868c0-3.02183,1.06518-3.99638,3.73197-4.97847.09065-.53637.09065-1.0652,0-1.60157-3.28623-1.2465-4.70649-3.73197-5.68862-5.95302-.44574-.09065-.97452-.09065-1.51092,0-1.86596,2.84053-4.35145,4.97091-7.72832,5.24288l-6.04367.26442c-1.68466-1.15585-3.37688-3.90573-4.2608-6.04367-.53639-.09065-.97452-.09065-1.51092,0-1.68466,3.1956-4.08701,5.06158-7.10884,7.46393.1813.61948.44574,1.0652.89144,1.51092.71013-.26442,1.32961-.35507,1.68466-.35507,1.60157,0,2.40235,1.32961,2.40235,2.93118v14.12708c0,3.02183-1.06518,3.99638-3.73197,4.97847-.09065.53637-.09065,1.0652,0,1.60157,3.28623,1.2465,5.33353,3.82262,6.30806,6.04367.53639.09065,1.15587.09065,1.68466,0,1.32961-2.57612,2.3117-4.53275,5.77171-5.77171.09065-.61948.09065-1.15585,0-1.77533-2.57609-.53637-3.82262-1.86598-3.82262-5.41665v-12.2611c0-2.1304.52883-4.26834,4.70649-4.6234l5.50727-.26442c1.06518.44572,2.48544,1.60157,2.48544,3.91327v13.94576c0,2.48546-1.24652,3.82262-3.99636,4.70651-.09065.61948-.09065,1.15585,0,1.77533,3.99636.97455,5.77171,3.73197,6.83689,5.86236.61948.09065,1.15587.09065,1.77531,0,1.60157-3.1956,2.3117-4.08703,6.66315-7.19196-.26439-.61948-.53639-1.15585-.97452-1.69222-.71013.26442-1.32961.35507-1.68466.35507-1.60157,0-2.40235-1.32961-2.40235-2.93118v-13.86267h.01517ZM831.22633,362.84868c0-3.02183,1.06518-3.99638,3.73197-4.97847.09065-.53637.09065-1.0652,0-1.60157-3.28623-1.2465-4.70649-3.73197-5.68862-5.95302-.44574-.09065-.97452-.09065-1.51092,0-1.86596,2.84053-4.35145,4.97091-7.72832,5.24288l-6.04367.26442c-1.68466-1.15585-3.37688-3.90573-4.26836-6.04367-.53639-.09065-.97452-.09065-1.51092,0-1.68466,3.1956-4.08701,5.06158-7.10884,7.46393.1813.61948.44574,1.0652.89144,1.51092.71013-.26442,1.33718-.35507,1.68466-.35507,1.60157,0,2.39479,1.32961,2.39479,2.93118v14.12708c0,3.02183-1.06518,3.99638-3.73197,4.97847-.09065.53637-.09065,1.0652,0,1.60157,3.28623,1.2465,5.33353,3.82262,6.30806,6.04367.53639.09065,1.15587.09065,1.68466,0,1.32961-2.57612,2.3117-4.53275,5.77171-5.77171.09065-.61948.09065-1.15585,0-1.77533-2.57609-.53637-3.82262-1.86598-3.82262-5.41665v-12.2611c0-2.1304.53639-4.26834,4.70649-4.6234l5.50727-.26442c1.06518.44572,2.48544,1.60157,2.48544,3.91327v13.94576c0,2.48546-1.24652,3.82262-3.99636,4.70651-.09065.61948-.09065,1.15585,0,1.77533,3.99636.97455,5.77171,3.73197,6.84445,5.86236.61948.09065,1.15587.09065,1.77531,0,1.60157-3.1956,2.3117-4.08703,6.66315-7.19196-.26439-.61948-.53639-1.15585-.97452-1.69222-.71013.26442-1.32961.35507-1.68466.35507-1.60157,0-2.39479-1.32961-2.39479-2.93118v-13.86267h.01517ZM767.79051,380.17136c0-1.15585.09065-2.22105.09065-6.04367v-9.0655c0-1.77533-.09065-3.82262-.17374-5.41665.80078-.71013,2.57609-1.86598,3.46757-2.40235l1.24652-.80078c2.84053,1.86598,4.97849,3.02183,6.92754,3.55066v17.59463l-4.88779,4.53275c-1.77531-.97455-4.35145-1.77533-6.66315-1.95663M792.84149,381.32721c-.61948-.80078-1.15587-1.32961-1.77531-1.86598l-2.22105,2.03975c-.97452-.71013-2.1304-1.51092-2.84053-2.57612v-18.92422c2.1304-.89144,3.99636-2.40235,5.06158-3.64131-.17374-.35507-.71013-1.15585-.97452-1.42027-.71013.26442-1.68466.44572-2.39479.44572-3.73197,0-7.72832-3.1956-10.39511-5.33353-5.33353,3.73197-10.65951,7.10887-16.25748,10.56886.09065,1.51092.17374,3.3769.17374,6.12676v10.30446c0,3.1956-.09065,5.24288-.17374,7.01821,4.70649.80078,8.43846,2.57612,11.0146,4.08703l7.28263-6.92756h.35504c.80078,1.86598,2.03975,3.99638,6.21741,6.92756,2.22105-2.57612,4.53275-4.79717,6.92754-6.83689M728.43115,341.78652c0-8.8842,3.28623-11.01457,9.94937-10.48577.26439-.61948.44574-1.2465.53639-1.86598-1.15587-.61948-3.02183-.97455-4.61584-.97455-4.97849,0-8.08341,2.1304-10.04003,5.77171-2.40235-2.39481-4.4421-2.84053-6.30806-3.28625-.35504.61948-.53639,1.15585-.71013,1.77533,3.55066,2.1304,4.53275,6.7538,4.53275,12.07977v35.98249c-1.95666.71013-3.55066,1.86598-4.97849,2.84053.09065.61948.35504,1.2465.61948,1.68468,5.50727-1.15585,9.32989.89144,12.52551,2.93118,1.95666-2.22105,3.82262-4.08703,5.95302-6.04367-.53639-.71013-1.06518-1.2465-1.77531-1.77533l-1.77531,1.68468c-1.42027-.80078-2.57609-1.15585-3.90571-1.51092v-21.14527c1.86596-1.0652,3.82262-1.95663,5.77171-2.84053,3.55066,4.2608,8.17407,11.36964,8.17407,18.92422,0,8.97485-6.21741,17.9497-17.23957,30.12012.44574.61948,1.32961,1.32961,2.04731,1.68468,16.79383-17.9497,21.59101-27.89907,21.59101-37.66717,0-6.21743-2.75744-11.72471-7.90963-19.18864-4.08701,1.86598-8.34781,4.08703-12.43486,6.30808v-15.01852l-.0077.0151ZM690.14448,374.74715v-11.72471c0-1.68468,0-3.82262-.09065-5.5073,1.77531-.80078,3.11248-1.51092,5.50727-2.22105,4.2608,5.59795,8.17407,12.52549,8.17407,16.70317,0,2.3117-1.51092,5.24288-6.12676,9.77563-2.22105-1.0652-4.4421-1.95663-7.55458-2.22105.09065-.97455.09065-2.3117.09065-4.79717M683.20937,383.99398c4.26836.44572,8.17407,1.60157,12.52551,4.4421,2.22105-3.1956,4.53275-5.24288,6.7538-7.90965,4.08701-4.97847,6.7538-9.23926,6.7538-12.88056,0-4.08703-2.3117-9.9494-8.17407-16.96759-6.30806,1.95663-11.81538,4.2608-17.7684,6.7538.1813,1.51092.26439,3.3769.26439,6.12676v14.12708c0,3.1956-.17374,5.06158-.35504,6.30808M626.44427,390.4758c3.73197,0,10.92394,9.50366,20.60893,9.50366,10.56886,0,21.50036-11.01457,21.50036-22.56554,0-12.52549-11.90603-20.43514-11.90603-31.71415,0-3.02183.80078-5.24288,1.95666-7.19952h.53639c6.30806,0,12.43486-3.55066,12.43486-11.1959-.71013-.09065-1.33718-.09065-2.04731,0-.1813,3.82262-3.28623,5.24288-5.50727,5.24288-5.68862,0-10.13068-4.2608-18.12344-4.2608-11.90603,0-20.43514,8.79355-20.43514,18.03279s5.86236,14.21773,13.68134,15.72865c.35504-.71013.61948-1.51092.71013-2.3117-6.21741-1.60157-11.55094-5.77171-11.55094-13.41695,0-9.59433,7.19954-12.52549,12.26107-12.52549,5.50727,0,10.13068,3.55066,15.81174,4.4421-2.75744,3.46755-5.59793,8.43848-5.59793,13.5076,0,13.41695,12.17042,21.05462,12.17042,30.83025,0,8.26472-6.39871,12.7899-11.55094,12.7899-8.08341,0-11.0146-7.99274-20.0801-7.99274-.80078,0-1.42027.09065-2.3117.26442l-.1813-.26442c5.41662-4.2608,8.97485-9.0655,9.94937-16.43878-.80078-.26442-1.77531-.44572-2.57609-.35507-1.15587,7.90965-6.39871,13.23562-14.74656,19.72501.26439.52883.89144,1.32961,1.42027,1.68468,1.68466-1.2465,2.40235-1.51092,3.55066-1.51092M562.29827,355.83049c0,.61948,0,1.15585.1813,1.77533,1.32961,0,2.66679-.09065,3.99636-.09065l.44574,17.9497c.26439,9.23926,1.86596,20.17075,2.75744,30.56584.53639.09065,1.77531.09065,2.3117,0,.44574-7.46393,1.68466-19.98942,1.86596-29.85571l.35504-18.83357c2.93118,0,5.86236.09065,8.71046.1813.26439-.97455.26439-2.93118,0-3.55066-3.02183.09065-5.95302.1813-8.97485.1813-.52883-1.86598-1.60157-3.90573-3.11248-5.41665,1.77531-3.64131,3.46757-7.28263,5.06158-10.93148,3.90571.26442,8.34781.53637,12.17042.44572,1.15587-3.46755,2.84053-7.01821,4.4421-10.48577-.71013-.35507-1.42027-.53637-2.3117-.71013l-1.32961,2.57612c-4.08701.17376-8.08341-.09065-12.17042-.26442-2.66679,6.12676-5.68862,12.70682-9.23924,19.5437-2.22105,4.17768-3.37688,5.41665-5.15223,6.92756M533.59841,374.74715v-11.72471c0-1.68468,0-3.82262-.09065-5.5073,1.77531-.80078,3.11248-1.51092,5.50727-2.22105,4.26836,5.59795,8.17407,12.52549,8.17407,16.70317,0,2.3117-1.51092,5.24288-6.12676,9.77563-2.22105-1.0652-4.4421-1.95663-7.55458-2.22105.09065-.97455.09065-2.3117.09065-4.79717M526.67085,383.99398c4.26077.44572,8.17404,1.60157,12.52549,4.4421,2.22105-3.1956,4.53275-5.24288,6.7538-7.90965,4.08701-4.97847,6.7538-9.23926,6.7538-12.88056,0-4.08703-2.3117-9.9494-8.17407-16.96759-6.30806,1.95663-11.81538,4.2608-17.76837,6.7538.1813,1.51092.26442,3.3769.26442,6.12676v14.12708c0,3.1956-.17376,5.06158-.35507,6.30808M497.97855,381.85602c-.53637-.71013-1.0652-1.2465-1.77533-1.77533l-1.77533,1.68468c-1.15585-.61948-1.86598-.97455-2.66677-1.2465v-39.26873c0-5.59795,2.22105-9.50366,7.01821-11.10525,0-.61948-.09065-1.32961-.35507-1.86598-5.06158.44572-8.71043,3.73197-11.01457,7.72835-1.32961-2.3117-2.93118-3.82262-4.53275-5.15223-.61948.35507-1.15585.89144-1.60157,1.51092,3.1956,3.99638,3.82262,7.37328,3.82262,12.70682v35.27235c-2.03975.61948-3.82262,1.77533-5.33353,2.93118.09065.61948.35507,1.2465.61948,1.69222,5.5073-1.15585,8.43848.89144,11.64162,2.93118,1.95663-2.22105,3.82262-4.08703,5.95302-6.04367M446.5394,380.17136c0-1.15585.09065-2.22105.09065-6.04367v-9.0655c0-1.77533-.09065-3.82262-.1813-5.41665.80078-.71013,2.57612-1.86598,3.46755-2.40235l1.2465-.80078c2.84053,1.86598,4.97847,3.02183,6.92756,3.55066v17.59463l-4.88782,4.53275c-1.77533-.97455-4.35145-1.77533-6.66315-1.95663M471.59038,381.32721c-.61948-.80078-1.15585-1.32961-1.77533-1.86598l-2.22105,2.03975c-.97455-.71013-2.1304-1.51092-2.84053-2.57612v-18.92422c2.1304-.89144,3.99638-2.40235,5.06158-3.64131-.1813-.35507-.71013-1.15585-.97455-1.42027-.71013.26442-1.68468.44572-2.40235.44572-3.73197,0-7.72835-3.1956-10.39511-5.33353-5.33353,3.73197-10.65951,7.10887-16.25746,10.56886.09065,1.51092.17376,3.3769.17376,6.12676v10.30446c0,3.1956-.09065,5.24288-.17376,7.01821,4.70651.80078,8.43848,2.57612,11.01457,4.08703l7.28263-6.92756h.35507c.80078,1.86598,2.03975,3.99638,6.21743,6.92756,2.22105-2.57612,4.53275-4.79717,6.92756-6.83689M420.33254,350.05122c-1.2465,2.66677-4.88782,4.88782-7.28263,6.7538,2.57612,2.66677,5.59795,5.33353,7.28263,8.26472,1.32961,2.3117,1.77533,4.08703,1.77533,6.30808,0,3.82262-2.84053,7.28263-7.90965,11.28655-2.93118-1.60157-6.92756-2.75742-9.68498-2.39481l-.09065-.1813c3.28625-3.11248,4.70651-4.53275,4.70651-8.08341,0-5.06158-3.28625-9.77563-3.28625-15.01852,0-2.57612.80078-3.99638,3.3769-6.48182-.26442-.53637-.71013-1.0652-1.15585-1.42027-4.6234,2.93118-9.42057,6.5725-9.42057,11.55097,0,6.7538,5.15223,10.75018,5.15223,15.19226,0,2.84053-2.48546,4.53275-5.15223,6.5725,0,.53637.09065,1.0652.26442,1.60157,4.97847.89144,9.23926,2.40235,12.88056,4.70651,1.68468-1.68468,3.28625-3.3769,5.06158-4.97847,5.86236-5.5073,10.84083-9.9494,10.84083-15.90239,0-2.57612-.61948-5.24288-2.22105-7.90965-3.28625-5.5073-4.4421-5.77171-3.5582-9.42057-.61948-.26442-.97455-.35507-1.60157-.44572M381.68329,376.53005v-13.68136c0-3.91327,1.95663-4.70651,3.99638-5.15223.09065-.61948.09065-1.15585,0-1.77533-3.99638-.97455-6.04367-3.99638-7.10887-6.13432-.53637-.09065-1.0652-.09065-1.60157,0-1.51092,3.1956-3.46755,5.06158-6.48182,7.46393.1813.61948.44572,1.0652.89144,1.51092.71013-.26442,1.32961-.35507,1.68468-.35507,1.60157,0,2.39481,1.32961,2.39481,2.93118v13.68134c0,3.90573-1.95663,4.70651-3.99638,5.15223-.17376.61948-.17376,1.15585,0,1.77533,3.99638.97455,5.5073,3.99638,6.5725,6.12676.53637.09065,1.15585.09065,1.68468,0,1.51092-3.1956,3.90573-5.06158,6.92756-7.46393-.1813-.61948-.44572-1.0652-.89144-1.51092-.71013.26442-1.32961.35507-1.68468.35507-1.60157,0-2.40235-1.32961-2.40235-2.93118M376.79547,342.58731c.89144.09065,1.77533.09065,2.66677,0,1.68468-2.3117,2.66677-4.88782,2.66677-6.92756,0-2.93118-1.2465-4.79717-3.90573-4.79717-2.1304,0-3.90573,1.51092-3.90573,4.88782,0,2.22105.97455,4.53275,2.48546,6.83689M352.90032,350.05122c-1.2465,2.66677-4.88782,4.88782-7.28263,6.7538,2.57612,2.66677,5.59795,5.33353,7.28263,8.26472,1.32961,2.3117,1.77533,4.08703,1.77533,6.30808,0,3.82262-2.84053,7.28263-7.90965,11.28655-2.93118-1.60157-6.92756-2.75742-9.68498-2.39481l-.09065-.1813c3.28625-3.11248,4.70651-4.53275,4.70651-8.08341,0-5.06158-3.28625-9.77563-3.28625-15.01852,0-2.57612.80078-3.99638,3.3769-6.48182-.26442-.53637-.71013-1.0652-1.15585-1.42027-4.6234,2.93118-9.42057,6.5725-9.42057,11.55097,0,6.7538,5.15223,10.75018,5.15223,15.19226,0,2.84053-2.48545,4.53275-5.15223,6.5725,0,.53637.09065,1.0652.26442,1.60157,4.97092.89144,9.23926,2.40235,12.88056,4.70651,1.69222-1.68468,3.28625-3.3769,5.06158-4.97847,5.86236-5.5073,10.84083-9.9494,10.84083-15.90239,0-2.57612-.61948-5.24288-2.22105-7.90965-3.28625-5.5073-4.4421-5.77171-3.55066-9.42057-.61948-.26442-.97455-.35507-1.60157-.44572M304.92115,364.53336c0-1.68468,0-3.55066-.09065-5.24288,1.2465-.97455,1.60157-1.2465,2.93118-2.1304l1.15585-.80078,2.1304,2.3117c1.2465,1.42027,1.51092,2.48546,1.51092,3.46755,0,1.60157-.80078,2.84053-3.73197,4.79717l-3.90572,2.66677v-5.06912ZM298.08426,360.62763c.09065,1.51092.18131,3.3769.18131,6.12676v10.30446c0,3.1956-.09065,5.24288-.18131,7.01821,4.53275.97455,8.88419,2.22105,12.97122,4.53275,2.22105-2.3117,3.02183-3.11248,7.28262-7.10887-.26442-.52883-.97454-1.51092-1.69223-1.86598l-3.19559,2.93118c-2.1304-1.15585-6.12677-2.03975-8.61978-2.40235,0-1.15585.09065-2.22105.09065-6.04367v-1.51092l7.19197-4.88782c4.6234-3.11248,7.0182-6.12676,7.0182-8.43848,0-1.2465-.80078-2.74988-1.95663-4.08703l-3.99637-4.6234c-3.11248,1.60157-10.92393,6.92756-15.10162,10.04005M256.85889,351.11642c0-4.17768-.71013-8.26472-2.22105-11.64162l9.0655-5.77171c4.7065,7.01821,8.61978,10.56886,13.5907,11.36964l.09065.44572c-8.97485,5.86236-15.63799,10.56886-21.14528,14.65589l-.26442-.09065c.61948-2.84053.89144-5.77171.89144-8.97485M240.86584,380.08069v-.53637c7.46393-4.35145,11.81537-9.42057,14.03642-15.638,1.42027-.97455,2.75742-1.95663,3.99637-2.84053,7.72834,14.65589,13.5907,23.01126,18.83358,28.4279,2.48545-2.84053,7.819-7.99274,10.2138-10.04005-.61948-.80078-1.15585-1.32961-1.77533-1.86598l-4.17768,3.82262c-6.21742-7.01821-10.57642-12.88056-16.70319-24.87724,10.84083-7.55458,16.34812-10.84083,19.72502-13.06188l-.35507-2.04729c-3.46755-1.60157-9.77563-4.08703-15.37358-14.30082l-15.72864,10.30446c-2.74987-4.35145-7.28262-7.19952-14.12707-7.19952-7.63768,0-16.79384,4.88782-16.79384,14.65589,0,9.23926,7.01821,12.52549,14.12707,12.52549.09066-.89144.09066-1.77533,0-2.66677-5.33353-.09065-11.10524-2.48546-11.10524-9.77563,0-6.12676,4.08703-11.36964,10.2138-11.36964,9.59432,0,13.68135,7.55458,13.68135,22.82995,0,12.35175-3.02183,21.94606-21.14528,23.10191-.26441.61948-.35507,1.32961-.44572,1.95663,6.30808,2.48546,10.30445,4.70651,16.16681,8.61978,3.73197-3.73197,7.55458-7.46393,11.4603-11.01457-.53638-.61948-1.3296-1.42027-2.0473-1.86598-1.95663,1.95663-3.73197,3.73197-5.7717,5.5073-2.66677-1.77533-4.17768-2.22105-6.92755-2.66677M152.46966,388.25475c6.21742,0,12.5255-4.2608,13.14497-12.07977,5.95301-1.51092,10.30445-1.68468,17.76838-1.68468v4.08703c0,5.24288,1.42026,8.08341,6.92755,10.65951,1.95663-2.1304,4.08703-3.99638,6.30808-5.77171l-.26441-1.77533c-3.19559-.44572-5.41664-1.32961-5.41664-8.08341v-20.69955c0-13.86267-7.46393-24.96789-23.63074-24.96789-9.94939,0-20.88087,7.37328-20.88087,18.74292,0,3.64131,1.15585,8.08341,4.35144,12.17042.71013-.35507,1.42026-.89144,1.95664-1.51092-2.75742-4.08703-3.55065-7.55458-3.55065-11.1959,0-6.92756,5.6886-15.54732,17.23201-15.54732s16.96759,13.14497,16.96759,25.85179v15.72865c-7.46393-.1813-11.99668.26442-17.67773,1.51092-.26441-6.66315-.44572-12.88056-.71013-19.98942-.44572-10.75018,1.0652-12.17045,4.79716-16.08372-.35507-.61948-.89144-1.15585-1.42026-1.60157-3.99638,2.84053-11.55096,7.19952-10.92393,20.34449.26441,6.7538.44572,12.52549.71013,19.27929.26441,8.17407-2.75742,10.1307-5.95301,10.1307-2.40236,0-4.79716-1.32961-6.92755-3.64131-.80079.53637-1.32961,1.15585-1.77533,1.69222,2.13039,2.84053,5.6886,4.4421,8.97485,4.4421" fill="#232348"/>
        <path d="M1491.77647,239.27081c-1.33718-1.78288-2.67435-3.34668-4.45722-4.4572l-4.45722,4.23812c-5.12959-2.67432-13.37158-4.4572-18.72028-4.68384v-52.8292l2.67435-1.11808c5.12959-2.00197,6.24009-1.78288,8.02296-1.78288,6.02098,0,8.69533,4.45721,10.03251,11.36965,1.56376.22664,2.90093.22664,4.45722,0,1.56376-5.12956,8.46866-10.69729,14.48973-13.37161.21911-1.5638.21911-2.90096,0-4.45721-7.13148-2.67432-9.14103-6.24009-11.14301-14.04397-1.33718-.21908-2.67435-.21908-4.01153,0-4.90292,8.69533-11.81538,12.03445-21.84789,15.60022-5.12959-3.7924-9.36014-10.69729-11.81538-15.82686-1.56376-.22664-2.89337-.22664-4.45722,0-3.12005,8.02297-9.14103,12.70681-16.7183,18.72026.44569,1.5638,1.33718,2.67432,2.22857,3.7924,1.78287-.67236,3.34672-.89144,4.23811-.89144,4.01153,0,7.13148,3.34668,7.13148,7.35816v49.9358c-4.90292,1.78288-9.58672,4.01148-12.48019,6.021.22667,1.5638.89148,3.12005,1.56376,4.23812,13.81736-2.89341,32.31853,2.2286,40.34906,7.35817,4.90292-5.57529,9.58672-10.25156,14.93543-15.16204M1395.2591,241.49941c4.01153,2.67432,8.24964,9.14105,10.25153,12.92589,1.1105.21908,2.45524.21908,3.56574,0,4.01153-8.02296,9.14103-12.48018,16.7183-18.50118-.67237-1.5638-1.56376-2.90096-2.45524-4.01148-1.78287.67236-3.34672.89144-4.23811.89144-4.01153,0-6.02098-3.34668-6.02098-7.35817v-34.32803c0-8.91441,4.23811-12.70681,9.36014-14.04397.21911-1.33716.21911-2.44768,0-3.7924-8.24964-3.12004-11.81538-10.25157-14.70875-15.15449-1.11806-.21908-2.45524-.21908-3.56574,0-4.45722,6.46672-9.58672,11.36965-16.2726,15.15449-.22667,1.33716-.22667,2.45524,0,3.7924,5.34861,1.78288,9.58672,4.68384,9.58672,13.59825v37.44808c0,4.23812-3.79242,6.91244-8.24964,7.13153l-17.16399.67236c-3.12005-2.00196-5.12959-4.01148-5.12959-8.69532v-35.89182c0-9.80585,4.90292-11.81537,10.03251-14.04397.21911-1.33716.21911-2.67432,0-4.01148-10.03251-2.45524-15.38112-10.03249-18.05547-15.38113-1.11806-.22664-2.45524-.22664-3.56574,0-4.01153,8.02297-10.03251,13.15253-16.7183,18.50117.67237,1.5638,1.33718,2.90096,2.45524,4.01148,1.78287-.67236,3.33916-.89144,4.23811-.89144,4.01153,0,6.02098,3.34668,6.02098,7.35816v34.32802c0,8.91441-4.23811,12.70682-9.36014,14.04397-.21911,1.33716-.21911,2.45524,0,3.7924,8.24964,3.12005,11.81538,10.25156,14.48973,15.16204,1.55629.22664,2.90093.22664,4.45722,0,6.02098-9.14105,7.57727-11.58873,14.70875-11.81537l19.61923-.89144h.00009ZM1330.39545,238.16029c-1.33718-1.78288-2.67435-3.34668-4.45722-4.4572l-4.45722,4.23812c-4.68381-2.45524-12.26107-4.23812-17.60978-4.68384v-53.27492h24.96794c.89148-2.90096,1.33718-8.2496,0-11.14301h-25.63274c-.44569-7.80389.21911-11.36965,5.34861-15.82686l16.2726-14.70878c-.89148-1.78288-2.22857-3.56576-4.01153-4.90292l-48.14535,41.68619c-.21911,1.5638.22667,4.01148.89148,5.12956h13.59825v55.28444c-5.34861,1.5638-10.4782,4.01148-13.59825,6.24008.21911,1.5638.89148,3.12005,1.56376,4.23812,13.81736-2.90096,32.31853,2.2286,40.34906,7.35817,4.90292-5.57529,9.58672-10.25156,14.93543-15.15449M1234.76956,187.77877c0,3.12005-.22667,7.35817-6.02098,11.36965l-18.05547,12.7068v-29.87082c5.12959-2.90096,10.25153-5.79436,15.38112-8.02297,4.90292,4.23812,8.69533,7.57725,8.69533,13.81733M1252.82504,254.43286c4.90292-5.57529,9.58672-10.25156,14.93543-15.16204-1.33718-1.78288-2.67435-3.12005-4.45722-4.4572l-4.45722,4.23812c-7.57727-7.57725-13.59825-23.18502-18.27449-41.24047,9.58672-6.68581,11.58871-13.15253,11.58871-19.61926,0-7.13153-7.35816-12.26109-13.15256-18.50117-10.03251,4.68384-18.72784,10.03249-28.307,15.60022v-37.44807c0-22.29358,8.24964-27.64222,24.96794-26.30506.67237-1.5638,1.11806-3.12004,1.33718-4.68384-2.89337-1.5638-7.57727-2.44768-11.58871-2.44768-12.48019,0-20.28404,5.34865-25.18696,14.48969-6.02098-6.021-11.14301-7.13153-15.82682-8.24961-.89148,1.5638-1.33718,2.90096-1.78287,4.4572,8.91445,5.34864,11.36969,16.93738,11.36969,30.31655v90.27728c-4.90292,1.78288-8.91445,4.4572-12.48019,7.13153.22667,1.33716.89148,2.90096,1.55629,4.23812,13.81736-2.89341,20.06502,2.2286,28.08798,7.35817,4.90292-5.57529,8.91445-9.58677,14.26306-14.48969-1.33718-1.78288-2.67435-3.12005-4.45722-4.4572l-3.79242,3.56576c-2.90093-1.55624-4.68381-2.67432-6.46677-3.34668v-16.49166l16.2726-11.58873c4.90292,23.84982,11.81538,38.56615,25.85933,46.80821M1115.7395,234.1488c0-2.90096.22667-5.57529.22667-15.16206v-22.7393c0-4.4572-.22667-9.58677-.44569-13.59825,2.00955-1.78288,6.46677-4.68384,8.69533-6.021l3.12005-2.00197c7.13148,4.68384,12.48019,7.57725,17.39067,8.91441v44.13388l-12.26107,11.36965c-4.45722-2.45524-10.9239-4.4572-16.7183-4.90293M1178.60125,237.04221c-1.56376-2.00952-2.90093-3.34668-4.45722-4.68384l-5.57529,5.12956c-2.45524-1.78288-5.34861-3.7924-7.13148-6.46672v-47.48056c5.34861-2.2286,10.03251-6.021,12.70677-9.14105-.44569-.89144-1.78287-2.90096-2.45524-3.56576-1.78287.67236-4.23811,1.11808-6.02098,1.11808-9.36014,0-19.39265-8.02297-26.07844-13.37162-13.37158,9.36013-26.75081,17.82882-40.79475,26.52414.22667,3.7924.44569,8.46869.44569,15.38113v25.85934c0,8.02296-.22667,13.15253-.44569,17.60973,11.81538,2.00196,21.17552,6.46672,27.6422,10.25156l18.28206-17.38309h.89148c2.00198,4.68384,5.12959,10.03249,15.60023,17.38309,5.57529-6.46672,11.36969-12.03445,17.39067-17.16402M1079.18285,239.27081c-1.33718-1.78288-2.67435-3.34668-4.45722-4.4572l-4.45722,4.23812c-5.12959-2.67432-13.37158-4.4572-18.72784-4.68384v-52.8292l2.67435-1.11808c5.12959-2.00197,6.24009-1.78288,8.02296-1.78288,6.02098,0,8.69533,4.45721,10.03251,11.36965,1.55629.22664,2.89337.22664,4.45722,0,1.55629-5.12956,8.46866-10.69729,14.48973-13.37161.22667-1.5638.22667-2.90096,0-4.45721-7.13148-2.67432-9.14103-6.24009-11.14301-14.04397-1.33718-.21908-2.67435-.21908-4.01153,0-4.90292,8.69533-11.81538,12.03445-21.84789,15.60022-5.12959-3.7924-9.36014-10.69729-11.81538-15.82686-1.56376-.22664-2.90093-.22664-4.45722,0-3.12005,8.02297-9.14103,12.70681-16.7183,18.72026.44569,1.5638,1.33718,2.67432,2.22857,3.7924,1.78287-.67236,3.34672-.89144,4.23811-.89144,4.01153,0,7.13148,3.34668,7.13148,7.35816v49.9358c-4.90292,1.78288-9.58672,4.01148-12.48019,6.021.22667,1.5638.89148,3.12005,1.56376,4.23812,13.81736-2.89341,32.31853,2.2286,40.34906,7.35817,4.90292-5.57529,9.58672-10.25156,14.93543-15.16204M898.85498,258.66343c0,20.72978,16.49167,35.89182,39.01188,35.89182,26.07844,0,48.14535-18.9469,48.14535-50.15488,0-17.16402-6.24009-32.32606-12.92588-45.69768,15.82682-9.80585,20.51071-5.34865,25.41363.89144,2.00955-.44572,4.01153-1.11808,5.57529-2.45524-3.12005-8.91441-1.33718-13.81733,6.24009-20.5107-.89148-2.00197-1.78287-3.56576-3.12005-5.12956-7.57727,4.45721-13.81736,2.44768-17.83636-3.7924-2.00955.67236-4.01153,1.78288-5.57529,2.90096,2.22857,4.45721,1.78287,9.14105,1.1105,10.92393-1.55629,4.45721-6.68579,7.57725-14.70875,11.81537-7.35816-13.81733-14.70875-25.6327-14.70875-35.00039,0-7.35816,1.1105-14.04397,8.69533-23.84982,10.4782,5.79436,21.62122,10.47821,34.32798,10.47821,15.6078,0,29.19848-10.47821,29.19848-26.07842,0-5.79437-2.00955-10.92393-3.79242-14.26305-2.00955.67236-3.79242,1.33716-5.7944,2.44768,1.11806,2.90096,2.45524,6.24009,2.45524,11.14301,0,10.03249-7.13148,13.59825-13.59825,13.59825-21.17552,0-42.35104-30.98135-74.23135-30.98135s-47.69965,20.50314-47.69965,38.33951,11.58875,26.07843,23.18502,28.75274c.89144-1.5638,1.5638-3.34668,2.0095-5.79436-12.03445-4.68384-17.16399-12.48018-17.16399-23.84982,0-12.26109,9.14103-25.85934,24.52215-25.85934,13.59825,0,26.75081,10.03249,41.45956,18.94689-10.9239,15.60777-17.39067,28.30703-17.39067,40.56811,0,31.42707,28.53368,52.38348,28.53368,81.36287,0,22.7393-12.26107,34.10895-31.42705,34.10895-16.2726,0-31.65372-10.92393-31.65372-29.64419,0-17.60973,12.92588-25.41362,24.74126-26.52414.22667-2.00952,0-4.23812-.44569-6.24008-13.59825.22664-32.54516,11.14301-32.54516,33.65567M890.38627,206.9523c-12.03445,3.56576-24.07645,6.91244-36.1109,9.58677-.67237,1.33716-.44574,7.57725,0,8.91441,12.03445-3.56576,24.07645-6.91244,36.1109-9.58677.44574-1.33716.67237-7.57725,0-8.91441M890.38627,177.30056c-12.03445,3.56576-24.07645,6.91245-36.1109,9.58677-.67237,1.33716-.44574,7.57725,0,8.91441,12.03445-3.56576,24.07645-6.91245,36.1109-9.58677.44574-1.33716.67237-7.57725,0-8.91441M833.0999,239.27081c-1.33718-1.78288-2.67431-3.34668-4.45722-4.4572l-4.45722,4.23812c-5.12955-2.67432-13.37162-4.4572-18.7278-4.68384v-52.8292l2.67431-1.11808c5.12955-2.00197,6.24009-1.78288,8.02296-1.78288,6.02098,0,8.69533,4.45721,10.03251,11.36965,1.5638.22664,2.90098.22664,4.45722,0,1.5638-5.12956,8.46871-10.69729,14.48969-13.37161.21907-1.5638.21907-2.90096,0-4.45721-7.13153-2.67432-9.14103-6.24009-11.14301-14.04397-1.33718-.21908-2.67431-.21908-4.01148,0-4.90292,8.69533-11.81538,12.03445-21.84784,15.60022-5.12955-3.7924-9.36014-10.69729-11.81538-15.82686-1.5638-.22664-2.90098-.22664-4.45722,0-3.12005,8.02297-9.14103,12.70681-16.7183,18.72026.44574,1.5638,1.33718,2.67432,2.22861,3.7924,1.78287-.67236,3.34668-.89144,4.23811-.89144,4.01148,0,7.13153,3.34668,7.13153,7.35816v49.9358c-4.90292,1.78288-9.58677,4.01148-12.48019,6.021.21907,1.5638.89144,3.12005,1.5638,4.23812,13.81732-2.89341,32.31849,2.2286,40.34901,7.35817,4.90292-5.57529,9.58677-10.25156,14.93543-15.16204M730.5615,194.91029c0-4.23812,0-8.91441-.22663-13.15253,3.12005-2.45524,4.01148-3.12004,7.35816-5.34865l2.90098-2.00952,5.34866,5.79436c3.12005,3.56576,3.79242,6.24009,3.79242,8.69533,0,4.01149-2.0095,7.13152-9.36014,12.03445l-9.80584,6.68581v-12.70682l-.00761.00756ZM713.39751,185.10444c.22663,3.7924.44574,8.46869.44574,15.38114v25.85934c0,8.02296-.21907,13.15253-.44574,17.60973,11.36964,2.44769,22.29358,5.57529,32.54516,11.36965,5.57529-5.79436,7.57727-7.80389,18.2821-17.82882-.67237-1.33716-2.45524-3.7924-4.23811-4.68384l-8.02296,7.35817c-5.34866-2.89341-15.38112-5.12956-21.62122-6.021,0-2.90096.22663-5.57529.22663-15.16206v-3.7924l18.05547-12.26109c11.58875-7.80389,17.60973-15.38113,17.60973-21.1755,0-3.12004-2.00198-6.91245-4.90292-10.25157l-10.03251-11.58873c-7.8039,4.01148-27.41557,17.39066-37.89377,25.18698M699.36108,238.16029c-1.33718-1.78288-2.67431-3.34668-4.45722-4.4572l-4.45722,4.23812c-4.68385-2.45524-12.26107-4.23812-17.60973-4.68384v-53.27492h24.96789c.89144-2.90096,1.33718-8.2496,0-11.14301h-25.6327c-.44574-7.80389.22663-11.36965,5.34866-15.82686l16.27256-14.70878c-.89144-1.78288-2.22861-3.56576-4.01148-4.90292l-48.14535,41.68619c-.21907,1.5638.21907,4.01148.89144,5.12956h13.59825v55.28444c-5.34866,1.5638-10.4782,4.01148-13.59825,6.24008.22663,1.5638.89144,3.12005,1.5638,4.23812,13.81732-2.90096,32.31849,2.2286,40.34901,7.35817,4.90292-5.57529,9.58677-10.25156,14.93543-15.15449M604.39995,205.3885c7.35816,6.68581,14.26306,9.58677,14.26306,18.72026,0,6.021-5.57529,12.92589-15.82686,12.92589-12.92588,0-23.40409-3.12005-23.40409-12.7068s8.46871-10.25158,24.96789-18.9469M595.03986,203.38654c-6.68579-5.57529-13.37162-10.25158-13.37162-17.83637,0-4.90292,3.34668-9.14105,22.29358-9.14105,9.36014,0,13.81732,5.57528,13.81732,9.36013,0,3.56576-1.1105,6.68581-5.12955,8.69533l-17.60973,8.91441v.00755ZM624.46492,146.76493c-1.78287,1.11052-3.56574,2.2286-4.90292,3.7924,1.78287,2.2286,2.90098,3.56576,2.90098,6.021,0,1.33716-.67237,3.12004-2.90098,3.7924-1.5638.67236-4.68385.67236-7.8039.67236-13.37162,0-20.72978,3.12004-31.65372,15.60022-5.79435,6.68581-10.92394,13.59825-10.92394,22.06694,0,5.34865,1.33718,9.36013,8.9144,16.49166-2.45524,2.2286-4.90292,4.90293-4.90292,10.25156,0,4.4572,1.5638,8.69532,4.90292,11.58873l-8.02296,14.26306c1.5638,1.5638,3.34668,2.44769,5.34866,3.12005l3.56574-5.79436c7.13153,3.56576,11.81538,4.23812,16.04593,4.23812,11.36964,0,19.3926-8.69532,26.75076-18.50118,7.13153-10.03249,9.58677-15.60021,9.58677-22.29357,0-7.13153-4.68385-13.59825-10.4782-18.05545,2.22861-2.44769,3.12005-6.24009,3.12005-9.14105,0-3.34668-1.5638-8.46869-6.91246-10.25157,6.02098-3.56576,11.81538-10.69729,11.81538-17.83637,0-5.12956-2.67431-8.46869-4.45722-10.03249M526.1647,241.49941c4.01148,2.67432,8.24962,9.14105,10.25155,12.92589,1.11806.21908,2.44768.21908,3.56574,0,4.01148-8.02296,9.14103-12.48018,16.7183-18.50118-.67237-1.5638-1.5638-2.90096-2.45524-4.01148-1.78287.67236-3.34668.89144-4.23811.89144-4.01148,0-6.02098-3.34668-6.02098-7.35817v-34.32803c0-8.91441,4.23811-12.70681,9.36014-14.04397.21907-1.33716.21907-2.44768,0-3.7924-8.24959-3.12004-11.81538-10.25157-14.71631-15.15449-1.1105-.21908-2.44768-.21908-3.56574,0-4.45722,6.46672-9.58677,11.36965-16.27258,15.15449-.22663,1.33716-.22663,2.45524,0,3.7924,5.34864,1.78288,9.58677,4.68384,9.58677,13.59825v37.44808c0,4.23812-3.79239,6.91244-8.24962,7.13153l-17.16402.67236c-3.12005-2.00196-5.12957-4.01148-5.12957-8.69532v-35.89182c0-9.80585,4.90292-11.81537,10.03249-14.04397.22663-1.33716.22663-2.67432,0-4.01148-10.03249-2.45524-15.38114-10.03249-18.05545-15.38113-1.11052-.22664-2.44768-.22664-3.56576,0-4.01148,8.02297-10.03249,13.15253-16.7183,18.50117.66481,1.5638,1.33715,2.90096,2.44768,4.01148,1.78287-.67236,3.34668-.89144,4.23811-.89144,4.01148,0,6.021,3.34668,6.021,7.35816v34.32802c0,8.91441-4.23811,12.70682-9.36014,14.04397-.22663,1.33716-.22663,2.45524,0,3.7924,8.24962,3.12005,11.81538,10.25156,14.48969,15.16204,1.5638.22664,2.90096.22664,4.4572,0,6.021-9.14105,7.57725-11.58873,14.70878-11.81537l19.61926-.89144h.01512ZM408.47184,137.85052c0-22.29358,8.24962-27.64222,24.96789-26.30506.67237-1.5638,1.11809-3.12004,1.33715-4.68384-2.90096-1.5638-7.57725-2.44768-11.58873-2.44768-12.48016,0-20.28406,5.34865-25.18698,14.48969-6.021-6.021-11.14301-7.13153-15.82686-8.24961-.89144,1.5638-1.33715,2.90096-1.78287,4.4572,8.9144,5.34864,11.36964,16.93738,11.36964,30.31655v90.27728c-4.90292,1.78288-8.9144,4.68384-12.48016,7.13153.21909,1.5638.89144,3.12005,1.5638,4.23812,13.81734-2.89341,23.40411,2.2286,31.42707,7.35817,4.90292-5.57529,9.58677-10.25158,14.9354-15.16206-1.33715-1.78288-2.67433-3.12005-4.4572-4.4572l-4.4572,4.23812c-3.56576-2.00196-6.46672-2.90096-9.80586-3.7924v-53.04829c4.68385-2.67432,9.58677-4.90292,14.48969-7.13153,8.9144,10.69729,20.51069,28.53367,20.51069,47.48056,0,22.51266-15.60021,45.02532-43.24243,75.5685,1.11809,1.5638,3.34668,3.34668,5.12957,4.23811,42.13191-45.02532,54.16635-69.99321,54.16635-94.5154,0-15.60021-6.91244-29.4251-19.83834-48.14536-10.25158,4.68384-20.95641,10.25157-31.20798,15.82685v-37.67471l-.02264-.00755ZM325.32609,243.95465c11.36965,2.44769,18.94689,5.57529,29.19846,11.36965,5.57529-5.79436,7.57725-7.80389,18.2821-17.82882-.67237-1.33716-2.45524-3.7924-4.23811-4.68384l-8.02296,7.35817c-5.34864-2.89341-12.03445-5.12956-18.2821-6.021,0-2.90096.22663-5.57529.22663-15.16206v-24.07645c0-4.23812,0-8.91441-.22663-13.15253,1.78287-1.33716,4.01148-3.34668,10.25158-7.35816,3.34668,2.90096,5.57529,6.021,8.9144,12.03445,5.12957-2.67432,10.25158-6.021,14.48969-9.58677-3.79239-7.80389-6.46672-11.58873-12.9259-16.71829-12.2611,6.91245-25.18698,16.27257-37.67471,24.9679.21908,3.7924.44572,8.46869.44572,15.38113v25.85934c0,8.02296-.21908,13.15253-.44572,17.60973M274.72549,241.94513c-17.60973-9.14105-41.45956-33.65567-64.19886-33.65567-18.05546,0-30.98135,12.03445-30.98135,24.74126,0,14.48969,13.15253,20.28406,22.7393,20.06497.44572-1.5638.67236-3.56576.67236-6.021-10.92393-1.33716-16.04593-6.68581-16.04593-14.26306,0-8.46869,6.46672-12.92589,13.81733-12.92589,16.93738,0,45.47104,28.75274,63.52649,38.56615,5.34865-4.01148,9.58677-7.13153,15.82685-11.58873,20.28406-14.48969,30.08991-24.74126,30.08991-41.01384,0-17.39066-14.70878-29.87082-28.53367-40.79475l-24.52218,8.46869c-8.02296,2.67432-11.14301,2.45524-16.93738,2.45524-12.70681,0-27.41559-9.36013-27.41559-30.31654,0-13.15253,7.13153-18.28209,16.93738-18.28209,15.60022,0,34.77374,14.04397,50.6006,14.04397,13.37161,0,31.20798-10.25157,31.20798-28.08794,0-11.15055-6.46672-19.84588-19.61926-19.84588-6.68581,0-12.48018,3.34668-16.49166,9.14105,1.33716,1.5638,2.90096,2.67432,4.68384,3.7924,2.45524-2.67432,6.24008-6.021,11.36965-6.021,6.91244,0,12.03446,4.68384,12.03446,13.15253,0,7.57725-5.79436,13.81733-13.15253,13.81733-9.58677,0-29.19846-11.81537-44.57959-11.81537-20.28406,0-49.9358,16.93738-49.9358,42.57764,0,12.92589,10.47821,29.64419,30.31654,29.64419,5.12956,0,10.92393-.89144,17.38309-2.89341l22.06693-6.91245c15.82685,13.81733,29.19846,21.40213,29.19846,37.44807,0,12.26109-7.80389,18.28209-20.06497,26.52414" fill="#232348"/>
      </g>
    </g>
  </g>
</svg>