<?xml version="1.0" encoding="UTF-8"?><svg id="Layer_2" xmlns="http://www.w3.org/2000/svg" xmlns:xlink="http://www.w3.org/1999/xlink" viewBox="0 0 1834.92 699.84"><defs><style>.cls-1{fill:none;}.cls-2{clip-path:url(#clippath);}</style><clipPath id="clippath"><rect class="cls-1" width="1834.92" height="699.84"/></clipPath></defs><g id="Layer_1-2"><g class="cls-2"><path d="M1579.01,625.77c-1.59-2.12-3.19-3.98-5.31-5.31l-5.31,5.04c-6.11-3.19-15.93-5.31-22.3-5.57v-62.92l3.19-1.33c6.11-2.39,7.43-2.12,9.56-2.12,7.17,0,10.35,5.31,11.95,13.54,1.86.26,3.45.26,5.31,0,1.86-6.11,10.09-12.74,17.26-15.93.27-1.86.27-3.45,0-5.31-8.49-3.19-10.88-7.43-13.27-16.73-1.59-.26-3.19-.26-4.78,0-5.84,10.35-14.07,14.34-26.02,18.58-6.11-4.51-11.15-12.74-14.07-18.85-1.86-.27-3.45-.27-5.31,0-3.72,9.56-10.89,15.13-19.91,22.3.53,1.86,1.59,3.18,2.66,4.51,2.12-.8,3.98-1.06,5.04-1.06,4.78,0,8.5,3.98,8.5,8.76v59.47c-5.84,2.12-11.42,4.78-14.87,7.17.27,1.86,1.06,3.72,1.86,5.05,16.46-3.45,38.5,2.65,48.05,8.76,5.84-6.64,11.42-12.21,17.79-18.05M1464.06,628.43c4.78,3.19,9.82,10.88,12.21,15.4,1.33.26,2.92.26,4.25,0,4.78-9.56,10.89-14.87,19.91-22.04-.8-1.86-1.86-3.45-2.92-4.78-2.12.8-3.98,1.06-5.04,1.06-4.78,0-7.17-3.98-7.17-8.76v-40.88c0-10.62,5.04-15.13,11.15-16.73.27-1.59.27-2.92,0-4.51-9.82-3.72-14.07-12.21-17.52-18.05-1.33-.26-2.92-.26-4.25,0-5.31,7.7-11.42,13.54-19.38,18.05-.27,1.59-.27,2.92,0,4.51,6.37,2.12,11.42,5.58,11.42,16.19v44.6c0,5.04-4.51,8.23-9.82,8.5l-20.44.8c-3.72-2.39-6.11-4.78-6.11-10.35v-42.74c0-11.68,5.84-14.07,11.95-16.73.27-1.59.27-3.19,0-4.78-11.95-2.92-18.32-11.95-21.51-18.32-1.33-.27-2.92-.27-4.25,0-4.78,9.56-11.95,15.66-19.91,22.04.8,1.86,1.59,3.45,2.92,4.78,2.12-.8,3.98-1.06,5.05-1.06,4.78,0,7.17,3.98,7.17,8.76v40.89c0,10.62-5.05,15.13-11.15,16.73-.27,1.59-.27,2.92,0,4.51,9.82,3.72,14.07,12.21,17.26,18.05,1.86.27,3.45.27,5.31,0,7.17-10.88,9.03-13.81,17.52-14.07l23.36-1.06ZM1386.8,624.44c-1.59-2.12-3.19-3.98-5.31-5.31l-5.31,5.04c-5.57-2.92-14.6-5.04-20.97-5.58v-63.45h29.73c1.06-3.45,1.59-9.82,0-13.27h-30.53c-.53-9.29.27-13.54,6.37-18.85l19.38-17.52c-1.06-2.12-2.65-4.25-4.78-5.84l-57.35,49.65c-.27,1.86.27,4.78,1.06,6.11h16.19v65.84c-6.37,1.86-12.48,4.78-16.19,7.43.27,1.86,1.06,3.72,1.86,5.04,16.46-3.45,38.49,2.65,48.05,8.76,5.84-6.64,11.42-12.21,17.79-18.05M1288.31,526.48c0,3.19-.53,6.64-5.57,9.56l-14.87,8.5v-24.69l13.81-7.43c4.78,5.84,6.64,11.15,6.64,14.07M1234.15,557.81h13.81v65.04c-5.84,2.12-10.62,5.31-14.87,8.5.27,1.59,1.06,3.45,1.86,5.04,16.46-3.45,35.31,2.65,44.87,8.76,5.84-6.64,11.42-12.21,17.79-18.05-1.59-2.12-3.19-3.72-5.31-5.31l-5.31,5.04c-4.78-2.65-12.48-3.98-19.11-4.78v-64.25h35.58c.27-2.39.27-5.04,0-7.43h-32.12v-.8l20.18-10.89c6.64-3.72,15.66-8.76,15.66-18.85,0-6.11-5.04-13.54-11.68-22.83-8.76,5.04-18.05,10.62-27.61,15.4v-9.56c0-16.99,10.89-26.02,24.69-26.02,3.19,0,9.03.8,14.87,3.72,1.33-1.86,2.66-3.72,3.45-6.11-6.11-4.25-14.07-6.37-20.18-6.37-15.93,0-28.14,7.17-35.31,20.97-7.43-10.62-12.74-13.27-19.65-16.99-1.86,1.86-3.19,3.72-4.51,6.11,13.81,10.35,16.73,12.48,16.73,39.03v33.19h-13.81c-.27,2.39-.27,5.04,0,7.43M1151.85,619.67c0-3.45.27-6.64.27-18.05v-27.08c0-5.31-.27-11.42-.53-16.19,2.39-2.12,7.7-5.58,10.35-7.17l3.72-2.39c8.5,5.57,14.87,9.03,20.71,10.62v52.57l-14.6,13.54c-5.31-2.92-13.01-5.31-19.91-5.84M1226.72,623.12c-1.86-2.39-3.45-3.98-5.31-5.58l-6.64,6.11c-2.92-2.12-6.37-4.51-8.49-7.7v-56.55c6.37-2.65,11.95-7.17,15.13-10.88-.53-1.06-2.12-3.45-2.92-4.25-2.12.8-5.04,1.33-7.17,1.33-11.15,0-23.1-9.56-31.06-15.93-15.93,11.15-31.86,21.24-48.58,31.59.27,4.51.53,10.09.53,18.32v30.8c0,9.56-.27,15.66-.53,20.97,14.07,2.39,25.22,7.7,32.92,12.21l21.77-20.71h1.06c2.39,5.58,6.11,11.95,18.58,20.71,6.64-7.7,13.54-14.34,20.71-20.44M1108.32,625.77c-1.59-2.12-3.19-3.98-5.31-5.31l-5.31,5.04c-6.11-3.19-15.93-5.31-22.3-5.57v-62.92l3.19-1.33c6.11-2.39,7.43-2.12,9.56-2.12,7.17,0,10.35,5.31,11.95,13.54,1.86.26,3.45.26,5.31,0,1.86-6.11,10.09-12.74,17.26-15.93.27-1.86.27-3.45,0-5.31-8.5-3.19-10.89-7.43-13.27-16.73-1.59-.26-3.19-.26-4.78,0-5.84,10.35-14.07,14.34-26.02,18.58-6.11-4.51-11.15-12.74-14.07-18.85-1.86-.27-3.45-.27-5.31,0-3.72,9.56-10.89,15.13-19.91,22.3.53,1.86,1.59,3.18,2.66,4.51,2.12-.8,3.98-1.06,5.04-1.06,4.78,0,8.5,3.98,8.5,8.76v59.47c-5.84,2.12-11.42,4.78-14.87,7.17.27,1.86,1.06,3.72,1.86,5.05,16.46-3.45,38.49,2.65,48.05,8.76,5.84-6.64,11.42-12.21,17.79-18.05M1022.3,472.32c-2.39.26-4.51,1.06-6.37,1.86.53,1.86,1.33,5.04,1.33,8.23,0,6.64-5.31,13.54-14.87,13.54-19.11,0-41.15-28.94-79.11-28.94-31.59,0-52.04,22.3-52.04,44.6s13.27,30.8,26.81,34.78c1.06-1.86,1.86-4.25,2.39-6.9-14.87-5.31-21.24-14.6-21.24-27.88,0-17.26,12.48-28.94,30.8-28.94,12.48,0,24.69,7.96,37.96,15.66-7.7,14.87-13.01,24.16-13.01,40.62,0,43.81,52.3,62.66,52.3,107.79,0,27.08-22.57,44.6-43.27,44.6s-41.42-14.87-41.42-42.48,22.83-44.34,22.83-64.51c0-14.87-10.09-20.97-20.44-26.81-1.59,1.86-2.66,3.98-3.72,5.84,5.04,3.72,8.5,6.64,8.5,11.68,0,16.19-24.42,33.98-24.42,66.64,0,38.49,28.67,57.61,57.61,57.61s60.27-24.42,60.27-72.21c0-15.4-6.37-28.94-14.87-41.15,12.21-13.01,18.32-18.32,25.22-18.32,2.92,0,5.84.8,8.76,2.12,1.33-1.06,2.66-2.39,3.45-3.98-3.19-4.78-5.05-9.03-5.05-13.54,0-3.72,1.06-8.23,3.45-13.27-1.33-1.33-2.66-2.12-4.51-2.92-3.72,4.78-8.23,6.37-12.21,6.37-4.51,0-8.23-1.86-10.09-2.92-1.33,1.06-2.39,2.12-3.72,3.72,3.98,6.11,4.78,9.56,4.78,13.54,0,6.11-5.04,13.8-14.6,23.36-15.93-21.24-36.37-38.76-36.37-56.28,0-7.43,1.86-13.27,6.64-22.04,10.62,5.84,21.77,10.89,33.72,10.89,29.2,0,36.64-19.65,36.64-29.47,0-3.72-.53-6.9-2.12-10.88M869.64,587.28c-14.34,4.25-28.67,8.23-43.01,11.42-.8,1.59-.53,9.03,0,10.62,14.34-4.25,28.67-8.23,43.01-11.42.53-1.59.8-9.03,0-10.62M869.64,551.97c-14.34,4.25-28.67,8.23-43.01,11.42-.8,1.59-.53,9.03,0,10.62,14.34-4.25,28.67-8.23,43.01-11.42.53-1.59.8-9.03,0-10.62M801.42,625.77c-1.59-2.12-3.19-3.98-5.31-5.31l-5.31,5.04c-6.11-3.19-15.93-5.31-22.3-5.57v-62.92l3.19-1.33c6.11-2.39,7.43-2.12,9.56-2.12,7.17,0,10.35,5.31,11.95,13.54,1.86.26,3.45.26,5.31,0,1.86-6.11,10.09-12.74,17.26-15.93.27-1.86.27-3.45,0-5.31-8.49-3.19-10.89-7.43-13.27-16.73-1.59-.26-3.19-.26-4.78,0-5.84,10.35-14.07,14.34-26.02,18.58-6.11-4.51-11.15-12.74-14.07-18.85-1.86-.27-3.45-.27-5.31,0-3.72,9.56-10.89,15.13-19.91,22.3.53,1.86,1.59,3.18,2.65,4.51,2.12-.8,3.98-1.06,5.04-1.06,4.78,0,8.5,3.98,8.5,8.76v59.47c-5.84,2.12-11.42,4.78-14.87,7.17.26,1.86,1.06,3.72,1.86,5.05,16.46-3.45,38.5,2.65,48.05,8.76,5.84-6.64,11.42-12.21,17.79-18.05M679.3,572.94c0-5.04,0-10.62-.27-15.66,3.72-2.92,4.78-3.72,8.76-6.37l3.45-2.39,6.37,6.9c3.72,4.25,4.51,7.43,4.51,10.35,0,4.78-2.39,8.5-11.15,14.34l-11.68,7.96v-15.13ZM658.85,561.26c.27,4.51.53,10.09.53,18.32v30.8c0,9.56-.26,15.66-.53,20.97,13.54,2.92,26.55,6.64,38.76,13.54,6.64-6.9,9.03-9.29,21.77-21.24-.8-1.59-2.92-4.51-5.04-5.58l-9.56,8.76c-6.37-3.45-18.32-6.11-25.75-7.17,0-3.45.27-6.64.27-18.05v-4.51l21.5-14.6c13.8-9.29,20.97-18.32,20.97-25.22,0-3.72-2.39-8.23-5.84-12.21l-11.95-13.8c-9.29,4.78-32.65,20.71-45.13,30M570.98,619.67c0-3.45.27-6.64.27-18.05v-27.08c0-5.31-.27-11.42-.53-16.19,2.39-2.12,7.7-5.58,10.35-7.17l3.72-2.39c7.7,5.31,14.6,8.76,20.71,10.62v52.57l-14.6,13.54c-5.31-2.92-13.01-5.31-19.91-5.84M637.35,649.67c0-9.56-3.19-23.36-11.95-31.33v-58.94c6.37-2.65,11.95-7.17,15.13-10.88-.53-1.06-2.12-3.45-2.92-4.25-2.12.8-5.04,1.33-7.17,1.33-11.15,0-23.1-9.56-31.06-15.93-15.93,11.15-31.86,21.24-48.58,31.59.27,4.51.53,10.09.53,18.32v30.8c0,9.56-.27,15.66-.53,20.97,14.07,2.39,25.22,7.7,32.92,12.21l20.44-19.65h1.33c3.72,11.68,21.24,15.4,21.24,35.57,0,17.79-15.93,33.19-36.9,33.19-19.65,0-30.8-10.62-30.8-16.72,0-5.05,3.98-7.17,3.98-12.48s-4.25-10.09-10.88-10.09c-5.31,0-10.89,3.72-10.89,13.27,0,12.74,16.19,33.19,48.05,33.19,21.77,0,48.05-12.21,48.05-50.18M517.09,567.9c0-9.03,3.19-11.95,11.15-14.87.27-1.59.27-3.19,0-4.78-9.82-3.72-14.07-11.15-16.99-17.79-1.33-.27-2.92-.27-4.51,0-5.57,8.49-13.01,14.87-23.1,15.66l-18.05.8c-5.04-3.45-10.09-11.68-12.74-18.05-1.59-.27-2.92-.27-4.51,0-5.04,9.56-12.21,15.13-21.24,22.3.53,1.86,1.33,3.18,2.65,4.51,2.12-.8,3.98-1.06,5.04-1.06,4.78,0,7.17,3.98,7.17,8.76v42.21c0,9.03-3.19,11.95-11.15,14.87-.27,1.59-.27,3.19,0,4.78,9.82,3.72,15.93,11.42,18.85,18.05,1.59.26,3.45.26,5.05,0,3.98-7.7,6.9-13.54,17.26-17.26.27-1.86.27-3.45,0-5.31-7.7-1.59-11.42-5.57-11.42-16.19v-36.64c0-6.37,1.59-12.74,14.07-13.8l16.46-.8c3.19,1.33,7.43,4.78,7.43,11.68v41.68c0,7.43-3.72,11.42-11.95,14.07-.27,1.86-.27,3.45,0,5.31,11.95,2.92,17.26,11.15,20.44,17.52,1.86.27,3.45.27,5.31,0,4.78-9.56,6.9-12.21,19.91-21.5-.8-1.86-1.59-3.45-2.92-5.04-2.12.8-3.98,1.06-5.05,1.06-4.78,0-7.17-3.98-7.17-8.76v-41.42ZM249.48,634.8c1.59,1.33,3.19,2.66,5.31,3.45,5.84-6.37,11.95-12.21,23.1-12.21,14.34,0,24.16,7.96,31.33,22.3,1.59.53,3.18.53,5.31.53,11.68-13.8,29.2-25.49,44.6-25.49,12.74,0,23.63,9.29,30.27,21.77,1.33.8,3.19,1.06,5.04,1.33l26.55-32.39c-1.59-1.86-3.72-3.45-5.84-4.78l-7.43,8.5c-5.58-5.04-11.95-9.56-19.91-11.68v-97.17c7.17-3.98,13.01-6.11,22.3-9.56,0-2.12-.27-4.78-1.06-7.17-16.73.27-22.3-7.96-24.69-18.05-1.86-.26-3.45-.26-5.31,0-9.03,14.6-23.63,17.79-33.19,19.11-.27,2.39-.27,4.78.26,6.64,9.03,1.33,14.6,5.04,19.91,12.74v93.72c-11.42,2.39-21.24,8.23-33.19,16.19-9.29-8.76-19.38-14.07-29.74-16.46v-96.64c8.5-5.31,14.6-7.7,22.04-10.35,0-2.39-.27-3.72-.8-6.11-16.73,2.39-29.2-5.31-32.92-18.05-1.86-.27-3.45-.27-5.31,0-2.65,7.7-5.57,10.35-14.07,13.54-13.01,4.51-16.73,7.43-20.71,14.87,1.59,1.59,2.65,2.12,4.78,3.19,2.65-4.25,6.11-6.11,9.56-6.11,4.78,0,9.03,4.25,15.4,10.35v94.51c-15.13,2.65-25.22,14.07-31.59,29.47"/><path d="M1820.69,364.31c3.88,3.53,7.53,5.06,7.53,9.88,0,3.17-2.94,6.82-8.35,6.82-6.82,0-12.35-1.65-12.35-6.7s4.47-5.41,13.17-10M1815.75,363.25c-3.53-2.94-7.06-5.41-7.06-9.41,0-2.59,1.76-4.82,11.76-4.82,4.94,0,7.29,2.94,7.29,4.94,0,1.88-.59,3.53-2.71,4.59l-9.29,4.7ZM1831.27,333.38c-.94.59-1.88,1.18-2.59,2,.94,1.18,1.53,1.88,1.53,3.17,0,.71-.35,1.65-1.53,2-.82.35-2.47.35-4.12.35-7.06,0-10.94,1.65-16.7,8.23-3.06,3.53-5.76,7.17-5.76,11.64,0,2.82.71,4.94,4.7,8.7-1.29,1.18-2.59,2.59-2.59,5.41,0,2.35.82,4.59,2.59,6.12l-4.23,7.53c.82.82,1.76,1.29,2.82,1.65l1.88-3.06c3.76,1.88,6.23,2.23,8.47,2.23,6,0,10.23-4.59,14.11-9.76,3.76-5.29,5.06-8.23,5.06-11.76,0-3.76-2.47-7.17-5.53-9.53,1.18-1.29,1.65-3.29,1.65-4.82,0-1.76-.82-4.47-3.65-5.41,3.18-1.88,6.23-5.64,6.23-9.41,0-2.71-1.41-4.47-2.35-5.29M1780.24,310.21c-4.94,0-7.06,3.29-7.06,7.06,0,4.23,3.53,6.94,7.06,6.94,1.53,0,2.82-.35,4.12-.82.12.59.12,1.29.12,2,0,5.41-2.82,11.88-10.7,18.58.47.94,1.06,1.76,2,2.47,10.47-7.53,13.64-15.41,13.64-22.93,0-8.35-3.65-13.29-9.17-13.29M1754.95,382.18c-.71-.94-1.41-1.76-2.35-2.35l-2.35,2.23c-2.7-1.41-7.06-2.35-9.88-2.47v-27.87l1.41-.59c2.71-1.06,3.29-.94,4.23-.94,3.18,0,4.59,2.35,5.29,6,.82.12,1.53.12,2.35,0,.82-2.7,4.47-5.64,7.64-7.06.12-.82.12-1.53,0-2.35-3.76-1.41-4.82-3.29-5.88-7.41-.71-.12-1.41-.12-2.12,0-2.59,4.59-6.23,6.35-11.53,8.23-2.7-2-4.94-5.64-6.23-8.35-.82-.12-1.53-.12-2.35,0-1.65,4.23-4.82,6.7-8.82,9.88.23.82.71,1.41,1.18,2,.94-.35,1.76-.47,2.24-.47,2.12,0,3.76,1.76,3.76,3.88v26.34c-2.59.94-5.06,2.12-6.59,3.18.12.82.47,1.65.82,2.23,7.29-1.53,17.05,1.18,21.29,3.88,2.59-2.94,5.06-5.41,7.88-8M1692.62,358.78c0-2.23,0-4.7-.12-6.94,1.65-1.29,2.12-1.65,3.88-2.82l1.53-1.06,2.82,3.06c1.65,1.88,2,3.29,2,4.59,0,2.12-1.06,3.76-4.94,6.35l-5.18,3.53v-6.7ZM1683.57,353.61c.12,2,.23,4.47.23,8.11v13.64c0,4.23-.12,6.94-.23,9.29,6,1.29,11.76,2.94,17.17,6,2.94-3.06,4-4.12,9.64-9.41-.35-.7-1.29-2-2.23-2.47l-4.23,3.88c-2.82-1.53-8.11-2.7-11.41-3.18,0-1.53.12-2.94.12-8v-2l9.53-6.47c6.12-4.12,9.29-8.11,9.29-11.17,0-1.65-1.06-3.64-2.59-5.41l-5.29-6.12c-4.12,2.12-14.47,9.17-19.99,13.29M1636.41,379.48c0-1.53.12-2.94.12-8v-12c0-2.35-.12-5.06-.23-7.17,1.06-.94,3.41-2.47,4.59-3.18l1.65-1.06c3.41,2.35,6.47,3.88,9.17,4.7v23.29l-6.47,6c-2.35-1.29-5.76-2.35-8.82-2.59M1665.81,392.77c0-4.23-1.41-10.35-5.29-13.88v-26.11c2.82-1.18,5.29-3.18,6.7-4.82-.23-.47-.94-1.53-1.29-1.88-.94.35-2.23.59-3.18.59-4.94,0-10.23-4.23-13.76-7.06-7.06,4.94-14.11,9.41-21.52,13.99.12,2,.24,4.47.24,8.11v13.64c0,4.23-.12,6.94-.24,9.29,6.23,1.06,11.17,3.41,14.58,5.41l9.06-8.7h.59c1.65,5.17,9.41,6.82,9.41,15.76,0,7.88-7.06,14.7-16.35,14.7-8.7,0-13.64-4.7-13.64-7.41,0-2.23,1.76-3.17,1.76-5.53s-1.88-4.47-4.82-4.47c-2.35,0-4.82,1.65-4.82,5.88,0,5.64,7.17,14.7,21.29,14.7,9.64,0,21.29-5.41,21.29-22.23M1604.31,356.55c0-4,1.41-5.29,4.94-6.59.12-.71.12-1.41,0-2.12-4.35-1.65-6.23-4.94-7.53-7.88-.59-.12-1.29-.12-2,0-2.47,3.76-5.76,6.58-10.23,6.94l-8,.35c-2.23-1.53-4.47-5.17-5.65-8-.71-.12-1.29-.12-2,0-2.23,4.23-5.41,6.7-9.41,9.88.23.82.59,1.41,1.18,2,.94-.35,1.76-.47,2.23-.47,2.12,0,3.18,1.76,3.18,3.88v18.7c0,4-1.41,5.29-4.94,6.59-.12.71-.12,1.41,0,2.12,4.35,1.65,7.06,5.06,8.35,8,.7.12,1.53.12,2.23,0,1.76-3.41,3.06-6,7.65-7.64.12-.82.12-1.53,0-2.35-3.41-.71-5.06-2.47-5.06-7.17v-16.23c0-2.82.7-5.65,6.23-6.12l7.29-.35c1.41.59,3.29,2.12,3.29,5.18v18.46c0,3.29-1.65,5.06-5.29,6.23-.12.82-.12,1.53,0,2.35,5.29,1.29,7.64,4.94,9.05,7.76.82.12,1.53.12,2.35,0,2.12-4.23,3.06-5.41,8.82-9.52-.35-.82-.7-1.53-1.29-2.24-.94.35-1.76.47-2.23.47-2.12,0-3.18-1.76-3.18-3.88v-18.35ZM1520.57,385.24c-12.11,0-20.93-16.7-34.46-11.17l-.24-.35c19.99-8.58,25.87-18.23,25.87-32.93,0-19.17-11.88-26.11-23.64-26.11-8.94,0-21.52,5.64-21.52,19.29,0,12.7,9.41,16.82,18.46,16.58.12-1.18.23-2.35.12-3.53-7.17-.12-14.58-2.71-14.58-13.53,0-8.47,6.82-14.23,13.88-14.23,11.41,0,16.58,9.06,16.58,25.76,0,22.82-11.99,25.28-30.69,31.4,0,1.06.35,2.12.82,3.18,18.82-5.64,27.4,12.11,42.34,12.11,5.53,0,10.47-2,19.29-8,.94,2.71,3.41,4.82,9.53,7.76,2.7-3.06,5.65-6.23,8.82-9.29-.12-.59-.59-1.53-.94-2-6.82.47-8.82-1.65-8.82-9.41v-43.16c2.59-1.76,4.12-2.12,9.64-3.29,0-1.18-.24-2.23-.47-3.41-1.29.12-2.59.23-3.76.23-2.12,0-3.88-.59-6-2.23-2.12-1.65-3.06-3.41-3.76-6.12-.94-.12-2-.12-2.94,0-.94,3.53-2.35,4.47-5.53,6.23-5.41,2.94-7.06,3.41-9.29,6.47.71.71,1.65,1.41,2.59,1.88,1.65-2,2.94-3.06,5.06-3.17,1.65,0,2.94.82,5.17,2.7v51.04c0,.94,0,1.88.12,2.59-5.53,3.41-8.11,4.7-11.64,4.7M1404.27,328.67c0-11.76,4.35-14.58,13.17-13.88.35-.82.59-1.65.7-2.47-1.53-.82-4-1.29-6.11-1.29-6.59,0-10.7,2.82-13.29,7.64-3.17-3.17-5.88-3.76-8.35-4.35-.47.82-.71,1.53-.94,2.35,4.7,2.82,6,8.94,6,15.99v47.63c-2.59.94-4.7,2.47-6.59,3.76.12.82.47,1.65.82,2.23,7.29-1.53,12.35,1.18,16.58,3.88,2.59-2.94,5.06-5.41,7.88-8-.71-.94-1.41-1.65-2.35-2.35l-2.35,2.23c-1.88-1.06-3.41-1.53-5.18-2v-27.99c2.47-1.41,5.06-2.59,7.64-3.76,4.71,5.64,10.82,15.05,10.82,25.05,0,11.88-8.23,23.76-22.82,39.87.59.82,1.76,1.76,2.7,2.23,22.23-23.76,28.58-36.93,28.58-49.86,0-8.23-3.65-15.52-10.47-25.4-5.41,2.47-11.06,5.41-16.47,8.35v-19.88ZM1352.17,384.65c6,1.29,10,2.94,15.41,6,2.94-3.06,4-4.12,9.64-9.41-.35-.7-1.29-2-2.23-2.47l-4.23,3.88c-2.82-1.53-6.35-2.7-9.64-3.18,0-1.53.12-2.94.12-8v-12.7c0-2.23,0-4.7-.12-6.94.94-.7,2.12-1.76,5.41-3.88,1.76,1.53,2.94,3.18,4.7,6.35,2.7-1.41,5.41-3.17,7.65-5.06-2-4.12-3.41-6.11-6.82-8.82-6.47,3.65-13.29,8.58-19.88,13.17.12,2,.23,4.47.23,8.11v13.64c0,4.23-.12,6.94-.23,9.29M1328.77,374.66v-18.11c0-5.18,2.59-6.23,5.29-6.82.12-.82.12-1.53,0-2.35-5.29-1.29-8-5.29-9.41-8.12-.71-.12-1.41-.12-2.12,0-2,4.23-4.59,6.7-8.58,9.88.23.82.59,1.41,1.18,2,.94-.35,1.76-.47,2.23-.47,2.12,0,3.17,1.76,3.17,3.88v18.11c0,5.17-2.59,6.23-5.29,6.82-.24.82-.24,1.53,0,2.35,5.29,1.29,7.29,5.29,8.7,8.11.71.12,1.53.12,2.23,0,2-4.23,5.17-6.7,9.17-9.88-.23-.82-.59-1.41-1.18-2-.94.35-1.76.47-2.24.47-2.12,0-3.17-1.76-3.17-3.88M1322.3,329.73c1.18.12,2.35.12,3.53,0,2.23-3.06,3.53-6.47,3.53-9.17,0-3.88-1.65-6.35-5.17-6.35-2.82,0-5.17,2-5.17,6.47,0,2.94,1.29,6,3.29,9.05M1297.84,382.18c-.71-.94-1.41-1.76-2.35-2.35l-2.35,2.23c-2.71-1.41-7.06-2.35-9.88-2.47v-27.87l1.41-.59c2.7-1.06,3.29-.94,4.23-.94,3.18,0,4.59,2.35,5.29,6,.82.12,1.53.12,2.35,0,.82-2.7,4.47-5.64,7.65-7.06.12-.82.12-1.53,0-2.35-3.76-1.41-4.82-3.29-5.88-7.41-.7-.12-1.41-.12-2.12,0-2.59,4.59-6.23,6.35-11.53,8.23-2.7-2-4.94-5.64-6.23-8.35-.82-.12-1.53-.12-2.35,0-1.65,4.23-4.82,6.7-8.82,9.88.23.82.71,1.41,1.18,2,.94-.35,1.76-.47,2.23-.47,2.12,0,3.76,1.76,3.76,3.88v26.34c-2.59.94-5.06,2.12-6.59,3.18.12.82.47,1.65.82,2.23,7.29-1.53,17.05,1.18,21.29,3.88,2.59-2.94,5.06-5.41,7.88-8M1229.75,378.77v-22.34c0-2.24,0-4.7-.12-6.47,2-1.29,4.47-2.47,6.82-3.53,8.23,6.58,11.41,14.35,11.41,20.46,0,5.41-1.53,8.82-7.64,14.82-2.7-1.41-6.35-2.94-10.47-2.94M1220.81,384.65c6.35.59,12.35,2.59,16.94,5.76,1.76-2.47,3.65-4.7,5.76-6.94,8.35-8.7,11.53-14.35,11.53-21.99,0-8.47-3.18-15.76-10.35-21.29-7.41-5.64-18.94-8.94-18.94-16.46,0-3.18,2.71-6.7,8.23-6.7.23-1.18.23-2.35,0-3.53-8.23,0-13.29,6.23-13.29,12.7,0,5.06,3.29,11.88,12.35,17.76l.24.12v.47c-4.23,2.12-8.7,4.35-12.58,6.7.12,2,.24,4.47.24,8.11v15.99c0,4.23,0,6.59-.12,9.29M1184.59,358.78c0-2.23,0-4.7-.12-6.94,1.65-1.29,2.12-1.65,3.88-2.82l1.53-1.06,2.82,3.06c1.65,1.88,2,3.29,2,4.59,0,2.12-1.06,3.76-4.94,6.35l-5.17,3.53v-6.7ZM1175.53,353.61c.12,2,.23,4.47.23,8.11v13.64c0,4.23-.12,6.94-.23,9.29,6,1.29,11.76,2.94,17.17,6,2.94-3.06,4-4.12,9.64-9.41-.35-.7-1.29-2-2.23-2.47l-4.23,3.88c-2.82-1.53-8.11-2.7-11.41-3.18,0-1.53.12-2.94.12-8v-2l9.53-6.47c6.12-4.12,9.29-8.11,9.29-11.17,0-1.65-1.06-3.64-2.59-5.41l-5.29-6.12c-4.12,2.12-14.47,9.17-19.99,13.29M1152.13,374.66v-18.11c0-5.18,2.59-6.23,5.29-6.82.12-.82.12-1.53,0-2.35-5.29-1.29-8-5.29-9.41-8.12-.71-.12-1.41-.12-2.12,0-2,4.23-4.59,6.7-8.58,9.88.23.82.59,1.41,1.18,2,.94-.35,1.76-.47,2.23-.47,2.12,0,3.17,1.76,3.17,3.88v18.11c0,5.17-2.59,6.23-5.29,6.82-.23.82-.23,1.53,0,2.35,5.29,1.29,7.29,5.29,8.7,8.11.71.12,1.53.12,2.23,0,2-4.23,5.18-6.7,9.17-9.88-.23-.82-.59-1.41-1.18-2-.94.35-1.76.47-2.23.47-2.12,0-3.18-1.76-3.18-3.88M1145.66,329.73c1.18.12,2.35.12,3.53,0,2.23-3.06,3.53-6.47,3.53-9.17,0-3.88-1.65-6.35-5.18-6.35-2.82,0-5.17,2-5.17,6.47,0,2.94,1.29,6,3.29,9.05M1121.21,382.18c-.71-.94-1.41-1.76-2.35-2.35l-2.35,2.23c-2.71-1.41-7.06-2.35-9.88-2.47v-27.87l1.41-.59c2.7-1.06,3.29-.94,4.23-.94,3.17,0,4.59,2.35,5.29,6,.82.12,1.53.12,2.35,0,.82-2.7,4.47-5.64,7.64-7.06.12-.82.12-1.53,0-2.35-3.76-1.41-4.82-3.29-5.88-7.41-.7-.12-1.41-.12-2.12,0-2.59,4.59-6.23,6.35-11.53,8.23-2.7-2-4.94-5.64-6.23-8.35-.82-.12-1.53-.12-2.35,0-1.65,4.23-4.82,6.7-8.82,9.88.23.82.71,1.41,1.18,2,.94-.35,1.76-.47,2.23-.47,2.12,0,3.76,1.76,3.76,3.88v26.34c-2.59.94-5.06,2.12-6.59,3.18.12.82.47,1.65.82,2.23,7.29-1.53,17.05,1.18,21.29,3.88,2.59-2.94,5.06-5.41,7.88-8M1017.83,392.41c0,10.94,8.7,18.93,20.58,18.93,13.76,0,25.4-10,25.4-26.46,0-9.06-3.29-17.05-6.82-24.11,8.35-5.17,10.82-2.82,13.41.47,1.06-.24,2.12-.59,2.94-1.29-1.65-4.7-.7-7.29,3.29-10.82-.47-1.06-.94-1.88-1.65-2.7-4,2.35-7.29,1.29-9.41-2-1.06.35-2.12.94-2.94,1.53,1.18,2.35.94,4.82.59,5.76-.82,2.35-3.53,4-7.76,6.23-3.88-7.29-7.76-13.52-7.76-18.46,0-3.88.59-7.41,4.59-12.58,5.53,3.06,11.41,5.53,18.11,5.53,8.23,0,15.41-5.53,15.41-13.76,0-3.06-1.06-5.76-2-7.53-1.06.35-2,.71-3.06,1.29.59,1.53,1.29,3.29,1.29,5.88,0,5.29-3.76,7.17-7.17,7.17-11.17,0-22.34-16.35-39.16-16.35s-25.17,10.82-25.17,20.23,6.12,13.76,12.23,15.17c.47-.82.82-1.76,1.06-3.06-6.35-2.47-9.05-6.58-9.05-12.58,0-6.47,4.82-13.64,12.94-13.64,7.17,0,14.11,5.29,21.87,10-5.76,8.23-9.17,14.94-9.17,21.4,0,16.58,15.05,27.64,15.05,42.93,0,12-6.47,17.99-16.58,17.99-8.58,0-16.7-5.76-16.7-15.64,0-9.29,6.82-13.41,13.05-13.99.12-1.06,0-2.23-.24-3.29-7.17.12-17.17,5.88-17.17,17.76M969.97,356.55c0-4,1.41-5.29,4.94-6.59.12-.71.12-1.41,0-2.12-4.35-1.65-6.23-4.94-7.53-7.88-.59-.12-1.29-.12-2,0-2.47,3.76-5.76,6.58-10.23,6.94l-8,.35c-2.23-1.53-4.47-5.17-5.64-8-.71-.12-1.29-.12-2,0-2.23,4.23-5.41,6.7-9.41,9.88.24.82.59,1.41,1.18,2,.94-.35,1.76-.47,2.23-.47,2.12,0,3.18,1.76,3.18,3.88v18.7c0,4-1.41,5.29-4.94,6.59-.12.71-.12,1.41,0,2.12,4.35,1.65,7.06,5.06,8.35,8,.71.12,1.53.12,2.23,0,1.76-3.41,3.06-6,7.64-7.64.12-.82.12-1.53,0-2.35-3.41-.71-5.06-2.47-5.06-7.17v-16.23c0-2.82.7-5.65,6.23-6.12l7.29-.35c1.41.59,3.29,2.12,3.29,5.18v18.46c0,3.29-1.65,5.06-5.29,6.23-.12.82-.12,1.53,0,2.35,5.29,1.29,7.64,4.94,9.05,7.76.82.12,1.53.12,2.35,0,2.12-4.23,3.06-5.41,8.82-9.52-.35-.82-.71-1.53-1.29-2.24-.94.35-1.76.47-2.23.47-2.12,0-3.18-1.76-3.18-3.88v-18.35ZM910.35,356.55c0-4,1.41-5.29,4.94-6.59.12-.71.12-1.41,0-2.12-4.35-1.65-6.23-4.94-7.53-7.88-.59-.12-1.29-.12-2,0-2.47,3.76-5.76,6.58-10.23,6.94l-8,.35c-2.23-1.53-4.47-5.17-5.65-8-.71-.12-1.29-.12-2,0-2.23,4.23-5.41,6.7-9.41,9.88.24.82.59,1.41,1.18,2,.94-.35,1.77-.47,2.23-.47,2.12,0,3.17,1.76,3.17,3.88v18.7c0,4-1.41,5.29-4.94,6.59-.12.71-.12,1.41,0,2.12,4.35,1.65,7.06,5.06,8.35,8,.71.12,1.53.12,2.23,0,1.76-3.41,3.06-6,7.64-7.64.12-.82.12-1.53,0-2.35-3.41-.71-5.06-2.47-5.06-7.17v-16.23c0-2.82.71-5.65,6.23-6.12l7.29-.35c1.41.59,3.29,2.12,3.29,5.18v18.46c0,3.29-1.65,5.06-5.29,6.23-.12.82-.12,1.53,0,2.35,5.29,1.29,7.64,4.94,9.06,7.76.82.12,1.53.12,2.35,0,2.12-4.23,3.06-5.41,8.82-9.52-.35-.82-.71-1.53-1.29-2.24-.94.35-1.76.47-2.23.47-2.12,0-3.17-1.76-3.17-3.88v-18.35ZM826.38,379.48c0-1.53.12-2.94.12-8v-12c0-2.35-.12-5.06-.23-7.17,1.06-.94,3.41-2.47,4.59-3.18l1.65-1.06c3.76,2.47,6.59,4,9.17,4.7v23.29l-6.47,6c-2.35-1.29-5.76-2.35-8.82-2.59M859.54,381.01c-.82-1.06-1.53-1.76-2.35-2.47l-2.94,2.7c-1.29-.94-2.82-2-3.76-3.41v-25.05c2.82-1.18,5.29-3.18,6.7-4.82-.23-.47-.94-1.53-1.29-1.88-.94.35-2.23.59-3.17.59-4.94,0-10.23-4.23-13.76-7.06-7.06,4.94-14.11,9.41-21.52,13.99.12,2,.23,4.47.23,8.11v13.64c0,4.23-.12,6.94-.23,9.29,6.23,1.06,11.17,3.41,14.58,5.41l9.64-9.17h.47c1.06,2.47,2.7,5.29,8.23,9.17,2.94-3.41,6-6.35,9.17-9.05M774.28,328.67c0-11.76,4.35-14.58,13.17-13.88.35-.82.59-1.65.71-2.47-1.53-.82-4-1.29-6.11-1.29-6.59,0-10.7,2.82-13.29,7.64-3.18-3.17-5.88-3.76-8.35-4.35-.47.82-.71,1.53-.94,2.35,4.7,2.82,6,8.94,6,15.99v47.63c-2.59.94-4.7,2.47-6.59,3.76.12.82.47,1.65.82,2.23,7.29-1.53,12.35,1.18,16.58,3.88,2.59-2.94,5.06-5.41,7.88-8-.71-.94-1.41-1.65-2.35-2.35l-2.35,2.23c-1.88-1.06-3.41-1.53-5.17-2v-27.99c2.47-1.41,5.06-2.59,7.64-3.76,4.7,5.64,10.82,15.05,10.82,25.05,0,11.88-8.23,23.76-22.82,39.87.59.82,1.76,1.76,2.71,2.23,22.23-23.76,28.58-36.93,28.58-49.86,0-8.23-3.65-15.52-10.47-25.4-5.41,2.47-11.05,5.41-16.46,8.35v-19.88ZM723.6,372.3v-15.52c0-2.23,0-5.06-.12-7.29,2.35-1.06,4.12-2,7.29-2.94,5.64,7.41,10.82,16.58,10.82,22.11,0,3.06-2,6.94-8.11,12.94-2.94-1.41-5.88-2.59-10-2.94.12-1.29.12-3.06.12-6.35M714.42,384.54c5.65.59,10.82,2.12,16.58,5.88,2.94-4.23,6-6.94,8.94-10.47,5.41-6.59,8.94-12.23,8.94-17.05,0-5.41-3.06-13.17-10.82-22.46-8.35,2.59-15.64,5.64-23.52,8.94.24,2,.35,4.47.35,8.11v18.7c0,4.23-.23,6.7-.47,8.35M639.28,393.12c4.94,0,14.46,12.58,27.28,12.58,13.99,0,28.46-14.58,28.46-29.87,0-16.58-15.76-27.05-15.76-41.98,0-4,1.06-6.94,2.59-9.53h.71c8.35,0,16.46-4.7,16.46-14.82-.94-.12-1.77-.12-2.71,0-.24,5.06-4.35,6.94-7.29,6.94-7.53,0-13.41-5.64-23.99-5.64-15.76,0-27.05,11.64-27.05,23.87s7.76,18.82,18.11,20.82c.47-.94.82-2,.94-3.06-8.23-2.12-15.29-7.64-15.29-17.76,0-12.7,9.53-16.58,16.23-16.58,7.29,0,13.41,4.7,20.93,5.88-3.65,4.59-7.41,11.17-7.41,17.88,0,17.76,16.11,27.87,16.11,40.81,0,10.94-8.47,16.93-15.29,16.93-10.7,0-14.58-10.58-26.58-10.58-1.06,0-1.88.12-3.06.35l-.24-.35c7.17-5.64,11.88-12,13.17-21.76-1.06-.35-2.35-.59-3.41-.47-1.53,10.47-8.47,17.52-19.52,26.11.35.7,1.18,1.76,1.88,2.23,2.23-1.65,3.18-2,4.7-2M554.37,347.26c0,.82,0,1.53.24,2.35,1.76,0,3.53-.12,5.29-.12l.59,23.76c.35,12.23,2.47,26.7,3.65,40.46.71.12,2.35.12,3.06,0,.59-9.88,2.23-26.46,2.47-39.52l.47-24.93c3.88,0,7.76.12,11.53.24.35-1.29.35-3.88,0-4.7-4,.12-7.88.24-11.88.24-.7-2.47-2.12-5.17-4.12-7.17,2.35-4.82,4.59-9.64,6.7-14.47,5.17.35,11.05.71,16.11.59,1.53-4.59,3.76-9.29,5.88-13.88-.94-.47-1.88-.71-3.06-.94l-1.76,3.41c-5.41.23-10.7-.12-16.11-.35-3.53,8.11-7.53,16.82-12.23,25.87-2.94,5.53-4.47,7.17-6.82,9.17M516.38,372.3v-15.52c0-2.23,0-5.06-.12-7.29,2.35-1.06,4.12-2,7.29-2.94,5.65,7.41,10.82,16.58,10.82,22.11,0,3.06-2,6.94-8.11,12.94-2.94-1.41-5.88-2.59-10-2.94.12-1.29.12-3.06.12-6.35M507.21,384.54c5.64.59,10.82,2.12,16.58,5.88,2.94-4.23,6-6.94,8.94-10.47,5.41-6.59,8.94-12.23,8.94-17.05,0-5.41-3.06-13.17-10.82-22.46-8.35,2.59-15.64,5.64-23.52,8.94.24,2,.35,4.47.35,8.11v18.7c0,4.23-.23,6.7-.47,8.35M469.23,381.71c-.71-.94-1.41-1.65-2.35-2.35l-2.35,2.23c-1.53-.82-2.47-1.29-3.53-1.65v-51.98c0-7.41,2.94-12.58,9.29-14.7,0-.82-.12-1.76-.47-2.47-6.7.59-11.53,4.94-14.58,10.23-1.76-3.06-3.88-5.06-6-6.82-.82.47-1.53,1.18-2.12,2,4.23,5.29,5.06,9.76,5.06,16.82v46.69c-2.7.82-5.06,2.35-7.06,3.88.12.82.47,1.65.82,2.24,7.29-1.53,11.17,1.18,15.41,3.88,2.59-2.94,5.06-5.41,7.88-8M401.14,379.48c0-1.53.12-2.94.12-8v-12c0-2.35-.12-5.06-.24-7.17,1.06-.94,3.41-2.47,4.59-3.18l1.65-1.06c3.76,2.47,6.59,4,9.17,4.7v23.29l-6.47,6c-2.35-1.29-5.76-2.35-8.82-2.59M434.3,381.01c-.82-1.06-1.53-1.76-2.35-2.47l-2.94,2.7c-1.29-.94-2.82-2-3.76-3.41v-25.05c2.82-1.18,5.29-3.18,6.7-4.82-.24-.47-.94-1.53-1.29-1.88-.94.35-2.23.59-3.18.59-4.94,0-10.23-4.23-13.76-7.06-7.06,4.94-14.11,9.41-21.52,13.99.12,2,.23,4.47.23,8.11v13.64c0,4.23-.12,6.94-.23,9.29,6.23,1.06,11.17,3.41,14.58,5.41l9.64-9.17h.47c1.06,2.47,2.7,5.29,8.23,9.17,2.94-3.41,6-6.35,9.17-9.05M366.45,339.61c-1.65,3.53-6.47,6.47-9.64,8.94,3.41,3.53,7.41,7.06,9.64,10.94,1.76,3.06,2.35,5.41,2.35,8.35,0,5.06-3.76,9.64-10.47,14.94-3.88-2.12-9.17-3.65-12.82-3.17l-.12-.24c4.35-4.12,6.23-6,6.23-10.7,0-6.7-4.35-12.94-4.35-19.88,0-3.41,1.06-5.29,4.47-8.58-.35-.71-.94-1.41-1.53-1.88-6.12,3.88-12.47,8.7-12.47,15.29,0,8.94,6.82,14.23,6.82,20.11,0,3.76-3.29,6-6.82,8.7,0,.71.12,1.41.35,2.12,6.59,1.18,12.23,3.18,17.05,6.23,2.23-2.23,4.35-4.47,6.7-6.59,7.76-7.29,14.35-13.17,14.35-21.05,0-3.41-.82-6.94-2.94-10.47-4.35-7.29-5.88-7.64-4.71-12.47-.82-.35-1.29-.47-2.12-.59M315.29,374.66v-18.11c0-5.18,2.59-6.23,5.29-6.82.12-.82.12-1.53,0-2.35-5.29-1.29-8-5.29-9.41-8.12-.71-.12-1.41-.12-2.12,0-2,4.23-4.59,6.7-8.58,9.88.24.82.59,1.41,1.18,2,.94-.35,1.76-.47,2.23-.47,2.12,0,3.17,1.76,3.17,3.88v18.11c0,5.17-2.59,6.23-5.29,6.82-.23.82-.23,1.53,0,2.35,5.29,1.29,7.29,5.29,8.7,8.11.71.12,1.53.12,2.23,0,2-4.23,5.17-6.7,9.17-9.88-.24-.82-.59-1.41-1.18-2-.94.35-1.76.47-2.23.47-2.12,0-3.18-1.76-3.18-3.88M308.82,329.73c1.18.12,2.35.12,3.53,0,2.23-3.06,3.53-6.47,3.53-9.17,0-3.88-1.65-6.35-5.17-6.35-2.82,0-5.17,2-5.17,6.47,0,2.94,1.29,6,3.29,9.05M277.19,339.61c-1.65,3.53-6.47,6.47-9.64,8.94,3.41,3.53,7.41,7.06,9.64,10.94,1.76,3.06,2.35,5.41,2.35,8.35,0,5.06-3.76,9.64-10.47,14.94-3.88-2.12-9.17-3.65-12.82-3.17l-.12-.24c4.35-4.12,6.23-6,6.23-10.7,0-6.7-4.35-12.94-4.35-19.88,0-3.41,1.06-5.29,4.47-8.58-.35-.71-.94-1.41-1.53-1.88-6.12,3.88-12.47,8.7-12.47,15.29,0,8.94,6.82,14.23,6.82,20.11,0,3.76-3.29,6-6.82,8.7,0,.71.12,1.41.35,2.12,6.58,1.18,12.23,3.18,17.05,6.23,2.24-2.23,4.35-4.47,6.7-6.59,7.76-7.29,14.35-13.17,14.35-21.05,0-3.41-.82-6.94-2.94-10.47-4.35-7.29-5.88-7.64-4.7-12.47-.82-.35-1.29-.47-2.12-.59M213.68,358.78c0-2.23,0-4.7-.12-6.94,1.65-1.29,2.12-1.65,3.88-2.82l1.53-1.06,2.82,3.06c1.65,1.88,2,3.29,2,4.59,0,2.12-1.06,3.76-4.94,6.35l-5.17,3.53v-6.7ZM204.63,353.61c.12,2,.24,4.47.24,8.11v13.64c0,4.23-.12,6.94-.24,9.29,6,1.29,11.76,2.94,17.17,6,2.94-3.06,4-4.12,9.64-9.41-.35-.7-1.29-2-2.24-2.47l-4.23,3.88c-2.82-1.53-8.11-2.7-11.41-3.18,0-1.53.12-2.94.12-8v-2l9.52-6.47c6.12-4.12,9.29-8.11,9.29-11.17,0-1.65-1.06-3.64-2.59-5.41l-5.29-6.12c-4.12,2.12-14.46,9.17-19.99,13.29M150.06,341.02c0-5.53-.94-10.94-2.94-15.41l12-7.64c6.23,9.29,11.41,13.99,17.99,15.05l.12.59c-11.88,7.76-20.7,13.99-27.99,19.4l-.35-.12c.82-3.76,1.18-7.64,1.18-11.88M128.89,379.36v-.71c9.88-5.76,15.64-12.47,18.58-20.7,1.88-1.29,3.65-2.59,5.29-3.76,10.23,19.4,17.99,30.46,24.93,37.63,3.29-3.76,10.35-10.58,13.52-13.29-.82-1.06-1.53-1.76-2.35-2.47l-5.53,5.06c-8.23-9.29-14-17.05-22.11-32.93,14.35-10,21.64-14.35,26.11-17.29l-.47-2.71c-4.59-2.12-12.94-5.41-20.35-18.93l-20.82,13.64c-3.64-5.76-9.64-9.53-18.7-9.53-10.11,0-22.23,6.47-22.23,19.4,0,12.23,9.29,16.58,18.7,16.58.12-1.18.12-2.35,0-3.53-7.06-.12-14.7-3.29-14.7-12.94,0-8.11,5.41-15.05,13.52-15.05,12.7,0,18.11,10,18.11,30.22,0,16.35-4,29.05-27.99,30.58-.35.82-.47,1.76-.59,2.59,8.35,3.29,13.64,6.23,21.4,11.41,4.94-4.94,10-9.88,15.17-14.58-.71-.82-1.76-1.88-2.71-2.47-2.59,2.59-4.94,4.94-7.64,7.29-3.53-2.35-5.53-2.94-9.17-3.53M11.88,390.18c8.23,0,16.58-5.64,17.4-15.99,7.88-2,13.64-2.23,23.52-2.23v5.41c0,6.94,1.88,10.7,9.17,14.11,2.59-2.82,5.41-5.29,8.35-7.64l-.35-2.35c-4.23-.59-7.17-1.76-7.17-10.7v-27.4c0-18.35-9.88-33.05-31.28-33.05-13.17,0-27.64,9.76-27.64,24.81,0,4.82,1.53,10.7,5.76,16.11.94-.47,1.88-1.18,2.59-2-3.65-5.41-4.7-10-4.7-14.82,0-9.17,7.53-20.58,22.81-20.58s22.46,17.4,22.46,34.22v20.82c-9.88-.24-15.88.35-23.4,2-.35-8.82-.59-17.05-.94-26.46-.59-14.23,1.41-16.11,6.35-21.29-.47-.82-1.18-1.53-1.88-2.12-5.29,3.76-15.29,9.53-14.46,26.93.35,8.94.59,16.58.94,25.52.35,10.82-3.65,13.41-7.88,13.41-3.18,0-6.35-1.76-9.17-4.82-1.06.71-1.76,1.53-2.35,2.24,2.82,3.76,7.53,5.88,11.88,5.88"/><path d="M1784.72,192.97c-1.77-2.36-3.54-4.43-5.9-5.9l-5.9,5.61c-6.79-3.54-17.7-5.9-24.78-6.2v-69.93l3.54-1.48c6.79-2.65,8.26-2.36,10.62-2.36,7.97,0,11.51,5.9,13.28,15.05,2.07.3,3.84.3,5.9,0,2.07-6.79,11.21-14.16,19.18-17.7.29-2.07.29-3.84,0-5.9-9.44-3.54-12.1-8.26-14.75-18.59-1.77-.29-3.54-.29-5.31,0-6.49,11.51-15.64,15.93-28.92,20.65-6.79-5.02-12.39-14.16-15.64-20.95-2.07-.3-3.83-.3-5.9,0-4.13,10.62-12.1,16.82-22.13,24.78.59,2.07,1.77,3.54,2.95,5.02,2.36-.89,4.43-1.18,5.61-1.18,5.31,0,9.44,4.43,9.44,9.74v66.1c-6.49,2.36-12.69,5.31-16.52,7.97.3,2.07,1.18,4.13,2.07,5.61,18.29-3.83,42.78,2.95,53.41,9.74,6.49-7.38,12.69-13.57,19.77-20.07M1656.96,195.92c5.31,3.54,10.92,12.1,13.57,17.11,1.47.29,3.25.29,4.72,0,5.31-10.62,12.1-16.52,22.13-24.49-.89-2.07-2.07-3.84-3.25-5.31-2.36.89-4.43,1.18-5.61,1.18-5.31,0-7.97-4.43-7.97-9.74v-45.44c0-11.8,5.61-16.82,12.39-18.59.29-1.77.29-3.24,0-5.02-10.92-4.13-15.64-13.57-19.47-20.06-1.48-.29-3.25-.29-4.72,0-5.9,8.56-12.69,15.05-21.54,20.06-.3,1.77-.3,3.25,0,5.02,7.08,2.36,12.69,6.2,12.69,18v49.57c0,5.61-5.02,9.15-10.92,9.44l-22.72.89c-4.13-2.65-6.79-5.31-6.79-11.51v-47.51c0-12.98,6.49-15.64,13.28-18.59.29-1.77.29-3.54,0-5.31-13.28-3.25-20.36-13.28-23.9-20.36-1.48-.3-3.25-.3-4.72,0-5.31,10.62-13.28,17.41-22.13,24.49.89,2.07,1.77,3.84,3.25,5.31,2.36-.89,4.42-1.18,5.61-1.18,5.31,0,7.97,4.43,7.97,9.74v45.44c0,11.8-5.61,16.82-12.39,18.59-.29,1.77-.29,3.25,0,5.02,10.92,4.13,15.64,13.57,19.18,20.07,2.06.3,3.84.3,5.9,0,7.97-12.1,10.03-15.34,19.47-15.64l25.97-1.18ZM1571.1,191.5c-1.77-2.36-3.54-4.43-5.9-5.9l-5.9,5.61c-6.2-3.25-16.23-5.61-23.31-6.2v-70.52h33.05c1.18-3.84,1.77-10.92,0-14.75h-33.93c-.59-10.33.29-15.05,7.08-20.95l21.54-19.47c-1.18-2.36-2.95-4.72-5.31-6.49l-63.73,55.18c-.29,2.07.3,5.31,1.18,6.79h18v73.18c-7.08,2.07-13.87,5.31-18,8.26.29,2.07,1.18,4.13,2.07,5.61,18.29-3.84,42.78,2.95,53.41,9.74,6.49-7.38,12.69-13.57,19.77-20.06M1444.52,124.81c0,4.13-.3,9.74-7.97,15.05l-23.9,16.82v-39.54c6.79-3.84,13.57-7.67,20.36-10.62,6.49,5.61,11.51,10.03,11.51,18.29M1468.42,213.04c6.49-7.38,12.69-13.57,19.77-20.07-1.77-2.36-3.54-4.13-5.9-5.9l-5.9,5.61c-10.03-10.03-18-30.69-24.19-54.59,12.69-8.85,15.34-17.41,15.34-25.97,0-9.44-9.74-16.23-17.41-24.49-13.28,6.2-24.79,13.28-37.47,20.65v-49.57c0-29.51,10.92-36.59,33.05-34.82.89-2.07,1.48-4.13,1.77-6.2-3.83-2.07-10.03-3.24-15.34-3.24-16.52,0-26.85,7.08-33.34,19.18-7.97-7.97-14.75-9.44-20.95-10.92-1.18,2.07-1.77,3.84-2.36,5.9,11.8,7.08,15.05,22.42,15.05,40.13v119.5c-6.49,2.36-11.8,5.9-16.52,9.44.3,1.77,1.18,3.84,2.06,5.61,18.29-3.83,26.56,2.95,37.18,9.74,6.49-7.38,11.8-12.69,18.88-19.18-1.77-2.36-3.54-4.13-5.9-5.9l-5.02,4.72c-3.84-2.06-6.2-3.54-8.56-4.43v-21.83l21.54-15.34c6.49,31.57,15.64,51.05,34.23,61.96M1286.96,186.19c0-3.84.3-7.38.3-20.07v-30.1c0-5.9-.3-12.69-.59-18,2.66-2.36,8.56-6.2,11.51-7.97l4.13-2.65c9.44,6.2,16.52,10.03,23.02,11.8v58.42l-16.23,15.05c-5.9-3.25-14.46-5.9-22.13-6.49M1370.17,190.02c-2.07-2.66-3.84-4.43-5.9-6.2l-7.38,6.79c-3.25-2.36-7.08-5.02-9.44-8.56v-62.85c7.08-2.95,13.28-7.97,16.82-12.1-.59-1.18-2.36-3.84-3.25-4.72-2.36.89-5.61,1.48-7.97,1.48-12.39,0-25.67-10.62-34.52-17.7-17.7,12.39-35.41,23.6-54,35.11.3,5.02.59,11.21.59,20.36v34.23c0,10.62-.3,17.41-.59,23.31,15.64,2.65,28.03,8.56,36.59,13.57l24.2-23.01h1.18c2.65,6.2,6.79,13.28,20.65,23.01,7.38-8.56,15.05-15.93,23.02-22.72M1238.57,192.97c-1.77-2.36-3.54-4.43-5.9-5.9l-5.9,5.61c-6.79-3.54-17.7-5.9-24.79-6.2v-69.93l3.54-1.48c6.79-2.65,8.26-2.36,10.62-2.36,7.97,0,11.51,5.9,13.28,15.05,2.06.3,3.83.3,5.9,0,2.06-6.79,11.21-14.16,19.18-17.7.3-2.07.3-3.84,0-5.9-9.44-3.54-12.1-8.26-14.75-18.59-1.77-.29-3.54-.29-5.31,0-6.49,11.51-15.64,15.93-28.92,20.65-6.79-5.02-12.39-14.16-15.64-20.95-2.07-.3-3.84-.3-5.9,0-4.13,10.62-12.1,16.82-22.13,24.78.59,2.07,1.77,3.54,2.95,5.02,2.36-.89,4.43-1.18,5.61-1.18,5.31,0,9.44,4.43,9.44,9.74v66.1c-6.49,2.36-12.69,5.31-16.52,7.97.3,2.07,1.18,4.13,2.07,5.61,18.29-3.83,42.78,2.95,53.41,9.74,6.49-7.38,12.69-13.57,19.77-20.07M999.87,218.64c0,27.44,21.83,47.51,51.64,47.51,34.52,0,63.73-25.08,63.73-66.39,0-22.72-8.26-42.79-17.11-60.49,20.95-12.98,27.15-7.08,33.64,1.18,2.66-.59,5.31-1.48,7.38-3.25-4.13-11.8-1.77-18.29,8.26-27.15-1.18-2.65-2.36-4.72-4.13-6.79-10.03,5.9-18.29,3.24-23.61-5.02-2.66.89-5.31,2.36-7.38,3.84,2.95,5.9,2.36,12.1,1.47,14.46-2.06,5.9-8.85,10.03-19.47,15.64-9.74-18.29-19.47-33.93-19.47-46.33,0-9.74,1.47-18.59,11.51-31.57,13.87,7.67,28.62,13.87,45.44,13.87,20.66,0,38.65-13.87,38.65-34.52,0-7.67-2.66-14.46-5.02-18.88-2.66.89-5.02,1.77-7.67,3.24,1.48,3.84,3.25,8.26,3.25,14.75,0,13.28-9.44,18-18,18-28.03,0-56.06-41.01-98.26-41.01s-63.14,27.14-63.14,50.75,15.34,34.52,30.69,38.06c1.18-2.07,2.07-4.43,2.66-7.67-15.93-6.2-22.72-16.52-22.72-31.57,0-16.23,12.1-34.23,32.46-34.23,18,0,35.41,13.28,54.88,25.08-14.46,20.66-23.02,37.47-23.02,53.7,0,41.6,37.77,69.34,37.77,107.7,0,30.1-16.23,45.15-41.6,45.15-21.54,0-41.9-14.46-41.9-39.24,0-23.31,17.11-33.64,32.75-35.11.3-2.66,0-5.61-.59-8.26-18,.3-43.08,14.75-43.08,44.55M988.66,150.19c-15.93,4.72-31.87,9.15-47.8,12.69-.89,1.77-.59,10.03,0,11.8,15.93-4.72,31.87-9.15,47.8-12.69.59-1.77.89-10.03,0-11.8M988.66,110.94c-15.93,4.72-31.87,9.15-47.8,12.69-.89,1.77-.59,10.03,0,11.8,15.93-4.72,31.87-9.15,47.8-12.69.59-1.77.89-10.03,0-11.8M912.83,192.97c-1.77-2.36-3.54-4.43-5.9-5.9l-5.9,5.61c-6.79-3.54-17.7-5.9-24.79-6.2v-69.93l3.54-1.48c6.79-2.65,8.26-2.36,10.62-2.36,7.97,0,11.51,5.9,13.28,15.05,2.07.3,3.84.3,5.9,0,2.07-6.79,11.21-14.16,19.18-17.7.29-2.07.29-3.84,0-5.9-9.44-3.54-12.1-8.26-14.75-18.59-1.77-.29-3.54-.29-5.31,0-6.49,11.51-15.64,15.93-28.92,20.65-6.79-5.02-12.39-14.16-15.64-20.95-2.07-.3-3.84-.3-5.9,0-4.13,10.62-12.1,16.82-22.13,24.78.59,2.07,1.77,3.54,2.95,5.02,2.36-.89,4.43-1.18,5.61-1.18,5.31,0,9.44,4.43,9.44,9.74v66.1c-6.49,2.36-12.69,5.31-16.52,7.97.29,2.07,1.18,4.13,2.07,5.61,18.29-3.83,42.78,2.95,53.41,9.74,6.49-7.38,12.69-13.57,19.77-20.07M777.1,134.25c0-5.61,0-11.8-.3-17.41,4.13-3.25,5.31-4.13,9.74-7.08l3.84-2.66,7.08,7.67c4.13,4.72,5.02,8.26,5.02,11.51,0,5.31-2.66,9.44-12.39,15.93l-12.98,8.85v-16.82ZM754.38,121.27c.3,5.02.59,11.21.59,20.36v34.23c0,10.62-.29,17.41-.59,23.31,15.05,3.24,29.51,7.38,43.08,15.05,7.38-7.67,10.03-10.33,24.2-23.6-.89-1.77-3.25-5.02-5.61-6.2l-10.62,9.74c-7.08-3.83-20.36-6.79-28.62-7.97,0-3.84.3-7.38.3-20.07v-5.02l23.9-16.23c15.34-10.33,23.31-20.36,23.31-28.03,0-4.13-2.65-9.15-6.49-13.57l-13.28-15.34c-10.33,5.31-36.29,23.02-50.16,33.34M735.8,191.5c-1.77-2.36-3.54-4.43-5.9-5.9l-5.9,5.61c-6.2-3.25-16.23-5.61-23.31-6.2v-70.52h33.05c1.18-3.84,1.77-10.92,0-14.75h-33.93c-.59-10.33.3-15.05,7.08-20.95l21.54-19.47c-1.18-2.36-2.95-4.72-5.31-6.49l-63.73,55.18c-.29,2.07.29,5.31,1.18,6.79h18v73.18c-7.08,2.07-13.87,5.31-18,8.26.3,2.07,1.18,4.13,2.07,5.61,18.29-3.84,42.78,2.95,53.41,9.74,6.49-7.38,12.69-13.57,19.77-20.06M610.1,148.12c9.74,8.85,18.88,12.69,18.88,24.78,0,7.97-7.38,17.11-20.95,17.11-17.11,0-30.98-4.13-30.98-16.82s11.21-13.57,33.05-25.08M597.71,145.47c-8.85-7.38-17.7-13.57-17.7-23.61,0-6.49,4.43-12.1,29.51-12.1,12.39,0,18.29,7.38,18.29,12.39,0,4.72-1.47,8.85-6.79,11.51l-23.31,11.8ZM636.66,70.52c-2.36,1.47-4.72,2.95-6.49,5.02,2.36,2.95,3.84,4.72,3.84,7.97,0,1.77-.89,4.13-3.84,5.02-2.07.89-6.2.89-10.33.89-17.7,0-27.44,4.13-41.9,20.65-7.67,8.85-14.46,18-14.46,29.21,0,7.08,1.77,12.39,11.8,21.83-3.25,2.95-6.49,6.49-6.49,13.57,0,5.9,2.07,11.51,6.49,15.34l-10.62,18.88c2.07,2.07,4.43,3.24,7.08,4.13l4.72-7.67c9.44,4.72,15.64,5.61,21.24,5.61,15.05,0,25.67-11.51,35.41-24.49,9.44-13.28,12.69-20.65,12.69-29.51,0-9.44-6.2-18-13.87-23.9,2.95-3.24,4.13-8.26,4.13-12.1,0-4.43-2.07-11.21-9.15-13.57,7.97-4.72,15.64-14.16,15.64-23.61,0-6.79-3.54-11.21-5.9-13.28M506.54,195.92c5.31,3.54,10.92,12.1,13.57,17.11,1.48.29,3.24.29,4.72,0,5.31-10.62,12.1-16.52,22.13-24.49-.89-2.07-2.07-3.84-3.25-5.31-2.36.89-4.43,1.18-5.61,1.18-5.31,0-7.97-4.43-7.97-9.74v-45.44c0-11.8,5.61-16.82,12.39-18.59.29-1.77.29-3.24,0-5.02-10.92-4.13-15.64-13.57-19.48-20.06-1.47-.29-3.24-.29-4.72,0-5.9,8.56-12.69,15.05-21.54,20.06-.3,1.77-.3,3.25,0,5.02,7.08,2.36,12.69,6.2,12.69,18v49.57c0,5.61-5.02,9.15-10.92,9.44l-22.72.89c-4.13-2.65-6.79-5.31-6.79-11.51v-47.51c0-12.98,6.49-15.64,13.28-18.59.3-1.77.3-3.54,0-5.31-13.28-3.25-20.36-13.28-23.9-20.36-1.47-.3-3.24-.3-4.72,0-5.31,10.62-13.28,17.41-22.13,24.49.88,2.07,1.77,3.84,3.24,5.31,2.36-.89,4.43-1.18,5.61-1.18,5.31,0,7.97,4.43,7.97,9.74v45.44c0,11.8-5.61,16.82-12.39,18.59-.3,1.77-.3,3.25,0,5.02,10.92,4.13,15.64,13.57,19.18,20.07,2.07.3,3.84.3,5.9,0,7.97-12.1,10.03-15.34,19.47-15.64l25.97-1.18ZM350.75,58.72c0-29.51,10.92-36.59,33.05-34.82.89-2.07,1.48-4.13,1.77-6.2-3.84-2.07-10.03-3.24-15.34-3.24-16.52,0-26.85,7.08-33.34,19.18-7.97-7.97-14.75-9.44-20.95-10.92-1.18,2.07-1.77,3.84-2.36,5.9,11.8,7.08,15.05,22.42,15.05,40.13v119.5c-6.49,2.36-11.8,6.2-16.52,9.44.29,2.07,1.18,4.13,2.07,5.61,18.29-3.83,30.98,2.95,41.6,9.74,6.49-7.38,12.69-13.57,19.77-20.07-1.77-2.36-3.54-4.13-5.9-5.9l-5.9,5.61c-4.72-2.65-8.56-3.84-12.98-5.02v-70.22c6.2-3.54,12.69-6.49,19.18-9.44,11.8,14.16,27.15,37.77,27.15,62.85,0,29.8-20.65,59.6-57.24,100.03,1.48,2.07,4.43,4.43,6.79,5.61,55.77-59.6,71.7-92.65,71.7-125.11,0-20.65-9.15-38.95-26.26-63.73-13.57,6.2-27.74,13.57-41.31,20.95v-49.87ZM240.69,199.17c15.05,3.24,25.08,7.38,38.65,15.05,7.38-7.67,10.03-10.33,24.2-23.6-.89-1.77-3.25-5.02-5.61-6.2l-10.62,9.74c-7.08-3.83-15.93-6.79-24.2-7.97,0-3.84.3-7.38.3-20.07v-31.87c0-5.61,0-11.8-.3-17.41,2.36-1.77,5.31-4.43,13.57-9.74,4.43,3.84,7.38,7.97,11.8,15.93,6.79-3.54,13.57-7.97,19.18-12.69-5.02-10.33-8.56-15.34-17.11-22.13-16.23,9.15-33.34,21.54-49.87,33.05.29,5.02.59,11.21.59,20.36v34.23c0,10.62-.29,17.41-.59,23.31M173.71,196.51c-23.31-12.1-54.88-44.55-84.98-44.55-23.9,0-41.01,15.93-41.01,32.75,0,19.18,17.41,26.85,30.1,26.56.59-2.07.89-4.72.89-7.97-14.46-1.77-21.24-8.85-21.24-18.88,0-11.21,8.56-17.11,18.29-17.11,22.42,0,60.19,38.06,84.09,51.05,7.08-5.31,12.69-9.44,20.95-15.34,26.85-19.18,39.83-32.75,39.83-54.29,0-23.02-19.47-39.54-37.77-54l-32.46,11.21c-10.62,3.54-14.75,3.25-22.42,3.25-16.82,0-36.29-12.39-36.29-40.13,0-17.41,9.44-24.2,22.42-24.2,20.65,0,46.03,18.59,66.98,18.59,17.7,0,41.31-13.57,41.31-37.18C222.4,11.51,213.84,0,196.43,0c-8.85,0-16.52,4.43-21.83,12.1,1.77,2.07,3.84,3.54,6.2,5.02,3.25-3.54,8.26-7.97,15.05-7.97,9.15,0,15.93,6.2,15.93,17.41,0,10.03-7.67,18.29-17.41,18.29-12.69,0-38.65-15.64-59.01-15.64-26.85,0-66.1,22.42-66.1,56.36,0,17.11,13.87,39.24,40.13,39.24,6.79,0,14.46-1.18,23.01-3.83l29.21-9.15c20.95,18.29,38.65,28.33,38.65,49.57,0,16.23-10.33,24.2-26.56,35.11"/></g></g></svg>