<?xml version="1.0" encoding="UTF-8"?><svg id="Layer_2" xmlns="http://www.w3.org/2000/svg" viewBox="0 0 2098.48 657.04"><defs><style>.cls-1{fill:#fff5e7;}.cls-2{fill:#da4443;}</style></defs><g id="Layer_1-2"><rect class="cls-2" width="2098.48" height="657.04"/><path class="cls-1" d="M306.03,272.61c-1.96-2.42-4.38-4.14-7.26-5.17-2.89-1.02-7.03-2.19-12.43-3.49l1.12-7.26c5.21.38,14.52.56,27.93.56,5.59,0,9.49-.09,11.73-.28l15.92-.28.84,7.26c-6.14,1.86-10.33,3.31-12.57,4.33-2.23,1.03-4.01,2.79-5.31,5.31-1.3,2.51-1.95,6.38-1.95,11.59v88.81c0,11.92-2.51,23-7.54,33.24-5.03,10.24-13.08,18.53-24.16,24.86-11.08,6.33-25.18,9.5-42.31,9.5-21.23,0-37.8-5.87-49.71-17.6-11.92-11.73-17.87-28.49-17.87-50.27v-91.61c0-5.77-1.58-9.92-4.75-12.43-3.17-2.51-8.66-4.51-16.48-6l1.12-7.26c11.54.38,22.25.56,32.12.56s20.57-.18,32.12-.56l1.12,7.26c-7.82,1.49-13.31,3.49-16.48,6-3.17,2.51-4.75,6.66-4.75,12.43v83.23c0,20.11,4.42,35.1,13.27,44.97,8.84,9.87,22.2,14.8,40.08,14.8,32.77,0,49.16-17.97,49.16-53.9v-88.81c0-4.09-.98-7.35-2.93-9.77Z"/><path class="cls-1" d="M400.98,426.36c2.51,2.14,7.4,3.87,14.66,5.17l-1.4,7.26c-10.43-.37-19.93-.56-28.49-.56s-18.06.19-28.49.56l-1.4-7.26c7.26-1.3,12.15-3.02,14.66-5.17,2.51-2.14,3.77-5.63,3.77-10.47v-62.28c0-3.16-.42-5.63-1.26-7.4-.84-1.77-2.61-3.49-5.31-5.17-2.7-1.68-7.03-3.44-12.99-5.31v-3.91c9.68-3.35,17.32-6.1,22.9-8.24,5.59-2.14,11.17-4.7,16.76-7.68l2.79,1.95v18.99c14.34-13.96,28.67-20.95,43.01-20.95,11.73,0,21.09,3.26,28.07,9.77,6.98,6.52,10.47,15.55,10.47,27.09v63.12c0,4.84,1.26,8.33,3.77,10.47,2.51,2.14,7.4,3.87,14.66,5.17l-1.4,7.26c-10.43-.37-19.93-.56-28.49-.56s-18.06.19-28.49.56l-1.4-7.26c7.26-1.3,12.15-3.02,14.66-5.17,2.51-2.14,3.77-5.63,3.77-10.47v-53.34c0-10.61-2.33-18.06-6.98-22.34-4.66-4.28-11.27-6.42-19.83-6.42-11.73,0-22.34,3.63-31.84,10.89v71.22c0,4.84,1.26,8.33,3.77,10.47Z"/><path class="cls-1" d="M559.89,426.36c2.51,2.14,7.4,3.87,14.66,5.17l-1.4,7.26c-10.43-.37-19.93-.56-28.49-.56s-18.06.19-28.49.56l-1.4-7.26c7.26-1.3,12.15-3.02,14.66-5.17,2.51-2.14,3.77-5.63,3.77-10.47v-62.28c0-3.16-.42-5.63-1.26-7.4-.84-1.77-2.61-3.49-5.31-5.17-2.7-1.68-7.03-3.44-12.99-5.31v-3.91c9.68-3.35,17.32-6.1,22.9-8.24,5.59-2.14,11.17-4.7,16.76-7.68l2.79,1.95v18.99c14.34-13.96,28.67-20.95,43.01-20.95,11.73,0,21.09,3.26,28.07,9.77,6.98,6.52,10.47,15.55,10.47,27.09v63.12c0,4.84,1.26,8.33,3.77,10.47,2.51,2.14,7.4,3.87,14.66,5.17l-1.4,7.26c-10.43-.37-19.93-.56-28.49-.56s-18.06.19-28.49.56l-1.4-7.26c7.26-1.3,12.15-3.02,14.66-5.17,2.51-2.14,3.77-5.63,3.77-10.47v-53.34c0-10.61-2.33-18.06-6.98-22.34-4.66-4.28-11.27-6.42-19.83-6.42-11.73,0-22.34,3.63-31.84,10.89v71.22c0,4.84,1.26,8.33,3.77,10.47Z"/><path class="cls-1" d="M673.14,411.14c0-8,3.26-14.52,9.78-19.55,6.52-5.03,14.71-8.89,24.58-11.59,9.87-2.7,22.25-5.35,37.15-7.96v-8.1c.18-10.05-2.7-17.78-8.66-23.18-5.96-5.4-13.41-8.1-22.34-8.1-3.73,0-6.98.65-9.78,1.96-2.05.93-3.59,2.56-4.61,4.89-1.03,2.33-2.56,6.94-4.61,13.82-5.96.56-10.71.14-14.24-1.26-3.54-1.4-5.31-3.77-5.31-7.12,0-3.16,2.14-6.93,6.42-11.31,4.28-4.37,10.24-8.19,17.88-11.45,7.63-3.25,16.29-4.89,25.97-4.89,12.66,0,22.67,3.21,30.02,9.64,7.35,6.42,10.94,15.6,10.75,27.51l-.56,48.04c-.19,8.57,1.02,14.62,3.63,18.15,2.6,3.54,7.63,5.31,15.08,5.31l.84,6.7c-13.41,2.98-23.37,5.87-29.88,8.66-3.17-2.42-5.63-4.84-7.4-7.26-1.77-2.42-2.93-5.49-3.49-9.22-5.59,5.4-11.83,9.54-18.71,12.43-6.89,2.89-13.31,4.33-19.27,4.33-9.31,0-17.18-2.93-23.6-8.8-6.42-5.87-9.64-13.08-9.64-21.64ZM743.8,417.56l.84-45.52,7.26-1.12.28,13.41-32.12,4.75c-7.82,1.12-13.64,2.89-17.46,5.31-3.82,2.42-5.73,6.52-5.73,12.29,0,5.03,1.95,9.54,5.87,13.55,3.91,4.01,9.4,6,16.48,6,2.79,0,6.61-.7,11.45-2.09,4.84-1.4,9.22-3.4,13.13-6l2.23-1.68,1.4,5.03-3.07,3.35c-.38-1.3-.56-3.53-.56-6.7v-.56Z"/><path class="cls-1" d="M844.21,426.36c2.51,2.14,7.4,3.87,14.66,5.17l-1.4,7.26c-10.43-.37-19.93-.56-28.49-.56s-18.06.19-28.49.56l-1.4-7.26c7.26-1.3,12.15-3.02,14.66-5.17,2.51-2.14,3.77-5.63,3.77-10.47v-62.28c0-3.16-.42-5.63-1.26-7.4-.84-1.77-2.61-3.49-5.31-5.17-2.7-1.68-7.03-3.44-12.99-5.31v-3.91c9.68-3.35,17.32-6.1,22.9-8.24,5.59-2.14,11.17-4.7,16.76-7.68l2.79,1.95v19.83c6.14-6.89,13.45-12.24,21.92-16.06,8.47-3.81,16.62-5.73,24.44-5.73,8.94,0,16.48,1.91,22.62,5.73,6.14,3.82,10.43,9.36,12.85,16.62,6.52-6.52,14.2-11.87,23.04-16.06,8.84-4.19,17.55-6.28,26.11-6.28,11.73,0,20.85,3.26,27.37,9.77,6.52,6.52,9.78,15.55,9.78,27.09v63.12c0,4.84,1.26,8.33,3.77,10.47,2.51,2.14,7.4,3.96,14.66,5.45l-1.4,7.26c-10.43-.37-19.93-.56-28.49-.56s-18.06.19-28.49.56l-1.4-7.26c7.26-1.49,12.15-3.3,14.66-5.45,2.51-2.14,3.77-5.63,3.77-10.47v-53.34c0-18.8-8.94-28.21-26.81-28.21-13.22,0-24.86,3.73-34.91,11.17.37,2.98.56,5.4.56,7.26v63.12c0,4.84,1.26,8.33,3.77,10.47,2.51,2.14,7.4,3.96,14.66,5.45l-1.4,7.26c-10.43-.37-19.46-.56-27.09-.56l-29.88.56-1.4-7.26c7.26-1.49,12.15-3.3,14.66-5.45,2.51-2.14,3.77-5.63,3.77-10.47v-53.34c0-9.87-2.47-17.04-7.4-21.51-4.94-4.47-11.41-6.7-19.41-6.7-12.85,0-24.3,3.45-34.35,10.33v71.22c0,4.84,1.26,8.33,3.77,10.47Z"/><path class="cls-1" d="M1135.78,326.37c8.28,6.98,12.43,16.62,12.43,28.91,0,7.26-.38,14.43-1.12,21.5l-84.35.56c0,11.36,2.56,20.62,7.68,27.79,5.12,7.17,11.49,12.34,19.13,15.5,7.63,3.17,15.27,4.75,22.9,4.75,5.59,0,11.35-.56,17.32-1.68,5.96-1.12,10.89-2.33,14.8-3.63l2.51,6.98c-4.84,3.54-11.87,6.84-21.09,9.92-9.22,3.07-18.39,4.61-27.51,4.61-10.24,0-19.74-2.1-28.49-6.28-8.75-4.19-15.83-10.57-21.23-19.13-5.4-8.56-8.1-19.27-8.1-32.12s3.03-25.28,9.08-35.61c6.05-10.33,14.01-18.34,23.88-24.02,9.87-5.68,20.29-8.52,31.28-8.52,12.29,0,22.58,3.49,30.86,10.47ZM1124.47,365.05c.37-3.35.56-6.42.56-9.22-.19-8.56-2.7-14.71-7.54-18.43-4.84-3.72-11.27-5.59-19.27-5.59-9.5,0-17.36,2.84-23.6,8.52-6.24,5.68-10.01,14.57-11.31,26.67l61.16-1.96Z"/><path class="cls-1" d="M1170.27,382.93c0-14.34,3.3-26.53,9.91-36.59,6.61-10.05,15.03-17.64,25.28-22.76,10.24-5.12,20.67-7.68,31.28-7.68,8,0,15.82,1.21,23.46,3.63v-41.61c0-4.65-.51-8.24-1.54-10.75-1.03-2.51-2.93-4.7-5.73-6.56-2.79-1.86-7.36-3.91-13.69-6.14v-3.91c18.06-5.21,32.4-10.52,43.01-15.92l2.79,1.96c-1.3,9.5-1.95,23.84-1.95,43.01v122.89c0,7.45,1.44,12.71,4.33,15.78,2.88,3.07,8.33,5.63,16.34,7.68v5.59c-8.94,2.23-20.11,5.49-33.51,9.78-2.42-1.86-4.43-4.51-6-7.96-1.58-3.44-2.65-7.03-3.21-10.75-12.29,12.66-25.97,18.99-41.06,18.99-8.75,0-16.9-2.23-24.44-6.7-7.54-4.47-13.64-11.12-18.29-19.97-4.66-8.84-6.98-19.5-6.98-31.98ZM1192.06,376.23c0,14.71,4,26.35,12.01,34.91,8,8.57,18.15,12.85,30.44,12.85,9.31,0,17.88-3.35,25.69-10.06v-77.92c-9.12-3.91-18.62-5.87-28.49-5.87-12.48,0-22.2,4.1-29.19,12.29-6.98,8.19-10.47,19.46-10.47,33.79ZM1274.73,326.23l-8.1,12.85-6.42-3.07v-16.48c2.79.93,7.63,3.17,14.52,6.7ZM1260.21,415.88v-1.96c3.91-3.35,7.35-7.17,10.33-11.45l2.24,5.03c-3.91,5.96-7.82,10.99-11.73,15.08-.56-2.61-.84-4.84-.84-6.7Z"/><path class="cls-1" d="M1421.07,441.86c-9.68,0-18.76-.93-27.23-2.79-8.48-1.86-17.92-5.03-28.35-9.5,2.05-9.87,3.91-23.18,5.59-39.94h6.42c2.6,12.66,8.14,22.16,16.62,28.49,8.47,6.33,18.94,9.5,31.42,9.5,11.73,0,20.25-2.79,25.56-8.38,5.31-5.59,7.96-12.66,7.96-21.23s-1.96-15.17-5.87-20.39c-3.91-5.21-11.64-10.43-23.18-15.64l-20.39-9.5c-12.48-5.77-21.6-11.82-27.37-18.15-5.77-6.33-8.66-14.71-8.66-25.14,0-10.98,2.79-20.62,8.38-28.91,5.59-8.28,13.13-14.66,22.62-19.13,9.5-4.47,19.92-6.7,31.28-6.7,15.45,0,29.79,3.35,43.01,10.06-2.05,10.61-3.73,24.21-5.03,40.78h-6.98c-2.23-13.41-6.89-22.76-13.96-28.07-7.08-5.31-15.74-7.96-25.97-7.96-10.99,0-19.32,2.65-25,7.96-5.68,5.31-8.52,12.25-8.52,20.81,0,5.96,1.26,10.8,3.77,14.52,2.51,3.73,5.21,6.42,8.1,8.1,2.88,1.68,8.8,4.75,17.74,9.22l26.53,13.13c11.73,5.77,20.06,11.69,25,17.74,4.93,6.05,7.4,13.73,7.4,23.04,0,12.85-3.12,23.65-9.36,32.4-6.24,8.75-14.06,15.22-23.46,19.41-9.4,4.19-18.76,6.28-28.07,6.28Z"/><path class="cls-1" d="M1602.19,326.37c8.28,6.98,12.43,16.62,12.43,28.91,0,7.26-.38,14.43-1.12,21.5l-84.35.56c0,11.36,2.56,20.62,7.68,27.79,5.12,7.17,11.49,12.34,19.13,15.5,7.63,3.17,15.27,4.75,22.9,4.75,5.59,0,11.35-.56,17.32-1.68,5.96-1.12,10.89-2.33,14.8-3.63l2.51,6.98c-4.84,3.54-11.87,6.84-21.09,9.92-9.22,3.07-18.39,4.61-27.51,4.61-10.24,0-19.74-2.1-28.49-6.28-8.75-4.19-15.83-10.57-21.23-19.13-5.4-8.56-8.1-19.27-8.1-32.12s3.03-25.28,9.08-35.61c6.05-10.33,14.01-18.34,23.88-24.02,9.87-5.68,20.29-8.52,31.28-8.52,12.29,0,22.58,3.49,30.86,10.47ZM1590.88,365.05c.37-3.35.56-6.42.56-9.22-.19-8.56-2.7-14.71-7.54-18.43-4.84-3.72-11.27-5.59-19.27-5.59-9.5,0-17.36,2.84-23.6,8.52-6.24,5.68-10.01,14.57-11.31,26.67l61.16-1.96Z"/><path class="cls-1" d="M1681.37,425.52c3.16,2.33,8.94,4.33,17.32,6l-1.12,7.26c-9.31-.37-19.83-.56-31.56-.56-9.12,0-18.9.19-29.32.56l-1.4-7.26c7.26-1.3,12.15-3.02,14.66-5.17,2.51-2.14,3.77-5.63,3.77-10.47v-62.28c0-3.16-.42-5.63-1.26-7.4-.84-1.77-2.61-3.49-5.31-5.17-2.7-1.68-7.03-3.44-12.99-5.31v-3.91c9.68-3.35,17.32-6.1,22.9-8.24,5.59-2.14,11.17-4.7,16.76-7.68l2.79,1.95v20.39c7.26-7.07,13.45-12.29,18.57-15.64,5.12-3.35,9.92-5.03,14.38-5.03,3.91,0,7.21,1.07,9.91,3.21,2.7,2.14,4.05,5.35,4.05,9.64,0,3.73-1.49,8.01-4.47,12.85-7.45-2.23-13.78-3.35-18.99-3.35-3.17,0-6.89.47-11.17,1.4-4.29.93-8.38,2.61-12.29,5.03v67.31c0,5.59,1.58,9.54,4.75,11.87Z"/><path class="cls-1" d="M1780.94,426.36c2.51,2.14,7.4,3.87,14.66,5.17l-1.4,7.26c-10.43-.37-19.93-.56-28.49-.56s-18.06.19-28.49.56l-1.4-7.26c7.26-1.3,12.15-3.02,14.66-5.17,2.51-2.14,3.77-5.63,3.77-10.47v-62.28c0-3.91-.33-6.75-.98-8.52-.65-1.77-2.14-3.26-4.47-4.47-2.33-1.21-6.56-2.84-12.71-4.89v-3.91l8.1-3.07c15.26-5.77,25.97-10.06,32.12-12.85l2.79,1.95c-1.31,9.5-1.96,23.84-1.96,43.01v55.02c0,4.84,1.26,8.33,3.77,10.47ZM1752.87,277.22c2.98,3.07,6.61,4.61,10.89,4.61,5.21,0,9.22-1.58,12.01-4.75,2.79-3.16,4.19-7.17,4.19-12.01,0-4.47-1.49-8.24-4.47-11.31-2.98-3.07-6.61-4.61-10.89-4.61s-8.29,1.54-11.45,4.61c-3.17,3.07-4.75,7.22-4.75,12.43,0,4.29,1.49,7.96,4.47,11.03Z"/><path class="cls-1" d="M1857.32,276.8v56.14l-5.03.84-12.85-.28-5.03-.84v-13.96h55.86v10.89c-16.02,1.3-27,2.42-32.96,3.35v80.72c0,5.77,1.72,9.77,5.17,12.01,3.44,2.23,10.01,4.19,19.69,5.87l-1.12,7.26c-13.03-.37-24.49-.56-34.35-.56-9.12,0-18.9.19-29.33.56l-1.4-7.26c7.26-1.3,12.15-3.02,14.66-5.17,2.51-2.14,3.77-5.63,3.77-10.47v-83.23l-8.38-1.68-15.64-2.79v-9.5h24.02v-15.64c0-13.41,2.28-25.65,6.84-36.73,4.56-11.08,11.22-19.87,19.97-26.39,8.75-6.52,19.27-9.78,31.56-9.78,8,0,12.01,3.07,12.01,9.22,0,4.66-1.95,9.31-5.87,13.96-10.24-3.53-17.87-5.31-22.9-5.31-6.14,0-10.8,2.23-13.96,6.7-3.17,4.47-4.75,11.83-4.75,22.06Z"/></g></svg>