<?xml version="1.0" encoding="UTF-8"?><svg id="Layer_2" xmlns="http://www.w3.org/2000/svg" viewBox="0 0 27.11 11.17"><defs><style>.cls-1{fill:none;}.cls-2{fill:#3c50ff;}</style></defs><g id="Layer_1-2"><rect class="cls-1" width="27.11" height="11.17"/><path class="cls-2" d="M1.76,7.49c-.14-.22-.27-.5-.38-.83-.23-.69-.43-1.45-.59-2.27s-.25-1.54-.26-2.14v-.37c-.01-.35.02-.67.08-.96-.22.04-.37.22-.47.53-.1.31-.14.67-.14,1.07,0,1.04.31,2.58.92,4.61.13.42.25.71.38.89.12.18.29.27.49.27.09,0,.17-.02.25-.06.08-.04.14-.08.18-.13s.07-.07.08-.09c-.21-.12-.38-.29-.53-.51Z"/><path class="cls-2" d="M5.24,6.71c-.05.66-.36.98-.92.98-.23,0-.45-.09-.65-.27-.2-.18-.37-.4-.5-.67-.13-.27-.2-.53-.23-.79.16.2.4.3.73.3.41,0,.71-.11.92-.34s.31-.51.31-.83c0-.47-.14-.86-.42-1.16-.28-.3-.62-.45-1.01-.45-.26,0-.49.06-.7.17-.21.11-.37.25-.49.41s-.18.33-.18.49.06.27.18.35c.08-.27.2-.49.37-.65.16-.16.36-.25.58-.25s.43.07.61.2c.18.13.32.3.43.5.1.2.16.4.16.59,0,.22-.07.4-.21.54-.14.14-.33.2-.56.2-.25,0-.44-.08-.58-.23-.14-.15-.23-.42-.27-.79-.1,0-.2.09-.29.23-.09.15-.13.34-.12.57.02.5.11.93.28,1.29.17.36.39.64.66.83.27.19.57.28.89.28.26,0,.48-.06.67-.17.19-.12.33-.26.43-.44.1-.18.15-.35.15-.53,0-.22-.07-.34-.22-.36Z"/><path class="cls-2" d="M7.37,7.59c-.1-.09-.17-.19-.22-.31-.05-.12-.11-.33-.19-.62l-.77-2.54s0-.03-.01-.04c.07,0,.16,0,.26,0,.22,0,.5.02.85.05,0-.03.01-.08.01-.14,0-.12-.04-.2-.11-.23-.08-.03-.22-.05-.43-.05-.29,0-.5,0-.68.01-.03-.11-.07-.25-.09-.35-.05-.22-.07-.42-.07-.62s.03-.36.08-.49h-.1c-.16-.01-.27.07-.34.23-.07.16-.1.38-.1.64,0,.22.02.41.06.6-.21-.01-.41-.02-.61-.02.04.14.1.25.17.32.07.07.19.09.35.08l.17-.02.92,3.05c.12.42.24.72.36.9.12.18.3.26.55.26.16,0,.29-.05.39-.14.1-.09.17-.18.2-.26.04-.08.06-.15.08-.21-.11.04-.22.06-.34.06-.16,0-.3-.05-.41-.14Z"/><path class="cls-2" d="M9.89,7.59c-.1-.09-.17-.19-.22-.31-.05-.12-.11-.33-.19-.62l-.77-2.54s0-.03-.01-.04c.07,0,.16,0,.26,0,.22,0,.5.02.85.05,0-.03.01-.08.01-.14,0-.12-.04-.2-.11-.23-.08-.03-.22-.05-.43-.05-.29,0-.5,0-.68.01-.03-.11-.07-.25-.09-.35-.05-.22-.07-.42-.07-.62s.03-.36.08-.49h-.1c-.16-.01-.27.07-.34.23-.07.16-.1.38-.1.64,0,.22.02.41.06.6-.21-.01-.41-.02-.61-.02.04.14.1.25.17.32.07.07.19.09.35.08l.17-.02.92,3.05c.12.42.24.72.36.9.12.18.3.26.55.26.16,0,.29-.05.39-.14.1-.09.17-.18.2-.26.04-.08.06-.15.08-.21-.11.04-.22.06-.34.06-.16,0-.3-.05-.41-.14Z"/><path class="cls-2" d="M13.69,6.71c-.05.66-.36.98-.92.98-.23,0-.45-.09-.65-.27-.2-.18-.37-.4-.5-.67-.13-.27-.2-.53-.23-.79.16.2.4.3.73.3.41,0,.71-.11.92-.34s.31-.51.31-.83c0-.47-.14-.86-.42-1.16-.28-.3-.62-.45-1.01-.45-.26,0-.49.06-.7.17-.21.11-.37.25-.49.41s-.18.33-.18.49.06.27.18.35c.08-.27.2-.49.37-.65.16-.16.36-.25.58-.25s.43.07.61.2c.18.13.32.3.43.5.1.2.16.4.16.59,0,.22-.07.4-.21.54-.14.14-.33.2-.56.2-.25,0-.44-.08-.58-.23-.14-.15-.23-.42-.27-.79-.1,0-.2.09-.29.23-.09.15-.13.34-.12.57.02.5.11.93.28,1.29.17.36.39.64.66.83.27.19.57.28.89.28.26,0,.48-.06.67-.17.19-.12.33-.26.43-.44.1-.18.15-.35.15-.53,0-.22-.07-.34-.22-.36Z"/><path class="cls-2" d="M16.03,3.81c0-.12-.05-.21-.11-.27-.07-.06-.16-.09-.27-.09-.23,0-.42.15-.56.44-.14.3-.21.71-.2,1.24-.1-.49-.21-.85-.33-1.1-.12-.24-.22-.4-.32-.46s-.21-.1-.32-.1c-.24,0-.39.13-.46.4.18.06.31.13.41.23s.19.26.28.48c.09.22.2.57.35,1.05.17.58.29,1.05.37,1.42.08.37.13.8.16,1.28.17,0,.3-.03.4-.08.1-.05.14-.19.14-.41,0-.14-.03-.33-.08-.58-.06-.25-.11-.49-.17-.7l-.07-.26c-.1-.43-.16-.78-.16-1.04,0-.47.14-.84.43-1.09.13-.11.3-.23.52-.35Z"/><path class="cls-2" d="M16.76,2.45c.06-.09.09-.21.09-.34,0-.16-.05-.32-.14-.47-.09-.16-.21-.23-.35-.23-.1,0-.18.04-.26.13s-.11.21-.11.39.05.33.16.47c.1.14.22.2.34.2.13,0,.22-.05.28-.14Z"/><path class="cls-2" d="M18.18,7.51c-.13-.25-.22-.53-.28-.83l-.31-1.56c-.1-.64-.21-1.08-.33-1.33-.12-.24-.28-.37-.49-.37-.18,0-.32.08-.42.25.21.14.35.31.44.5s.18.55.28,1.07l.38,1.86c.09.45.18.76.26.94.09.18.23.26.43.26.09,0,.17-.02.24-.05.07-.03.13-.07.17-.11.04-.04.07-.06.08-.07-.18-.13-.34-.32-.47-.57Z"/><path class="cls-2" d="M22.55,7.43c-.16-.23-.27-.49-.34-.78l-.52-2c-.11-.45-.25-.76-.41-.92-.16-.17-.35-.25-.55-.25-.33,0-.6.14-.82.43-.22.28-.35.63-.4,1.05-.13-.55-.26-.94-.39-1.15s-.3-.32-.5-.32-.34.09-.42.28c.22.14.37.3.47.48.1.18.21.53.35,1.04l.44,1.64c.18.63.26,1.1.26,1.42.13,0,.24-.05.34-.14.1-.09.14-.25.14-.46,0-.17-.03-.37-.08-.6-.05-.23-.11-.46-.17-.68l-.14-.52c-.06-.24-.1-.5-.1-.77,0-.32.06-.59.17-.8.11-.21.28-.32.52-.32.36,0,.63.36.82,1.07l.53,1.99c.11.42.22.72.32.9s.25.26.44.26c.09,0,.17-.02.26-.07.08-.05.15-.1.21-.16l.11-.11c-.21-.1-.39-.27-.55-.5Z"/><path class="cls-2" d="M26.91,8.28c-.13-.19-.3-.34-.5-.46-.06-.04-.14-.07-.23-.1-.09-.03-.17-.04-.25-.04-.17,0-.27.06-.31.18.32.1.56.24.73.44s.25.43.25.71c0,.22-.09.41-.26.56-.18.15-.4.23-.68.23-.36,0-.65-.1-.88-.29-.23-.19-.34-.45-.34-.77,0-.21.05-.39.14-.55.1-.16.24-.36.44-.59.29-.34.51-.66.67-.98.16-.32.24-.72.24-1.22,0-.36-.06-.71-.19-1.06-.13-.35-.31-.64-.56-.87-.24-.23-.53-.36-.85-.38-.14,0-.24.02-.31.07.48.28.81.62,1,1.02s.28.85.28,1.34c0,.3-.07.52-.2.67-.14.15-.31.22-.53.22-.3,0-.55-.16-.75-.47-.2-.31-.29-.66-.29-1.06,0-.3.06-.54.17-.71.12-.17.3-.3.55-.4-.07-.06-.16-.08-.28-.08-.33,0-.59.13-.78.38-.19.25-.29.56-.29.93s.07.69.21.95c.14.26.31.45.52.57s.42.19.62.21c.59.04.96-.2,1.13-.68,0,0,0,0,0,0,0,.24-.06.46-.19.65s-.33.43-.6.72c-.28.3-.49.55-.63.77-.14.22-.21.46-.21.72,0,.38.15.7.46.94.3.24.7.38,1.18.41.3.02.58-.03.84-.14.26-.11.48-.28.64-.49.16-.22.24-.46.24-.72,0-.22-.07-.43-.2-.62Z"/></g></svg>