<?xml version="1.0" encoding="UTF-8"?><svg id="Layer_2" xmlns="http://www.w3.org/2000/svg" viewBox="0 0 31.29 11.17"><defs><style>.cls-1{fill:none;}.cls-2{fill:#3c50ff;}</style></defs><g id="Layer_1-2"><rect class="cls-1" x=".05" width="31.24" height="11.17"/><path class="cls-2" d="M1.42,8.32c-.15-.3-.28-.69-.38-1.16-.1-.47-.23-1.14-.37-2.01-.1-.68-.21-1.28-.31-1.79-.1-.51-.22-.98-.35-1.4.24-.19.44-.34.61-.44s.45-.27.87-.5c.1,1.62.26,2.99.46,4.11.2,1.12.47,1.95.82,2.49-.26.18-.44.29-.56.35-.12.06-.37.17-.77.34Z"/><path class="cls-2" d="M2.63,4.24c.03-.22.08-.45.16-.7.16-.02.27-.02.34-.02.43-.04.77-.08,1.02-.11.25-.04.56-.11.95-.21.11.08.24.21.4.4.15.18.29.41.4.67.12.26.18.54.19.84,0,.17,0,.32-.04.47-.03.14-.13.29-.31.44-.17.15-.44.25-.81.32-.1.02-.18.02-.24.02-.21,0-.41-.04-.6-.13-.19-.08-.33-.21-.42-.37l.41.32c.1.3.17.51.22.64.05.13.12.24.22.32.09.08.21.11.37.09.22-.04.48-.15.77-.34.29-.18.56-.39.8-.62,0,.55-.08,1.1-.25,1.66-.36.16-.71.27-1.04.32-.14.03-.3.05-.46.05-.31,0-.61-.08-.89-.24-.28-.16-.51-.45-.68-.86-.2-.57-.31-1.04-.34-1.43.14-.23.26-.42.38-.57.12-.15.27-.33.45-.56.13.44.21.7.24.79.03.09.1.21.2.36.1.15.24.23.4.23.24,0,.36-.15.36-.44,0-.21-.07-.46-.2-.76-.12-.3-.27-.52-.44-.65-.22.05-.47.14-.76.28-.29.14-.57.33-.82.57,0-.3,0-.55.04-.77Z"/><path class="cls-2" d="M7.39,7.04c-.14-.48-.26-1.07-.37-1.76-.06-.42-.12-.72-.17-.92h-.47s.32-.52.32-.52l-.19-.9c.23-.3.41-.52.55-.66s.29-.27.47-.38l.05.29c.06.38.11.66.15.83s.08.31.13.42h1.2c-.06.07-.12.15-.18.22-.06.08-.12.15-.18.21-.18.22-.31.38-.38.48h-.25l.12.52c.22.91.35,1.44.4,1.6.05.18.11.32.18.43.07.11.19.16.35.16.14,0,.32-.08.53-.23-.13.46-.22.93-.28,1.42-.18.1-.38.16-.58.16-.24,0-.5-.1-.77-.29-.28-.19-.48-.54-.62-1.06Z"/><path class="cls-2" d="M10.26,7.04c-.14-.48-.26-1.07-.37-1.76-.06-.42-.12-.72-.17-.92h-.47s.32-.52.32-.52l-.19-.9c.23-.3.41-.52.55-.66s.29-.27.47-.38l.05.29c.06.38.11.66.15.83s.08.31.13.42h1.2c-.06.07-.12.15-.18.22-.06.08-.12.15-.18.21-.18.22-.31.38-.38.48h-.25l.12.52c.22.91.35,1.44.4,1.6.05.18.11.32.18.43.07.11.19.16.35.16.14,0,.32-.08.53-.23-.13.46-.22.93-.28,1.42-.18.1-.38.16-.58.16-.24,0-.5-.1-.77-.29-.28-.19-.48-.54-.62-1.06Z"/><path class="cls-2" d="M12.34,4.24c.03-.22.08-.45.16-.7.16-.02.27-.02.34-.02.43-.04.77-.08,1.02-.11.25-.04.56-.11.95-.21.11.08.24.21.4.4.15.18.29.41.4.67.12.26.18.54.19.84,0,.17,0,.32-.04.47-.03.14-.13.29-.31.44-.17.15-.44.25-.81.32-.1.02-.18.02-.24.02-.21,0-.41-.04-.6-.13-.19-.08-.33-.21-.42-.37l.41.32c.1.3.17.51.22.64.05.13.12.24.22.32.09.08.21.11.37.09.22-.04.48-.15.77-.34.29-.18.56-.39.8-.62,0,.55-.08,1.1-.25,1.66-.36.16-.71.27-1.04.32-.14.03-.3.05-.46.05-.31,0-.61-.08-.89-.24-.28-.16-.51-.45-.68-.86-.2-.57-.31-1.04-.34-1.43.14-.23.26-.42.38-.57.12-.15.27-.33.45-.56.13.44.21.7.24.79.03.09.1.21.2.36.1.15.24.23.4.23.24,0,.36-.15.36-.44,0-.21-.07-.46-.2-.76-.12-.3-.27-.52-.44-.65-.22.05-.47.14-.76.28-.29.14-.57.33-.82.57,0-.3,0-.55.04-.77Z"/><path class="cls-2" d="M19.08,3.39c.06.45.08.88.08,1.3,0,.16,0,.26-.01.31-.16-.08-.34-.12-.53-.12-.34,0-.5.2-.5.59,0,.11.02.27.06.47.06.29.13.57.22.86.09.28.24.65.44,1.1-.2.06-.46.13-.79.21-.32.08-.55.12-.69.13-.25-1.24-.44-2.11-.59-2.6-.14-.49-.36-.97-.64-1.42.18-.16.37-.32.55-.47.18-.16.39-.32.62-.49.11.11.19.24.25.38.05.14.12.37.2.68l.22.8-.07.13c-.02-.66.04-1.14.17-1.46s.35-.48.65-.48c.14,0,.26.03.36.1Z"/><path class="cls-2" d="M18.85,2.24c.31-.5.6-.93.88-1.31.46.25.88.5,1.25.74-.14.26-.36.59-.66,1l-.2.29c-.3-.14-.72-.38-1.26-.72ZM21.94,7.63c-.15-.24-.27-.53-.35-.86-.08-.33-.18-.83-.29-1.48-.02-.08-.03-.16-.05-.24-.04-.23-.13-.67-.26-1.31l-.12-.61c-.47.22-.97.55-1.49.98.25.43.42.82.51,1.16.09.34.17.76.25,1.25.1.56.17.97.23,1.24s.12.45.19.56l.31-.13c.28-.12.48-.21.59-.26.12-.06.28-.16.49-.3ZM21.94,7.63c-.15-.24-.27-.53-.35-.86-.08-.33-.18-.83-.29-1.48-.02-.08-.03-.16-.05-.24-.04-.23-.13-.67-.26-1.31l-.12-.61c-.47.22-.97.55-1.49.98.25.43.42.82.51,1.16.09.34.17.76.25,1.25.1.56.17.97.23,1.24s.12.45.19.56l.31-.13c.28-.12.48-.21.59-.26.12-.06.28-.16.49-.3Z"/><path class="cls-2" d="M23.26,3.88c.1.23.23.64.4,1.22l-.1.04c.02-.57.24-1.04.65-1.4.41-.37.91-.56,1.5-.59.02.39.06.77.12,1.13.06.36.13.66.19.88.18.66.32,1.13.44,1.42.12.29.29.58.5.86-.22.16-.44.31-.66.44-.22.14-.45.28-.71.42-.18-.3-.34-.7-.47-1.19-.17-.64-.34-1.4-.53-2.29l-.13-.62c-.47.19-.71.61-.71,1.26,0,.33.05.69.15,1.07.1.39.24.83.41,1.31-.58.23-1.05.4-1.43.5-.17-.98-.31-1.74-.43-2.27-.12-.53-.24-.93-.35-1.21-.11-.27-.25-.51-.41-.71.26-.3.64-.63,1.13-1.01.18.25.32.49.42.72Z"/><path class="cls-2" d="M28.15,2.86c.11-.02.29-.02.54-.02.43,0,.78.04,1.06.11.23.44.43.9.61,1.37s.28.93.32,1.35c.04.3-.02.51-.19.64-.16.13-.39.2-.69.2-.13,0-.34-.02-.62-.07.04,0-.02,0-.19-.01s-.3-.05-.41-.11c-.1-.06-.23-.18-.37-.35l.88.38c.08.06.27.2.56.41.5.34.88.65,1.16.93.28.28.44.63.49,1.03.04.29-.04.55-.23.8-.2.24-.46.44-.79.59s-.66.23-.98.26c-.14,0-.34-.01-.6-.07-.26-.05-.51-.15-.76-.3-.25-.15-.44-.35-.56-.61.14-.25.26-.5.35-.76.09-.26.19-.58.28-.97l1.21,2.18c.23-.02.42-.12.56-.29s.21-.34.19-.52c-.02-.26-.14-.48-.34-.68-.2-.2-.52-.44-.94-.73-.36-.24-.65-.45-.87-.64s-.41-.41-.58-.67-.26-.55-.28-.88c-.02-.39.1-.74.38-1.06s.66-.56,1.15-.74c-.06.07-.12.16-.19.26s-.12.21-.17.34-.07.28-.07.46c0,.09,0,.16.01.2.02.23.09.46.21.67.12.22.25.39.4.53.15.14.28.2.38.2s.17-.04.2-.11c.03-.07.04-.16.04-.28,0-.1-.04-.3-.12-.61s-.21-.68-.38-1.12c-.17-.43-.39-.87-.65-1.31Z"/></g></svg>