<?xml version="1.0" encoding="UTF-8"?><svg id="Layer_2" xmlns="http://www.w3.org/2000/svg" viewBox="0 0 40.57 11.17"><defs><style>.cls-1{fill:none;}.cls-2{fill:#3c50ff;}</style></defs><g id="Layer_1-2"><rect class="cls-1" width="40.57" height="11.17"/><path class="cls-2" d="M2.38,6.95c-.07-.11-.13-.25-.18-.43-.05-.15-.18-.68-.4-1.6l-.12-.52h.25c.07-.1.2-.26.38-.48.06-.06.12-.13.18-.21.06-.08.12-.15.18-.23h-1.2c-.05-.1-.09-.24-.13-.41s-.09-.44-.15-.83l-.05-.29c-.18.11-.34.24-.47.38s-.31.36-.55.66l.19.9-.32.5h.47c.05.21.1.52.17.94.11.7.24,1.28.37,1.76.14.51.34.86.62,1.06.28.19.53.29.77.29.2,0,.39-.05.58-.16.06-.49.15-.96.28-1.42-.21.15-.38.23-.53.23-.16,0-.28-.05-.35-.16Z"/><path class="cls-2" d="M6.56,7.84c-.16-.15-.31-.32-.46-.49.56-.81.85-1.57.85-2.28,0-.42-.06-.79-.19-1.12-.13-.33-.26-.56-.41-.69l-1.33.58c.27.41.49.86.65,1.36s.25.96.25,1.39c0,.18-.02.34-.04.49-.11-.14-.22-.28-.32-.42-.29-.44-.55-.89-.77-1.37s-.53-1.15-.89-2.02c-.34.27-.57.48-.71.61-.14.14-.29.31-.46.53.34.72.65,1.3.91,1.75.26.44.55.85.87,1.23.19.22.42.45.66.68-.03.03-.06.07-.09.1-.18.18-.41.38-.68.62-.34.3-.56.51-.66.64.09.26.25.46.48.61.23.15.48.26.75.32s.5.09.69.08c.6-.02,1.08-.13,1.44-.34.36-.21.54-.48.54-.83,0-.18-.09-.37-.26-.58-.17-.21-.44-.49-.81-.84ZM6.1,9.73c-.16.12-.38.18-.65.19-.22-.14-.32-.33-.32-.56,0-.12.02-.25.05-.4.04-.14.09-.33.17-.56.02-.05.03-.08.04-.13.11.1.2.19.32.29.1.08.2.16.3.25.1.09.19.18.25.27.06.09.09.19.09.29,0,.13-.08.25-.25.37Z"/><path class="cls-2" d="M9.91,3.2c-.34.09-.64.15-.91.19-.27.04-.59.07-.95.09l-.56.04c-.08.26-.13.48-.16.66-.03.18-.04.41-.03.7l.34-.2c.46-.29.84-.5,1.14-.64.3.08.56.24.79.49s.4.53.52.83c.12.31.18.59.18.85,0,.27-.03.5-.1.69s-.19.34-.38.46c-.18-.16-.34-.32-.46-.47-.12-.16-.24-.44-.36-.85-.12-.41-.2-.97-.25-1.69-.49.44-.94.81-1.36,1.12.2.83.39,1.72.58,2.66.17.88.33,1.61.48,2.2.32-.08.56-.15.73-.22s.37-.18.61-.34c-.23-.62-.41-1.13-.52-1.54-.1-.34-.18-.76-.25-1.22.07.16.15.31.24.43.2.28.49.56.85.83.48-.11.84-.35,1.09-.71s.37-.76.37-1.21c0-.82-.18-1.49-.55-2.01-.36-.52-.71-.89-1.05-1.12Z"/><path class="cls-2" d="M13.9,7.31c-.15.02-.27,0-.37-.09-.09-.08-.16-.19-.22-.32-.05-.12-.12-.33-.21-.6.19.08.39.13.6.13.06,0,.14,0,.24-.02.37-.06.64-.17.81-.32.17-.15.27-.29.31-.44.03-.14.04-.3.04-.47,0-.3-.07-.58-.19-.84-.12-.26-.25-.49-.4-.67-.15-.18-.28-.32-.4-.4-.38.1-.7.17-.95.21-.25.04-.59.07-1.02.11-.06,0-.18,0-.34.02-.07.25-.12.48-.16.7-.03.22-.04.48-.04.77.26-.24.53-.43.82-.57.29-.14.55-.23.76-.28.17.14.31.35.44.65.12.3.19.55.2.76,0,.3-.12.44-.36.44-.16,0-.29-.08-.4-.23-.1-.15-.17-.27-.2-.36-.03-.09-.11-.35-.24-.79-.18.22-.33.41-.45.56-.12.15-.24.34-.38.57.02.38.14.86.34,1.43.17.42.39.7.68.86.28.16.58.24.89.24.16,0,.31-.02.46-.05.34-.06.68-.16,1.04-.32.18-.55.26-1.1.25-1.66-.24.23-.51.44-.8.62-.29.18-.55.3-.77.34Z"/><path class="cls-2" d="M19.53,7.39c-.34-.15-.61-.4-.8-.75-.11-.22-.2-.52-.26-.89-.06-.37-.1-.74-.1-1.1,0-.23.01-.44.04-.61.2.02.38.09.53.2.15.11.3.31.44.59.14.3.36,1.15.66,2.57.29-.14.69-.36,1.2-.65-.33-.93-.6-1.98-.82-3.16s-.3-2-.25-2.48c-.23.18-.43.33-.59.43-.16.1-.44.27-.85.5.08.36.2.84.36,1.43l.1.31c-.18-.07-.41-.11-.7-.11-.47,0-.94.09-1.39.28-.09.33-.13.7-.13,1.12,0,.38.04.75.12,1.13.08.38.2.73.37,1.05.2.38.46.67.79.86.32.19.69.29,1.09.29.34,0,.68-.07,1.02-.2.37-.14.72-.37,1.07-.67-.25.06-.5.08-.77.08-.41,0-.78-.07-1.12-.22Z"/><path class="cls-2" d="M23.63,7.31c-.15.02-.27,0-.37-.09-.09-.08-.16-.19-.22-.32-.05-.12-.12-.33-.21-.6.19.08.39.13.6.13.06,0,.14,0,.24-.02.37-.06.64-.17.81-.32.17-.15.27-.29.31-.44.03-.14.04-.3.04-.47,0-.3-.07-.58-.19-.84-.12-.26-.25-.49-.4-.67-.15-.18-.28-.32-.4-.4-.38.1-.7.17-.95.21-.25.04-.59.07-1.02.11-.06,0-.18,0-.34.02-.07.25-.12.48-.16.7-.03.22-.04.48-.04.77.26-.24.53-.43.82-.57.29-.14.55-.23.76-.28.17.14.31.35.44.65.12.3.19.55.2.76,0,.3-.12.44-.36.44-.16,0-.29-.08-.4-.23-.1-.15-.17-.27-.2-.36-.03-.09-.11-.35-.24-.79-.18.22-.33.41-.45.56-.12.15-.24.34-.38.57.02.38.14.86.34,1.43.17.42.39.7.68.86.28.16.58.24.89.24.16,0,.31-.02.46-.05.34-.06.68-.16,1.04-.32.18-.55.26-1.1.25-1.66-.24.23-.51.44-.8.62-.29.18-.55.3-.77.34Z"/><path class="cls-2" d="M27.98,5.39c-.23-.14-.53-.3-.89-.47-.29-.14-.49-.24-.62-.32-.12-.08-.18-.17-.17-.28.17-.06.34-.08.52-.08.41,0,.85.15,1.32.46,0-.54-.03-1-.08-1.39-.18-.04-.36-.06-.53-.06-.35,0-.7.07-1.04.22s-.61.35-.82.61c-.2.26-.29.56-.26.91.02.27.1.5.24.68s.29.34.47.46.41.25.7.4c.35.17.62.32.8.47s.28.34.31.58c-.08.02-.15.02-.2.02-.46,0-1.05-.33-1.79-.98,0,.09-.01.22-.01.4s.02.56.06,1.19c.27.15.63.23,1.08.23s.79-.09,1.06-.28c.27-.19.46-.4.56-.64.11-.24.16-.44.16-.61,0-.35-.09-.65-.26-.89-.18-.24-.38-.44-.61-.58Z"/><path class="cls-2" d="M29.71,2.75c.3-.41.52-.74.66-1-.37-.25-.78-.5-1.25-.74-.27.38-.56.81-.88,1.31.54.34.96.58,1.26.72l.2-.29Z"/><path class="cls-2" d="M30.68,5.36c-.02-.08-.03-.16-.05-.24-.04-.23-.13-.67-.26-1.31l-.12-.61c-.47.22-.97.55-1.49.98.25.43.42.82.51,1.16.09.34.17.76.25,1.25.1.56.17.97.23,1.24s.12.45.19.56l.31-.13c.28-.12.48-.21.59-.26.12-.06.28-.16.49-.3-.15-.24-.27-.53-.35-.86-.08-.33-.18-.83-.29-1.48Z"/><path class="cls-2" d="M34.08,6.83c-.2-.14-.33-.23-.43-.31.26.04.46.07.58.07.3,0,.53-.07.69-.2.16-.13.23-.35.19-.64-.04-.42-.15-.87-.32-1.35s-.37-.93-.61-1.37c-.27-.07-.62-.11-1.06-.11-.25,0-.43,0-.54.02.26.44.48.88.65,1.31.17.43.3.8.38,1.12s.12.52.12.61c0,.11-.01.2-.04.28-.03.07-.09.11-.2.11s-.23-.07-.38-.2c-.15-.14-.29-.31-.4-.53-.12-.22-.19-.44-.21-.67,0-.05-.01-.12-.01-.2,0-.18.02-.33.07-.46s.1-.24.17-.34.13-.19.19-.26c-.49.18-.87.43-1.15.74s-.4.66-.38,1.06c.02.33.11.62.28.88s.36.48.58.67.51.4.87.64c.42.29.74.53.94.73.2.2.32.43.34.68.02.18-.05.35-.19.52s-.33.26-.56.29l-1.21-2.18c-.1.38-.19.71-.28.97-.09.26-.21.51-.35.76.12.26.31.46.56.61.25.15.51.25.76.3.26.05.46.07.6.07.33-.02.66-.11.98-.26s.59-.34.79-.59c.2-.24.27-.51.23-.8-.05-.4-.21-.74-.49-1.03-.28-.28-.66-.59-1.16-.93Z"/><path class="cls-2" d="M40.07,6.66c-.12-.29-.27-.76-.44-1.42-.06-.22-.13-.52-.19-.88-.06-.36-.1-.74-.12-1.13-.59.02-1.09.22-1.5.59-.35.31-.55.7-.61,1.16-.14-.47-.25-.81-.33-1.01-.1-.23-.24-.47-.42-.72-.49.38-.86.71-1.13,1.01.16.2.3.44.41.71.11.27.23.67.35,1.21.12.53.26,1.29.43,2.27.38-.1.85-.27,1.43-.5-.18-.49-.31-.93-.41-1.31-.1-.39-.15-.75-.15-1.07,0-.65.24-1.07.71-1.26l.13.62c.18.89.36,1.65.53,2.29.13.49.28.88.47,1.19.26-.14.49-.28.71-.42.22-.14.44-.28.66-.44-.22-.29-.38-.58-.5-.86Z"/></g></svg>