<?xml version="1.0" encoding="UTF-8"?><svg id="Layer_2" xmlns="http://www.w3.org/2000/svg" viewBox="0 0 35.99 11.17"><defs><style>.cls-1{fill:none;}.cls-2{fill:#3c50ff;}</style></defs><g id="Layer_1-2"><rect class="cls-1" width="35.99" height="11.17"/><path class="cls-2" d="M2.45,7.6c-.1-.09-.17-.19-.22-.31-.05-.12-.11-.33-.19-.62l-.77-2.54s0-.03-.01-.04c.07,0,.16,0,.26,0,.22,0,.5.02.85.05,0-.03.01-.08.01-.14,0-.12-.04-.2-.11-.23-.08-.03-.22-.05-.43-.05-.29,0-.5,0-.68.01-.03-.11-.07-.25-.09-.35-.05-.22-.07-.42-.07-.62s.03-.36.08-.49h-.1c-.16-.01-.27.07-.34.23-.07.16-.1.38-.1.64,0,.22.02.41.06.6-.21-.01-.41-.02-.61-.02.04.14.1.25.17.32.07.07.19.09.35.08l.17-.02.92,3.05c.12.42.24.72.36.9.12.18.3.26.55.26.16,0,.29-.05.39-.14.1-.09.17-.18.2-.26.04-.08.06-.15.08-.21-.11.04-.22.06-.34.06-.16,0-.3-.05-.41-.14Z"/><path class="cls-2" d="M5.57,3.48c-.14,0-.24.06-.3.17.14.25.26.54.34.89.08.34.12.66.12.95,0,.42-.03.78-.08,1.06-.05.28-.15.6-.31.95-.14-.22-.35-.64-.65-1.25-.11-.23-.23-.48-.37-.74s-.27-.52-.4-.76l-.32-.62c-.12-.25-.21-.41-.28-.49-.06-.08-.15-.12-.26-.12-.1,0-.19.03-.28.08-.09.06-.16.14-.23.24.09.1.17.19.25.29.08.1.17.23.26.39.34.54.91,1.64,1.72,3.28l.19.38c-.24.46-.48.82-.73,1.08-.24.26-.53.49-.85.67.02.06.06.12.14.18.08.06.17.08.26.08.12,0,.24-.05.37-.16.32-.27.73-.91,1.22-1.92.26-.51.46-1.02.6-1.52s.22-1.02.22-1.55c0-.32-.05-.66-.14-1.02-.09-.36-.27-.54-.52-.54Z"/><path class="cls-2" d="M9.1,3.79c-.36-.24-.73-.36-1.13-.36-.35,0-.66.07-.92.22s-.43.35-.49.59c-.02.05-.02.1-.02.16s.01.12.04.19c.16-.18.36-.34.59-.49s.48-.22.74-.22c.29,0,.57.13.85.38.28.25.5.59.67,1.03.17.43.26.9.26,1.42,0,.41-.07.7-.22.89s-.33.28-.56.28c-.37,0-.67-.3-.9-.89-.22-.61-.36-1.08-.44-1.4l-.14-.58c0-.06-.03-.14-.06-.25-.08.02-.16.1-.24.22-.08.12-.12.28-.12.47,0,.06,0,.14.02.25.02.1.09.37.22.83.14.47.26.9.36,1.29.1.39.18.8.24,1.23.08.54.11.97.1,1.3.26-.07.41-.19.46-.35.05-.16.07-.36.06-.59-.04-.55-.13-1.09-.28-1.62.14.18.29.31.44.38.15.07.32.11.52.11.18,0,.35-.06.53-.19.18-.13.33-.32.46-.59.12-.26.19-.6.19-1,0-.63-.11-1.18-.33-1.64s-.51-.82-.86-1.06Z"/><path class="cls-2" d="M13.81,6.72c-.05.66-.36.98-.92.98-.23,0-.45-.09-.65-.27-.2-.18-.37-.4-.5-.67-.13-.27-.2-.53-.23-.79.16.2.4.3.73.3.41,0,.71-.11.92-.34s.31-.51.31-.83c0-.47-.14-.86-.42-1.16-.28-.3-.62-.45-1.01-.45-.26,0-.49.06-.7.17-.21.11-.37.25-.49.41s-.18.33-.18.49.06.27.18.35c.08-.27.2-.49.37-.65.16-.16.36-.25.58-.25s.43.07.61.2c.18.13.32.3.43.5.1.2.16.4.16.59,0,.22-.07.4-.21.54-.14.14-.33.2-.56.2-.25,0-.44-.08-.58-.23-.14-.15-.23-.42-.27-.79-.1,0-.2.09-.29.23-.09.15-.13.34-.12.57.02.5.11.93.28,1.29.17.36.39.64.66.83.27.19.57.28.89.28.26,0,.48-.06.67-.17.19-.12.33-.26.43-.44.1-.18.15-.35.15-.53,0-.22-.07-.34-.22-.36Z"/><path class="cls-2" d="M18.7,7.7c-.18.15-.4.22-.66.22-.33,0-.63-.13-.91-.38s-.49-.6-.65-1.03-.24-.91-.24-1.43c0-.42.07-.73.2-.92.13-.19.31-.28.52-.28.19,0,.38.07.55.2.18.14.33.36.46.68l.6,1.85.13.47c.07-.02.14-.08.2-.18.06-.1.09-.24.09-.41,0-.11-.02-.25-.05-.4-.04-.16-.08-.33-.14-.53l-.26-.92-.07-.25c-.26-.93-.4-1.62-.42-2.08,0-.06-.01-.18-.01-.36,0-.28.02-.62.05-1.01-.23.02-.39.21-.47.55-.08.34-.11.7-.1,1.06.02.48.09.95.2,1.42-.14-.18-.28-.31-.42-.38-.14-.07-.31-.1-.49-.1-.33,0-.6.15-.83.45s-.34.75-.34,1.36.1,1.12.3,1.58c.2.46.47.82.8,1.07s.7.38,1.1.38c.38,0,.69-.07.95-.22.26-.14.39-.34.39-.59,0-.1-.02-.2-.07-.32-.1.19-.24.36-.42.51Z"/><path class="cls-2" d="M22.58,6.72c-.05.66-.36.98-.92.98-.23,0-.45-.09-.65-.27-.2-.18-.37-.4-.5-.67-.13-.27-.2-.53-.23-.79.16.2.4.3.73.3.41,0,.71-.11.92-.34s.31-.51.31-.83c0-.47-.14-.86-.42-1.16-.28-.3-.62-.45-1.01-.45-.26,0-.49.06-.7.17-.21.11-.37.25-.49.41s-.18.33-.18.49.06.27.18.35c.08-.27.2-.49.37-.65.16-.16.36-.25.58-.25s.43.07.61.2c.18.13.32.3.43.5.1.2.16.4.16.59,0,.22-.07.4-.21.54-.14.14-.33.2-.56.2-.25,0-.44-.08-.58-.23-.14-.15-.23-.42-.27-.79-.1,0-.2.09-.29.23-.09.15-.13.34-.12.57.02.5.11.93.28,1.29.17.36.39.64.66.83.27.19.57.28.89.28.26,0,.48-.06.67-.17.19-.12.33-.26.43-.44.1-.18.15-.35.15-.53,0-.22-.07-.34-.22-.36Z"/><path class="cls-2" d="M24.41,5.53c-.43-.23-.73-.43-.89-.59-.16-.16-.24-.34-.24-.52,0-.16.05-.3.16-.41.1-.11.24-.17.42-.17.14,0,.27.04.39.11.12.08.3.2.52.37.07-.1.11-.2.11-.31,0-.17-.1-.3-.29-.4-.19-.1-.43-.14-.72-.11s-.55.14-.79.35c-.24.21-.34.48-.32.83.02.3.14.57.34.79.2.22.54.46,1.02.72.42.21.7.41.84.61.14.2.22.4.22.61,0,.16-.05.29-.16.38s-.24.14-.39.14c-.21,0-.41-.08-.61-.23-.2-.16-.41-.42-.65-.79-.09.1-.13.22-.13.36,0,.16.06.32.18.47.12.16.28.28.48.38.2.1.42.15.66.15.35,0,.63-.11.83-.34s.31-.5.31-.81c0-.34-.1-.63-.29-.86-.19-.23-.52-.47-1-.72Z"/><path class="cls-2" d="M25.62,2.59c.13,0,.22-.05.28-.14.06-.09.09-.21.09-.34,0-.16-.05-.32-.14-.47-.09-.16-.21-.23-.35-.23-.1,0-.18.04-.26.13s-.11.21-.11.39.05.33.16.47c.1.14.22.2.34.2Z"/><path class="cls-2" d="M27.32,7.52c-.13-.25-.22-.53-.28-.83l-.31-1.56c-.1-.64-.21-1.08-.33-1.33-.12-.24-.28-.37-.49-.37-.18,0-.32.08-.42.25.21.14.35.31.44.5s.18.55.28,1.07l.38,1.86c.09.45.18.76.26.94.09.18.23.26.43.26.09,0,.17-.02.24-.05.07-.03.13-.07.17-.11.04-.04.07-.06.08-.07-.18-.13-.34-.32-.47-.57Z"/><path class="cls-2" d="M31.33,7.84c-.06-.04-.14-.07-.23-.1-.09-.03-.17-.04-.25-.04-.17,0-.27.06-.31.18.32.1.56.24.73.44s.25.43.25.71c0,.22-.09.41-.26.56-.18.15-.4.23-.68.23-.36,0-.65-.1-.88-.29-.23-.19-.34-.45-.34-.77,0-.21.05-.39.14-.55.1-.16.24-.36.44-.59.29-.34.51-.66.67-.98.16-.32.24-.72.24-1.22,0-.36-.06-.71-.19-1.06-.13-.35-.31-.64-.56-.87-.24-.23-.53-.36-.85-.38-.14,0-.24.02-.31.07.48.28.81.62,1,1.02s.28.85.28,1.34c0,.3-.07.52-.2.67-.14.15-.31.22-.53.22-.3,0-.55-.16-.75-.47-.2-.31-.29-.66-.29-1.06,0-.3.06-.54.17-.71.12-.17.3-.3.55-.4-.07-.06-.16-.08-.28-.08-.33,0-.59.13-.78.38-.19.25-.29.56-.29.93s.07.69.21.95c.14.26.31.45.52.57s.42.19.62.21c.59.04.96-.2,1.13-.68,0,0,0,0,0,0,0,.24-.06.46-.19.65s-.33.43-.6.72c-.28.3-.49.55-.63.77-.14.22-.21.46-.21.72,0,.38.15.7.46.94.3.24.7.38,1.18.41.3.02.58-.03.84-.14.26-.11.48-.28.64-.49.16-.22.24-.46.24-.72,0-.22-.07-.43-.2-.62-.13-.19-.3-.34-.5-.46Z"/><path class="cls-2" d="M35.44,7.44c-.16-.23-.27-.49-.34-.78l-.52-2c-.11-.45-.25-.76-.41-.92-.16-.17-.35-.25-.55-.25-.33,0-.6.14-.82.43-.22.28-.35.63-.4,1.05-.13-.55-.26-.94-.39-1.15s-.3-.32-.5-.32-.34.09-.42.28c.22.14.37.3.47.48.1.18.21.53.35,1.04l.44,1.64c.18.63.26,1.1.26,1.42.13,0,.24-.05.34-.14.1-.09.14-.25.14-.46,0-.17-.03-.37-.08-.6-.05-.23-.11-.46-.17-.68l-.14-.52c-.06-.24-.1-.5-.1-.77,0-.32.06-.59.17-.8.11-.21.28-.32.52-.32.36,0,.63.36.82,1.07l.53,1.99c.11.42.22.72.32.9s.25.26.44.26c.09,0,.17-.02.26-.07.08-.05.15-.1.21-.16l.11-.11c-.21-.1-.39-.27-.55-.5Z"/></g></svg>