<?xml version="1.0" encoding="UTF-8"?><svg id="Layer_2" xmlns="http://www.w3.org/2000/svg" viewBox="0 0 241.34 88.55"><defs><style>.cls-1{fill:#3c50ff;}</style></defs><g id="Layer_1-2"><path class="cls-1" d="M51.04,45.54c-.29,2.79-.44,4.58-.44,5.39,0,3.01.68,5.57,2.04,7.7,1.36,2.13,3.65,3.19,6.88,3.19s5.9-1.34,7.59-4.02c1.69-2.68,2.53-5.7,2.53-9.07,0-1.1-.07-2.33-.22-3.69-.15-1.36-.29-2.62-.44-3.79,1.91,1.83,4.36,3.59,7.37,5.28l-.11,7.37c0,4.11,1.12,7.08,3.36,8.91,2.24,1.83,4.89,2.75,7.97,2.75,2.86,0,4.86-.83,6-2.48,1.14-1.65,1.71-3.17,1.71-4.56,0-1.54-.4-3.01-1.21-4.4-.81.44-1.85.79-3.13,1.04-1.28.26-2.48.38-3.58.38-3.01,0-5.23-.75-6.66-2.25-1.43-1.5-2.25-3.43-2.47-5.77,1.47.81,3.19,1.21,5.17,1.21,2.27,0,4-1.03,5.17-3.08,1.17-2.05,1.76-4.84,1.76-8.36s-.62-6.43-1.87-8.3c-1.25-1.87-3.12-2.81-5.61-2.81-4.84,0-7.26,2.64-7.26,7.92,0,1.54.15,3.63.44,6.27l.33,3.74c-3.01-1.47-5.5-3.56-7.48-6.27,0-.59.07-1.39.22-2.42.22-1.25.33-2.79.33-4.62,0-3.3-.42-5.5-1.26-6.6-.84-1.1-1.85-1.65-3.02-1.65-1.03,0-1.94.37-2.75,1.1-.81.73-1.21,1.76-1.21,3.08,0,1.69.57,3.74,1.71,6.16,1.14,2.42,2.55,4.58,4.24,6.49,0,3.52-.22,6.14-.66,7.87-.44,1.72-1.1,2.86-1.98,3.41s-2.16.83-3.85.83c-2.49,0-4.29-.57-5.39-1.71-1.1-1.14-1.65-2.99-1.65-5.56,0-1.32.15-2.57.44-3.74.29-1.17.77-2.71,1.43-4.62.37-1.1.71-2.18,1.04-3.25.33-1.06.5-1.96.5-2.7,0-2.71-.7-4.69-2.09-5.94-1.39-1.25-2.82-1.87-4.29-1.87-1.76,0-3.48.51-5.17,1.54,4.03,6.6,6.05,11.92,6.05,15.95,0,1.17-.15,3.15-.44,5.94ZM79.25,37.62c.77-1.32,2-1.98,3.68-1.98,1.25,0,2.31.48,3.19,1.43.88.95,1.32,2.16,1.32,3.63,0,1.91-.62,3.13-1.87,3.68-1.25.55-2.75.83-4.51.83-.66,0-1.65-.15-2.97-.44,0-3.45.38-5.83,1.16-7.15Z"/><path class="cls-1" d="M218.68,42.79c-.22,2.42-.48,4.29-.77,5.61-.37,2.2-.55,4.03-.55,5.5,0,3.08.83,5.41,2.48,6.98,1.65,1.58,4.09,2.37,7.31,2.37,3.01,0,5.5-.84,7.48-2.53,1.98-1.69,2.97-3.81,2.97-6.38,0-1.17-.18-2.24-.55-3.19-1.54.95-2.97,1.67-4.29,2.14-1.32.48-2.9.71-4.73.71-2.49,0-4.38-.73-5.67-2.2-1.28-1.47-1.96-4.03-2.03-7.7,1.76,1.39,3.52,2.09,5.28,2.09,1.03,0,2.11-.37,3.25-1.1,1.14-.73,2.11-1.96,2.92-3.69.81-1.72,1.21-3.98,1.21-6.76,0-3.15-.51-5.94-1.54-8.36-1.03-2.42-2.93-3.63-5.72-3.63-4.84,0-7.26,3.81-7.26,11.44,0,1.47.04,2.66.11,3.57.07.92.15,1.85.22,2.81-.88-1.1-1.6-2.55-2.15-4.35-.55-1.8-.83-4.34-.83-7.64,0-1.91.15-3.74.44-5.5l-.66-.11c-.59,0-1.19.39-1.82,1.16s-.93,2.11-.93,4.01c0,2.42.4,5,1.21,7.75.81,2.75,2.35,5.08,4.62,6.99ZM220.93,35.09c.62-2.05,2.18-3.08,4.67-3.08,1.25,0,2.31.44,3.19,1.32s1.32,2.16,1.32,3.85c0,1.98-.42,3.43-1.27,4.35-.84.92-2.14,1.38-3.91,1.38-2.05,0-3.59-.37-4.62-1.1-.22-2.42-.02-4.66.6-6.71Z"/><path class="cls-1" d="M100.32,46.97l-.11,8.25c0,7.63,3.23,11.44,9.68,11.44,2.57,0,4.51-.77,5.83-2.31s1.98-3.45,1.98-5.72c0-1.39-.29-2.79-.88-4.18-1.98,1.25-4.18,1.87-6.6,1.87-5.5,0-8.36-2.82-8.58-8.47.66.51,1.3.9,1.92,1.15.62.26,1.52.39,2.7.39,1.98,0,3.76-1.06,5.33-3.19,1.58-2.13,2.37-4.66,2.37-7.59,0-8.21-2.49-12.32-7.48-12.32-2.79,0-4.6.99-5.45,2.97-.84,1.98-1.26,4.33-1.26,7.04,0,1.32.07,2.77.22,4.35.15,1.58.26,2.92.33,4.01-1.17-1.1-2.02-2.97-2.53-5.61-.51-2.64-.77-4.95-.77-6.93,0-1.47.07-3.19.22-5.17-1.32.22-2.24.7-2.75,1.43-.51.73-.77,1.76-.77,3.08,0,3.01.62,6.01,1.87,9.02,1.25,3.01,2.82,5.17,4.73,6.49ZM102.9,37.79c.77-1.28,1.82-1.92,3.14-1.92s2.42.53,3.3,1.59c.88,1.06,1.32,2.37,1.32,3.91,0,1.98-.6,3.25-1.81,3.79s-2.62.83-4.24.83c-.81,0-1.8-.22-2.97-.66.07-3.74.5-6.25,1.26-7.54Z"/><path class="cls-1" d="M105.27,75.24c-5.72,0-11.35-.51-16.88-1.54-5.54-1.03-12.59-2.57-21.17-4.62-7.85-1.91-14.28-3.35-19.31-4.34-5.02-.99-10.21-1.63-15.56-1.92,3.52-3.59,6.36-7.66,8.52-12.21,2.16-4.55,3.25-10.12,3.25-16.72,0-6.16-1.04-11.83-3.13-17s-4.93-9.28-8.53-12.32C28.86,1.52,24.86,0,20.46,0s-8.14,1.28-11.22,3.85c-3.08,2.57-5.39,5.81-6.93,9.73-1.54,3.92-2.31,7.83-2.31,11.71,0,5.35,1.08,10.41,3.25,15.18,2.16,4.77,4.88,8.58,8.14,11.44,3.26,2.86,6.4,4.29,9.41,4.29,3.74,0,5.94-2.6,6.6-7.81-5.35-1.17-9.66-3.08-12.92-5.72-3.26-2.64-5.57-5.48-6.93-8.52-1.36-3.04-2.03-5.96-2.03-8.75,0-4.91,1.32-8.56,3.96-10.95,2.64-2.38,5.94-3.57,9.9-3.57s7.46,1.28,10.29,3.85c2.82,2.57,4.93,5.81,6.33,9.74,1.39,3.92,2.09,7.86,2.09,11.82,0,5.5-.77,10.27-2.31,14.3-1.54,4.03-4.18,8.07-7.92,12.1h-.77c-4.99,0-9.11.57-12.38,1.71-3.26,1.14-5.65,2.58-7.15,4.34-1.5,1.76-2.25,3.63-2.25,5.61,0,2.64,1.14,4.91,3.41,6.82,2.86-3.52,6.49-6.43,10.89-8.74,4.4-2.31,10.16-3.47,17.27-3.47,5.35,0,10.96.66,16.83,1.98,5.87,1.32,13.35,3.3,22.44,5.94,8.07,2.35,14.48,4.09,19.25,5.22,4.77,1.14,9.17,1.71,13.2,1.71,7.26,0,12.82-.81,16.67-2.42,3.85-1.61,6.38-3.34,7.59-5.17,1.21-1.83,1.82-3.3,1.82-4.4,0-1.17-.37-2.16-1.1-2.97-7.19,4.25-16.61,6.38-28.27,6.38Z"/><path class="cls-1" d="M179.19,67.43c-.29-2.86-.88-5.98-1.76-9.35,2.35-2.42,4.22-5.52,5.61-9.29,1.39-3.78,2.09-7.94,2.09-12.49,0-8.58-1.83-12.87-5.5-12.87-.95,0-1.94.24-2.97.72-1.03.48-2.27,1.26-3.74,2.36,2.27,2.05,4.33,4.64,6.16,7.76,1.83,3.12,2.75,5.92,2.75,8.41s-.5,4.55-1.49,6.16c-.99,1.61-2.47,2.9-4.46,3.85l-1.98-6.27c-1.1-3.74-1.98-7.04-2.64-9.9-1.1-4.47-2.09-7.57-2.97-9.29-.88-1.72-2.27-2.58-4.18-2.58-2.42,0-5.06,1.72-7.92,5.17,4.33,3.01,7.88,6.6,10.67,10.78,2.79,4.18,4.95,8.54,6.49,13.09-2.42.88-6.56,1.65-12.43,2.31,0,4.99,1.83,7.48,5.5,7.48,3.08,0,5.98-1.06,8.69-3.19.51,2.49.77,4.62.77,6.38,0,3.37-.79,6.07-2.37,8.08-1.58,2.02-3.43,3.43-5.55,4.24-2.13.81-4.07,1.21-5.83,1.21-1.32,0-2.47-.26-3.46-.77-.99-.51-1.49-1.25-1.49-2.2,0-1.98,1.69-3.67,5.06-5.06,3.37-1.39,7.66-2.35,12.87-2.86.15-.73.22-1.32.22-1.76-16.35,1.39-24.53,5.68-24.53,12.87,0,2.64,1.04,4.66,3.13,6.05,2.09,1.39,4.57,2.09,7.43,2.09,3.74,0,6.97-.81,9.68-2.42,2.71-1.61,4.77-3.76,6.16-6.43,1.39-2.68,2.09-5.55,2.09-8.63v-1.76c2.13-.07,4.8,0,8.03.22v-2.09h-8.14Z"/><path class="cls-1" d="M240.68,66.44c-3.52,1.98-6.82,3.3-9.9,3.96s-6.86.99-11.33.99c-2.27,0-5.32-.26-9.13-.77-3.81-.51-7.44-1.03-10.89-1.54l-7.04-.99c-.37-1.69-.55-3.67-.55-5.94,0-4.84.48-9.31,1.43-13.42.66,5.72,1.74,9.48,3.25,11.27,1.5,1.8,3.36,2.7,5.55,2.7,3.15,0,5.43-1.26,6.82-3.79,1.39-2.53,2.09-6.47,2.09-11.83,0-7.48-.5-13.33-1.48-17.54-.99-4.22-2.88-6.33-5.67-6.33-2.35,0-4.18,1.52-5.5,4.57-1.32,3.04-2.53,6.95-3.63,11.71l-.66,2.97c-.07-.73-.11-1.72-.11-2.97s.18-3.52.55-6.82c.22-1.47.33-2.75.33-3.85,0-2.05-.37-3.59-1.1-4.62-.73-1.03-1.69-1.54-2.86-1.54-.95,0-1.94.22-2.97.66.95,2.35,1.8,5.12,2.53,8.3.73,3.19,1.5,7.46,2.31,12.82-3.3,8.29-4.95,16.57-4.95,24.86,0,5.13.26,9.09.77,11.88.51,2.79,1.3,4.71,2.36,5.78s2.51,1.59,4.35,1.59c.88,0,1.96-.31,3.25-.93,1.28-.62,2.51-1.41,3.68-2.37-4.62-5.06-7.66-9.86-9.13-14.41l11.55,3.41c6.16,1.91,11.02,3.3,14.58,4.18,3.56.88,6.66,1.32,9.29,1.32,4.11,0,7.28-.92,9.51-2.75,2.24-1.83,3.36-4.03,3.36-6.6,0-1.32-.22-2.64-.66-3.96ZM203.17,33.99c1.76,0,3.06,1.17,3.9,3.52.84,2.35,1.27,4.69,1.27,7.04,0,3.67-.59,6.11-1.76,7.32-1.17,1.21-2.71,1.81-4.62,1.81-2.49,0-4.25-.75-5.28-2.25-1.03-1.5-1.8-3.57-2.31-6.21,2.42-7.48,5.35-11.22,8.8-11.22Z"/><path class="cls-1" d="M129.42,53.74c-1.58-2.09-2.37-4.75-2.37-7.98,0-2.05.75-4,2.25-5.83,1.5-1.83,4.71-3.34,9.62-4.51-.59-6.6-2.68-9.9-6.27-9.9-1.91,0-3.43,1.61-4.56,4.84-1.14,3.23-2,8.21-2.58,14.96-.66-2.93-1.06-6.45-1.21-10.56-.29-3.23-.64-5.48-1.04-6.76-.4-1.28-1.34-1.92-2.81-1.92-1.54,0-3.01.84-4.4,2.53,2.05,3.08,3.85,6.32,5.39,9.73s2.31,6.07,2.31,7.98c0,1.32-.15,3.08-.44,5.28-.37,1.98-.55,4.14-.55,6.49,0,2.05.44,3.69,1.32,4.9.88,1.21,2.49,1.81,4.84,1.81,1.25,0,2.57-.37,3.96-1.1,1.39-.73,2.57-1.91,3.52-3.52-3.08-2.2-5.41-4.34-6.98-6.43Z"/><path class="cls-1" d="M156.53,47.96c0-3.15-.27-5.92-.82-8.3-.55-2.38-1.38-5.15-2.48-8.3-1.17-3.45-2.04-6.4-2.58-8.86-.55-2.46-.83-5.37-.83-8.75,1.32.15,2.27.29,2.86.44,6.16.88,11.15,1.32,14.96,1.32,4.25,0,7.79-.49,10.62-1.48,2.82-.99,4.88-2.22,6.16-3.69,1.28-1.47,1.92-2.9,1.92-4.29,0-.88-.09-1.65-.28-2.31-.18-.66-.6-1.5-1.26-2.53-8.8,5.43-16.79,8.14-23.98,8.14-3.96,0-7.59-.22-10.89-.66-3.3-.44-7.15-1.1-11.55-1.98-3.08-.66-5.61-1.14-7.59-1.43-1.98-.29-3.89-.44-5.72-.44-4.11,0-6.95.86-8.52,2.58-1.58,1.72-2.37,3.43-2.37,5.12,0,.95.15,1.85.44,2.7.29.84.7,1.89,1.21,3.13,4.62-2.13,8.42-3.58,11.38-4.34,2.97-.77,6.62-1.16,10.94-1.16,2.57,0,5.9.22,10.01.66-1.69.88-2.92,1.94-3.69,3.19-.77,1.25-1.15,2.97-1.15,5.17s.38,4.22,1.15,6.05c.77,1.83,1.96,4.18,3.58,7.04,1.54,2.71,2.7,4.95,3.46,6.71.77,1.76,1.16,3.67,1.16,5.72,0,3.37-1.25,6.51-3.74,9.41-2.49,2.9-5.94,6-10.34,9.29.44,1.47,1.25,2.82,2.42,4.07,1.17,1.25,2.6,1.87,4.29,1.87,1.54,0,3.17-.86,4.9-2.58s3.21-4.4,4.45-8.03c1.25-3.63,1.87-8.12,1.87-13.48Z"/></g></svg>