<?xml version="1.0" encoding="UTF-8"?>
<svg xmlns="http://www.w3.org/2000/svg" baseProfile="tiny" version="1.2" viewBox="0 0 586.66821 392.13342">
  <!-- Generator: Adobe Illustrator 28.6.0, SVG Export Plug-In . SVG Version: 1.2.0 Build 709)  -->
  <g>
    <g id="b">
      <g id="c">
        <path d="M448.20673,32.48814c-2.7002,0-5.58008,0-8.33984.12012-.95996,0-2.33984,1.44043-3.06055,2.45996-.41992-.17969-.71973-.36035-1.01953-.66016.17969-.41992.35938-.89941.48047-1.31934-1.08008-.06055-1.91992-.54004-1.91992-1.74023,0-1.13965.83984-1.62012,1.91992-1.67969-.12109-.48047-.30078-.95996-.48047-1.37988.2998-.2998.59961-.48047,1.01953-.66016.7207,1.01953,2.10059,2.45996,3.06055,2.45996,2.75977.12012,5.69922.12012,8.33984.12012,0-4.2002,0-7.25977-.12109-11.28027,0-.95996-1.13867-2.33984-2.15918-3.05957.17969-.36035.36035-.66016.66016-1.01953.41992.17969.89941.35938,1.31934.47949.06055-1.08008.30078-1.91992,1.5-1.91992,1.14062,0,1.38086.83984,1.44043,1.91992.47949-.12012.95996-.2998,1.37988-.47949.2998.35938.48047.65918.66016,1.01953-1.02051.71973-2.16016,2.09961-2.16016,3.05957-.12012,4.02051-.12012,7.08008-.12012,11.28027,3.05957,0,5.52051,0,8.33984-.12012.95996,0,2.33984-1.44043,3.05957-2.45996.41992.17969.7207.36035,1.01953.66016-.17969.41992-.35938.89941-.47949,1.37988,1.08008.05957,1.91992.54004,1.91992,1.67969,0,1.2002-.83984,1.67969-1.91992,1.74023.12012.41992.2998.89941.47949,1.31934-.29883.2998-.59961.48047-1.01953.66016-.71973-1.01953-2.09961-2.45996-3.05957-2.45996-2.7002-.12012-5.87988-.12012-8.33984-.12012,0,11.28027,0,18.11914.12012,27.17871,0,.96094,1.13965,2.34082,2.16016,3.06055-.17969.35938-.36035.66016-.66016,1.01953-.41992-.17969-.7207-.35938-1.08008-.47949-.06055,1.08008-.59961,1.91992-1.74023,1.91992-1.19922,0-1.74023-.83984-1.7998-1.91992-.2998.12012-.59961.2998-1.01953.47949-.2998-.35938-.48047-.66016-.66016-1.01953,1.02051-.71973,2.15918-2.09961,2.15918-3.06055.12109-9.59961.12109-15.7793.12109-27.17871Z"/>
        <path d="M394.66794,116.42913c-.57401.41-1.31201.73801-2.05002.98401-2.05002-3.36203-3.77203-4.51004-6.39606-4.51004-2.87003,0-4.59204,2.13202-4.59204,4.34604,0,6.64206,11.7261,10.7421,11.7261,24.76421,0,10.00409-7.21606,18.86017-21.81219,18.86017-12.71011,0-17.54816-7.29807-22.6322-7.29807-1.88602,0-3.52603.82001-5.57605,2.05002-.57401-.57401-.98401-1.14801-1.23001-1.88602,3.93604-2.78802,6.88806-4.67404,11.1521-4.67404,7.38007,0,13.77612,8.36407,22.8782,8.36407,8.52808,0,13.53012-5.49405,13.53012-11.0701,0-11.0701-14.10413-16.64615-14.10413-25.99423,0-6.31406,4.83804-10.41409,10.33209-10.41409,4.26404,0,7.21606,2.46002,8.77408,6.47807ZM389.58389,104.62103c2.05002,0,3.93604-1.55801,3.93604-4.18204,0-1.80402-.90201-3.60803-2.62402-5.49405.492-.57401,1.06601-1.06601,1.72202-1.47601,2.21402,1.96802,3.52603,4.18204,3.52603,7.21606,0,3.28003-2.37802,8.03607-8.77408,8.03607-13.12012,0-20.50018-14.02213-29.76627-14.02213-5.08405,0-9.34808,4.18204-9.34808,9.26608,0,9.18408,7.87207,9.34808,12.46411,9.10208.082.73801.082,1.39401,0,2.13202-6.06805.65601-15.25214-.82001-15.25214-11.1521,0-8.28207,6.80606-13.61212,15.99014-13.61212,15.58014,0,20.99219,14.18613,28.12625,14.18613v.00002ZM399.42398,137.83131v-13.03812c0-2.54202-.082-4.26404-.246-5.65805,5.49405-2.29602,10.57809-4.42804,16.40015-6.23206,5.41205,6.47806,7.54407,11.89011,7.54407,15.66213,0,3.36203-2.46002,7.29807-6.23206,11.89011-2.05002,2.46002-4.18204,4.34604-6.23206,7.29807-4.01804-2.62402-7.62607-3.69003-11.5621-4.10004.164-1.14801.328-2.87003.328-5.82205v.00002ZM405.41003,139.55334c2.87003.246,4.92004,1.06601,6.97006,2.05002,4.26404-4.18204,5.65805-6.88806,5.65805-9.02008,0-3.85403-3.60803-10.25009-7.54407-15.41614-2.21402.65601-3.44403,1.31201-5.08405,2.05002.082,1.55801.082,3.52603.082,5.08405v10.8241c0,2.29602,0,3.52603-.082,4.42804v-.00002ZM434.27341,118.56115c3.77203-2.05002,7.70807-4.10004,11.4801-5.82205,4.75607,6.88806,7.29807,11.97211,7.29807,17.71217,0,9.02008-4.42804,18.20416-19.92618,34.76831-.65601-.328-1.47601-.98401-1.88602-1.55801,10.16809-11.2341,15.90814-19.51617,15.90814-27.79825,0-6.97006-4.26404-13.53012-7.54407-17.46616-1.80402.82001-3.60803,1.64001-5.33005,2.62402v19.51617c1.23001.328,2.29602.65601,3.60803,1.39401l1.64001-1.55801c.65601.492,1.14801.98401,1.64001,1.64001-1.96802,1.80402-3.69003,3.52603-5.49405,5.57605-2.95203-1.88602-6.47806-3.77203-11.5621-2.70602-.246-.41-.492-.98401-.57401-1.55801,1.31201-.90201,2.78802-1.96802,4.59204-2.62402v-33.2103c0-4.92004-.90201-9.18408-4.18204-11.1521.164-.57401.328-1.06601.65601-1.64001,1.72202.41,3.60803.82001,5.82205,3.03403,1.80402-3.36203,4.67404-5.33005,9.26608-5.33005,1.47601,0,3.19803.328,4.26404.90201-.082.57401-.246,1.14801-.492,1.72202-6.15005-.492-9.18408,1.47601-9.18408,9.67609v13.85812-.00002ZM480.76776,147.50742c-3.854-2.70602-5.00201-4.67404-5.73999-6.39606h-.328l-6.72412,6.39606c-2.37799-1.39401-5.82202-3.03403-10.16809-3.77203.08203-1.64001.16406-3.52603.16406-6.47806v-9.51208c0-2.54202-.08203-4.26404-.16406-5.65805,5.16608-3.19803,10.08612-6.31406,15.00616-9.75809,2.46002,1.96802,6.15009,4.92004,9.59406,4.92004.65601,0,1.55804-.164,2.21405-.41.24603.246.73798.98401.90204,1.31201-.98401,1.14801-2.70605,2.54202-4.67407,3.36203v17.46616c.65601.98401,1.72205,1.72202,2.62402,2.37802l2.05005-1.88602c.57397.492,1.06598.98401,1.64001,1.72202-2.21405,1.88602-4.34607,3.93604-6.39612,6.31406ZM470.1897,141.93137l4.51007-4.18204v-16.23615c-1.80408-.492-3.77209-1.55801-6.39612-3.28003l-1.14795.73801c-.82007.492-2.46008,1.55801-3.19806,2.21402.08197,1.47601.164,3.36203.164,5.00204v8.36407c0,3.52603-.08203,4.51004-.08203,5.57605,2.13208.164,4.51007.90201,6.15009,1.80402v.00002ZM516.02814,136.92931c0,1.47601.73798,2.70602,2.21399,2.70602.328,0,.90198-.082,1.55798-.328.41003.492.65601.98401.90204,1.55801-4.01801,2.87003-4.67401,3.69003-6.15009,6.64206-.57397.082-1.06598.082-1.64001,0-.98401-1.96802-2.62402-4.51004-6.31403-5.41205-.08197-.57401-.08197-1.06601,0-1.64001,2.54205-.82001,3.69-2.05002,3.69-4.34604v-12.87411c0-2.13202-1.31201-3.19803-2.29602-3.60803l-5.08398.246c-3.85406.328-4.34607,2.29602-4.34607,4.26404v11.31609c0,3.28003,1.14801,4.51004,3.526,5.00204.08203.57401.08203,1.06601,0,1.64001-3.198,1.14801-4.09998,2.95203-5.33002,5.33005-.492.082-1.06598.082-1.55804,0-.90198-2.05002-2.78796-4.42804-5.82202-5.57605-.08203-.492-.08203-.98401,0-1.47601,2.46002-.90201,3.44403-1.80402,3.44403-4.59204v-13.03812c0-1.47601-.73798-2.70602-2.21405-2.70602-.328,0-.90198.082-1.55798.328-.41003-.41-.65601-.82001-.82001-1.39401,2.78802-2.21402,5.00201-3.93604,6.56006-6.88806.492-.082.90204-.082,1.39398,0,.82007,1.96802,2.37805,4.51004,3.93604,5.57605l5.57605-.246c3.11609-.246,5.41211-2.21402,7.13409-4.83804.492-.082.98401-.082,1.39398,0,.90204,2.05002,2.21405,4.34604,5.24805,5.49405.08203.492.08203.98401,0,1.47601-2.45996.90201-3.44397,1.80402-3.44397,4.59204v12.79211ZM551.04181,136.92931c0,1.47601.73798,2.70602,2.21399,2.70602.328,0,.90198-.082,1.55798-.328.41003.492.65601.98401.90204,1.55801-4.01801,2.87003-4.67401,3.69003-6.15009,6.64206-.57397.082-1.06598.082-1.64001,0-.98401-1.96802-2.62402-4.51004-6.31403-5.41205-.08197-.57401-.08197-1.06601,0-1.64001,2.54205-.82001,3.69-2.05002,3.69-4.34604v-12.87411c0-2.13202-1.31201-3.19803-2.29602-3.60803l-5.08398.246c-3.85406.328-4.34607,2.29602-4.34607,4.26404v11.31609c0,3.28003,1.14801,4.51004,3.526,5.00204.08203.57401.08203,1.06601,0,1.64001-3.198,1.14801-4.09998,2.95203-5.33002,5.33005-.492.082-1.06598.082-1.55804,0-.90198-2.05002-2.78796-4.42804-5.82202-5.57605-.08203-.492-.08203-.98401,0-1.47601,2.46002-.90201,3.44403-1.80402,3.44403-4.59204v-13.03812c0-1.47601-.73798-2.70602-2.21405-2.70602-.328,0-.90198.082-1.55798.328-.41003-.41-.65601-.82001-.82001-1.39401,2.78802-2.21402,5.00201-3.93604,6.56006-6.88806.492-.082.90204-.082,1.39398,0,.82007,1.96802,2.37805,4.51004,3.93604,5.57605l5.57605-.246c3.11609-.246,5.41211-2.21402,7.13409-4.83804.492-.082.98401-.082,1.39398,0,.90204,2.05002,2.21405,4.34604,5.24805,5.49405.08203.492.08203.98401,0,1.47601-2.45996.90201-3.44397,1.80402-3.44397,4.59204v12.79211Z"/>
        <path d="M374.98788,176.94498c0,3.03403-2.29602,9.10208-11.3161,9.10208-3.69003,0-7.13406-1.55801-10.41409-3.36203-1.47601,2.70602-2.05002,4.51004-2.05002,6.80606,0,5.41205,6.31406,10.8241,11.2341,17.38416,2.95203-2.95203,4.51004-5.33005,4.51004-7.21606,0-1.23001-.246-2.29602-1.47601-4.18204.41-.492.73801-.82001,1.14801-1.14801.57401.328,1.72202.90201,3.11603.90201,1.23001,0,2.62402-.492,3.77203-1.96802.57401.246.98401.492,1.39401.90201-.73801,1.55801-1.06601,2.95203-1.06601,4.10004,0,1.39401.57401,2.70602,1.55801,4.18204-.246.492-.65601.90201-1.06601,1.23001-.90201-.41-1.80402-.65601-2.70602-.65601-2.13202,0-4.01804,1.64001-7.79007,5.65805,2.62402,3.77203,4.59204,7.95407,4.59204,12.71011,0,14.76013-9.67609,22.3042-18.61417,22.3042s-17.79416-5.90405-17.79416-17.79416c0-10.08609,7.54407-15.58014,7.54407-20.58218,0-1.55801-1.06601-2.46002-2.62402-3.60803.328-.57401.65601-1.23001,1.14801-1.80402,3.19803,1.80402,6.31406,3.69003,6.31406,8.28207,0,6.23206-7.05206,11.5621-7.05206,19.92618,0,8.52808,6.15005,13.12012,12.79211,13.12012,6.39606,0,13.36612-5.41205,13.36612-13.77612,0-13.94012-16.15414-19.76218-16.15414-33.2923,0-5.08405,1.64001-7.95407,4.01804-12.54611-4.10004-2.37802-7.87207-4.83804-11.7261-4.83804-5.65805,0-9.51208,3.60803-9.51208,8.93808,0,4.10004,1.96802,6.97006,6.56006,8.61008-.164.82001-.41,1.55801-.73801,2.13202-4.18204-1.23001-8.28207-4.01804-8.28207-10.7421,0-6.88806,6.31406-13.77612,16.07214-13.77612,11.7261,0,18.53217,8.93808,24.43622,8.93808,2.95203,0,4.59204-2.13202,4.59204-4.18204,0-.98401-.246-1.96802-.41-2.54202.57401-.246,1.23001-.492,1.96802-.57401.492,1.23001.65601,2.21402.65601,3.36203ZM394.58545,226.5554c-2.95203-1.88602-9.75809-3.77203-14.84213-2.70602-.246-.41-.492-.98401-.57401-1.55801,1.06601-.73801,2.78802-1.55801,4.59204-2.21402v-18.36816c0-1.47601-1.14801-2.70602-2.62402-2.70602-.328,0-.90201.082-1.55801.328-.328-.41-.65601-.82001-.82001-1.39401,2.78802-2.21402,5.00204-3.93604,6.15005-6.88806.57401-.082,1.06601-.082,1.64001,0,.90201,1.88602,2.46002,4.42804,4.34604,5.82205,3.69003-1.31201,6.23206-2.54202,8.03607-5.74005.492-.082.98401-.082,1.47601,0,.73801,2.87003,1.47601,4.18204,4.10004,5.16605.082.57401.082,1.06601,0,1.64001-2.21402.98401-4.75604,3.03403-5.33005,4.92004-.57401.082-1.06601.082-1.64001,0-.492-2.54202-1.47601-4.18204-3.69003-4.18204-.65601,0-1.06601-.082-2.95203.65601l-.98401.41v19.43417c1.96802.082,5.00204.73801,6.88806,1.72202l1.64001-1.55801c.65601.41,1.14801.98401,1.64001,1.64001-1.96802,1.80402-3.69003,3.52603-5.49405,5.57605ZM417.29953,218.43735c.328,0,.90201-.082,1.55801-.328.41.41.65601.82001.82001,1.39401-2.78802,2.21402-5.00204,3.93604-6.39606,6.88806-.492.082-.90201.082-1.39401,0-.98401-1.96802-2.54202-4.75604-6.23206-5.65805-.164-.57401-.164-1.06601,0-1.64001,1.88602-.41,3.69003-1.14801,3.69003-4.75604v-12.62811c0-1.47601-.73801-2.70602-2.21402-2.70602-.328,0-.90201.082-1.55801.328-.41-.41-.65601-.82001-.82001-1.39401,2.78802-2.21402,4.59204-3.93604,5.98605-6.88806.492-.082.90201-.082,1.39401,0,.98401,1.96802,2.95203,4.75604,6.64206,5.65805.082.57401.082,1.06601,0,1.64001-1.88602.41-3.69003,1.14801-3.69003,4.75604v12.62811c0,1.47601.73801,2.70602,2.21402,2.70602ZM410.57547,178.995c0-3.60803,1.23001-5.90405,3.60803-5.90405,2.13202,0,3.11603,1.31201,3.11603,3.19803,0,1.96802-1.72202,4.42804-4.59204,7.79007-.82001-.082-1.47601-.328-2.13202-.57401v-4.51004ZM438.78381,191.78709l3.69003,4.26404c1.06601,1.23001,1.80402,2.62402,1.80402,3.77203,0,2.13202-2.21402,4.92004-6.47806,7.79007l-6.64206,4.51004v1.39401c0,3.52603-.082,4.51004-.082,5.57605,2.29602.328,5.98605,1.14801,7.95407,2.21402l2.95203-2.70602c.65601.328,1.31201,1.23001,1.55801,1.72202-3.93604,3.69003-4.67404,4.42804-6.72406,6.56006-3.77203-2.13202-7.79007-3.28003-11.97211-4.18204.082-1.64001.164-3.52603.164-6.47806v-9.51208c0-2.54202-.082-4.26404-.164-5.65805,3.85403-2.87003,11.0701-7.79007,13.94012-9.26608ZM431.15775,209.33527l3.60803-2.46002c2.70602-1.80402,3.44403-2.95203,3.44403-4.42804,0-.90201-.246-1.88602-1.39401-3.19803l-1.96802-2.13202-1.06601.73801c-1.23001.82001-1.55801,1.06601-2.70602,1.96802.082,1.55801.082,3.28003.082,4.83804v4.67404ZM449.9361,216.22331v-11.1521c0-2.54202-.08203-4.26404-.16406-5.65805,2.70605-1.64001,5.82208-3.19803,8.77411-4.67404v-.328l-.164-.082c-6.31409-4.10004-8.61011-8.85608-8.61011-12.38211,0-4.51004,3.52606-8.85608,9.26611-8.85608.164.82001.164,1.64001,0,2.46002-3.854,0-5.74005,2.46002-5.74005,4.67404,0,5.24805,8.03607,7.54407,13.20209,11.4801,5.00208,3.85403,7.21606,8.93808,7.21606,14.84213,0,5.33005-2.21399,9.26608-8.03601,15.33414-1.47607,1.55801-2.78809,3.11603-4.01807,4.83804-3.198-2.21402-7.38007-3.60803-11.80811-4.01804.08203-1.88602.08203-3.52603.08203-6.47806ZM463.38422,220.65137c4.26404-4.18204,5.33002-6.56006,5.33002-10.33209,0-4.26404-2.21405-9.67609-7.95404-14.26813-1.64001.73801-3.36206,1.55801-4.7561,2.46002.08203,1.23001.08203,2.95203.08203,4.51004v15.58014c2.87,0,5.41205,1.06601,7.2981,2.05002ZM491.51068,226.5554c-2.95203-1.88602-9.75806-3.77203-14.8421-2.70602-.24603-.41-.492-.98401-.57404-1.55801,1.06604-.73801,2.78809-1.55801,4.59204-2.21402v-18.36816c0-1.47601-1.14795-2.70602-2.62402-2.70602-.328,0-.90198.082-1.55798.328-.328-.41-.65601-.82001-.82001-1.39401,2.78802-2.21402,5.00201-3.93604,6.15009-6.88806.57397-.082,1.06598-.082,1.64001,0,.90198,1.88602,2.45996,4.42804,4.34601,5.82205,3.69-1.31201,6.23206-2.54202,8.03607-5.74005.492-.082.98401-.082,1.47601,0,.73798,2.87003,1.47601,4.18204,4.10004,5.16605.08203.57401.08203,1.06601,0,1.64001-2.21399.98401-4.75604,3.03403-5.33008,4.92004-.57397.082-1.06598.082-1.64001,0-.49194-2.54202-1.47595-4.18204-3.69-4.18204-.65601,0-1.06598-.082-2.95203.65601l-.98401.41v19.43417c1.96802.082,5.00201.73801,6.88806,1.72202l1.64001-1.55801c.65601.41,1.14801.98401,1.64001,1.64001-1.96802,1.80402-3.69,3.52603-5.49408,5.57605ZM515.86481,218.43735c.328,0,.90204-.082,1.55804-.328.40997.41.65601.82001.82001,1.39401-2.78802,2.21402-5.00208,3.93604-6.39606,6.88806-.492.082-.90204.082-1.39398,0-.98401-1.96802-2.54205-4.75604-6.23206-5.65805-.16406-.57401-.16406-1.06601,0-1.64001,1.88599-.41,3.69-1.14801,3.69-4.75604v-12.62811c0-1.47601-.73798-2.70602-2.21405-2.70602-.328,0-.90198.082-1.55798.328-.41003-.41-.65601-.82001-.82001-1.39401,2.78802-2.21402,4.59204-3.93604,5.98602-6.88806.49207-.082.90204-.082,1.39404,0,.98401,1.96802,2.95203,4.75604,6.64209,5.65805.08197.57401.08197,1.06601,0,1.64001-1.88605.41-3.69006,1.14801-3.69006,4.75604v12.62811c0,1.47601.73804,2.70602,2.21399,2.70602ZM509.14081,178.995c0-3.60803,1.22998-5.90405,3.60803-5.90405,2.13196,0,3.11597,1.31201,3.11597,3.19803,0,1.96802-1.72198,4.42804-4.59204,7.79007-.81995-.082-1.47595-.328-2.13196-.57401v-4.51004ZM523.57294,216.22331v-9.51208c0-2.54202-.08203-4.26404-.164-5.65805,4.59204-3.19803,9.34808-6.64206,13.85809-9.18408,2.37805,1.88602,3.36206,3.28003,4.7561,6.15005-1.55804,1.31201-3.44409,2.54202-5.33008,3.52603-1.22998-2.21402-2.05005-3.36203-3.28003-4.42804-2.29602,1.47601-3.11603,2.21402-3.77203,2.70602.08197,1.55801.08197,3.28003.08197,4.83804v8.85608c0,3.52603-.08197,4.51004-.08197,5.57605,2.29602.328,4.75604,1.14801,6.72406,2.21402l2.95203-2.70602c.65601.328,1.31201,1.23001,1.55798,1.72202-3.93604,3.69003-4.67401,4.42804-6.724,6.56006-3.77209-2.13202-6.56006-3.28003-10.74213-4.18204.08197-1.64001.164-3.52603.164-6.47806ZM553.17511,197.52715c3.77203-2.05002,7.70807-4.10004,11.4801-5.82205,4.75604,6.88806,7.2981,11.97211,7.2981,17.71216,0,9.02008-4.4281,18.20416-19.92621,34.76831-.65601-.328-1.47601-.98401-1.88605-1.55801,10.16809-11.2341,15.9082-19.51617,15.9082-27.79825,0-6.97006-4.26404-13.53012-7.54407-17.46616-1.80408.82001-3.60803,1.64001-5.33008,2.62402v19.51617c1.22998.328,2.29602.65601,3.60803,1.39401l1.64001-1.55801c.65601.492,1.14801.98401,1.64001,1.64001-1.96802,1.80402-3.69006,3.52603-5.49402,5.57605-2.95203-1.88602-6.47809-3.77203-11.56213-2.70602-.24597-.41-.492-.98401-.57397-1.55801,1.31201-.90201,2.78796-1.96802,4.59204-2.62402v-33.2103c0-4.92004-.90204-9.18408-4.18207-11.1521.164-.57401.328-1.06601.65601-1.64001,1.72198.41,3.60803.82001,5.82208,3.03403,1.80396-3.36203,4.67401-5.33005,9.26605-5.33005,1.47601,0,3.19806.328,4.26404.90201-.08197.57401-.24603,1.14801-.492,1.72202-6.15002-.492-9.18408,1.47601-9.18408,9.67609v13.85812Z"/>
        <path d="M374.74155,287.64529v-29.19226c-1.96802-1.88602-3.28003-3.19803-4.75604-3.19803-1.06601,0-2.13202.57401-2.95203,1.88602-.65601-.328-.98401-.492-1.47601-.98401,1.23001-2.29602,2.37802-3.19803,6.39606-4.59204,2.62402-.98401,3.52603-1.80402,4.34604-4.18204.57401-.082,1.06601-.082,1.64001,0,1.14801,3.93604,5.00204,6.31406,10.16809,5.57605.164.73801.246,1.14801.246,1.88602-2.29602.82001-4.18204,1.55801-6.80606,3.19803v29.84827c3.19803.73801,6.31406,2.37802,9.18408,5.08405,3.69003-2.46002,6.72406-4.26404,10.25009-5.00204v-28.94626c-1.64001-2.37802-3.36203-3.52603-6.15005-3.93604-.164-.57401-.164-1.31201-.082-2.05002,2.95203-.41,7.46207-1.39401,10.25009-5.90405.57401-.082,1.06601-.082,1.64001,0,.73801,3.11603,2.46002,5.65805,7.62607,5.57605.246.73801.328,1.55801.328,2.21402-2.87003,1.06601-4.67404,1.72202-6.88806,2.95203v30.01227c2.46002.65601,4.42804,2.05002,6.15005,3.60803l2.29602-2.62402c.65601.41,1.31201.90201,1.80402,1.47601l-8.20007,10.00409c-.57401-.082-1.14801-.164-1.55801-.41-2.05002-3.85403-5.41205-6.72406-9.34808-6.72406-4.75604,0-10.16809,3.60803-13.77612,7.87207-.65601,0-1.14801,0-1.64001-.164-2.21402-4.42804-5.24805-6.88806-9.67609-6.88806-3.44403,0-5.33005,1.80402-7.13406,3.77203-.65601-.246-1.14801-.65601-1.64001-1.06601,1.96802-4.75604,5.08405-8.28207,9.75809-9.10208ZM446.81973,288.87531c0,1.47601.73801,2.70602,2.21402,2.70602.328,0,.90198-.082,1.55798-.328.41003.492.65601.98401.90204,1.55801-4.01801,2.87003-4.67404,3.69003-6.15005,6.64206-.57401.082-1.06601.082-1.64001,0-.98401-1.96802-2.62402-4.51004-6.31406-5.41205-.082-.57401-.082-1.06601,0-1.64001,2.54202-.82001,3.69003-2.05002,3.69003-4.34604v-12.87411c0-2.13202-1.31201-3.19803-2.29602-3.60803l-5.08405.246c-3.85403.328-4.34604,2.29602-4.34604,4.26404v11.3161c0,3.28003,1.14801,4.51004,3.52603,5.00204.082.57401.082,1.06601,0,1.64001-3.19803,1.14801-4.10004,2.95203-5.33005,5.33005-.492.082-1.06601.082-1.55801,0-.90201-2.05002-2.78802-4.42804-5.82205-5.57605-.082-.492-.082-.98401,0-1.47601,2.46002-.90201,3.44403-1.80402,3.44403-4.59204v-13.03812c0-1.47601-.73801-2.70602-2.21402-2.70602-.328,0-.90201.082-1.55801.328-.41-.41-.65601-.82001-.82001-1.39401,2.78802-2.21402,5.00204-3.93604,6.56006-6.88806.492-.082.90201-.082,1.39401,0,.82001,1.96802,2.37802,4.51004,3.93604,5.57605l5.57605-.246c3.11603-.246,5.41205-2.21402,7.13406-4.83804.492-.082.98401-.082,1.39401,0,.90201,2.05002,2.21402,4.34604,5.24802,5.49405.08203.492.08203.98401,0,1.47601-2.45996.90201-3.444,1.80402-3.444,4.59204v12.79211ZM468.30334,316.83755c-9.84009,0-14.8421-6.31406-14.8421-10.25009,0-2.95203,1.72198-4.10004,3.362-4.10004,2.04999,0,3.362,1.47601,3.362,3.11603s-1.22998,2.29602-1.22998,3.85403c0,1.88602,3.44403,5.16605,9.51208,5.16605,6.47803,0,11.39807-4.75604,11.39807-10.25009,0-6.23206-5.41199-7.38007-6.56006-10.9881h-.40997l-6.31403,6.06805c-2.37805-1.39401-5.82208-3.03403-10.16809-3.77203.08197-1.64001.16394-3.52603.16394-6.47806v-9.51208c0-2.54202-.08197-4.26404-.16394-5.65805,5.16602-3.19803,10.08606-6.31406,15.0061-9.75809,2.46002,1.96802,6.15002,4.92004,9.59412,4.92004.65601,0,1.55798-.164,2.21399-.41.24597.246.73804.98401.90198,1.31201-.98401,1.14801-2.70599,2.54202-4.67401,3.36203v18.20416c2.70599,2.46002,3.69,6.72406,3.69,9.67609,0,11.7261-8.11804,15.49814-14.8421,15.49814ZM468.79535,293.87735l4.51001-4.18204v-16.23615c-1.88599-.57401-4.01801-1.64001-6.396-3.28003l-1.14807.73801c-.81995.492-2.45996,1.55801-3.198,2.21402.08203,1.47601.164,3.36203.164,5.00204v8.36407c0,3.52603-.08197,4.51004-.08197,5.57605,2.13196.164,4.51001.90201,6.15002,1.80402ZM502.9079,264.76709l3.69006,4.26404c1.06598,1.23001,1.80396,2.62402,1.80396,3.77203,0,2.13202-2.21399,4.92004-6.47803,7.79007l-6.64209,4.51004v1.39401c0,3.52603-.08197,4.51004-.08197,5.57605,2.29602.328,5.98602,1.14801,7.95404,2.21402l2.95203-2.70602c.65601.328,1.31201,1.23001,1.55804,1.72202-3.93604,3.69003-4.67401,4.42804-6.72406,6.56006-3.77203-2.13202-7.79004-3.28003-11.97211-4.18204.08197-1.64001.164-3.52603.164-6.47806v-9.51208c0-2.54202-.08203-4.26404-.164-5.65805,3.85406-2.87003,11.07013-7.79007,13.94012-9.26608ZM495.2818,282.31525l3.60803-2.46002c2.70605-1.80402,3.44409-2.95203,3.44409-4.42804,0-.90201-.24603-1.88602-1.39404-3.19803l-1.96802-2.13202-1.06604.73801c-1.22998.82001-1.55798,1.06601-2.70599,1.96802.08197,1.55801.08197,3.28003.08197,4.83804v4.67404ZM526.68829,299.5354c-2.95203-1.88602-9.75812-3.77203-14.84216-2.70602-.24597-.41-.492-.98401-.57397-1.55801,1.06598-.73801,2.78796-1.55801,4.59204-2.21402v-18.36816c0-1.47601-1.14807-2.70602-2.62402-2.70602-.328,0-.90204.082-1.55804.328-.328-.41-.65601-.82001-.82001-1.39401,2.78802-2.21402,5.00208-3.93604,6.15002-6.88806.57404-.082,1.06604-.082,1.64001,0,.90204,1.88602,2.46008,4.42804,4.34607,5.82205,3.69006-1.31201,6.23206-2.54202,8.03607-5.74005.492-.082.98401-.082,1.47601,0,.73804,2.87003,1.47601,4.18204,4.10004,5.16605.08197.57401.08197,1.06601,0,1.64001-2.21405.98401-4.75604,3.03403-5.33002,4.92004-.57404.082-1.06604.082-1.64001,0-.49207-2.54202-1.47607-4.18204-3.69006-4.18204-.65601,0-1.06604-.082-2.95203.65601l-.98401.41v19.43417c1.96802.082,5.00208.73801,6.88806,1.72202l1.64001-1.55801c.65601.41,1.14801.98401,1.64001,1.64001-1.96802,1.80402-3.69006,3.52603-5.49402,5.57605Z"/>
        <path d="M395.93231,361.19421h2.06934v-8.45996h-1.91992c-.05957-.33008-.05957-.69043,0-1.02051h6.4502c.05957.33008.05957.69043,0,1.02051h-1.88965v8.45996h2.03906c.06055.3291.06055.68945,0,1.01953h-6.74902c-.05957-.33008-.05957-.69043,0-1.01953Z"/>
        <path d="M415.28094,351.71375c.12109.12012.21094.30078.27051.48047l-6.36035,12.0293c-.08984.15039-.11914.33008-.11914.48047,0,.68945.62988.68945.62988,1.43945,0,.87012-.75,1.46973-1.55957,1.46973-.57031,0-1.11035-.38965-1.11035-1.0498,0-.4502.12012-.75.54004-1.55957,1.76953-3.33008,4.65039-8.66992,5.69922-10.64941-2.42969.08984-4.79883.08984-7.19922,0l-.68945,1.58984c-.27051-.03027-.57031-.06055-.83984-.15039l1.43945-4.08008c3.08984.09082,6.20898.09082,9.29883,0Z"/>
        <path d="M424.55145,364.04382c0-2.19043-.87012-4.0498-2.87988-4.0498-1.01953,0-2.16016.54004-3.17969,2.75977-.26953.03027-.57031-.03027-.87012-.12012l2.12988-11.06934c1.80078.14941,3.41992.14941,5.16016.08984l.2998-.83984c.2998-.03027.69043-.03027.89941,0l-1.01953,3.41992c-1.76953.08984-3.41992,0-4.91992-.06055l-1.28906,6.4502.11914.03027c.69043-1.02051,1.80078-1.58984,3.08984-1.58984,1.86035,0,5.2207,1.37988,5.2207,5.21973,0,3.44922-3.12109,5.5791-6.24023,5.5791-3.83984,0-5.51953-2.18945-5.51953-4.19922,0-1.32031.89941-2.01074,1.83008-2.01074.95898,0,1.55957.60059,1.55957,1.38086,0,1.5293-1.68066,1.28906-1.68066,2.12988,0,.83984,1.91992,1.8291,3.54102,1.8291,2.54883,0,3.74902-1.97949,3.74902-4.94922Z"/>
        <path d="M439.28094,355.88364c0,1.91992-1.73926,3.4502-4.31934,3.78027l-.03027.14941c3.36035.63086,4.71094,2.64062,4.71094,4.98047,0,4.01953-3.96094,5.39941-6.54102,5.39941-3.83984,0-4.64941-2.42969-4.64941-3.71973,0-1.32031.90039-2.00977,1.83008-2.00977.95996,0,1.55957.59961,1.55957,1.37988,0,1.53027-1.67969,1.29004-1.67969,2.12988s1.65039,1.37988,2.91016,1.37988c2.84961,0,3.68945-2.04004,3.68945-4.37988,0-3.47949-1.5-4.31934-3.08984-4.31934-1.19922,0-1.88965.41992-2.91016,1.13965-.26953-.15039-.38965-.36035-.47949-.69043.89941-.71973,1.70996-1.16992,3.17969-1.61914,2.49023-.75,2.94043-1.65039,2.94043-3.4502,0-1.83008-1.34961-3.4502-3.30078-3.4502-2.06934,0-3.38867,1.16992-4.04883,2.85059-.27051-.03027-.60059-.12012-.81055-.20996.90039-2.85059,3.15039-3.69043,5.51953-3.69043,3.33008,0,5.51953,1.88965,5.51953,4.34961Z"/>
        <path d="M440.99188,354.95395c2.91016.08984,10.34961.08984,13.25977,0,.08984.41992.08984,1.70996,0,2.12988-2.91016-.08984-10.34961-.08984-13.25977,0-.06055-.41992-.06055-1.70996,0-2.12988Z"/>
        <path d="M456.86102,361.19421h2.07031v-8.45996h-1.91992c-.06055-.33008-.06055-.69043,0-1.02051h6.44922c.06055.33008.06055.69043,0,1.02051h-1.88867v8.45996h2.03906c.06055.3291.06055.68945,0,1.01953h-6.75c-.05957-.33008-.05957-.69043,0-1.01953Z"/>
        <path d="M477.59052,347.42468c0,2.81934-1.67969,4.19922-4.25977,4.88965v.08984c1.68066.24023,4.31934,1.53027,4.31934,4.74023,0,3.20898-2.60938,5.45898-5.63867,5.45898-3.03027,0-5.66992-1.67969-5.66992-5.12988,0-2.48926,1.5-4.76953,4.31934-5.00977v-.08984c-2.06934-.2998-4.2002-1.67969-4.2002-4.46973,0-3.92969,3.08984-5.5498,5.58008-5.5498,2.91016,0,5.5498,2.04004,5.5498,5.07031ZM474.83075,357.32407c0-3.78027-1.37988-4.37988-2.84961-4.37988s-2.85059.66016-2.85059,4.37988c0,3.54004,1.5,4.43945,2.85059,4.43945,1.40918,0,2.84961-.89941,2.84961-4.43945ZM474.80048,347.72446c0-3.80957-1.61914-4.53027-2.81934-4.53027-1.26074,0-2.82031.66016-2.82031,4.53027,0,3.54004,1.46973,4.37988,2.79004,4.37988,1.43945,0,2.84961-.83984,2.84961-4.37988Z"/>
        <path d="M490.76141,356.8436c0,3.99023-3.24023,5.7002-5.66992,5.7002-2.55078,0-5.64062-1.53027-5.64062-5.39941,0-3.4502,2.55078-5.82031,5.66992-5.82031,3,0,5.64062,1.83008,5.64062,5.51953ZM488.27118,356.96375c0-3.83984-1.58984-4.7998-3.15039-4.7998-1.74023,0-3.14941.99023-3.14941,4.7998,0,3.54004,1.22949,4.74023,3.14941,4.74023s3.15039-1.2002,3.15039-4.74023Z"/>
        <path d="M499.9411,361.55356h-7.29004c-.12012-.41992-.15039-1.10938,0-1.43945,1.91992-3.75,3.92969-7.5,7.70996-13.0498.29883.08984.56934.27051.80957.48047-3.47949,5.33887-5.04004,8.24902-6.89941,11.72949.53906-.06055,1.10938-.06055,1.64941-.06055h4.02051v-7.29004c.41992-.14941,1.67969-.14941,2.00977,0v7.29004h1.5c.14941.48047.14941,1.86035,0,2.33984h-1.5v4.5c-.33008.15039-1.58984.15039-2.00977,0v-4.5Z"/>
        <rect x="312.95853" width="273.70969" height="392.13342" fill="none"/>
        <path d="M131.5614,39.81627c-3.75293,2.57617-4.63574,4.19531-6.91797,5.59375-.80957.51465-1.5459.80957-2.13379.80957-.95703,0-1.7666-.88379-1.7666-1.7666,0-1.03027.80957-1.9873,2.06055-2.64941,2.13379-1.17773,4.04785-1.39844,8.24316-3.16406v-.22168c-4.04883-1.69238-6.03516-1.91309-8.16992-3.09082-1.25-.66211-2.06055-1.61914-2.06055-2.64941,0-.88281.66211-1.76562,1.7666-1.76562.58887,0,1.3252.29395,2.13379.80957,2.28125,1.39844,3.16504,3.0166,6.84473,5.59277l.2207-.14746c-.51465-4.41504-1.3252-6.25488-1.3252-8.75684,0-1.7666.66309-3.3125,2.13477-3.3125,1.25098,0,1.91406,1.17773,1.91406,3.16504,0,2.64941-.95703,4.26855-1.39844,8.9043l.2207.14746c3.45898-2.64941,4.7832-4.3418,6.91797-5.59277.73535-.44141,1.54492-.73633,2.20703-.73633,1.17773,0,1.91406.95703,1.91406,1.83984,0,.80957-.73633,1.69238-2.06055,2.35547-2.42969,1.17676-4.04883,1.39746-8.39062,3.2373v.22168c4.41602,1.91309,6.03516,1.98633,8.46289,3.31152,1.39844.73535,2.06152,1.54492,2.06152,2.35449,0,.88281-.95703,1.83984-1.91309,1.83984-.66309,0-1.47266-.29395-2.20898-.73535-2.13379-1.25195-3.45801-2.87012-6.99023-5.59375l-.2207.14746c.44141,4.5625,1.39844,6.1084,1.39844,8.75781,0,1.98633-.66309,3.16406-1.91406,3.16406-1.47168,0-2.13477-1.54492-2.13477-3.31152,0-2.50195.81055-4.3418,1.3252-8.61035l-.2207-.14746Z"/>
        <path d="M87.70104,148.03014c-12.875,0-23.86328-10.74219-28.61914-10.74219-2.29492,0-4.18164,1.72168-4.18164,4.09961,0,2.45996,1.80469,3.52637,2.45996,4.18164-.32812.65625-.9834,1.39453-1.47559,1.72266-1.64062-.90234-3.52637-2.95215-3.52637-5.82227,0-4.67383,4.83789-7.9541,10.08594-7.9541,1.47559,0,2.95215.16406,4.42871.49219,3.2793-4.34668,4.42773-10.82422,4.42773-18.86035,0-12.2998-2.45996-20.5-9.83984-20.5-3.77246,0-7.38086,3.03418-7.38086,7.79004,0,3.93555,2.05078,6.8877,7.29883,8.85645-.16406.7373-.49219,1.47559-.82031,2.0498-6.88867-1.72266-9.18359-6.56055-9.18359-10.49609,0-7.37988,5.98535-10.66016,11.72559-10.66016,6.06738,0,10.08594,3.03418,12.5459,7.13379l14.26758-9.26562c5.16699,9.42969,10.90625,13.12012,15.82617,12.38184.24609.65625.32812,1.22949.32812,1.88574-5.73926,3.52637-13.2832,7.79004-19.59766,12.62793l.16406.24609c2.45996-.90137,5.57617-1.96777,8.9375-1.96777,6.88867,0,13.12109,5.16602,13.12109,13.8584,0,11.88965-12.21875,18.94238-20.99219,18.94238v-.00002ZM69.00378,134.58189c8.69336,2.62402,16.81055,9.10156,23.53516,9.10156,4.09961,0,9.83984-3.03418,9.83984-11.23438,0-7.29785-5.57617-12.95605-13.03809-12.95605-9.34863,0-12.46387,7.54492-20.33691,15.08887v-.00002ZM76.05651,124.24986c4.91992-5.82227,10.90625-10.82422,20.91016-17.13867l-.08203-.24609c-4.5918-.73828-8.11816-4.18164-12.46387-10.66016l-7.87207,5.00195c1.47559,3.28027,2.13184,7.05273,2.13184,10.49609,0,7.38086-1.31152,10.08691-2.87012,12.38281l.24609.16406h-.00002Z"/>
        <path d="M127.63366,112.2772l3.69044,4.26465c1.06641,1.22949,1.80371,2.62305,1.80371,3.77148,0,2.13184-2.21387,4.91992-6.47754,7.79004l-6.64258,4.50977v1.39453c0,3.52637-.08203,4.50977-.08203,5.57617,2.2959.32812,5.98633,1.14746,7.9541,2.21387l2.95215-2.70605c.65625.32812,1.3125,1.22949,1.55859,1.72168-3.93652,3.69043-4.6748,4.42871-6.72461,6.56055-3.77148-2.13184-7.79004-3.28027-11.97266-4.18262.08203-1.63965.16406-3.52539.16406-6.47754v-9.5127c0-2.54199-.08203-4.26367-.16406-5.65723,3.85449-2.87012,11.07031-7.79004,13.94043-9.2666v.00002ZM120.00768,129.82506l3.60742-2.45996c2.70703-1.80371,3.44531-2.95215,3.44531-4.42773,0-.90234-.24609-1.88574-1.39453-3.19824l-1.96875-2.13184-1.06543.73828c-1.22949.81934-1.55762,1.06543-2.70605,1.96777.08203,1.55762.08203,3.28027.08203,4.83789,0,0,0,4.67383,0,4.67383Z"/>
        <path d="M151.495,146.6356c-2.95215-1.88574-9.75879-3.77246-14.84277-2.70605-.24609-.41016-.49121-.98438-.57324-1.55762,1.14746-.82031,3.03418-1.72266,5.00195-2.2959v-20.33691h-5.00195c-.24609-.41016-.41016-1.31152-.32812-1.88574l17.71191-15.33398c.65625.49219,1.14844,1.14746,1.47656,1.80371l-5.98633,5.41211c-1.88672,1.63965-2.13184,2.95215-1.96875,5.82227h9.43066c.49219,1.06543.32812,3.03418,0,4.09961h-9.18457v19.59863c1.96875.16406,4.75684.82031,6.47852,1.72168l1.64062-1.55762c.65527.41016,1.14746.9834,1.63965,1.63965-1.96777,1.80371-3.69043,3.52637-5.49414,5.57617v-.00002Z"/>
        <path d="M181.42371,111.12974c0,2.62402-2.13184,5.24805-4.3457,6.55957,1.96777.65625,2.54102,2.54199,2.54102,3.77246,0,1.06543-.32715,2.45996-1.14746,3.36133,2.13184,1.64062,3.85449,4.01855,3.85449,6.64259,0,2.45996-.90234,4.50977-3.52637,8.2002-2.70605,3.60742-5.6582,6.80566-9.83984,6.80566-1.55762,0-3.28027-.24609-5.9043-1.55762l-1.31152,2.13184c-.73828-.24609-1.39453-.57422-1.96875-1.14844l2.95215-5.24805c-1.22949-1.06543-1.80371-2.62402-1.80371-4.26367,0-1.96777.90234-2.95215,1.80371-3.77246-2.78809-2.62402-3.28027-4.09961-3.28027-6.06738,0-3.11621,1.88672-5.6582,4.01855-8.11816,4.01855-4.5918,6.72363-5.74023,11.64355-5.74023,1.14844,0,2.29688,0,2.87109-.24609.81934-.24609,1.06543-.90234,1.06543-1.39355,0-.90234-.41016-1.39453-1.06543-2.21484.49121-.57324,1.14746-.9834,1.80273-1.39355.65625.57422,1.64062,1.80371,1.64062,3.69043v-.00003ZM163.2196,135.97545c0,3.52637,3.85449,4.67383,8.61035,4.67383,3.77148,0,5.82227-2.54199,5.82227-4.75586,0-3.3623-2.54297-4.42773-5.24805-6.8877-6.06836,3.19824-9.18457,3.60742-9.18457,6.96973ZM175.43736,124.98717c1.47656-.7373,1.88672-1.88574,1.88672-3.19727,0-1.39453-1.64062-3.44434-5.08398-3.44434-6.9707,0-8.20117,1.55762-8.20117,3.3623,0,2.78711,2.46094,4.50977,4.9209,6.55956l6.47754-3.28027v.00003Z"/>
        <path d="M201.4315,118.91978c-.08203-.57422-.08203-1.06641,0-1.64062,2.29492-.16406,4.75586-1.06543,6.55957-4.91992.57422-.08203,1.06543-.08203,1.63965,0,2.625,3.93652,2.95312,8.36426,2.95312,13.94043,0,13.20215-4.26465,23.45215-18.28711,38.29395-.65625-.32812-1.31152-.81934-1.80371-1.31152,7.87207-9.75879,11.39746-15.1709,12.95605-20.82812l-.32812-.24609c-2.78809,1.47559-5.49414,2.78809-8.2002,4.09961-3.6084-2.45996-5.73926-3.28027-10.9873-3.44434-.16406-.49121-.32812-1.06543-.32812-1.55762,1.31152-.82031,2.54102-1.31152,3.60742-1.63965v-14.67871c0-3.77148-1.72168-5.57617-4.01758-6.14941-.08203-.49219-.08203-1.06641,0-1.55859,1.63965-.16406,5.16602-1.06543,7.13379-4.91992.57422-.08203,1.06543-.08203,1.63965,0,1.39453,3.11621,1.39453,6.72461,1.39453,10.82422v16.1543c2.13184.32812,3.68945,1.06543,5.9043,2.37793,1.63965-.73828,3.2793-1.55859,4.83789-2.45996.41016-2.37793.49219-4.91992.49219-8.03613,0-5.33008-.41016-11.31641-5.16602-12.2998v-.00003Z"/>
        <path d="M48.17565,178.77916c-1.80371,1.14844-3.68945,1.72168-5.49414,1.72168-3.85352,0-7.78906-2.2959-12.13574-5.90332-7.79004,5.41211-11.64355,11.39746-11.64355,23.20605,0,15.99023,9.75781,23.04199,18.44922,23.04199,5.74023,0,11.64453-1.80371,14.76074-9.51172.81934.16406,1.47559.41016,2.13184.7373-2.86914,8.03613-9.59375,13.12012-18.53125,13.12012-13.61328,0-24.84668-8.60938-24.84668-23.78027,0-14.18555,8.93848-22.38574,17.62988-28.4541,2.2959-1.55762,4.5918-3.2793,6.64258-5.00195,3.0332,2.78809,6.72363,7.13477,11.07031,7.13477,2.13086,0,4.42773-.98438,6.72266-3.44434.57422.32812,1.14844.73828,1.55859,1.22949-4.50977,6.9707-6.15039,11.5625-6.15039,15.66211,0,1.88672.32812,3.6084.90234,5.41211-.65625.41016-1.55859.73828-2.37793.82031-.90137-2.13184-1.22949-4.18164-1.22949-6.23242,0-3.52539,1.14746-6.80566,2.70508-9.67578l-.16406-.08203h-.00001Z"/>
        <path d="M65.96862,195.01549c3.77246-2.0498,7.70898-4.10059,11.48047-5.82227,4.75586,6.88867,7.29785,11.97266,7.29785,17.71191,0,9.02051-4.42773,18.2041-19.92578,34.76855-.65625-.32812-1.47559-.9834-1.88574-1.55762,10.16797-11.23438,15.9082-19.5166,15.9082-27.79883,0-6.96973-4.26465-13.5293-7.54492-17.46582-1.80371.82031-3.60742,1.63965-5.33008,2.62402v19.5166c1.23047.32715,2.29688.65527,3.6084,1.39355l1.63965-1.55762c.65625.49121,1.14844.9834,1.64062,1.63965-1.96875,1.80371-3.69043,3.52637-5.49414,5.57617-2.95215-1.88574-6.47852-3.77246-11.5625-2.70605-.24609-.41016-.49219-.98438-.57422-1.55762,1.3125-.90234,2.78906-1.96875,4.5918-2.625v-33.20996c0-4.91992-.90137-9.18359-4.18164-11.15234.16406-.57324.32812-1.06543.65625-1.63965,1.72266.41016,3.60742.82031,5.82227,3.03418,1.80371-3.3623,4.67383-5.33008,9.26562-5.33008,1.47656,0,3.19824.32812,4.26367.90234-.08203.57324-.24609,1.14746-.49121,1.72168-6.15039-.49219-9.18457,1.47559-9.18457,9.67578,0,0,0,13.8584,0,13.8584Z"/>
        <path d="M102.86804,224.04381c-2.95215-1.88574-9.75879-3.77246-14.84277-2.70605-.24609-.41016-.49121-.98438-.57324-1.55762,1.06543-.73828,2.78809-1.55859,4.5918-2.21484v-18.36816c0-1.47559-1.14746-2.70605-2.62402-2.70605-.32812,0-.90234.08203-1.55859.32812-.32715-.41016-.65527-.81934-.81934-1.39355,2.78809-2.21387,5.00195-3.93652,6.14941-6.88867.57422-.08203,1.06641-.08203,1.64062,0,.90234,1.88672,2.45996,4.42871,4.3457,5.82227,3.69043-1.31152,6.23242-2.54199,8.03711-5.74023.49121-.08203.9834-.08203,1.47559,0,.7373,2.87012,1.47559,4.18262,4.09961,5.16602.08203.57422.08203,1.06641,0,1.64062-2.21387.9834-4.75586,3.03418-5.33008,4.91992-.57324.08203-1.06543.08203-1.63965,0-.49219-2.54199-1.47656-4.18262-3.69043-4.18262-.65527,0-1.06543-.08105-2.95215.65625l-.9834.41016v19.43457c1.96777.08203,5.00195.7373,6.8877,1.72168l1.64062-1.55762c.65527.40918,1.14746.9834,1.63965,1.63965-1.96777,1.80371-3.69043,3.52637-5.49414,5.57617h.00002Z"/>
        <path d="M126.40026,215.92564c.32812,0,.90234-.08203,1.55859-.32812.41016.41016.65626.82031.8203,1.39453-2.78906,2.21387-5.00195,3.93555-6.39648,6.8877-.49219.08203-1.06641.08203-1.55859,0-.9834-1.96777-2.37695-4.75586-6.06738-5.6582-.16406-.57422-.16406-1.06641,0-1.63965,1.88574-.41016,3.69043-1.14844,3.69043-4.75586v-12.62891c0-1.47559-.73828-2.70605-2.21484-2.70605-.32812,0-.90234.08203-1.55762.32812-.41016-.41016-.65625-.81934-.82031-1.39355,2.78809-2.21387,4.59277-3.93652,5.98633-6.88867.49121-.08203.9834-.08203,1.47559,0,.98438,1.96875,2.87012,4.75684,6.56055,5.6582.08203.57422.08203,1.06641,0,1.64062-1.88672.40918-3.69043,1.14746-3.69043,4.75586v12.62793c0,1.47559.73828,2.70605,2.21387,2.70605h-.00002ZM117.38073,175.58092c0-3.11523,1.63965-4.50977,3.60742-4.50977,2.46094,0,3.6084,1.72168,3.6084,4.42773,0,1.88672-.90137,4.26465-2.45996,6.39648-.82031.08203-1.64062.08203-2.45996,0-1.39355-2.13184-2.2959-4.26367-2.2959-6.31445Z"/>
        <path d="M154.03406,188.12779c0,2.62402-2.13184,5.24805-4.34668,6.55957,1.96875.65625,2.54297,2.54199,2.54297,3.77246,0,1.06543-.32812,2.45996-1.14844,3.36133,2.13281,1.64062,3.85352,4.01855,3.85352,6.64258,0,2.45996-.90137,4.50977-3.52539,8.2002-2.70605,3.60742-5.6582,6.80566-9.83984,6.80566-1.55859,0-3.28027-.24609-5.9043-1.55762l-1.3125,2.13184c-.7373-.24609-1.39355-.57422-1.96777-1.14844l2.95215-5.24805c-1.23047-1.06543-1.80371-2.62402-1.80371-4.26367,0-1.96777.90137-2.95215,1.80371-3.77246-2.78809-2.62402-3.2793-4.09961-3.2793-6.06738,0-3.11621,1.88477-5.6582,4.01758-8.11816,4.01758-4.5918,6.72461-5.74023,11.64453-5.74023,1.14746,0,2.29492,0,2.86914-.24609.82031-.24609,1.06641-.90234,1.06641-1.39355,0-.90234-.41016-1.39453-1.06641-2.21484.49219-.57324,1.14844-.9834,1.80469-1.39355.65625.57422,1.63965,1.80371,1.63965,3.69043ZM135.82996,212.9735c0,3.52637,3.85352,4.67383,8.60938,4.67383,3.77246,0,5.82227-2.54199,5.82227-4.75586,0-3.3623-2.54102-4.42773-5.24805-6.8877-6.06738,3.19824-9.18359,3.60742-9.18359,6.96973ZM148.04871,201.98521c1.47461-.7373,1.88477-1.88574,1.88477-3.19727,0-1.39453-1.63965-3.44434-5.08398-3.44434-6.96973,0-8.19922,1.55762-8.19922,3.3623,0,2.78711,2.45898,4.50977,4.91992,6.55957l6.47852-3.28027Z"/>
        <path d="M172.89343,223.63365c-2.95215-1.88574-9.75879-3.77246-14.84277-2.70605-.24609-.41016-.49121-.98438-.57324-1.55762,1.14746-.82031,3.03418-1.72266,5.00195-2.2959v-20.33691h-5.00195c-.24609-.41016-.41016-1.31152-.32812-1.88574l17.71191-15.33398c.65625.49219,1.14844,1.14746,1.47656,1.80371l-5.98633,5.41211c-1.88672,1.63965-2.13184,2.95215-1.96875,5.82227h9.43066c.49219,1.06543.32812,3.03418,0,4.09961h-9.18457v19.59863c1.96875.16406,4.75684.82031,6.47852,1.72168l1.64062-1.55762c.65527.41016,1.14746.9834,1.63965,1.63965-1.96777,1.80371-3.69043,3.52637-5.49414,5.57617Z"/>
        <path d="M193.39246,215.92564c.32812,0,.90137-.08203,1.55762-.32812.40918.41016.65527.82031.81934,1.39453-2.78711,2.21387-5.00195,3.93555-6.39551,6.8877-.49219.08203-1.06543.08203-1.55762,0-.98438-1.96777-2.37891-4.75586-6.06836-5.6582-.16406-.57422-.16406-1.06641,0-1.63965,1.88574-.41016,3.68945-1.14844,3.68945-4.75586v-12.62891c0-1.47559-.73828-2.70605-2.21289-2.70605-.32812,0-.90234.08203-1.55859.32812-.41016-.41016-.65625-.81934-.82031-1.39355,2.78809-2.21387,4.5918-3.93652,5.98633-6.88867.49219-.08203.98438-.08203,1.47656,0,.9834,1.96875,2.86914,4.75684,6.55957,5.6582.08203.57422.08203,1.06641,0,1.64062-1.88574.40918-3.69043,1.14746-3.69043,4.75586v12.62793c0,1.47559.73828,2.70605,2.21484,2.70605ZM184.37193,175.58092c0-3.11523,1.63965-4.50977,3.6084-4.50977,2.45898,0,3.60742,1.72168,3.60742,4.42773,0,1.88672-.90234,4.26465-2.45996,6.39648-.81934.08203-1.63965.08203-2.45996,0-1.39453-2.13184-2.2959-4.26367-2.2959-6.31445Z"/>
        <path d="M222.91199,223.96178c-3.85449-2.70605-5.00293-4.67383-5.74023-6.39648h-.32812l-6.72461,6.39648c-2.37793-1.39453-5.82227-3.03418-10.16797-3.77246.08203-1.63965.16406-3.52539.16406-6.47754v-9.5127c0-2.54199-.08203-4.26367-.16406-5.65723,5.16602-3.19824,10.08594-6.31445,15.00586-9.75879,2.46094,1.96875,6.15039,4.91992,9.59375,4.91992.65625,0,1.55859-.16309,2.21484-.40918.24609.24609.73828.9834.90234,1.31152-.98438,1.14844-2.70703,2.54199-4.6748,3.3623v17.46582c.65625.98438,1.72168,1.72168,2.62402,2.37793l2.05078-1.88574c.57324.49219,1.06543.98438,1.63965,1.72168-2.21387,1.88672-4.34668,3.93652-6.39551,6.31445ZM212.33386,218.3856l4.50977-4.18164v-16.23633c-1.80469-.49219-3.77246-1.55859-6.39648-3.28027l-1.14844.73828c-.81934.49219-2.45898,1.55762-3.19727,2.21387.08203,1.47559.16406,3.3623.16406,5.00195v8.36426c0,3.52637-.08203,4.50977-.08203,5.57617,2.13184.16406,4.50977.90137,6.15039,1.80371Z"/>
        <path d="M258.1698,213.38365c0,1.47559.73828,2.70605,2.21484,2.70605.32812,0,.90137-.08203,1.55762-.32812.41016.49219.65527.98438.90137,1.55762-4.01758,2.87012-4.67383,3.69043-6.14941,6.64258-.57422.08203-1.06543.08203-1.63965,0-.98438-1.96777-2.625-4.50977-6.31445-5.41211-.08203-.57422-.08203-1.06641,0-1.63965,2.54199-.82031,3.68945-2.05078,3.68945-4.34668v-12.87402c0-2.13184-1.31152-3.19824-2.29492-3.60742l-5.08398.24512c-3.85449.32812-4.34668,2.29688-4.34668,4.26465v11.31543c0,3.28027,1.14746,4.51074,3.52637,5.00293.08203.57324.08203,1.06543,0,1.63965-3.19824,1.14844-4.10059,2.95215-5.33008,5.33008-.49219.08203-1.06641.08203-1.55859,0-.90234-2.0498-2.78711-4.42773-5.82227-5.57617-.08203-.49219-.08203-.98438,0-1.47559,2.46094-.90234,3.44434-1.80469,3.44434-4.59277v-13.03809c0-1.47559-.7373-2.70605-2.21387-2.70605-.32812,0-.90234.08203-1.55859.32812-.40918-.41016-.65527-.81934-.81934-1.39355,2.78809-2.21387,5.00195-3.93652,6.55957-6.88867.49219-.08203.90234-.08203,1.39453,0,.82031,1.96875,2.37793,4.51074,3.93555,5.57617l5.57617-.24609c3.11621-.24609,5.41211-2.21387,7.13477-4.83789.49219-.08203.9834-.08203,1.39355,0,.90137,2.0498,2.21387,4.34668,5.24805,5.49414.08203.49219.08203.98438,0,1.47656-2.45996.90137-3.44434,1.80371-3.44434,4.5918v12.79199Z"/>
        <path d="M241.53111,299.07407c-2.95117-1.88574-9.75781-3.77246-14.8418-2.70605-.24609-.41016-.49219-.98438-.57422-1.55859,1.06641-.7373,2.78906-1.55762,4.5918-2.21387v-18.36816c0-1.47559-1.14746-2.70605-2.62305-2.70605-.32812,0-.90234.08203-1.55859.32812-.32812-.41016-.65625-.81934-.82031-1.39355,2.78906-2.21387,5.00195-3.93652,6.15039-6.88867.57422-.08203,1.06641-.08203,1.64062,0,.90137,1.88672,2.45898,4.42871,4.3457,5.82227,3.68945-1.31152,6.23242-2.54199,8.03613-5.74023.49121-.08203.9834-.08203,1.47559,0,.73828,2.87012,1.47656,4.18262,4.09961,5.16602.08203.57422.08203,1.06641,0,1.64062-2.21289.9834-4.75586,3.03418-5.33008,4.91992-.57324.08203-1.06543.08203-1.63867,0-.49219-2.54199-1.47656-4.18164-3.69043-4.18164-.65625,0-1.06641-.08203-2.95215.65527l-.98438.41016v19.43457c1.96875.08203,5.00195.7373,6.88867,1.72168l1.63965-1.55762c.65625.40918,1.14746.9834,1.63965,1.63965-1.96777,1.80371-3.68945,3.52637-5.49414,5.57617Z"/>
        <path d="M217.75182,264.30551l3.68945,4.26367c1.06641,1.23047,1.80469,2.625,1.80469,3.77246,0,2.13184-2.21484,4.91992-6.47852,7.79004l-6.64258,4.50977v1.39453c0,3.52539-.08203,4.50977-.08203,5.57617,2.29688.32812,5.98633,1.14746,7.95508,2.21387l2.95117-2.70605c.65625.32812,1.3125,1.22949,1.55859,1.72168-3.93555,3.69043-4.67383,4.42871-6.72461,6.56055-3.77148-2.13184-7.78906-3.28027-11.97168-4.18262.08203-1.63965.16406-3.52539.16406-6.47754v-9.5127c0-2.54199-.08203-4.26367-.16406-5.65723,3.85449-2.87012,11.06934-7.79004,13.94043-9.2666ZM210.12486,281.85339l3.6084-2.45996c2.70605-1.80371,3.44434-2.95117,3.44434-4.42773,0-.90234-.24609-1.88574-1.39453-3.19824l-1.96777-2.13184-1.06543.73828c-1.23047.82031-1.55859,1.06543-2.70703,1.96777.08203,1.55762.08203,3.28027.08203,4.83789v4.67383Z"/>
        <path d="M193.97057,298.66391c-2.95117-1.88574-9.75781-3.77246-14.8418-2.70605-.24609-.41016-.49219-.98438-.57422-1.55762,1.14844-.82031,3.03418-1.72266,5.00195-2.2959v-20.33691h-5.00195c-.24609-.41016-.41016-1.31152-.32812-1.88574l17.71289-15.33398c.65625.49219,1.14844,1.14746,1.47559,1.80371l-5.98535,5.41211c-1.88672,1.63965-2.13281,2.95215-1.96875,5.82227h9.42969c.49219,1.06543.32812,3.03418,0,4.09961h-9.18359v19.59863c1.96875.16406,4.75586.82031,6.47852,1.72168l1.63965-1.55762c.65625.41016,1.14746.9834,1.63965,1.63965-1.96777,1.80371-3.68945,3.52637-5.49414,5.57617Z"/>
        <path d="M174.3739,263.15805c0,2.62402-2.13184,5.24805-4.34668,6.55957,1.96875.65625,2.54297,2.54199,2.54297,3.77246,0,1.06543-.32812,2.45996-1.14844,3.36133,2.13281,1.64062,3.85352,4.01855,3.85352,6.64258,0,2.45996-.90137,4.50977-3.52539,8.2002-2.70605,3.60742-5.6582,6.80566-9.83984,6.80566-1.55859,0-3.28027-.24609-5.9043-1.55762l-1.3125,2.13184c-.7373-.24609-1.39355-.57422-1.96777-1.14844l2.95215-5.24805c-1.23047-1.06543-1.80371-2.62402-1.80371-4.26367,0-1.96777.90137-2.95215,1.80371-3.77246-2.78809-2.62402-3.2793-4.09961-3.2793-6.06738,0-3.11621,1.88477-5.6582,4.01758-8.11816,4.01758-4.5918,6.72461-5.74023,11.64453-5.74023,1.14746,0,2.29492,0,2.86914-.24609.82031-.24609,1.06641-.90234,1.06641-1.39355,0-.90234-.41016-1.39453-1.06641-2.21484.49219-.57324,1.14844-.9834,1.80469-1.39355.65625.57422,1.63965,1.80371,1.63965,3.69043ZM156.16978,288.00378c0,3.52637,3.85352,4.67383,8.60938,4.67383,3.77246,0,5.82227-2.54199,5.82227-4.75586,0-3.3623-2.54102-4.42773-5.24805-6.8877-6.06738,3.19824-9.18359,3.60742-9.18359,6.96973ZM168.38853,277.0155c1.47461-.7373,1.88477-1.88574,1.88477-3.19824,0-1.39355-1.63965-3.44336-5.08398-3.44336-6.96973,0-8.19922,1.55762-8.19922,3.3623,0,2.78711,2.45898,4.50977,4.91992,6.55957l6.47852-3.28027Z"/>
        <path d="M130.17564,294.64633c-2.62402.08203-3.19727.9834-5.41211,4.3457-.57422.08203-1.06641.08203-1.63965,0-.98438-1.80371-2.2959-4.42773-5.33008-5.57617-.08203-.49219-.08203-.90234,0-1.39355,1.88574-.49219,3.44434-1.88672,3.44434-5.16602v-12.62891c0-1.47559-.73828-2.70605-2.21484-2.70605-.32812,0-.90234.08203-1.55762.32812-.41016-.41016-.65625-.90137-.90234-1.47559,2.45996-1.96777,4.6748-3.85449,6.15039-6.80664.41016-.08203.90137-.08203,1.31152,0,.98438,1.96875,2.95312,4.75684,6.64258,5.6582.08203.49219.08203.98438,0,1.47656-1.88672.81934-3.68945,1.55762-3.68945,5.16602v13.20215c0,1.72168.7373,2.45996,1.88477,3.19727l6.31445-.24512c1.64062-.08203,3.03418-1.06641,3.03418-2.62402v-13.77637c0-3.28027-1.55762-4.34668-3.52637-5.00195-.08203-.49219-.08203-.90234,0-1.39453,2.46094-1.39355,4.3457-3.19824,5.98633-5.57617.41016-.08203.90234-.08203,1.3125,0,1.06543,1.80469,2.37695,4.42871,5.41211,5.57617.08203.49219.08203.90234,0,1.39453-1.88672.49219-3.44434,1.88574-3.44434,5.16602v12.62793c0,1.47559.7373,2.70605,2.21387,2.70605.32812,0,.90234-.08203,1.55859-.32812.32715.41016.65527.90234.90137,1.47559-2.78809,2.21484-4.67383,3.85449-6.14941,6.80664-.41016.08203-.90234.08203-1.3125,0-.73828-1.39453-2.2959-3.77246-3.77148-4.75586l-7.2168.32812h-.00002Z"/>
        <path d="M94.91589,270.04575c3.77148-2.0498,7.70801-4.09961,11.48047-5.82227,4.75586,6.88867,7.29688,11.97266,7.29688,17.71191,0,9.02051-4.42773,18.2041-19.92578,34.76855-.65625-.32812-1.47559-.9834-1.88574-1.55762,10.16797-11.23438,15.9082-19.5166,15.9082-27.79883,0-6.96973-4.26465-13.53027-7.54395-17.46582-1.80469.82031-3.6084,1.63965-5.33008,2.62402v19.5166c1.23047.32715,2.2959.65527,3.60742,1.39355l1.64062-1.55762c.65625.49121,1.14844.9834,1.63965,1.63965-1.96777,1.80371-3.69043,3.52637-5.49316,5.57617-2.95312-1.88574-6.47852-3.77246-11.5625-2.70605-.24609-.41016-.49219-.98438-.57422-1.55859,1.3125-.90137,2.78809-1.96777,4.5918-2.62305v-33.21094c0-4.91992-.90234-9.18359-4.18164-11.15234.16406-.57324.32812-1.06543.65625-1.63965,1.72168.41016,3.60742.82031,5.82227,3.03418,1.80273-3.3623,4.67383-5.33008,9.26562-5.33008,1.47559,0,3.19727.32812,4.26367.90234-.08203.57324-.24609,1.14746-.49219,1.72168-6.15039-.49219-9.18359,1.47559-9.18359,9.67578v13.8584Z"/>
        <path d="M65.31335,288.74203v-9.5127c0-2.54199-.08203-4.26367-.16406-5.65723,4.5918-3.19824,9.34863-6.64258,13.8584-9.18457,2.37793,1.88574,3.36133,3.28027,4.75586,6.15039-1.55859,1.31152-3.44434,2.54199-5.33008,3.52539-1.23047-2.21387-2.05078-3.36133-3.28027-4.42773-2.2959,1.47656-3.11621,2.21387-3.77246,2.70605.08203,1.55762.08203,3.28027.08203,4.83789v8.85645c0,3.52539-.08203,4.50977-.08203,5.57617,2.29688.32812,4.75684,1.14746,6.72461,2.21387l2.95215-2.70605c.65527.32812,1.31152,1.22949,1.55762,1.72168-3.93555,3.69043-4.67383,4.42871-6.72363,6.56055-3.77246-2.13184-6.55957-3.28027-10.74219-4.18262.08203-1.63965.16406-3.52539.16406-6.47754Z"/>
        <path d="M55.55651,284.72348c0-5.90332-4.91992-8.69141-10.74219-13.77539l-8.11816,2.54199c-2.37793.7373-4.50977,1.06543-6.39551,1.06543-7.29883,0-11.15234-6.14941-11.15234-10.90625,0-9.42969,10.90625-15.66211,18.36816-15.66211,5.65723,0,12.87402,4.34668,16.39941,4.34668,2.70703,0,4.83789-2.2959,4.83789-5.08398,0-3.11621-1.88477-4.83887-4.42773-4.83887-1.88574,0-3.2793,1.23047-4.18164,2.21484-.65625-.41016-1.23047-.82031-1.72266-1.39453,1.47656-2.13184,3.6084-3.3623,6.06836-3.3623,4.83789,0,7.2168,3.19824,7.2168,7.29883,0,6.55957-6.56055,10.33203-11.48047,10.33203-5.82227,0-12.87402-5.16602-18.61426-5.16602-3.6084,0-6.23145,1.88574-6.23145,6.72363,0,7.70801,5.41211,11.15234,10.08594,11.15234,2.13086,0,3.2793.08203,6.23145-.90234l9.02051-3.11621c5.08398,4.01855,10.49609,8.61035,10.49609,15.00684,0,5.98535-3.6084,9.75781-11.07031,15.08789-2.2959,1.63965-3.85352,2.78809-5.82227,4.26367-6.64258-3.60742-17.13867-14.18555-23.37012-14.18555-2.70605,0-5.08398,1.63965-5.08398,4.75586,0,2.78809,1.88574,4.75586,5.9043,5.24805,0,.90234-.08203,1.63965-.24609,2.21387-3.52637.08203-8.36426-2.0498-8.36426-7.37988,0-4.67383,4.75586-9.10254,11.39844-9.10254,8.36328,0,17.1377,9.02051,23.61523,12.38281,4.51074-3.03418,7.38086-5.24805,7.38086-9.75879Z"/>
        <path d="M101.91882,360.92368h2.06934v-8.45996h-1.91992c-.05957-.33008-.05957-.69043,0-1.02051h6.4502c.05957.33008.05957.69043,0,1.02051h-1.88965v8.45996h2.03906c.06055.3291.06055.68945,0,1.01953h-6.74902c-.05957-.33008-.05957-.69043,0-1.01953h-.00002Z"/>
        <path d="M111.48815,364.10339c0-.81055.41992-1.32031,1.25977-1.32031.66016,0,1.08008.38965,1.08008.92969,0,.36035-.14941.60059-.14941.93066,0,.62988,1.11035.89941,1.88965.89941,3.08984,0,3.62988-2.79004,3.71973-4.8291-.78027.47949-1.7998.86914-2.87988.86914-2.72949,0-5.2793-2.21973-5.2793-5.15918,0-3.15039,2.60938-5.42969,5.2793-5.42969,3.99023,0,5.60938,3.20996,5.60938,6.59961,0,7.0791-3.75,8.78906-6.50977,8.78906s-4.01953-1.16992-4.01953-2.2793h-.00002ZM113.91784,356.18344c0,3.92969,1.29102,4.55957,2.7002,4.55957,2.52051,0,2.66992-2.09961,2.66992-4.22949,0-4.08008-1.64941-4.67969-2.84961-4.67969-1.70996,0-2.52051,1.31934-2.52052,4.34961Z"/>
        <path d="M124.47839,364.10339c0-.81055.41992-1.32031,1.25977-1.32031.66016,0,1.08008.38965,1.08008.92969,0,.36035-.14941.60059-.14941.93066,0,.62988,1.11035.89941,1.88965.89941,3.08984,0,3.62988-2.79004,3.71973-4.8291-.78027.47949-1.7998.86914-2.87988.86914-2.72949,0-5.2793-2.21973-5.2793-5.15918,0-3.15039,2.60938-5.42969,5.2793-5.42969,3.99023,0,5.60938,3.20996,5.60938,6.59961,0,7.0791-3.75,8.78906-6.50977,8.78906s-4.01953-1.16992-4.01953-2.2793h-.00002ZM126.90807,356.18344c0,3.92969,1.29102,4.55957,2.7002,4.55957,2.52051,0,2.66992-2.09961,2.66992-4.22949,0-4.08008-1.64941-4.67969-2.84961-4.67969-1.70996,0-2.52051,1.31934-2.52052,4.34961Z"/>
        <path d="M147.87781,349.13364c0,.81055-.41992,1.32031-1.25977,1.32031-.66016,0-1.08008-.39062-1.08008-.93066,0-.35938.14941-.59961.14941-.92969,0-.62988-1.10938-.89941-1.88867-.89941-3.08984,0-3.63086,2.78906-3.7207,4.8291.78027-.47949,1.80078-.87012,2.88086-.87012,2.72852,0,5.2793,2.2207,5.2793,5.16016,0,3.15039-2.60938,5.42969-5.2793,5.42969-3.99023,0-5.61035-3.20996-5.61035-6.59961,0-7.08008,3.75-8.79004,6.50977-8.79004s4.01953,1.1709,4.01953,2.28027ZM145.4481,357.05356c0-3.92969-1.29004-4.55957-2.7002-4.55957-2.51953,0-2.66992,2.09961-2.66992,4.22949,0,4.08008,1.65039,4.67969,2.84961,4.67969,1.71094,0,2.52051-1.32031,2.52051-4.34961Z"/>
        <path d="M150.27818,354.68344c2.91016.08984,10.34961.08984,13.25977,0,.08984.41992.08984,1.70996,0,2.12988-2.91016-.08984-10.34961-.08984-13.25977,0-.05957-.41992-.05957-1.70996,0-2.12988Z"/>
        <rect width="273.70969" height="392.13342" fill="none"/>
      </g>
    </g>
  </g>
</svg>