<?xml version="1.0" encoding="UTF-8"?>
<svg xmlns="http://www.w3.org/2000/svg" baseProfile="tiny" version="1.2" viewBox="0 0 229.45814 130.83615">
  <!-- Generator: Adobe Illustrator 28.6.0, SVG Export Plug-In . SVG Version: 1.2.0 Build 709)  -->
  <g>
    <g id="Layer_2">
      <rect width="229.45814" height="130.83615" fill="#ffefe3"/>
      <g>
        <path d="M200.06404,92.37045c0,2.38275-.06344,4.32843-.37363,6.15427-1.19138.69086-2.4462,1.31827-3.70102,1.88223-1.69189-1.00809-2.89033-1.57206-4.51877-1.81879v-12.36494c0-3.13705,0-5.90049-1.06448-8.28324-.43707-.06344-.81775-.06344-1.25482,0-1.50861,2.94672-4.20155,3.63757-5.46341,3.76447-.06344.37363-.06344.81775,0,1.19138,1.75535.43707,3.07361,1.81879,3.07361,4.70911v11.23701c-.81775.25378-1.75535.62741-2.76343,1.25482,0,.37363.12689.81775.25378,1.19138,4.01825.12689,5.6467.7543,8.41014,2.63654,2.07257-1.00809,4.14515-2.00912,6.27411-3.13705l.25378.19034c-1.19138,4.32843-3.89136,8.47357-9.91873,15.93906.38067.37363.8812.75431,1.38172,1.00808,10.73648-11.36389,13.99338-19.21006,13.99338-29.31209,0-4.27203-.25377-7.65583-2.26291-10.67304-.43707-.06344-.81775-.06344-1.25482,0-1.38172,2.94672-3.26395,3.63758-5.01929,3.76446-.06344.43707-.06344.81775,0,1.25482,3.63758.7543,3.95481,5.33652,3.95481,9.41822M150.6184,97.77041c-.50052,0-.8812-.19034-1.38172-.56397-.38067.12689-.75431.37363-1.00808.62741.12689,2.07257-.06344,3.51773-.81775,5.08274.12689.37363.38067.69086.62741.94464,3.57413,0,5.33653-2.38275,7.47254-8.28324h.31018c1.19138,3.3274,2.50964,6.5279,5.52686,8.84721,1.38172-1.6355,3.01017-3.2005,4.8924-4.836-.37363-.43707-.75431-.8812-1.25482-1.31827l-1.57205,1.44516c-2.76343-2.88327-4.08169-6.27411-5.33653-9.66495,1.31827-2.95377,1.88223-4.8924,4.20155-4.836.50052,0,.8812.12689,1.38172.56397.31018-.12689.69085-.37363,1.00808-.62741-.12689-2.07257.06344-3.51773.81775-5.08274-.12689-.37363-.37363-.69086-.62741-.94464-3.64462,0-4.7091,2.4462-7.40909,8.53702h-.25378c-1.31827-3.2005-2.89033-6.33756-5.96394-9.03754-1.38172,1.62845-3.01017,3.2005-4.89945,4.836.37363.43707.75431.8812,1.25482,1.31827l1.565-1.44516c3.01017,2.69998,4.45533,6.02738,5.6467,9.35477-1.38172,3.07361-1.81879,5.14618-4.20859,5.08274M124.52092,77.49586c-.8812,1.88223-3.01017,3.45429-4.836,4.70911,1.94568,2.13602,3.63758,3.82791,4.836,5.90049.94464,1.6355,1.25482,2.89032,1.25482,4.45532,0,2.69998-2.00913,5.14618-5.58325,7.97306-1.88223-1.00104-3.76446-1.81879-5.71015-1.57206l-.06344-.19034c1.94568-2.32636,3.45428-3.3274,3.45428-5.77359,0-3.57413-3.57413-6.90152-3.57413-10.6096,0-1.81879.56397-2.82688,2.38276-4.58222-.25378-.37363-.50052-.69086-.81775-1.00104-3.26395,2.07257-6.46445,4.45532-6.46445,7.97306,0,4.77255,4.0817,7.78272,4.0817,10.91977,0,1.94568-1.12793,3.13705-2.89032,5.08274-1.94568-1.12793-5.77359-2.07257-7.90961-2.07257l-.06344-.25378c1.81879-2.00912,3.3274-3.01016,3.3274-5.46341,0-3.57413-2.94672-6.90152-2.94672-10.6096,0-1.81879.56397-2.82688,2.38275-4.58222-.19034-.31018-.50052-.69086-.81775-1.00104-3.26395,2.07257-6.65479,4.77255-6.65479,8.28324,0,4.77255,3.63758,7.47254,3.63758,10.6096,0,2.00912-1.75534,3.2005-3.63758,4.64566,0,.37363.06344.7543.19034,1.12793,3.51773.62741,7.78272,1.6919,10.35581,3.3274,1.00104-1.00104,2.00912-2.07257,3.07361-3.01016,2.89032.62741,4.77255,1.62845,6.96497,3.01016,1.19138-1.19138,2.3193-2.38275,3.57413-3.51773,4.14515-3.89136,7.65583-7.02842,7.65583-11.23701,0-1.81879-.43707-3.70102-1.57205-5.58325-2.3193-3.89136-3.13705-4.0817-2.50964-6.65479-.43707-.19034-.69085-.25378-1.12793-.31018M77.8387,77.49586c-.8812,1.88223-3.45429,3.45429-5.14618,4.77255,1.81879,1.88223,3.95481,3.76446,5.14618,5.83704.94464,1.6355,1.25482,2.89032,1.25482,4.45532,0,2.69998-2.00912,5.14618-5.5903,7.97306-2.07257-1.12793-4.8924-1.94568-6.83808-1.6919l-.06345-.12689c2.31931-2.19947,3.3274-3.2005,3.3274-5.71015,0-3.57413-2.31931-6.90152-2.31931-10.6096,0-1.81879.56396-2.82688,2.38275-4.58222-.19034-.37363-.50052-.7543-.81775-1.00104-3.26395,2.07257-6.65479,4.64566-6.65479,8.15635,0,4.77255,3.63758,7.59238,3.63758,10.73649,0,2.00912-1.75534,3.2005-3.63758,4.64566,0,.37363.06345.7543.19034,1.12793,3.51773.62741,6.5279,1.6919,9.10099,3.3274,1.19138-1.19138,2.31931-2.38275,3.58118-3.51773,4.14514-3.89136,7.65583-7.02842,7.65583-11.23701,0-1.81879-.43707-3.70102-1.57206-5.58325-2.31931-3.89136-3.13705-4.0817-2.50964-6.65479-.43707-.19034-.69086-.25378-1.12793-.31018M38.62197,85.72271c0,.8812-.06345,2.07257-1.6919,3.2005l-5.08274,3.58118v-8.41013c1.44516-.81775,2.89032-1.6355,4.32843-2.25586,1.38171,1.19138,2.4462,2.13602,2.4462,3.89136M43.70471,104.48865c1.38172-1.57206,2.69998-2.89032,4.20859-4.26499-.37363-.50052-.7543-.8812-1.25482-1.25482l-1.25482,1.19138c-2.13602-2.13602-3.82791-6.5279-5.14618-11.61063,2.69998-1.88223,3.26395-3.70102,3.26395-5.52686,0-2.00912-2.07257-3.45429-3.70102-5.20963-2.82688,1.31827-5.27307,2.82688-7.97306,4.39188v-10.54615c0-6.27411,2.31931-7.78272,7.02842-7.40909.19034-.43707.31018-.8812.37363-1.31827-.81775-.43707-2.13602-.69086-3.26395-.69086-3.51773,0-5.71015,1.50861-7.09186,4.0817-1.6919-1.6919-3.13706-2.00912-4.45532-2.31931-.25378.43707-.37363.81775-.50052,1.25482,2.50964,1.50861,3.2005,4.77255,3.2005,8.53702v25.42073c-1.38171.50052-2.50964,1.25482-3.51773,2.00912.06345.37363.25378.81775.43707,1.19138,3.89136-.81775,5.6467.62741,7.90961,2.07257,1.38171-1.57206,2.50965-2.69998,4.01825-4.0817-.37363-.50052-.7543-.8812-1.25482-1.25482l-1.06448,1.00104c-.81775-.43707-1.31827-.7543-1.81879-.94464v-4.64566l4.58222-3.26395c1.38171,6.71823,3.32739,10.85633,7.2822,13.18269" fill="#232348"/>
        <path d="M185.62654,38.32849v13.74665c-1.38172.50052-2.50964,1.25482-3.51774,2.00912.06344.43707.25378.8812.43707,1.19138,3.89136-.81775,6.59135.62741,8.84721,2.07257,1.38172-1.57205,2.69998-2.89032,4.20155-4.27204-.37363-.50052-.75431-.8812-1.25482-1.25482l-1.25482,1.19138c-1.00808-.56396-1.81879-.81775-2.76343-1.06448v-14.81114c1.75535-.7543,4.27203-1.57205,6.27411-2.31931,2.38276,2.94672,5.01929,7.21875,5.01929,10.72944,0,8.21979-5.83704,15.50199-13.61976,24.10246.31018.43707.94464.94464,1.44516,1.19138,11.86442-12.68216,16.38319-20.2111,16.38319-27.74003,0-3.76447-.75431-6.46445-5.08274-12.23804-2.63654,1.19138-6.46445,2.63654-9.47462,3.95481-1.50861-1.06448-2.76343-3.2005-3.51774-4.64566-.43707-.06345-.81775-.06345-1.25482,0-.8812,2.25586-2.57309,3.57413-4.7091,5.27307.12689.43707.38067.7543.62741,1.06448.50052-.19034.93759-.25378,1.19138-.25378,1.12793,0,2.00913.93759,2.00913,2.07257M153.24083,54.2746c2.13602,0,4.39188,1.12793,7.09186,3.07361,1.38172-1.57205,2.69998-2.89032,4.20155-4.27204-.37363-.50052-.75431-.93759-1.25482-1.25482l-1.25482,1.19138c-1.44516-.7543-3.76446-1.25482-5.27307-1.31827v-14.87458l.75431-.31018c1.44516-.56396,1.75535-.50052,2.26291-.50052,1.69189,0,2.4462,1.25482,2.82687,3.2005.43707.06345.81775.06345,1.25482,0,.43707-1.44516,2.38276-3.01016,4.08169-3.76447.06344-.43707.06344-.81775,0-1.25482-2.00913-.7543-2.57309-1.75534-3.13705-3.95481-.37363-.06345-.75431-.06345-1.12793,0-1.38172,2.4462-3.3274,3.39084-6.15427,4.39188-1.44516-1.06448-2.63654-3.01016-3.3274-4.45532-.43707-.06345-.81775-.06345-1.25482,0-.8812,2.25586-2.57309,3.57413-4.7091,5.27307.12689.43707.37363.7543.62741,1.06448.50052-.19034.94464-.25378,1.19138-.25378,1.12793,0,2.00913.93759,2.00913,2.07257v13.74665c-3.57413,1.31827-6.27411,4.77256-6.27411,9.47462,0,5.83704,3.39084,8.53702,7.47254,8.53702,2.19946,0,6.21066-1.25482,6.21066-5.51981,0-2.82688-1.88223-4.14514-3.45428-4.14514-1.31827,0-3.07361.62741-3.07361,2.89032,0,1.50861,1.31827,2.26291,2.19946,2.26291.62741,0,1.00808-.25378,1.44516-.25378s.62741.25378.62741.7543c0,1.06449-1.12793,2.38275-3.89136,2.38275s-5.6467-1.88223-5.6467-6.90152,2.63654-7.2822,5.58325-7.2822M120.53791,35.81884l2.57309-1.38172c1.50861,1.94568,2.76343,3.51773,3.76446,5.27307.94464,1.6355,1.12793,2.94672,1.12793,4.51877,0,2.69998-1.94568,6.21067-5.52686,9.16443-1.57205-.8812-3.45428-1.50861-5.08274-1.6919v-12.30149c0-2.13602.69085-2.26291,3.13705-3.57413M124.36582,54.14771c4.14515-3.89136,7.65583-7.02842,7.65583-12.49183,0-2.4462-.69085-4.0817-1.94568-5.83704-2.3193-3.2005-2.69998-3.76447-3.76446-5.20963-1.38172.8812-4.32843,2.69998-6.83808,4.14514-1.94568-.94464-2.82687-2.76343-3.45428-4.20859-.31723-.06345-.69085-.06345-1.06448,0-1.31827,2.00913-3.07361,3.51773-5.46341,3.70102l-4.26499.19034c-1.19138-.81775-2.38275-2.76343-3.01016-4.27204-.37363-.06345-.69086-.06345-1.06449,0-.43707,1.19138-1.38171,3.63758-2.89032,3.63758-.8812,0-1.62845-.69086-1.62845-1.94568,0-.62741.12689-1.06448.56397-1.94568-.37363-.19034-.81775-.37363-1.31827-.43707-.56397.8812-.8812,1.81879-.8812,2.69998,0,4.14514,4.64566,3.26395,4.64566,7.40909v8.72736c0,2.13602-.7543,2.82687-2.63654,3.51773-.06344.37363-.06344.7543,0,1.12793,2.31931.8812,3.76447,2.69998,4.45532,4.27204.37363.06345.81775.06345,1.19138,0,.94464-1.81879,1.6355-3.2005,4.0817-4.0817.06344-.43707.06344-.81775,0-1.25482-1.81879-.38068-2.69998-1.31827-2.69998-3.82791v-8.66392c0-1.50861.37363-3.01016,3.3274-3.26395l3.89136-.19034c.7543.31723,1.75534,1.12793,1.75534,2.76343v9.85529c0,1.75534-.8812,2.69998-2.82688,3.3274-.06344.43707-.06344.81775,0,1.25482,4.95584.8812,8.0365,2.89032,10.6096,4.51877,1.19138-1.19138,2.3193-2.38275,3.57413-3.51773M68.75181,45.67413c0-2.69998-1.62845-5.58326-2.4462-8.41013l6.40101-3.26395c1.6919,2.07257,3.26395,3.70102,4.32843,5.51981.94464,1.6355,1.31827,3.51773,1.25482,5.08274-.12689,2.69998-1.81879,5.90048-5.39996,8.79081-2.07257-1.06448-5.01929-1.88223-6.96497-1.75534,1.81879-2.26291,2.82687-3.45429,2.82687-5.96393M74.84263,54.14771c4.14514-3.89136,7.40909-8.47358,7.40909-12.99235,0-4.836-4.39188-8.47358-6.02738-10.73649l-10.22892,5.46341c-.06345-.50052-.12689-.93759-.12689-1.44516,0-1.81879.8812-3.32739,2.69998-4.836-.19034-.38068-.50052-.7543-.81775-1.00809-3.26395,2.07257-6.09082,4.8924-6.09082,8.41013,0,4.77256,3.3274,8.21979,3.3274,11.3639,0,2.00912-1.75534,3.39084-3.63758,4.82895,0,.38068.06345.7543.19034,1.12793,3.51773.62741,7.15531,1.6919,9.7284,3.3274,1.19138-1.19138,2.31931-2.38275,3.57413-3.51773M37.36715,29.60817c0,.7543-.12689,1.57205-1.31827,2.26291l-3.51773,2.00913v-5.83704l3.26395-1.75534c1.12793,1.38172,1.57205,2.63654,1.57205,3.32739M24.56514,37.01022h3.26395v15.3751c-1.38171.50052-2.50964,1.25482-3.51773,2.00912.06345.37363.25378.81775.43707,1.19138,3.89136-.81775,8.34668.62741,10.6096,2.07257,1.38171-1.57205,2.69998-2.89032,4.20859-4.26499-.37363-.50052-.7543-.8812-1.25482-1.25482l-1.25482,1.19138c-1.12793-.62741-2.94672-.93759-4.51877-1.12793v-15.19181h8.41013c.06345-.56396.06345-1.19138,0-1.75534h-7.59238v-.19034l4.77256-2.57309c1.57205-.8812,3.70102-2.07257,3.70102-4.45532,0-1.44516-1.19138-3.2005-2.76343-5.39997-2.07257,1.19138-4.26499,2.50964-6.5279,3.63758v-2.26291c0-4.01825,2.57309-6.14722,5.83704-6.14722.7543,0,2.13602.19034,3.51773.8812.31018-.43707.62741-.8812.81775-1.44516-1.45221-1.00104-3.33444-1.50156-4.77961-1.50156-3.76447,0-6.65479,1.6919-8.34668,4.95584-1.75534-2.50965-3.01721-3.13706-4.64566-4.01825-.43707.43707-.7543.8812-1.06448,1.44516,3.26395,2.4462,3.95481,2.95377,3.95481,9.22788v7.84617h-3.26395c-.06345.56396-.06345,1.19138,0,1.75534" fill="#232348"/>
      </g>
    </g>
  </g>
</svg>