<?xml version="1.0" encoding="UTF-8"?><svg id="Layer_2" xmlns="http://www.w3.org/2000/svg" viewBox="0 0 501.6 144.86"><g id="Layer_1-2"><path d="M1.34,27.6h4.63v-11.13C5.97,7.57,4.99,6.86.36,3.38c.45-.8.89-1.42,1.51-2.05,2.31,1.25,4.1,2.14,6.59,5.7C10.86,2.4,14.96,0,20.3,0c2.05,0,4.72.71,6.77,2.14-.27.8-.71,1.42-1.16,2.05-1.96-.98-3.92-1.25-4.99-1.25-4.63,0-8.28,3.03-8.28,8.73v3.21c3.21-1.6,6.32-3.47,9.26-5.16,2.23,3.12,3.92,5.61,3.92,7.66,0,3.38-3.03,5.07-5.25,6.32l-6.77,3.65v.27h10.77c.09.8.09,1.69,0,2.49h-11.93v21.55c2.23.27,4.81.71,6.41,1.6l1.78-1.69c.71.53,1.25,1.07,1.78,1.78-2.14,1.96-4.01,3.83-5.97,6.05-3.21-2.05-9.53-4.1-15.05-2.94-.27-.53-.53-1.16-.62-1.69,1.42-1.07,3.03-2.14,4.99-2.85v-21.81H1.34c-.09-.8-.09-1.69,0-2.49ZM17.27,14.87l-4.63,2.49v8.28l4.99-2.85c1.69-.98,1.87-2.14,1.87-3.21,0-.98-.62-2.76-2.23-4.72Z"/><path d="M124.8,59.39c-3.65-2.32-8.81-3.83-13.8-4.72-.18-.53-.27-1.07-.27-1.6,2.67-2.05,5.16-4.01,5.16-6.86,0-4.45-4.72-9.35-4.72-16.12,0-4.99,4.01-8.99,8.64-11.93.45.36.89.89,1.16,1.42-2.58,2.14-3.83,4.27-3.83,6.86,0,.71.09,1.34.18,2.05l14.51-7.75c2.31,3.21,8.55,8.37,8.55,15.23,0,6.41-4.63,12.91-10.51,18.43-1.78,1.6-3.38,3.29-5.08,4.99ZM117.23,50.84c2.76-.18,6.94.98,9.88,2.49,5.08-4.1,7.48-8.64,7.66-12.46.09-2.23-.45-4.9-1.78-7.21-1.51-2.58-3.74-4.9-6.14-7.83l-9.08,4.63c1.16,4.01,3.47,8.1,3.47,11.93,0,3.56-1.42,5.25-4.01,8.46Z"/><path d="M258.5,59.39c-3.65-2.32-8.01-5.16-15.05-6.41-.09-.62-.09-1.16,0-1.78,2.76-.89,4.01-2.23,4.01-4.72v-13.98c0-2.32-1.42-3.47-2.49-3.92l-5.52.27c-4.18.36-4.72,2.49-4.72,4.63v12.29c0,3.56,1.25,4.9,3.83,5.43.09.62.09,1.16,0,1.78-3.47,1.25-4.45,3.21-5.79,5.79-.53.09-1.16.09-1.69,0-.98-2.23-3.03-4.81-6.32-6.05-.09-.53-.09-1.07,0-1.6,2.67-.98,3.74-1.96,3.74-4.99v-12.38c0-5.88-6.59-4.63-6.59-10.51,0-1.25.45-2.58,1.25-3.83.71.09,1.34.36,1.87.62-.62,1.25-.8,1.87-.8,2.76,0,1.78,1.07,2.76,2.31,2.76,2.14,0,3.47-3.47,4.1-5.16.53-.09.98-.09,1.51,0,.89,2.14,2.58,4.9,4.27,6.05l6.05-.27c3.38-.27,5.88-2.4,7.75-5.25.53-.09,1.07-.09,1.51,0,.89,2.05,2.14,4.63,4.9,5.96,3.56-2.05,7.75-4.63,9.71-5.88,1.51,2.05,2.05,2.85,5.34,7.39,1.78,2.49,2.76,4.81,2.76,8.28,0,7.75-4.99,12.2-10.86,17.72-1.78,1.6-3.38,3.29-5.08,4.99ZM253.69,33.48v17.45c2.31.27,4.99,1.16,7.21,2.4,5.07-4.18,7.83-9.17,7.83-13,0-2.23-.27-4.1-1.6-6.41-1.42-2.49-3.21-4.72-5.34-7.48l-3.65,1.96c-3.47,1.87-4.45,2.05-4.45,5.08Z"/><path d="M357.39,64.91c0,7.12,4.1,9.79,8.01,9.79s5.52-1.87,5.52-3.38c0-.71-.27-1.07-.89-1.07s-1.16.36-2.05.36c-1.25,0-3.12-1.07-3.12-3.21,0-3.21,2.49-4.1,4.36-4.1,2.23,0,4.9,1.87,4.9,5.88,0,6.05-5.7,7.83-8.81,7.83-5.79,0-10.6-3.83-10.6-12.11,0-6.68,3.83-11.57,8.9-13.44v-19.5c0-1.6-1.25-2.94-2.85-2.94-.36,0-.98.09-1.69.36-.36-.45-.71-.89-.89-1.51,3.03-2.4,5.43-4.27,6.68-7.48.62-.09,1.16-.09,1.78,0,.98,2.05,2.67,4.81,4.72,6.32,4.01-1.42,6.77-2.76,8.73-6.23.53-.09,1.07-.09,1.6,0,.8,3.12,1.6,4.54,4.45,5.61.09.62.09,1.16,0,1.78-2.4,1.07-5.16,3.29-5.79,5.34-.62.09-1.16.09-1.78,0-.53-2.76-1.6-4.54-4.01-4.54-.71,0-1.16-.09-3.21.71l-1.07.45v21.1c2.14.09,5.43.8,7.48,1.87l1.78-1.69c.71.45,1.25,1.07,1.78,1.78-2.14,1.96-4.01,3.83-5.97,6.05-3.83-2.76-7.03-4.36-10.06-4.36-4.18,0-7.92,3.12-7.92,10.33Z"/><path d="M470.08,29.03c-.36,0-.98.09-1.69.36-.36-.45-.71-.89-.89-1.51,3.03-2.4,5.43-4.27,6.68-7.48.62-.09,1.16-.09,1.78,0,1.07,2.05,2.85,5.07,4.99,6.59,4.27-1.87,9.71-3.92,13.44-5.61,6.14,8.19,7.21,12.02,7.21,17.36,0,10.68-6.41,21.37-23.24,39.35-.71-.36-1.6-1.07-2.05-1.69,11.04-12.2,19.32-22.53,19.32-34.19,0-4.99-3.74-11.04-7.12-15.23-2.85,1.07-6.41,2.23-8.9,3.29v21.01c1.34.36,2.49.71,3.92,1.51l1.78-1.69c.71.53,1.25,1.07,1.78,1.78-2.14,1.96-4.01,3.83-5.97,6.05-3.21-2.05-7.03-4.1-12.55-2.94-.27-.45-.53-1.07-.62-1.69,1.42-1.07,3.03-2.14,4.99-2.85v-19.5c0-1.6-1.25-2.94-2.85-2.94Z"/><path d="M18.16,107.11l-6.5,4.63v6.59c.71.27,1.42.71,2.58,1.34l1.51-1.42c.71.53,1.25,1.07,1.78,1.78-2.14,1.96-3.74,3.56-5.7,5.79-3.21-2.05-5.7-4.09-11.22-2.94-.27-.53-.53-1.16-.62-1.69,1.42-1.07,3.03-2.14,4.99-2.85v-36.06c0-5.34-.98-9.97-4.54-12.11.18-.62.36-1.16.71-1.78,1.87.44,3.92.89,6.32,3.29,1.96-3.65,5.07-5.79,10.06-5.79,1.6,0,3.47.36,4.63.98-.09.62-.27,1.25-.53,1.87-6.68-.53-9.97,1.6-9.97,10.51v14.96c3.83-2.23,7.3-4.36,11.31-6.23,2.31,2.49,5.25,4.54,5.25,7.39,0,2.58-.8,5.16-4.63,7.83,1.87,7.21,4.27,13.44,7.3,16.47l1.78-1.69c.71.53,1.25,1.07,1.78,1.78-2.14,1.96-4.01,3.83-5.97,6.05-5.61-3.29-8.37-9.17-10.33-18.7ZM17.81,93.67c-2.05.89-4.1,2.05-6.14,3.21v11.93l7.21-5.08c2.31-1.6,2.4-3.29,2.4-4.54,0-2.49-1.51-3.83-3.47-5.52Z"/><path d="M141.52,87.97c-.89,3.65.27,3.92,3.56,9.44,1.6,2.67,2.23,5.34,2.23,7.92,0,5.96-4.99,10.42-10.86,15.94-1.78,1.6-3.38,3.29-5.08,4.99-3.65-2.31-7.92-3.83-12.91-4.72-.18-.53-.27-1.07-.27-1.6,2.67-2.05,5.16-3.74,5.16-6.59,0-4.45-5.16-8.46-5.16-15.22,0-4.99,4.81-8.64,9.44-11.57.45.36.89.89,1.16,1.42-2.58,2.49-3.38,3.92-3.38,6.5,0,5.25,3.29,9.97,3.29,15.05,0,3.56-1.42,4.99-4.72,8.1l.09.18c2.76-.36,6.77.8,9.71,2.4,5.07-4.01,7.92-7.48,7.92-11.31,0-2.23-.45-4.01-1.78-6.32-1.69-2.94-4.72-5.61-7.3-8.28,2.4-1.87,6.05-4.1,7.3-6.77.62.09.98.18,1.6.44Z"/><path d="M271.63,87.97c-.89,3.65.27,3.92,3.56,9.44,1.6,2.67,2.23,5.34,2.23,7.92,0,5.96-4.99,10.42-10.86,15.94-1.78,1.6-3.38,3.29-5.08,4.99-3.12-1.96-5.79-3.38-9.88-4.27-1.51,1.34-2.94,2.85-4.36,4.27-3.65-2.31-9.7-3.83-14.69-4.72-.18-.53-.27-1.07-.27-1.6,2.67-2.05,5.16-3.74,5.16-6.59,0-4.45-5.16-8.28-5.16-15.05,0-4.99,4.81-8.81,9.44-11.75.45.44.89.98,1.16,1.42-2.58,2.49-3.38,3.92-3.38,6.5,0,5.25,4.18,9.97,4.18,15.05,0,3.47-2.14,4.9-4.72,7.75l.09.36c3.03,0,8.46,1.33,11.22,2.94,2.49-2.76,4.1-4.45,4.1-7.21,0-4.45-5.79-8.72-5.79-15.49,0-4.99,4.54-8.37,9.17-11.31.44.44.8.89,1.16,1.42-2.58,2.49-3.38,3.92-3.38,6.5,0,5.25,5.08,9.97,5.08,15.05,0,3.47-2.14,4.9-4.9,8.19l.09.27c2.76-.36,5.43.8,8.1,2.23,5.08-4.01,7.92-7.48,7.92-11.31,0-2.23-.45-4.01-1.78-6.32-1.69-2.94-4.1-5.34-6.86-8.37,2.58-1.78,5.61-4.01,6.86-6.68.62.09.98.18,1.6.44Z"/><path d="M371.57,109.07c-1.69-4.72-3.74-9.44-8.01-13.27l-2.23,2.05c-.71-.62-1.25-1.25-1.78-1.87,2.67-2.32,4.99-4.54,6.94-6.86,4.36,3.83,6.59,8.28,8.46,12.82h.36c3.83-8.64,5.34-12.11,10.51-12.11.36.36.71.8.89,1.34-1.07,2.23-1.34,4.27-1.16,7.21-.45.36-.98.71-1.42.89-.71-.62-1.25-.8-1.96-.8-3.29-.09-4.1,2.67-5.97,6.86,1.78,4.81,3.65,9.62,7.57,13.71l2.23-2.05c.71.62,1.25,1.25,1.78,1.87-2.67,2.31-4.99,4.54-6.94,6.86-4.27-3.29-6.14-7.83-7.83-12.55h-.45c-3.03,8.37-5.52,11.75-10.6,11.75-.36-.36-.71-.8-.89-1.34,1.07-2.23,1.34-4.27,1.16-7.21.36-.36.89-.71,1.42-.89.71.54,1.25.8,1.96.8,3.38.09,4.01-2.85,5.97-7.21Z"/><path d="M487.8,95.27c-.09-.62-.09-1.16,0-1.78,2.49-.18,5.16-1.16,7.12-5.34.62-.09,1.16-.09,1.78,0,2.85,4.27,3.21,9.08,3.21,15.14,0,14.33-4.63,25.46-19.85,41.58-.71-.36-1.42-.89-1.96-1.42,8.55-10.59,12.38-16.47,14.07-22.61l-.36-.27c-3.03,1.6-5.97,3.03-8.9,4.45-3.92-2.67-6.23-3.56-11.93-3.74-.18-.53-.36-1.16-.36-1.69,1.42-.89,2.76-1.42,3.92-1.78v-15.94c0-4.1-1.87-6.05-4.36-6.68-.09-.53-.09-1.16,0-1.69,1.78-.18,5.61-1.16,7.75-5.34.62-.09,1.16-.09,1.78,0,1.51,3.38,1.51,7.3,1.51,11.75v17.54c2.31.36,4.01,1.16,6.41,2.58,1.78-.8,3.56-1.69,5.25-2.67.45-2.58.53-5.34.53-8.73,0-5.79-.44-12.29-5.61-13.36Z"/></g></svg>