<?xml version="1.0" encoding="UTF-8"?><svg id="Layer_2" xmlns="http://www.w3.org/2000/svg" xmlns:xlink="http://www.w3.org/1999/xlink" viewBox="0 0 258.48 144.86"><defs><style>.cls-1{fill:none;}.cls-2{clip-path:url(#clippath);}</style><clipPath id="clippath"><rect class="cls-1" width="258.48" height="144.86"/></clipPath></defs><g id="Layer_1-2"><g class="cls-2"><path d="M250.29,108.62c0,3.38-.09,6.14-.53,8.73-1.69.98-3.47,1.87-5.25,2.67-2.4-1.43-4.1-2.23-6.41-2.58v-17.54c0-4.45,0-8.37-1.51-11.75-.62-.09-1.16-.09-1.78,0-2.14,4.18-5.96,5.16-7.75,5.34-.09.53-.09,1.16,0,1.69,2.49.62,4.36,2.58,4.36,6.68v15.94c-1.16.36-2.49.89-3.92,1.78,0,.53.18,1.16.36,1.69,5.7.18,8.01,1.07,11.93,3.74,2.94-1.43,5.88-2.85,8.9-4.45l.36.27c-1.69,6.14-5.52,12.02-14.07,22.61.54.53,1.25,1.07,1.96,1.43,15.23-16.12,19.85-27.25,19.85-41.58,0-6.06-.36-10.86-3.21-15.14-.62-.09-1.16-.09-1.78,0-1.96,4.18-4.63,5.16-7.12,5.34-.09.62-.09,1.16,0,1.78,5.16,1.07,5.61,7.57,5.61,13.36M180.15,116.28c-.71,0-1.25-.27-1.96-.8-.54.18-1.07.53-1.43.89.18,2.94-.09,4.99-1.16,7.21.18.53.54.98.89,1.34,5.07,0,7.57-3.38,10.6-11.75h.44c1.69,4.72,3.56,9.26,7.84,12.55,1.96-2.32,4.27-4.54,6.94-6.86-.53-.62-1.07-1.25-1.78-1.87l-2.23,2.05c-3.92-4.09-5.79-8.9-7.57-13.71,1.87-4.19,2.67-6.94,5.96-6.86.71,0,1.25.18,1.96.8.44-.18.98-.53,1.43-.89-.18-2.94.09-4.99,1.16-7.21-.18-.53-.53-.98-.89-1.34-5.17,0-6.68,3.47-10.51,12.11h-.36c-1.87-4.54-4.1-8.99-8.46-12.82-1.96,2.31-4.27,4.54-6.95,6.86.53.62,1.07,1.25,1.78,1.87l2.22-2.05c4.27,3.83,6.32,8.55,8.01,13.27-1.96,4.36-2.58,7.3-5.97,7.21M143.13,87.52c-1.25,2.67-4.27,4.9-6.86,6.68,2.76,3.03,5.16,5.43,6.86,8.37,1.34,2.32,1.78,4.1,1.78,6.32,0,3.83-2.85,7.3-7.92,11.31-2.67-1.42-5.34-2.58-8.1-2.23l-.09-.27c2.76-3.3,4.9-4.72,4.9-8.19,0-5.07-5.07-9.79-5.07-15.05,0-2.58.8-4.01,3.38-6.5-.36-.53-.71-.98-1.16-1.42-4.63,2.94-9.17,6.32-9.17,11.31,0,6.77,5.79,11.04,5.79,15.49,0,2.76-1.6,4.45-4.1,7.21-2.76-1.6-8.19-2.94-11.22-2.94l-.09-.36c2.58-2.85,4.72-4.27,4.72-7.75,0-5.07-4.18-9.79-4.18-15.05,0-2.58.8-4.01,3.38-6.5-.27-.44-.71-.98-1.16-1.42-4.63,2.94-9.44,6.77-9.44,11.75,0,6.77,5.16,10.6,5.16,15.05,0,2.85-2.49,4.54-5.16,6.59,0,.53.09,1.07.27,1.6,4.99.89,11.04,2.4,14.69,4.72,1.42-1.42,2.85-2.94,4.36-4.27,4.1.89,6.77,2.31,9.88,4.27,1.69-1.69,3.29-3.38,5.07-4.99,5.88-5.52,10.86-9.97,10.86-15.94,0-2.58-.62-5.25-2.23-7.92-3.29-5.52-4.45-5.79-3.56-9.44-.62-.27-.98-.36-1.6-.44M76.91,87.52c-1.25,2.67-4.9,4.9-7.3,6.77,2.58,2.67,5.61,5.34,7.3,8.28,1.34,2.32,1.78,4.1,1.78,6.32,0,3.83-2.85,7.3-7.93,11.31-2.94-1.6-6.94-2.76-9.7-2.4l-.09-.18c3.29-3.12,4.72-4.54,4.72-8.1,0-5.07-3.29-9.79-3.29-15.05,0-2.58.8-4.01,3.38-6.5-.27-.53-.71-1.07-1.16-1.42-4.63,2.94-9.44,6.59-9.44,11.57,0,6.77,5.16,10.77,5.16,15.23,0,2.85-2.49,4.54-5.16,6.59,0,.53.09,1.07.27,1.6,4.99.89,9.26,2.4,12.91,4.72,1.69-1.69,3.29-3.38,5.08-4.99,5.88-5.52,10.86-9.97,10.86-15.94,0-2.58-.62-5.25-2.23-7.92-3.29-5.52-4.45-5.79-3.56-9.44-.62-.27-.98-.36-1.6-.44M21.28,99.19c0,1.25-.09,2.94-2.4,4.54l-7.21,5.08v-11.93c2.05-1.16,4.1-2.32,6.14-3.2,1.96,1.69,3.47,3.03,3.47,5.52M28.49,125.81c1.96-2.23,3.83-4.1,5.97-6.05-.53-.71-1.07-1.25-1.78-1.78l-1.78,1.69c-3.03-3.03-5.43-9.26-7.3-16.47,3.83-2.67,4.63-5.25,4.63-7.84,0-2.85-2.94-4.9-5.25-7.39-4.01,1.87-7.48,4.01-11.31,6.23v-14.96c0-8.9,3.29-11.04,9.97-10.51.27-.62.44-1.25.53-1.87-1.16-.62-3.03-.98-4.63-.98-4.99,0-8.1,2.14-10.06,5.79-2.4-2.4-4.45-2.85-6.32-3.29-.36.62-.53,1.16-.71,1.78,3.56,2.14,4.54,6.77,4.54,12.11v36.06c-1.96.71-3.56,1.78-4.99,2.85.09.53.36,1.16.62,1.69,5.52-1.16,8.01.89,11.22,2.94,1.96-2.23,3.56-3.83,5.7-5.79-.53-.71-1.07-1.25-1.78-1.78l-1.51,1.42c-1.16-.62-1.87-1.07-2.58-1.34v-6.59l6.5-4.63c1.96,9.53,4.72,15.4,10.33,18.7"/><path d="M229.81,31.96v19.5c-1.96.71-3.56,1.78-4.99,2.85.09.62.36,1.25.62,1.69,5.52-1.16,9.35.89,12.55,2.94,1.96-2.23,3.83-4.1,5.96-6.06-.53-.71-1.07-1.25-1.78-1.78l-1.78,1.69c-1.43-.8-2.58-1.16-3.92-1.51v-21.01c2.49-1.07,6.06-2.23,8.9-3.29,3.38,4.18,7.12,10.24,7.12,15.22,0,11.66-8.28,21.99-19.32,34.19.44.62,1.34,1.34,2.05,1.69,16.83-17.99,23.24-28.67,23.24-39.35,0-5.34-1.07-9.17-7.21-17.36-3.74,1.69-9.17,3.74-13.44,5.61-2.14-1.51-3.92-4.54-4.99-6.59-.62-.09-1.16-.09-1.78,0-1.25,3.2-3.65,5.07-6.68,7.48.18.62.54,1.07.89,1.51.71-.27,1.33-.36,1.69-.36,1.6,0,2.85,1.33,2.85,2.94M183.87,54.58c3.03,0,6.23,1.6,10.06,4.36,1.96-2.23,3.83-4.1,5.96-6.06-.53-.71-1.07-1.33-1.78-1.78l-1.78,1.69c-2.05-1.07-5.34-1.78-7.48-1.87v-21.1l1.07-.44c2.05-.8,2.49-.71,3.21-.71,2.4,0,3.47,1.78,4.01,4.54.62.09,1.16.09,1.78,0,.62-2.05,3.38-4.27,5.79-5.34.09-.62.09-1.16,0-1.78-2.85-1.07-3.65-2.49-4.45-5.61-.53-.09-1.07-.09-1.6,0-1.96,3.47-4.72,4.81-8.73,6.23-2.05-1.51-3.74-4.27-4.72-6.32-.62-.09-1.16-.09-1.78,0-1.25,3.2-3.65,5.07-6.68,7.48.18.62.53,1.07.89,1.51.71-.27,1.34-.36,1.69-.36,1.6,0,2.85,1.33,2.85,2.94v19.5c-5.07,1.87-8.9,6.77-8.9,13.44,0,8.28,4.81,12.11,10.6,12.11,3.12,0,8.81-1.78,8.81-7.83,0-4.01-2.67-5.88-4.9-5.88-1.87,0-4.36.89-4.36,4.1,0,2.14,1.87,3.21,3.12,3.21.89,0,1.43-.36,2.05-.36s.89.36.89,1.07c0,1.51-1.6,3.38-5.52,3.38s-8.01-2.67-8.01-9.79,3.74-10.33,7.92-10.33M137.48,28.4l3.65-1.96c2.14,2.76,3.92,4.99,5.34,7.48,1.34,2.32,1.6,4.18,1.6,6.41,0,3.83-2.76,8.81-7.84,13-2.23-1.25-4.9-2.14-7.21-2.4v-17.45c0-3.03.98-3.21,4.45-5.07M142.91,54.4c5.88-5.52,10.86-9.97,10.86-17.72,0-3.47-.98-5.79-2.76-8.28-3.29-4.54-3.83-5.34-5.34-7.39-1.96,1.25-6.14,3.83-9.7,5.88-2.76-1.34-4.01-3.92-4.9-5.97-.45-.09-.98-.09-1.51,0-1.87,2.85-4.36,4.99-7.75,5.25l-6.05.27c-1.69-1.16-3.38-3.92-4.27-6.06-.53-.09-.98-.09-1.51,0-.62,1.69-1.96,5.16-4.1,5.16-1.25,0-2.31-.98-2.31-2.76,0-.89.18-1.51.8-2.76-.53-.27-1.16-.53-1.87-.62-.8,1.25-1.25,2.58-1.25,3.83,0,5.88,6.59,4.63,6.59,10.51v12.38c0,3.03-1.07,4.01-3.74,4.99-.09.53-.09,1.07,0,1.6,3.29,1.25,5.34,3.83,6.32,6.06.53.09,1.16.09,1.69,0,1.34-2.58,2.32-4.54,5.79-5.79.09-.62.09-1.16,0-1.78-2.58-.54-3.83-1.87-3.83-5.43v-12.29c0-2.14.53-4.27,4.72-4.63l5.52-.27c1.07.45,2.49,1.6,2.49,3.92v13.98c0,2.49-1.25,3.83-4.01,4.72-.09.62-.09,1.16,0,1.78,7.03,1.25,11.4,4.1,15.05,6.41,1.69-1.69,3.29-3.38,5.07-4.99M64.02,42.38c0-3.83-2.31-7.92-3.47-11.93l9.08-4.63c2.4,2.94,4.63,5.25,6.14,7.83,1.34,2.32,1.87,4.99,1.78,7.21-.18,3.83-2.58,8.37-7.66,12.47-2.94-1.51-7.12-2.67-9.88-2.49,2.58-3.21,4.01-4.9,4.01-8.46M72.66,54.4c5.88-5.52,10.51-12.02,10.51-18.43,0-6.86-6.23-12.02-8.55-15.23l-14.51,7.75c-.09-.71-.18-1.33-.18-2.05,0-2.58,1.25-4.72,3.83-6.86-.27-.54-.71-1.07-1.16-1.43-4.63,2.94-8.64,6.94-8.64,11.93,0,6.77,4.72,11.66,4.72,16.12,0,2.85-2.49,4.81-5.16,6.85,0,.54.09,1.07.27,1.6,4.99.89,10.15,2.4,13.8,4.72,1.69-1.69,3.29-3.38,5.07-4.99M19.5,19.59c0,1.07-.18,2.23-1.87,3.21l-4.99,2.85v-8.28l4.63-2.49c1.6,1.96,2.23,3.74,2.23,4.72M1.34,30.09h4.63v21.81c-1.96.71-3.56,1.78-4.99,2.85.09.53.36,1.16.62,1.69,5.52-1.16,11.84.89,15.05,2.94,1.96-2.23,3.83-4.1,5.97-6.05-.53-.71-1.07-1.25-1.78-1.78l-1.78,1.69c-1.6-.89-4.18-1.33-6.41-1.6v-21.55h11.93c.09-.8.09-1.69,0-2.49h-10.77v-.27l6.77-3.65c2.23-1.25,5.25-2.94,5.25-6.32,0-2.05-1.69-4.54-3.92-7.66-2.94,1.69-6.05,3.56-9.26,5.16v-3.21c0-5.7,3.65-8.72,8.28-8.72,1.07,0,3.03.27,4.99,1.25.44-.62.89-1.25,1.16-2.05C25.02.71,22.35,0,20.3,0,14.96,0,10.86,2.4,8.46,7.03,5.97,3.47,4.18,2.58,1.87,1.33c-.62.62-1.07,1.25-1.51,2.05,4.63,3.47,5.61,4.19,5.61,13.09v11.13H1.34c-.09.8-.09,1.69,0,2.49"/></g></g></svg>