<?xml version="1.0" encoding="UTF-8"?>
<svg xmlns="http://www.w3.org/2000/svg" baseProfile="tiny" version="1.2" viewBox="0 0 241.34 88.55">
  <!-- Generator: Adobe Illustrator 28.6.0, SVG Export Plug-In . SVG Version: 1.2.0 Build 709)  -->
  <g>
    <g id="Layer_2">
      <g id="Layer_1-2">
        <path d="M51.04,45.54c-.29,2.79-.44,4.58-.44,5.39,0,3.01.68,5.57,2.04,7.7s3.65,3.19,6.88,3.19,5.9-1.34,7.59-4.02c1.69-2.68,2.53-5.7,2.53-9.07,0-1.1-.07-2.33-.22-3.69s-.29-2.62-.44-3.79c1.91,1.83,4.36,3.59,7.37,5.28l-.11,7.37c0,4.11,1.12,7.08,3.36,8.91s4.89,2.75,7.97,2.75c2.86,0,4.86-.83,6-2.48,1.14-1.65,1.71-3.17,1.71-4.56,0-1.54-.4-3.01-1.21-4.4-.81.44-1.85.79-3.13,1.04-1.28.26-2.48.38-3.58.38-3.01,0-5.23-.75-6.66-2.25s-2.25-3.43-2.47-5.77c1.47.81,3.19,1.21,5.17,1.21,2.27,0,4-1.03,5.17-3.08,1.17-2.05,1.76-4.84,1.76-8.36s-.62-6.43-1.87-8.3c-1.25-1.87-3.12-2.81-5.61-2.81-4.84,0-7.26,2.64-7.26,7.92,0,1.54.15,3.63.44,6.27l.33,3.74c-3.01-1.47-5.5-3.56-7.48-6.27,0-.59.07-1.39.22-2.42.22-1.25.33-2.79.33-4.62,0-3.3-.42-5.5-1.26-6.6-.84-1.1-1.85-1.65-3.02-1.65-1.03,0-1.94.37-2.75,1.1s-1.21,1.76-1.21,3.08c0,1.69.57,3.74,1.71,6.16,1.14,2.42,2.55,4.58,4.24,6.49,0,3.52-.22,6.14-.66,7.87-.44,1.72-1.1,2.86-1.98,3.41s-2.16.83-3.85.83c-2.49,0-4.29-.57-5.39-1.71s-1.65-2.99-1.65-5.56c0-1.32.15-2.57.44-3.74.29-1.17.77-2.71,1.43-4.62.37-1.1.71-2.18,1.04-3.25.33-1.06.5-1.96.5-2.7,0-2.71-.7-4.69-2.09-5.94s-2.82-1.87-4.29-1.87c-1.76,0-3.48.51-5.17,1.54,4.03,6.6,6.05,11.92,6.05,15.95,0,1.17-.15,3.15-.44,5.94l-.03999.01001ZM79.25,37.62c.77-1.32,2-1.98,3.68-1.98,1.25,0,2.31.48,3.19,1.43.88.95,1.32,2.16,1.32,3.63,0,1.91-.62,3.13-1.87,3.68s-2.75.83-4.51.83c-.66,0-1.65-.15-2.97-.44,0-3.45.38-5.83,1.16-7.15001Z" fill="#232348"/>
        <path d="M218.67999,42.79c-.22,2.42-.48,4.29-.77,5.61-.37,2.2-.55,4.03-.55,5.5,0,3.08.83,5.41,2.48,6.98,1.64999,1.58,4.09,2.37,7.31,2.37,3.00999,0,5.5-.84,7.48-2.53s2.97-3.81,2.97-6.38c0-1.17-.17999-2.24-.55-3.19-1.53999.95-2.97,1.67-4.28999,2.14-1.32001.48-2.89999.71-4.73.71-2.49001,0-4.38-.73-5.67-2.2-1.28-1.47-1.96001-4.03-2.03-7.7,1.75999,1.39,3.52,2.09,5.28,2.09,1.03,0,2.11-.37,3.25-1.1s2.11-1.96,2.92-3.69c.81-1.72,1.21001-3.98,1.21001-6.76,0-3.15-.50999-5.94-1.53999-8.36s-2.92999-3.63-5.72-3.63c-4.84,0-7.25999,3.81-7.25999,11.44,0,1.47.03999,2.66.11,3.57.07001.92.14999,1.85.22,2.81-.88-1.1-1.60001-2.55-2.14999-4.35-.55-1.8-.83-4.34-.83-7.64,0-1.91.14999-3.74.44-5.5l-.66-.11c-.59,0-1.19.39-1.82001,1.16s-.92999,2.11-.92999,4.01c0,2.42.39999,5,1.21001,7.75.81,2.75,2.35001,5.08,4.62,6.99l-.00002.01ZM220.92999,35.09c.62-2.05,2.17999-3.08,4.67-3.08,1.25,0,2.31.44,3.19,1.32s1.32001,2.16,1.32001,3.85c0,1.98-.42,3.43-1.27,4.35-.84.92-2.14,1.38-3.91,1.38-2.05,0-3.59-.37-4.62-1.1-.22-2.42-.02-4.66.60001-6.71l.01999-.01Z" fill="#232348"/>
        <path d="M100.32,46.97l-.11,8.25c0,7.63,3.23,11.44,9.68,11.44,2.57,0,4.51-.77,5.83-2.31s1.98-3.45,1.98-5.72c0-1.39-.29-2.79-.88-4.18-1.98,1.25-4.18,1.87-6.6,1.87-5.5,0-8.36-2.82-8.58-8.47.66.51,1.3.9,1.92,1.15.62.26,1.52.39,2.7.39,1.98,0,3.76-1.06,5.33-3.19,1.58-2.13,2.37-4.66,2.37-7.59,0-8.21-2.49-12.32-7.48-12.32-2.79,0-4.6.99-5.45,2.97-.84,1.98-1.26,4.33-1.26,7.04,0,1.32.07,2.77.22,4.35.15,1.58.26,2.92.33,4.01-1.17-1.1-2.02-2.97-2.53-5.61s-.77-4.95-.77-6.93c0-1.47.07-3.19.22-5.17-1.32.22-2.24.7-2.75,1.43s-.77,1.76-.77,3.08c0,3.01.62,6.01,1.87,9.02,1.25,3.01,2.82,5.17,4.73,6.49h-.00002ZM102.9,37.79c.77-1.28,1.82-1.92,3.14-1.92s2.42.53,3.3,1.59c.88,1.06,1.32,2.37,1.32,3.91,0,1.98-.6,3.25-1.81,3.79s-2.62.83-4.24.83c-.81,0-1.8-.22-2.97-.66.07-3.74.5-6.25,1.25999-7.54Z" fill="#232348"/>
        <path d="M105.27,75.24c-5.72,0-11.35-.51-16.88-1.54-5.54-1.03-12.59-2.57-21.17-4.62-7.85-1.91-14.28-3.35-19.31-4.34-5.02-.99-10.21-1.63-15.56-1.92,3.52-3.59,6.36-7.66,8.52-12.21s3.25-10.12,3.25-16.72c0-6.16-1.04-11.83-3.13-17s-4.93-9.28-8.53-12.32C28.86,1.52,24.86,0,20.46,0s-8.14,1.28-11.22,3.85c-3.08,2.57-5.39,5.81-6.93,9.73S0,21.41,0,25.29C0,30.64,1.08,35.7,3.25,40.47c2.16,4.77,4.88,8.58,8.14,11.44,3.26,2.86,6.4,4.29,9.41,4.29,3.74,0,5.94-2.6,6.6-7.81-5.35-1.17-9.66-3.08-12.92-5.72s-5.57-5.48-6.93-8.52-2.03-5.96-2.03-8.75c0-4.91,1.32-8.56,3.96-10.95,2.64-2.38,5.94-3.57,9.9-3.57s7.46,1.28,10.29,3.85c2.82,2.57,4.93,5.81,6.33,9.74,1.39,3.92,2.09,7.86,2.09,11.82,0,5.5-.77,10.27-2.31,14.3s-4.18,8.07-7.92,12.1h-.77c-4.99,0-9.11.57-12.38,1.71-3.26,1.14-5.65,2.58-7.15,4.34-1.5,1.76-2.25,3.63-2.25,5.61,0,2.64,1.14,4.91,3.41,6.82,2.86-3.52,6.49-6.43,10.89-8.74,4.4-2.31,10.16-3.47,17.27-3.47,5.35,0,10.96.66,16.83,1.98,5.87,1.32,13.35,3.3,22.44,5.94,8.07,2.35,14.48,4.09,19.25,5.22,4.77,1.14,9.17,1.71,13.2,1.71,7.26,0,12.82-.81,16.67-2.42s6.38-3.34,7.59-5.17,1.82001-3.3,1.82001-4.4c0-1.17-.37-2.16-1.10001-2.97-7.19,4.25-16.61,6.38-28.27,6.38l-.04.01Z" fill="#232348"/>
        <path d="M179.19,67.43c-.28999-2.86-.88-5.98-1.75999-9.35,2.35001-2.42,4.22-5.52,5.61-9.29,1.39-3.78,2.09-7.94,2.09-12.49,0-8.58-1.83-12.87-5.5-12.87-.95,0-1.94.24-2.97.72s-2.27,1.26-3.74001,2.36c2.27,2.05,4.33,4.64,6.16,7.76,1.83,3.12,2.75,5.92,2.75,8.41s-.5,4.55-1.49001,6.16-2.47,2.9-4.46001,3.85l-1.98-6.27c-1.10001-3.74-1.98-7.04-2.64-9.9-1.10001-4.47-2.09-7.57-2.97-9.29-.88-1.72-2.27-2.58-4.17999-2.58-2.42,0-5.06,1.72-7.92,5.17,4.33,3.01,7.88,6.6,10.67,10.78s4.95,8.54,6.49001,13.09c-2.42.88-6.56,1.65-12.42999,2.31,0,4.99,1.83,7.48,5.5,7.48,3.08,0,5.98-1.06,8.69-3.19.50999,2.49.77,4.62.77,6.38,0,3.37-.78999,6.07-2.37,8.08-1.58,2.02-3.42999,3.43-5.55,4.24-2.13.81-4.07001,1.21-5.83,1.21-1.32001,0-2.47-.26-3.46001-.77-.99001-.51-1.49001-1.25-1.49001-2.2,0-1.98,1.69-3.67,5.06-5.06s7.66-2.35,12.87-2.86c.14999-.73.22-1.32.22-1.76-16.35001,1.39-24.53,5.68-24.53,12.87,0,2.64,1.03999,4.66,3.13,6.05,2.09,1.39,4.57001,2.09,7.42999,2.09,3.74001,0,6.97-.81,9.68001-2.42s4.77-3.76,6.16-6.43c1.39-2.68,2.09-5.55,2.09-8.63v-1.76c2.13-.07,4.8,0,8.03.22v-2.09h-8.14l.00999-.02002Z" fill="#232348"/>
        <path d="M240.67999,66.44c-3.52,1.98-6.82001,3.3-9.89999,3.96s-6.86.99-11.33.99c-2.27,0-5.32001-.26-9.13-.77-3.81-.51-7.44-1.03-10.89-1.54l-7.03999-.99c-.37-1.69-.55-3.67-.55-5.94,0-4.84.48-9.31,1.42999-13.42.66,5.72,1.74001,9.48,3.25,11.27,1.5,1.8,3.36,2.7,5.55,2.7,3.14999,0,5.42999-1.26,6.82001-3.79,1.39-2.53,2.09-6.47,2.09-11.83,0-7.48-.5-13.33-1.48-17.54-.99001-4.22-2.88-6.33-5.67-6.33-2.35001,0-4.17999,1.52-5.5,4.57-1.32001,3.04-2.53,6.95-3.63,11.71l-.66,2.97c-.07001-.73-.11-1.72-.11-2.97s.17999-3.52.55-6.82c.22-1.47.33-2.75.33-3.85,0-2.05-.37-3.59-1.10001-4.62-.73-1.03-1.69-1.54-2.86-1.54-.95,0-1.94.22-2.97.66.95,2.35,1.8,5.12,2.53,8.3.73,3.19,1.5,7.46,2.31,12.82-3.3,8.29-4.95,16.57-4.95,24.86,0,5.13.25999,9.09.77,11.88.50999,2.79,1.3,4.71,2.36,5.78s2.50999,1.59,4.35001,1.59c.88,0,1.96001-.31,3.25-.93,1.28-.62,2.50999-1.41,3.67999-2.37-4.62-5.06-7.66-9.86-9.13-14.41l11.55,3.41c6.16,1.91,11.02,3.3,14.58,4.18s6.66,1.32,9.28999,1.32c4.11,0,7.28-.92,9.50999-2.75,2.24001-1.83,3.36-4.03,3.36-6.6,0-1.32-.22-2.64-.66-3.96h.00002ZM203.17,33.99c1.75999,0,3.06,1.17,3.89999,3.52.84,2.35,1.27,4.69,1.27,7.04,0,3.67-.59,6.11-1.75999,7.32s-2.71001,1.81-4.62,1.81c-2.49001,0-4.25-.75-5.28-2.25s-1.8-3.57-2.31-6.21c2.42-7.48,5.35001-11.22,8.8-11.22l-.00002-.01Z" fill="#232348"/>
        <path d="M129.42,53.74c-1.58-2.09-2.37-4.75-2.37-7.98,0-2.05.75-4,2.24999-5.83,1.5-1.83,4.71001-3.34,9.62-4.51-.59-6.6-2.67999-9.9-6.27-9.9-1.91,0-3.42999,1.61-4.56,4.84-1.14,3.23-2,8.21-2.58,14.96-.66-2.93-1.06-6.45-1.21-10.56-.29-3.23-.64-5.48-1.04-6.76s-1.34-1.92-2.81-1.92c-1.54,0-3.01.84-4.4,2.53,2.05,3.08,3.85,6.32,5.39,9.73s2.31,6.07,2.31,7.98c0,1.32-.15,3.08-.44,5.28-.37,1.98-.55,4.14-.55,6.49,0,2.05.44,3.69,1.32,4.9.88,1.21,2.49,1.81,4.84,1.81,1.25,0,2.57001-.37,3.96001-1.1,1.39-.73,2.57001-1.91,3.52-3.52-3.08-2.2-5.41-4.34-6.98-6.43l.00002-.00999Z" fill="#232348"/>
        <path d="M156.53,47.96c0-3.15-.27-5.92-.82001-8.3s-1.38-5.15-2.48-8.3c-1.17-3.45-2.03999-6.4-2.58-8.86-.55-2.46-.83-5.37-.83-8.75,1.32001.15,2.27.29,2.86.44,6.16.88,11.14999,1.32,14.96001,1.32,4.25,0,7.78999-.49,10.62-1.48,2.82001-.99,4.88-2.22,6.16-3.69s1.92-2.9,1.92-4.29c0-.88-.09-1.65-.28-2.31-.17999-.66-.60001-1.5-1.25999-2.53-8.8,5.43-16.78999,8.14-23.98,8.14-3.96001,0-7.59-.22-10.89-.66s-7.14999-1.1-11.55-1.98c-3.08-.66-5.61-1.14-7.59-1.43s-3.89-.44-5.72-.44c-4.11,0-6.95.86-8.52,2.58-1.58,1.72-2.37,3.43-2.37,5.12,0,.95.15,1.85.44,2.7.29.84.7,1.89,1.21,3.13,4.62-2.13,8.42-3.58,11.38-4.34,2.96999-.77,6.62-1.16,10.93999-1.16,2.57001,0,5.89999.22,10.00999.66-1.69.88-2.92,1.94-3.69,3.19s-1.14999,2.97-1.14999,5.17.38,4.22,1.14999,6.05c.77,1.83,1.96001,4.18,3.58,7.04,1.53999,2.71,2.7,4.95,3.46001,6.71.77,1.76,1.16,3.67,1.16,5.72,0,3.37-1.25,6.51-3.74001,9.41s-5.94,6-10.34,9.29c.44,1.47,1.25,2.82,2.42,4.07s2.60001,1.87,4.28999,1.87c1.53999,0,3.17-.86,4.89999-2.58s3.21001-4.4,4.45-8.03c1.25-3.63,1.87-8.12,1.87-13.48h.01003Z" fill="#232348"/>
      </g>
    </g>
  </g>
</svg>