<?xml version="1.0" encoding="UTF-8"?><svg id="Layer_2" xmlns="http://www.w3.org/2000/svg" viewBox="0 0 262.25 372.48"><defs><style>.cls-1{fill:none;stroke:#5571a9;stroke-width:1.79px;}.cls-2{fill:#5571a9;}</style></defs><g id="Layer_1-2"><path d="M31.48,92.56c.3-.36.66-.78,1.2-1.14,1.44,1.56,3.06,2.46,4.68,2.46,2.16,0,4.2-1.32,4.02-6.84-.18-4.56-.3-8.46-.48-13.02-.42-8.88,4.68-11.82,7.38-13.74.36.3.72.66.96,1.08-2.52,2.64-3.54,3.6-3.24,10.86.18,4.8.3,9,.48,13.5,3.84-.84,6.9-1.14,11.94-1.02v-10.62c0-8.58-3.3-17.46-11.46-17.46s-11.64,5.82-11.64,10.5c0,2.46.54,4.8,2.4,7.56-.36.42-.84.78-1.32,1.02-2.16-2.76-2.94-5.76-2.94-8.22,0-7.68,7.38-12.66,14.1-12.66,10.92,0,15.96,7.5,15.96,16.86v13.98c0,4.56,1.5,5.16,3.66,5.46l.18,1.2c-1.5,1.2-2.94,2.46-4.26,3.9-3.72-1.74-4.68-3.66-4.68-7.2v-2.76c-5.04,0-7.98.12-12,1.14-.42,5.28-4.68,8.16-8.88,8.16-2.22,0-4.62-1.08-6.06-3Z"/><path d="M98.86,96.28c-9.42,0-17.46-7.86-20.94-7.86-1.68,0-3.06,1.26-3.06,3s1.32,2.58,1.8,3.06c-.24.48-.72,1.02-1.08,1.26-1.2-.66-2.58-2.16-2.58-4.26,0-3.42,3.54-5.82,7.38-5.82,1.08,0,2.16.12,3.24.36,2.4-3.18,3.24-7.92,3.24-13.8,0-9-1.8-15-7.2-15-2.76,0-5.4,2.22-5.4,5.7,0,2.88,1.5,5.04,5.34,6.48-.12.54-.36,1.08-.6,1.5-5.04-1.26-6.72-4.8-6.72-7.68,0-5.4,4.38-7.8,8.58-7.8,4.44,0,7.38,2.22,9.18,5.22l10.44-6.78c3.78,6.9,7.98,9.6,11.58,9.06.18.48.24.9.24,1.38-4.2,2.58-9.72,5.7-14.34,9.24l.12.18c1.8-.66,4.08-1.44,6.54-1.44,5.04,0,9.6,3.78,9.6,10.14,0,8.7-8.94,13.86-15.36,13.86ZM85.18,86.44c6.36,1.92,12.3,6.66,17.22,6.66,3,0,7.2-2.22,7.2-8.22,0-5.34-4.08-9.48-9.54-9.48-6.84,0-9.12,5.52-14.88,11.04ZM90.34,78.88c3.6-4.26,7.98-7.92,15.3-12.54l-.06-.18c-3.36-.54-5.94-3.06-9.12-7.8l-5.76,3.66c1.08,2.4,1.56,5.16,1.56,7.68,0,5.4-.96,7.38-2.1,9.06l.18.12Z"/><path d="M147.58,62.44c-1.32.84-2.7,1.26-4.02,1.26-2.82,0-5.7-1.68-8.88-4.32-5.7,3.96-8.52,8.34-8.52,16.98,0,11.7,7.14,16.86,13.5,16.86,4.2,0,8.52-1.32,10.8-6.96.6.12,1.08.3,1.56.54-2.1,5.88-7.02,9.6-13.56,9.6-9.96,0-18.18-6.3-18.18-17.4,0-10.38,6.54-16.38,12.9-20.82,1.68-1.14,3.36-2.4,4.86-3.66,2.22,2.04,4.92,5.22,8.1,5.22,1.56,0,3.24-.72,4.92-2.52.42.24.84.54,1.14.9-3.3,5.1-4.5,8.46-4.5,11.46,0,1.38.24,2.64.66,3.96-.48.3-1.14.54-1.74.6-.66-1.56-.9-3.06-.9-4.56,0-2.58.84-4.98,1.98-7.08l-.12-.06Z"/><path d="M163.24,85.9c1.86,0,3.54.42,5.1.96,1.74-1.86,2.58-4.14,2.58-6.18,0-4.74-3.96-7.92-3.96-12.72,0-3.18,1.92-6.12,4.2-8.4l-.06-.24c-5.4.54-10.92,3.18-10.92,10.26,0,2.28.36,3.66.9,5.52-.42.24-1.08.42-1.62.48-.66-1.86-1.08-3.42-1.08-5.7,0-10.02,9.42-13.86,18.9-13.86,10.32,0,20.1,6.12,20.1,20.34,0,10.02-8.52,19.44-18.6,19.44-6.36,0-13.8-6.6-17.64-6.6-2.34,0-2.88,1.5-2.88,2.58,0,.72.18,1.26.48,1.74-.42.36-.9.6-1.44.78-.42-.66-.72-1.5-.72-2.52,0-3.48,2.64-5.88,6.66-5.88ZM169.84,87.52c4.02,1.8,7.44,4.56,12,4.56,6.48,0,10.74-4.5,10.74-11.94,0-12.66-7.74-20.88-18.96-20.94-1.8,2.16-2.28,3.66-2.28,5.76,0,3.78,4.2,7.56,4.2,12.84,0,3.6-2.04,6.6-5.7,9.72Z"/><path d="M215.02,78.88c-1.5,0-2.7.6-4.74,1.44,1.38,8.88,7.5,12.96,13.62,12.96,3.6,0,8.22-1.44,10.5-7.08.66.12,1.14.3,1.56.54-2.1,5.88-7.08,9.72-13.62,9.72-9.96,0-18.36-6.18-18.36-17.76,0-10.02,6.6-16.14,12.96-20.58l4.98-3.48c3.18,2.94,7.44,8.34,12.84,2.58.42.3.9.42,1.2.84-2.46,3.96-4.2,6.78-4.74,10.92-.66.06-1.02,0-1.68-.18.12-2.4,1.02-4.68,1.92-6.3l-.12-.06c-4.2,2.58-8.16.78-12.9-3.12-5.64,3.96-8.46,8.34-8.46,16.98,0,.9.06,1.74.12,2.52,2.04-1.14,4.32-3.9,7.98-3.9,3.12,0,6.72,2.28,9.54,2.28,1.32,0,2.28-.48,3.48-1.2.36.36.54.72.78,1.2-1.74,1.74-5.04,3.66-7.86,3.66-3.66,0-5.64-1.98-9-1.98Z"/><path d="M31.9,149.62c.12.54.18,1.14.12,1.68-3.18.3-6.66,2.4-6.66,7.14,0,5.04,4.14,7.98,8.52,7.98,5.16,0,8.46-3.06,8.46-9.18,0-7.8-7.68-13.44-7.68-21.9,0-3.3,1.74-6.72,4.68-10.92-3.96-2.4-7.5-5.1-11.16-5.1-4.14,0-6.6,3.66-6.6,6.96,0,3.06,1.38,5.16,4.62,6.42-.12.66-.3,1.14-.54,1.56-3.12-.72-6.24-3.18-6.24-7.74,0-4.8,4.56-10.32,12.84-10.32s14.28,8.34,19.98,8.34c1.74,0,3.66-.96,3.66-3.66,0-1.32-.36-2.22-.66-3,.54-.3,1.02-.48,1.56-.66.48.9,1.02,2.28,1.02,3.84,0,4.2-3.66,7.02-7.86,7.02-3.42,0-6.42-1.26-9.24-2.82-2.04,2.64-2.34,4.44-2.34,6.42,0,2.52,1.98,5.7,3.96,9.42,2.16-1.14,3.54-1.98,3.96-3.18.18-.48.3-1.74-.3-2.94.42-.3.96-.6,1.5-.78,1.08,1.68,2.76,2.22,4.8,1.02.36.42.6.84.84,1.38-2.04,1.8-2.52,3.12-1.68,5.52-.42.36-.96.54-1.5.66-1.32-1.68-2.58-2.88-6.84-.24,1.8,3.6,3.48,7.68,3.48,12.3,0,8.4-5.94,13.5-12.96,13.5-6.06,0-10.5-4.08-10.5-9.66,0-6.06,5.1-9,8.76-9.06Z"/><path d="M87.4,124.36c-.54.36-2.04,1.14-3.9,1.14-3.24,0-6.36-1.98-9-4.14-5.7,3.96-8.58,8.46-8.58,17.64,0,9.78,6.54,16.32,14.1,16.32,4.44,0,8.88-2.34,8.88-7.38,0-2.34-.72-4.02-3.06-5.46-1.8-1.14-5.4-2.46-8.04-2.46-1.68,0-2.7.3-4.5,2.4-.54-.24-.96-.48-1.38-.84,1.8-2.94,4.08-5.94,8.28-5.94,2.7,0,6.18,1.44,8.64,2.16,2.04.6,3.18.54,4.26-1.98.54.06,1.08.18,1.62.48-1.08,3.78-3.18,5.46-5.52,5.76l-.06.18c1.62,1.74,2.16,3.6,2.16,5.4,0,6.72-6.06,10.74-13.32,10.74-9.96,0-17.94-6.9-17.94-17.34s6.6-16.44,12.96-20.88c1.74-1.2,3.3-2.4,4.86-3.78,2.28,2.22,4.8,5.28,7.98,5.28,1.56,0,3.18-.54,4.98-2.52.54.24,1.02.6,1.32.9-3.42,5.46-4.32,8.28-4.32,11.4-.66.12-1.38.12-2.04,0,0-2.76.72-5.1,1.8-6.96l-.18-.12Z"/><path d="M120.4,165.34c-2.94.06-5.58-1.62-5.58-4.98,0-3.72,3.42-7.2,7.2-7.2,1.68,0,3.36.48,4.98,1.38,2.82-3.72,4.5-6.3,4.5-10.26,0-6.6-5.76-11.28-8.58-13.08-3.18,2.34-6.72,4.38-10.2,6.42.72,2.4,1.32,5.04,1.32,7.86,0,9-5.76,12.48-9.36,12.48s-6.6-2.46-6.6-5.52c0-1.38,1.02-3.24,3-3.24,1.8,0,2.46,1.26,2.46,2.46,0,1.68-1.26,2.04-1.26,3.18,0,1.02,1.2,1.5,2.4,1.5,3.36,0,5.64-3.18,5.64-6.48,0-5.46-5.04-11.58-5.04-19.44,0-5.94,2.94-10.62,11.28-14.58,2.04,2.7,3.54,4.74,5.34,4.74,1.02,0,2.04-.6,2.04-2.1,0-.48-.06-1.02-.36-1.68.48-.24.96-.48,1.56-.6.36.72.66,1.38.66,2.58,0,3.54-3.48,5.4-6.12,5.4-2.82,0-4.8-1.02-7.14-4.26-1.8,1.32-3.3,2.76-3.3,5.46,0,3.36,1.62,6.78,2.94,10.68,4.92-2.76,9.84-6.3,14.28-9.96,3.66,2.82,9.6,7.26,9.6,15.12,0,5.64-2.34,8.46-7.2,13.74-1.2,1.32-2.76,3.18-3.96,4.92-2.4-1.62-3.66-2.04-5.04-2.04-1.5,0-2.82.9-2.82,2.76s1.14,2.76,3.48,3.06c.06.54,0,1.14-.12,1.68Z"/><path d="M146.02,154.9c-2.16,0-3.06,1.5-3.54,3.12-.48-.06-.96-.24-1.32-.42.96-4.56,4.14-6.42,6.78-6.42,4.74,0,7.5,3.9,11.58,3.9,1.92,0,5.28-1.14,5.28-5.52,0-6.84-7.5-11.1-7.5-17.58,0-3.36,1.62-6.84,3.54-8.88-3.42-.78-6.24-2.22-9.9-2.22-4.44,0-7.68,3.6-7.68,8.22,0,5.16,3.6,7.98,7.8,9.06-.06.54-.24,1.2-.48,1.56-5.28-1.02-9.24-4.62-9.24-10.62s5.76-12.18,13.8-12.18c4.8,0,8.4,2.7,12.24,2.7,1.5,0,3.6-.78,3.72-3.36.48-.06.9-.06,1.38,0,0,5.16-3.72,7.26-7.74,7.26-.84,0-1.62-.06-2.34-.18-.84,1.32-1.32,2.88-1.32,4.44,0,6.42,7.5,9.12,7.5,18.78,0,6-6.42,11.82-11.76,11.82-4.2,0-7.92-3.48-10.8-3.48Z"/><path d="M174.52,160.06c-.36-.24-.78-.78-.96-1.14,5.64-4.38,9.18-7.98,9.96-13.32.54-.06,1.2.06,1.74.24-.66,4.98-3.06,8.22-6.72,11.1l.12.18c.6-.12,1.02-.18,1.56-.18,6.12,0,8.1,5.4,13.56,5.4,3.48,0,7.8-3.06,7.8-8.64,0-6.6-8.22-11.76-8.22-20.82,0-3.42,1.92-6.78,3.78-9.12-3.84-.6-6.96-3-10.68-3-3.42,0-8.28,1.98-8.28,8.46,0,5.16,3.6,7.98,7.8,9.06-.06.54-.24,1.08-.48,1.56-5.28-1.02-9.24-4.62-9.24-10.62s5.76-12.18,13.8-12.18c5.4,0,8.4,2.88,12.24,2.88,1.5,0,3.6-.96,3.72-3.54.48-.06.9-.06,1.38,0,0,5.16-4.14,7.56-8.4,7.56h-.36c-.78,1.32-1.32,2.82-1.32,4.86,0,7.62,8.04,12.96,8.04,21.42,0,7.8-7.38,15.24-14.52,15.24-6.54,0-11.4-6.42-13.92-6.42-.78,0-1.26.18-2.4,1.02Z"/><path d="M220.3,119.8c-4.14,0-6.18,3.42-6.18,7.02,0,5.64,3.9,7.08,7.5,7.38.06.48.06,1.26-.12,1.68-4.5,0-9.36-2.58-9.36-8.7,0-6.96,5.7-9.42,9.66-9.42,8.04,0,10.56,8.52,10.56,18.18v1.14c5.52-2.34,6.42-11.4,7.5-16.86,2.16.42,3.18.6,4.8.6,2.16,0,3.48-.9,3.48-2.64,0-.72-.18-1.2-.54-1.98.42-.24.84-.42,1.38-.54,1.08,1.62,1.32,3.18,1.32,4.32,0,4.2-3.42,6.3-6.24,6.3-1.56,0-2.34-.12-3.36-.3-.54,2.88-1.26,5.46-2.46,7.62,3.72,8.7,5.58,13.92,9.9,18.78l2.7-2.52c.42.36.78.72,1.2,1.26-1.62,1.38-5.1,4.98-6.78,6.9-3.54-3.66-6.24-10.2-10.86-20.22-.66.42-1.32.84-2.1,1.2-.72,12.24-5.52,19.08-10.74,19.08-3.66,0-6.48-2.4-6.48-5.46,0-1.38,1.02-3.24,3-3.24,1.8,0,2.46,1.26,2.46,2.46,0,1.68-1.26,2.04-1.26,3.18,0,1.02,1.2,1.62,2.4,1.62,3.36,0,5.7-3.24,5.7-16.86,0-10.44-1.56-19.98-7.08-19.98Z"/><path d="M35.14,220.36c-7.08,0-12.9-6.84-17.94-6.84-2.16,0-3.18,1.38-3.18,2.94,0,.72.12,1.08.24,1.62-.54.18-1.02.24-1.56.3-.18-.54-.3-1.32-.3-1.86,0-3.9,3.66-6.54,7.62-6.54.72-1.2,1.38-2.7,1.38-4.74,0-3.6-3.6-6.6-3.6-13.08,0-6.96,5.16-13.02,13.68-13.02,6.78,0,10.92,3.54,10.92,9s-4.56,10.14-11.04,10.8c-.18-.54-.24-1.02-.24-1.62,4.14-.96,6.3-2.94,6.3-7.5,0-5.4-2.76-8.76-6.84-8.76-5.52,0-8.04,3.72-8.04,7.56,0,5.82,3.18,9.48,3.18,13.62,0,3.48-1.8,5.58-3.84,7.86,6.18.96,11.64,6.06,16.2,6.06,2.04,0,4.08-.6,3.96-3.72.54-.12,1.08-.18,1.56-.12.42,5.4-3.96,8.04-8.46,8.04Z"/><path d="M64.78,215.08l2.82-2.82c.48.3.9.72,1.26,1.14-2.4,2.22-4.44,4.32-6.6,6.6-3.96-2.64-6.66-4.14-10.92-5.82l.3-1.32c12.24-.78,14.94-7.08,14.94-15.42,0-10.32-1.92-15.42-8.1-15.42-4.32,0-7.2,3.54-7.2,7.68,0,4.92,3.9,6.54,7.5,6.6.06.54.06,1.14,0,1.68-4.8.12-9.6-2.04-9.6-8.28,0-6.6,5.94-9.96,11.4-9.96,3.9,0,6.66,1.38,8.46,3.6,2.34-2.4,5.04-4.02,8.28-4.02,3.72,0,6.36,1.56,7.98,4.86,4.62-3.96,7.68-4.86,10.86-4.86,5.1,0,7.38,3.3,10.5,10.14l-5.88,7.14c-.12,5.7,0,10.5.12,16.2,1.8.9,3.12,1.56,3.84,2.1l2.52-2.82c.48.3.9.66,1.26,1.08-2.1,2.22-4.2,4.62-6.18,7.08-1.86-1.38-4.08-2.52-6.42-3.54.18-6.12.18-10.92,0-17.04l5.82-7.14c-3.54-8.34-5.64-10.56-8.64-10.56-2.76,0-4.74,1.68-7.2,3.6.9,2.52,1.32,5.7,1.32,9.78s-1.44,12.12-6.06,15.54l.06.18c4.02-.18,8.46.96,8.46,5.82,0,.66,0,1.32-.06,2.1l-6.3.24v-2.76c-.06-1.92-.72-3.84-3.06-3.84-2.1,0-5.22,1.86-4.56,6.6-.6.12-1.2.12-1.8.06-.48-3.72,1.08-6.6,4.2-7.74,3.06-1.08,3.6-4.26,3.6-14.22,0-13.26-2.46-15.72-6.06-15.72-1.86,0-3.72.84-5.76,2.88,1.56,2.58,2.16,5.88,2.16,9.36,0,8.28-3.24,13.98-12.12,19.08v.3c1.98.3,3.12.72,4.86,1.86Z"/><path d="M130.18,215.44l3.36-3.12c.54.36.96.78,1.26,1.14-2.52,2.22-4.86,4.5-7.14,6.96-3.96-2.64-6.66-4.14-10.92-5.82.06-.48.12-.9.3-1.32,12.24-.78,14.04-8.16,14.04-16.5,0-10.32-2.52-15.42-8.7-15.42-4.26,0-7.2,3.54-7.2,7.68,0,4.92,3.9,6.54,7.5,6.6.06.6.06,1.2,0,1.8-4.8,0-9.54-2.22-9.54-8.34,0-6.72,5.7-10.02,11.34-10.02,4.5,0,7.56,1.8,9.48,4.62,4.74-4.08,7.86-4.8,11.1-4.8,5.1,0,7.62,3.24,10.5,9.9l-5.88,6.96c-.12,5.88-.12,11.34,0,17.04,1.38.6,2.82,1.32,3.96,2.16.96-1.02,1.62-1.74,2.52-2.76.48.3.9.66,1.26,1.08-2.04,2.28-4.14,4.68-6.18,7.08-1.92-1.32-4.14-2.46-6.42-3.54.18-6.12.18-11.7,0-17.82l5.88-7.32c-3.54-8.34-5.34-9.96-8.94-9.96-2.76,0-4.62,1.32-7.08,3.18,1.26,2.34,1.86,5.28,1.86,8.28,0,8.28-2.4,14.4-10.98,20.1v.36c1.74.3,2.88.72,4.62,1.8Z"/><path d="M186.4,220.6c-9.54,0-16.32-8.34-20.7-8.34-1.5,0-3.06,1.08-3.18,3.66-.54.06-1.14.06-1.68,0,0-4.08,3.96-7.02,8.4-7.08h.6c1.14-1.86,1.32-4.86,1.32-10.32,0-10.02,7.98-18.96,17.28-18.96,10.68,0,19.74,8.28,19.74,19.98,0,15.48-12.48,21.06-21.78,21.06ZM171.76,209.2c6.12,1.56,11.94,8.34,18.72,8.34,4.8,0,12.66-3.48,12.66-14.64s-9-19.86-18.54-19.86c-6.24,0-7.74,4.2-7.74,11.34v2.22c0,5.22-2.16,9.3-5.1,12.6Z"/><path d="M252.64,203.5c0,9.24-7.5,17.04-14.4,17.04-4.68,0-8.34-3-11.88-4.32v6.72c0,4.56,1.5,5.16,3.66,5.46.12.42.18.78.18,1.2-1.5,1.2-2.94,2.46-4.26,3.9-3.72-1.74-4.26-3.66-4.26-7.2v-10.5c-1.68.24-3.66,1.14-6.9,4.14-.42-.3-.72-.72-1.02-1.14,2.76-3.12,5.46-5.04,7.92-6v-22.74c0-3.24-1.8-4.92-3.48-6.36-1.08.66-2.22,1.26-3.36,1.86-.3-.36-.54-.78-.72-1.26,2.7-1.62,5.1-3.18,7.68-4.92,1.68,1.5,4.2,3.36,4.5,6.9l4.92-3.84c1.5-1.2,2.82-2.46,4.26-3.72,11.16,10.32,17.16,14.28,17.16,24.78ZM232.36,183.76l-6,4.68v23.7c6.3.42,9.84,4.8,14.88,4.8s7.98-4.5,7.98-10.38c0-8.22-5.28-12.24-16.86-22.8Z"/><path d="M63.46,282.4c-2.7-.6-5.58-1.98-8.52-3.66-3.24,2.28-7.08,3.6-11.1,3.6-6.36,0-13.74-6.72-18.18-6.72-2.1,0-3.3,1.32-3.36,3.9-.54.06-1.14.06-1.68,0v-.18c0-3.6,2.7-7.38,7.74-7.38,7.02,0,12.12,7.2,19.32,7.2,1.5,0,3.36-.54,5.16-1.62-7.74-4.8-15.42-11.1-19.86-11.1-2.64,0-5.34,1.26-9.42,3.3-.36-.36-.6-.72-.84-1.2,2.94-2.22,3.48-2.4,4.2-8.22,1.56-12.84,7.38-19.02,18.12-19.02,9.18,0,19.08,7.44,19.08,19.26,0,5.82-2.04,10.92-5.34,14.7,2.1,1.14,4.02,1.98,5.82,2.28,1.5-1.8,2.22-2.82,3.42-4.44.66.24,1.2.66,1.74,1.14-2.34,3.06-3.78,4.98-6.3,8.16ZM56.68,274.06c1.86-2.46,3.18-5.82,3.18-10.2,0-9.12-7.74-18.9-19.44-18.9-13.56,0-3.84,14.88-11.94,20.76l.12.18c3.6-1.86,5.1-2.58,7.92-2.58,5.34,0,13.14,6.48,20.16,10.74Z"/><path d="M89.68,277.78c1.38-1.2,2.58-2.4,3.9-3.72.48.3,1.02.84,1.38,1.26-2.64,2.4-5.22,4.92-7.74,7.44-3.96-2.64-6.66-4.14-10.92-5.82.06-.42.12-.9.3-1.32,12.24-.78,14.28-7.26,14.28-15.6,0-10.32-2.76-15.42-9.24-15.42-4.14,0-6.9,3.54-6.9,7.68,0,4.92,3.9,6.54,7.5,6.6.06.6.06,1.2,0,1.8-4.8,0-9.54-2.22-9.54-8.46,0-6.6,6.18-9.9,11.34-9.9,4.62,0,7.68,1.92,9.54,4.86l10.62-6.96c3.78,6.9,8.04,8.58,10.38,9.66l.24,1.38c-2.28,1.5-6,3.72-13.32,8.82,4.14,8.1,7.08,12.06,11.28,16.8l2.82-2.58c.42.36.78.72,1.2,1.26-1.62,1.38-5.22,4.86-6.9,6.78-3.54-3.66-7.5-9.3-12.72-19.2-.84.6-1.74,1.26-2.7,1.92-1.5,4.2-4.44,7.62-9.48,10.56v.36c1.86.3,2.88.6,4.68,1.8ZM95.2,262.48l.18.06c3.72-2.76,8.22-5.94,14.28-9.9l-.06-.3c-3.36-.54-6-2.94-9.18-7.68l-6.12,3.9c1.02,2.28,1.5,5.04,1.5,7.86,0,2.16-.18,4.14-.6,6.06Z"/><path d="M151.72,271c0-4.32-3.6-6.36-7.86-10.08l-5.94,1.86c-1.74.54-3.3.78-4.68.78-5.34,0-8.16-4.5-8.16-7.98,0-6.9,7.98-11.46,13.44-11.46,4.14,0,9.42,3.18,12,3.18,1.98,0,3.54-1.68,3.54-3.72,0-2.28-1.38-3.54-3.24-3.54-1.38,0-2.4.9-3.06,1.62-.48-.3-.9-.6-1.26-1.02,1.08-1.56,2.64-2.46,4.44-2.46,3.54,0,5.28,2.34,5.28,5.34,0,4.8-4.8,7.56-8.4,7.56-4.26,0-9.42-3.78-13.62-3.78-2.64,0-4.56,1.38-4.56,4.92,0,5.64,3.96,8.16,7.38,8.16,1.56,0,2.4.06,4.56-.66l6.6-2.28c3.72,2.94,7.68,6.3,7.68,10.98,0,4.38-2.64,7.14-8.1,11.04-1.68,1.2-2.82,2.04-4.26,3.12-4.86-2.64-12.54-10.38-17.1-10.38-1.98,0-3.72,1.2-3.72,3.48,0,2.04,1.38,3.48,4.32,3.84,0,.66-.06,1.2-.18,1.62-2.58.06-6.12-1.5-6.12-5.4,0-3.42,3.48-6.66,8.34-6.66,6.12,0,12.54,6.6,17.28,9.06,3.3-2.22,5.4-3.84,5.4-7.14Z"/><path d="M163.06,275.8c0-2.7,2.34-6.3,6.9-6.3,2.1,0,4.68,1.32,7.32,3,2.7-1.68,4.5-3.48,4.44-5.52-.06-3.6-5.34-5.46-5.34-9.9,0-2.46,1.5-4.56,3.6-6.9-3.72-1.74-7.44-3.54-10.44-3.54-3.78,0-6.54,3.24-6.54,6.42,0,1.98.84,4.56,4.56,6.3-.18.54-.36.96-.66,1.38-4.26-1.62-5.94-4.38-5.94-7.68,0-4.98,4.56-10.26,12.36-10.26s15.9,6.84,20.28,6.84c1.38,0,2.64-.78,2.64-2.58,0-1.02-.48-1.86-1.44-2.82.3-.42.72-.84,1.14-1.14,1.68,1.38,2.22,2.76,2.22,4.14,0,3.78-2.4,6.42-7.5,6.42-2.88,0-6.12-1.32-9.36-2.82-.9.96-1.44,1.86-1.44,3.06,0,4.38,5.58,5.52,5.58,10.62,0,3.12-2.28,6.3-6.66,8.94,3.9,2.64,7.74,5.58,9.96,5.58,2.04,0,3.18-1.26,3.18-2.88,0-1.44-.66-2.34-1.62-3.3.3-.42.72-.84,1.14-1.14,1.44,1.14,2.28,2.34,2.28,4.44,0,3.06-3.12,5.88-7.32,5.88-6.9,0-13.68-9.24-18.48-9.24-1.92,0-2.94,1.44-2.94,2.94,0,1.92,1.5,3.12,2.82,3.96-.24.54-.54.96-.9,1.38-2.58-1.26-3.84-3.06-3.84-5.28Z"/><path d="M235.3,276.58c-.06-.36-.06-.84-.06-1.32v-26.04c-1.14-.96-1.8-1.38-2.64-1.38-1.08.06-1.74.6-2.58,1.62-.48-.24-.96-.6-1.32-.96,1.14-1.56,1.98-1.8,4.74-3.3,1.62-.9,2.34-1.38,2.82-3.18.48-.06,1.02-.06,1.5,0,.36,1.38.84,2.28,1.92,3.12,1.08.84,1.98,1.14,3.06,1.14.6,0,1.26-.06,1.92-.12.12.6.24,1.14.24,1.74-2.82.6-3.6.78-4.92,1.68v22.02c0,3.96,1.02,5.04,4.5,4.8.18.24.42.72.48,1.02-1.62,1.56-3.12,3.18-4.5,4.74-3.12-1.5-4.38-2.58-4.86-3.96-4.5,3.06-7.02,4.08-9.84,4.08-7.62,0-12-9.06-21.6-6.18-.24-.54-.42-1.08-.42-1.62,9.54-3.12,15.66-4.38,15.66-16.02,0-8.52-2.64-13.14-8.46-13.14-3.6,0-7.08,2.94-7.08,7.26,0,5.52,3.78,6.84,7.44,6.9.06.6,0,1.2-.06,1.8-4.62.12-9.42-1.98-9.42-8.46,0-6.96,6.42-9.84,10.98-9.84,6,0,12.06,3.54,12.06,13.32,0,7.5-3,12.42-13.2,16.8l.12.18c6.9-2.82,11.4,5.7,17.58,5.7,1.8,0,3.12-.66,5.94-2.4Z"/><path d="M33.64,310l9.84-6.3c3.12,2.46,6.54,4.62,10.26,6.6-.18,1.98-.3,3.9-.3,7.08v11.52c0,2.64,0,3.6.24,6.18-3.18,1.86-5.22,3-8.22,5.16-4.44,3.42-5.94,4.38-8.82,4.38-3.3,0-5.58-1.38-8.64-3-4.02-2.16-7.32-3.78-10.8-3.78-.78,0-1.56.06-2.28.24-.24-.42-.42-.9-.42-1.56,6.66-1.92,9.78-3.3,12.18-5.52,2.94-2.64,3.6-4.68,3.6-11.28s-2.16-12.6-8.04-12.6c-3.6,0-7.08,2.94-7.08,7.26,0,5.52,3.78,6.84,7.44,6.9.06.6,0,1.2-.06,1.8-4.62.12-9.42-1.98-9.42-8.46,0-6.96,6.42-9.84,10.98-9.84s7.74,2.04,9.54,5.22ZM40.3,340.96c1.14,0,2.04-.54,2.4-.78l6.3-4.38c-.12-1.92-.3-5.16-.3-8.28v-9.78c0-1.56,0-3.06.06-4.62-2.88-1.74-5.46-3.36-8.4-5.4l-5.94,3.78c.78,1.92,1.14,4.08,1.14,6.42,0,8.1-4.02,13.02-11.88,16.86l.06.18c3.36-.48,6.66,1.74,8.46,2.76,3,1.74,5.46,3.24,8.1,3.24Z"/><path d="M104.26,344.92c-4.38-2.04-6.96-4.26-8.4-6.3-1.26,1.02-2.76,1.74-4.5,2.58-4.98,2.52-6.48,3.24-8.52,3.24-2.94,0-4.44-1.02-7.5-2.64-4.02-2.16-7.44-3.84-10.92-3.84-.78,0-1.56.06-2.28.24-.24-.42-.42-.9-.42-1.56,6.66-1.92,9.78-3.3,12.18-5.52,2.94-2.64,3.6-5.34,3.6-11.46,0-6.72-1.56-12.6-8.04-12.6-4.56,0-7.56,3.48-7.56,7.02,0,4.92,4.14,6.66,7.8,7.38,0,.6-.12,1.14-.24,1.62-4.5-.42-9.36-3.18-9.36-8.58,0-6.84,6.42-10.02,11.58-10.02,4.38,0,7.5,2.1,9.24,5.46l10.38-5.94c3.06,2.4,4.14,4.2,7.8,6.96l11.94-6.96c3.12,2.46,4.68,3.9,7.92,6.24-.18,1.98-.3,3.9-.3,7.08v9.96c0,3.24,0,5.22.24,7.2-5.22,3.18-10.2,6.66-14.64,10.44ZM79.24,338.14c3,1.74,4.38,2.94,7.14,2.94,1.44,0,2.4-.3,4.32-1.32,2.94-1.56,3.48-2.46,3.48-10.02v-12.06c0-1.5,0-2.94.06-4.44-2.58-1.98-3.54-3.42-6.24-5.46l-6.42,3.6c.78,2.04,1.2,4.44,1.2,7.08,0,7.5-4.02,12.72-11.82,16.56l.06.18c3.06-.48,6.42,1.92,8.22,2.94ZM106.42,340.84l7.8-5.64c-.12-1.92-.3-4.86-.3-7.98v-9.54c0-1.62,0-3.18.12-4.8-2.52-1.8-3.84-3.06-6.3-5.04l-8.7,4.98c-.06,1.08-.12,2.58-.12,4.5v11.76c0,8.16,3.18,8.76,7.5,11.76Z"/><path d="M136.3,337.54c1.08-.06,4.56.6,6.72,1.98l3.78-3.72c.48.3.9.72,1.26,1.14-2.46,2.46-5.04,4.98-7.5,7.56-3.96-2.64-7.86-4.14-11.88-5.22-.06-.42,0-.9.06-1.32,10.86-2.28,16.14-7.2,17.16-13.68h-7.86c-.06-.54-.12-1.08-.06-1.62h8.1v-.9c0-8.88-3.6-14.52-9.72-14.52-3.96,0-7.26,2.88-7.26,7.68,0,2.88,1.44,4.74,3.18,5.76-.18.48-.6,1.02-.9,1.38-2.4-1.14-4.26-3.18-4.26-6.96,0-6.6,5.76-10.14,10.92-10.14,6.3,0,10.32,4.08,11.7,9h.18c1.2-2.46,3-4.2,4.8-5.4,3.72-2.4,5.46-2.52,6.06-4.08.24-.6.18-.96.18-1.68.42-.12.9-.18,1.2-.12.42,1.62,2.58,4.02,5.7,4.14.12.42.18.78.18,1.2-2.22.84-4.08,2.46-4.5,4.08-.3.06-.78.06-1.14.06-.48-1.5-1.5-3-3.9-3-3.9,0-8.1,5.1-8.1,12.6v.9h7.56c.12.54.12,1.08.12,1.62h-7.5c1.14,7.02,6.72,11.94,11.28,14.76l3.54-3.96c.48.18,1.08.66,1.44,1.02-1.86,2.16-4.38,4.98-6.6,8.28-8.46-5.58-11.52-11.88-12.42-16.74h-.18c-2.4,4.26-6.42,7.8-11.4,9.66l.06.24Z"/><path d="M208.23,339.04l-.12-.06c-4.08,2.88-6.3,3.6-8.88,3.6-7.86,0-9.66-6.84-20.16-6.84-1.98,0-3.3.24-4.08.42-.24-.48-.42-.96-.54-1.56,10.8-4.08,16.62-5.88,16.62-15.18,0-6.72-2.94-12.42-9.42-12.42-3.6,0-7.02,2.94-7.02,7.26,0,5.52,3.72,6.84,7.38,6.9.06.6,0,1.2-.06,1.8-4.62.12-9.48-1.98-9.48-8.46,0-6.96,6.48-9.84,11.04-9.84,4.08,0,7.38,1.56,9.66,4.26l9.12-5.34c3.12,2.46,7.92,4.62,11.64,6.6.24,1.98.72,5.4.72,15.24,0,20.82-12,31.56-23.64,31.56-8.28,0-11.88-3.48-11.88-7.56,0-1.68,1.26-3.96,3.72-3.96,2.22,0,3.06,1.56,3.06,3,0,2.1-1.56,2.52-1.56,3.96,0,1.26,1.08,2.7,6.3,2.7s14.28-3.72,17.58-16.08ZM202.65,339.34c1.62,0,3.72-.54,6.12-2.52.48-2.52.78-5.4.78-8.64,0-5.7-.24-8.64-.96-15.3-3.18-1.86-6.54-3.48-9.72-5.58l-4.86,2.76c1.44,2.22,2.22,4.98,2.22,8.16,0,7.5-6.48,12.6-12.12,14.46l.12.3c5.88-1.8,13.8,6.36,18.42,6.36Z"/><path d="M228.52,323.44c.42-.36.9-.72,1.44-.96,1.44,2.16,4.38,4.02,7.74,4.02,3.72,0,7.86-2.52,7.86-8.7,0-9.06-6.42-11.34-10.14-11.34-5.52,0-8.52,3.84-9.78,7.8-.54-.06-1.08-.24-1.62-.54,1.56-4.56,5.4-9.78,13.5-9.78,5.94,0,13.38,2.64,13.38,11.94,0,5.76-4.38,9.36-8.28,11.1v.12c6.24.72,10.38,5.46,10.38,11.94,0,9-8.52,14.64-15.12,14.64-7.26,0-9.06-4.56-12.6-4.56-1.26,0-3.36.96-3.36,3.36,0,1.86,1.26,3,3.54,3.48,0,.6-.12,1.14-.24,1.62-2.28-.18-5.04-1.8-5.04-4.68,0-4.32,4.02-5.1,8.76-9.42,3.36,3.96,6.6,7.62,11.16,7.62,3.72,0,7.62-2.16,7.62-9.66,0-5.46-2.46-12.66-10.44-12.66-4.5,0-7.74,3.36-9.36,5.76-.54-.24-1.02-.48-1.44-.84,2.16-3.12,4.5-5.1,7.74-6.06v-.12c-2.4-.66-4.32-2.04-5.7-4.08Z"/><path d="M62.14,16.41c0-2.16-1.8-3.18-3.93-5.04l-2.97.93c-.87.27-1.65.39-2.34.39-2.67,0-4.08-2.25-4.08-3.99,0-3.45,3.99-5.73,6.72-5.73,2.07,0,4.71,1.59,6,1.59.99,0,1.77-.84,1.77-1.86,0-1.14-.69-1.77-1.62-1.77-.69,0-1.2.45-1.53.81-.24-.15-.45-.3-.63-.51.54-.78,1.32-1.23,2.22-1.23,1.77,0,2.64,1.17,2.64,2.67,0,2.4-2.4,3.78-4.2,3.78-2.13,0-4.71-1.89-6.81-1.89-1.32,0-2.28.69-2.28,2.46,0,2.82,1.98,4.08,3.69,4.08.78,0,1.2.03,2.28-.33l3.3-1.14c1.86,1.47,3.84,3.15,3.84,5.49,0,2.19-1.32,3.57-4.05,5.52-.84.6-1.41,1.02-2.13,1.56-2.43-1.32-6.27-5.19-8.55-5.19-.99,0-1.86.6-1.86,1.74,0,1.02.69,1.74,2.16,1.92,0,.33-.03.6-.09.81-1.29.03-3.06-.75-3.06-2.7,0-1.71,1.74-3.33,4.17-3.33,3.06,0,6.27,3.3,8.64,4.53,1.65-1.11,2.7-1.92,2.7-3.57Z"/><path d="M66.31,17.88v-3.48c0-.93-.03-1.56-.06-2.07,1.68-1.17,3.42-2.43,5.07-3.36.87.69,1.23,1.2,1.74,2.25-.57.48-1.26.93-1.95,1.29-.45-.81-.75-1.23-1.2-1.62-.84.54-1.14.81-1.38.99.03.57.03,1.2.03,1.77v3.24c0,1.29-.03,1.65-.03,2.04.84.12,1.74.42,2.46.81l1.08-.99c.24.12.48.45.57.63-1.44,1.35-1.71,1.62-2.46,2.4-1.38-.78-2.4-1.2-3.93-1.53.03-.6.06-1.29.06-2.37Z"/><path d="M77.44,11.04c1.38-.75,2.82-1.5,4.2-2.13,1.74,2.52,2.67,4.38,2.67,6.48,0,3.3-1.62,6.66-7.29,12.72-.24-.12-.54-.36-.69-.57,3.72-4.11,5.82-7.14,5.82-10.17,0-2.55-1.56-4.95-2.76-6.39-.66.3-1.32.6-1.95.96v7.14c.45.12.84.24,1.32.51l.6-.57c.24.18.42.36.6.6-.72.66-1.35,1.29-2.01,2.04-1.08-.69-2.37-1.38-4.23-.99-.09-.15-.18-.36-.21-.57.48-.33,1.02-.72,1.68-.96V6.99c0-1.8-.33-3.36-1.53-4.08.06-.21.12-.39.24-.6.63.15,1.32.3,2.13,1.11.66-1.23,1.71-1.95,3.39-1.95.54,0,1.17.12,1.56.33-.03.21-.09.42-.18.63-2.25-.18-3.36.54-3.36,3.54v5.07Z"/><path d="M90.64,20.04c-.96.03-1.17.36-1.98,1.59-.21.03-.39.03-.6,0-.36-.66-.84-1.62-1.95-2.04-.03-.18-.03-.33,0-.51.69-.18,1.26-.69,1.26-1.89v-4.62c0-.54-.27-.99-.81-.99-.12,0-.33.03-.57.12-.15-.15-.24-.33-.33-.54.9-.72,1.71-1.41,2.25-2.49.15-.03.33-.03.48,0,.36.72,1.08,1.74,2.43,2.07.03.18.03.36,0,.54-.69.3-1.35.57-1.35,1.89v4.83c0,.63.27.9.69,1.17l2.31-.09c.6-.03,1.11-.39,1.11-.96v-5.04c0-1.2-.57-1.59-1.29-1.83-.03-.18-.03-.33,0-.51.9-.51,1.59-1.17,2.19-2.04.15-.03.33-.03.48,0,.39.66.87,1.62,1.98,2.04.03.18.03.33,0,.51-.69.18-1.26.69-1.26,1.89v4.62c0,.54.27.99.81.99.12,0,.33-.03.57-.12.12.15.24.33.33.54-1.02.81-1.71,1.41-2.25,2.49-.15.03-.33.03-.48,0-.27-.51-.84-1.38-1.38-1.74l-2.64.12Z"/><path d="M107.11,8.52c0,.96-.78,1.92-1.59,2.4.72.24.93.93.93,1.38,0,.39-.12.9-.42,1.23.78.6,1.41,1.47,1.41,2.43,0,.9-.33,1.65-1.29,3-.99,1.32-2.07,2.49-3.6,2.49-.57,0-1.2-.09-2.16-.57l-.48.78c-.27-.09-.51-.21-.72-.42l1.08-1.92c-.45-.39-.66-.96-.66-1.56,0-.72.33-1.08.66-1.38-1.02-.96-1.2-1.5-1.2-2.22,0-1.14.69-2.07,1.47-2.97,1.47-1.68,2.46-2.1,4.26-2.1.42,0,.84,0,1.05-.09.3-.09.39-.33.39-.51,0-.33-.15-.51-.39-.81.18-.21.42-.36.66-.51.24.21.6.66.6,1.35ZM100.45,17.61c0,1.29,1.41,1.71,3.15,1.71,1.38,0,2.13-.93,2.13-1.74,0-1.23-.93-1.62-1.92-2.52-2.22,1.17-3.36,1.32-3.36,2.55ZM104.92,13.59c.54-.27.69-.69.69-1.17,0-.51-.6-1.26-1.86-1.26-2.55,0-3,.57-3,1.23,0,1.02.9,1.65,1.8,2.4l2.37-1.2Z"/><path d="M114.58,21.51c-1.08-.69-3.57-1.38-5.43-.99-.09-.15-.18-.36-.21-.57.42-.3,1.11-.63,1.83-.84v-7.44h-1.83c-.09-.15-.15-.48-.12-.69l6.48-5.61c.24.18.42.42.54.66l-2.19,1.98c-.69.6-.78,1.08-.72,2.13h3.45c.18.39.12,1.11,0,1.5h-3.36v7.17c.72.06,1.74.3,2.37.63l.6-.57c.24.15.42.36.6.6-.72.66-1.35,1.29-2.01,2.04Z"/><path d="M123.58,8.94l1.35,1.56c.39.45.66.96.66,1.38,0,.78-.81,1.8-2.37,2.85l-2.43,1.65v.51c0,1.29-.03,1.65-.03,2.04.84.12,2.19.42,2.91.81l1.08-.99c.24.12.48.45.57.63-1.44,1.35-1.71,1.62-2.46,2.4-1.38-.78-2.85-1.2-4.38-1.53.03-.6.06-1.29.06-2.37v-3.48c0-.93-.03-1.56-.06-2.07,1.41-1.05,4.05-2.85,5.1-3.39ZM120.79,15.36l1.32-.9c.99-.66,1.26-1.08,1.26-1.62,0-.33-.09-.69-.51-1.17l-.72-.78-.39.27c-.45.3-.57.39-.99.72.03.57.03,1.2.03,1.77v1.71Z"/><path d="M132.58,21.66c-1.08-.69-3.57-1.38-5.43-.99-.09-.15-.18-.36-.21-.57.39-.27,1.02-.57,1.68-.81v-6.72c0-.54-.42-.99-.96-.99-.12,0-.33.03-.57.12-.12-.15-.24-.3-.3-.51,1.02-.81,1.83-1.44,2.25-2.52.21-.03.39-.03.6,0,.33.69.9,1.62,1.59,2.13,1.35-.48,2.28-.93,2.94-2.1.18-.03.36-.03.54,0,.27,1.05.54,1.53,1.5,1.89.03.21.03.39,0,.6-.81.36-1.74,1.11-1.95,1.8-.21.03-.39.03-.6,0-.18-.93-.54-1.53-1.35-1.53-.24,0-.39-.03-1.08.24l-.36.15v7.11c.72.03,1.83.27,2.52.63l.6-.57c.24.15.42.36.6.6-.72.66-1.35,1.29-2.01,2.04Z"/><path d="M142.27,12.48c-1.62.36-3.24.81-4.86,1.29-.06-.18-.09-1.02,0-1.2,1.62-.36,3.24-.81,4.86-1.29.09.18.06,1.02,0,1.2ZM142.27,16.47c-1.62.36-3.24.81-4.86,1.29-.06-.18-.09-1.02,0-1.2,1.62-.36,3.24-.81,4.86-1.29.09.18.06,1.02,0,1.2Z"/><path d="M147.82,17.7c.06.27.09.57.06.84-1.59.15-3.33,1.2-3.33,3.57,0,2.52,2.07,3.99,4.26,3.99,2.58,0,4.23-1.53,4.23-4.59,0-3.9-3.84-6.72-3.84-10.95,0-1.65.87-3.36,2.34-5.46-1.98-1.2-3.75-2.55-5.58-2.55-2.07,0-3.3,1.83-3.3,3.48,0,1.53.69,2.58,2.31,3.21-.06.33-.15.57-.27.78-1.56-.36-3.12-1.59-3.12-3.87,0-2.4,2.28-5.16,6.42-5.16s7.14,4.17,9.99,4.17c.87,0,1.83-.48,1.83-1.83,0-.66-.18-1.11-.33-1.5.27-.15.51-.24.78-.33.24.45.51,1.14.51,1.92,0,2.1-1.83,3.51-3.93,3.51-1.71,0-3.21-.63-4.62-1.41-1.02,1.32-1.17,2.22-1.17,3.21,0,1.26.99,2.85,1.98,4.71,1.08-.57,1.77-.99,1.98-1.59.09-.24.15-.87-.15-1.47.21-.15.48-.3.75-.39.54.84,1.38,1.11,2.4.51.18.21.3.42.42.69-1.02.9-1.26,1.56-.84,2.76-.21.18-.48.27-.75.33-.66-.84-1.29-1.44-3.42-.12.9,1.8,1.74,3.84,1.74,6.15,0,4.2-2.97,6.75-6.48,6.75-3.03,0-5.25-2.04-5.25-4.83,0-3.03,2.55-4.5,4.38-4.53Z"/><path d="M165.7,21.66c-1.08-.69-3.57-1.38-5.43-.99-.09-.15-.18-.36-.21-.57.39-.27,1.02-.57,1.68-.81v-6.72c0-.54-.42-.99-.96-.99-.12,0-.33.03-.57.12-.12-.15-.24-.3-.3-.51,1.02-.81,1.83-1.44,2.25-2.52.21-.03.39-.03.6,0,.33.69.9,1.62,1.59,2.13,1.35-.48,2.28-.93,2.94-2.1.18-.03.36-.03.54,0,.27,1.05.54,1.53,1.5,1.89.03.21.03.39,0,.6-.81.36-1.74,1.11-1.95,1.8-.21.03-.39.03-.6,0-.18-.93-.54-1.53-1.35-1.53-.24,0-.39-.03-1.08.24l-.36.15v7.11c.72.03,1.83.27,2.52.63l.6-.57c.24.15.42.36.6.6-.72.66-1.35,1.29-2.01,2.04Z"/><path d="M178.75,21.63c-1.41-.99-1.83-1.71-2.1-2.34h-.12l-2.46,2.34c-.87-.51-2.13-1.11-3.72-1.38.03-.6.06-1.29.06-2.37v-3.48c0-.93-.03-1.56-.06-2.07,1.89-1.17,3.69-2.31,5.49-3.57.9.72,2.25,1.8,3.51,1.8.24,0,.57-.06.81-.15.09.09.27.36.33.48-.36.42-.99.93-1.71,1.23v6.39c.24.36.63.63.96.87l.75-.69c.21.18.39.36.6.63-.81.69-1.59,1.44-2.34,2.31ZM174.88,19.59l1.65-1.53v-5.94c-.66-.18-1.38-.57-2.34-1.2l-.42.27c-.3.18-.9.57-1.17.81.03.54.06,1.23.06,1.83v3.06c0,1.29-.03,1.65-.03,2.04.78.06,1.65.33,2.25.66Z"/><path d="M187.6,15.36l-2.19,1.56v2.22c.24.09.48.24.87.45l.51-.48c.24.18.42.36.6.6-.72.66-1.26,1.2-1.92,1.95-1.08-.69-1.92-1.38-3.78-.99-.09-.18-.18-.39-.21-.57.48-.36,1.02-.72,1.68-.96V6.99c0-1.8-.33-3.36-1.53-4.08.06-.21.12-.39.24-.6.63.15,1.32.3,2.13,1.11.66-1.23,1.71-1.95,3.39-1.95.54,0,1.17.12,1.56.33-.03.21-.09.42-.18.63-2.25-.18-3.36.54-3.36,3.54v5.04c1.29-.75,2.46-1.47,3.81-2.1.78.84,1.77,1.53,1.77,2.49,0,.87-.27,1.74-1.56,2.64.63,2.43,1.44,4.53,2.46,5.55l.6-.57c.24.18.42.36.6.6-.72.66-1.35,1.29-2.01,2.04-1.89-1.11-2.82-3.09-3.48-6.3ZM187.48,10.83c-.69.3-1.38.69-2.07,1.08v4.02l2.43-1.71c.78-.54.81-1.11.81-1.53,0-.84-.51-1.29-1.17-1.86Z"/><path d="M199.51,21.51c-1.08-.69-3.57-1.38-5.43-.99-.09-.15-.18-.36-.21-.57.42-.3,1.11-.63,1.83-.84v-7.44h-1.83c-.09-.15-.15-.48-.12-.69l6.48-5.61c.24.18.42.42.54.66l-2.19,1.98c-.69.6-.78,1.08-.72,2.13h3.45c.18.39.12,1.11,0,1.5h-3.36v7.17c.72.06,1.74.3,2.37.63l.6-.57c.24.15.42.36.6.6-.72.66-1.35,1.29-2.01,2.04Z"/><path d="M207.61,20.04c-.96.03-1.17.36-1.98,1.59-.21.03-.39.03-.6,0-.36-.66-.84-1.62-1.95-2.04-.03-.18-.03-.33,0-.51.69-.18,1.26-.69,1.26-1.89v-4.62c0-.54-.27-.99-.81-.99-.12,0-.33.03-.57.12-.15-.15-.24-.33-.33-.54.9-.72,1.71-1.41,2.25-2.49.15-.03.33-.03.48,0,.36.72,1.08,1.74,2.43,2.07.03.18.03.36,0,.54-.69.3-1.35.57-1.35,1.89v4.83c0,.63.27.9.69,1.17l2.31-.09c.6-.03,1.11-.39,1.11-.96v-5.04c0-1.2-.57-1.59-1.29-1.83-.03-.18-.03-.33,0-.51.9-.51,1.59-1.17,2.19-2.04.15-.03.33-.03.48,0,.39.66.87,1.62,1.98,2.04.03.18.03.33,0,.51-.69.18-1.26.69-1.26,1.89v4.62c0,.54.27.99.81.99.12,0,.33-.03.57-.12.12.15.24.33.33.54-1.02.81-1.71,1.41-2.25,2.49-.15.03-.33.03-.48,0-.27-.51-.84-1.38-1.38-1.74l-2.64.12Z"/><path d="M221.23,21.66c-1.08-.69-3.57-1.38-5.43-.99-.09-.15-.18-.36-.21-.57.39-.27,1.02-.57,1.68-.81v-6.72c0-.54-.42-.99-.96-.99-.12,0-.33.03-.57.12-.12-.15-.24-.3-.3-.51,1.02-.81,1.83-1.44,2.25-2.52.21-.03.39-.03.6,0,.33.69.9,1.62,1.59,2.13,1.35-.48,2.28-.93,2.94-2.1.18-.03.36-.03.54,0,.27,1.05.54,1.53,1.5,1.89.03.21.03.39,0,.6-.81.36-1.74,1.11-1.95,1.8-.21.03-.39.03-.6,0-.18-.93-.54-1.53-1.35-1.53-.24,0-.39-.03-1.08.24l-.36.15v7.11c.72.03,1.83.27,2.52.63l.6-.57c.24.15.42.36.6.6-.72.66-1.35,1.29-2.01,2.04Z"/><line class="cls-1" x1=".26" y1="35.31" x2="261.81" y2="35.31"/><path class="cls-2" d="M261.71,37.02c.01.07.01.15,0,.22-.31.14-.46.32-.55.57-.08,0-.16,0-.24,0-.09-.25-.24-.43-.55-.57,0-.07,0-.15,0-.22.31-.14.46-.32.55-.57.08,0,.16,0,.24,0,.09.25.24.43.55.57Z"/><path class="cls-2" d="M260.18,37.02c.01.07.01.15,0,.22-.31.14-.46.32-.55.57-.08,0-.16,0-.24,0-.09-.25-.24-.43-.55-.57-.01-.07-.01-.15,0-.22.31-.14.46-.32.55-.57.08,0,.16,0,.24,0,.09.25.24.43.55.57Z"/><path class="cls-2" d="M258.65,37.02c.01.07.01.15,0,.22-.31.14-.46.32-.55.57-.08,0-.16,0-.24,0-.09-.25-.24-.43-.55-.57,0-.07,0-.15,0-.22.31-.14.46-.32.55-.57.08,0,.16,0,.24,0,.09.25.24.43.55.57Z"/><path class="cls-2" d="M257.12,37.02c.01.07.01.15,0,.22-.31.14-.46.32-.55.57-.08,0-.16,0-.24,0-.09-.25-.24-.43-.55-.57,0-.07,0-.15,0-.22.31-.14.46-.32.55-.57.08,0,.16,0,.24,0,.09.25.24.43.55.57Z"/><path class="cls-2" d="M255.59,37.02c.01.07.01.15,0,.22-.31.14-.46.32-.55.57-.08,0-.16,0-.24,0-.09-.25-.24-.43-.55-.57-.01-.07-.01-.15,0-.22.31-.14.46-.32.55-.57.08,0,.16,0,.24,0,.09.25.24.43.55.57Z"/><path class="cls-2" d="M254.06,37.02c.01.07.01.15,0,.22-.31.14-.46.32-.55.57-.08,0-.16,0-.24,0-.09-.25-.24-.43-.55-.57,0-.07,0-.15,0-.22.31-.14.46-.32.55-.57.08,0,.16,0,.24,0,.09.25.24.43.55.57Z"/><path class="cls-2" d="M252.53,37.02c.01.07.01.15,0,.22-.31.14-.46.32-.55.57-.08,0-.16,0-.24,0-.09-.25-.24-.43-.55-.57-.01-.07-.01-.15,0-.22.31-.14.46-.32.55-.57.08,0,.16,0,.24,0,.09.25.24.43.55.57Z"/><path class="cls-2" d="M251,37.02c.01.07.01.15,0,.22-.31.14-.46.32-.55.57-.08,0-.16,0-.24,0-.09-.25-.24-.43-.55-.57-.01-.07-.01-.15,0-.22.31-.14.46-.32.55-.57.08,0,.16,0,.24,0,.09.25.24.43.55.57Z"/><path class="cls-2" d="M249.47,37.02c.01.07.01.15,0,.22-.31.14-.46.32-.55.57-.08,0-.16,0-.24,0-.09-.25-.24-.43-.55-.57,0-.07,0-.15,0-.22.31-.14.46-.32.55-.57.08,0,.16,0,.24,0,.09.25.24.43.55.57Z"/><path class="cls-2" d="M247.94,37.02c.01.07.01.15,0,.22-.31.14-.46.32-.55.57-.08,0-.16,0-.24,0-.09-.25-.24-.43-.55-.57-.01-.07-.01-.15,0-.22.31-.14.46-.32.55-.57.08,0,.16,0,.24,0,.09.25.24.43.55.57Z"/><path class="cls-2" d="M246.41,37.02c.01.07.01.15,0,.22-.31.14-.46.32-.55.57-.08,0-.16,0-.24,0-.09-.25-.24-.43-.55-.57,0-.07,0-.15,0-.22.31-.14.46-.32.55-.57.08,0,.16,0,.24,0,.09.25.24.43.55.57Z"/><path class="cls-2" d="M244.88,37.02c.01.07.01.15,0,.22-.31.14-.46.32-.55.57-.08,0-.16,0-.24,0-.09-.25-.24-.43-.55-.57-.01-.07-.01-.15,0-.22.31-.14.46-.32.55-.57.08,0,.16,0,.24,0,.09.25.24.43.55.57Z"/><path class="cls-2" d="M243.35,37.02c.01.07.01.15,0,.22-.31.14-.46.32-.55.57-.08,0-.16,0-.24,0-.09-.25-.24-.43-.55-.57-.01-.07-.01-.15,0-.22.31-.14.46-.32.55-.57.08,0,.16,0,.24,0,.09.25.24.43.55.57Z"/><path class="cls-2" d="M241.82,37.02c.01.07.01.15,0,.22-.31.14-.46.32-.55.57-.08,0-.16,0-.24,0-.09-.25-.24-.43-.55-.57,0-.07,0-.15,0-.22.31-.14.46-.32.55-.57.08,0,.16,0,.24,0,.09.25.24.43.55.57Z"/><path class="cls-2" d="M240.29,37.02c.01.07.01.15,0,.22-.31.14-.46.32-.55.57-.08,0-.16,0-.24,0-.09-.25-.24-.43-.55-.57-.01-.07-.01-.15,0-.22.31-.14.46-.32.55-.57.08,0,.16,0,.24,0,.09.25.24.43.55.57Z"/><path class="cls-2" d="M238.76,37.02c.01.07.01.15,0,.22-.31.14-.46.32-.55.57-.08,0-.16,0-.24,0-.09-.25-.24-.43-.55-.57,0-.07,0-.15,0-.22.31-.14.46-.32.55-.57.08,0,.16,0,.24,0,.09.25.24.43.55.57Z"/><path class="cls-2" d="M237.23,37.02c.01.07.01.15,0,.22-.31.14-.46.32-.55.57-.08,0-.16,0-.24,0-.09-.25-.24-.43-.55-.57,0-.07,0-.15,0-.22.31-.14.46-.32.55-.57.08,0,.16,0,.24,0,.09.25.24.43.55.57Z"/><path class="cls-2" d="M235.7,37.02c.01.07.01.15,0,.22-.31.14-.46.32-.55.57-.08,0-.16,0-.24,0-.09-.25-.24-.43-.55-.57-.01-.07-.01-.15,0-.22.31-.14.46-.32.55-.57.08,0,.16,0,.24,0,.09.25.24.43.55.57Z"/><path class="cls-2" d="M234.17,37.02c.01.07.01.15,0,.22-.31.14-.46.32-.55.57-.08,0-.16,0-.24,0-.09-.25-.24-.43-.55-.57,0-.07,0-.15,0-.22.31-.14.46-.32.55-.57.08,0,.16,0,.24,0,.09.25.24.43.55.57Z"/><path class="cls-2" d="M232.64,37.02c.01.07.01.15,0,.22-.31.14-.46.32-.55.57-.08,0-.16,0-.24,0-.09-.25-.24-.43-.55-.57-.01-.07-.01-.15,0-.22.31-.14.46-.32.55-.57.08,0,.16,0,.24,0,.09.25.24.43.55.57Z"/><path class="cls-2" d="M231.11,37.02c.01.07.01.15,0,.22-.31.14-.46.32-.55.57-.08,0-.16,0-.24,0-.09-.25-.24-.43-.55-.57,0-.07,0-.15,0-.22.31-.14.46-.32.55-.57.08,0,.16,0,.24,0,.09.25.24.43.55.57Z"/><path class="cls-2" d="M229.58,37.02c.01.07.01.15,0,.22-.31.14-.46.32-.55.57-.08,0-.16,0-.24,0-.09-.25-.24-.43-.55-.57,0-.07,0-.15,0-.22.31-.14.46-.32.55-.57.08,0,.16,0,.24,0,.09.25.24.43.55.57Z"/><path class="cls-2" d="M228.05,37.02c.01.07.01.15,0,.22-.31.14-.46.32-.55.57-.08,0-.16,0-.24,0-.09-.25-.24-.43-.55-.57-.01-.07-.01-.15,0-.22.31-.14.46-.32.55-.57.08,0,.16,0,.24,0,.09.25.24.43.55.57Z"/><path class="cls-2" d="M226.52,37.02c.01.07.01.15,0,.22-.31.14-.46.32-.55.57-.08,0-.16,0-.24,0-.09-.25-.24-.43-.55-.57,0-.07,0-.15,0-.22.31-.14.46-.32.55-.57.08,0,.16,0,.24,0,.09.25.24.43.55.57Z"/><path class="cls-2" d="M224.99,37.02c.01.07.01.15,0,.22-.31.14-.46.32-.55.57-.08,0-.16,0-.24,0-.09-.25-.24-.43-.55-.57-.01-.07-.01-.15,0-.22.31-.14.46-.32.55-.57.08,0,.16,0,.24,0,.09.25.24.43.55.57Z"/><path class="cls-2" d="M223.46,37.02c.01.07.01.15,0,.22-.31.14-.46.32-.55.57-.08,0-.16,0-.24,0-.09-.25-.24-.43-.55-.57-.01-.07-.01-.15,0-.22.31-.14.46-.32.55-.57.08,0,.16,0,.24,0,.09.25.24.43.55.57Z"/><path class="cls-2" d="M221.93,37.02c.01.07.01.15,0,.22-.31.14-.46.32-.55.57-.08,0-.16,0-.24,0-.09-.25-.24-.43-.55-.57,0-.07,0-.15,0-.22.31-.14.46-.32.55-.57.08,0,.16,0,.24,0,.09.25.24.43.55.57Z"/><path class="cls-2" d="M220.4,37.02c.01.07.01.15,0,.22-.31.14-.46.32-.55.57-.08,0-.16,0-.24,0-.09-.25-.24-.43-.55-.57-.01-.07-.01-.15,0-.22.31-.14.46-.32.55-.57.08,0,.16,0,.24,0,.09.25.24.43.55.57Z"/><path class="cls-2" d="M218.87,37.02c.01.07.01.15,0,.22-.31.14-.46.32-.55.57-.08,0-.16,0-.24,0-.09-.25-.24-.43-.55-.57,0-.07,0-.15,0-.22.31-.14.46-.32.55-.57.08,0,.16,0,.24,0,.09.25.24.43.55.57Z"/><path class="cls-2" d="M217.34,37.02c.01.07.01.15,0,.22-.31.14-.46.32-.55.57-.08,0-.16,0-.24,0-.09-.25-.24-.43-.55-.57,0-.07,0-.15,0-.22.31-.14.46-.32.55-.57.08,0,.16,0,.24,0,.09.25.24.43.55.57Z"/><path class="cls-2" d="M215.81,37.02c.01.07.01.15,0,.22-.31.14-.46.32-.55.57-.08,0-.16,0-.24,0-.09-.25-.24-.43-.55-.57-.01-.07-.01-.15,0-.22.31-.14.46-.32.55-.57.08,0,.16,0,.24,0,.09.25.24.43.55.57Z"/><path class="cls-2" d="M214.28,37.02c.01.07.01.15,0,.22-.31.14-.46.32-.55.57-.08,0-.16,0-.24,0-.09-.25-.24-.43-.55-.57,0-.07,0-.15,0-.22.31-.14.46-.32.55-.57.08,0,.16,0,.24,0,.09.25.24.43.55.57Z"/><path class="cls-2" d="M212.75,37.02c.01.07.01.15,0,.22-.31.14-.46.32-.55.57-.08,0-.16,0-.24,0-.09-.25-.24-.43-.55-.57-.01-.07-.01-.15,0-.22.31-.14.46-.32.55-.57.08,0,.16,0,.24,0,.09.25.24.43.55.57Z"/><path class="cls-2" d="M211.22,37.02c.01.07.01.15,0,.22-.31.14-.46.32-.55.57-.08,0-.16,0-.24,0-.09-.25-.24-.43-.55-.57,0-.07,0-.15,0-.22.31-.14.46-.32.55-.57.08,0,.16,0,.24,0,.09.25.24.43.55.57Z"/><path class="cls-2" d="M209.69,37.02c.01.07.01.15,0,.22-.31.14-.46.32-.55.57-.08,0-.16,0-.24,0-.09-.25-.24-.43-.55-.57,0-.07,0-.15,0-.22.31-.14.46-.32.55-.57.08,0,.16,0,.24,0,.09.25.24.43.55.57Z"/><path class="cls-2" d="M208.16,37.02c.01.07.01.15,0,.22-.31.14-.46.32-.55.57-.08,0-.16,0-.24,0-.09-.25-.24-.43-.55-.57-.01-.07-.01-.15,0-.22.31-.14.46-.32.55-.57.08,0,.16,0,.24,0,.09.25.24.43.55.57Z"/><path class="cls-2" d="M206.63,37.02c.01.07.01.15,0,.22-.31.14-.46.32-.55.57-.08,0-.16,0-.24,0-.09-.25-.24-.43-.55-.57,0-.07,0-.15,0-.22.31-.14.46-.32.55-.57.08,0,.16,0,.24,0,.09.25.24.43.55.57Z"/><path class="cls-2" d="M205.1,37.02c.01.07.01.15,0,.22-.31.14-.46.32-.55.57-.08,0-.16,0-.24,0-.09-.25-.24-.43-.55-.57-.01-.07-.01-.15,0-.22.31-.14.46-.32.55-.57.08,0,.16,0,.24,0,.09.25.24.43.55.57Z"/><path class="cls-2" d="M203.57,37.02c.01.07.01.15,0,.22-.31.14-.46.32-.55.57-.08,0-.16,0-.24,0-.09-.25-.24-.43-.55-.57-.01-.07-.01-.15,0-.22.31-.14.46-.32.55-.57.08,0,.16,0,.24,0,.09.25.24.43.55.57Z"/><path class="cls-2" d="M202.04,37.02c.01.07.01.15,0,.22-.31.14-.46.32-.55.57-.08,0-.16,0-.24,0-.09-.25-.24-.43-.55-.57,0-.07,0-.15,0-.22.31-.14.46-.32.55-.57.08,0,.16,0,.24,0,.09.25.24.43.55.57Z"/><path class="cls-2" d="M200.51,37.02c.01.07.01.15,0,.22-.31.14-.46.32-.55.57-.08,0-.16,0-.24,0-.09-.25-.24-.43-.55-.57-.01-.07-.01-.15,0-.22.31-.14.46-.32.55-.57.08,0,.16,0,.24,0,.09.25.24.43.55.57Z"/><path class="cls-2" d="M198.98,37.02c.01.07.01.15,0,.22-.31.14-.46.32-.55.57-.08,0-.16,0-.24,0-.09-.25-.24-.43-.55-.57,0-.07,0-.15,0-.22.31-.14.46-.32.55-.57.08,0,.16,0,.24,0,.09.25.24.43.55.57Z"/><path class="cls-2" d="M197.45,37.02c.01.07.01.15,0,.22-.31.14-.46.32-.55.57-.08,0-.16,0-.24,0-.09-.25-.24-.43-.55-.57-.01-.07-.01-.15,0-.22.31-.14.46-.32.55-.57.08,0,.16,0,.24,0,.09.25.24.43.55.57Z"/><path class="cls-2" d="M195.92,37.02c.01.07.01.15,0,.22-.31.14-.46.32-.55.57-.08,0-.16,0-.24,0-.09-.25-.24-.43-.55-.57-.01-.07-.01-.15,0-.22.31-.14.46-.32.55-.57.08,0,.16,0,.24,0,.09.25.24.43.55.57Z"/><path class="cls-2" d="M194.39,37.02c.01.07.01.15,0,.22-.31.14-.46.32-.55.57-.08,0-.16,0-.24,0-.09-.25-.24-.43-.55-.57,0-.07,0-.15,0-.22.31-.14.46-.32.55-.57.08,0,.16,0,.24,0,.09.25.24.43.55.57Z"/><path class="cls-2" d="M192.86,37.02c.01.07.01.15,0,.22-.31.14-.46.32-.55.57-.08,0-.16,0-.24,0-.09-.25-.24-.43-.55-.57-.01-.07-.01-.15,0-.22.31-.14.46-.32.55-.57.08,0,.16,0,.24,0,.09.25.24.43.55.57Z"/><path class="cls-2" d="M191.33,37.02c.01.07.01.15,0,.22-.31.14-.46.32-.55.57-.08,0-.16,0-.24,0-.09-.25-.24-.43-.55-.57,0-.07,0-.15,0-.22.31-.14.46-.32.55-.57.08,0,.16,0,.24,0,.09.25.24.43.55.57Z"/><path class="cls-2" d="M189.8,37.02c.01.07.01.15,0,.22-.31.14-.46.32-.55.57-.08,0-.16,0-.24,0-.09-.25-.24-.43-.55-.57,0-.07,0-.15,0-.22.31-.14.46-.32.55-.57.08,0,.16,0,.24,0,.09.25.24.43.55.57Z"/><path class="cls-2" d="M188.27,37.02c.01.07.01.15,0,.22-.31.14-.46.32-.55.57-.08,0-.16,0-.24,0-.09-.25-.24-.43-.55-.57-.01-.07-.01-.15,0-.22.31-.14.46-.32.55-.57.08,0,.16,0,.24,0,.09.25.24.43.55.57Z"/><path class="cls-2" d="M186.74,37.02c.01.07.01.15,0,.22-.31.14-.46.32-.55.57-.08,0-.16,0-.24,0-.09-.25-.24-.43-.55-.57,0-.07,0-.15,0-.22.31-.14.46-.32.55-.57.08,0,.16,0,.24,0,.09.25.24.43.55.57Z"/><path class="cls-2" d="M185.21,37.02c.01.07.01.15,0,.22-.31.14-.46.32-.55.57-.08,0-.16,0-.24,0-.09-.25-.24-.43-.55-.57-.01-.07-.01-.15,0-.22.31-.14.46-.32.55-.57.08,0,.16,0,.24,0,.09.25.24.43.55.57Z"/><path class="cls-2" d="M183.68,37.02c.01.07.01.15,0,.22-.31.14-.46.32-.55.57-.08,0-.16,0-.24,0-.09-.25-.24-.43-.55-.57,0-.07,0-.15,0-.22.31-.14.46-.32.55-.57.08,0,.16,0,.24,0,.09.25.24.43.55.57Z"/><path class="cls-2" d="M182.15,37.02c.01.07.01.15,0,.22-.31.14-.46.32-.55.57-.08,0-.16,0-.24,0-.09-.25-.24-.43-.55-.57,0-.07,0-.15,0-.22.31-.14.46-.32.55-.57.08,0,.16,0,.24,0,.09.25.24.43.55.57Z"/><path class="cls-2" d="M180.62,37.02c.01.07.01.15,0,.22-.31.14-.46.32-.55.57-.08,0-.16,0-.24,0-.09-.25-.24-.43-.55-.57-.01-.07-.01-.15,0-.22.31-.14.46-.32.55-.57.08,0,.16,0,.24,0,.09.25.24.43.55.57Z"/><path class="cls-2" d="M179.09,37.02c.01.07.01.15,0,.22-.31.14-.46.32-.55.57-.08,0-.16,0-.24,0-.09-.25-.24-.43-.55-.57,0-.07,0-.15,0-.22.31-.14.46-.32.55-.57.08,0,.16,0,.24,0,.09.25.24.43.55.57Z"/><path class="cls-2" d="M177.56,37.02c.01.07.01.15,0,.22-.31.14-.46.32-.55.57-.08,0-.16,0-.24,0-.09-.25-.24-.43-.55-.57-.01-.07-.01-.15,0-.22.31-.14.46-.32.55-.57.08,0,.16,0,.24,0,.09.25.24.43.55.57Z"/><path class="cls-2" d="M176.03,37.02c.01.07.01.15,0,.22-.31.14-.46.32-.55.57-.08,0-.16,0-.24,0-.09-.25-.24-.43-.55-.57-.01-.07-.01-.15,0-.22.31-.14.46-.32.55-.57.08,0,.16,0,.24,0,.09.25.24.43.55.57Z"/><path class="cls-2" d="M174.5,37.02c.01.07.01.15,0,.22-.31.14-.46.32-.55.57-.08,0-.16,0-.24,0-.09-.25-.24-.43-.55-.57,0-.07,0-.15,0-.22.31-.14.46-.32.55-.57.08,0,.16,0,.24,0,.09.25.24.43.55.57Z"/><path class="cls-2" d="M172.97,37.02c.01.07.01.15,0,.22-.31.14-.46.32-.55.57-.08,0-.16,0-.24,0-.09-.25-.24-.43-.55-.57-.01-.07-.01-.15,0-.22.31-.14.46-.32.55-.57.08,0,.16,0,.24,0,.09.25.24.43.55.57Z"/><path class="cls-2" d="M171.44,37.02c.01.07.01.15,0,.22-.31.14-.46.32-.55.57-.08,0-.16,0-.24,0-.09-.25-.24-.43-.55-.57,0-.07,0-.15,0-.22.31-.14.46-.32.55-.57.08,0,.16,0,.24,0,.09.25.24.43.55.57Z"/><path class="cls-2" d="M169.91,37.02c.01.07.01.15,0,.22-.31.14-.46.32-.55.57-.08,0-.16,0-.24,0-.09-.25-.24-.43-.55-.57,0-.07,0-.15,0-.22.31-.14.46-.32.55-.57.08,0,.16,0,.24,0,.09.25.24.43.55.57Z"/><path class="cls-2" d="M168.38,37.02c.01.07.01.15,0,.22-.31.14-.46.32-.55.57-.08,0-.16,0-.24,0-.09-.25-.24-.43-.55-.57-.01-.07-.01-.15,0-.22.31-.14.46-.32.55-.57.08,0,.16,0,.24,0,.09.25.24.43.55.57Z"/><path class="cls-2" d="M166.85,37.02c.01.07.01.15,0,.22-.31.14-.46.32-.55.57-.08,0-.16,0-.24,0-.09-.25-.24-.43-.55-.57,0-.07,0-.15,0-.22.31-.14.46-.32.55-.57.08,0,.16,0,.24,0,.09.25.24.43.55.57Z"/><path class="cls-2" d="M165.32,37.02c.01.07.01.15,0,.22-.31.14-.46.32-.55.57-.08,0-.16,0-.24,0-.09-.25-.24-.43-.55-.57-.01-.07-.01-.15,0-.22.31-.14.46-.32.55-.57.08,0,.16,0,.24,0,.09.25.24.43.55.57Z"/><path class="cls-2" d="M163.79,37.02c.01.07.01.15,0,.22-.31.14-.46.32-.55.57-.08,0-.16,0-.24,0-.09-.25-.24-.43-.55-.57,0-.07,0-.15,0-.22.31-.14.46-.32.55-.57.08,0,.16,0,.24,0,.09.25.24.43.55.57Z"/><path class="cls-2" d="M162.26,37.02c.01.07.01.15,0,.22-.31.14-.46.32-.55.57-.08,0-.16,0-.24,0-.09-.25-.24-.43-.55-.57,0-.07,0-.15,0-.22.31-.14.46-.32.55-.57.08,0,.16,0,.24,0,.09.25.24.43.55.57Z"/><path class="cls-2" d="M160.73,37.02c.01.07.01.15,0,.22-.31.14-.46.32-.55.57-.08,0-.16,0-.24,0-.09-.25-.24-.43-.55-.57-.01-.07-.01-.15,0-.22.31-.14.46-.32.55-.57.08,0,.16,0,.24,0,.09.25.24.43.55.57Z"/><path class="cls-2" d="M159.21,37.02c.01.07.01.15,0,.22-.31.14-.46.32-.55.57-.08,0-.16,0-.24,0-.09-.25-.24-.43-.55-.57,0-.07,0-.15,0-.22.31-.14.46-.32.55-.57.08,0,.16,0,.24,0,.09.25.24.43.55.57Z"/><path class="cls-2" d="M157.68,37.02c.01.07.01.15,0,.22-.31.14-.46.32-.55.57-.08,0-.16,0-.24,0-.09-.25-.24-.43-.55-.57-.01-.07-.01-.15,0-.22.31-.14.46-.32.55-.57.08,0,.16,0,.24,0,.09.25.24.43.55.57Z"/><path class="cls-2" d="M156.15,37.02c.01.07.01.15,0,.22-.31.14-.46.32-.55.57-.08,0-.16,0-.24,0-.09-.25-.24-.43-.55-.57-.01-.07-.01-.15,0-.22.31-.14.46-.32.55-.57.08,0,.16,0,.24,0,.09.25.24.43.55.57Z"/><path class="cls-2" d="M154.62,37.02c.01.07.01.15,0,.22-.31.14-.46.32-.55.57-.08,0-.16,0-.24,0-.09-.25-.24-.43-.55-.57,0-.07,0-.15,0-.22.31-.14.46-.32.55-.57.08,0,.16,0,.24,0,.09.25.24.43.55.57Z"/><path class="cls-2" d="M153.09,37.02c.01.07.01.15,0,.22-.31.14-.46.32-.55.57-.08,0-.16,0-.24,0-.09-.25-.24-.43-.55-.57-.01-.07-.01-.15,0-.22.31-.14.46-.32.55-.57.08,0,.16,0,.24,0,.09.25.24.43.55.57Z"/><path class="cls-2" d="M151.56,37.02c.01.07.01.15,0,.22-.31.14-.46.32-.55.57-.08,0-.16,0-.24,0-.09-.25-.24-.43-.55-.57,0-.07,0-.15,0-.22.31-.14.46-.32.55-.57.08,0,.16,0,.24,0,.09.25.24.43.55.57Z"/><path class="cls-2" d="M150.03,37.02c.01.07.01.15,0,.22-.31.14-.46.32-.55.57-.08,0-.16,0-.24,0-.09-.25-.24-.43-.55-.57-.01-.07-.01-.15,0-.22.31-.14.46-.32.55-.57.08,0,.16,0,.24,0,.09.25.24.43.55.57Z"/><path class="cls-2" d="M148.5,37.02c.01.07.01.15,0,.22-.31.14-.46.32-.55.57-.08,0-.16,0-.24,0-.09-.25-.24-.43-.55-.57-.01-.07-.01-.15,0-.22.31-.14.46-.32.55-.57.08,0,.16,0,.24,0,.09.25.24.43.55.57Z"/><path class="cls-2" d="M146.97,37.02c.01.07.01.15,0,.22-.31.14-.46.32-.55.57-.08,0-.16,0-.24,0-.09-.25-.24-.43-.55-.57,0-.07,0-.15,0-.22.31-.14.46-.32.55-.57.08,0,.16,0,.24,0,.09.25.24.43.55.57Z"/><path class="cls-2" d="M145.44,37.02c.01.07.01.15,0,.22-.31.14-.46.32-.55.57-.08,0-.16,0-.24,0-.09-.25-.24-.43-.55-.57-.01-.07-.01-.15,0-.22.31-.14.46-.32.55-.57.08,0,.16,0,.24,0,.09.25.24.43.55.57Z"/><path class="cls-2" d="M143.91,37.02c.01.07.01.15,0,.22-.31.14-.46.32-.55.57-.08,0-.16,0-.24,0-.09-.25-.24-.43-.55-.57,0-.07,0-.15,0-.22.31-.14.46-.32.55-.57.08,0,.16,0,.24,0,.09.25.24.43.55.57Z"/><path class="cls-2" d="M142.38,37.02c.01.07.01.15,0,.22-.31.14-.46.32-.55.57-.08,0-.16,0-.24,0-.09-.25-.24-.43-.55-.57,0-.07,0-.15,0-.22.31-.14.46-.32.55-.57.08,0,.16,0,.24,0,.09.25.24.43.55.57Z"/><path class="cls-2" d="M140.85,37.02c.01.07.01.15,0,.22-.31.14-.46.32-.55.57-.08,0-.16,0-.24,0-.09-.25-.24-.43-.55-.57-.01-.07-.01-.15,0-.22.31-.14.46-.32.55-.57.08,0,.16,0,.24,0,.09.25.24.43.55.57Z"/><path class="cls-2" d="M139.32,37.02c.01.07.01.15,0,.22-.31.14-.46.32-.55.57-.08,0-.16,0-.24,0-.09-.25-.24-.43-.55-.57,0-.07,0-.15,0-.22.31-.14.46-.32.55-.57.08,0,.16,0,.24,0,.09.25.24.43.55.57Z"/><path class="cls-2" d="M137.79,37.02c.01.07.01.15,0,.22-.31.14-.46.32-.55.57-.08,0-.16,0-.24,0-.09-.25-.24-.43-.55-.57-.01-.07-.01-.15,0-.22.31-.14.46-.32.55-.57.08,0,.16,0,.24,0,.09.25.24.43.55.57Z"/><path class="cls-2" d="M136.26,37.02c.01.07.01.15,0,.22-.31.14-.46.32-.55.57-.08,0-.16,0-.24,0-.09-.25-.24-.43-.55-.57,0-.07,0-.15,0-.22.31-.14.46-.32.55-.57.08,0,.16,0,.24,0,.09.25.24.43.55.57Z"/><path class="cls-2" d="M134.73,37.02c.01.07.01.15,0,.22-.31.14-.46.32-.55.57-.08,0-.16,0-.24,0-.09-.25-.24-.43-.55-.57,0-.07,0-.15,0-.22.31-.14.46-.32.55-.57.08,0,.16,0,.24,0,.09.25.24.43.55.57Z"/><path class="cls-2" d="M133.2,37.02c.01.07.01.15,0,.22-.31.14-.46.32-.55.57-.08,0-.16,0-.24,0-.09-.25-.24-.43-.55-.57-.01-.07-.01-.15,0-.22.31-.14.46-.32.55-.57.08,0,.16,0,.24,0,.09.25.24.43.55.57Z"/><path class="cls-2" d="M131.67,37.02c.01.07.01.15,0,.22-.31.14-.46.32-.55.57-.08,0-.16,0-.24,0-.09-.25-.24-.43-.55-.57,0-.07,0-.15,0-.22.31-.14.46-.32.55-.57.08,0,.16,0,.24,0,.09.25.24.43.55.57Z"/><path class="cls-2" d="M130.14,37.02c.01.07.01.15,0,.22-.31.14-.46.32-.55.57-.08,0-.16,0-.24,0-.09-.25-.24-.43-.55-.57-.01-.07-.01-.15,0-.22.31-.14.46-.32.55-.57.08,0,.16,0,.24,0,.09.25.24.43.55.57Z"/><path class="cls-2" d="M128.61,37.02c.01.07.01.15,0,.22-.31.14-.46.32-.55.57-.08,0-.16,0-.24,0-.09-.25-.24-.43-.55-.57-.01-.07-.01-.15,0-.22.31-.14.46-.32.55-.57.08,0,.16,0,.24,0,.09.25.24.43.55.57Z"/><path class="cls-2" d="M127.08,37.02c.01.07.01.15,0,.22-.31.14-.46.32-.55.57-.08,0-.16,0-.24,0-.09-.25-.24-.43-.55-.57,0-.07,0-.15,0-.22.31-.14.46-.32.55-.57.08,0,.16,0,.24,0,.09.25.24.43.55.57Z"/><path class="cls-2" d="M125.55,37.02c.01.07.01.15,0,.22-.31.14-.46.32-.55.57-.08,0-.16,0-.24,0-.09-.25-.24-.43-.55-.57-.01-.07-.01-.15,0-.22.31-.14.46-.32.55-.57.08,0,.16,0,.24,0,.09.25.24.43.55.57Z"/><path class="cls-2" d="M124.02,37.02c.01.07.01.15,0,.22-.31.14-.46.32-.55.57-.08,0-.16,0-.24,0-.09-.25-.24-.43-.55-.57,0-.07,0-.15,0-.22.31-.14.46-.32.55-.57.08,0,.16,0,.24,0,.09.25.24.43.55.57Z"/><path class="cls-2" d="M122.49,37.02c.01.07.01.15,0,.22-.31.14-.46.32-.55.57-.08,0-.16,0-.24,0-.09-.25-.24-.43-.55-.57-.01-.07-.01-.15,0-.22.31-.14.46-.32.55-.57.08,0,.16,0,.24,0,.09.25.24.43.55.57Z"/><path class="cls-2" d="M120.96,37.02c.01.07.01.15,0,.22-.31.14-.46.32-.55.57-.08,0-.16,0-.24,0-.09-.25-.24-.43-.55-.57-.01-.07-.01-.15,0-.22.31-.14.46-.32.55-.57.08,0,.16,0,.24,0,.09.25.24.43.55.57Z"/><path class="cls-2" d="M119.43,37.02c.01.07.01.15,0,.22-.31.14-.46.32-.55.57-.08,0-.16,0-.24,0-.09-.25-.24-.43-.55-.57,0-.07,0-.15,0-.22.31-.14.46-.32.55-.57.08,0,.16,0,.24,0,.09.25.24.43.55.57Z"/><path class="cls-2" d="M117.9,37.02c.01.07.01.15,0,.22-.31.14-.46.32-.55.57-.08,0-.16,0-.24,0-.09-.25-.24-.43-.55-.57-.01-.07-.01-.15,0-.22.31-.14.46-.32.55-.57.08,0,.16,0,.24,0,.09.25.24.43.55.57Z"/><path class="cls-2" d="M116.37,37.02c.01.07.01.15,0,.22-.31.14-.46.32-.55.57-.08,0-.16,0-.24,0-.09-.25-.24-.43-.55-.57,0-.07,0-.15,0-.22.31-.14.46-.32.55-.57.08,0,.16,0,.24,0,.09.25.24.43.55.57Z"/><path class="cls-2" d="M114.84,37.02c.01.07.01.15,0,.22-.31.14-.46.32-.55.57-.08,0-.16,0-.24,0-.09-.25-.24-.43-.55-.57,0-.07,0-.15,0-.22.31-.14.46-.32.55-.57.08,0,.16,0,.24,0,.09.25.24.43.55.57Z"/><path class="cls-2" d="M113.31,37.02c.01.07.01.15,0,.22-.31.14-.46.32-.55.57-.08,0-.16,0-.24,0-.09-.25-.24-.43-.55-.57-.01-.07-.01-.15,0-.22.31-.14.46-.32.55-.57.08,0,.16,0,.24,0,.09.25.24.43.55.57Z"/><path class="cls-2" d="M111.78,37.02c.01.07.01.15,0,.22-.31.14-.46.32-.55.57-.08,0-.16,0-.24,0-.09-.25-.24-.43-.55-.57,0-.07,0-.15,0-.22.31-.14.46-.32.55-.57.08,0,.16,0,.24,0,.09.25.24.43.55.57Z"/><path class="cls-2" d="M110.25,37.02c.01.07.01.15,0,.22-.31.14-.46.32-.55.57-.08,0-.16,0-.24,0-.09-.25-.24-.43-.55-.57-.01-.07-.01-.15,0-.22.31-.14.46-.32.55-.57.08,0,.16,0,.24,0,.09.25.24.43.55.57Z"/><path class="cls-2" d="M108.72,37.02c.01.07.01.15,0,.22-.31.14-.46.32-.55.57-.08,0-.16,0-.24,0-.09-.25-.24-.43-.55-.57,0-.07,0-.15,0-.22.31-.14.46-.32.55-.57.08,0,.16,0,.24,0,.09.25.24.43.55.57Z"/><path class="cls-2" d="M107.19,37.02c.01.07.01.15,0,.22-.31.14-.46.32-.55.57-.08,0-.16,0-.24,0-.09-.25-.24-.43-.55-.57,0-.07,0-.15,0-.22.31-.14.46-.32.55-.57.08,0,.16,0,.24,0,.09.25.24.43.55.57Z"/><path class="cls-2" d="M105.66,37.02c.01.07.01.15,0,.22-.31.14-.46.32-.55.57-.08,0-.16,0-.24,0-.09-.25-.24-.43-.55-.57-.01-.07-.01-.15,0-.22.31-.14.46-.32.55-.57.08,0,.16,0,.24,0,.09.25.24.43.55.57Z"/><path class="cls-2" d="M104.13,37.02c.01.07.01.15,0,.22-.31.14-.46.32-.55.57-.08,0-.16,0-.24,0-.09-.25-.24-.43-.55-.57,0-.07,0-.15,0-.22.31-.14.46-.32.55-.57.08,0,.16,0,.24,0,.09.25.24.43.55.57Z"/><path class="cls-2" d="M102.6,37.02c.01.07.01.15,0,.22-.31.14-.46.32-.55.57-.08,0-.16,0-.24,0-.09-.25-.24-.43-.55-.57-.01-.07-.01-.15,0-.22.31-.14.46-.32.55-.57.08,0,.16,0,.24,0,.09.25.24.43.55.57Z"/><path class="cls-2" d="M101.07,37.02c.01.07.01.15,0,.22-.31.14-.46.32-.55.57-.08,0-.16,0-.24,0-.09-.25-.24-.43-.55-.57-.01-.07-.01-.15,0-.22.31-.14.46-.32.55-.57.08,0,.16,0,.24,0,.09.25.24.43.55.57Z"/><path class="cls-2" d="M99.54,37.02c.01.07.01.15,0,.22-.31.14-.46.32-.55.57-.08,0-.16,0-.24,0-.09-.25-.24-.43-.55-.57,0-.07,0-.15,0-.22.31-.14.46-.32.55-.57.08,0,.16,0,.24,0,.09.25.24.43.55.57Z"/><path class="cls-2" d="M98.01,37.02c.01.07.01.15,0,.22-.31.14-.46.32-.55.57-.08,0-.16,0-.24,0-.09-.25-.24-.43-.55-.57-.01-.07-.01-.15,0-.22.31-.14.46-.32.55-.57.08,0,.16,0,.24,0,.09.25.24.43.55.57Z"/><path class="cls-2" d="M96.48,37.02c.01.07.01.15,0,.22-.31.14-.46.32-.55.57-.08,0-.16,0-.24,0-.09-.25-.24-.43-.55-.57,0-.07,0-.15,0-.22.31-.14.46-.32.55-.57.08,0,.16,0,.24,0,.09.25.24.43.55.57Z"/><path class="cls-2" d="M94.95,37.02c.01.07.01.15,0,.22-.31.14-.46.32-.55.57-.08,0-.16,0-.24,0-.09-.25-.24-.43-.55-.57,0-.07,0-.15,0-.22.31-.14.46-.32.55-.57.08,0,.16,0,.24,0,.09.25.24.43.55.57Z"/><path class="cls-2" d="M93.42,37.02c.01.07.01.15,0,.22-.31.14-.46.32-.55.57-.08,0-.16,0-.24,0-.09-.25-.24-.43-.55-.57-.01-.07-.01-.15,0-.22.31-.14.46-.32.55-.57.08,0,.16,0,.24,0,.09.25.24.43.55.57Z"/><path class="cls-2" d="M91.89,37.02c.01.07.01.15,0,.22-.31.14-.46.32-.55.57-.08,0-.16,0-.24,0-.09-.25-.24-.43-.55-.57,0-.07,0-.15,0-.22.31-.14.46-.32.55-.57.08,0,.16,0,.24,0,.09.25.24.43.55.57Z"/><path class="cls-2" d="M90.36,37.02c.01.07.01.15,0,.22-.31.14-.46.32-.55.57-.08,0-.16,0-.24,0-.09-.25-.24-.43-.55-.57-.01-.07-.01-.15,0-.22.31-.14.46-.32.55-.57.08,0,.16,0,.24,0,.09.25.24.43.55.57Z"/><path class="cls-2" d="M88.83,37.02c.01.07.01.15,0,.22-.31.14-.46.32-.55.57-.08,0-.16,0-.24,0-.09-.25-.24-.43-.55-.57,0-.07,0-.15,0-.22.31-.14.46-.32.55-.57.08,0,.16,0,.24,0,.09.25.24.43.55.57Z"/><path class="cls-2" d="M87.3,37.02c.01.07.01.15,0,.22-.31.14-.46.32-.55.57-.08,0-.16,0-.24,0-.09-.25-.24-.43-.55-.57,0-.07,0-.15,0-.22.31-.14.46-.32.55-.57.08,0,.16,0,.24,0,.09.25.24.43.55.57Z"/><path class="cls-2" d="M85.77,37.02c.01.07.01.15,0,.22-.31.14-.46.32-.55.57-.08,0-.16,0-.24,0-.09-.25-.24-.43-.55-.57-.01-.07-.01-.15,0-.22.31-.14.46-.32.55-.57.08,0,.16,0,.24,0,.09.25.24.43.55.57Z"/><path class="cls-2" d="M84.24,37.02c.01.07.01.15,0,.22-.31.14-.46.32-.55.57-.08,0-.16,0-.24,0-.09-.25-.24-.43-.55-.57,0-.07,0-.15,0-.22.31-.14.46-.32.55-.57.08,0,.16,0,.24,0,.09.25.24.43.55.57Z"/><path class="cls-2" d="M82.71,37.02c.01.07.01.15,0,.22-.31.14-.46.32-.55.57-.08,0-.16,0-.24,0-.09-.25-.24-.43-.55-.57-.01-.07-.01-.15,0-.22.31-.14.46-.32.55-.57.08,0,.16,0,.24,0,.09.25.24.43.55.57Z"/><path class="cls-2" d="M81.18,37.02c.01.07.01.15,0,.22-.31.14-.46.32-.55.57-.08,0-.16,0-.24,0-.09-.25-.24-.43-.55-.57-.01-.07-.01-.15,0-.22.31-.14.46-.32.55-.57.08,0,.16,0,.24,0,.09.25.24.43.55.57Z"/><path class="cls-2" d="M79.65,37.02c.01.07.01.15,0,.22-.31.14-.46.32-.55.57-.08,0-.16,0-.24,0-.09-.25-.24-.43-.55-.57,0-.07,0-.15,0-.22.31-.14.46-.32.55-.57.08,0,.16,0,.24,0,.09.25.24.43.55.57Z"/><path class="cls-2" d="M78.12,37.02c.01.07.01.15,0,.22-.31.14-.46.32-.55.57-.08,0-.16,0-.24,0-.09-.25-.24-.43-.55-.57-.01-.07-.01-.15,0-.22.31-.14.46-.32.55-.57.08,0,.16,0,.24,0,.09.25.24.43.55.57Z"/><path class="cls-2" d="M76.59,37.02c.01.07.01.15,0,.22-.31.14-.46.32-.55.57-.08,0-.16,0-.24,0-.09-.25-.24-.43-.55-.57,0-.07,0-.15,0-.22.31-.14.46-.32.55-.57.08,0,.16,0,.24,0,.09.25.24.43.55.57Z"/><path class="cls-2" d="M75.06,37.02c.01.07.01.15,0,.22-.31.14-.46.32-.55.57-.08,0-.16,0-.24,0-.09-.25-.24-.43-.55-.57-.01-.07-.01-.15,0-.22.31-.14.46-.32.55-.57.08,0,.16,0,.24,0,.09.25.24.43.55.57Z"/><path class="cls-2" d="M73.53,37.02c.01.07.01.15,0,.22-.31.14-.46.32-.55.57-.08,0-.16,0-.24,0-.09-.25-.24-.43-.55-.57-.01-.07-.01-.15,0-.22.31-.14.46-.32.55-.57.08,0,.16,0,.24,0,.09.25.24.43.55.57Z"/><path class="cls-2" d="M72,37.02c.01.07.01.15,0,.22-.31.14-.46.32-.55.57-.08,0-.16,0-.24,0-.09-.25-.24-.43-.55-.57,0-.07,0-.15,0-.22.31-.14.46-.32.55-.57.08,0,.16,0,.24,0,.09.25.24.43.55.57Z"/><path class="cls-2" d="M70.47,37.02c.01.07.01.15,0,.22-.31.14-.46.32-.55.57-.08,0-.16,0-.24,0-.09-.25-.24-.43-.55-.57-.01-.07-.01-.15,0-.22.31-.14.46-.32.55-.57.08,0,.16,0,.24,0,.09.25.24.43.55.57Z"/><path class="cls-2" d="M68.94,37.02c.01.07.01.15,0,.22-.31.14-.46.32-.55.57-.08,0-.16,0-.24,0-.09-.25-.24-.43-.55-.57,0-.07,0-.15,0-.22.31-.14.46-.32.55-.57.08,0,.16,0,.24,0,.09.25.24.43.55.57Z"/><path class="cls-2" d="M68.66,37.02c.01.07.01.15,0,.22-.31.14-.46.32-.55.57-.08,0-.16,0-.24,0-.09-.25-.24-.43-.55-.57,0-.07,0-.15,0-.22.31-.14.46-.32.55-.57.08,0,.16,0,.24,0,.09.25.24.43.55.57Z"/><path class="cls-2" d="M67.13,37.02c.01.07.01.15,0,.22-.31.14-.46.32-.55.57-.08,0-.16,0-.24,0-.09-.25-.24-.43-.55-.57-.01-.07-.01-.15,0-.22.31-.14.46-.32.55-.57.08,0,.16,0,.24,0,.09.25.24.43.55.57Z"/><path class="cls-2" d="M65.6,37.02c.01.07.01.15,0,.22-.31.14-.46.32-.55.57-.08,0-.16,0-.24,0-.09-.25-.24-.43-.55-.57,0-.07,0-.15,0-.22.31-.14.46-.32.55-.57.08,0,.16,0,.24,0,.09.25.24.43.55.57Z"/><path class="cls-2" d="M64.07,37.02c.01.07.01.15,0,.22-.31.14-.46.32-.55.57-.08,0-.16,0-.24,0-.09-.25-.24-.43-.55-.57,0-.07,0-.15,0-.22.31-.14.46-.32.55-.57.08,0,.16,0,.24,0,.09.25.24.43.55.57Z"/><path class="cls-2" d="M62.54,37.02c.01.07.01.15,0,.22-.31.14-.46.32-.55.57-.08,0-.16,0-.24,0-.09-.25-.24-.43-.55-.57-.01-.07-.01-.15,0-.22.31-.14.46-.32.55-.57.08,0,.16,0,.24,0,.09.25.24.43.55.57Z"/><path class="cls-2" d="M61.01,37.02c.01.07.01.15,0,.22-.31.14-.46.32-.55.57-.08,0-.16,0-.24,0-.09-.25-.24-.43-.55-.57,0-.07,0-.15,0-.22.31-.14.46-.32.55-.57.08,0,.16,0,.24,0,.09.25.24.43.55.57Z"/><path class="cls-2" d="M59.48,37.02c.01.07.01.15,0,.22-.31.14-.46.32-.55.57-.08,0-.16,0-.24,0-.09-.25-.24-.43-.55-.57-.01-.07-.01-.15,0-.22.31-.14.46-.32.55-.57.08,0,.16,0,.24,0,.09.25.24.43.55.57Z"/><path class="cls-2" d="M57.95,37.02c.01.07.01.15,0,.22-.31.14-.46.32-.55.57-.08,0-.16,0-.24,0-.09-.25-.24-.43-.55-.57-.01-.07-.01-.15,0-.22.31-.14.46-.32.55-.57.08,0,.16,0,.24,0,.09.25.24.43.55.57Z"/><path class="cls-2" d="M56.42,37.02c.01.07.01.15,0,.22-.31.14-.46.32-.55.57-.08,0-.16,0-.24,0-.09-.25-.24-.43-.55-.57,0-.07,0-.15,0-.22.31-.14.46-.32.55-.57.08,0,.16,0,.24,0,.09.25.24.43.55.57Z"/><path class="cls-2" d="M54.89,37.02c.01.07.01.15,0,.22-.31.14-.46.32-.55.57-.08,0-.16,0-.24,0-.09-.25-.24-.43-.55-.57-.01-.07-.01-.15,0-.22.31-.14.46-.32.55-.57.08,0,.16,0,.24,0,.09.25.24.43.55.57Z"/><path class="cls-2" d="M53.36,37.02c.01.07.01.15,0,.22-.31.14-.46.32-.55.57-.08,0-.16,0-.24,0-.09-.25-.24-.43-.55-.57,0-.07,0-.15,0-.22.31-.14.46-.32.55-.57.08,0,.16,0,.24,0,.09.25.24.43.55.57Z"/><path class="cls-2" d="M51.83,37.02c.01.07.01.15,0,.22-.31.14-.46.32-.55.57-.08,0-.16,0-.24,0-.09-.25-.24-.43-.55-.57-.01-.07-.01-.15,0-.22.31-.14.46-.32.55-.57.08,0,.16,0,.24,0,.09.25.24.43.55.57Z"/><path class="cls-2" d="M50.3,37.02c.01.07.01.15,0,.22-.31.14-.46.32-.55.57-.08,0-.16,0-.24,0-.09-.25-.24-.43-.55-.57-.01-.07-.01-.15,0-.22.31-.14.46-.32.55-.57.08,0,.16,0,.24,0,.09.25.24.43.55.57Z"/><path class="cls-2" d="M48.77,37.02c.01.07.01.15,0,.22-.31.14-.46.32-.55.57-.08,0-.16,0-.24,0-.09-.25-.24-.43-.55-.57,0-.07,0-.15,0-.22.31-.14.46-.32.55-.57.08,0,.16,0,.24,0,.09.25.24.43.55.57Z"/><path class="cls-2" d="M47.24,37.02c.01.07.01.15,0,.22-.31.14-.46.32-.55.57-.08,0-.16,0-.24,0-.09-.25-.24-.43-.55-.57-.01-.07-.01-.15,0-.22.31-.14.46-.32.55-.57.08,0,.16,0,.24,0,.09.25.24.43.55.57Z"/><path class="cls-2" d="M45.71,37.02c.01.07.01.15,0,.22-.31.14-.46.32-.55.57-.08,0-.16,0-.24,0-.09-.25-.24-.43-.55-.57,0-.07,0-.15,0-.22.31-.14.46-.32.55-.57.08,0,.16,0,.24,0,.09.25.24.43.55.57Z"/><path class="cls-2" d="M44.18,37.02c.01.07.01.15,0,.22-.31.14-.46.32-.55.57-.08,0-.16,0-.24,0-.09-.25-.24-.43-.55-.57,0-.07,0-.15,0-.22.31-.14.46-.32.55-.57.08,0,.16,0,.24,0,.09.25.24.43.55.57Z"/><path class="cls-2" d="M42.65,37.02c.01.07.01.15,0,.22-.31.14-.46.32-.55.57-.08,0-.16,0-.24,0-.09-.25-.24-.43-.55-.57-.01-.07-.01-.15,0-.22.31-.14.46-.32.55-.57.08,0,.16,0,.24,0,.09.25.24.43.55.57Z"/><path class="cls-2" d="M41.12,37.02c.01.07.01.15,0,.22-.31.14-.46.32-.55.57-.08,0-.16,0-.24,0-.09-.25-.24-.43-.55-.57,0-.07,0-.15,0-.22.31-.14.46-.32.55-.57.08,0,.16,0,.24,0,.09.25.24.43.55.57Z"/><path class="cls-2" d="M39.59,37.02c.01.07.01.15,0,.22-.31.14-.46.32-.55.57-.08,0-.16,0-.24,0-.09-.25-.24-.43-.55-.57-.01-.07-.01-.15,0-.22.31-.14.46-.32.55-.57.08,0,.16,0,.24,0,.09.25.24.43.55.57Z"/><path class="cls-2" d="M38.06,37.02c.01.07.01.15,0,.22-.31.14-.46.32-.55.57-.08,0-.16,0-.24,0-.09-.25-.24-.43-.55-.57,0-.07,0-.15,0-.22.31-.14.46-.32.55-.57.08,0,.16,0,.24,0,.09.25.24.43.55.57Z"/><path class="cls-2" d="M36.53,37.02c.01.07.01.15,0,.22-.31.14-.46.32-.55.57-.08,0-.16,0-.24,0-.09-.25-.24-.43-.55-.57,0-.07,0-.15,0-.22.31-.14.46-.32.55-.57.08,0,.16,0,.24,0,.09.25.24.43.55.57Z"/><path class="cls-2" d="M35,37.02c.01.07.01.15,0,.22-.31.14-.46.32-.55.57-.08,0-.16,0-.24,0-.09-.25-.24-.43-.55-.57-.01-.07-.01-.15,0-.22.31-.14.46-.32.55-.57.08,0,.16,0,.24,0,.09.25.24.43.55.57Z"/><path class="cls-2" d="M33.47,37.02c.01.07.01.15,0,.22-.31.14-.46.32-.55.57-.08,0-.16,0-.24,0-.09-.25-.24-.43-.55-.57,0-.07,0-.15,0-.22.31-.14.46-.32.55-.57.08,0,.16,0,.24,0,.09.25.24.43.55.57Z"/><path class="cls-2" d="M31.94,37.02c.01.07.01.15,0,.22-.31.14-.46.32-.55.57-.08,0-.16,0-.24,0-.09-.25-.24-.43-.55-.57-.01-.07-.01-.15,0-.22.31-.14.46-.32.55-.57.08,0,.16,0,.24,0,.09.25.24.43.55.57Z"/><path class="cls-2" d="M30.41,37.02c.01.07.01.15,0,.22-.31.14-.46.32-.55.57-.08,0-.16,0-.24,0-.09-.25-.24-.43-.55-.57-.01-.07-.01-.15,0-.22.31-.14.46-.32.55-.57.08,0,.16,0,.24,0,.09.25.24.43.55.57Z"/><path class="cls-2" d="M28.88,37.02c.01.07.01.15,0,.22-.31.14-.46.32-.55.57-.08,0-.16,0-.24,0-.09-.25-.24-.43-.55-.57,0-.07,0-.15,0-.22.31-.14.46-.32.55-.57.08,0,.16,0,.24,0,.09.25.24.43.55.57Z"/><path class="cls-2" d="M27.35,37.02c.01.07.01.15,0,.22-.31.14-.46.32-.55.57-.08,0-.16,0-.24,0-.09-.25-.24-.43-.55-.57-.01-.07-.01-.15,0-.22.31-.14.46-.32.55-.57.08,0,.16,0,.24,0,.09.25.24.43.55.57Z"/><path class="cls-2" d="M25.83,37.02c.01.07.01.15,0,.22-.31.14-.46.32-.55.57-.08,0-.16,0-.24,0-.09-.25-.24-.43-.55-.57,0-.07,0-.15,0-.22.31-.14.46-.32.55-.57.08,0,.16,0,.24,0,.09.25.24.43.55.57Z"/><path class="cls-2" d="M24.29,37.02c.01.07.01.15,0,.22-.31.14-.46.32-.55.57-.08,0-.16,0-.24,0-.09-.25-.24-.43-.55-.57,0-.07,0-.15,0-.22.31-.14.46-.32.55-.57.08,0,.16,0,.24,0,.09.25.24.43.55.57Z"/><path class="cls-2" d="M22.77,37.02c.01.07.01.15,0,.22-.31.14-.46.32-.55.57-.08,0-.16,0-.24,0-.09-.25-.24-.43-.55-.57-.01-.07-.01-.15,0-.22.31-.14.46-.32.55-.57.08,0,.16,0,.24,0,.09.25.24.43.55.57Z"/><path class="cls-2" d="M21.24,37.02c.01.07.01.15,0,.22-.31.14-.46.32-.55.57-.08,0-.16,0-.24,0-.09-.25-.24-.43-.55-.57,0-.07,0-.15,0-.22.31-.14.46-.32.55-.57.08,0,.16,0,.24,0,.09.25.24.43.55.57Z"/><path class="cls-2" d="M19.71,37.02c.01.07.01.15,0,.22-.31.14-.46.32-.55.57-.08,0-.16,0-.24,0-.09-.25-.24-.43-.55-.57-.01-.07-.01-.15,0-.22.31-.14.46-.32.55-.57.08,0,.16,0,.24,0,.09.25.24.43.55.57Z"/><path class="cls-2" d="M18.18,37.02c.01.07.01.15,0,.22-.31.14-.46.32-.55.57-.08,0-.16,0-.24,0-.09-.25-.24-.43-.55-.57,0-.07,0-.15,0-.22.31-.14.46-.32.55-.57.08,0,.16,0,.24,0,.09.25.24.43.55.57Z"/><path class="cls-2" d="M16.65,37.02c.01.07.01.15,0,.22-.31.14-.46.32-.55.57-.08,0-.16,0-.24,0-.09-.25-.24-.43-.55-.57,0-.07,0-.15,0-.22.31-.14.46-.32.55-.57.08,0,.16,0,.24,0,.09.25.24.43.55.57Z"/><path class="cls-2" d="M15.12,37.02c.01.07.01.15,0,.22-.31.14-.46.32-.55.57-.08,0-.16,0-.24,0-.09-.25-.24-.43-.55-.57-.01-.07-.01-.15,0-.22.31-.14.46-.32.55-.57.08,0,.16,0,.24,0,.09.25.24.43.55.57Z"/><path class="cls-2" d="M13.59,37.02c.01.07.01.15,0,.22-.31.14-.46.32-.55.57-.08,0-.16,0-.24,0-.09-.25-.24-.43-.55-.57,0-.07,0-.15,0-.22.31-.14.46-.32.55-.57.08,0,.16,0,.24,0,.09.25.24.43.55.57Z"/><path class="cls-2" d="M12.06,37.02c.01.07.01.15,0,.22-.31.14-.46.32-.55.57-.08,0-.16,0-.24,0-.09-.25-.24-.43-.55-.57-.01-.07-.01-.15,0-.22.31-.14.46-.32.55-.57.08,0,.16,0,.24,0,.09.25.24.43.55.57Z"/><path class="cls-2" d="M10.53,37.02c.01.07.01.15,0,.22-.31.14-.46.32-.55.57-.08,0-.16,0-.24,0-.09-.25-.24-.43-.55-.57-.01-.07-.01-.15,0-.22.31-.14.46-.32.55-.57.08,0,.16,0,.24,0,.09.25.24.43.55.57Z"/><path class="cls-2" d="M9,37.02c.01.07.01.15,0,.22-.31.14-.46.32-.55.57-.08,0-.16,0-.24,0-.09-.25-.24-.43-.55-.57,0-.07,0-.15,0-.22.31-.14.46-.32.55-.57.08,0,.16,0,.24,0,.09.25.24.43.55.57Z"/><path class="cls-2" d="M7.47,37.02c.01.07.01.15,0,.22-.31.14-.46.32-.55.57-.08,0-.16,0-.24,0-.09-.25-.24-.43-.55-.57-.01-.07-.01-.15,0-.22.31-.14.46-.32.55-.57.08,0,.16,0,.24,0,.09.25.24.43.55.57Z"/><path class="cls-2" d="M5.94,37.02c.01.07.01.15,0,.22-.31.14-.46.32-.55.57-.08,0-.16,0-.24,0-.09-.25-.24-.43-.55-.57,0-.07,0-.15,0-.22.31-.14.46-.32.55-.57.08,0,.16,0,.24,0,.09.25.24.43.55.57Z"/><path class="cls-2" d="M4.41,37.02c.01.07.01.15,0,.22-.31.14-.46.32-.55.57-.08,0-.16,0-.24,0-.09-.25-.24-.43-.55-.57-.01-.07-.01-.15,0-.22.31-.14.46-.32.55-.57.08,0,.16,0,.24,0,.09.25.24.43.55.57Z"/><path class="cls-2" d="M2.88,37.02c.01.07.01.15,0,.22-.31.14-.46.32-.55.57-.08,0-.16,0-.24,0-.09-.25-.24-.43-.55-.57-.01-.07-.01-.15,0-.22.31-.14.46-.32.55-.57.08,0,.16,0,.24,0,.09.25.24.43.55.57Z"/><path class="cls-2" d="M1.35,37.02c.01.07.01.15,0,.22-.31.14-.46.32-.55.57-.08,0-.16,0-.24,0-.09-.25-.24-.43-.55-.57,0-.07,0-.15,0-.22.31-.14.46-.32.55-.57.08,0,.16,0,.24,0,.09.25.24.43.55.57Z"/><line class="cls-1" x1="261.99" y1="371.58" x2=".44" y2="371.58"/><path class="cls-2" d="M.55,369.86c-.01-.07-.01-.15,0-.22.31-.14.46-.32.55-.57.08,0,.16,0,.24,0,.09.25.24.43.55.57,0,.07,0,.15,0,.22-.31.14-.46.32-.55.57-.08,0-.16,0-.24,0-.09-.25-.24-.43-.55-.57Z"/><path class="cls-2" d="M2.08,369.86c-.01-.07-.01-.15,0-.22.31-.14.46-.32.55-.57.08,0,.16,0,.24,0,.09.25.24.43.55.57.01.07.01.15,0,.22-.31.14-.46.32-.55.57-.08,0-.16,0-.24,0-.09-.25-.24-.43-.55-.57Z"/><path class="cls-2" d="M3.61,369.86c-.01-.07-.01-.15,0-.22.31-.14.46-.32.55-.57.08,0,.16,0,.24,0,.09.25.24.43.55.57,0,.07,0,.15,0,.22-.31.14-.46.32-.55.57-.08,0-.16,0-.24,0-.09-.25-.24-.43-.55-.57Z"/><path class="cls-2" d="M5.14,369.86c-.01-.07-.01-.15,0-.22.31-.14.46-.32.55-.57.08,0,.16,0,.24,0,.09.25.24.43.55.57,0,.07,0,.15,0,.22-.31.14-.46.32-.55.57-.08,0-.16,0-.24,0-.09-.25-.24-.43-.55-.57Z"/><path class="cls-2" d="M6.67,369.86c-.01-.07-.01-.15,0-.22.31-.14.46-.32.55-.57.08,0,.16,0,.24,0,.09.25.24.43.55.57.01.07.01.15,0,.22-.31.14-.46.32-.55.57-.08,0-.16,0-.24,0-.09-.25-.24-.43-.55-.57Z"/><path class="cls-2" d="M8.2,369.86c-.01-.07-.01-.15,0-.22.31-.14.46-.32.55-.57.08,0,.16,0,.24,0,.09.25.24.43.55.57,0,.07,0,.15,0,.22-.31.14-.46.32-.55.57-.08,0-.16,0-.24,0-.09-.25-.24-.43-.55-.57Z"/><path class="cls-2" d="M9.73,369.86c-.01-.07-.01-.15,0-.22.31-.14.46-.32.55-.57.08,0,.16,0,.24,0,.09.25.24.43.55.57.01.07.01.15,0,.22-.31.14-.46.32-.55.57-.08,0-.16,0-.24,0-.09-.25-.24-.43-.55-.57Z"/><path class="cls-2" d="M11.26,369.86c-.01-.07-.01-.15,0-.22.31-.14.46-.32.55-.57.08,0,.16,0,.24,0,.09.25.24.43.55.57.01.07.01.15,0,.22-.31.14-.46.32-.55.57-.08,0-.16,0-.24,0-.09-.25-.24-.43-.55-.57Z"/><path class="cls-2" d="M12.79,369.86c-.01-.07-.01-.15,0-.22.31-.14.46-.32.55-.57.08,0,.16,0,.24,0,.09.25.24.43.55.57,0,.07,0,.15,0,.22-.31.14-.46.32-.55.57-.08,0-.16,0-.24,0-.09-.25-.24-.43-.55-.57Z"/><path class="cls-2" d="M14.31,369.86c-.01-.07-.01-.15,0-.22.31-.14.46-.32.55-.57.08,0,.16,0,.24,0,.09.25.24.43.55.57.01.07.01.15,0,.22-.31.14-.46.32-.55.57-.08,0-.16,0-.24,0-.09-.25-.24-.43-.55-.57Z"/><path class="cls-2" d="M15.84,369.86c-.01-.07-.01-.15,0-.22.31-.14.46-.32.55-.57.08,0,.16,0,.24,0,.09.25.24.43.55.57,0,.07,0,.15,0,.22-.31.14-.46.32-.55.57-.08,0-.16,0-.24,0-.09-.25-.24-.43-.55-.57Z"/><path class="cls-2" d="M17.37,369.86c-.01-.07-.01-.15,0-.22.31-.14.46-.32.55-.57.08,0,.16,0,.24,0,.09.25.24.43.55.57.01.07.01.15,0,.22-.31.14-.46.32-.55.57-.08,0-.16,0-.24,0-.09-.25-.24-.43-.55-.57Z"/><path class="cls-2" d="M18.9,369.86c-.01-.07-.01-.15,0-.22.31-.14.46-.32.55-.57.08,0,.16,0,.24,0,.09.25.24.43.55.57.01.07.01.15,0,.22-.31.14-.46.32-.55.57-.08,0-.16,0-.24,0-.09-.25-.24-.43-.55-.57Z"/><path class="cls-2" d="M20.43,369.86c-.01-.07-.01-.15,0-.22.31-.14.46-.32.55-.57.08,0,.16,0,.24,0,.09.25.24.43.55.57,0,.07,0,.15,0,.22-.31.14-.46.32-.55.57-.08,0-.16,0-.24,0-.09-.25-.24-.43-.55-.57Z"/><path class="cls-2" d="M21.96,369.86c-.01-.07-.01-.15,0-.22.31-.14.46-.32.55-.57.08,0,.16,0,.24,0,.09.25.24.43.55.57.01.07.01.15,0,.22-.31.14-.46.32-.55.57-.08,0-.16,0-.24,0-.09-.25-.24-.43-.55-.57Z"/><path class="cls-2" d="M23.49,369.86c-.01-.07-.01-.15,0-.22.31-.14.46-.32.55-.57.08,0,.16,0,.24,0,.09.25.24.43.55.57,0,.07,0,.15,0,.22-.31.14-.46.32-.55.57-.08,0-.16,0-.24,0-.09-.25-.24-.43-.55-.57Z"/><path class="cls-2" d="M25.02,369.86c-.01-.07-.01-.15,0-.22.31-.14.46-.32.55-.57.08,0,.16,0,.24,0,.09.25.24.43.55.57,0,.07,0,.15,0,.22-.31.14-.46.32-.55.57-.08,0-.16,0-.24,0-.09-.25-.24-.43-.55-.57Z"/><path class="cls-2" d="M26.55,369.86c-.01-.07-.01-.15,0-.22.31-.14.46-.32.55-.57.08,0,.16,0,.24,0,.09.25.24.43.55.57.01.07.01.15,0,.22-.31.14-.46.32-.55.57-.08,0-.16,0-.24,0-.09-.25-.24-.43-.55-.57Z"/><path class="cls-2" d="M28.08,369.86c-.01-.07-.01-.15,0-.22.31-.14.46-.32.55-.57.08,0,.16,0,.24,0,.09.25.24.43.55.57,0,.07,0,.15,0,.22-.31.14-.46.32-.55.57-.08,0-.16,0-.24,0-.09-.25-.24-.43-.55-.57Z"/><path class="cls-2" d="M29.61,369.86c-.01-.07-.01-.15,0-.22.31-.14.46-.32.55-.57.08,0,.16,0,.24,0,.09.25.24.43.55.57.01.07.01.15,0,.22-.31.14-.46.32-.55.57-.08,0-.16,0-.24,0-.09-.25-.24-.43-.55-.57Z"/><path class="cls-2" d="M31.14,369.86c-.01-.07-.01-.15,0-.22.31-.14.46-.32.55-.57.08,0,.16,0,.24,0,.09.25.24.43.55.57,0,.07,0,.15,0,.22-.31.14-.46.32-.55.57-.08,0-.16,0-.24,0-.09-.25-.24-.43-.55-.57Z"/><path class="cls-2" d="M32.67,369.86c-.01-.07-.01-.15,0-.22.31-.14.46-.32.55-.57.08,0,.16,0,.24,0,.09.25.24.43.55.57,0,.07,0,.15,0,.22-.31.14-.46.32-.55.57-.08,0-.16,0-.24,0-.09-.25-.24-.43-.55-.57Z"/><path class="cls-2" d="M34.2,369.86c-.01-.07-.01-.15,0-.22.31-.14.46-.32.55-.57.08,0,.16,0,.24,0,.09.25.24.43.55.57.01.07.01.15,0,.22-.31.14-.46.32-.55.57-.08,0-.16,0-.24,0-.09-.25-.24-.43-.55-.57Z"/><path class="cls-2" d="M35.73,369.86c-.01-.07-.01-.15,0-.22.31-.14.46-.32.55-.57.08,0,.16,0,.24,0,.09.25.24.43.55.57,0,.07,0,.15,0,.22-.31.14-.46.32-.55.57-.08,0-.16,0-.24,0-.09-.25-.24-.43-.55-.57Z"/><path class="cls-2" d="M37.26,369.86c-.01-.07-.01-.15,0-.22.31-.14.46-.32.55-.57.08,0,.16,0,.24,0,.09.25.24.43.55.57.01.07.01.15,0,.22-.31.14-.46.32-.55.57-.08,0-.16,0-.24,0-.09-.25-.24-.43-.55-.57Z"/><path class="cls-2" d="M38.79,369.86c-.01-.07-.01-.15,0-.22.31-.14.46-.32.55-.57.08,0,.16,0,.24,0,.09.25.24.43.55.57.01.07.01.15,0,.22-.31.14-.46.32-.55.57-.08,0-.16,0-.24,0-.09-.25-.24-.43-.55-.57Z"/><path class="cls-2" d="M40.32,369.86c-.01-.07-.01-.15,0-.22.31-.14.46-.32.55-.57.08,0,.16,0,.24,0,.09.25.24.43.55.57,0,.07,0,.15,0,.22-.31.14-.46.32-.55.57-.08,0-.16,0-.24,0-.09-.25-.24-.43-.55-.57Z"/><path class="cls-2" d="M41.85,369.86c-.01-.07-.01-.15,0-.22.31-.14.46-.32.55-.57.08,0,.16,0,.24,0,.09.25.24.43.55.57.01.07.01.15,0,.22-.31.14-.46.32-.55.57-.08,0-.16,0-.24,0-.09-.25-.24-.43-.55-.57Z"/><path class="cls-2" d="M43.38,369.86c-.01-.07-.01-.15,0-.22.31-.14.46-.32.55-.57.08,0,.16,0,.24,0,.09.25.24.43.55.57,0,.07,0,.15,0,.22-.31.14-.46.32-.55.57-.08,0-.16,0-.24,0-.09-.25-.24-.43-.55-.57Z"/><path class="cls-2" d="M44.91,369.86c-.01-.07-.01-.15,0-.22.31-.14.46-.32.55-.57.08,0,.16,0,.24,0,.09.25.24.43.55.57,0,.07,0,.15,0,.22-.31.14-.46.32-.55.57-.08,0-.16,0-.24,0-.09-.25-.24-.43-.55-.57Z"/><path class="cls-2" d="M46.44,369.86c-.01-.07-.01-.15,0-.22.31-.14.46-.32.55-.57.08,0,.16,0,.24,0,.09.25.24.43.55.57.01.07.01.15,0,.22-.31.14-.46.32-.55.57-.08,0-.16,0-.24,0-.09-.25-.24-.43-.55-.57Z"/><path class="cls-2" d="M47.97,369.86c-.01-.07-.01-.15,0-.22.31-.14.46-.32.55-.57.08,0,.16,0,.24,0,.09.25.24.43.55.57,0,.07,0,.15,0,.22-.31.14-.46.32-.55.57-.08,0-.16,0-.24,0-.09-.25-.24-.43-.55-.57Z"/><path class="cls-2" d="M49.5,369.86c-.01-.07-.01-.15,0-.22.31-.14.46-.32.55-.57.08,0,.16,0,.24,0,.09.25.24.43.55.57.01.07.01.15,0,.22-.31.14-.46.32-.55.57-.08,0-.16,0-.24,0-.09-.25-.24-.43-.55-.57Z"/><path class="cls-2" d="M51.03,369.86c-.01-.07-.01-.15,0-.22.31-.14.46-.32.55-.57.08,0,.16,0,.24,0,.09.25.24.43.55.57,0,.07,0,.15,0,.22-.31.14-.46.32-.55.57-.08,0-.16,0-.24,0-.09-.25-.24-.43-.55-.57Z"/><path class="cls-2" d="M52.56,369.86c-.01-.07-.01-.15,0-.22.31-.14.46-.32.55-.57.08,0,.16,0,.24,0,.09.25.24.43.55.57,0,.07,0,.15,0,.22-.31.14-.46.32-.55.57-.08,0-.16,0-.24,0-.09-.25-.24-.43-.55-.57Z"/><path class="cls-2" d="M54.09,369.86c-.01-.07-.01-.15,0-.22.31-.14.46-.32.55-.57.08,0,.16,0,.24,0,.09.25.24.43.55.57.01.07.01.15,0,.22-.31.14-.46.32-.55.57-.08,0-.16,0-.24,0-.09-.25-.24-.43-.55-.57Z"/><path class="cls-2" d="M55.62,369.86c-.01-.07-.01-.15,0-.22.31-.14.46-.32.55-.57.08,0,.16,0,.24,0,.09.25.24.43.55.57,0,.07,0,.15,0,.22-.31.14-.46.32-.55.57-.08,0-.16,0-.24,0-.09-.25-.24-.43-.55-.57Z"/><path class="cls-2" d="M57.15,369.86c-.01-.07-.01-.15,0-.22.31-.14.46-.32.55-.57.08,0,.16,0,.24,0,.09.25.24.43.55.57.01.07.01.15,0,.22-.31.14-.46.32-.55.57-.08,0-.16,0-.24,0-.09-.25-.24-.43-.55-.57Z"/><path class="cls-2" d="M58.68,369.86c-.01-.07-.01-.15,0-.22.31-.14.46-.32.55-.57.08,0,.16,0,.24,0,.09.25.24.43.55.57.01.07.01.15,0,.22-.31.14-.46.32-.55.57-.08,0-.16,0-.24,0-.09-.25-.24-.43-.55-.57Z"/><path class="cls-2" d="M60.21,369.86c-.01-.07-.01-.15,0-.22.31-.14.46-.32.55-.57.08,0,.16,0,.24,0,.09.25.24.43.55.57,0,.07,0,.15,0,.22-.31.14-.46.32-.55.57-.08,0-.16,0-.24,0-.09-.25-.24-.43-.55-.57Z"/><path class="cls-2" d="M61.74,369.86c-.01-.07-.01-.15,0-.22.31-.14.46-.32.55-.57.08,0,.16,0,.24,0,.09.25.24.43.55.57.01.07.01.15,0,.22-.31.14-.46.32-.55.57-.08,0-.16,0-.24,0-.09-.25-.24-.43-.55-.57Z"/><path class="cls-2" d="M63.27,369.86c-.01-.07-.01-.15,0-.22.31-.14.46-.32.55-.57.08,0,.16,0,.24,0,.09.25.24.43.55.57,0,.07,0,.15,0,.22-.31.14-.46.32-.55.57-.08,0-.16,0-.24,0-.09-.25-.24-.43-.55-.57Z"/><path class="cls-2" d="M64.8,369.86c-.01-.07-.01-.15,0-.22.31-.14.46-.32.55-.57.08,0,.16,0,.24,0,.09.25.24.43.55.57.01.07.01.15,0,.22-.31.14-.46.32-.55.57-.08,0-.16,0-.24,0-.09-.25-.24-.43-.55-.57Z"/><path class="cls-2" d="M66.33,369.86c-.01-.07-.01-.15,0-.22.31-.14.46-.32.55-.57.08,0,.16,0,.24,0,.09.25.24.43.55.57.01.07.01.15,0,.22-.31.14-.46.32-.55.57-.08,0-.16,0-.24,0-.09-.25-.24-.43-.55-.57Z"/><path class="cls-2" d="M67.86,369.86c-.01-.07-.01-.15,0-.22.31-.14.46-.32.55-.57.08,0,.16,0,.24,0,.09.25.24.43.55.57,0,.07,0,.15,0,.22-.31.14-.46.32-.55.57-.08,0-.16,0-.24,0-.09-.25-.24-.43-.55-.57Z"/><path class="cls-2" d="M69.39,369.86c-.01-.07-.01-.15,0-.22.31-.14.46-.32.55-.57.08,0,.16,0,.24,0,.09.25.24.43.55.57.01.07.01.15,0,.22-.31.14-.46.32-.55.57-.08,0-.16,0-.24,0-.09-.25-.24-.43-.55-.57Z"/><path class="cls-2" d="M70.92,369.86c-.01-.07-.01-.15,0-.22.31-.14.46-.32.55-.57.08,0,.16,0,.24,0,.09.25.24.43.55.57,0,.07,0,.15,0,.22-.31.14-.46.32-.55.57-.08,0-.16,0-.24,0-.09-.25-.24-.43-.55-.57Z"/><path class="cls-2" d="M72.45,369.86c-.01-.07-.01-.15,0-.22.31-.14.46-.32.55-.57.08,0,.16,0,.24,0,.09.25.24.43.55.57,0,.07,0,.15,0,.22-.31.14-.46.32-.55.57-.08,0-.16,0-.24,0-.09-.25-.24-.43-.55-.57Z"/><path class="cls-2" d="M73.98,369.86c-.01-.07-.01-.15,0-.22.31-.14.46-.32.55-.57.08,0,.16,0,.24,0,.09.25.24.43.55.57.01.07.01.15,0,.22-.31.14-.46.32-.55.57-.08,0-.16,0-.24,0-.09-.25-.24-.43-.55-.57Z"/><path class="cls-2" d="M75.51,369.86c-.01-.07-.01-.15,0-.22.31-.14.46-.32.55-.57.08,0,.16,0,.24,0,.09.25.24.43.55.57,0,.07,0,.15,0,.22-.31.14-.46.32-.55.57-.08,0-.16,0-.24,0-.09-.25-.24-.43-.55-.57Z"/><path class="cls-2" d="M77.04,369.86c-.01-.07-.01-.15,0-.22.31-.14.46-.32.55-.57.08,0,.16,0,.24,0,.09.25.24.43.55.57.01.07.01.15,0,.22-.31.14-.46.32-.55.57-.08,0-.16,0-.24,0-.09-.25-.24-.43-.55-.57Z"/><path class="cls-2" d="M78.57,369.86c-.01-.07-.01-.15,0-.22.31-.14.46-.32.55-.57.08,0,.16,0,.24,0,.09.25.24.43.55.57,0,.07,0,.15,0,.22-.31.14-.46.32-.55.57-.08,0-.16,0-.24,0-.09-.25-.24-.43-.55-.57Z"/><path class="cls-2" d="M80.1,369.86c-.01-.07-.01-.15,0-.22.31-.14.46-.32.55-.57.08,0,.16,0,.24,0,.09.25.24.43.55.57,0,.07,0,.15,0,.22-.31.14-.46.32-.55.57-.08,0-.16,0-.24,0-.09-.25-.24-.43-.55-.57Z"/><path class="cls-2" d="M81.63,369.86c-.01-.07-.01-.15,0-.22.31-.14.46-.32.55-.57.08,0,.16,0,.24,0,.09.25.24.43.55.57.01.07.01.15,0,.22-.31.14-.46.32-.55.57-.08,0-.16,0-.24,0-.09-.25-.24-.43-.55-.57Z"/><path class="cls-2" d="M83.16,369.86c-.01-.07-.01-.15,0-.22.31-.14.46-.32.55-.57.08,0,.16,0,.24,0,.09.25.24.43.55.57,0,.07,0,.15,0,.22-.31.14-.46.32-.55.57-.08,0-.16,0-.24,0-.09-.25-.24-.43-.55-.57Z"/><path class="cls-2" d="M84.69,369.86c-.01-.07-.01-.15,0-.22.31-.14.46-.32.55-.57.08,0,.16,0,.24,0,.09.25.24.43.55.57.01.07.01.15,0,.22-.31.14-.46.32-.55.57-.08,0-.16,0-.24,0-.09-.25-.24-.43-.55-.57Z"/><path class="cls-2" d="M86.22,369.86c-.01-.07-.01-.15,0-.22.31-.14.46-.32.55-.57.08,0,.16,0,.24,0,.09.25.24.43.55.57.01.07.01.15,0,.22-.31.14-.46.32-.55.57-.08,0-.16,0-.24,0-.09-.25-.24-.43-.55-.57Z"/><path class="cls-2" d="M87.75,369.86c-.01-.07-.01-.15,0-.22.31-.14.46-.32.55-.57.08,0,.16,0,.24,0,.09.25.24.43.55.57,0,.07,0,.15,0,.22-.31.14-.46.32-.55.57-.08,0-.16,0-.24,0-.09-.25-.24-.43-.55-.57Z"/><path class="cls-2" d="M89.28,369.86c-.01-.07-.01-.15,0-.22.31-.14.46-.32.55-.57.08,0,.16,0,.24,0,.09.25.24.43.55.57.01.07.01.15,0,.22-.31.14-.46.32-.55.57-.08,0-.16,0-.24,0-.09-.25-.24-.43-.55-.57Z"/><path class="cls-2" d="M90.81,369.86c-.01-.07-.01-.15,0-.22.31-.14.46-.32.55-.57.08,0,.16,0,.24,0,.09.25.24.43.55.57,0,.07,0,.15,0,.22-.31.14-.46.32-.55.57-.08,0-.16,0-.24,0-.09-.25-.24-.43-.55-.57Z"/><path class="cls-2" d="M92.34,369.86c-.01-.07-.01-.15,0-.22.31-.14.46-.32.55-.57.08,0,.16,0,.24,0,.09.25.24.43.55.57,0,.07,0,.15,0,.22-.31.14-.46.32-.55.57-.08,0-.16,0-.24,0-.09-.25-.24-.43-.55-.57Z"/><path class="cls-2" d="M93.87,369.86c-.01-.07-.01-.15,0-.22.31-.14.46-.32.55-.57.08,0,.16,0,.24,0,.09.25.24.43.55.57.01.07.01.15,0,.22-.31.14-.46.32-.55.57-.08,0-.16,0-.24,0-.09-.25-.24-.43-.55-.57Z"/><path class="cls-2" d="M95.4,369.86c-.01-.07-.01-.15,0-.22.31-.14.46-.32.55-.57.08,0,.16,0,.24,0,.09.25.24.43.55.57,0,.07,0,.15,0,.22-.31.14-.46.32-.55.57-.08,0-.16,0-.24,0-.09-.25-.24-.43-.55-.57Z"/><path class="cls-2" d="M96.93,369.86c-.01-.07-.01-.15,0-.22.31-.14.46-.32.55-.57.08,0,.16,0,.24,0,.09.25.24.43.55.57.01.07.01.15,0,.22-.31.14-.46.32-.55.57-.08,0-.16,0-.24,0-.09-.25-.24-.43-.55-.57Z"/><path class="cls-2" d="M98.46,369.86c-.01-.07-.01-.15,0-.22.31-.14.46-.32.55-.57.08,0,.16,0,.24,0,.09.25.24.43.55.57,0,.07,0,.15,0,.22-.31.14-.46.32-.55.57-.08,0-.16,0-.24,0-.09-.25-.24-.43-.55-.57Z"/><path class="cls-2" d="M99.99,369.86c-.01-.07-.01-.15,0-.22.31-.14.46-.32.55-.57.08,0,.16,0,.24,0,.09.25.24.43.55.57,0,.07,0,.15,0,.22-.31.14-.46.32-.55.57-.08,0-.16,0-.24,0-.09-.25-.24-.43-.55-.57Z"/><path class="cls-2" d="M101.52,369.86c-.01-.07-.01-.15,0-.22.31-.14.46-.32.55-.57.08,0,.16,0,.24,0,.09.25.24.43.55.57.01.07.01.15,0,.22-.31.14-.46.32-.55.57-.08,0-.16,0-.24,0-.09-.25-.24-.43-.55-.57Z"/><path class="cls-2" d="M103.05,369.86c-.01-.07-.01-.15,0-.22.31-.14.46-.32.55-.57.08,0,.16,0,.24,0,.09.25.24.43.55.57,0,.07,0,.15,0,.22-.31.14-.46.32-.55.57-.08,0-.16,0-.24,0-.09-.25-.24-.43-.55-.57Z"/><path class="cls-2" d="M104.58,369.86c-.01-.07-.01-.15,0-.22.31-.14.46-.32.55-.57.08,0,.16,0,.24,0,.09.25.24.43.55.57.01.07.01.15,0,.22-.31.14-.46.32-.55.57-.08,0-.16,0-.24,0-.09-.25-.24-.43-.55-.57Z"/><path class="cls-2" d="M106.11,369.86c-.01-.07-.01-.15,0-.22.31-.14.46-.32.55-.57.08,0,.16,0,.24,0,.09.25.24.43.55.57.01.07.01.15,0,.22-.31.14-.46.32-.55.57-.08,0-.16,0-.24,0-.09-.25-.24-.43-.55-.57Z"/><path class="cls-2" d="M107.64,369.86c-.01-.07-.01-.15,0-.22.31-.14.46-.32.55-.57.08,0,.16,0,.24,0,.09.25.24.43.55.57,0,.07,0,.15,0,.22-.31.14-.46.32-.55.57-.08,0-.16,0-.24,0-.09-.25-.24-.43-.55-.57Z"/><path class="cls-2" d="M109.17,369.86c-.01-.07-.01-.15,0-.22.31-.14.46-.32.55-.57.08,0,.16,0,.24,0,.09.25.24.43.55.57.01.07.01.15,0,.22-.31.14-.46.32-.55.57-.08,0-.16,0-.24,0-.09-.25-.24-.43-.55-.57Z"/><path class="cls-2" d="M110.7,369.86c-.01-.07-.01-.15,0-.22.31-.14.46-.32.55-.57.08,0,.16,0,.24,0,.09.25.24.43.55.57,0,.07,0,.15,0,.22-.31.14-.46.32-.55.57-.08,0-.16,0-.24,0-.09-.25-.24-.43-.55-.57Z"/><path class="cls-2" d="M112.23,369.86c-.01-.07-.01-.15,0-.22.31-.14.46-.32.55-.57.08,0,.16,0,.24,0,.09.25.24.43.55.57.01.07.01.15,0,.22-.31.14-.46.32-.55.57-.08,0-.16,0-.24,0-.09-.25-.24-.43-.55-.57Z"/><path class="cls-2" d="M113.76,369.86c-.01-.07-.01-.15,0-.22.31-.14.46-.32.55-.57.08,0,.16,0,.24,0,.09.25.24.43.55.57.01.07.01.15,0,.22-.31.14-.46.32-.55.57-.08,0-.16,0-.24,0-.09-.25-.24-.43-.55-.57Z"/><path class="cls-2" d="M115.29,369.86c-.01-.07-.01-.15,0-.22.31-.14.46-.32.55-.57.08,0,.16,0,.24,0,.09.25.24.43.55.57,0,.07,0,.15,0,.22-.31.14-.46.32-.55.57-.08,0-.16,0-.24,0-.09-.25-.24-.43-.55-.57Z"/><path class="cls-2" d="M116.82,369.86c-.01-.07-.01-.15,0-.22.31-.14.46-.32.55-.57.08,0,.16,0,.24,0,.09.25.24.43.55.57.01.07.01.15,0,.22-.31.14-.46.32-.55.57-.08,0-.16,0-.24,0-.09-.25-.24-.43-.55-.57Z"/><path class="cls-2" d="M118.35,369.86c-.01-.07-.01-.15,0-.22.31-.14.46-.32.55-.57.08,0,.16,0,.24,0,.09.25.24.43.55.57,0,.07,0,.15,0,.22-.31.14-.46.32-.55.57-.08,0-.16,0-.24,0-.09-.25-.24-.43-.55-.57Z"/><path class="cls-2" d="M119.88,369.86c-.01-.07-.01-.15,0-.22.31-.14.46-.32.55-.57.08,0,.16,0,.24,0,.09.25.24.43.55.57,0,.07,0,.15,0,.22-.31.14-.46.32-.55.57-.08,0-.16,0-.24,0-.09-.25-.24-.43-.55-.57Z"/><path class="cls-2" d="M121.41,369.86c-.01-.07-.01-.15,0-.22.31-.14.46-.32.55-.57.08,0,.16,0,.24,0,.09.25.24.43.55.57.01.07.01.15,0,.22-.31.14-.46.32-.55.57-.08,0-.16,0-.24,0-.09-.25-.24-.43-.55-.57Z"/><path class="cls-2" d="M122.94,369.86c-.01-.07-.01-.15,0-.22.31-.14.46-.32.55-.57.08,0,.16,0,.24,0,.09.25.24.43.55.57,0,.07,0,.15,0,.22-.31.14-.46.32-.55.57-.08,0-.16,0-.24,0-.09-.25-.24-.43-.55-.57Z"/><path class="cls-2" d="M124.47,369.86c-.01-.07-.01-.15,0-.22.31-.14.46-.32.55-.57.08,0,.16,0,.24,0,.09.25.24.43.55.57.01.07.01.15,0,.22-.31.14-.46.32-.55.57-.08,0-.16,0-.24,0-.09-.25-.24-.43-.55-.57Z"/><path class="cls-2" d="M126,369.86c-.01-.07-.01-.15,0-.22.31-.14.46-.32.55-.57.08,0,.16,0,.24,0,.09.25.24.43.55.57,0,.07,0,.15,0,.22-.31.14-.46.32-.55.57-.08,0-.16,0-.24,0-.09-.25-.24-.43-.55-.57Z"/><path class="cls-2" d="M127.53,369.86c-.01-.07-.01-.15,0-.22.31-.14.46-.32.55-.57.08,0,.16,0,.24,0,.09.25.24.43.55.57,0,.07,0,.15,0,.22-.31.14-.46.32-.55.57-.08,0-.16,0-.24,0-.09-.25-.24-.43-.55-.57Z"/><path class="cls-2" d="M129.06,369.86c-.01-.07-.01-.15,0-.22.31-.14.46-.32.55-.57.08,0,.16,0,.24,0,.09.25.24.43.55.57.01.07.01.15,0,.22-.31.14-.46.32-.55.57-.08,0-.16,0-.24,0-.09-.25-.24-.43-.55-.57Z"/><path class="cls-2" d="M130.59,369.86c-.01-.07-.01-.15,0-.22.31-.14.46-.32.55-.57.08,0,.16,0,.24,0,.09.25.24.43.55.57,0,.07,0,.15,0,.22-.31.14-.46.32-.55.57-.08,0-.16,0-.24,0-.09-.25-.24-.43-.55-.57Z"/><path class="cls-2" d="M132.12,369.86c-.01-.07-.01-.15,0-.22.31-.14.46-.32.55-.57.08,0,.16,0,.24,0,.09.25.24.43.55.57.01.07.01.15,0,.22-.31.14-.46.32-.55.57-.08,0-.16,0-.24,0-.09-.25-.24-.43-.55-.57Z"/><path class="cls-2" d="M133.65,369.86c-.01-.07-.01-.15,0-.22.31-.14.46-.32.55-.57.08,0,.16,0,.24,0,.09.25.24.43.55.57.01.07.01.15,0,.22-.31.14-.46.32-.55.57-.08,0-.16,0-.24,0-.09-.25-.24-.43-.55-.57Z"/><path class="cls-2" d="M135.18,369.86c-.01-.07-.01-.15,0-.22.31-.14.46-.32.55-.57.08,0,.16,0,.24,0,.09.25.24.43.55.57,0,.07,0,.15,0,.22-.31.14-.46.32-.55.57-.08,0-.16,0-.24,0-.09-.25-.24-.43-.55-.57Z"/><path class="cls-2" d="M136.71,369.86c-.01-.07-.01-.15,0-.22.31-.14.46-.32.55-.57.08,0,.16,0,.24,0,.09.25.24.43.55.57.01.07.01.15,0,.22-.31.14-.46.32-.55.57-.08,0-.16,0-.24,0-.09-.25-.24-.43-.55-.57Z"/><path class="cls-2" d="M138.24,369.86c-.01-.07-.01-.15,0-.22.31-.14.46-.32.55-.57.08,0,.16,0,.24,0,.09.25.24.43.55.57,0,.07,0,.15,0,.22-.31.14-.46.32-.55.57-.08,0-.16,0-.24,0-.09-.25-.24-.43-.55-.57Z"/><path class="cls-2" d="M139.77,369.86c-.01-.07-.01-.15,0-.22.31-.14.46-.32.55-.57.08,0,.16,0,.24,0,.09.25.24.43.55.57.01.07.01.15,0,.22-.31.14-.46.32-.55.57-.08,0-.16,0-.24,0-.09-.25-.24-.43-.55-.57Z"/><path class="cls-2" d="M141.3,369.86c-.01-.07-.01-.15,0-.22.31-.14.46-.32.55-.57.08,0,.16,0,.24,0,.09.25.24.43.55.57.01.07.01.15,0,.22-.31.14-.46.32-.55.57-.08,0-.16,0-.24,0-.09-.25-.24-.43-.55-.57Z"/><path class="cls-2" d="M142.83,369.86c-.01-.07-.01-.15,0-.22.31-.14.46-.32.55-.57.08,0,.16,0,.24,0,.09.25.24.43.55.57,0,.07,0,.15,0,.22-.31.14-.46.32-.55.57-.08,0-.16,0-.24,0-.09-.25-.24-.43-.55-.57Z"/><path class="cls-2" d="M144.36,369.86c-.01-.07-.01-.15,0-.22.31-.14.46-.32.55-.57.08,0,.16,0,.24,0,.09.25.24.43.55.57.01.07.01.15,0,.22-.31.14-.46.32-.55.57-.08,0-.16,0-.24,0-.09-.25-.24-.43-.55-.57Z"/><path class="cls-2" d="M145.89,369.86c-.01-.07-.01-.15,0-.22.31-.14.46-.32.55-.57.08,0,.16,0,.24,0,.09.25.24.43.55.57,0,.07,0,.15,0,.22-.31.14-.46.32-.55.57-.08,0-.16,0-.24,0-.09-.25-.24-.43-.55-.57Z"/><path class="cls-2" d="M147.42,369.86c-.01-.07-.01-.15,0-.22.31-.14.46-.32.55-.57.08,0,.16,0,.24,0,.09.25.24.43.55.57,0,.07,0,.15,0,.22-.31.14-.46.32-.55.57-.08,0-.16,0-.24,0-.09-.25-.24-.43-.55-.57Z"/><path class="cls-2" d="M148.95,369.86c-.01-.07-.01-.15,0-.22.31-.14.46-.32.55-.57.08,0,.16,0,.24,0,.09.25.24.43.55.57.01.07.01.15,0,.22-.31.14-.46.32-.55.57-.08,0-.16,0-.24,0-.09-.25-.24-.43-.55-.57Z"/><path class="cls-2" d="M150.48,369.86c-.01-.07-.01-.15,0-.22.31-.14.46-.32.55-.57.08,0,.16,0,.24,0,.09.25.24.43.55.57,0,.07,0,.15,0,.22-.31.14-.46.32-.55.57-.08,0-.16,0-.24,0-.09-.25-.24-.43-.55-.57Z"/><path class="cls-2" d="M152.01,369.86c-.01-.07-.01-.15,0-.22.31-.14.46-.32.55-.57.08,0,.16,0,.24,0,.09.25.24.43.55.57.01.07.01.15,0,.22-.31.14-.46.32-.55.57-.08,0-.16,0-.24,0-.09-.25-.24-.43-.55-.57Z"/><path class="cls-2" d="M153.54,369.86c-.01-.07-.01-.15,0-.22.31-.14.46-.32.55-.57.08,0,.16,0,.24,0,.09.25.24.43.55.57,0,.07,0,.15,0,.22-.31.14-.46.32-.55.57-.08,0-.16,0-.24,0-.09-.25-.24-.43-.55-.57Z"/><path class="cls-2" d="M155.07,369.86c-.01-.07-.01-.15,0-.22.31-.14.46-.32.55-.57.08,0,.16,0,.24,0,.09.25.24.43.55.57,0,.07,0,.15,0,.22-.31.14-.46.32-.55.57-.08,0-.16,0-.24,0-.09-.25-.24-.43-.55-.57Z"/><path class="cls-2" d="M156.6,369.86c-.01-.07-.01-.15,0-.22.31-.14.46-.32.55-.57.08,0,.16,0,.24,0,.09.25.24.43.55.57.01.07.01.15,0,.22-.31.14-.46.32-.55.57-.08,0-.16,0-.24,0-.09-.25-.24-.43-.55-.57Z"/><path class="cls-2" d="M158.12,369.86c-.01-.07-.01-.15,0-.22.31-.14.46-.32.55-.57.08,0,.16,0,.24,0,.09.25.24.43.55.57,0,.07,0,.15,0,.22-.31.14-.46.32-.55.57-.08,0-.16,0-.24,0-.09-.25-.24-.43-.55-.57Z"/><path class="cls-2" d="M159.65,369.86c-.01-.07-.01-.15,0-.22.31-.14.46-.32.55-.57.08,0,.16,0,.24,0,.09.25.24.43.55.57.01.07.01.15,0,.22-.31.14-.46.32-.55.57-.08,0-.16,0-.24,0-.09-.25-.24-.43-.55-.57Z"/><path class="cls-2" d="M161.19,369.86c-.01-.07-.01-.15,0-.22.31-.14.46-.32.55-.57.08,0,.16,0,.24,0,.09.25.24.43.55.57.01.07.01.15,0,.22-.31.14-.46.32-.55.57-.08,0-.16,0-.24,0-.09-.25-.24-.43-.55-.57Z"/><path class="cls-2" d="M162.71,369.86c-.01-.07-.01-.15,0-.22.31-.14.46-.32.55-.57.08,0,.16,0,.24,0,.09.25.24.43.55.57,0,.07,0,.15,0,.22-.31.14-.46.32-.55.57-.08,0-.16,0-.24,0-.09-.25-.24-.43-.55-.57Z"/><path class="cls-2" d="M164.24,369.86c-.01-.07-.01-.15,0-.22.31-.14.46-.32.55-.57.08,0,.16,0,.24,0,.09.25.24.43.55.57.01.07.01.15,0,.22-.31.14-.46.32-.55.57-.08,0-.16,0-.24,0-.09-.25-.24-.43-.55-.57Z"/><path class="cls-2" d="M165.77,369.86c-.01-.07-.01-.15,0-.22.31-.14.46-.32.55-.57.08,0,.16,0,.24,0,.09.25.24.43.55.57,0,.07,0,.15,0,.22-.31.14-.46.32-.55.57-.08,0-.16,0-.24,0-.09-.25-.24-.43-.55-.57Z"/><path class="cls-2" d="M167.3,369.86c-.01-.07-.01-.15,0-.22.31-.14.46-.32.55-.57.08,0,.16,0,.24,0,.09.25.24.43.55.57,0,.07,0,.15,0,.22-.31.14-.46.32-.55.57-.08,0-.16,0-.24,0-.09-.25-.24-.43-.55-.57Z"/><path class="cls-2" d="M168.83,369.86c-.01-.07-.01-.15,0-.22.31-.14.46-.32.55-.57.08,0,.16,0,.24,0,.09.25.24.43.55.57.01.07.01.15,0,.22-.31.14-.46.32-.55.57-.08,0-.16,0-.24,0-.09-.25-.24-.43-.55-.57Z"/><path class="cls-2" d="M170.36,369.86c-.01-.07-.01-.15,0-.22.31-.14.46-.32.55-.57.08,0,.16,0,.24,0,.09.25.24.43.55.57,0,.07,0,.15,0,.22-.31.14-.46.32-.55.57-.08,0-.16,0-.24,0-.09-.25-.24-.43-.55-.57Z"/><path class="cls-2" d="M171.89,369.86c-.01-.07-.01-.15,0-.22.31-.14.46-.32.55-.57.08,0,.16,0,.24,0,.09.25.24.43.55.57.01.07.01.15,0,.22-.31.14-.46.32-.55.57-.08,0-.16,0-.24,0-.09-.25-.24-.43-.55-.57Z"/><path class="cls-2" d="M173.42,369.86c-.01-.07-.01-.15,0-.22.31-.14.46-.32.55-.57.08,0,.16,0,.24,0,.09.25.24.43.55.57,0,.07,0,.15,0,.22-.31.14-.46.32-.55.57-.08,0-.16,0-.24,0-.09-.25-.24-.43-.55-.57Z"/><path class="cls-2" d="M174.95,369.86c-.01-.07-.01-.15,0-.22.31-.14.46-.32.55-.57.08,0,.16,0,.24,0,.09.25.24.43.55.57,0,.07,0,.15,0,.22-.31.14-.46.32-.55.57-.08,0-.16,0-.24,0-.09-.25-.24-.43-.55-.57Z"/><path class="cls-2" d="M176.48,369.86c-.01-.07-.01-.15,0-.22.31-.14.46-.32.55-.57.08,0,.16,0,.24,0,.09.25.24.43.55.57.01.07.01.15,0,.22-.31.14-.46.32-.55.57-.08,0-.16,0-.24,0-.09-.25-.24-.43-.55-.57Z"/><path class="cls-2" d="M178.01,369.86c-.01-.07-.01-.15,0-.22.31-.14.46-.32.55-.57.08,0,.16,0,.24,0,.09.25.24.43.55.57,0,.07,0,.15,0,.22-.31.14-.46.32-.55.57-.08,0-.16,0-.24,0-.09-.25-.24-.43-.55-.57Z"/><path class="cls-2" d="M179.54,369.86c-.01-.07-.01-.15,0-.22.31-.14.46-.32.55-.57.08,0,.16,0,.24,0,.09.25.24.43.55.57.01.07.01.15,0,.22-.31.14-.46.32-.55.57-.08,0-.16,0-.24,0-.09-.25-.24-.43-.55-.57Z"/><path class="cls-2" d="M181.07,369.86c-.01-.07-.01-.15,0-.22.31-.14.46-.32.55-.57.08,0,.16,0,.24,0,.09.25.24.43.55.57.01.07.01.15,0,.22-.31.14-.46.32-.55.57-.08,0-.16,0-.24,0-.09-.25-.24-.43-.55-.57Z"/><path class="cls-2" d="M182.6,369.86c-.01-.07-.01-.15,0-.22.31-.14.46-.32.55-.57.08,0,.16,0,.24,0,.09.25.24.43.55.57,0,.07,0,.15,0,.22-.31.14-.46.32-.55.57-.08,0-.16,0-.24,0-.09-.25-.24-.43-.55-.57Z"/><path class="cls-2" d="M184.13,369.86c-.01-.07-.01-.15,0-.22.31-.14.46-.32.55-.57.08,0,.16,0,.24,0,.09.25.24.43.55.57.01.07.01.15,0,.22-.31.14-.46.32-.55.57-.08,0-.16,0-.24,0-.09-.25-.24-.43-.55-.57Z"/><path class="cls-2" d="M185.66,369.86c-.01-.07-.01-.15,0-.22.31-.14.46-.32.55-.57.08,0,.16,0,.24,0,.09.25.24.43.55.57,0,.07,0,.15,0,.22-.31.14-.46.32-.55.57-.08,0-.16,0-.24,0-.09-.25-.24-.43-.55-.57Z"/><path class="cls-2" d="M187.19,369.86c-.01-.07-.01-.15,0-.22.31-.14.46-.32.55-.57.08,0,.16,0,.24,0,.09.25.24.43.55.57.01.07.01.15,0,.22-.31.14-.46.32-.55.57-.08,0-.16,0-.24,0-.09-.25-.24-.43-.55-.57Z"/><path class="cls-2" d="M188.72,369.86c-.01-.07-.01-.15,0-.22.31-.14.46-.32.55-.57.08,0,.16,0,.24,0,.09.25.24.43.55.57.01.07.01.15,0,.22-.31.14-.46.32-.55.57-.08,0-.16,0-.24,0-.09-.25-.24-.43-.55-.57Z"/><path class="cls-2" d="M190.25,369.86c-.01-.07-.01-.15,0-.22.31-.14.46-.32.55-.57.08,0,.16,0,.24,0,.09.25.24.43.55.57,0,.07,0,.15,0,.22-.31.14-.46.32-.55.57-.08,0-.16,0-.24,0-.09-.25-.24-.43-.55-.57Z"/><path class="cls-2" d="M191.78,369.86c-.01-.07-.01-.15,0-.22.31-.14.46-.32.55-.57.08,0,.16,0,.24,0,.09.25.24.43.55.57.01.07.01.15,0,.22-.31.14-.46.32-.55.57-.08,0-.16,0-.24,0-.09-.25-.24-.43-.55-.57Z"/><path class="cls-2" d="M193.31,369.86c-.01-.07-.01-.15,0-.22.31-.14.46-.32.55-.57.08,0,.16,0,.24,0,.09.25.24.43.55.57,0,.07,0,.15,0,.22-.31.14-.46.32-.55.57-.08,0-.16,0-.24,0-.09-.25-.24-.43-.55-.57Z"/><path class="cls-2" d="M193.59,369.86c-.01-.07-.01-.15,0-.22.31-.14.46-.32.55-.57.08,0,.16,0,.24,0,.09.25.24.43.55.57,0,.07,0,.15,0,.22-.31.14-.46.32-.55.57-.08,0-.16,0-.24,0-.09-.25-.24-.43-.55-.57Z"/><path class="cls-2" d="M195.12,369.86c-.01-.07-.01-.15,0-.22.31-.14.46-.32.55-.57.08,0,.16,0,.24,0,.09.25.24.43.55.57.01.07.01.15,0,.22-.31.14-.46.32-.55.57-.08,0-.16,0-.24,0-.09-.25-.24-.43-.55-.57Z"/><path class="cls-2" d="M196.65,369.86c-.01-.07-.01-.15,0-.22.31-.14.46-.32.55-.57.08,0,.16,0,.24,0,.09.25.24.43.55.57,0,.07,0,.15,0,.22-.31.14-.46.32-.55.57-.08,0-.16,0-.24,0-.09-.25-.24-.43-.55-.57Z"/><path class="cls-2" d="M198.18,369.86c-.01-.07-.01-.15,0-.22.31-.14.46-.32.55-.57.08,0,.16,0,.24,0,.09.25.24.43.55.57,0,.07,0,.15,0,.22-.31.14-.46.32-.55.57-.08,0-.16,0-.24,0-.09-.25-.24-.43-.55-.57Z"/><path class="cls-2" d="M199.71,369.86c-.01-.07-.01-.15,0-.22.31-.14.46-.32.55-.57.08,0,.16,0,.24,0,.09.25.24.43.55.57.01.07.01.15,0,.22-.31.14-.46.32-.55.57-.08,0-.16,0-.24,0-.09-.25-.24-.43-.55-.57Z"/><path class="cls-2" d="M201.24,369.86c-.01-.07-.01-.15,0-.22.31-.14.46-.32.55-.57.08,0,.16,0,.24,0,.09.25.24.43.55.57,0,.07,0,.15,0,.22-.31.14-.46.32-.55.57-.08,0-.16,0-.24,0-.09-.25-.24-.43-.55-.57Z"/><path class="cls-2" d="M202.77,369.86c-.01-.07-.01-.15,0-.22.31-.14.46-.32.55-.57.08,0,.16,0,.24,0,.09.25.24.43.55.57.01.07.01.15,0,.22-.31.14-.46.32-.55.57-.08,0-.16,0-.24,0-.09-.25-.24-.43-.55-.57Z"/><path class="cls-2" d="M204.3,369.86c-.01-.07-.01-.15,0-.22.31-.14.46-.32.55-.57.08,0,.16,0,.24,0,.09.25.24.43.55.57.01.07.01.15,0,.22-.31.14-.46.32-.55.57-.08,0-.16,0-.24,0-.09-.25-.24-.43-.55-.57Z"/><path class="cls-2" d="M205.83,369.86c-.01-.07-.01-.15,0-.22.31-.14.46-.32.55-.57.08,0,.16,0,.24,0,.09.25.24.43.55.57,0,.07,0,.15,0,.22-.31.14-.46.32-.55.57-.08,0-.16,0-.24,0-.09-.25-.24-.43-.55-.57Z"/><path class="cls-2" d="M207.36,369.86c-.01-.07-.01-.15,0-.22.31-.14.46-.32.55-.57.08,0,.16,0,.24,0,.09.25.24.43.55.57.01.07.01.15,0,.22-.31.14-.46.32-.55.57-.08,0-.16,0-.24,0-.09-.25-.24-.43-.55-.57Z"/><path class="cls-2" d="M208.89,369.86c-.01-.07-.01-.15,0-.22.31-.14.46-.32.55-.57.08,0,.16,0,.24,0,.09.25.24.43.55.57,0,.07,0,.15,0,.22-.31.14-.46.32-.55.57-.08,0-.16,0-.24,0-.09-.25-.24-.43-.55-.57Z"/><path class="cls-2" d="M210.42,369.86c-.01-.07-.01-.15,0-.22.31-.14.46-.32.55-.57.08,0,.16,0,.24,0,.09.25.24.43.55.57.01.07.01.15,0,.22-.31.14-.46.32-.55.57-.08,0-.16,0-.24,0-.09-.25-.24-.43-.55-.57Z"/><path class="cls-2" d="M211.95,369.86c-.01-.07-.01-.15,0-.22.31-.14.46-.32.55-.57.08,0,.16,0,.24,0,.09.25.24.43.55.57.01.07.01.15,0,.22-.31.14-.46.32-.55.57-.08,0-.16,0-.24,0-.09-.25-.24-.43-.55-.57Z"/><path class="cls-2" d="M213.48,369.86c-.01-.07-.01-.15,0-.22.31-.14.46-.32.55-.57.08,0,.16,0,.24,0,.09.25.24.43.55.57,0,.07,0,.15,0,.22-.31.14-.46.32-.55.57-.08,0-.16,0-.24,0-.09-.25-.24-.43-.55-.57Z"/><path class="cls-2" d="M215.01,369.86c-.01-.07-.01-.15,0-.22.31-.14.46-.32.55-.57.08,0,.16,0,.24,0,.09.25.24.43.55.57.01.07.01.15,0,.22-.31.14-.46.32-.55.57-.08,0-.16,0-.24,0-.09-.25-.24-.43-.55-.57Z"/><path class="cls-2" d="M216.54,369.86c-.01-.07-.01-.15,0-.22.31-.14.46-.32.55-.57.08,0,.16,0,.24,0,.09.25.24.43.55.57,0,.07,0,.15,0,.22-.31.14-.46.32-.55.57-.08,0-.16,0-.24,0-.09-.25-.24-.43-.55-.57Z"/><path class="cls-2" d="M218.07,369.86c-.01-.07-.01-.15,0-.22.31-.14.46-.32.55-.57.08,0,.16,0,.24,0,.09.25.24.43.55.57,0,.07,0,.15,0,.22-.31.14-.46.32-.55.57-.08,0-.16,0-.24,0-.09-.25-.24-.43-.55-.57Z"/><path class="cls-2" d="M219.6,369.86c-.01-.07-.01-.15,0-.22.31-.14.46-.32.55-.57.08,0,.16,0,.24,0,.09.25.24.43.55.57.01.07.01.15,0,.22-.31.14-.46.32-.55.57-.08,0-.16,0-.24,0-.09-.25-.24-.43-.55-.57Z"/><path class="cls-2" d="M221.13,369.86c-.01-.07-.01-.15,0-.22.31-.14.46-.32.55-.57.08,0,.16,0,.24,0,.09.25.24.43.55.57,0,.07,0,.15,0,.22-.31.14-.46.32-.55.57-.08,0-.16,0-.24,0-.09-.25-.24-.43-.55-.57Z"/><path class="cls-2" d="M222.66,369.86c-.01-.07-.01-.15,0-.22.31-.14.46-.32.55-.57.08,0,.16,0,.24,0,.09.25.24.43.55.57.01.07.01.15,0,.22-.31.14-.46.32-.55.57-.08,0-.16,0-.24,0-.09-.25-.24-.43-.55-.57Z"/><path class="cls-2" d="M224.19,369.86c-.01-.07-.01-.15,0-.22.31-.14.46-.32.55-.57.08,0,.16,0,.24,0,.09.25.24.43.55.57,0,.07,0,.15,0,.22-.31.14-.46.32-.55.57-.08,0-.16,0-.24,0-.09-.25-.24-.43-.55-.57Z"/><path class="cls-2" d="M225.72,369.86c-.01-.07-.01-.15,0-.22.31-.14.46-.32.55-.57.08,0,.16,0,.24,0,.09.25.24.43.55.57,0,.07,0,.15,0,.22-.31.14-.46.32-.55.57-.08,0-.16,0-.24,0-.09-.25-.24-.43-.55-.57Z"/><path class="cls-2" d="M227.25,369.86c-.01-.07-.01-.15,0-.22.31-.14.46-.32.55-.57.08,0,.16,0,.24,0,.09.25.24.43.55.57.01.07.01.15,0,.22-.31.14-.46.32-.55.57-.08,0-.16,0-.24,0-.09-.25-.24-.43-.55-.57Z"/><path class="cls-2" d="M228.78,369.86c-.01-.07-.01-.15,0-.22.31-.14.46-.32.55-.57.08,0,.16,0,.24,0,.09.25.24.43.55.57,0,.07,0,.15,0,.22-.31.14-.46.32-.55.57-.08,0-.16,0-.24,0-.09-.25-.24-.43-.55-.57Z"/><path class="cls-2" d="M230.31,369.86c-.01-.07-.01-.15,0-.22.31-.14.46-.32.55-.57.08,0,.16,0,.24,0,.09.25.24.43.55.57.01.07.01.15,0,.22-.31.14-.46.32-.55.57-.08,0-.16,0-.24,0-.09-.25-.24-.43-.55-.57Z"/><path class="cls-2" d="M231.84,369.86c-.01-.07-.01-.15,0-.22.31-.14.46-.32.55-.57.08,0,.16,0,.24,0,.09.25.24.43.55.57.01.07.01.15,0,.22-.31.14-.46.32-.55.57-.08,0-.16,0-.24,0-.09-.25-.24-.43-.55-.57Z"/><path class="cls-2" d="M233.37,369.86c-.01-.07-.01-.15,0-.22.31-.14.46-.32.55-.57.08,0,.16,0,.24,0,.09.25.24.43.55.57,0,.07,0,.15,0,.22-.31.14-.46.32-.55.57-.08,0-.16,0-.24,0-.09-.25-.24-.43-.55-.57Z"/><path class="cls-2" d="M234.9,369.86c-.01-.07-.01-.15,0-.22.31-.14.46-.32.55-.57.08,0,.16,0,.24,0,.09.25.24.43.55.57.01.07.01.15,0,.22-.31.14-.46.32-.55.57-.08,0-.16,0-.24,0-.09-.25-.24-.43-.55-.57Z"/><path class="cls-2" d="M236.43,369.86c-.01-.07-.01-.15,0-.22.31-.14.46-.32.55-.57.08,0,.16,0,.24,0,.09.25.24.43.55.57,0,.07,0,.15,0,.22-.31.14-.46.32-.55.57-.08,0-.16,0-.24,0-.09-.25-.24-.43-.55-.57Z"/><path class="cls-2" d="M237.96,369.86c-.01-.07-.01-.15,0-.22.31-.14.46-.32.55-.57.08,0,.16,0,.24,0,.09.25.24.43.55.57,0,.07,0,.15,0,.22-.31.14-.46.32-.55.57-.08,0-.16,0-.24,0-.09-.25-.24-.43-.55-.57Z"/><path class="cls-2" d="M239.49,369.86c-.01-.07-.01-.15,0-.22.31-.14.46-.32.55-.57.08,0,.16,0,.24,0,.09.25.24.43.55.57.01.07.01.15,0,.22-.31.14-.46.32-.55.57-.08,0-.16,0-.24,0-.09-.25-.24-.43-.55-.57Z"/><path class="cls-2" d="M241.02,369.86c-.01-.07-.01-.15,0-.22.31-.14.46-.32.55-.57.08,0,.16,0,.24,0,.09.25.24.43.55.57,0,.07,0,.15,0,.22-.31.14-.46.32-.55.57-.08,0-.16,0-.24,0-.09-.25-.24-.43-.55-.57Z"/><path class="cls-2" d="M242.55,369.86c-.01-.07-.01-.15,0-.22.31-.14.46-.32.55-.57.08,0,.16,0,.24,0,.09.25.24.43.55.57.01.07.01.15,0,.22-.31.14-.46.32-.55.57-.08,0-.16,0-.24,0-.09-.25-.24-.43-.55-.57Z"/><path class="cls-2" d="M244.08,369.86c-.01-.07-.01-.15,0-.22.31-.14.46-.32.55-.57.08,0,.16,0,.24,0,.09.25.24.43.55.57,0,.07,0,.15,0,.22-.31.14-.46.32-.55.57-.08,0-.16,0-.24,0-.09-.25-.24-.43-.55-.57Z"/><path class="cls-2" d="M245.61,369.86c-.01-.07-.01-.15,0-.22.31-.14.46-.32.55-.57.08,0,.16,0,.24,0,.09.25.24.43.55.57,0,.07,0,.15,0,.22-.31.14-.46.32-.55.57-.08,0-.16,0-.24,0-.09-.25-.24-.43-.55-.57Z"/><path class="cls-2" d="M247.14,369.86c-.01-.07-.01-.15,0-.22.31-.14.46-.32.55-.57.08,0,.16,0,.24,0,.09.25.24.43.55.57.01.07.01.15,0,.22-.31.14-.46.32-.55.57-.08,0-.16,0-.24,0-.09-.25-.24-.43-.55-.57Z"/><path class="cls-2" d="M248.67,369.86c-.01-.07-.01-.15,0-.22.31-.14.46-.32.55-.57.08,0,.16,0,.24,0,.09.25.24.43.55.57,0,.07,0,.15,0,.22-.31.14-.46.32-.55.57-.08,0-.16,0-.24,0-.09-.25-.24-.43-.55-.57Z"/><path class="cls-2" d="M250.2,369.86c-.01-.07-.01-.15,0-.22.31-.14.46-.32.55-.57.08,0,.16,0,.24,0,.09.25.24.43.55.57.01.07.01.15,0,.22-.31.14-.46.32-.55.57-.08,0-.16,0-.24,0-.09-.25-.24-.43-.55-.57Z"/><path class="cls-2" d="M251.73,369.86c-.01-.07-.01-.15,0-.22.31-.14.46-.32.55-.57.08,0,.16,0,.24,0,.09.25.24.43.55.57.01.07.01.15,0,.22-.31.14-.46.32-.55.57-.08,0-.16,0-.24,0-.09-.25-.24-.43-.55-.57Z"/><path class="cls-2" d="M253.26,369.86c-.01-.07-.01-.15,0-.22.31-.14.46-.32.55-.57.08,0,.16,0,.24,0,.09.25.24.43.55.57,0,.07,0,.15,0,.22-.31.14-.46.32-.55.57-.08,0-.16,0-.24,0-.09-.25-.24-.43-.55-.57Z"/><path class="cls-2" d="M254.79,369.86c-.01-.07-.01-.15,0-.22.31-.14.46-.32.55-.57.08,0,.16,0,.24,0,.09.25.24.43.55.57.01.07.01.15,0,.22-.31.14-.46.32-.55.57-.08,0-.16,0-.24,0-.09-.25-.24-.43-.55-.57Z"/><path class="cls-2" d="M256.32,369.86c-.01-.07-.01-.15,0-.22.31-.14.46-.32.55-.57.08,0,.16,0,.24,0,.09.25.24.43.55.57,0,.07,0,.15,0,.22-.31.14-.46.32-.55.57-.08,0-.16,0-.24,0-.09-.25-.24-.43-.55-.57Z"/><path class="cls-2" d="M257.85,369.86c-.01-.07-.01-.15,0-.22.31-.14.46-.32.55-.57.08,0,.16,0,.24,0,.09.25.24.43.55.57.01.07.01.15,0,.22-.31.14-.46.32-.55.57-.08,0-.16,0-.24,0-.09-.25-.24-.43-.55-.57Z"/><path class="cls-2" d="M259.38,369.86c-.01-.07-.01-.15,0-.22.31-.14.46-.32.55-.57.08,0,.16,0,.24,0,.09.25.24.43.55.57.01.07.01.15,0,.22-.31.14-.46.32-.55.57-.08,0-.16,0-.24,0-.09-.25-.24-.43-.55-.57Z"/><path class="cls-2" d="M260.91,369.86c-.01-.07-.01-.15,0-.22.31-.14.46-.32.55-.57.08,0,.16,0,.24,0,.09.25.24.43.55.57,0,.07,0,.15,0,.22-.31.14-.46.32-.55.57-.08,0-.16,0-.24,0-.09-.25-.24-.43-.55-.57Z"/></g></svg>