<?xml version="1.0" encoding="UTF-8"?>
<svg xmlns="http://www.w3.org/2000/svg" baseProfile="tiny" version="1.2" viewBox="0 0 272.09384 800.15527">
  <!-- Generator: Adobe Illustrator 28.6.0, SVG Export Plug-In . SVG Version: 1.2.0 Build 709)  -->
  <g>
    <g id="b">
      <g id="c">
        <path d="M196.06026,644.61633c-9.03517,0-17.61284,3.20233-21.04388,14.06738.80058.34314,2.05864.68622,3.08795.8006,2.51613-6.40466,7.54836-10.86505,15.4398-10.86505,7.43399,0,12.58058,6.1759,12.58058,13.1524,0,6.86212-1.7155,10.29321-11.20813,13.1524-5.60408,1.71552-8.69205,3.43109-12.12312,6.1759.34309,1.25806.80058,2.05865,1.82991,2.63049,3.88853-2.74487,6.51904-4.34601,11.0938-4.34601,6.06154,0,11.77998,3.20233,11.77998,16.46912,0,8.92078-3.20236,16.69788-14.0674,16.69788-4.8035,0-11.09377-2.05865-11.09377-5.26099s6.40463-2.28735,6.40463-8.12018c0-2.97357-2.28735-5.26099-5.94717-5.26099-3.54546,0-6.97649,2.63049-6.97649,7.66272,0,4.91785,3.08795,14.18176,17.72717,14.18176,9.83575,0,24.93246-5.26099,24.93246-20.58643,0-8.92078-5.14667-16.5835-17.95593-18.98523l.11433-.57184c9.83572-1.25806,16.46916-7.09088,16.46916-14.41046,0-9.37823-8.34894-16.5835-21.04388-16.5835M142.07809,712.38629c-6.1759,0-13.49553-3.77417-13.49553-6.9765s6.40466-2.28735,6.40466-8.12018c0-2.97357-2.2874-5.26099-5.94717-5.26099-3.54545,0-6.97653,2.63049-6.97653,7.66272,0,7.66272,6.40466,16.01166,21.04388,16.01166,11.89439,0,23.78874-8.12018,23.78874-21.27264,0-14.63922-12.80931-19.90021-19.90021-19.90021-4.91786,0-9.14949,2.17303-11.77998,6.06158l-.45746-.11438,4.91786-24.58929c5.71844.22876,12.00873.57184,18.75648.22876l3.88858-13.03809c-.80058-.11438-2.2874-.11438-3.43108,0l-1.14368,3.20233c-6.63339.22876-12.80936.22876-19.67148-.34308l-8.12018,42.20215c1.14368.34314,2.28735.57184,3.31668.45746,3.88853-8.46332,8.23457-10.52191,12.12312-10.52191,7.66272,0,10.9794,7.09088,10.9794,15.43982,0,11.32251-4.57472,18.87085-14.29613,18.87085M87.8672,646.50977l-5.48968,15.5542c1.02932.34308,2.173.45746,3.20232.57184l2.6305-6.06152c9.14949.34308,18.18466.34308,27.44856,0-4.00294,7.54834-14.98234,27.90601-21.73011,40.60095-1.60118,3.08795-2.05864,4.23163-2.05864,5.9472,0,2.51611,2.05864,4.00293,4.23163,4.00293,3.08795,0,5.94718-2.28735,5.94718-5.60406,0-2.85919-2.40173-2.85919-2.40173-5.48969,0-.57184.11436-1.25806.45746-1.8299l24.24624-45.86194c-.22877-.68622-.57186-1.37244-1.02932-1.8299-11.78003.34314-23.67438.34314-35.45441,0M47.26752,686.53888h25.73302c.22873-1.25806.22873-2.63049,0-3.88855h-7.77712v-32.25201h7.20526c.22873-1.25806.22873-2.63049,0-3.88855h-24.58933c-.22873,1.25806-.22873,2.63049,0,3.88855h7.31963v32.25201h-7.89145c-.22877,1.25806-.22877,2.63049,0,3.88855"/>
        <path d="M211.49916,547.97162c1.60118.57184,6.40463.57184,7.66267,0v-17.15533h5.71844c.57185-1.8299.57185-7.09088,0-8.92078h-5.71844v-27.79166c-1.25806-.57184-6.06149-.57184-7.66267,0v27.79166h-15.32544c-2.05864,0-4.23167,0-6.29031.22876,7.0909-13.26678,13.03807-24.3606,26.30489-44.71826-.91499-.8006-1.94431-1.48679-3.08795-1.8299-14.41052,21.15826-22.07324,35.45441-29.39282,49.75049-.57185,1.25806-.4575,3.88855,0,5.48969h27.79166v17.15533h-.00002ZM141.04916,510.45859c-1.48682-3.20233-1.71555-4.34601-1.71555-6.29028,0-3.08795,2.51608-9.60699,11.32253-9.60699,7.66272,0,10.75067,5.6041,10.75067,10.7507s-2.74486,7.89148-11.0938,13.38116c-4.34599,2.85919-10.63631,6.86212-15.32544,11.43689-.45746.45746-.45746,2.51611,0,3.31671h34.42505l6.51904-14.06738c-.91495-.45746-1.94427-.91498-3.31668-1.14368l-2.85922,5.26099h-10.06448c-4.00291,0-7.3196.11438-9.37827.22876l-.22873-.68622c2.2874-2.17303,5.83281-4.11731,8.23457-5.60406,3.08795-1.94427,13.38116-6.86212,13.38116-14.98233,0-8.57767-9.60699-11.20816-18.8709-11.20816-8.00581,0-16.69789,4.00293-16.69789,13.38116,0,2.74487.91495,5.37534,2.17303,7.09088,1.14368-.11435,1.82991-.45749,2.74486-1.25806M106.28226,531.38812c-7.31963,0-12.00876-4.57477-12.00876-18.07031,0-14.52484,5.37535-18.29904,12.00876-18.29904,5.94718,0,12.00872,3.65982,12.00872,18.29904,0,13.49554-4.68909,18.07031-12.00872,18.07031M106.28226,491.81647c-11.89439,0-21.61575,9.03516-21.61575,22.18756,0,14.7536,11.78003,20.58643,21.50138,20.58643,9.26386,0,21.61571-6.51904,21.61571-21.7301,0-14.06738-10.06445-21.04388-21.50134-21.04388M42.35129,510.45859c-1.48681-3.20233-1.71554-4.34601-1.71554-6.29028,0-3.08795,2.51609-9.60699,11.32253-9.60699,7.66272,0,10.75067,5.6041,10.75067,10.7507s-2.74486,7.89148-11.0938,13.38116c-4.346,2.85919-10.63631,6.86212-15.32544,11.43689-.45746.45746-.45746,2.51611,0,3.31671h34.42505l6.51904-14.06738c-.91495-.45746-1.94427-.91498-3.31668-1.14368l-2.85922,5.26099h-10.06449c-4.00291,0-7.31963.11438-9.37826.22876l-.22873-.68622c2.28736-2.17303,5.83281-4.11731,8.23458-5.60406,3.08795-1.94427,13.38117-6.86212,13.38117-14.98233,0-8.57767-9.60699-11.20816-18.87089-11.20816-8.00585,0-16.69789,4.00293-16.69789,13.38116,0,2.74487.91495,5.37534,2.17304,7.09088,1.14368-.11435,1.82991-.45749,2.74486-1.25806"/>
        <path d="M156.87106,440.50153c-.82599-1.77911-.95306-2.41449-.95306-3.4946,0-1.71555,1.39786-5.33722,6.29031-5.33722,4.25706,0,5.97263,3.1134,5.97263,5.97263s-1.52493,4.38412-6.16322,7.43396c-2.41444,1.58847-5.90906,3.81229-8.51414,6.35382-.25414.25418-.25414,1.39786,0,1.84262h19.12505l3.62164-7.81519c-.5083-.25418-1.08012-.5083-1.84259-.63538l-1.58846,2.92276h-5.59135c-2.22385,0-4.06647.06357-5.21014.12708l-.12708-.3812c1.27077-1.20724,3.24043-2.28741,4.57477-3.1134,1.71555-1.08017,7.43399-3.81229,7.43399-8.32349,0-4.76538-5.33723-6.22678-10.48383-6.22678-4.44768,0-9.27663,2.22385-9.27663,7.43399,0,1.52493.5083,2.9863,1.20724,3.93939.63538-.06351,1.0166-.25418,1.5249-.69891M130.62975,453.2092h14.29613c.12708-.69894.12708-1.4614,0-2.16031h-4.3206v-17.91782h4.00291c.12708-.69891.12708-1.46136,0-2.16028h-13.66074c-.12708.69891-.12708,1.46136,0,2.16028h4.06647v17.91782h-4.38416c-.12708.69891-.12708,1.46136,0,2.16031M110.87063,452.12903c-4.06647,0-6.67152-2.54153-6.67152-10.03906,0-8.06937,2.98627-10.16614,6.67152-10.16614,3.30396,0,6.67152,2.0332,6.67152,10.16614,0,7.4975-2.60509,10.03906-6.67152,10.03906M110.87063,430.14478c-6.608,0-12.00876,5.01953-12.00876,12.32645,0,8.19647,6.54444,11.43689,11.94519,11.43689,5.14663,0,12.00876-3.6217,12.00876-12.07227,0-7.81519-5.59136-11.69107-11.94519-11.69107"/>
        <path d="M164.08865,610.01691c-3.43105,0-7.49751-2.09674-7.49751-3.87585s3.55814-1.27075,3.55814-4.51117c0-1.65198-1.27077-2.92279-3.30396-2.92279-1.96971,0-3.87585,1.46136-3.87585,4.25708,0,4.25708,3.55817,8.89539,11.69106,8.89539,6.60796,0,13.21596-4.51117,13.21596-11.81812,0-8.13293-7.1163-11.05566-11.05568-11.05566-2.73215,0-5.08305,1.20721-6.54443,3.36755l-.25414-.06354,2.73215-13.66077c3.17693.12708,6.67152.31769,10.42026.12708l2.16032-7.24341c-.44478-.06354-1.27077-.06354-1.90614,0l-.63538,1.77905c-3.68521.12708-7.1163.12708-10.9286-.19061l-4.5112,23.44568c.63538.19061,1.27077.31769,1.84259.25415,2.16032-4.70184,4.57477-5.84552,6.73508-5.84552,4.25706,0,6.09966,3.93939,6.09966,8.5777,0,6.29028-2.54153,10.48383-7.94229,10.48383M139.18164,603.79016c.88956.31769,3.55817.31769,4.25706,0v-9.53076h3.17693c.31769-1.0166.31769-3.93939,0-4.95599h-3.17693v-15.43982c-.69891-.31769-3.36752-.31769-4.25706,0v15.43982h-8.51411c-1.14368,0-2.35094,0-3.49461.12708,3.93938-7.37042,7.24335-13.53363,14.61382-24.84351-.5083-.44476-1.08015-.82599-1.71555-1.0166-8.00581,11.75458-12.26289,19.6969-16.32935,27.63916-.31769.69891-.25413,2.16034,0,3.04987h15.4398v9.53076ZM104.7439,571.83038c-5.01954,0-9.78492,1.77905-11.69106,7.81525.44478.19061,1.14368.38123,1.71554.44476,1.39785-3.55811,4.19351-6.03613,8.57767-6.03613,4.12999,0,6.98921,3.43109,6.98921,7.30688,0,3.81232-.95307,5.71844-6.22675,7.30688-3.11339.95306-4.82893,1.90613-6.73508,3.43109.19061.69891.44478,1.14368,1.01664,1.46136,2.16028-1.5249,3.62165-2.41443,6.16319-2.41443,3.36756,0,6.54448,1.77905,6.54448,9.14954,0,4.95599-1.7791,9.27661-7.81524,9.27661-2.66858,0-6.16319-1.14368-6.16319-2.92279s3.55813-1.27075,3.55813-4.51123c0-1.65198-1.27077-2.92279-3.304-2.92279-1.96967,0-3.87582,1.46136-3.87582,4.25708,0,2.73212,1.71554,7.87872,9.84844,7.87872,5.46428,0,13.85134-2.92279,13.85134-11.43689,0-4.95599-2.85922-9.21307-9.97552-10.54736l.06356-.31769c5.46428-.69891,9.14949-3.93933,9.14949-8.00586,0-5.21014-4.63829-9.21307-11.69103-9.21307"/>
        <path d="M178.78699,757.43433c2.54153,0,6.03613,1.27075,6.03613,9.91199,0,4.51123-.31769,8.95892-5.65489,8.95892-2.98631,0-5.71844-1.33429-5.71844-9.65784,0-6.41736,1.71555-9.21307,5.33719-9.21307M176.81731,788.25037c5.84554,0,13.78783-3.6217,13.78783-18.6167,0-7.17981-3.43108-13.97845-11.88167-13.97845-5.65492,0-11.18272,4.82892-11.18272,11.50043,0,6.22675,5.40076,10.92859,11.18272,10.92859,2.28735,0,4.44768-.82599,6.09966-1.84259-.19061,4.32062-1.33429,10.22968-7.87872,10.22968-1.65202,0-4.00291-.57184-4.00291-1.90613,0-.69891.31769-1.20721.31769-1.96967,0-1.14368-.88956-1.96967-2.2874-1.96967-1.77905,0-2.66862,1.08014-2.66862,2.79572,0,2.35089,2.66862,4.82892,8.51414,4.82892M147.90736,777.89362c-2.85922,0-6.03613-1.90613-6.03613-9.40369,0-7.87872,2.92274-9.27661,6.03613-9.27661s6.03613,1.27075,6.03613,9.27661c0,7.4975-3.04984,9.40369-6.03613,9.40369M147.84386,757.43433c-2.7957,0-5.90909-1.77905-5.90909-9.27661,0-8.19641,3.304-9.5943,5.97263-9.5943,2.54153,0,5.97263,1.5249,5.97263,9.5943,0,7.4975-2.98631,9.27661-6.03613,9.27661M148.03445,736.78436c-5.27367,0-11.81815,3.43103-11.81815,11.75458,0,5.90906,4.51125,8.83185,8.89536,9.46722v.19061c-5.97258.5083-9.14949,5.33722-9.14949,10.6109,0,7.30688,5.59135,10.86505,12.00871,10.86505s11.94524-4.76538,11.94524-11.56396-5.5914-9.53076-9.14954-10.03906v-.19061c5.46428-1.46136,9.02245-4.38416,9.02245-10.35675,0-6.41736-5.59135-10.73798-11.75459-10.73798M110.03855,756.60828l-3.04987,8.64124c.57186.19061,1.20724.25415,1.7791.31769l1.46137-3.36755c5.08306.19061,10.10257.19061,15.24919,0-2.22384,4.19354-8.32354,15.50336-12.07228,22.55609-.88955,1.71552-1.14368,2.35089-1.14368,3.30402,0,1.39783,1.14368,2.22382,2.35089,2.22382,1.71554,0,3.304-1.27075,3.304-3.1134,0-1.58844-1.33429-1.58844-1.33429-3.04987,0-.31769.06352-.69891.25413-1.0166l13.47012-25.47888c-.12708-.38123-.31769-.76245-.57182-1.0166-6.54448.19061-13.15244.19061-19.69688,0M89.19924,777.703c-2.54153,0-6.03614-1.27075-6.03614-9.91199,0-4.51123.31769-8.95892,5.65493-8.95892,2.98631,0,5.71845,1.33429,5.71845,9.65784,0,6.41736-1.71554,9.21307-5.33723,9.21307M91.16895,746.88696c-5.84553,0-13.78782,3.6217-13.78782,18.6167,0,7.17981,3.43105,13.97845,11.88167,13.97845,5.65489,0,11.18273-4.82892,11.18273-11.50043,0-6.22675-5.40076-10.92859-11.18273-10.92859-2.2874,0-4.44768.82599-6.0997,1.84259.19061-4.32062,1.33433-10.22968,7.87877-10.22968,1.65198,0,4.00291.57184,4.00291,1.90613,0,.69891-.31769,1.20721-.31769,1.96967,0,1.14368.88955,1.96967,2.28736,1.96967,1.7791,0,2.66862-1.08014,2.66862-2.79565,0-2.35089-2.66862-4.82892-8.51411-4.82892"/>
        <rect y="410.0137" width="272.09384" height="390.14157" fill="none"/>
        <path d="M148.06297,356.82507c.65532.05957,1.25105.05957,1.90637-.11914-.47659-2.79999.95319-3.45532,2.02554-3.45532,1.84682,0,2.62128,1.54892,2.62128,6.61276,0,4.11063-1.37021,6.55319-6.25531,7.62552-.11914.53616-.11914,1.07233,0,1.60852,2.0851,0,4.11064.7149,6.01701,1.96597.95319-.77448,1.72766-1.78723,2.32341-3.0383-1.60852-.83405-1.84682-.77448-2.85957-.95319v-.23831c3.57446-2.26382,3.99149-4.64679,3.99149-7.9234,0-1.54895-.05959-2.91916-.35745-4.11063.95319-.95319,1.72766-1.31064,2.8-1.31064,1.66809,0,2.62128,2.08511,2.62128,6.31488,0,2.50214-.05959,4.82553-1.48936,6.43405-1.90639,2.08511-2.0851,2.91916-1.84682,4.46808.29787.05957,1.48936.05957,1.90639,0-.29787-1.72766.29787-2.56171,1.37021-2.56171,1.31064,0,1.42978,1.90637,1.42978,2.56171,1.13193.05957,2.26382,0,3.39575-.17871.05959-.29788.05959-.7149.05959-1.01276,0-2.50214-1.72765-3.45532-3.6936-3.27658v-.17871c1.42979-1.66809,2.44257-5.24255,2.44257-7.32764,0-1.54895-.17873-2.85956-.47659-3.93192,1.1319-.83405,2.26382-1.54892,3.45531-1.54892,1.42979,0,2.62128.65533,4.05106,3.45532l-2.44254,3.45532c.17871,2.97873.17871,6.0766,0,9.17447,1.19148.47659,2.50211,1.01276,3.51488,1.72766,1.07234-1.07233,1.60852-1.54892,2.56171-3.09787-.41704-.29788-1.90639-1.01276-2.85957-1.60852-.11916-2.74042-.11916-4.05106-.11916-6.91064l2.44257-3.93192c-1.48936-3.45532-3.09789-4.8851-5.71915-4.8851-1.54893,0-3.33617.59573-5.65958,2.50214-.95319-1.48935-2.32339-2.14468-4.05106-2.14468-1.78723,0-3.21703.83405-4.34892,2.14468-.77448-1.25107-2.02553-2.02554-4.11063-2.02554-2.38298,0-5.48085,1.66809-4.6468,5.71915M132.3949,370.52719c-.11916-.35745-.11916-.47659-.11916-.59573,0-.53616.35745-1.1915,1.31064-1.1915,2.38297,0,4.11063,2.26382,7.44679,2.26382,2.14467,0,3.87233-1.90637,3.87233-4.05106-.53616-.23831-1.13191-.29788-1.66809-.23831-.2383,1.1915-.71489,1.72766-1.66809,1.72766s-2.0851-.53616-3.33617-1.07233c1.66809-1.66809,2.14468-2.85956,2.14468-4.1702,0-2.56171-1.54893-4.22977-1.54893-5.95743,0-.59573.17873-1.1319.53616-1.72766,1.19148.29788,2.38298.53616,3.57446.53616,2.14467,0,3.75317-1.90637,3.75317-3.81277,0-1.1319-.71489-1.72766-.89362-1.90637-.53616.17871-1.01276.35745-1.42979.65533.2383.53616.2383.77448.2383,1.01276,0,.47659-.41702.95319-1.01276.95319-2.14468,0-5.42126-1.60852-9.23404-1.60852-3.87233,0-5.71915,3.27658-5.71915,5.42126,0,1.1915.47659,2.14468,1.13191,2.79999.53616-.23831,1.07234-.65533,1.48936-1.1319-.47659-.53616-.53616-1.1915-.53616-1.72766,0-1.1319.77448-2.38297,2.8-2.38297,1.19148,0,2.56171.35745,3.93192.7149-.95319,1.1915-1.60851,2.32339-1.60851,3.45532,0,2.32339,1.42979,3.27658,1.42979,5.48087,0,1.25107-.29787,1.96597-.83405,2.74042-.71489-.23831-1.42978-.41702-2.14467-.41702-2.38298,0-3.87234,1.25107-3.87234,3.15744,0,.53616.17873,1.07233.35745,1.37021.53616,0,1.07234-.05957,1.60851-.29788M110.23435,360.33997c0-.47659-.05958-1.07233-.11914-1.60852l2.02553-1.07233c.41702.59573.65532,1.07233.95319,1.54895-1.01277.7149-1.72766,1.07233-2.85957,1.42978,0,0,0-.29788,0-.29788ZM104.69394,357.36124c.17872.41702.4766.77448.77447,1.07233.41702-.23831.77446-.47659,1.13191-.47659.77446,0,1.48936,1.01276,1.48936,2.56171,0,1.60852-.59574,2.85956-2.74042,3.6936-.05958.23831-.05958.95319,0,1.1915,1.07234,0,3.0383.77448,4.05106,1.42978.53616-.59573,1.01276-1.1915,1.42978-1.90637-.83404-.47659-1.90637-.59573-2.26383-.65533.4766-.53616.95319-1.1915,1.25107-1.96597.41702-.05957.77446-.11914,1.13191-.23831.95319,2.74042,2.02553,3.6936,2.97872,4.52765,1.19149-.83405,2.3234-1.90637,2.74042-2.44254-.11914-.35745-.71489-1.07233-.95319-1.1915l-1.07234.83405c-1.01277-1.1319-.89361-1.1319-1.60851-2.62128.95319-.53616,1.84681-1.1915,2.91914-2.08511-.71488-1.25107-1.48936-2.56171-2.44255-3.81277l-3.81277,2.08511c-.41702-.89362-1.07234-1.48935-2.14467-1.48935-.71489,0-1.66809.23831-2.85957,1.48935M110.71095,369.45483c-5.18298,0-8.57871-3.93192-8.57871-8.63831,0-4.94467,3.09787-8.57874,8.22127-8.57874,5.89786,0,8.57871,3.99149,8.57871,8.93616,0,4.8851-3.57447,8.28085-8.22127,8.28085M110.35351,371.42081c6.13616,0,10.84254-3.93192,10.84254-10.72339,0-6.25531-4.05106-10.54468-10.4851-10.54468-6.85106,0-10.90212,4.58722-10.90212,11.02127,0,6.31488,4.8851,10.2468,10.54467,10.2468"/>
        <path d="M195.12675,312.91391h3.03828c1.25105,5.89786,6.07658,9.65106,12.27234,9.47232,6.31488-.11914,9.29361-3.63403,9.94891-8.99573-.53616-.17871-1.1319-.29788-1.78723-.35745-1.48936,5.89786-4.76595,6.91064-7.74467,6.91064-4.34894,0-6.49361-2.74042-7.14894-7.08936,2.50214,0,5.06381.05957,8.1617.05957.2383-.95319.2383-1.1915.29787-2.08511-3.33617.05957-6.01701.05957-8.69786.05957-.05959-.59573-.05959-1.19147-.05959-1.78723v-.83405c3.09785,0,6.13617,0,9.59148.05957.23831-.95319.23831-1.19147.29788-2.08511-3.51489.05957-6.61276.05957-9.7702.05957.53616-6.91064,3.09785-8.87659,6.79147-8.87659,2.44257,0,3.87234.59573,5.54042,2.08511-1.31062.95319-1.54893,2.08511-1.54893,2.85956,0,1.8468,1.31065,2.56171,2.74042,2.56171,1.54893,0,2.68086-1.31064,2.68086-3.45532,0-2.85956-3.09789-6.13617-9.41277-6.13617-4.52765,0-10.84254,2.44254-12.21275,10.9021h-2.62128c-.23831.83405-.35744,1.66809-.35744,2.08511h2.8c-.05959.41702-.05959.95319-.05959,1.42978,0,.35745,0,.77448.05959,1.07233h-2.44257c-.23831.83405-.35744,1.66809-.35744,2.08511M160.93103,312.97348c2.74042,0,6.67233-.05957,10.72339-.05957v6.7319h-5.24255v1.8468h16.02551v-1.8468h-5.89786v-6.7319c3.63403,0,7.08934.05957,9.59148.05957.29787-.89362.29787-1.1915.35744-2.08511-2.50211,0-6.01701.05957-9.71063.05957l1.72765-2.56171c2.74043,0,5.65958.05957,7.62553.05957.29787-.89362.29787-1.19147.35744-2.08511-1.78723,0-4.28935.05957-6.61276.05957l5.36171-7.86383h2.44257v-1.8468h-9.71063v1.8468h4.46806l-6.85104,10.42551-6.85107-10.42551h4.22978v-1.8468h-13.9404v1.8468h3.75319l5.48083,7.86383c-2.56169,0-5.30211,0-7.02977-.05957-.2383.83405-.29787,1.66809-.29787,2.08511,2.20425-.05957,5.54041-.05957,8.69785-.05957l1.78725,2.56171c-3.87234,0-7.56595-.05957-10.18723-.05957-.2383.83405-.29787,1.66809-.29787,2.08511M124.94924,310.23306c2.20425,0,4.11063-.05957,5.89787-.05957.2383.95319.35745,1.90637.35745,2.85956,0,1.1319-.11916,2.26382-.47659,3.33618-.47659-.05957-.83405-.05957-1.07234-.05957-3.0383,0-4.11064,1.78723-4.11064,3.15744,0,1.31064,1.07234,2.26382,2.3234,2.26382,1.48936,0,2.62128-.65533,4.28936-3.21701,3.15744,1.07233,5.06381,3.81277,11.08084,3.81277,2.62128,0,7.26808-1.8468,7.14893-9.71063-.59573-.11914-1.13191-.11914-1.72765-.11914-.53616,3.6936-1.90639,5.60001-5.24255,5.60001-3.57446,0-7.08936-1.31064-10.06807-1.60852,1.01276-2.08511,1.48936-3.93192,1.72765-6.31488,2.02554,0,4.17021.05957,6.61276.05957.2383-.95319.2383-1.1915.29787-2.08511-2.56171,0-4.70638.05957-6.79147.05957.05959-1.1319.05959-2.32339.05959-3.6936,0-5.24255,1.72765-7.08936,5.18297-7.08936,2.50212,0,3.93192.59573,5.54042,2.08511-1.25105.95319-1.54893,2.08511-1.54893,2.85956,0,1.8468,1.31062,2.56171,2.74042,2.56171,1.60851,0,2.68085-1.31064,2.68085-3.45532,0-2.85956-3.0383-6.13617-9.41277-6.13617-4.82553,0-10.36594,2.32339-10.36594,9.0553,0,1.42978.17873,2.68085.41702,3.81277-1.60851,0-3.27659-.05957-5.18298-.05957-.2383.83405-.35744,1.66809-.35744,2.08511M97.42586,309.10114c0-7.98297,2.02553-10.42551,5.3617-10.90213v21.56595c-3.93191-.77448-5.3617-3.99149-5.3617-10.66382M104.9918,331.73944c-.05957-.95319-.05957-4.64679-.05957-9.35318,5.95744-.29788,8.75744-3.81277,9.41275-8.99573-.53616-.17871-1.13191-.29788-1.78723-.35745-1.48936,5.83829-4.70638,6.91064-7.62552,6.91064v-21.8638c2.02553.11914,3.39574.77448,4.8851,2.08511-1.31064.95319-1.54894,2.08511-1.54894,2.85956,0,1.8468,1.31064,2.56171,2.74043,2.56171,1.54893,0,2.68084-1.31064,2.68084-3.45532,0-2.74042-2.85957-5.89786-8.75744-6.13617,0-4.46808,0-7.9234.05957-8.75745-.29787-.05957-.83404-.17871-1.19148-.17871-.41703,0-.83405.11914-1.13192.17871.05958.83405.05958,4.34894.05958,8.81702-4.8851.47659-10.90212,3.45532-10.90212,13.70212,0,8.34042,4.58723,12.21274,10.90212,12.57019,0,4.76596,0,8.45956-.05958,9.41275.29787,0,.71489.05957,1.13192.05957.35744,0,.89361-.05957,1.19148-.05957M74.66958,316.4288c0,2.62128-1.84681,4.76596-5.48085,5.00424v-9.94894c4.22978.7149,5.48085,2.26382,5.48085,4.94467M61.68236,301.83307c0-2.91916,2.02553-4.82553,5.36169-5.24255.05958,3.09787.05958,6.55319.05958,9.88934-2.62127-.41702-5.42127-1.60852-5.42127-4.64679M69.24831,331.26282c0-.83405-.05958-3.93192-.05958-7.98297,3.87234-.41702,9.88935-2.32339,9.88935-8.5787,0-3.57446-2.5617-7.02979-9.88935-7.98297v-10.18723c2.14468.17871,3.87234.89362,5.6,2.26382-1.19149.89362-1.48936,1.78723-1.48936,2.56171,0,1.37021,1.07234,2.44254,2.50212,2.44254,1.54894,0,2.68085-1.01276,2.68085-3.09787,0-2.74042-3.45531-5.77872-9.29361-6.017,0-4.05106.05958-7.14893.05958-7.9234-.29787-.05957-.77447-.11914-1.19149-.11914s-.83404.05957-1.13192.11914c0,.77448.05958,3.93192.11915,7.98297-4.70638.47659-9.47233,3.15744-9.47233,8.10211,0,4.70639,4.22978,7.56595,9.53191,8.34042,0,3.45532,0,7.08936-.05958,10.2468-2.26383-.17874-4.05106-.95319-5.65957-2.26382,1.19149-.89362,1.54894-1.78723,1.54894-2.56171,0-1.37021-1.19149-2.56171-2.62128-2.56171-1.54893,0-2.85957,1.13193-2.85957,3.21701,0,2.79999,3.33617,5.83829,9.59148,6.0766-.05957,3.99149-.11915,7.08936-.11915,7.9234.29787,0,.71489.05957,1.13192.05957s.89361-.05957,1.19149-.05957"/>
        <path d="M213.71431,250.5119c3.03828.65532,5.06383,1.48936,7.80424,3.0383,1.48936-1.54893,2.02551-2.08511,4.88509-4.76596-.17871-.35744-.6553-1.01277-1.1319-1.25107l-2.14468,1.96596c-1.42979-.77448-3.21703-1.37021-4.88509-1.60851,0-.77448.05959-1.48936.05959-4.05106v-6.43404c0-1.13191,0-2.38298-.05959-3.51489.47659-.35745,1.07233-.89362,2.74042-1.96596.89362.77448,1.48936,1.60851,2.38298,3.21703,1.37021-.71489,2.74042-1.60852,3.87231-2.56171-1.01276-2.0851-1.72765-3.09787-3.45531-4.46808-3.2766,1.84682-6.73192,4.34892-10.06807,6.67233.05956,1.01277.11914,2.26382.11914,4.11063v6.91064c0,2.14468-.05959,3.51489-.11914,4.70638M220.02919,259.74594c-8.57872,0-16.38297-5.83829-16.38297-18.94467,0-11.55743,6.07658-19.18295,16.38297-19.18295,9.71063,0,17.09785,7.02977,17.09785,19.0638,0,10.06808-4.76596,19.0638-17.09785,19.0638M219.67175,261.65231c12.98721.11914,19.65955-9.11488,19.65955-21.50638,0-13.22552-9.0553-20.67232-18.58722-20.67232-11.08084,0-19.36168,7.2085-19.36168,21.68509,0,12.8085,7.08936,20.37444,18.28935,20.49361M179.16115,240.20552c-4.46809,0-7.74467-3.15746-7.74467-8.10213,0-5.71915,3.2766-8.69786,9.35318-8.69786h1.54893v16.56168c-1.1915.17873-2.20427.2383-3.15744.2383M182.31859,263.91614c.71487.11914,1.37021.11914,2.0851,0v-40.51059h2.97873v40.51059c.71487.11914,1.37021.11914,2.0851,0v-40.51059h3.45532c.05959-.29788.05959-.53616.05959-.83405s0-.59575-.05959-.83406h-12.51062c-5.18298,0-11.31914,2.74042-11.31914,10.66382,0,5.65958,3.75319,9.47234,9.71063,9.47234,1.07234,0,2.26382-.05959,3.51489-.29787v22.34041h-.00002ZM146.81339,253.5502c-4.46808-1.48936-10.0085-3.87234-10.0085-8.99574,0-4.82553,3.93192-7.2085,6.55318-8.45956,1.07234.59575,2.38298,1.13193,3.93192,1.66809,4.46806,1.48936,10.2468,3.57446,10.2468,9.88936,0,4.70638-3.99149,6.91063-6.61276,7.6851-1.13191-.65532-2.50212-1.25107-4.11063-1.78723M156.40486,264.15445c0-3.0383-.77446-5.60001-3.75319-7.74469l.11916-.23831c2.85957-1.13191,7.08936-3.99149,7.14893-10.0085,0-6.97021-4.05106-9.88934-9.47234-12.09361-7.50638-3.0383-9.11488-5.24254-9.11488-8.45956,0-2.97871,2.32339-4.82553,6.07658-4.82553,1.78723,0,3.93192.65533,5.71915,2.08511-1.25105.77446-1.72765,1.60851-1.72765,2.50212,0,1.72765,1.25105,2.32339,2.56171,2.32339,1.42979,0,2.74042-1.19148,2.74042-3.09787,0-2.62128-3.51489-5.48083-9.29361-5.48083-4.6468,0-9.53191,3.15744-9.53191,8.69786,0,2.68085.77448,5.18298,3.87233,7.32767v.17873c-2.91914,1.48936-7.38722,4.34892-7.38722,10.60423,0,6.37447,3.63403,9.17445,9.29361,11.31915,7.44681,2.79999,9.11488,5.24255,9.11488,8.45956,0,2.97873-2.32339,4.82553-6.07658,4.82553-2.32339,0-4.05106-.65533-5.77872-2.08511,1.25107-.77448,1.66809-1.60852,1.66809-2.50211,0-1.54892-1.13191-2.32339-2.44257-2.32339-1.66808,0-2.74042,1.1915-2.74042,3.09787,0,2.62128,3.51489,5.48083,9.29361,5.48083,4.6468,0,9.71063-3.09787,9.71063-8.04254M112.91554,241.87361v14.47658c-2.74042,1.48935-4.34893,1.8468-6.55318,1.8468-3.75319,0-9.17446-2.32339-9.17446-8.28085,0-5.65958,3.21702-8.04254,10.06808-8.04254h5.65956v.00002ZM121.97086,222.8098c-.29787-.41702-.65533-.71487-1.07234-1.01277-1.42979,1.37021-3.51489,2.56171-5.18298,2.56171-2.97872,0-5.59999-2.91914-7.80424-4.94469-1.60851,1.1915-3.21702,2.38298-4.8851,3.51489-5.30212,3.6936-10.2468,5.54041-10.2468,11.31914,0,3.75319,3.09787,6.85106,6.49361,7.02979v.2383c-5.06382,2.44257-7.08936,5.77872-7.08936,10.0085,0,5.30212,4.52766,9.53192,11.91488,9.53192,3.15745,0,5.24255-.7149,8.28085-2.32339,2.50212,0,5.95744,1.42978,8.10212,2.79999,1.31063-1.48935,2.5617-2.74042,3.99149-4.05106-.35745-.47659-.71489-.89362-1.19149-1.1915l-1.19149,1.1319c-1.25107-.65533-3.27659-1.1319-4.70638-1.25107v-14.35744h4.94468c.17872-.77448.2383-1.60851,0-2.38298h-5.06382c-.11915-2.0851.35744-2.74042.95319-4.46808-.2383-.47659-.95319-.89362-1.48936-1.07234l-3.57447,5.60001h-1.96595c-3.75319,0-5.95744.2383-7.80425.17873-3.39574-.35744-5.00425-2.56171-5.00425-7.38722,0-3.51489,1.48936-4.8851,6.13617-8.1617,3.27659,3.39574,5.71914,4.40851,8.34042,4.40851,1.90638,0,5.06382-.35745,9.11489-5.71915M53.22313,254.56294c0-.77446.05957-1.48936.05957-4.05106v-6.07658c0-1.19148-.05957-2.56171-.11915-3.63403.53617-.47659,1.72766-1.25105,2.3234-1.60851l.83404-.53616c1.90638,1.25107,3.33617,2.02554,4.6468,2.38298v11.79575l-3.27659,3.0383c-1.19149-.65533-2.91915-1.19148-4.46808-1.31064M66.44865,256.58847c-.59574-.89362-1.01277-1.37021-1.01277-2.85957v-12.68935c1.42979-.59573,2.68085-1.60851,3.39574-2.44255-.11915-.2383-.4766-.77448-.65532-.95319-.4766.17873-1.13192.29787-1.60851.29787-2.50212,0-5.18297-2.14468-6.97021-3.57446-3.57446,2.50212-7.14893,4.76595-10.90211,7.08936.05957,1.01277.11915,2.26382.11915,4.11064v6.91063c0,2.14468-.05957,3.51489-.11915,4.70639,3.15744.53616,5.65957,1.72766,7.38723,2.74042l4.94467-4.76595c.53617,1.13191,1.25106,2.68083,3.57446,4.22978,12.68935-2.68085,16.74041-9.7702,16.74041-20.25529,0-7.26807-3.87234-19.95741-19.77871-19.95741-17.75318,0-27.99997,12.98721-27.99997,27.70209,0,19.48083,12.27233,27.64252,26.39146,27.2851,8.1617-.23831,14.11914-2.74042,18.70637-8.69788-.35745-.41702-.83404-.7149-1.31064-1.01276-3.87234,4.46808-10.06808,7.32764-17.6936,7.32764-17.09785,0-22.99572-12.62979-22.99572-24.42551,0-16.50211,10.84254-25.85529,23.88934-25.85529,10.0085,0,18.11062,6.31488,18.11062,19.89786,0,10.66382-7.4468,14.2383-12.21275,15.19147"/>
        <path d="M246.47713,173.94481c0,3.9319,0,20.49361-.11916,22.87656.83405.17873,2.20425.17873,3.0383,0-.11916-2.38297-.11916-18.94466-.11916-22.87656-.83405-.17873-2.20425-.17873-2.8,0M249.27713,165.84268c0-3.93192,0-20.49361.11916-22.87659-.83406-.17873-2.20427-.17873-3.0383,0,.11916,2.38298.11916,18.94466.11916,22.87659.83405.17873,2.20425.17873,2.8,0M225.74638,195.92776c.95319-.2383,1.78723-.6553,2.50214-1.19148-2.20427-4.88512-20.19572-46.88506-22.34041-52.00847-.83406.29787-1.78725.71487-2.38298,1.19148,2.44257,4.88512,20.37445,46.88506,22.22125,52.00847M196.31662,197.00011c-.17871-5.77873-.17871-48.25526,0-54.03398-.83405-.17873-2.20425-.17873-3.03828,0,.17871,5.77873.17871,48.25526,0,54.034.83405.11916,2.20425.11916,3.03828,0M164.86249,195.92776c1.84682-5.1234,19.7787-47.12335,22.22125-52.00845-.59575-.47659-1.54893-.89362-2.38298-1.19148-2.14468,5.1234-20.13615,47.12335-22.34041,52.00847.71489.53616,1.54893.95319,2.50214,1.19148M144.96463,184.78734c1.42979,1.31062,2.8,2.62129,2.8,5.54042,0,3.09789-1.66809,6.49361-7.26808,6.49361-3.81276,0-6.13615-2.14467-6.13615-6.43404,0-3.33617,2.62128-5.00426,5.54042-6.31488,5.00426-2.26382,6.43404-5.36171,6.43404-8.10213,0-4.46806-3.51489-6.19572-6.67233-6.19572-3.0383,0-6.79147,1.19148-6.79147,7.44681.53616.05956,1.13191.05956,1.66809,0,.05959-3.2766.89362-5.89787,4.82553-5.89787,1.96596,0,4.11064.95319,4.11064,3.75319,0,2.26382-1.96596,3.57446-5.89787,4.88512-3.75319,1.25105-7.56595,3.87231-7.56595,9.17445,0,4.94467,3.75319,9.23402,10.48509,9.23402,5.89787,0,9.7702-3.63403,9.7702-7.86382,0-3.63403-2.44255-5.71915-4.58723-6.61276-.2383.23831-.47659.53616-.71489.89362M140.61571,158.75333c-.47659-.05959-.95319-.05959-1.42979,0-.53616,1.48936-1.42979,2.56171-3.2766,3.39575-.05959.41702-.05959.89362,0,1.31062,1.84682.83405,2.74042,1.90639,3.2766,3.39575.47659.05959.95319.05959,1.42979,0,.53616-1.48936,1.42979-2.56171,3.2766-3.39575.05959-.41702.05959-.89362,0-1.31062-1.84682-.83405-2.74042-1.90639-3.2766-3.39575M110.11475,184.60863c.4766.05959.95319.05959,1.42979,0,.53617-1.48936,1.42979-2.56171,3.27659-3.39575.05958-.41702.05958-.89362,0-1.31062-1.84681-.83405-2.74042-1.90639-3.27659-3.39575-.4766-.05959-.95319-.05959-1.42979,0-.53617,1.48936-1.42979,2.56171-3.27659,3.39575-.05958.41702-.05958.89362,0,1.31062,1.84681.83405,2.74042,1.90639,3.27659,3.39575M105.76581,158.57462c-1.42978-1.31065-2.79999-2.62129-2.79999-5.54044,0-3.09785,1.66808-6.49361,7.26808-6.49361,3.81276,0,6.13616,2.14468,6.13616,6.43405,0,3.33615-2.62128,5.00426-5.54042,6.31488-5.00426,2.26382-6.43404,5.36171-6.43404,8.10213,0,4.46806,3.5149,6.19572,6.67234,6.19572,3.0383,0,6.79148-1.19148,6.79148-7.44679-.53617-.05959-1.13191-.05959-1.66809,0-.05958,3.2766-.89361,5.89787-4.82553,5.89787-1.96596,0-4.11064-.95319-4.11064-3.75319,0-2.26382,1.96596-3.57448,5.89787-4.88512,3.75319-1.25105,7.56595-3.87231,7.56595-9.17445,0-4.94467-3.75318-9.23402-10.48509-9.23402-5.89787,0-9.77021,3.63403-9.77021,7.86382,0,3.63403,2.44256,5.71915,4.58724,6.61276.2383-.23831.4766-.53616.71488-.89362M88.07336,190.26817c-.41702-4.22977-1.31064-9.47232-2.0851-17.15742-.53617-.05956-1.13192-.05956-1.66809,0-.83404,7.6851-1.60851,13.22552-1.90638,17.09787-.35745,4.28934.83404,6.01701,2.91915,6.01701,2.3234,0,3.0383-2.56171,2.74043-5.95746M85.98826,158.87248c-.4766-.05959-.95319-.05959-1.42979,0-.53617,1.48936-1.42979,2.56169-3.27659,3.39575-.05957.41702-.05957.89362,0,1.31062,1.84681.83405,2.74043,1.90639,3.27659,3.39575.4766.05956.95319.05956,1.42979,0,.53617-1.48936,1.42978-2.56171,3.27659-3.39575.05958-.41702.05958-.89362,0-1.31062-1.84681-.83406-2.74042-1.90639-3.27659-3.39575M68.41495,184.48949c.47659.05959.95319.05959,1.42978,0,.53617-1.48936,1.42979-2.56171,3.27659-3.39575.05958-.41702.05958-.89362,0-1.31062-1.84681-.83405-2.74042-1.90639-3.27659-3.39575-.4766-.05959-.95319-.05959-1.42978,0-.53617,1.48936-1.42979,2.56171-3.27659,3.39575-.05958.41702-.05958.89362,0,1.31062,1.84681.83405,2.74042,1.90639,3.27659,3.39575M66.32984,153.09375c.41702,4.22978,1.31064,9.47234,2.08511,17.15746.53617.05956,1.13191.05956,1.66808,0,.83404-7.6851,1.60851-13.22552,1.90638-17.09787.35745-4.28935-.83404-6.01701-2.91915-6.01701-2.3234,0-3.0383,2.56171-2.74043,5.95744M50.4842,175.55331c-2.50213,0-3.57446,1.66809-3.57446,3.57446,0,2.14468,1.78723,3.51489,3.57446,3.51489.77447,0,1.42979-.17873,2.0851-.41702.05957.29787.05957.6553.05957,1.01277,0,2.74042-1.42978,6.01701-5.42127,9.41273.29787.47659.59574.89362,1.01276,1.25107,5.30212-3.81277,6.91063-7.80426,6.91063-11.617,0-4.22978-1.84681-6.73192-4.6468-6.73192M50.12675,166.7363c.47659.05959.95319.05959,1.42978,0,.53617-1.48936,1.42978-2.56169,3.27659-3.39575.05958-.41702.05958-.89362,0-1.31062-1.8468-.83405-2.74042-1.90639-3.27659-3.39575-.4766-.05956-.95319-.05956-1.42978,0-.53617,1.48936-1.42979,2.56171-3.27659,3.39575-.05957.41702-.05957.89362,0,1.31062,1.84681.83406,2.74042,1.90639,3.27659,3.39575M33.38634,184.48949c.47659.05959.95319.05959,1.42978,0,.53617-1.48936,1.42979-2.56171,3.27659-3.39575.05957-.41702.05957-.89362,0-1.31062-1.84681-.83405-2.74042-1.90639-3.27659-3.39575-.47659-.05959-.95319-.05959-1.42978,0-.53617,1.48936-1.42979,2.56171-3.27659,3.39575-.05957.41702-.05957.89362,0,1.31062,1.84681.83405,2.74042,1.90639,3.27659,3.39575M33.38634,168.40437c.47659.05959.95319.05959,1.42978,0,.53617-1.48935,1.42979-2.56169,3.27659-3.39574.05957-.41702.05957-.89362,0-1.31062-1.84681-.83406-2.74042-1.90639-3.27659-3.39575-.47659-.05959-.95319-.05959-1.42978,0-.53617,1.48936-1.42979,2.56169-3.27659,3.39575-.05957.41702-.05957.89362,0,1.31062,1.84681.83405,2.74042,1.90639,3.27659,3.39574"/>
        <path d="M242.66666,101.55708c-2.50211,0-3.57446,1.66808-3.57446,3.57446,0,2.14467,1.78723,3.5149,3.57446,3.5149.77448,0,1.42979-.17873,2.08511-.41704.05959.29788.05959.65533.05959,1.01277,0,2.74042-1.42979,6.01701-5.42128,9.41276.23831.4766.53616.89361,1.01277,1.25106,5.30212-3.81275,6.91063-7.80424,6.91063-11.61701,0-4.22978-1.84682-6.7319-4.6468-6.7319M252.3773,101.55708c-2.50214,0-3.57448,1.66808-3.57448,3.57446,0,2.14467,1.78723,3.5149,3.57448,3.5149.77446,0,1.42976-.17873,2.0851-.41704.05959.29788.05959.65533.05959,1.01277,0,2.74042-1.42979,6.01701-5.42126,9.41276.2383.4766.53615.89361,1.01276,1.25106,5.30212-3.81275,6.91066-7.80424,6.91066-11.61701,0-4.22978-1.84682-6.7319-4.6468-6.7319M225.33052,118.71451c2.50211,0,3.57446-1.66808,3.57446-3.57446,0-2.14469-1.78723-3.5149-3.57446-3.5149-.77448,0-1.42979.17873-2.08511.41702-.05959-.29787-.05959-.65531-.05959-1.01277,0-2.74042,1.42979-6.01701,5.42128-9.41274-.29788-.4766-.59575-.89361-1.01277-1.25107-5.30212,3.81277-6.91063,7.80426-6.91063,11.61701,0,4.22978,1.84682,6.73192,4.6468,6.73192M215.20285,118.71451c2.50214,0,3.57448-1.66808,3.57448-3.57446,0-2.14469-1.78723-3.5149-3.57448-3.5149-.77446,0-1.42976.17873-2.0851.41702-.05959-.29787-.05959-.65531-.05959-1.01277,0-2.74042,1.42979-6.01701,5.42126-9.41274-.29787-.4766-.59573-.89361-1.01276-1.25107-5.30212,3.81277-6.91064,7.80426-6.91064,11.61701,0,4.22978,1.84682,6.73192,4.6468,6.73192M192.08914,112.39961c-.41702,3.45532-1.07234,4.94469-1.07234,6.97022,0,1.42977.53616,2.68084,1.72765,2.68084,1.01277,0,1.54893-.95319,1.54893-2.56171,0-2.14467-.77446-3.39573-1.13193-7.08936l.17873-.11914c2.85957,2.20425,3.9319,3.51488,5.65958,4.52765.59575.35744,1.25105.59575,1.78723.59575.77446,0,1.54893-.77448,1.54893-1.48936,0-.65533-.53616-1.31063-1.66809-1.90638-1.96596-1.07234-3.2766-1.13192-6.85104-2.68084v-.17873c3.51488-1.48936,4.82553-1.66808,6.79147-2.62127,1.07234-.53617,1.66809-1.25107,1.66809-1.90638,0-.7149-.59575-1.48936-1.54893-1.48936-.53616,0-1.19148.23831-1.78723.59575-1.72765,1.01277-2.8,2.38298-5.60001,4.52765l-.17873-.11915c.35745-3.75319,1.13193-5.06382,1.13193-7.2085,0-1.60852-.53616-2.56171-1.54893-2.56171-1.19148,0-1.72765,1.25107-1.72765,2.68086,0,2.02552.65533,3.51488,1.07234,7.08934l-.17873.11915c-2.97873-2.0851-3.6936-3.39575-5.54042-4.52765-.65533-.41702-1.25105-.65533-1.72765-.65533-.89362,0-1.42979.7149-1.42979,1.42979,0,.83404.6553,1.60852,1.66808,2.14469,1.72765.95319,3.33617,1.1319,6.61276,2.50211v.17873c-3.39575,1.42979-4.94467,1.6085-6.67233,2.56169-1.01277.53617-1.66808,1.31063-1.66808,2.14469,0,.71488.6553,1.42979,1.42979,1.42979.47659,0,1.07233-.23831,1.72765-.65533,1.84682-1.13192,2.56171-2.44256,5.60001-4.52765l.17873.11914-.00002-.00002ZM158.96577,130.84019c0,.95319-1.13193,2.32339-2.14468,3.03828.17873.35745.35744.65533.65532,1.01277.41702-.17871.71489-.35744,1.01277-.47659.05957,1.07234.59573,1.90639,1.78723,1.90639,1.13191,0,1.66809-.83405,1.72766-1.90639.35744.11916.65532.29788,1.07234.47659.29787-.35744.47659-.6553.65532-1.01277-1.01277-.71487-2.14468-2.0851-2.14468-3.03828-.11914-8.99574-.11914-15.78722-.11914-26.98721,2.44255,0,5.59999,0,8.28085.11915.95319,0,2.32339,1.42979,3.03828,2.44254.41702-.17871.7149-.35744,1.01277-.65531-.17873-.41702-.35744-.89361-.47659-1.31063,1.07234-.05958,1.90639-.53617,1.90639-1.72767,0-1.1319-.83405-1.6085-1.90639-1.66808.11916-.4766.29787-.95319.47659-1.37021-.29787-.29787-.59575-.4766-1.01277-.65533-.71487,1.01277-2.0851,2.44256-3.03828,2.44256-2.8.11915-5.24255.11915-8.28085.11915,0-4.17021,0-7.20851.11914-11.19999,0-.95319,1.13191-2.3234,2.14468-3.0383-.17873-.35744-.35744-.65531-.65532-1.01275-.41702.17871-.89362.35744-1.37021.47658-.05959-1.07233-.29787-1.90637-1.42979-1.90637-1.19148,0-1.42979.83404-1.48936,1.90637-.41702-.11914-.89362-.29787-1.31062-.47658-.29787.35744-.47659.65531-.65532,1.01275,1.01276.7149,2.14468,2.08511,2.14468,3.0383.11914,3.99148.11914,7.02978.11914,11.19999-2.62128,0-5.54042,0-8.28084-.11915-.95319,0-2.32339-1.42979-3.0383-2.44256-.41702.17873-.71489.35746-1.01277.65533.17873.41702.35745.89361.47659,1.37021-1.07234.05958-1.90639.53617-1.90639,1.66808,0,1.1915.83405,1.66809,1.90639,1.72767-.11914.41702-.29787.89361-.47659,1.31063.29787.29787.59575.4766,1.01277.65531.71489-1.01275,2.0851-2.44254,3.0383-2.44254,2.74042-.11915,5.60001-.11915,8.28084-.11915,0,11.31914,0,17.45529-.11914,26.98721M117.44354,118.26999c5.06382-2.91915,5.77757-3.45532,7.98183-4.76596,1.37136-.89361,2.02553-1.66808,2.02553-2.74042,0-1.25106-1.07234-2.14467-2.02553-2.68084-1.60851-.95319-2.85843-1.60852-7.80425-4.28936-.23715.23831-.53616.65533-.65417,1.07234,2.85843,2.38298,4.6468,3.75319,7.26694,6.13617-2.44256,2.3234-4.17021,3.45531-7.4468,6.13615.12029.4766.35744.83406.65646,1.13192M127.57005,118.26999c5.06383-2.91915,5.77872-3.45532,7.98412-4.76596,1.37021-.89361,2.02438-1.66808,2.02438-2.74042,0-1.25106-1.0712-2.14467-2.02438-2.68084-1.60965-.95319-2.86072-1.60852-7.80539-4.28936-.2383.23831-.53503.65533-.65532,1.07234,2.8607,2.38298,4.6468,3.75319,7.26807,6.13617-2.44141,2.3234-4.17021,3.45531-7.4468,6.13615.11915.4766.35745.83406.65533,1.13192M109.57972,103.79341c-5.06382,2.91915-5.77872,3.45532-7.98297,4.76596-1.37021.89361-2.02553,1.66808-2.02553,2.74042,0,1.25106,1.07234,2.14467,2.02553,2.68084,1.60851.95319,2.85957,1.60852,7.80425,4.28936.2383-.23831.53616-.65533.65532-1.07234-2.85957-2.38298-4.6468-3.75319-7.26808-6.13617,2.44256-2.3234,4.17021-3.45531,7.4468-6.13615-.11914-.4766-.35744-.83406-.65532-1.13192M99.45206,103.79341c-5.06382,2.91915-5.77872,3.45532-7.98297,4.76596-1.37021.89361-2.02553,1.66808-2.02553,2.74042,0,1.25106,1.07234,2.14467,2.02553,2.68084,1.60851.95319,2.85957,1.60852,7.80424,4.28936.2383-.23831.53617-.65533.65532-1.07234-2.85957-2.38298-4.6468-3.75319-7.26807-6.13617,2.44255-2.3234,4.17021-3.45531,7.4468-6.13615-.11915-.4766-.35745-.83406-.65533-1.13192M72.82231,122.20191c-2.02553,0-3.39574-1.54894-3.39574-3.33617,0-1.96596,1.31064-3.5149,3.27659-3.5149,2.38297,0,3.39574,1.66809,3.39574,3.63404,0,1.90638-1.37021,3.21703-3.27659,3.21703M72.70316,124.46574c2.97872,0,5.71914-2.14469,5.71914-5.71915,0-3.27659-2.14468-5.6-5.6-5.6-2.97872,0-5.71914,2.38298-5.71914,5.83828,0,3.33617,2.5617,5.48086,5.6,5.48086M59.35849,109.09554c-2.02553,0-3.39574-1.54894-3.39574-3.33617,0-1.96596,1.31063-3.5149,3.27659-3.5149,2.38298,0,3.39574,1.66809,3.39574,3.63405,0,1.90637-1.37021,3.21702-3.27659,3.21702M59.23934,111.35937c2.97872,0,5.71914-2.14469,5.71914-5.71915,0-3.27659-2.14468-5.6-5.6-5.6-2.97872,0-5.71914,2.38298-5.71914,5.8383,0,3.33615,2.5617,5.48084,5.59999,5.48084M54.83084,122.85722c.59574.65533,1.31064,1.1915,2.02553,1.72765,6.61276-7.80424,13.28509-15.42976,20.13615-22.99571-.59574-.65533-1.31064-1.1915-2.02553-1.72767-6.55318,7.86384-13.22552,15.48935-20.13615,22.99573M26.77244,117.55509l2.8-10.84253h7.62552l-2.8,10.84253s-7.62553,0-7.62552,0ZM17.41925,117.55509c-.17872.53617-.2383,1.13192-.29787,1.66809h6.85106l-2.91915,11.43829c.53617.05959,1.90638.05959,2.38298,0l2.91915-11.43828h7.62553l-2.91915,11.43828c.53617.05959,1.90638.05959,2.38298,0l2.91914-11.43828h8.04255c.17872-.53617.2383-1.13192.29787-1.66809h-7.9234l2.8-10.84253h6.61276c.17872-.53617.2383-1.13192.29787-1.66809h-6.49361l2.97872-11.67659c-.53617-.05956-1.90638-.05956-2.38298,0l-2.97872,11.67659h-7.62552l2.97872-11.67659c-.53617-.05956-1.90638-.05956-2.38298,0l-2.97872,11.67659h-8.39999c-.17872.53617-.2383,1.13192-.29787,1.66809h8.28084l-2.8,10.84253s-6.97021,0-6.9702,0Z"/>
        <path d="M204.83714,46.59729c.05959-.53619.05959-1.01277,0-1.54896-4.52765-.71488-6.67233-4.28934-6.67233-6.61276,0-4.70635,3.6936-5.36169,3.6936-10.18722,0-3.69361-2.32339-7.14892-8.93614-7.02977-.05959.47658-.05959,1.01277,0,1.48935,5.24254,0,6.61275,2.8,6.61275,5.48084,0,3.33619-4.11063,5.48088-4.11063,9.77022,0,3.45531,2.02554,6.55319,5.30212,7.74468v.23827c-3.2766,1.1915-5.30212,4.28938-5.30212,7.74468,0,4.28934,4.17021,6.55319,4.17021,9.88934,0,2.68088-1.42979,5.36172-6.67232,5.36172-.05959.47658-.05959,1.01277,0,1.48935,6.61275.11915,8.93614-3.93192,8.93614-7.02977,0-4.82553-3.6936-5.8383-3.6936-10.54468,0-2.32338,2.14468-5.54042,6.67233-6.2553M169.0925,45.04833c-.05959.53619-.05959,1.01277,0,1.54896,4.52765.71488,6.67232,4.28934,6.67232,6.61276,0,4.70638-3.6936,5.36169-3.6936,10.18722,0,3.69361,2.32339,7.14892,8.93617,7.02977.05959-.47658.05959-1.01277,0-1.48935-5.24255,0-6.61276-2.8-6.61276-5.48084,0-3.33619,4.11066-5.48088,4.11066-9.77022,0-3.45531-2.02554-6.55319-5.30212-7.74468v-.23827c3.2766-1.1915,5.30212-4.28938,5.30212-7.74468,0-4.28934-4.17023-6.55319-4.17023-9.88934,0-2.68088,1.42979-5.36172,6.67233-5.36172.05959-.47658.05959-1.01277,0-1.48935-6.61276-.11915-8.93617,3.93192-8.93617,7.02977,0,4.82553,3.6936,5.8383,3.6936,10.54468,0,2.32342-2.14467,5.54042-6.67232,6.2553M140.3192,67.21004c-.05957.65531-.05957,1.31062,0,1.96592,4.46808-.05954,8.99574-.05954,13.46382,0-.17873-15.96591-.17873-32.05101,0-48.01696-4.46808.05958-8.99574.05958-13.46382,0-.05957.65531-.05957,1.31065,0,1.96596,3.57446-.05958,7.20851-.05958,10.78297,0,.17873,15.01276.17873,29.07232,0,44.08508-3.57446.05954-7.2085.05954-10.78297,0M131.74049,23.12496c.05959-.65531.05959-1.31065,0-1.96596-4.46808.05958-8.99573.05958-13.46382,0,.17872,15.96595.17872,32.05105,0,48.01696,4.46808-.05954,8.99573-.05954,13.46382,0,.05959-.65531.05959-1.31062,0-1.96592-3.57446.05954-7.2085.05954-10.78296,0-.17873-15.01276-.17873-29.07232,0-44.08508,3.57446-.05958,7.2085-.05958,10.78296,0M102.96719,44.92921c0-11.25957-5.42127-19.48087-12.27233-24.30636-.41702.35742-.77447.77446-1.07234,1.25104,6.67234,6.25534,10.36595,13.22553,10.36595,22.99575,0,9.82976-2.68085,16.9191-10.66382,24.00848.23829.47658.59574.95319.95319,1.31062,7.56595-5.54042,12.68935-13.99999,12.68935-25.25952M68.35446,45.88237c0,11.25957,5.42127,19.48087,12.27233,24.30636.41702-.35742.77447-.77446,1.07234-1.25104-6.67234-6.25534-10.36595-13.22553-10.36595-22.99575,0-9.82976,2.68085-16.9191,10.66382-24.00848-.2383-.47658-.59574-.95319-.95319-1.31062-7.56595,5.54042-12.68935,13.99999-12.68935,25.25952"/>
        <rect width="272.09384" height="390.1416" fill="none"/>
      </g>
    </g>
  </g>
</svg>