<?xml version="1.0" encoding="UTF-8"?>
<svg xmlns="http://www.w3.org/2000/svg" baseProfile="tiny" version="1.2" viewBox="0 0 598.10529 391.5816">
  <!-- Generator: Adobe Illustrator 28.6.0, SVG Export Plug-In . SVG Version: 1.2.0 Build 709)  -->
  <g>
    <g id="b">
      <g id="c">
        <path d="M522.07172,234.60262c-9.03516,0-17.61285,3.20235-21.04388,14.06738.8006.34311,2.05865.6862,3.08795.80058,2.51614-6.40465,7.54834-10.86505,15.43982-10.86505,7.43396,0,12.58057,6.17592,12.58057,13.15244,0,6.86215-1.71552,10.29321-11.20813,13.15244-5.60406,1.71555-8.69202,3.43106-12.12311,6.17593.34308,1.25806.8006,2.05865,1.8299,2.63049,3.88855-2.74484,6.51904-4.34601,11.09381-4.34601,6.06152,0,11.77997,3.20233,11.77997,16.46912,0,8.92078-3.20233,16.69788-14.06738,16.69788-4.80347,0-11.09375-2.05865-11.09375-5.26096s6.4046-2.28738,6.4046-8.12021c0-2.9736-2.28735-5.26096-5.94717-5.26096-3.54544,0-6.9765,2.63049-6.9765,7.66272,0,4.91788,3.08795,14.18176,17.72714,14.18176,9.83575,0,24.9325-5.26096,24.9325-20.58643,0-8.92078-5.14667-16.5835-17.95593-18.98523l.11432-.57184c9.83569-1.25806,16.46918-7.09088,16.46918-14.41048,0-9.37827-8.34894-16.5835-21.04388-16.5835M468.08954,302.37259c-6.1759,0-13.49554-3.77417-13.49554-6.9765s6.40466-2.28738,6.40466-8.12021c0-2.9736-2.28741-5.26096-5.94717-5.26096-3.54544,0-6.97653,2.63049-6.97653,7.66272,0,7.66272,6.40466,16.01166,21.04388,16.01166,11.89438,0,23.78873-8.12021,23.78873-21.27261,0-14.63922-12.8093-19.90021-19.90021-19.90021-4.91785,0-9.14951,2.173-11.78,6.06155l-.45746-.11438,4.91785-24.58932c5.71844.22874,12.00873.57184,18.75647.22874l3.88858-13.03806c-.8006-.11436-2.28741-.11436-3.43109,0l-1.14368,3.20233c-6.63339.22874-12.80936.22874-19.67148-.34309l-8.12018,42.20215c1.14368.34311,2.28735.57184,3.31668.45749,3.88855-8.46329,8.23459-10.52194,12.12311-10.52194,7.66272,0,10.9794,7.09088,10.9794,15.43982,0,11.32251-4.57474,18.87088-14.29611,18.87088M413.87866,236.49606l-5.48969,15.55418c1.02933.34309,2.173.45747,3.20233.57184l2.63049-6.06155c9.14948.34309,18.18466.34309,27.44855,0-4.00293,7.54834-14.98233,27.90602-21.7301,40.60097-1.60117,3.08795-2.05865,4.23166-2.05865,5.9472,0,2.51611,2.05865,4.00293,4.23163,4.00293,3.08795,0,5.94717-2.28738,5.94717-5.60406,0-2.85922-2.40173-2.85922-2.40173-5.48972,0-.57184.11435-1.25806.45746-1.8299l24.24625-45.86197c-.22876-.6862-.57187-1.37244-1.02933-1.82991-11.78003.34311-23.67438.34311-35.45441,0M373.27899,276.52518h25.73303c.22873-1.25806.22873-2.63049,0-3.88855h-7.77713v-32.25204h7.20526c.22873-1.25807.22873-2.63049,0-3.88855h-24.58932c-.22873,1.25807-.22873,2.63049,0,3.88855h7.31964v32.25204h-7.89145c-.22876,1.25806-.22876,2.63049,0,3.88855"/>
        <path d="M537.51062,137.95795c1.6012.57184,6.4046.57184,7.66266,0v-17.15534h5.71844c.57184-1.82991.57184-7.09088,0-8.92078h-5.71844v-27.79165c-1.25806-.57184-6.06152-.57184-7.66266,0v27.79165h-15.32544c-2.05865,0-4.23169,0-6.29028.22875,7.09088-13.2668,13.03809-24.36059,26.30487-44.71827-.91498-.80059-1.94434-1.48679-3.08795-1.82991-14.41052,21.15827-22.07324,35.45439-29.39282,49.75051-.57187,1.25805-.45749,3.88854,0,5.4897h27.79163v17.15534ZM467.06061,100.44491c-1.48682-3.20232-1.71555-4.34602-1.71555-6.29029,0-3.08795,2.51608-9.60699,11.32254-9.60699,7.66272,0,10.75067,5.60408,10.75067,10.75069s-2.74487,7.89145-11.09381,13.38117c-4.34601,2.85922-10.63632,6.86213-15.32544,11.4369-.45746.45748-.45746,2.51611,0,3.3167h34.42505l6.51904-14.06739c-.91495-.45748-1.94427-.91495-3.31668-1.14368l-2.85922,5.26097h-10.06448c-4.0029,0-7.31958.11436-9.37827.22873l-.22873-.68621c2.28741-2.17302,5.83282-4.11729,8.23459-5.60408,3.08795-1.94427,13.38116-6.86213,13.38116-14.98232,0-8.57767-9.60699-11.20817-18.87088-11.20817-8.0058,0-16.69788,4.00293-16.69788,13.38117,0,2.74486.91495,5.37535,2.17303,7.09088,1.14368-.11436,1.8299-.45748,2.74487-1.25807M432.29373,121.37443c-7.31964,0-12.00876-4.57475-12.00876-18.0703,0-14.52485,5.37534-18.29903,12.00876-18.29903,5.94717,0,12.00873,3.65981,12.00873,18.29903,0,13.49555-4.68909,18.0703-12.00873,18.0703M432.29373,81.80277c-11.89438,0-21.61575,9.03515-21.61575,22.18759,0,14.7536,11.78003,20.58641,21.50137,20.58641,9.26385,0,21.61572-6.51904,21.61572-21.73009,0-14.06739-10.06445-21.0439-21.50134-21.0439M368.36276,100.44491c-1.48682-3.20232-1.71555-4.34602-1.71555-6.29029,0-3.08795,2.51608-9.60699,11.32254-9.60699,7.66272,0,10.75067,5.60408,10.75067,10.75069s-2.74487,7.89145-11.09381,13.38117c-4.34601,2.85922-10.63632,6.86213-15.32544,11.4369-.45746.45748-.45746,2.51611,0,3.3167h34.42505l6.51904-14.06739c-.91495-.45748-1.94427-.91495-3.31668-1.14368l-2.85922,5.26097h-10.06448c-4.0029,0-7.31964.11436-9.37827.22873l-.22873-.68621c2.28735-2.17302,5.83282-4.11729,8.23459-5.60408,3.08795-1.94427,13.38116-6.86213,13.38116-14.98232,0-8.57767-9.60699-11.20817-18.87088-11.20817-8.00586,0-16.69788,4.00293-16.69788,13.38117,0,2.74486.91495,5.37535,2.17303,7.09088,1.14368-.11436,1.8299-.45748,2.74487-1.25807"/>
        <path d="M482.88254,30.48785c-.82599-1.7791-.95306-2.41449-.95306-3.49461,0-1.71554,1.39786-5.33723,6.29031-5.33723,4.25708,0,5.97263,3.11339,5.97263,5.97262s-1.52493,4.38412-6.16321,7.43395c-2.41446,1.58846-5.90906,3.8123-8.51416,6.35383-.25412.25417-.25412,1.39785,0,1.84263h19.12506l3.62164-7.8152c-.5083-.25417-1.08011-.5083-1.84259-.63538l-1.58847,2.92275h-5.59137c-2.22385,0-4.06647.06356-5.21014.12708l-.12708-.38121c1.27078-1.20724,3.24045-2.2874,4.57477-3.11339,1.71555-1.08016,7.43399-3.8123,7.43399-8.3235,0-4.76537-5.33722-6.22679-10.48383-6.22679-4.44769,0-9.27661,2.22384-9.27661,7.43399,0,1.52493.5083,2.98631,1.20724,3.93938.63538-.06352,1.0166-.25417,1.5249-.69891M456.6412,43.19551h14.29611c.12708-.69894.12708-1.46141,0-2.16032h-4.32059v-17.91781h4.0029c.12708-.69891.12708-1.46137,0-2.16028h-13.66074c-.12708.69891-.12708,1.46137,0,2.16028h4.06647v17.91781h-4.38416c-.12708.69891-.12708,1.46137,0,2.16032M436.88211,42.11536c-4.06647,0-6.67151-2.54153-6.67151-10.03905,0-8.06937,2.98627-10.16613,6.67151-10.16613,3.30396,0,6.67151,2.03319,6.67151,10.16613,0,7.49751-2.6051,10.03905-6.67151,10.03905M436.88211,20.13108c-6.608,0-12.00876,5.01954-12.00876,12.32645,0,8.19646,6.54443,11.4369,11.94519,11.4369,5.14664,0,12.00876-3.62169,12.00876-12.07228,0-7.8152-5.59137-11.69106-11.94519-11.69106"/>
        <path d="M490.10013,200.0032c-3.43106,0-7.4975-2.09676-7.4975-3.87584s3.55814-1.27077,3.55814-4.5112c0-1.65199-1.27078-2.92278-3.30396-2.92278-1.9697,0-3.87585,1.46136-3.87585,4.25706,0,4.25706,3.55817,8.89536,11.69107,8.89536,6.60797,0,13.21597-4.5112,13.21597-11.81812,0-8.13292-7.1163-11.05568-11.05569-11.05568-2.73215,0-5.08307,1.20724-6.54443,3.36754l-.25412-.06354,2.73215-13.66074c3.17691.12708,6.67151.31769,10.42026.12708l2.16031-7.24338c-.44479-.06352-1.27078-.06352-1.90616,0l-.63538,1.77908c-3.68521.12706-7.1163.12706-10.92859-.19063l-4.5112,23.44565c.63538.19061,1.27078.31769,1.84259.25415,2.16031-4.70183,4.57477-5.84554,6.73508-5.84554,4.25708,0,6.09967,3.93938,6.09967,8.57767,0,6.29028-2.54153,10.48383-7.94229,10.48383M465.19312,193.77646c.88956.31769,3.55817.31769,4.25708,0v-9.53075h3.17691c.31769-1.01662.31769-3.93938,0-4.95599h-3.17691v-15.4398c-.69891-.31769-3.36752-.31769-4.25708,0v15.4398h-8.5141c-1.14368,0-2.35092,0-3.4946.12708,3.93939-7.37045,7.24335-13.53365,14.6138-24.84348-.5083-.44476-1.08017-.82599-1.71555-1.01662-8.0058,11.75459-12.26288,19.69688-16.32935,27.63916-.31769.69893-.25412,2.16032,0,3.04985h15.43979v9.53075ZM430.75537,161.81668c-5.01953,0-9.78491,1.77908-11.69107,7.81522.44479.19061,1.14368.38123,1.71555.44476,1.39786-3.55814,4.19351-6.03613,8.57767-6.03613,4.13,0,6.9892,3.43108,6.9892,7.30692,0,3.8123-.95306,5.71844-6.22675,7.30692-3.1134.95306-4.82892,1.90614-6.73508,3.43108.19061.69891.44479,1.14368,1.01663,1.46136,2.16028-1.52492,3.62164-2.41444,6.16318-2.41444,3.36755,0,6.54449,1.77905,6.54449,9.14951,0,4.95598-1.77911,9.2766-7.81525,9.2766-2.66858,0-6.16318-1.14371-6.16318-2.92278s3.55814-1.27077,3.55814-4.51122c0-1.65199-1.27078-2.92278-3.30399-2.92278-1.96967,0-3.87582,1.4614-3.87582,4.25706,0,2.73215,1.71555,7.87875,9.84845,7.87875,5.46429,0,13.85135-2.92278,13.85135-11.4369,0-4.95598-2.85922-9.21304-9.97552-10.54736l.06357-.31769c5.46429-.69893,9.14948-3.93936,9.14948-8.00583,0-5.21013-4.63828-9.21304-11.69104-9.21304"/>
        <path d="M504.79843,347.42062c2.54153,0,6.03613,1.27075,6.03613,9.91196,0,4.51123-.31769,8.95889-5.65488,8.95889-2.9863,0-5.71844-1.33429-5.71844-9.65781,0-6.41736,1.71555-9.21304,5.33719-9.21304M502.82877,378.23669c5.84552,0,13.78781-3.62167,13.78781-18.61673,0-7.17984-3.43109-13.97842-11.88168-13.97842-5.65494,0-11.18274,4.82892-11.18274,11.50043,0,6.22675,5.40076,10.92859,11.18274,10.92859,2.28735,0,4.44769-.82599,6.09967-1.84262-.19061,4.32059-1.33429,10.22968-7.87872,10.22968-1.65201,0-4.0029-.57184-4.0029-1.90616,0-.69891.31769-1.20724.31769-1.9697,0-1.14368-.88956-1.9697-2.28741-1.9697-1.77905,0-2.66861,1.08014-2.66861,2.79568,0,2.35092,2.66861,4.82892,8.51416,4.82892M473.91885,367.87994c-2.85922,0-6.03613-1.90616-6.03613-9.40366,0-7.87875,2.92276-9.27658,6.03613-9.27658s6.03613,1.27078,6.03613,9.27658c0,7.49753-3.04984,9.40366-6.03613,9.40366M473.85532,347.42062c-2.79568,0-5.90909-1.77908-5.90909-9.27661,0-8.19644,3.30399-9.59427,5.97263-9.59427,2.54153,0,5.97263,1.52493,5.97263,9.59427,0,7.49753-2.9863,9.27661-6.03613,9.27661M474.04593,326.77066c-5.27368,0-11.81815,3.43106-11.81815,11.75458,0,5.90906,4.51123,8.83182,8.89536,9.46719v.19061c-5.97256.5083-9.14951,5.33722-9.14951,10.6109,0,7.30692,5.59137,10.86505,12.00873,10.86505s11.94522-4.76538,11.94522-11.56396-5.5914-9.53076-9.14954-10.03906v-.19061c5.46429-1.46136,9.02246-4.38416,9.02246-10.35675,0-6.41736-5.59137-10.73798-11.75458-10.73798M436.05002,346.5946l-3.04987,8.6412c.57187.19061,1.20724.25415,1.77911.31769l1.46136-3.36752c5.08307.19061,10.10257.19061,15.24918,0-2.22385,4.19354-8.32355,15.50336-12.07227,22.55609-.88956,1.71552-1.14368,2.35092-1.14368,3.30399,0,1.39783,1.14368,2.22385,2.35089,2.22385,1.71555,0,3.30399-1.27078,3.30399-3.11337,0-1.58847-1.33429-1.58847-1.33429-3.04984,0-.31769.06351-.69891.25412-1.0166l13.47012-25.47885c-.12708-.38123-.31769-.76245-.57181-1.0166-6.54449.19061-13.15244.19061-19.69687,0M415.21069,367.68933c-2.54153,0-6.03613-1.27078-6.03613-9.91199,0-4.51123.31769-8.95889,5.65494-8.95889,2.9863,0,5.71844,1.33432,5.71844,9.65781,0,6.41736-1.71555,9.21304-5.33722,9.21304M417.18042,336.87326c-5.84552,0-13.78781,3.6217-13.78781,18.61673,0,7.17984,3.43106,13.97842,11.88168,13.97842,5.65488,0,11.18274-4.82892,11.18274-11.50043,0-6.22675-5.40076-10.92859-11.18274-10.92859-2.28741,0-4.44769.82599-6.0997,1.84262.19061-4.32059,1.33432-10.22968,7.87878-10.22968,1.65198,0,4.0029.57184,4.0029,1.90616,0,.69891-.31769,1.20724-.31769,1.9697,0,1.14368.88956,1.9697,2.28735,1.9697,1.77911,0,2.66861-1.08014,2.66861-2.79568,0-2.35092-2.66861-4.82892-8.5141-4.82892"/>
        <rect x="326.01147" width="272.09387" height="390.1416" fill="none"/>
        <path d="M148.06297,358.26508c.65532.05957,1.25105.05957,1.90637-.11914-.47659-2.79999.95319-3.45532,2.02554-3.45532,1.84682,0,2.62128,1.54892,2.62128,6.61276,0,4.11063-1.37021,6.55319-6.25531,7.62552-.11914.53616-.11914,1.07233,0,1.60852,2.0851,0,4.11064.7149,6.01701,1.96597.95319-.77448,1.72766-1.78723,2.32341-3.0383-1.60852-.83405-1.84682-.77448-2.85957-.95319v-.23831c3.57446-2.26382,3.99149-4.64679,3.99149-7.9234,0-1.54895-.05959-2.91916-.35745-4.11063.95319-.95319,1.72766-1.31064,2.8-1.31064,1.66809,0,2.62128,2.08511,2.62128,6.31488,0,2.50214-.05959,4.82553-1.48936,6.43405-1.90639,2.08511-2.0851,2.91916-1.84682,4.46808.29787.05957,1.48936.05957,1.90639,0-.29787-1.72766.29787-2.56171,1.37021-2.56171,1.31064,0,1.42978,1.90637,1.42978,2.56171,1.13193.05957,2.26382,0,3.39575-.17871.05959-.29788.05959-.7149.05959-1.01276,0-2.50214-1.72765-3.45532-3.6936-3.27658v-.17871c1.42979-1.66809,2.44257-5.24255,2.44257-7.32764,0-1.54895-.17873-2.85956-.47659-3.93192,1.1319-.83405,2.26382-1.54892,3.45531-1.54892,1.42979,0,2.62128.65533,4.05106,3.45532l-2.44254,3.45532c.17871,2.97873.17871,6.0766,0,9.17447,1.19148.47659,2.50211,1.01276,3.51488,1.72766,1.07234-1.07233,1.60852-1.54892,2.56171-3.09787-.41704-.29788-1.90639-1.01276-2.85957-1.60852-.11916-2.74042-.11916-4.05106-.11916-6.91064l2.44257-3.93192c-1.48936-3.45532-3.09789-4.8851-5.71915-4.8851-1.54893,0-3.33617.59573-5.65958,2.50214-.95319-1.48935-2.32339-2.14468-4.05106-2.14468-1.78723,0-3.21703.83405-4.34892,2.14468-.77448-1.25107-2.02553-2.02554-4.11063-2.02554-2.38298,0-5.48085,1.66809-4.6468,5.71915M132.3949,371.96719c-.11916-.35745-.11916-.47659-.11916-.59573,0-.53616.35745-1.1915,1.31064-1.1915,2.38297,0,4.11063,2.26382,7.44679,2.26382,2.14467,0,3.87233-1.90637,3.87233-4.05106-.53616-.23831-1.13191-.29788-1.66809-.23831-.2383,1.1915-.71489,1.72766-1.66809,1.72766s-2.0851-.53616-3.33617-1.07233c1.66809-1.66809,2.14468-2.85956,2.14468-4.1702,0-2.56171-1.54893-4.22977-1.54893-5.95743,0-.59573.17873-1.1319.53616-1.72766,1.19148.29788,2.38298.53616,3.57446.53616,2.14467,0,3.75317-1.90637,3.75317-3.81277,0-1.1319-.71489-1.72766-.89362-1.90637-.53616.17871-1.01276.35745-1.42979.65533.2383.53616.2383.77448.2383,1.01276,0,.47659-.41702.95319-1.01276.95319-2.14468,0-5.42126-1.60852-9.23404-1.60852-3.87233,0-5.71915,3.27658-5.71915,5.42126,0,1.1915.47659,2.14468,1.13191,2.79999.53616-.23831,1.07234-.65533,1.48936-1.1319-.47659-.53616-.53616-1.1915-.53616-1.72766,0-1.1319.77448-2.38297,2.8-2.38297,1.19148,0,2.56171.35745,3.93192.7149-.95319,1.1915-1.60851,2.32339-1.60851,3.45532,0,2.32339,1.42979,3.27658,1.42979,5.48087,0,1.25107-.29787,1.96597-.83405,2.74042-.71489-.23831-1.42978-.41702-2.14467-.41702-2.38298,0-3.87234,1.25107-3.87234,3.15744,0,.53616.17873,1.07233.35745,1.37021.53616,0,1.07234-.05957,1.60851-.29788M110.23435,361.77997c0-.47659-.05958-1.07233-.11914-1.60852l2.02553-1.07233c.41702.59573.65532,1.07233.95319,1.54895-1.01277.7149-1.72766,1.07233-2.85957,1.42978,0,0,0-.29788,0-.29788ZM104.69394,358.80124c.17872.41702.4766.77448.77447,1.07233.41702-.23831.77446-.47659,1.13191-.47659.77446,0,1.48936,1.01276,1.48936,2.56171,0,1.60852-.59574,2.85956-2.74042,3.6936-.05958.23831-.05958.95319,0,1.1915,1.07234,0,3.0383.77448,4.05106,1.42978.53616-.59573,1.01276-1.1915,1.42978-1.90637-.83404-.47659-1.90637-.59573-2.26383-.65533.4766-.53616.95319-1.1915,1.25107-1.96597.41702-.05957.77446-.11914,1.13191-.23831.95319,2.74042,2.02553,3.6936,2.97872,4.52765,1.19149-.83405,2.3234-1.90637,2.74042-2.44254-.11914-.35745-.71489-1.07233-.95319-1.1915l-1.07234.83405c-1.01277-1.1319-.89361-1.1319-1.60851-2.62128.95319-.53616,1.84681-1.1915,2.91914-2.08511-.71488-1.25107-1.48936-2.56171-2.44255-3.81277l-3.81277,2.08511c-.41702-.89362-1.07234-1.48935-2.14467-1.48935-.71489,0-1.66809.23831-2.85957,1.48935M110.71095,370.89484c-5.18298,0-8.57871-3.93192-8.57871-8.63831,0-4.94467,3.09787-8.57874,8.22127-8.57874,5.89786,0,8.57871,3.99149,8.57871,8.93616,0,4.8851-3.57447,8.28085-8.22127,8.28085M110.35351,372.86081c6.13616,0,10.84254-3.93192,10.84254-10.72339,0-6.25531-4.05106-10.54468-10.4851-10.54468-6.85106,0-10.90212,4.58722-10.90212,11.02127,0,6.31488,4.8851,10.2468,10.54467,10.2468"/>
        <path d="M195.12675,314.35391h3.03828c1.25105,5.89786,6.07658,9.65106,12.27234,9.47232,6.31488-.11914,9.29361-3.63403,9.94891-8.99573-.53616-.17871-1.1319-.29788-1.78723-.35745-1.48936,5.89786-4.76595,6.91064-7.74467,6.91064-4.34894,0-6.49361-2.74042-7.14894-7.08936,2.50214,0,5.06381.05957,8.1617.05957.2383-.95319.2383-1.1915.29787-2.08511-3.33617.05957-6.01701.05957-8.69786.05957-.05959-.59573-.05959-1.19147-.05959-1.78723v-.83405c3.09785,0,6.13617,0,9.59148.05957.23831-.95319.23831-1.19147.29788-2.08511-3.51489.05957-6.61276.05957-9.7702.05957.53616-6.91064,3.09785-8.87659,6.79147-8.87659,2.44257,0,3.87234.59573,5.54042,2.08511-1.31062.95319-1.54893,2.08511-1.54893,2.85956,0,1.8468,1.31065,2.56171,2.74042,2.56171,1.54893,0,2.68086-1.31064,2.68086-3.45532,0-2.85956-3.09789-6.13617-9.41277-6.13617-4.52765,0-10.84254,2.44254-12.21275,10.9021h-2.62128c-.23831.83405-.35744,1.66809-.35744,2.08511h2.8c-.05959.41702-.05959.95319-.05959,1.42978,0,.35745,0,.77448.05959,1.07233h-2.44257c-.23831.83405-.35744,1.66809-.35744,2.08511M160.93103,314.41348c2.74042,0,6.67233-.05957,10.72339-.05957v6.7319h-5.24255v1.8468h16.02551v-1.8468h-5.89786v-6.7319c3.63403,0,7.08934.05957,9.59148.05957.29787-.89362.29787-1.1915.35744-2.08511-2.50211,0-6.01701.05957-9.71063.05957l1.72765-2.56171c2.74043,0,5.65958.05957,7.62553.05957.29787-.89362.29787-1.19147.35744-2.08511-1.78723,0-4.28935.05957-6.61276.05957l5.36171-7.86383h2.44257v-1.8468h-9.71063v1.8468h4.46806l-6.85104,10.42551-6.85107-10.42551h4.22978v-1.8468h-13.9404v1.8468h3.75319l5.48083,7.86383c-2.56169,0-5.30211,0-7.02977-.05957-.2383.83405-.29787,1.66809-.29787,2.08511,2.20425-.05957,5.54041-.05957,8.69785-.05957l1.78725,2.56171c-3.87234,0-7.56595-.05957-10.18723-.05957-.2383.83405-.29787,1.66809-.29787,2.08511M124.94924,311.67307c2.20425,0,4.11063-.05957,5.89787-.05957.2383.95319.35745,1.90637.35745,2.85956,0,1.1319-.11916,2.26382-.47659,3.33618-.47659-.05957-.83405-.05957-1.07234-.05957-3.0383,0-4.11064,1.78723-4.11064,3.15744,0,1.31064,1.07234,2.26382,2.3234,2.26382,1.48936,0,2.62128-.65533,4.28936-3.21701,3.15744,1.07233,5.06381,3.81277,11.08084,3.81277,2.62128,0,7.26808-1.8468,7.14893-9.71063-.59573-.11914-1.13191-.11914-1.72765-.11914-.53616,3.6936-1.90639,5.60001-5.24255,5.60001-3.57446,0-7.08936-1.31064-10.06807-1.60852,1.01276-2.08511,1.48936-3.93192,1.72765-6.31488,2.02554,0,4.17021.05957,6.61276.05957.2383-.95319.2383-1.1915.29787-2.08511-2.56171,0-4.70638.05957-6.79147.05957.05959-1.1319.05959-2.32339.05959-3.6936,0-5.24255,1.72765-7.08936,5.18297-7.08936,2.50212,0,3.93192.59573,5.54042,2.08511-1.25105.95319-1.54893,2.08511-1.54893,2.85956,0,1.8468,1.31062,2.56171,2.74042,2.56171,1.60851,0,2.68085-1.31064,2.68085-3.45532,0-2.85956-3.0383-6.13617-9.41277-6.13617-4.82553,0-10.36594,2.32339-10.36594,9.0553,0,1.42978.17873,2.68085.41702,3.81277-1.60851,0-3.27659-.05957-5.18298-.05957-.2383.83405-.35744,1.66809-.35744,2.08511M97.42586,310.54114c0-7.98297,2.02553-10.42551,5.3617-10.90213v21.56595c-3.93191-.77448-5.3617-3.99149-5.3617-10.66382M104.9918,333.17944c-.05957-.95319-.05957-4.64679-.05957-9.35318,5.95744-.29788,8.75744-3.81277,9.41275-8.99573-.53616-.17871-1.13191-.29788-1.78723-.35745-1.48936,5.83829-4.70638,6.91064-7.62552,6.91064v-21.8638c2.02553.11914,3.39574.77448,4.8851,2.08511-1.31064.95319-1.54894,2.08511-1.54894,2.85956,0,1.8468,1.31064,2.56171,2.74043,2.56171,1.54893,0,2.68084-1.31064,2.68084-3.45532,0-2.74042-2.85957-5.89786-8.75744-6.13617,0-4.46808,0-7.9234.05957-8.75745-.29787-.05957-.83404-.17871-1.19148-.17871-.41703,0-.83405.11914-1.13192.17871.05958.83405.05958,4.34894.05958,8.81702-4.8851.47659-10.90212,3.45532-10.90212,13.70212,0,8.34042,4.58723,12.21274,10.90212,12.57019,0,4.76596,0,8.45956-.05958,9.41275.29787,0,.71489.05957,1.13192.05957.35744,0,.89361-.05957,1.19148-.05957M74.66958,317.8688c0,2.62128-1.84681,4.76596-5.48085,5.00424v-9.94894c4.22978.7149,5.48085,2.26382,5.48085,4.94467M61.68236,303.27307c0-2.91916,2.02553-4.82553,5.36169-5.24255.05958,3.09787.05958,6.55319.05958,9.88934-2.62127-.41702-5.42127-1.60852-5.42127-4.64679M69.24831,332.70282c0-.83405-.05958-3.93192-.05958-7.98297,3.87234-.41702,9.88935-2.32339,9.88935-8.5787,0-3.57446-2.5617-7.02979-9.88935-7.98297v-10.18723c2.14468.17871,3.87234.89362,5.6,2.26382-1.19149.89362-1.48936,1.78723-1.48936,2.56171,0,1.37021,1.07234,2.44254,2.50212,2.44254,1.54894,0,2.68085-1.01276,2.68085-3.09787,0-2.74042-3.45531-5.77872-9.29361-6.017,0-4.05106.05958-7.14893.05958-7.9234-.29787-.05957-.77447-.11914-1.19149-.11914s-.83404.05957-1.13192.11914c0,.77448.05958,3.93192.11915,7.98297-4.70638.47659-9.47233,3.15744-9.47233,8.10211,0,4.70639,4.22978,7.56595,9.53191,8.34042,0,3.45532,0,7.08936-.05958,10.2468-2.26383-.17874-4.05106-.95319-5.65957-2.26382,1.19149-.89362,1.54894-1.78723,1.54894-2.56171,0-1.37021-1.19149-2.56171-2.62128-2.56171-1.54893,0-2.85957,1.13193-2.85957,3.21701,0,2.79999,3.33617,5.83829,9.59148,6.0766-.05957,3.99149-.11915,7.08936-.11915,7.9234.29787,0,.71489.05957,1.13192.05957s.89361-.05957,1.19149-.05957"/>
        <path d="M213.71431,251.9519c3.03828.65532,5.06383,1.48936,7.80424,3.0383,1.48936-1.54893,2.02551-2.08511,4.88509-4.76596-.17871-.35744-.6553-1.01277-1.1319-1.25107l-2.14468,1.96596c-1.42979-.77448-3.21703-1.37021-4.88509-1.60851,0-.77448.05959-1.48936.05959-4.05106v-6.43404c0-1.13191,0-2.38298-.05959-3.51489.47659-.35745,1.07233-.89362,2.74042-1.96596.89362.77448,1.48936,1.60851,2.38298,3.21703,1.37021-.71489,2.74042-1.60852,3.87231-2.56171-1.01276-2.0851-1.72765-3.09787-3.45531-4.46808-3.2766,1.84682-6.73192,4.34892-10.06807,6.67233.05956,1.01277.11914,2.26382.11914,4.11063v6.91064c0,2.14468-.05959,3.51489-.11914,4.70638M220.02919,261.18594c-8.57872,0-16.38297-5.83829-16.38297-18.94467,0-11.55743,6.07658-19.18295,16.38297-19.18295,9.71063,0,17.09785,7.02977,17.09785,19.0638,0,10.06808-4.76596,19.0638-17.09785,19.0638M219.67175,263.09232c12.98721.11914,19.65955-9.11488,19.65955-21.50638,0-13.22552-9.0553-20.67232-18.58722-20.67232-11.08084,0-19.36168,7.2085-19.36168,21.68509,0,12.8085,7.08936,20.37444,18.28935,20.49361M179.16115,241.64552c-4.46809,0-7.74467-3.15746-7.74467-8.10213,0-5.71915,3.2766-8.69786,9.35318-8.69786h1.54893v16.56168c-1.1915.17873-2.20427.2383-3.15744.2383M182.31859,265.35614c.71487.11914,1.37021.11914,2.0851,0v-40.51059h2.97873v40.51059c.71487.11914,1.37021.11914,2.0851,0v-40.51059h3.45532c.05959-.29788.05959-.53616.05959-.83405s0-.59575-.05959-.83406h-12.51062c-5.18298,0-11.31914,2.74042-11.31914,10.66382,0,5.65958,3.75319,9.47234,9.71063,9.47234,1.07234,0,2.26382-.05959,3.51489-.29787v22.34041h-.00002ZM146.81339,254.9902c-4.46808-1.48936-10.0085-3.87234-10.0085-8.99574,0-4.82553,3.93192-7.2085,6.55318-8.45956,1.07234.59575,2.38298,1.13193,3.93192,1.66809,4.46806,1.48936,10.2468,3.57446,10.2468,9.88936,0,4.70638-3.99149,6.91064-6.61276,7.68509-1.13191-.65533-2.50212-1.25107-4.11063-1.78723M156.40486,265.59445c0-3.0383-.77446-5.60001-3.75319-7.74469l.11916-.23831c2.85957-1.1319,7.08936-3.99149,7.14893-10.0085,0-6.97021-4.05106-9.88934-9.47234-12.09361-7.50638-3.0383-9.11488-5.24254-9.11488-8.45956,0-2.97871,2.32339-4.82553,6.07658-4.82553,1.78723,0,3.93192.65533,5.71915,2.08511-1.25105.77446-1.72765,1.60851-1.72765,2.50212,0,1.72765,1.25105,2.32339,2.56171,2.32339,1.42979,0,2.74042-1.19148,2.74042-3.09787,0-2.62128-3.51489-5.48083-9.29361-5.48083-4.6468,0-9.53191,3.15744-9.53191,8.69786,0,2.68085.77448,5.18298,3.87233,7.32767v.17873c-2.91914,1.48936-7.38722,4.34892-7.38722,10.60423,0,6.37447,3.63403,9.17447,9.29361,11.31915,7.44681,2.79999,9.11488,5.24255,9.11488,8.45956,0,2.97873-2.32339,4.82553-6.07658,4.82553-2.32339,0-4.05106-.65533-5.77872-2.08511,1.25107-.77448,1.66809-1.60852,1.66809-2.50211,0-1.54892-1.13191-2.32339-2.44257-2.32339-1.66808,0-2.74042,1.1915-2.74042,3.09787,0,2.62128,3.51489,5.48083,9.29361,5.48083,4.6468,0,9.71063-3.09787,9.71063-8.04254M112.91554,243.31361v14.47658c-2.74042,1.48935-4.34893,1.8468-6.55318,1.8468-3.75319,0-9.17446-2.32339-9.17446-8.28085,0-5.65958,3.21702-8.04254,10.06808-8.04254h5.65956v.00002ZM121.97086,224.2498c-.29787-.41702-.65533-.71487-1.07234-1.01277-1.42979,1.37021-3.51489,2.56171-5.18298,2.56171-2.97872,0-5.59999-2.91914-7.80424-4.94469-1.60851,1.1915-3.21702,2.38298-4.8851,3.51489-5.30212,3.6936-10.2468,5.54041-10.2468,11.31914,0,3.75319,3.09787,6.85106,6.49361,7.02979v.2383c-5.06382,2.44257-7.08936,5.77872-7.08936,10.0085,0,5.30212,4.52766,9.53192,11.91488,9.53192,3.15745,0,5.24255-.7149,8.28085-2.32339,2.50212,0,5.95744,1.42978,8.10212,2.79999,1.31063-1.48935,2.5617-2.74042,3.99149-4.05106-.35745-.47659-.71489-.89362-1.19149-1.1915l-1.19149,1.1319c-1.25107-.65533-3.27659-1.1319-4.70638-1.25107v-14.35744h4.94468c.17872-.77448.2383-1.60851,0-2.38298h-5.06382c-.11915-2.0851.35744-2.74042.95319-4.46808-.2383-.47659-.95319-.89362-1.48936-1.07234l-3.57447,5.60001h-1.96595c-3.75319,0-5.95744.2383-7.80425.17873-3.39574-.35744-5.00425-2.56171-5.00425-7.38722,0-3.51489,1.48936-4.8851,6.13617-8.1617,3.27659,3.39574,5.71914,4.40851,8.34042,4.40851,1.90638,0,5.06382-.35745,9.11489-5.71915M53.22313,256.00296c0-.77446.05957-1.48936.05957-4.05106v-6.07658c0-1.19148-.05957-2.56171-.11915-3.63403.53617-.47659,1.72766-1.25105,2.3234-1.60851l.83404-.53616c1.90638,1.25107,3.33617,2.02554,4.6468,2.38298v11.79575l-3.27659,3.03831c-1.19149-.65533-2.91915-1.1915-4.46808-1.31064M66.44865,258.02847c-.59574-.89362-1.01277-1.37021-1.01277-2.85957v-12.68935c1.42979-.59573,2.68085-1.60851,3.39574-2.44255-.11915-.2383-.4766-.77448-.65532-.95319-.4766.17873-1.13192.29787-1.60851.29787-2.50212,0-5.18297-2.14468-6.97021-3.57446-3.57446,2.50212-7.14893,4.76595-10.90211,7.08936.05957,1.01277.11915,2.26382.11915,4.11064v6.91063c0,2.14468-.05957,3.51489-.11915,4.70639,3.15744.53616,5.65957,1.72766,7.38723,2.74042l4.94467-4.76596c.53617,1.1319,1.25106,2.68085,3.57446,4.22977,12.68935-2.68085,16.74041-9.7702,16.74041-20.25529,0-7.26807-3.87234-19.95741-19.77871-19.95741-17.75318,0-27.99997,12.98721-27.99997,27.70209,0,19.48083,12.27233,27.64252,26.39146,27.28506,8.1617-.23831,14.11914-2.74042,18.70637-8.69788-.35745-.41702-.83404-.7149-1.31064-1.01276-3.87234,4.46808-10.06808,7.32764-17.6936,7.32764-17.09785,0-22.99572-12.62979-22.99572-24.42551,0-16.50211,10.84254-25.85529,23.88934-25.85529,10.0085,0,18.11062,6.31488,18.11062,19.89786,0,10.66382-7.4468,14.23828-12.21275,15.19147"/>
        <path d="M246.47713,175.38481c0,3.9319,0,20.49361-.11916,22.87656.83405.17873,2.20425.17873,3.0383,0-.11916-2.38297-.11916-18.94466-.11916-22.87656-.83405-.17873-2.20425-.17873-2.8,0M249.27713,167.28268c0-3.93192,0-20.49361.11916-22.87659-.83406-.17873-2.20427-.17873-3.0383,0,.11916,2.38298.11916,18.94466.11916,22.87659.83405.17873,2.20425.17873,2.8,0M225.74638,197.36777c.95319-.2383,1.78723-.6553,2.50214-1.19148-2.20427-4.88512-20.19572-46.88506-22.34041-52.00847-.83406.29787-1.78725.71487-2.38298,1.19148,2.44257,4.88512,20.37445,46.88506,22.22125,52.00847M196.31662,198.44009c-.17871-5.77873-.17871-48.25526,0-54.034-.83405-.17873-2.20425-.17873-3.03828,0,.17871,5.77873.17871,48.25526,0,54.034.83405.11916,2.20425.11916,3.03828,0M164.86249,197.36777c1.84682-5.1234,19.7787-47.12335,22.22125-52.00845-.59575-.47659-1.54893-.89362-2.38298-1.19148-2.14468,5.1234-20.13615,47.12335-22.34041,52.00847.71489.53616,1.54893.95319,2.50214,1.19148M144.96463,186.22734c1.42979,1.31062,2.8,2.62129,2.8,5.54042,0,3.09789-1.66809,6.49361-7.26808,6.49361-3.81276,0-6.13615-2.14467-6.13615-6.43404,0-3.33617,2.62128-5.00426,5.54042-6.31488,5.00426-2.26382,6.43404-5.36171,6.43404-8.10213,0-4.46806-3.51489-6.19572-6.67233-6.19572-3.0383,0-6.79147,1.19148-6.79147,7.44681.53616.05956,1.13191.05956,1.66809,0,.05959-3.2766.89362-5.89787,4.82553-5.89787,1.96596,0,4.11064.95319,4.11064,3.75319,0,2.26382-1.96596,3.57446-5.89787,4.88512-3.75319,1.25105-7.56595,3.87231-7.56595,9.17445,0,4.94467,3.75319,9.23402,10.48509,9.23402,5.89787,0,9.7702-3.63403,9.7702-7.86382,0-3.63403-2.44255-5.71915-4.58723-6.61276-.2383.23831-.47659.53616-.71489.89362M140.61571,160.19331c-.47659-.05959-.95319-.05959-1.42979,0-.53616,1.48936-1.42979,2.56171-3.2766,3.39575-.05959.41702-.05959.89362,0,1.31062,1.84682.83405,2.74042,1.90639,3.2766,3.39575.47659.05959.95319.05959,1.42979,0,.53616-1.48936,1.42979-2.56171,3.2766-3.39575.05959-.41702.05959-.89362,0-1.31062-1.84682-.83405-2.74042-1.90639-3.2766-3.39575M110.11475,186.04863c.4766.05959.95319.05959,1.42979,0,.53617-1.48936,1.42979-2.56171,3.27659-3.39575.05958-.41702.05958-.89362,0-1.31062-1.84681-.83405-2.74042-1.90639-3.27659-3.39575-.4766-.05959-.95319-.05959-1.42979,0-.53617,1.48936-1.42979,2.56171-3.27659,3.39575-.05958.41702-.05958.89362,0,1.31062,1.84681.83405,2.74042,1.90639,3.27659,3.39575M105.76581,160.0146c-1.42978-1.31065-2.79999-2.62129-2.79999-5.54044,0-3.09785,1.66808-6.49361,7.26808-6.49361,3.81276,0,6.13616,2.14468,6.13616,6.43405,0,3.33615-2.62128,5.00426-5.54042,6.31488-5.00426,2.26382-6.43404,5.36171-6.43404,8.10213,0,4.46806,3.5149,6.19572,6.67234,6.19572,3.0383,0,6.79148-1.19148,6.79148-7.44681-.53617-.05959-1.13191-.05959-1.66809,0-.05958,3.2766-.89361,5.89787-4.82553,5.89787-1.96596,0-4.11064-.95319-4.11064-3.75319,0-2.26382,1.96596-3.57448,5.89787-4.88512,3.75319-1.25105,7.56595-3.87231,7.56595-9.17445,0-4.94467-3.75318-9.23402-10.48509-9.23402-5.89787,0-9.77021,3.63403-9.77021,7.86382,0,3.63403,2.44256,5.71915,4.58724,6.61276.2383-.23831.4766-.53616.71488-.89362M88.07336,191.70818c-.41702-4.22977-1.31064-9.47232-2.0851-17.15742-.53617-.05956-1.13192-.05956-1.66809,0-.83404,7.6851-1.60851,13.22552-1.90638,17.09787-.35745,4.28934.83404,6.01701,2.91915,6.01701,2.3234,0,3.0383-2.56171,2.74043-5.95746M85.98826,160.31248c-.4766-.05959-.95319-.05959-1.42979,0-.53617,1.48936-1.42979,2.56169-3.27659,3.39575-.05957.41702-.05957.89362,0,1.31062,1.84681.83405,2.74043,1.90639,3.27659,3.39575.4766.05956.95319.05956,1.42979,0,.53617-1.48936,1.42978-2.56171,3.27659-3.39575.05958-.41702.05958-.89362,0-1.31062-1.84681-.83406-2.74042-1.90639-3.27659-3.39575M68.41495,185.92947c.47659.05959.95319.05959,1.42978,0,.53617-1.48936,1.42979-2.56171,3.27659-3.39575.05958-.41702.05958-.89362,0-1.31062-1.84681-.83405-2.74042-1.90639-3.27659-3.39575-.4766-.05959-.95319-.05959-1.42978,0-.53617,1.48936-1.42979,2.56171-3.27659,3.39575-.05958.41702-.05958.89362,0,1.31062,1.84681.83405,2.74042,1.90639,3.27659,3.39575M66.32984,154.53375c.41702,4.22978,1.31064,9.47234,2.08511,17.15746.53617.05956,1.13191.05956,1.66808,0,.83404-7.6851,1.60851-13.22552,1.90638-17.09787.35745-4.28935-.83404-6.01701-2.91915-6.01701-2.3234,0-3.0383,2.56171-2.74043,5.95744M50.4842,176.99332c-2.50213,0-3.57446,1.66809-3.57446,3.57446,0,2.14468,1.78723,3.51489,3.57446,3.51489.77447,0,1.42979-.17873,2.0851-.41702.05957.29787.05957.6553.05957,1.01277,0,2.74042-1.42978,6.01701-5.42127,9.41273.29787.47659.59574.89362,1.01276,1.25107,5.30212-3.81277,6.91063-7.80426,6.91063-11.617,0-4.22978-1.84681-6.73192-4.6468-6.73192M50.12675,168.1763c.47659.05959.95319.05959,1.42978,0,.53617-1.48936,1.42978-2.56169,3.27659-3.39575.05958-.41702.05958-.89362,0-1.31062-1.8468-.83405-2.74042-1.90639-3.27659-3.39575-.4766-.05956-.95319-.05956-1.42978,0-.53617,1.48936-1.42979,2.56171-3.27659,3.39575-.05957.41702-.05957.89362,0,1.31062,1.84681.83406,2.74042,1.90639,3.27659,3.39575M33.38634,185.92947c.47659.05959.95319.05959,1.42978,0,.53617-1.48936,1.42979-2.56171,3.27659-3.39575.05957-.41702.05957-.89362,0-1.31062-1.84681-.83405-2.74042-1.90639-3.27659-3.39575-.47659-.05959-.95319-.05959-1.42978,0-.53617,1.48936-1.42979,2.56171-3.27659,3.39575-.05957.41702-.05957.89362,0,1.31062,1.84681.83405,2.74042,1.90639,3.27659,3.39575M33.38634,169.84438c.47659.05959.95319.05959,1.42978,0,.53617-1.48935,1.42979-2.56169,3.27659-3.39574.05957-.41702.05957-.89362,0-1.31062-1.84681-.83406-2.74042-1.90639-3.27659-3.39575-.47659-.05959-.95319-.05959-1.42978,0-.53617,1.48936-1.42979,2.56169-3.27659,3.39575-.05957.41702-.05957.89362,0,1.31062,1.84681.83405,2.74042,1.90639,3.27659,3.39574"/>
        <path d="M242.66666,102.99708c-2.50211,0-3.57446,1.66808-3.57446,3.57446,0,2.14467,1.78723,3.5149,3.57446,3.5149.77448,0,1.42979-.17873,2.08511-.41704.05959.29788.05959.65533.05959,1.01277,0,2.74042-1.42979,6.01701-5.42128,9.41276.23831.4766.53616.89361,1.01277,1.25106,5.30212-3.81275,6.91063-7.80424,6.91063-11.61701,0-4.22978-1.84682-6.7319-4.6468-6.7319M252.3773,102.99708c-2.50214,0-3.57448,1.66808-3.57448,3.57446,0,2.14467,1.78723,3.5149,3.57448,3.5149.77446,0,1.42976-.17873,2.0851-.41704.05959.29788.05959.65533.05959,1.01277,0,2.74042-1.42979,6.01701-5.42126,9.41276.2383.4766.53615.89361,1.01276,1.25106,5.30212-3.81275,6.91066-7.80424,6.91066-11.61701,0-4.22978-1.84682-6.7319-4.6468-6.7319M225.33052,120.15451c2.50211,0,3.57446-1.66808,3.57446-3.57446,0-2.14469-1.78723-3.5149-3.57446-3.5149-.77448,0-1.42979.17873-2.08511.41702-.05959-.29787-.05959-.65531-.05959-1.01277,0-2.74042,1.42979-6.01701,5.42128-9.41274-.29788-.4766-.59575-.89361-1.01277-1.25107-5.30212,3.81277-6.91063,7.80426-6.91063,11.61701,0,4.22978,1.84682,6.73192,4.6468,6.73192M215.20285,120.15451c2.50214,0,3.57448-1.66808,3.57448-3.57446,0-2.14469-1.78723-3.5149-3.57448-3.5149-.77446,0-1.42976.17873-2.0851.41702-.05959-.29787-.05959-.65531-.05959-1.01277,0-2.74042,1.42979-6.01701,5.42126-9.41274-.29787-.4766-.59573-.89361-1.01276-1.25107-5.30212,3.81277-6.91064,7.80426-6.91064,11.61701,0,4.22978,1.84682,6.73192,4.6468,6.73192M192.08914,113.83961c-.41702,3.45532-1.07234,4.94469-1.07234,6.97022,0,1.42977.53616,2.68084,1.72765,2.68084,1.01277,0,1.54893-.95319,1.54893-2.56171,0-2.14467-.77446-3.39573-1.13193-7.08936l.17873-.11914c2.85957,2.20425,3.9319,3.51488,5.65958,4.52765.59575.35744,1.25105.59575,1.78723.59575.77446,0,1.54893-.77448,1.54893-1.48936,0-.65533-.53616-1.31063-1.66809-1.90638-1.96596-1.07234-3.2766-1.13192-6.85104-2.68084v-.17873c3.51488-1.48936,4.82553-1.66808,6.79147-2.62127,1.07234-.53617,1.66809-1.25107,1.66809-1.90638,0-.7149-.59575-1.48936-1.54893-1.48936-.53616,0-1.19148.23831-1.78723.59575-1.72765,1.01277-2.8,2.38298-5.60001,4.52765l-.17873-.11915c.35745-3.75319,1.13193-5.06382,1.13193-7.2085,0-1.60852-.53616-2.56171-1.54893-2.56171-1.19148,0-1.72765,1.25107-1.72765,2.68086,0,2.02552.65533,3.51488,1.07234,7.08934l-.17873.11915c-2.97873-2.0851-3.6936-3.39575-5.54042-4.52765-.65533-.41702-1.25105-.65533-1.72765-.65533-.89362,0-1.42979.7149-1.42979,1.42979,0,.83404.6553,1.60852,1.66808,2.14469,1.72765.95319,3.33617,1.1319,6.61276,2.50211v.17873c-3.39575,1.42979-4.94467,1.6085-6.67233,2.56169-1.01277.53617-1.66808,1.31063-1.66808,2.14469,0,.71488.6553,1.42979,1.42979,1.42979.47659,0,1.07233-.23831,1.72765-.65533,1.84682-1.13192,2.56171-2.44256,5.60001-4.52765l.17873.11914h-.00002ZM158.96577,132.2802c0,.95319-1.13193,2.32339-2.14468,3.03828.17873.35745.35744.65533.65532,1.01277.41702-.17871.71489-.35744,1.01277-.47659.05957,1.07234.59573,1.90639,1.78723,1.90639,1.13191,0,1.66809-.83405,1.72766-1.90639.35744.11916.65532.29788,1.07234.47659.29787-.35744.47659-.6553.65532-1.01277-1.01277-.71487-2.14468-2.0851-2.14468-3.03828-.11914-8.99574-.11914-15.78722-.11914-26.98721,2.44255,0,5.59999,0,8.28085.11915.95319,0,2.32339,1.42979,3.03828,2.44254.41702-.17871.7149-.35744,1.01277-.65531-.17873-.41702-.35744-.89361-.47659-1.31063,1.07234-.05958,1.90639-.53617,1.90639-1.72767,0-1.1319-.83405-1.6085-1.90639-1.66808.11916-.4766.29787-.95319.47659-1.37021-.29787-.29787-.59575-.4766-1.01277-.65533-.71487,1.01277-2.0851,2.44256-3.03828,2.44256-2.8.11915-5.24255.11915-8.28085.11915,0-4.17021,0-7.20851.11914-11.19999,0-.95319,1.13191-2.3234,2.14468-3.0383-.17873-.35744-.35744-.65531-.65532-1.01275-.41702.17871-.89362.35744-1.37021.47658-.05959-1.07233-.29787-1.90637-1.42979-1.90637-1.19148,0-1.42979.83404-1.48936,1.90637-.41702-.11914-.89362-.29787-1.31062-.47658-.29787.35744-.47659.65531-.65532,1.01275,1.01276.7149,2.14468,2.08511,2.14468,3.0383.11914,3.99148.11914,7.02978.11914,11.19999-2.62128,0-5.54042,0-8.28084-.11915-.95319,0-2.32339-1.42979-3.0383-2.44256-.41702.17873-.71489.35746-1.01277.65533.17873.41702.35745.89361.47659,1.37021-1.07234.05958-1.90639.53617-1.90639,1.66808,0,1.1915.83405,1.66809,1.90639,1.72767-.11914.41702-.29787.89361-.47659,1.31063.29787.29787.59575.4766,1.01277.65531.71489-1.01275,2.0851-2.44254,3.0383-2.44254,2.74042-.11915,5.60001-.11915,8.28084-.11915,0,11.31914,0,17.45529-.11914,26.98721M117.44354,119.70999c5.06382-2.91915,5.77757-3.45532,7.98183-4.76596,1.37136-.89361,2.02553-1.66808,2.02553-2.74042,0-1.25106-1.07234-2.14467-2.02553-2.68084-1.60851-.95319-2.85843-1.60852-7.80425-4.28936-.23715.23831-.53616.65533-.65417,1.07234,2.85843,2.38298,4.6468,3.75319,7.26694,6.13617-2.44256,2.3234-4.17021,3.45531-7.4468,6.13615.12029.4766.35744.83406.65646,1.13192M127.57005,119.70999c5.06383-2.91915,5.77872-3.45532,7.98412-4.76596,1.37021-.89361,2.02438-1.66808,2.02438-2.74042,0-1.25106-1.0712-2.14467-2.02438-2.68084-1.60965-.95319-2.86072-1.60852-7.80539-4.28936-.2383.23831-.53503.65533-.65532,1.07234,2.8607,2.38298,4.6468,3.75319,7.26807,6.13617-2.44141,2.3234-4.17021,3.45531-7.4468,6.13615.11915.4766.35745.83406.65533,1.13192M109.57972,105.23341c-5.06382,2.91915-5.77872,3.45532-7.98297,4.76596-1.37021.89361-2.02553,1.66808-2.02553,2.74042,0,1.25106,1.07234,2.14467,2.02553,2.68084,1.60851.95319,2.85957,1.60852,7.80425,4.28936.2383-.23831.53616-.65533.65532-1.07234-2.85957-2.38298-4.6468-3.75319-7.26808-6.13617,2.44256-2.3234,4.17021-3.45531,7.4468-6.13615-.11914-.4766-.35744-.83406-.65532-1.13192M99.45206,105.23341c-5.06382,2.91915-5.77872,3.45532-7.98297,4.76596-1.37021.89361-2.02553,1.66808-2.02553,2.74042,0,1.25106,1.07234,2.14467,2.02553,2.68084,1.60851.95319,2.85957,1.60852,7.80424,4.28936.2383-.23831.53617-.65533.65532-1.07234-2.85957-2.38298-4.6468-3.75319-7.26807-6.13617,2.44255-2.3234,4.17021-3.45531,7.4468-6.13615-.11915-.4766-.35745-.83406-.65533-1.13192M72.82231,123.64191c-2.02553,0-3.39574-1.54894-3.39574-3.33617,0-1.96596,1.31064-3.5149,3.27659-3.5149,2.38297,0,3.39574,1.66809,3.39574,3.63404,0,1.90638-1.37021,3.21703-3.27659,3.21703M72.70316,125.90574c2.97872,0,5.71914-2.14469,5.71914-5.71915,0-3.27659-2.14468-5.6-5.6-5.6-2.97872,0-5.71914,2.38298-5.71914,5.83828,0,3.33617,2.5617,5.48086,5.6,5.48086M59.35849,110.53554c-2.02553,0-3.39574-1.54894-3.39574-3.33617,0-1.96596,1.31063-3.5149,3.27659-3.5149,2.38298,0,3.39574,1.66809,3.39574,3.63405,0,1.90637-1.37021,3.21702-3.27659,3.21702M59.23934,112.79937c2.97872,0,5.71914-2.14469,5.71914-5.71915,0-3.27659-2.14468-5.6-5.6-5.6-2.97872,0-5.71914,2.38298-5.71914,5.8383,0,3.33615,2.5617,5.48084,5.59999,5.48084M54.83084,124.29722c.59574.65533,1.31064,1.1915,2.02553,1.72765,6.61276-7.80424,13.28509-15.42976,20.13615-22.99571-.59574-.65533-1.31064-1.1915-2.02553-1.72767-6.55318,7.86384-13.22552,15.48935-20.13615,22.99573M26.77244,118.99509l2.8-10.84253h7.62552l-2.8,10.84253s-7.62553,0-7.62552,0ZM17.41925,118.99509c-.17872.53617-.2383,1.13192-.29787,1.66809h6.85106l-2.91915,11.43828c.53617.05959,1.90638.05959,2.38298,0l2.91915-11.43828h7.62553l-2.91915,11.43828c.53617.05959,1.90638.05959,2.38298,0l2.91914-11.43828h8.04255c.17872-.53617.2383-1.13192.29787-1.66809h-7.9234l2.8-10.84253h6.61276c.17872-.53617.2383-1.13192.29787-1.66809h-6.49361l2.97872-11.67659c-.53617-.05956-1.90638-.05956-2.38298,0l-2.97872,11.67659h-7.62552l2.97872-11.67659c-.53617-.05956-1.90638-.05956-2.38298,0l-2.97872,11.67659h-8.39999c-.17872.53617-.2383,1.13192-.29787,1.66809h8.28084l-2.8,10.84253s-6.97021,0-6.9702,0Z"/>
        <path d="M204.83714,48.03729c.05959-.53619.05959-1.01277,0-1.54896-4.52765-.71488-6.67233-4.28934-6.67233-6.61276,0-4.70635,3.6936-5.36169,3.6936-10.18722,0-3.69361-2.32339-7.14892-8.93614-7.02977-.05959.47658-.05959,1.01277,0,1.48935,5.24254,0,6.61275,2.8,6.61275,5.48084,0,3.33619-4.11063,5.48088-4.11063,9.77022,0,3.45531,2.02554,6.55319,5.30212,7.74468v.23827c-3.2766,1.1915-5.30212,4.28938-5.30212,7.74468,0,4.28934,4.17021,6.55319,4.17021,9.88934,0,2.68088-1.42979,5.36172-6.67232,5.36172-.05959.47658-.05959,1.01277,0,1.48935,6.61275.11915,8.93614-3.93192,8.93614-7.02977,0-4.82553-3.6936-5.8383-3.6936-10.54468,0-2.32338,2.14468-5.54042,6.67233-6.2553M169.0925,46.48833c-.05959.53619-.05959,1.01277,0,1.54896,4.52765.71488,6.67232,4.28934,6.67232,6.61276,0,4.70638-3.6936,5.36169-3.6936,10.18722,0,3.69361,2.32339,7.14892,8.93617,7.02977.05959-.47658.05959-1.01277,0-1.48935-5.24255,0-6.61276-2.8-6.61276-5.48084,0-3.33619,4.11066-5.48088,4.11066-9.77022,0-3.45531-2.02554-6.55319-5.30212-7.74468v-.23827c3.2766-1.1915,5.30212-4.28938,5.30212-7.74468,0-4.28934-4.17023-6.55319-4.17023-9.88934,0-2.68088,1.42979-5.36172,6.67233-5.36172.05959-.47658.05959-1.01277,0-1.48935-6.61276-.11915-8.93617,3.93192-8.93617,7.02977,0,4.82553,3.6936,5.8383,3.6936,10.54468,0,2.32342-2.14467,5.54042-6.67232,6.2553M140.3192,68.65004c-.05957.65531-.05957,1.31062,0,1.96592,4.46808-.05954,8.99574-.05954,13.46382,0-.17873-15.96591-.17873-32.05101,0-48.01696-4.46808.05958-8.99574.05958-13.46382,0-.05957.65531-.05957,1.31065,0,1.96596,3.57446-.05958,7.20851-.05958,10.78297,0,.17873,15.01276.17873,29.07232,0,44.08508-3.57446.05954-7.2085.05954-10.78297,0M131.74049,24.56496c.05959-.65531.05959-1.31065,0-1.96596-4.46808.05958-8.99573.05958-13.46382,0,.17872,15.96595.17872,32.05105,0,48.01696,4.46808-.05954,8.99573-.05954,13.46382,0,.05959-.65531.05959-1.31062,0-1.96592-3.57446.05954-7.2085.05954-10.78296,0-.17873-15.01276-.17873-29.07232,0-44.08508,3.57446-.05958,7.2085-.05958,10.78296,0M102.96719,46.36921c0-11.25957-5.42127-19.48087-12.27233-24.30636-.41702.35742-.77447.77446-1.07234,1.25104,6.67234,6.25534,10.36595,13.22553,10.36595,22.99575,0,9.82976-2.68085,16.9191-10.66382,24.00848.23829.47658.59574.95319.95319,1.31062,7.56595-5.54042,12.68935-13.99999,12.68935-25.25952M68.35446,47.32237c0,11.25957,5.42127,19.48087,12.27233,24.30636.41702-.35742.77447-.77446,1.07234-1.25104-6.67234-6.25534-10.36595-13.22553-10.36595-22.99575,0-9.82976,2.68085-16.9191,10.66382-24.00848-.2383-.47658-.59574-.95319-.95319-1.31062-7.56595,5.54042-12.68935,13.99999-12.68935,25.25952"/>
        <rect y="1.44" width="272.09384" height="390.1416" fill="none"/>
      </g>
    </g>
  </g>
</svg>