<?xml version="1.0" encoding="UTF-8"?><svg id="Layer_2" xmlns="http://www.w3.org/2000/svg" viewBox="0 0 262.06 371.99"><defs><style>.cls-1{fill:none;stroke:#5571a9;stroke-width:1.79px;}.cls-2{fill:#5571a9;}</style></defs><g id="Layer_1-2"><path d="M23.5,95.86c-1.2-.72-2.28-1.8-2.28-3.72,0-3.72,4.08-6,7.98-6.24l4.62-2.82c2.16-1.32,3.3-2.82,3.3-7.86v-9.3c0-5.52-1.38-7.98-6.12-7.98-4.2,0-6.96,2.88-6.96,6.36s2.4,5.1,5.64,5.88c-.06.6-.18,1.08-.36,1.56-4.92-1.02-7.2-3.36-7.2-7.26,0-5.64,4.92-8.64,9.84-8.64,7.26,0,10.56,4.32,10.56,11.28v6.24c0,5.4-1.08,6.78-3.6,8.34l-6.96,4.2v.24c3.48.66,7.32,2.88,10.8,5.16,2.28-1.8,4.68-3.48,6.96-5.16v-26.52c2.1-2.34,6.12-3.78,8.88-3.78.78,0,1.32,0,2.04.12,0,.72-.12,1.32-.24,1.68-.42-.06-1.02-.12-1.68-.12-1.74,0-3.9.54-3.9,3.66v27.42c2.64.18,4.62.48,5.94,2.16-2.04,1.68-3.9,3.3-5.58,4.74-2.1-1.62-3.18-1.8-5.46-2.4v-4.8l-.24-.12c-1.92,1.26-3.9,2.76-5.58,4.08-1.56,1.26-2.88,2.58-4.2,3.78-7.92-5.7-10.5-6.9-13.38-6.9-1.98,0-3.18,1.14-3.18,2.82,0,1.08.54,1.86,1.56,2.76-.3.42-.78.9-1.2,1.14ZM73.54,71.98c-3.84-1.5-5.76-4.38-5.76-7.44,0-5.28,4.32-9,11.1-9,4.38,0,7.92,1.68,9.96,5.1,2.16-1.08,4.26-2.16,6.36-3.42,1.5-.9,3.06-1.92,4.38-2.94,3.6,4.2,7.26,8.52,11.88,9.06.12.42.12.78.12,1.2-3.96,2.58-5.52,3.54-9,5.4v.3c3,2.22,8.88,6.12,8.88,12.12,0,9-9.72,14.28-19.74,14.28-9,0-16.62-8.34-21.42-8.34-2.52,0-3.3,1.68-3.3,2.88,0,1.38.6,2.28,1.08,2.82-.3.36-.84.78-1.32,1.02-.72-.66-1.68-1.92-1.68-3.84,0-3.66,3.6-6.6,8.64-6.6.96,0,1.92.18,2.88.48,5.04-3.6,8.64-6,8.64-15.36,0-8.76-2.76-12-7.8-12s-7.5,3.24-7.5,6.66c0,2.7,1.26,4.5,4.32,6.18-.18.54-.42,1.02-.72,1.44ZM96.76,72.88c-3.72,1.8-6.3,2.88-8.22,3.72-2.04,3.3-5.52,5.94-10.14,9.12,5.58,2.58,11.34,8.46,17.94,8.46,4.8,0,9.84-3.24,9.84-8.64s-2.94-7.92-9.42-12.66ZM89.8,74.02l.12.12c4.86-2.1,10.8-5.16,14.7-7.5v-.3c-2.22-.96-5.52-3.18-8.88-7.62-2.04,1.26-4.08,2.34-6.12,3.48.72,1.8,1.08,3.9,1.08,6.36,0,2.04-.3,3.84-.9,5.46ZM136.54,96.7c-8.76,0-17.76-5.76-17.76-17.7,0-14.4,3.66-22.8,11.7-22.8,2.94,0,5.16,1.26,7.2,3.84h.12c.72-1.44,1.44-2.94,2.1-4.44,3.06,1.14,5.34,1.62,7.8,2.28l1.14-2.46c.6.12,1.08.3,1.56.6l-3.36,7.02c-2.1-.78-5.1-1.56-7.74-2.34-.18.36-.36.78-.42.9,1.32,1.98,2.58,4.38,3.9,7.26-.48.36-1.02.54-1.5.66-1.02-1.92-2.04-3.78-3.18-5.76h-.12c-.42,1.14-.66,2.28-.66,3.06,0,1.92,1.32,3.12,4.26,5.58s4.92,4.2,4.92,7.98c0,5.04-3.54,8.82-8.34,8.82-5.52,0-7.5-3.96-7.26-9.78.54-.06,1.08-.06,1.62,0,.18,6.42,3.12,8.04,5.94,8.04,2.16,0,4.8-1.44,4.8-3.96,0-2.7-2.4-4.08-3.9-5.28-3.36-2.64-4.5-4.8-4.5-7.44,0-3.24.84-6,1.98-8.76-1.74-2.52-3.72-4.14-6.18-4.14-4.62,0-5.76,5.04-5.76,24.96,0,7.62,5.34,11.58,12.42,11.58,4.8,0,8.4-1.74,11.52-5.34.48.3.96.78,1.2,1.14-2.52,3.18-6.36,6.48-13.5,6.48ZM174.46,55.18c16.92,0,25.26,8.82,25.26,20.64,0,8.22-5.4,20.1-19.2,20.1-9.72,0-14.88-6.42-20.52-6.42-2.1,0-3.36,1.38-3.36,2.94,0,.54.06,1.02.36,1.92-.3.18-1.02.42-1.32.48-.42-.78-.72-1.8-.72-2.58,0-3.78,2.88-6.24,8.1-6.24,2.16,0,4.32.6,6.54,1.38,2.28-1.26,4.44-2.76,4.44-4.86,0-3.6-6.18-4.92-6.18-11.28,0-5.7,4.56-8.4,8.16-8.4s6.3,1.74,7.2,5.64c-.48.18-1.02.36-1.56.48-.9-2.82-3.06-4.38-5.76-4.38s-4.26,1.62-4.26,3.78c0,3.6,6.78,6.06,6.78,11.34,0,4.08-3.3,6.18-6.9,8.22v.24c4.86,2.04,9.66,4.8,13.86,4.8,5.76,0,9.42-5.22,9.42-13.74s-6.12-22.02-21.6-22.02c-10.08,0-14.88,5.34-15.06,12.84-.54.06-1.08.06-1.62,0-.48-9.3,6.12-14.88,17.94-14.88ZM225.58,96.64c-8.16,0-17.94-5.94-17.94-17.88,0-14.4,4.2-22.62,11.76-22.62,2.64,0,4.44,1.14,6.96,4.26h.12c.6-1.38,1.26-2.82,1.8-4.2,3.48.6,5.4.9,7.68,1.5l.66-2.04c.54.06,1.08.18,1.62.42l-2.04,6.42c-2.28-.66-5.28-1.32-7.98-1.68-.12.3-.3.72-.48,1.08,1.08,1.62,2.34,3.48,3.78,5.7-.42.3-.78.54-1.38.78-.9-1.32-2.04-3-3.18-4.68h-.06c-.42,1.14-.72,2.28-.72,3.24,0,2.04,1.32,3.06,4.26,5.52,1.38,1.14,2.52,2.1,3.42,3.24,1.62-1.92,2.82-3.3,1.14-5.7.18-.3.48-.66.78-.9,1.5.78,2.82,1.08,4.62-1.14.42.18.72.42,1.02.72-1.14,1.56-.84,3.12.6,4.56-.18.42-.36.72-.66,1.02-1.86-.66-4.02-.24-6.6,2.88.36.9.6,1.92.6,3.18,0,5.04-3.78,8.94-8.34,8.94-5.7,0-7.44-4.68-7.26-9.36.54-.12,1.2-.12,1.68,0,.12,5.04,2.58,7.56,5.88,7.56,2.16,0,4.8-1.44,4.8-3.9,0-2.7-2.4-4.08-3.9-5.28-3.36-2.64-4.5-5.04-4.5-7.56,0-3.3.78-6,1.92-8.64-1.74-2.46-3.72-4.14-6.12-4.14-4.74,0-5.76,4.92-5.76,23.04,0,9.42,6.12,13.5,13.2,13.5,5.4,0,9.42-1.68,13.08-5.04.42.36.84.72,1.14,1.2-3,3-7.26,6-15.6,6Z"/><path d="M61.24,120.82c0,2.22-1.68,6.66-8.28,6.66-2.7,0-5.22-1.14-7.62-2.46-1.08,1.98-1.5,3.3-1.5,4.98,0,3.96,4.62,7.92,8.22,12.72,2.16-2.16,3.3-3.9,3.3-5.28,0-.9-.18-1.68-1.08-3.06.3-.36.54-.6.84-.84.42.24,1.26.66,2.28.66.9,0,1.92-.36,2.76-1.44.42.18.72.36,1.02.66-.54,1.14-.78,2.16-.78,3,0,1.02.42,1.98,1.14,3.06-.18.36-.48.66-.78.9-.66-.3-1.32-.48-1.98-.48-1.56,0-2.94,1.2-5.7,4.14,1.92,2.76,3.36,5.82,3.36,9.3,0,10.8-7.08,16.32-13.62,16.32s-13.02-4.32-13.02-13.02c0-7.38,5.52-11.4,5.52-15.06,0-1.14-.78-1.8-1.92-2.64.24-.42.48-.9.84-1.32,2.34,1.32,4.62,2.7,4.62,6.06,0,4.56-5.16,8.46-5.16,14.58s4.5,9.6,9.36,9.6,9.78-3.96,9.78-10.08c0-10.2-11.82-14.46-11.82-24.36,0-3.72,1.2-5.82,2.94-9.18-3-1.74-5.76-3.54-8.58-3.54-4.14,0-6.96,2.64-6.96,6.54,0,3,1.44,5.1,4.8,6.3-.12.6-.3,1.14-.54,1.56-3.06-.9-6.06-2.94-6.06-7.86s4.62-10.08,11.76-10.08c8.58,0,13.56,6.54,17.88,6.54,2.16,0,3.36-1.56,3.36-3.06,0-.72-.18-1.44-.3-1.86.42-.18.9-.36,1.44-.42.36.9.48,1.62.48,2.46ZM90.52,118.66l.9-1.68c.48.18,1.02.42,1.5.72-.36.66-.72,1.26-1.02,1.86,1.26.96,2.4,2.22,3.3,3.9h.24l3.24-6.48,4.32,2.28c1.98,1.08,4.44,1.56,6.36.3.36.06.78.36,1.02.6-1.62,3.6-3.3,7.02-4.92,9.48,3.12,1.98,6.36,5.82,6.36,11.28,0,10.68-9.72,18.3-20.22,18.3-9.3,0-21.66-3.6-21.66-19.56,0-18.3,9.06-22.5,14.4-22.5,1.98,0,4.14.42,6.18,1.5ZM92.02,157.36c10.02,0,15.12-6.9,15.12-12.84,0-5.52-2.94-8.7-5.82-10.26-1.38,1.08-2.88,2.16-4.74,3.42,1.08,1.56,1.62,3.24,1.62,5.28,0,4.44-2.88,8.58-8.1,8.58-4.26,0-7.8-2.76-7.8-6.96,0-1.56.36-3.48,1.68-5.34.48.18,1.02.48,1.44.84-.54,1.02-1.2,2.4-1.2,3.96,0,3.78,2.4,5.76,6.18,5.76,2.58,0,4.86-1.62,4.86-4.32,0-1.44-.3-2.88-4.08-5.88s-6.66-4.32-6.66-7.68c0-1.74.54-3.36,2.1-6.18l2.88-5.28c-1.32-.6-2.76-.78-4.08-.78-7.74,0-9.66,7.08-9.66,22.26,0,11.16,6.24,15.42,16.26,15.42ZM95.62,136.42c3.42-2.34,7.32-4.86,10.32-10.98l-.12-.12c-1.08.18-2.64-.06-5.22-1.2l-3.36-1.5-1.32,2.28c.48,1.08.96,2.28,1.26,3.72-.42.18-1.02.36-1.62.42-1.2-4.08-2.82-6.42-4.62-7.74-1.8,3.24-3.06,5.64-3.06,7.2,0,1.86,1.26,2.58,3.48,4.2,1.74,1.26,3.18,2.46,4.26,3.72ZM140.98,171.22c-3.06,0-6.24-2.04-6.24-5.94,0-4.26,4.14-8.82,7.32-8.82,1.86,0,3.48.9,6,2.22,3.42-3.84,6.42-7.38,6.42-12,0-8.04-7.74-14.7-12.78-14.7-3.78,0-6.84,3.3-8.58,5.7,1.68,2.34,3.06,5.16,3.06,9,0,9.36-8.04,12.42-11.58,12.42-4.26,0-7.14-2.4-7.14-5.46,0-2.58,1.62-3.96,3.48-3.96,2.34,0,3.06,1.74,3.06,3,0,1.62-1.08,2.7-1.08,3.54,0,.9,1.08,1.2,2.04,1.2,3.6,0,7.92-2.82,7.92-7.14,0-5.46-8.22-10.62-8.22-17.88s8.76-16.14,16.86-16.14c2.94,0,4.2,2.76,5.88,2.76,1.5,0,1.8-1.2,1.92-2.4.48-.06.96-.06,1.44,0,.18,3.6-2.7,6.84-7.32,6.84-1.74,0-4.74-.6-7.26-4.08-4.26,1.62-8.28,6.18-8.28,9.48,0,2.64,2.1,4.74,4.2,7.44,4.74-5.88,8.28-7.86,13.14-7.86,5.64,0,13.08,4.74,13.08,15,0,7.26-4.5,12.06-13.02,20.76-2.34-1.56-3.72-2.16-5.1-2.16-1.92,0-3.06,1.44-3.06,3.36,0,2.52,1.98,3.9,4.14,3.9,1.68,0,2.94-.72,4.26-2.4.54.24.96.54,1.38.9-1.44,2.1-3.12,3.42-5.94,3.42ZM198.64,134.32c-.42.3-.96.54-1.5.72-1.5-2.46-2.76-3.3-4.68-3.3-2.1,0-3.36,1.56-3.36,3.18,0,4.86,8.58,7.86,8.58,18.12,0,7.32-5.28,13.8-15.96,13.8-9.3,0-12.84-5.34-16.56-5.34-1.38,0-2.58.6-4.08,1.5-.42-.42-.72-.84-.9-1.38,2.88-2.04,5.04-3.42,8.16-3.42,5.4,0,10.08,6.12,16.74,6.12,6.24,0,9.9-4.02,9.9-8.1,0-8.1-10.32-12.18-10.32-19.02,0-4.62,3.54-7.62,7.56-7.62,3.12,0,5.28,1.8,6.42,4.74ZM194.92,125.68c1.5,0,2.88-1.14,2.88-3.06,0-1.32-.66-2.64-1.92-4.02.36-.42.78-.78,1.26-1.08,1.62,1.44,2.58,3.06,2.58,5.28,0,2.4-1.74,5.88-6.42,5.88-9.6,0-15-10.26-21.78-10.26-3.72,0-6.84,3.06-6.84,6.78,0,6.72,5.76,6.84,9.12,6.66.06.54.06,1.02,0,1.56-4.44.48-11.16-.6-11.16-8.16,0-6.06,4.98-9.96,11.7-9.96,11.4,0,15.36,10.38,20.58,10.38ZM242.08,131.62c-.54.06-1.32.06-1.86,0-.24-10.08-6.66-13.92-13.68-13.92-7.68,0-13.56,4.56-13.56,9.06,0,1.38.66,3,1.56,4.62l8.82-10.92c2.04,1.2,6.06,4.08,9.84,4.08.6,0,1.14-.06,1.62-.18.3.24.54.54.72.78-2.04,3.78-3.84,7.02-6.3,10.62,2.28,3.9,5.1,9.66,7.2,14.34,1.68.72,3.42.72,5.22.6.24.36.36.66.48,1.02-1.38,1.44-2.76,3.12-4.08,4.92-1.68.12-3.3.12-4.92-.48-2.82-6.84-4.5-10.62-7.08-15.6h-.36c-1.2,1.56-2.58,3.3-4.2,5.16-.24,6.78-5.7,11.58-10.62,11.58-3,0-5.94-1.62-5.94-4.5,0-1.68,1.08-3.18,3.12-3.18,1.92,0,2.94,1.2,3.3,3.06.3,1.68,1.14,2.16,1.8,2.16,1.5,0,4.86-1.62,4.86-5.88,0-5.76-8.4-12.66-8.4-19.14,0-7.44,6.96-13.98,17.16-13.98,8.04,0,15.36,4.74,15.3,15.78ZM220.84,126.4l-5.4,6.48c2.1,3.36,4.86,7.02,5.76,10.38h.24c3.42-4.26,6.78-8.58,9.48-13.62l-.24-.24c-2.82.06-6.42-1.2-9.84-3Z"/><path d="M32.98,188.02c0,3.84-2.58,5.4-2.58,7.44,0,1.44,1.38,1.86,2.76,2.1-.06.66-.18,1.26-.36,1.68-2.34-.12-5.82-1.08-5.82-5.4,0-3.9,2.82-4.86,2.82-8.04s-3.12-5.76-7.02-5.76-6.66,2.34-6.66,6.06c0,3.96,4.92,7.98,4.92,14.52,0,5.34-3.12,8.4-6.54,8.4s-5.4-1.68-6.48-5.04c.42-.3.96-.6,1.62-.72,1.26,3.42,3.36,4.08,4.92,4.08s3.18-.96,3.18-3.24c0-3.06-4.86-7.98-4.86-15.06,0-5.76,3.72-10.68,10.02-10.68s10.08,4.2,10.08,9.66ZM29.86,214.18l3.96-4.08c.48.3.96.66,1.32,1.2-2.52,2.4-5.82,5.94-8.16,8.82-5.04-3.72-9.78-6.12-13.32-6.12-2.28,0-3.66,1.14-3.66,3,0,.78.3,1.5,1.02,2.46-.54.48-.84.72-1.38.96-1.02-1.02-1.5-2.16-1.5-3.48,0-3.36,3.42-6.6,9.12-6.6,3.54,0,7.74,1.02,12.6,3.84ZM55.24,214.42c2.22-3.24,2.16-8.58,2.16-13.68,0-6.36-.54-11.52-2.04-14.46-1.86-3.66-4.44-4.68-6.66-4.68-4.74,0-7.14,3.84-7.14,7.38,0,5.52,3.42,6.96,7.38,7.5,0,.54-.12,1.14-.24,1.68-5.22-.12-9.18-3.18-9.18-8.58,0-6.84,5.16-10.14,10.38-10.14,3.9,0,7.14,1.56,9.48,4.8,2.82-3.36,6.18-5.58,10.26-5.58,3.72,0,7.44,2.28,9.18,5.04,3.18-3.24,6.66-5.4,10.98-5.4,6.96,0,11.94,7.68,15.06,7.68,1.02,0,2.1-.72,2.1-2.64.66-.06.96-.06,1.62,0v.36c0,2.76-1.98,5.64-5.94,5.94l-6.42,6.54c-.06,1.62-.12,3.24-.12,4.8v5.82c0,1.62,0,3.18.12,4.74,1.68.84,3.3,1.74,4.8,2.64l3.84-3.18c.48.3.9.72,1.26,1.14-2.58,2.16-6.48,5.76-8.7,7.92-2.1-1.26-4.26-2.4-6.6-3.54.12-1.86.18-3.72.18-5.58v-7.38c0-1.44-.06-2.88-.18-4.32l9.24-9.48v-.36c-5.52-1.32-10.08-7.8-13.74-7.8-2.4,0-4.08,1.38-6.6,3.96.96,2.58,1.02,4.32,1.02,6.6,0,4.62-1.5,12.54-3.3,18.96,4.32.48,6.48,2.46,6.48,6.18,0,.72,0,1.44-.06,2.28-2.28,0-4.5.06-6.78.3,0-.84.06-1.92,0-3-.06-2.1-.78-3.84-3.54-3.84-2.04,0-5.04,1.2-4.68,6.9-.66.12-1.32.18-1.98.12-.42-5.76,2.28-9.06,8.4-9.06h.6c.24-8.82,1.32-29.94-7.56-29.94-2.64,0-5.22,1.5-7.8,4.92,1.8,3.36,2.82,8.1,2.82,14.16,0,12.54-8.16,19.8-14.94,19.8-4.68,0-7.92-2.4-7.92-5.82,0-2.4,1.56-3.54,3.42-3.54s3.24,1.32,3.24,3.3c0,1.08-.42,1.62-.42,2.46,0,1.2.9,1.68,2.4,1.68,2.04,0,4.68-1.5,6.12-3.6ZM133.6,184.66c3.36-3.48,7.5-6.36,11.94-6.36,8.76,0,14.34,9.66,17.46,9.66,1.02,0,2.1-.66,2.1-2.58,0-.78-.18-1.56-.72-2.76.42-.24.96-.48,1.5-.6.54.96,1.08,2.04,1.08,3.54,0,2.4-2.4,6.06-6.84,6.06-.42,0-.78-.06-1.2-.12l-4.56,4.68c-.06,1.62-.12,3.24-.12,4.8v5.82c0,1.62,0,3.18.12,4.74,1.68.84,3.3,1.74,4.8,2.64l3.78-3.18c.48.3.96.72,1.32,1.14-2.52,2.1-6.48,5.76-8.7,7.92-2.1-1.26-4.26-2.4-6.6-3.54.12-1.86.18-3.72.18-5.58v-7.38c0-1.44-.06-2.88-.18-4.32l7.98-8.1v-.3c-5.16-2.34-9.84-9.3-14.34-9.3-3.36,0-6.3,3.06-8.04,4.74,1.74,3.36,2.7,7.98,2.7,13.86,0,12.54-8.16,19.8-14.94,19.8-4.68,0-7.92-2.4-7.92-5.82,0-2.4,1.56-3.54,3.42-3.54s3.24,1.32,3.24,3.3c0,1.08-.42,1.62-.42,2.46,0,1.2.9,1.68,2.4,1.68,2.04,0,4.68-1.5,6.12-3.6,2.22-3.24,2.16-8.58,2.16-13.68,0-6.36-.54-11.52-2.04-14.46-1.86-3.66-4.44-4.68-6.66-4.68-4.74,0-7.14,3.84-7.14,7.38,0,5.52,3.42,6.96,7.38,7.5,0,.54-.12,1.14-.24,1.68-5.22-.12-9.18-3.18-9.18-8.58,0-6.84,5.16-10.14,10.38-10.14,4.08,0,7.44,1.68,9.78,5.22ZM184.96,180.46c1.74,0,3.96-.24,6.66-.24,11.28,0,20.82,8.76,20.82,22.26,0,11.28-6.66,18.6-14.76,18.6s-14.82-8.7-21.24-8.7c-3.48,0-4.8,1.86-4.8,3.54s.84,2.7,1.62,3.72c-.36.42-.84.72-1.32,1.02-1.38-1.2-2.16-2.88-2.16-4.8,0-2.76,1.74-4.8,3.96-5.94v-.18c-1.86-.66-2.94-1.8-3.84-3.54.42-.36.84-.6,1.38-.84,1.44,2.4,3.06,3.36,5.94,3.36,4.86,0,6.42-3.12,6.42-4.86,0-5.34-7.56-6.12-7.56-11.16,0-3,2.28-6.24,5.16-10.14-1.8-.48-3.48-1.2-5.16-2.64.3-.48.66-.9,1.08-1.26,1.98,1.14,4.5,1.8,7.8,1.8ZM182.26,209.02c5.34,1.26,12.42,8.16,18.42,8.16,3.96,0,8.7-2.88,8.7-11.7,0-6.3-3.06-13.5-12.54-18.42-5.88-3.06-10.08-3.36-13.74-4.08-1.56,2.04-3.06,4.44-3.06,6,0,4.44,7.32,4.2,7.32,11.28,0,3.84-1.92,6.78-5.1,8.52v.24ZM223.6,195.82c-4.02-1.2-6.96-4.26-6.96-8.64,0-5.64,4.5-8.46,9.12-8.46,5.82,0,8.46,3.06,9.36,6.6,2.16-4.32,6.12-6.6,10.62-6.6,1.98,0,4.32.12,6.42.48.12.3.24.84.24,1.08-1.56,1.38-2.88,2.7-2.88,5.16,0,4.62,5.4,7.32,5.4,15.12,0,4.62-2.94,8.46-8.04,14.52-1.26,1.5-2.46,3.18-3.72,5.04l-7.74-2.04c-.24,6.72-1.02,11.28-1.98,15.06-.42.06-.9.06-1.32,0-.66-3.12-1.02-5.28-1.02-12.54v-3.66l-7.32-1.92-3.84,5.16c-.54-.12-1.14-.54-1.44-.9,2.46-3.24,4.44-6.18,6.48-9.6l6.12,1.68v-21.6c0-7.74-3.36-9.12-6.18-9.12s-6.24,1.92-6.24,6.42,3,6,5.64,7.14c-.12.6-.48,1.26-.72,1.62ZM235.48,212.5l9.18,2.46c3.24-3.84,6.18-7.02,6.18-12.24s-5.16-9.36-5.16-14.16c0-2.46,1.38-4.98,3.84-7.68l-.06-.24c-1.44-.06-2.7-.12-3.78-.12-1.32,0-6.24-.3-10.26,7.02.06.3.06.66.06.96v24Z"/><path d="M13.72,275.86c0-2.64,2.22-5.1,4.44-5.7v-.24c-1.44-.72-2.52-2.16-2.88-4.86.54-.18,1.2-.24,1.74-.3.42,1.92,1.44,4.68,4.92,4.68s5.34-2.7,5.34-4.92c0-3.96-6.18-4.98-6.18-10.8,0-3.06,2.16-6.78,5.16-10.26-1.8-.9-2.88-2.16-3.12-4.56.42-.12.96-.24,1.5-.24.54,2.28,1.92,3.12,4.74,3.12s3.84-.12,7.44-.12c6.48,0,19.14,3.96,19.14,20.46,0,2.94-.3,5.04-.78,7.08,1.5,1.32,3.24,3.3,4.98,6.3l2.58-1.98c.42.48.84,1.08,1.14,1.68-2.52,2.34-5.04,4.38-7.86,6.24-.84-2.1-1.8-4.5-2.64-6.48h-.18c-2.1,4.68-5.82,8.28-11.76,8.28-7.26,0-16.8-10.26-21.96-10.26-2.04,0-3.66.96-3.66,3.36,0,1.86,1.14,3.24,1.98,4.32-.36.42-.84.78-1.32,1.08-1.74-1.86-2.76-3.78-2.76-5.88ZM49.24,266.74c.96,0,2.46.18,4.32,1.32.12-.96.18-1.86.18-3.06,0-5.04-2.82-12.24-13.32-16.86-5.34-2.34-9.6-3.06-12.54-4.02-1.44,1.86-3,4.02-3,5.76,0,4.32,6.18,5.76,6.18,11.34,0,4.2-2.76,7.32-5.52,8.58v.24c5.52,1.56,13.74,9.72,19.26,9.72,4.44,0,6.78-4.38,7.32-6.66-1.2-2.1-2.64-3.54-4.5-3.54-1.26,0-2.04.48-3,1.2-.42-.3-.72-.72-1.02-1.14,1.62-1.86,3.72-2.88,5.64-2.88ZM89.56,248.68l10.86-7.32c2.4,3.48,4.98,7.44,9.78,8.82.12.42.12.78.12,1.2-2.88,2.34-5.58,4.32-8.34,6.24-.06,5.52.12,12.36.42,16.74,1.74.54,3.42,1.2,5.04,1.98l2.46-2.52c.54.36,1.02.72,1.32,1.2-2.34,2.16-4.44,4.38-6.6,6.66-2.34-1.02-4.2-1.68-6.78-2.58-.36-6.06-.54-12.12-.42-18.18l-.24-.18c-1.92,1.2-3.9,2.4-6,3.66-.12,10.44-7.14,17.22-15.12,17.22-4.8,0-7.98-2.34-7.98-5.4,0-2.34,1.62-3.6,3.24-3.6,2.1,0,3.06,1.5,3.06,3.18,0,1.44-.54,1.74-.54,2.82,0,.84.66,1.26,2.58,1.26,2.16,0,4.86-.48,7.02-3.12,2.28-2.82,2.94-7.98,2.94-14.46s-.42-10.86-1.68-13.8c-1.2-2.82-4.2-4.92-7.5-4.92-4.74,0-7.2,3.6-7.2,7.14,0,5.22,3.48,6.6,7.44,7.14,0,.54-.12,1.14-.24,1.68-5.22-.12-9.24-3.12-9.24-8.22,0-6.84,5.22-9.72,9.96-9.72s9.18,1.8,11.64,7.08ZM104.98,252.82c-2.82-.24-6.42-2.88-9-6.42-1.74,1.2-3.54,2.34-5.82,3.78.66,2.04,1.02,4.44,1.02,7.32v4.98c6.36-3.9,10.14-6.42,13.86-9.42l-.06-.24ZM162.16,245.32c-1.68,3.66-5.04,5.94-9.42,5.94-8.46,0-10.5-6.9-18.48-6.9-8.4,0-11.7,9.42-11.7,18.48s4.08,17.94,18.84,17.94,19.26-6.12,19.26-13.56c0-6.9-4.68-9.66-7.68-9.66-6.36,0-5.04,12.3-15.54,12.3-5.82,0-9-3.9-9-7.8,0-5.4,4.2-8.94,9.9-8.4.06.54.06,1.14,0,1.68-4.86-.12-7.86,2.64-7.86,6.18,0,4.2,3.48,5.58,5.16,5.58,6.54,0,4.44-11.94,15.12-11.94,6.78,0,11.88,4.44,11.88,11.64,0,10.98-9.18,16.56-22.02,16.56-18.78,0-24.06-10.92-24.06-19.32,0-15.78,12.6-22.14,21.12-22.14,11.22,0,14.28,5.88,18.12,5.88,2.28,0,3.84-1.68,4.98-3.36.54.24.96.54,1.38.9ZM168.94,277.9c0-3.24,3-6.42,7.5-6.42,3.54,0,6.72,1.32,9.78,2.76,2.1-1.56,4.92-3.54,4.86-6.18-.06-5.52-9.42-4.32-9.42-11.4,0-2.82,1.98-5.94,4.92-8.88-2.88-1.56-5.64-2.88-7.92-2.88-4.38,0-6,3.24-6,5.58,0,2.52,1.38,4.68,4.68,6.54-.24.54-.54.96-.9,1.38-3.36-1.5-5.7-3.78-5.7-7.68,0-4.38,3.9-8.88,11.7-8.88,7.14,0,15.06,7.08,19.44,7.08,1.5,0,2.94-.78,2.94-2.94,0-1.44-.54-2.22-1.26-3.06.36-.42.78-.72,1.26-1.02,1.26,1.14,1.98,2.58,1.98,4.38,0,2.46-2.34,5.82-8.28,5.82-3.42,0-6.96-1.74-10.38-3.54-2.04,1.98-3.06,3.66-3.06,5.28,0,5.34,9.42,4.92,9.42,12.06,0,4.14-3.24,6.66-6.6,9.18,3.48,1.68,6.9,3.36,10.74,3.36,4.5,0,7.26-3.3,7.26-6.6,0-.72-.06-1.8-.36-2.94.66-.24,1.26-.36,1.8-.36.36,1.5.42,2.16.42,3.24,0,4.68-4.38,9.78-12.3,9.78-9.18,0-17.22-6.78-21.42-6.78-2.16,0-3.24,1.56-3.24,3.06,0,1.74,1.08,2.46,2.16,3.06-.24.54-.6,1.02-.96,1.38-2.28-.96-3.06-2.52-3.06-4.38ZM218.98,272.38v-21.36c-1.44-1.38-2.4-2.34-3.48-2.34-.78,0-1.56.42-2.16,1.38-.48-.24-.72-.36-1.08-.72.9-1.68,1.74-2.34,4.68-3.36,1.92-.72,2.58-1.32,3.18-3.06.42-.06.78-.06,1.2,0,.84,2.88,3.66,4.62,7.44,4.08.12.54.18.84.18,1.38-1.68.6-3.06,1.14-4.98,2.34v21.84c2.34.54,4.62,1.74,6.72,3.72,2.7-1.8,4.92-3.12,7.5-3.66v-21.18c-1.2-1.74-2.46-2.58-4.5-2.88-.12-.42-.12-.96-.06-1.5,2.16-.3,5.46-1.02,7.5-4.32.42-.06.78-.06,1.2,0,.54,2.28,1.8,4.14,5.58,4.08.18.54.24,1.14.24,1.62-2.1.78-3.42,1.26-5.04,2.16v21.96c1.8.48,3.24,1.5,4.5,2.64l1.68-1.92c.48.3.96.66,1.32,1.08l-6,7.32c-.42-.06-.84-.12-1.14-.3-1.5-2.82-3.96-4.92-6.84-4.92-3.48,0-7.44,2.64-10.08,5.76-.48,0-.84,0-1.2-.12-1.62-3.24-3.84-5.04-7.08-5.04-2.52,0-3.9,1.32-5.22,2.76-.48-.18-.84-.48-1.2-.78,1.44-3.48,3.72-6.06,7.14-6.66Z"/><path d="M17.5,331.48h.48c1.38-.78,2.64-1.56,3.42-2.94,1.02-1.86.96-5.16.96-9.54s.12-6.78-1.02-9.06c-.84-1.68-3-3.18-6.36-3.18-4.44,0-7.08,3.6-7.08,6.78,0,2.7,1.44,4.56,4.26,5.76-.18.6-.36,1.08-.66,1.56-4.02-1.32-5.64-4.08-5.64-7.38s2.46-8.76,10.62-8.76c3.72,0,6.78,1.8,8.88,4.44.36.48.66.96.96,1.5,4.86-4.8,7.38-6.54,10.5-6.54,5.16,0,9.84,6.42,13.26,6.42.96,0,1.86-.78,1.86-1.92,0-.9-.54-1.86-1.08-2.58.36-.36.84-.72,1.32-.96.9.84,1.68,1.92,1.68,3.66,0,2.04-1.5,3.84-3.78,4.5v.18c1.62.42,3.18,1.62,3.18,3.96,0,.96-.18,1.68-.42,2.34-.54,0-1.08-.12-1.56-.3.18-.84.24-1.2.24-1.92,0-1.32-1.32-2.88-3.66-2.88s-3.6,1.92-3.6,3.42c0,4.26,7.32,6.36,7.32,13.14,0,6.36-3.84,13.26-13.44,13.26-10.8,0-18.24-9.3-23.1-9.3-2.1,0-4.86,1.56-4.86,6.3-.6.12-1.14.12-1.74,0-.54-7.44,4.92-9.96,9.06-9.96ZM20.44,331.96c6.78,2.04,14.4,9.9,20.64,9.9,3.36,0,7.32-2.76,7.32-6.72,0-4.62-7.02-9.3-7.02-14.7,0-2.82,1.56-5.7,4.26-6.96v-.18c-5.52-1.02-8.04-5.34-11.88-5.34-2.04,0-4.38,1.98-6.66,4.62.36,1.44.54,3.06.54,4.98,0,3.84.06,6.48-1.74,9.12-1.02,1.5-2.7,3.24-5.46,5.04v.24ZM69.88,333.82c5.88-3.42,6.42-5.7,6.42-9,0-10.44-2.46-18.3-9.06-18.3-4.02,0-6.9,2.82-6.9,6.78,0,4.38,3.72,5.82,6.84,6.24.06.54,0,1.14-.12,1.68-3.54-.06-8.64-2.1-8.64-7.68,0-6.6,5.7-9.18,10.56-9.18s8.1,2.4,9.48,4.86h.18c1.56-3.3,4.56-5.16,7.92-5.16,3.54,0,5.94,2.34,8.76,4.32h.18c.06-1.02.06-2.16-.12-3.36.6-.12,1.14-.18,1.74-.18.18,1.2.24,2.46.12,3.48l.18.06c2.76-2.22,7.14-4.44,10.86-4.44,7.08,0,10.5,5.94,13.86,5.94,1.8,0,2.22-.96,2.34-2.64.54-.06,1.08-.06,1.62,0,.12,2.94-1.44,6-6.48,6-.36,0-.72,0-1.08-.06-2.1,1.44-3.24,2.64-3.24,4.32,0,5.04,8.46,3.6,8.46,15.12,0,10.74-8.64,11.28-12.42,11.28-4.14,0-9.3-1.86-13.2-4.62-3.12,3.42-7.56,4.56-11.28,4.56-8.04,0-15.6-6.78-19.98-6.78-2.7,0-4.86,1.74-4.8,5.58-.54.12-1.08.12-1.62.12-.36-4.32,1.74-8.94,9.42-8.94ZM72.64,334.18c5.82,1.44,13.74,6.54,18.06,6.54s8.94-3.42,8.94-8.58-8.28-7.38-8.28-10.92c0-2.1,2.46-4.44,3.84-11.16-3.06-1.5-4.86-2.28-7.62-2.28-3.9,0-7.2,1.44-8.28,3.18,1.02,2.82,1.74,7.14,1.74,11.76,0,5.76-3.48,7.86-8.4,11.16v.3ZM100.96,334.66c5.46,3.36,10.02,6.24,14.04,6.24s6.84-2.16,6.84-5.4c0-7.08-9.6-10.26-9.6-15.42,0-2.7,1.68-5.04,4.56-7.14v-.18c-4.14-1.44-7.26-5.58-12.3-5.58-3.18,0-5.46,1.68-7.56,2.94-.6,2.64-1.56,5.22-1.56,6.48,0,3.18,6.78,4.5,6.78,11.64,0,1.74-.12,3.84-1.2,6.42ZM156.34,323.5c2.1,0,3.6-.84,4.8-2.7.42-.06.78-.06,1.2,0,.9,1.56,1.44,1.8,2.52,2.34.06.42.06.84,0,1.2-1.26.9-1.86,1.68-2.52,2.88-3.42-.18-6.84-1.74-8.94-3.54l-.24.06c2.04,9.66,6.54,12.84,9.66,14.7,2.52-.54,4.08-1.08,6.84-2.46.36.48.6.96.72,1.56-2.64,1.38-4.26,1.98-5.88,3s-2.46,1.62-4.02,3.54c-3.9-2.94-6.42-4.86-9.06-11.64h-.18c-1.98,10.02-9.6,11.64-12.36,11.64-3.54,0-5.58-2.1-5.58-4.5,0-2.16,1.56-3.54,3.42-3.54s2.76,1.2,2.94,2.46c.18,1.38-.06,3,1.92,3,3.48,0,8.58-4.74,8.58-11.34,0-1.02-.12-2.1-.36-3.18-.42-1.8-2.4-2.52-4.14-2.52-2.1,0-3.6.84-4.8,2.7-.42.06-.78.06-1.2,0-.9-1.56-1.38-1.8-2.52-2.34-.06-.42-.06-.78,0-1.2,1.26-.9,1.86-1.68,2.52-2.88,3.42.18,7.14,1.74,9.24,3.54l.24-.06c-1.8-7.32-4.92-12.3-10.44-15.24-1.8.9-3.18,1.44-4.92,2.4-.42-.42-.72-.84-.9-1.38,1.86-1.32,2.88-1.86,4.2-2.88,1.26-1.02,2.04-1.74,3.72-3.42,3.9,2.58,8.04,6.54,10.32,13.32h.24c1.08-7.32,4.86-13.14,13.02-13.14,1.68,0,2.82.18,3.48.42-.06.72-.12,1.2-.12,1.74,0,2.28.36,3.36,2.76,3.3.12.54.24,1.02.24,1.56-1.8.48-3.18.72-4.5.72s-4.14-.42-4.14-5.34v-.6h-.42c-4.56,0-9.18,6.48-9,13.56.06,3.6,1.92,4.26,3.66,4.26ZM176.92,338.98c0-3.24,3.36-6.3,8.64-6.3h.78c4.02-2.94,6.6-4.08,6.6-11.4,0-12.18-3.36-15.84-8.22-15.84-3.24,0-6.78,1.68-6.78,6.24,0,3.72,2.16,5.88,5.58,5.88,1.14,0,1.8-.12,2.7-.24.12.54.18,1.14.18,1.68-.96.24-2.04.36-3,.36-3.54,0-7.5-1.92-7.5-7.38,0-6.48,5.7-8.46,9.48-8.46,4.14,0,8.04,1.86,9.72,5.58h.18c1.92-4.2,5.46-5.76,8.94-5.76,7.32,0,13.02,5.52,13.02,19.44,0,22.2-14.64,33.54-24.36,33.54-4.98,0-9.84-2.1-9.84-6.48,0-1.74,1.14-3.48,3.18-3.48,1.56,0,3.06,1.02,3.06,3.06,0,1.32-.36,1.74-.36,2.76,0,1.32,1.26,2.16,4.44,2.16,4.32,0,10.8-2.88,15.24-11.52,3-5.88,2.94-12.84,2.94-20.28,0-6.24-.66-10.98-2.1-13.74-1.32-2.58-3.6-3.6-6-3.6-4.68,0-6.42,3.78-6.42,6.54s.84,4.98.84,9.36c0,4.14-2.34,7.2-8.94,11.7v.18c2.64.54,5.76,1.62,9.18,3.78l5.88-5.16c.48.36.9.84,1.26,1.32-3.66,3.06-7.02,6.12-10.5,9.48-4.32-3.9-8.64-6.48-12.06-6.48-2.28,0-3.96,1.14-3.96,3.18,0,.72.24,1.32.72,1.86-.36.42-.78.72-1.26,1.02-.84-.78-1.26-1.86-1.26-3ZM236.56,327.52v-.24c-2.64-.84-4.98-2.52-4.98-5.94,0-2.04,1.08-3.84,3.18-3.84,1.68,0,2.58,1.2,2.58,2.46,0,2.52-2.76,2.16-2.76,3.72,0,1.32,1.92,2.88,5.94,2.88s9.24-2.64,9.06-11.1c-.12-6.72-3.72-11.1-10.98-11.1s-11.76,4.32-12.72,9.66c-.6,0-1.38-.12-1.86-.3,1.08-6.54,6.54-11.4,15.24-11.4s15.6,5.04,15.6,12.84c0,6.3-4.68,10.32-9.96,11.94v.24c5.7,1.08,11.16,4.56,11.16,13.5,0,6.54-5.28,13.74-14.28,13.74-4.68,0-6.78-2.04-8.76-2.04-.96,0-1.92.24-3.06.9-1.56-2.04-2.7-3.72-4.38-3.72-1.2,0-2.28.66-2.28,2.04,0,1.08.72,1.74,1.32,2.34-.36.42-.72.84-1.2,1.14-1.32-.9-1.86-2.16-1.86-3.12,0-1.08,0-3.18,4.5-5.22,1.98-.9,3-1.56,4.14-2.4,1.8,2.76,5.4,8.4,11.88,8.4,5.76,0,8.76-3.84,8.76-11.7,0-9.24-3.96-12.72-10.32-12.72-4.02,0-7.56,1.68-9.72,6.06-.54-.18-1.26-.48-1.68-.78,1.44-3,3.9-5.22,7.44-6.24Z"/><line class="cls-1" x1=".26" y1="34.83" x2="261.81" y2="34.83"/><path class="cls-2" d="M261.71,36.54c.01.07.01.15,0,.22-.31.14-.46.32-.55.57-.08,0-.16,0-.24,0-.09-.25-.24-.43-.55-.57-.01-.07-.01-.15,0-.22.31-.14.46-.32.55-.57.08,0,.16,0,.24,0,.09.25.24.43.55.57Z"/><path class="cls-2" d="M260.18,36.54c.01.07.01.15,0,.22-.31.14-.46.32-.55.57-.08,0-.16,0-.24,0-.09-.25-.24-.43-.55-.57,0-.07,0-.15,0-.22.31-.14.46-.32.55-.57.08,0,.16,0,.24,0,.09.25.24.43.55.57Z"/><path class="cls-2" d="M258.65,36.54c.01.07.01.15,0,.22-.31.14-.46.32-.55.57-.08,0-.16,0-.24,0-.09-.25-.24-.43-.55-.57-.01-.07-.01-.15,0-.22.31-.14.46-.32.55-.57.08,0,.16,0,.24,0,.09.25.24.43.55.57Z"/><path class="cls-2" d="M257.12,36.54c.01.07.01.15,0,.22-.31.14-.46.32-.55.57-.08,0-.16,0-.24,0-.09-.25-.24-.43-.55-.57-.01-.07-.01-.15,0-.22.31-.14.46-.32.55-.57.08,0,.16,0,.24,0,.09.25.24.43.55.57Z"/><path class="cls-2" d="M255.59,36.54c.01.07.01.15,0,.22-.31.14-.46.32-.55.57-.08,0-.16,0-.24,0-.09-.25-.24-.43-.55-.57,0-.07,0-.15,0-.22.31-.14.46-.32.55-.57.08,0,.16,0,.24,0,.09.25.24.43.55.57Z"/><path class="cls-2" d="M254.06,36.54c.01.07.01.15,0,.22-.31.14-.46.32-.55.57-.08,0-.16,0-.24,0-.09-.25-.24-.43-.55-.57-.01-.07-.01-.15,0-.22.31-.14.46-.32.55-.57.08,0,.16,0,.24,0,.09.25.24.43.55.57Z"/><path class="cls-2" d="M252.53,36.54c.01.07.01.15,0,.22-.31.14-.46.32-.55.57-.08,0-.16,0-.24,0-.09-.25-.24-.43-.55-.57,0-.07,0-.15,0-.22.31-.14.46-.32.55-.57.08,0,.16,0,.24,0,.09.25.24.43.55.57Z"/><path class="cls-2" d="M251,36.54c.01.07.01.15,0,.22-.31.14-.46.32-.55.57-.08,0-.16,0-.24,0-.09-.25-.24-.43-.55-.57,0-.07,0-.15,0-.22.31-.14.46-.32.55-.57.08,0,.16,0,.24,0,.09.25.24.43.55.57Z"/><path class="cls-2" d="M249.47,36.54c.01.07.01.15,0,.22-.31.14-.46.32-.55.57-.08,0-.16,0-.24,0-.09-.25-.24-.43-.55-.57-.01-.07-.01-.15,0-.22.31-.14.46-.32.55-.57.08,0,.16,0,.24,0,.09.25.24.43.55.57Z"/><path class="cls-2" d="M247.94,36.54c.01.07.01.15,0,.22-.31.14-.46.32-.55.57-.08,0-.16,0-.24,0-.09-.25-.24-.43-.55-.57,0-.07,0-.15,0-.22.31-.14.46-.32.55-.57.08,0,.16,0,.24,0,.09.25.24.43.55.57Z"/><path class="cls-2" d="M246.41,36.54c.01.07.01.15,0,.22-.31.14-.46.32-.55.57-.08,0-.16,0-.24,0-.09-.25-.24-.43-.55-.57-.01-.07-.01-.15,0-.22.31-.14.46-.32.55-.57.08,0,.16,0,.24,0,.09.25.24.43.55.57Z"/><path class="cls-2" d="M244.88,36.54c.01.07.01.15,0,.22-.31.14-.46.32-.55.57-.08,0-.16,0-.24,0-.09-.25-.24-.43-.55-.57,0-.07,0-.15,0-.22.31-.14.46-.32.55-.57.08,0,.16,0,.24,0,.09.25.24.43.55.57Z"/><path class="cls-2" d="M243.35,36.54c.01.07.01.15,0,.22-.31.14-.46.32-.55.57-.08,0-.16,0-.24,0-.09-.25-.24-.43-.55-.57,0-.07,0-.15,0-.22.31-.14.46-.32.55-.57.08,0,.16,0,.24,0,.09.25.24.43.55.57Z"/><path class="cls-2" d="M241.82,36.54c.01.07.01.15,0,.22-.31.14-.46.32-.55.57-.08,0-.16,0-.24,0-.09-.25-.24-.43-.55-.57-.01-.07-.01-.15,0-.22.31-.14.46-.32.55-.57.08,0,.16,0,.24,0,.09.25.24.43.55.57Z"/><path class="cls-2" d="M240.29,36.54c.01.07.01.15,0,.22-.31.14-.46.32-.55.57-.08,0-.16,0-.24,0-.09-.25-.24-.43-.55-.57,0-.07,0-.15,0-.22.31-.14.46-.32.55-.57.08,0,.16,0,.24,0,.09.25.24.43.55.57Z"/><path class="cls-2" d="M238.76,36.54c.01.07.01.15,0,.22-.31.14-.46.32-.55.57-.08,0-.16,0-.24,0-.09-.25-.24-.43-.55-.57-.01-.07-.01-.15,0-.22.31-.14.46-.32.55-.57.08,0,.16,0,.24,0,.09.25.24.43.55.57Z"/><path class="cls-2" d="M237.23,36.54c.01.07.01.15,0,.22-.31.14-.46.32-.55.57-.08,0-.16,0-.24,0-.09-.25-.24-.43-.55-.57-.01-.07-.01-.15,0-.22.31-.14.46-.32.55-.57.08,0,.16,0,.24,0,.09.25.24.43.55.57Z"/><path class="cls-2" d="M235.7,36.54c.01.07.01.15,0,.22-.31.14-.46.32-.55.57-.08,0-.16,0-.24,0-.09-.25-.24-.43-.55-.57,0-.07,0-.15,0-.22.31-.14.46-.32.55-.57.08,0,.16,0,.24,0,.09.25.24.43.55.57Z"/><path class="cls-2" d="M234.17,36.54c.01.07.01.15,0,.22-.31.14-.46.32-.55.57-.08,0-.16,0-.24,0-.09-.25-.24-.43-.55-.57-.01-.07-.01-.15,0-.22.31-.14.46-.32.55-.57.08,0,.16,0,.24,0,.09.25.24.43.55.57Z"/><path class="cls-2" d="M232.64,36.54c.01.07.01.15,0,.22-.31.14-.46.32-.55.57-.08,0-.16,0-.24,0-.09-.25-.24-.43-.55-.57,0-.07,0-.15,0-.22.31-.14.46-.32.55-.57.08,0,.16,0,.24,0,.09.25.24.43.55.57Z"/><path class="cls-2" d="M231.11,36.54c.01.07.01.15,0,.22-.31.14-.46.32-.55.57-.08,0-.16,0-.24,0-.09-.25-.24-.43-.55-.57,0-.07,0-.15,0-.22.31-.14.46-.32.55-.57.08,0,.16,0,.24,0,.09.25.24.43.55.57Z"/><path class="cls-2" d="M229.58,36.54c.01.07.01.15,0,.22-.31.14-.46.32-.55.57-.08,0-.16,0-.24,0-.09-.25-.24-.43-.55-.57-.01-.07-.01-.15,0-.22.31-.14.46-.32.55-.57.08,0,.16,0,.24,0,.09.25.24.43.55.57Z"/><path class="cls-2" d="M228.05,36.54c.01.07.01.15,0,.22-.31.14-.46.32-.55.57-.08,0-.16,0-.24,0-.09-.25-.24-.43-.55-.57,0-.07,0-.15,0-.22.31-.14.46-.32.55-.57.08,0,.16,0,.24,0,.09.25.24.43.55.57Z"/><path class="cls-2" d="M226.52,36.54c.01.07.01.15,0,.22-.31.14-.46.32-.55.57-.08,0-.16,0-.24,0-.09-.25-.24-.43-.55-.57-.01-.07-.01-.15,0-.22.31-.14.46-.32.55-.57.08,0,.16,0,.24,0,.09.25.24.43.55.57Z"/><path class="cls-2" d="M224.99,36.54c.01.07.01.15,0,.22-.31.14-.46.32-.55.57-.08,0-.16,0-.24,0-.09-.25-.24-.43-.55-.57,0-.07,0-.15,0-.22.31-.14.46-.32.55-.57.08,0,.16,0,.24,0,.09.25.24.43.55.57Z"/><path class="cls-2" d="M223.46,36.54c.01.07.01.15,0,.22-.31.14-.46.32-.55.57-.08,0-.16,0-.24,0-.09-.25-.24-.43-.55-.57,0-.07,0-.15,0-.22.31-.14.46-.32.55-.57.08,0,.16,0,.24,0,.09.25.24.43.55.57Z"/><path class="cls-2" d="M221.93,36.54c.01.07.01.15,0,.22-.31.14-.46.32-.55.57-.08,0-.16,0-.24,0-.09-.25-.24-.43-.55-.57-.01-.07-.01-.15,0-.22.31-.14.46-.32.55-.57.08,0,.16,0,.24,0,.09.25.24.43.55.57Z"/><path class="cls-2" d="M220.4,36.54c.01.07.01.15,0,.22-.31.14-.46.32-.55.57-.08,0-.16,0-.24,0-.09-.25-.24-.43-.55-.57,0-.07,0-.15,0-.22.31-.14.46-.32.55-.57.08,0,.16,0,.24,0,.09.25.24.43.55.57Z"/><path class="cls-2" d="M218.87,36.54c.01.07.01.15,0,.22-.31.14-.46.32-.55.57-.08,0-.16,0-.24,0-.09-.25-.24-.43-.55-.57-.01-.07-.01-.15,0-.22.31-.14.46-.32.55-.57.08,0,.16,0,.24,0,.09.25.24.43.55.57Z"/><path class="cls-2" d="M217.34,36.54c.01.07.01.15,0,.22-.31.14-.46.32-.55.57-.08,0-.16,0-.24,0-.09-.25-.24-.43-.55-.57-.01-.07-.01-.15,0-.22.31-.14.46-.32.55-.57.08,0,.16,0,.24,0,.09.25.24.43.55.57Z"/><path class="cls-2" d="M215.81,36.54c.01.07.01.15,0,.22-.31.14-.46.32-.55.57-.08,0-.16,0-.24,0-.09-.25-.24-.43-.55-.57,0-.07,0-.15,0-.22.31-.14.46-.32.55-.57.08,0,.16,0,.24,0,.09.25.24.43.55.57Z"/><path class="cls-2" d="M214.28,36.54c.01.07.01.15,0,.22-.31.14-.46.32-.55.57-.08,0-.16,0-.24,0-.09-.25-.24-.43-.55-.57-.01-.07-.01-.15,0-.22.31-.14.46-.32.55-.57.08,0,.16,0,.24,0,.09.25.24.43.55.57Z"/><path class="cls-2" d="M212.75,36.54c.01.07.01.15,0,.22-.31.14-.46.32-.55.57-.08,0-.16,0-.24,0-.09-.25-.24-.43-.55-.57,0-.07,0-.15,0-.22.31-.14.46-.32.55-.57.08,0,.16,0,.24,0,.09.25.24.43.55.57Z"/><path class="cls-2" d="M211.22,36.54c.01.07.01.15,0,.22-.31.14-.46.32-.55.57-.08,0-.16,0-.24,0-.09-.25-.24-.43-.55-.57-.01-.07-.01-.15,0-.22.31-.14.46-.32.55-.57.08,0,.16,0,.24,0,.09.25.24.43.55.57Z"/><path class="cls-2" d="M209.69,36.54c.01.07.01.15,0,.22-.31.14-.46.32-.55.57-.08,0-.16,0-.24,0-.09-.25-.24-.43-.55-.57-.01-.07-.01-.15,0-.22.31-.14.46-.32.55-.57.08,0,.16,0,.24,0,.09.25.24.43.55.57Z"/><path class="cls-2" d="M208.16,36.54c.01.07.01.15,0,.22-.31.14-.46.32-.55.57-.08,0-.16,0-.24,0-.09-.25-.24-.43-.55-.57,0-.07,0-.15,0-.22.31-.14.46-.32.55-.57.08,0,.16,0,.24,0,.09.25.24.43.55.57Z"/><path class="cls-2" d="M206.63,36.54c.01.07.01.15,0,.22-.31.14-.46.32-.55.57-.08,0-.16,0-.24,0-.09-.25-.24-.43-.55-.57-.01-.07-.01-.15,0-.22.31-.14.46-.32.55-.57.08,0,.16,0,.24,0,.09.25.24.43.55.57Z"/><path class="cls-2" d="M205.1,36.54c.01.07.01.15,0,.22-.31.14-.46.32-.55.57-.08,0-.16,0-.24,0-.09-.25-.24-.43-.55-.57,0-.07,0-.15,0-.22.31-.14.46-.32.55-.57.08,0,.16,0,.24,0,.09.25.24.43.55.57Z"/><path class="cls-2" d="M203.57,36.54c.01.07.01.15,0,.22-.31.14-.46.32-.55.57-.08,0-.16,0-.24,0-.09-.25-.24-.43-.55-.57,0-.07,0-.15,0-.22.31-.14.46-.32.55-.57.08,0,.16,0,.24,0,.09.25.24.43.55.57Z"/><path class="cls-2" d="M202.04,36.54c.01.07.01.15,0,.22-.31.14-.46.32-.55.57-.08,0-.16,0-.24,0-.09-.25-.24-.43-.55-.57-.01-.07-.01-.15,0-.22.31-.14.46-.32.55-.57.08,0,.16,0,.24,0,.09.25.24.43.55.57Z"/><path class="cls-2" d="M200.51,36.54c.01.07.01.15,0,.22-.31.14-.46.32-.55.57-.08,0-.16,0-.24,0-.09-.25-.24-.43-.55-.57,0-.07,0-.15,0-.22.31-.14.46-.32.55-.57.08,0,.16,0,.24,0,.09.25.24.43.55.57Z"/><path class="cls-2" d="M198.98,36.54c.01.07.01.15,0,.22-.31.14-.46.32-.55.57-.08,0-.16,0-.24,0-.09-.25-.24-.43-.55-.57-.01-.07-.01-.15,0-.22.31-.14.46-.32.55-.57.08,0,.16,0,.24,0,.09.25.24.43.55.57Z"/><path class="cls-2" d="M197.45,36.54c.01.07.01.15,0,.22-.31.14-.46.32-.55.57-.08,0-.16,0-.24,0-.09-.25-.24-.43-.55-.57,0-.07,0-.15,0-.22.31-.14.46-.32.55-.57.08,0,.16,0,.24,0,.09.25.24.43.55.57Z"/><path class="cls-2" d="M195.92,36.54c.01.07.01.15,0,.22-.31.14-.46.32-.55.57-.08,0-.16,0-.24,0-.09-.25-.24-.43-.55-.57,0-.07,0-.15,0-.22.31-.14.46-.32.55-.57.08,0,.16,0,.24,0,.09.25.24.43.55.57Z"/><path class="cls-2" d="M194.39,36.54c.01.07.01.15,0,.22-.31.14-.46.32-.55.57-.08,0-.16,0-.24,0-.09-.25-.24-.43-.55-.57-.01-.07-.01-.15,0-.22.31-.14.46-.32.55-.57.08,0,.16,0,.24,0,.09.25.24.43.55.57Z"/><path class="cls-2" d="M192.86,36.54c.01.07.01.15,0,.22-.31.14-.46.32-.55.57-.08,0-.16,0-.24,0-.09-.25-.24-.43-.55-.57,0-.07,0-.15,0-.22.31-.14.46-.32.55-.57.08,0,.16,0,.24,0,.09.25.24.43.55.57Z"/><path class="cls-2" d="M191.33,36.54c.01.07.01.15,0,.22-.31.14-.46.32-.55.57-.08,0-.16,0-.24,0-.09-.25-.24-.43-.55-.57-.01-.07-.01-.15,0-.22.31-.14.46-.32.55-.57.08,0,.16,0,.24,0,.09.25.24.43.55.57Z"/><path class="cls-2" d="M189.8,36.54c.01.07.01.15,0,.22-.31.14-.46.32-.55.57-.08,0-.16,0-.24,0-.09-.25-.24-.43-.55-.57-.01-.07-.01-.15,0-.22.31-.14.46-.32.55-.57.08,0,.16,0,.24,0,.09.25.24.43.55.57Z"/><path class="cls-2" d="M188.27,36.54c.01.07.01.15,0,.22-.31.14-.46.32-.55.57-.08,0-.16,0-.24,0-.09-.25-.24-.43-.55-.57,0-.07,0-.15,0-.22.31-.14.46-.32.55-.57.08,0,.16,0,.24,0,.09.25.24.43.55.57Z"/><path class="cls-2" d="M186.74,36.54c.01.07.01.15,0,.22-.31.14-.46.32-.55.57-.08,0-.16,0-.24,0-.09-.25-.24-.43-.55-.57-.01-.07-.01-.15,0-.22.31-.14.46-.32.55-.57.08,0,.16,0,.24,0,.09.25.24.43.55.57Z"/><path class="cls-2" d="M185.21,36.54c.01.07.01.15,0,.22-.31.14-.46.32-.55.57-.08,0-.16,0-.24,0-.09-.25-.24-.43-.55-.57,0-.07,0-.15,0-.22.31-.14.46-.32.55-.57.08,0,.16,0,.24,0,.09.25.24.43.55.57Z"/><path class="cls-2" d="M183.68,36.54c.01.07.01.15,0,.22-.31.14-.46.32-.55.57-.08,0-.16,0-.24,0-.09-.25-.24-.43-.55-.57-.01-.07-.01-.15,0-.22.31-.14.46-.32.55-.57.08,0,.16,0,.24,0,.09.25.24.43.55.57Z"/><path class="cls-2" d="M182.15,36.54c.01.07.01.15,0,.22-.31.14-.46.32-.55.57-.08,0-.16,0-.24,0-.09-.25-.24-.43-.55-.57-.01-.07-.01-.15,0-.22.31-.14.46-.32.55-.57.08,0,.16,0,.24,0,.09.25.24.43.55.57Z"/><path class="cls-2" d="M180.62,36.54c.01.07.01.15,0,.22-.31.14-.46.32-.55.57-.08,0-.16,0-.24,0-.09-.25-.24-.43-.55-.57,0-.07,0-.15,0-.22.31-.14.46-.32.55-.57.08,0,.16,0,.24,0,.09.25.24.43.55.57Z"/><path class="cls-2" d="M179.09,36.54c.01.07.01.15,0,.22-.31.14-.46.32-.55.57-.08,0-.16,0-.24,0-.09-.25-.24-.43-.55-.57-.01-.07-.01-.15,0-.22.31-.14.46-.32.55-.57.08,0,.16,0,.24,0,.09.25.24.43.55.57Z"/><path class="cls-2" d="M177.56,36.54c.01.07.01.15,0,.22-.31.14-.46.32-.55.57-.08,0-.16,0-.24,0-.09-.25-.24-.43-.55-.57,0-.07,0-.15,0-.22.31-.14.46-.32.55-.57.08,0,.16,0,.24,0,.09.25.24.43.55.57Z"/><path class="cls-2" d="M176.03,36.54c.01.07.01.15,0,.22-.31.14-.46.32-.55.57-.08,0-.16,0-.24,0-.09-.25-.24-.43-.55-.57,0-.07,0-.15,0-.22.31-.14.46-.32.55-.57.08,0,.16,0,.24,0,.09.25.24.43.55.57Z"/><path class="cls-2" d="M174.5,36.54c.01.07.01.15,0,.22-.31.14-.46.32-.55.57-.08,0-.16,0-.24,0-.09-.25-.24-.43-.55-.57-.01-.07-.01-.15,0-.22.31-.14.46-.32.55-.57.08,0,.16,0,.24,0,.09.25.24.43.55.57Z"/><path class="cls-2" d="M172.97,36.54c.01.07.01.15,0,.22-.31.14-.46.32-.55.57-.08,0-.16,0-.24,0-.09-.25-.24-.43-.55-.57,0-.07,0-.15,0-.22.31-.14.46-.32.55-.57.08,0,.16,0,.24,0,.09.25.24.43.55.57Z"/><path class="cls-2" d="M171.44,36.54c.01.07.01.15,0,.22-.31.14-.46.32-.55.57-.08,0-.16,0-.24,0-.09-.25-.24-.43-.55-.57-.01-.07-.01-.15,0-.22.31-.14.46-.32.55-.57.08,0,.16,0,.24,0,.09.25.24.43.55.57Z"/><path class="cls-2" d="M169.91,36.54c.01.07.01.15,0,.22-.31.14-.46.32-.55.57-.08,0-.16,0-.24,0-.09-.25-.24-.43-.55-.57,0-.07,0-.15,0-.22.31-.14.46-.32.55-.57.08,0,.16,0,.24,0,.09.25.24.43.55.57Z"/><path class="cls-2" d="M168.38,36.54c.01.07.01.15,0,.22-.31.14-.46.32-.55.57-.08,0-.16,0-.24,0-.09-.25-.24-.43-.55-.57,0-.07,0-.15,0-.22.31-.14.46-.32.55-.57.08,0,.16,0,.24,0,.09.25.24.43.55.57Z"/><path class="cls-2" d="M166.85,36.54c.01.07.01.15,0,.22-.31.14-.46.32-.55.57-.08,0-.16,0-.24,0-.09-.25-.24-.43-.55-.57-.01-.07-.01-.15,0-.22.31-.14.46-.32.55-.57.08,0,.16,0,.24,0,.09.25.24.43.55.57Z"/><path class="cls-2" d="M165.32,36.54c.01.07.01.15,0,.22-.31.14-.46.32-.55.57-.08,0-.16,0-.24,0-.09-.25-.24-.43-.55-.57,0-.07,0-.15,0-.22.31-.14.46-.32.55-.57.08,0,.16,0,.24,0,.09.25.24.43.55.57Z"/><path class="cls-2" d="M163.79,36.54c.01.07.01.15,0,.22-.31.14-.46.32-.55.57-.08,0-.16,0-.24,0-.09-.25-.24-.43-.55-.57-.01-.07-.01-.15,0-.22.31-.14.46-.32.55-.57.08,0,.16,0,.24,0,.09.25.24.43.55.57Z"/><path class="cls-2" d="M162.26,36.54c.01.07.01.15,0,.22-.31.14-.46.32-.55.57-.08,0-.16,0-.24,0-.09-.25-.24-.43-.55-.57-.01-.07-.01-.15,0-.22.31-.14.46-.32.55-.57.08,0,.16,0,.24,0,.09.25.24.43.55.57Z"/><path class="cls-2" d="M160.73,36.54c.01.07.01.15,0,.22-.31.14-.46.32-.55.57-.08,0-.16,0-.24,0-.09-.25-.24-.43-.55-.57,0-.07,0-.15,0-.22.31-.14.46-.32.55-.57.08,0,.16,0,.24,0,.09.25.24.43.55.57Z"/><path class="cls-2" d="M159.2,36.54c.01.07.01.15,0,.22-.31.14-.46.32-.55.57-.08,0-.16,0-.24,0-.09-.25-.24-.43-.55-.57-.01-.07-.01-.15,0-.22.31-.14.46-.32.55-.57.08,0,.16,0,.24,0,.09.25.24.43.55.57Z"/><path class="cls-2" d="M157.68,36.54c.01.07.01.15,0,.22-.31.14-.46.32-.55.57-.08,0-.16,0-.24,0-.09-.25-.24-.43-.55-.57,0-.07,0-.15,0-.22.31-.14.46-.32.55-.57.08,0,.16,0,.24,0,.09.25.24.43.55.57Z"/><path class="cls-2" d="M156.14,36.54c.01.07.01.15,0,.22-.31.14-.46.32-.55.57-.08,0-.16,0-.24,0-.09-.25-.24-.43-.55-.57,0-.07,0-.15,0-.22.31-.14.46-.32.55-.57.08,0,.16,0,.24,0,.09.25.24.43.55.57Z"/><path class="cls-2" d="M154.62,36.54c.01.07.01.15,0,.22-.31.14-.46.32-.55.57-.08,0-.16,0-.24,0-.09-.25-.24-.43-.55-.57-.01-.07-.01-.15,0-.22.31-.14.46-.32.55-.57.08,0,.16,0,.24,0,.09.25.24.43.55.57Z"/><path class="cls-2" d="M153.09,36.54c.01.07.01.15,0,.22-.31.14-.46.32-.55.57-.08,0-.16,0-.24,0-.09-.25-.24-.43-.55-.57,0-.07,0-.15,0-.22.31-.14.46-.32.55-.57.08,0,.16,0,.24,0,.09.25.24.43.55.57Z"/><path class="cls-2" d="M151.56,36.54c.01.07.01.15,0,.22-.31.14-.46.32-.55.57-.08,0-.16,0-.24,0-.09-.25-.24-.43-.55-.57-.01-.07-.01-.15,0-.22.31-.14.46-.32.55-.57.08,0,.16,0,.24,0,.09.25.24.43.55.57Z"/><path class="cls-2" d="M150.03,36.54c.01.07.01.15,0,.22-.31.14-.46.32-.55.57-.08,0-.16,0-.24,0-.09-.25-.24-.43-.55-.57,0-.07,0-.15,0-.22.31-.14.46-.32.55-.57.08,0,.16,0,.24,0,.09.25.24.43.55.57Z"/><path class="cls-2" d="M148.5,36.54c.01.07.01.15,0,.22-.31.14-.46.32-.55.57-.08,0-.16,0-.24,0-.09-.25-.24-.43-.55-.57,0-.07,0-.15,0-.22.31-.14.46-.32.55-.57.08,0,.16,0,.24,0,.09.25.24.43.55.57Z"/><path class="cls-2" d="M146.97,36.54c.01.07.01.15,0,.22-.31.14-.46.32-.55.57-.08,0-.16,0-.24,0-.09-.25-.24-.43-.55-.57-.01-.07-.01-.15,0-.22.31-.14.46-.32.55-.57.08,0,.16,0,.24,0,.09.25.24.43.55.57Z"/><path class="cls-2" d="M145.44,36.54c.01.07.01.15,0,.22-.31.14-.46.32-.55.57-.08,0-.16,0-.24,0-.09-.25-.24-.43-.55-.57,0-.07,0-.15,0-.22.31-.14.46-.32.55-.57.08,0,.16,0,.24,0,.09.25.24.43.55.57Z"/><path class="cls-2" d="M143.91,36.54c.01.07.01.15,0,.22-.31.14-.46.32-.55.57-.08,0-.16,0-.24,0-.09-.25-.24-.43-.55-.57-.01-.07-.01-.15,0-.22.31-.14.46-.32.55-.57.08,0,.16,0,.24,0,.09.25.24.43.55.57Z"/><path class="cls-2" d="M142.38,36.54c.01.07.01.15,0,.22-.31.14-.46.32-.55.57-.08,0-.16,0-.24,0-.09-.25-.24-.43-.55-.57-.01-.07-.01-.15,0-.22.31-.14.46-.32.55-.57.08,0,.16,0,.24,0,.09.25.24.43.55.57Z"/><path class="cls-2" d="M140.85,36.54c.01.07.01.15,0,.22-.31.14-.46.32-.55.57-.08,0-.16,0-.24,0-.09-.25-.24-.43-.55-.57,0-.07,0-.15,0-.22.31-.14.46-.32.55-.57.08,0,.16,0,.24,0,.09.25.24.43.55.57Z"/><path class="cls-2" d="M139.32,36.54c.01.07.01.15,0,.22-.31.14-.46.32-.55.57-.08,0-.16,0-.24,0-.09-.25-.24-.43-.55-.57-.01-.07-.01-.15,0-.22.31-.14.46-.32.55-.57.08,0,.16,0,.24,0,.09.25.24.43.55.57Z"/><path class="cls-2" d="M137.79,36.54c.01.07.01.15,0,.22-.31.14-.46.32-.55.57-.08,0-.16,0-.24,0-.09-.25-.24-.43-.55-.57,0-.07,0-.15,0-.22.31-.14.46-.32.55-.57.08,0,.16,0,.24,0,.09.25.24.43.55.57Z"/><path class="cls-2" d="M136.26,36.54c.01.07.01.15,0,.22-.31.14-.46.32-.55.57-.08,0-.16,0-.24,0-.09-.25-.24-.43-.55-.57-.01-.07-.01-.15,0-.22.31-.14.46-.32.55-.57.08,0,.16,0,.24,0,.09.25.24.43.55.57Z"/><path class="cls-2" d="M134.73,36.54c.01.07.01.15,0,.22-.31.14-.46.32-.55.57-.08,0-.16,0-.24,0-.09-.25-.24-.43-.55-.57-.01-.07-.01-.15,0-.22.31-.14.46-.32.55-.57.08,0,.16,0,.24,0,.09.25.24.43.55.57Z"/><path class="cls-2" d="M133.2,36.54c.01.07.01.15,0,.22-.31.14-.46.32-.55.57-.08,0-.16,0-.24,0-.09-.25-.24-.43-.55-.57,0-.07,0-.15,0-.22.31-.14.46-.32.55-.57.08,0,.16,0,.24,0,.09.25.24.43.55.57Z"/><path class="cls-2" d="M131.67,36.54c.01.07.01.15,0,.22-.31.14-.46.32-.55.57-.08,0-.16,0-.24,0-.09-.25-.24-.43-.55-.57-.01-.07-.01-.15,0-.22.31-.14.46-.32.55-.57.08,0,.16,0,.24,0,.09.25.24.43.55.57Z"/><path class="cls-2" d="M130.14,36.54c.01.07.01.15,0,.22-.31.14-.46.32-.55.57-.08,0-.16,0-.24,0-.09-.25-.24-.43-.55-.57,0-.07,0-.15,0-.22.31-.14.46-.32.55-.57.08,0,.16,0,.24,0,.09.25.24.43.55.57Z"/><path class="cls-2" d="M128.61,36.54c.01.07.01.15,0,.22-.31.14-.46.32-.55.57-.08,0-.16,0-.24,0-.09-.25-.24-.43-.55-.57,0-.07,0-.15,0-.22.31-.14.46-.32.55-.57.08,0,.16,0,.24,0,.09.25.24.43.55.57Z"/><path class="cls-2" d="M127.08,36.54c.01.07.01.15,0,.22-.31.14-.46.32-.55.57-.08,0-.16,0-.24,0-.09-.25-.24-.43-.55-.57-.01-.07-.01-.15,0-.22.31-.14.46-.32.55-.57.08,0,.16,0,.24,0,.09.25.24.43.55.57Z"/><path class="cls-2" d="M125.55,36.54c.01.07.01.15,0,.22-.31.14-.46.32-.55.57-.08,0-.16,0-.24,0-.09-.25-.24-.43-.55-.57,0-.07,0-.15,0-.22.31-.14.46-.32.55-.57.08,0,.16,0,.24,0,.09.25.24.43.55.57Z"/><path class="cls-2" d="M124.02,36.54c.01.07.01.15,0,.22-.31.14-.46.32-.55.57-.08,0-.16,0-.24,0-.09-.25-.24-.43-.55-.57-.01-.07-.01-.15,0-.22.31-.14.46-.32.55-.57.08,0,.16,0,.24,0,.09.25.24.43.55.57Z"/><path class="cls-2" d="M122.49,36.54c.01.07.01.15,0,.22-.31.14-.46.32-.55.57-.08,0-.16,0-.24,0-.09-.25-.24-.43-.55-.57,0-.07,0-.15,0-.22.31-.14.46-.32.55-.57.08,0,.16,0,.24,0,.09.25.24.43.55.57Z"/><path class="cls-2" d="M120.96,36.54c.01.07.01.15,0,.22-.31.14-.46.32-.55.57-.08,0-.16,0-.24,0-.09-.25-.24-.43-.55-.57,0-.07,0-.15,0-.22.31-.14.46-.32.55-.57.08,0,.16,0,.24,0,.09.25.24.43.55.57Z"/><path class="cls-2" d="M119.43,36.54c.01.07.01.15,0,.22-.31.14-.46.32-.55.57-.08,0-.16,0-.24,0-.09-.25-.24-.43-.55-.57-.01-.07-.01-.15,0-.22.31-.14.46-.32.55-.57.08,0,.16,0,.24,0,.09.25.24.43.55.57Z"/><path class="cls-2" d="M117.9,36.54c.01.07.01.15,0,.22-.31.14-.46.32-.55.57-.08,0-.16,0-.24,0-.09-.25-.24-.43-.55-.57,0-.07,0-.15,0-.22.31-.14.46-.32.55-.57.08,0,.16,0,.24,0,.09.25.24.43.55.57Z"/><path class="cls-2" d="M116.37,36.54c.01.07.01.15,0,.22-.31.14-.46.32-.55.57-.08,0-.16,0-.24,0-.09-.25-.24-.43-.55-.57-.01-.07-.01-.15,0-.22.31-.14.46-.32.55-.57.08,0,.16,0,.24,0,.09.25.24.43.55.57Z"/><path class="cls-2" d="M114.84,36.54c.01.07.01.15,0,.22-.31.14-.46.32-.55.57-.08,0-.16,0-.24,0-.09-.25-.24-.43-.55-.57-.01-.07-.01-.15,0-.22.31-.14.46-.32.55-.57.08,0,.16,0,.24,0,.09.25.24.43.55.57Z"/><path class="cls-2" d="M113.31,36.54c.01.07.01.15,0,.22-.31.14-.46.32-.55.57-.08,0-.16,0-.24,0-.09-.25-.24-.43-.55-.57,0-.07,0-.15,0-.22.31-.14.46-.32.55-.57.08,0,.16,0,.24,0,.09.25.24.43.55.57Z"/><path class="cls-2" d="M111.78,36.54c.01.07.01.15,0,.22-.31.14-.46.32-.55.57-.08,0-.16,0-.24,0-.09-.25-.24-.43-.55-.57-.01-.07-.01-.15,0-.22.31-.14.46-.32.55-.57.08,0,.16,0,.24,0,.09.25.24.43.55.57Z"/><path class="cls-2" d="M110.25,36.54c.01.07.01.15,0,.22-.31.14-.46.32-.55.57-.08,0-.16,0-.24,0-.09-.25-.24-.43-.55-.57,0-.07,0-.15,0-.22.31-.14.46-.32.55-.57.08,0,.16,0,.24,0,.09.25.24.43.55.57Z"/><path class="cls-2" d="M108.72,36.54c.01.07.01.15,0,.22-.31.14-.46.32-.55.57-.08,0-.16,0-.24,0-.09-.25-.24-.43-.55-.57,0-.07,0-.15,0-.22.31-.14.46-.32.55-.57.08,0,.16,0,.24,0,.09.25.24.43.55.57Z"/><path class="cls-2" d="M107.19,36.54c.01.07.01.15,0,.22-.31.14-.46.32-.55.57-.08,0-.16,0-.24,0-.09-.25-.24-.43-.55-.57-.01-.07-.01-.15,0-.22.31-.14.46-.32.55-.57.08,0,.16,0,.24,0,.09.25.24.43.55.57Z"/><path class="cls-2" d="M105.66,36.54c.01.07.01.15,0,.22-.31.14-.46.32-.55.57-.08,0-.16,0-.24,0-.09-.25-.24-.43-.55-.57,0-.07,0-.15,0-.22.31-.14.46-.32.55-.57.08,0,.16,0,.24,0,.09.25.24.43.55.57Z"/><path class="cls-2" d="M104.13,36.54c.01.07.01.15,0,.22-.31.14-.46.32-.55.57-.08,0-.16,0-.24,0-.09-.25-.24-.43-.55-.57-.01-.07-.01-.15,0-.22.31-.14.46-.32.55-.57.08,0,.16,0,.24,0,.09.25.24.43.55.57Z"/><path class="cls-2" d="M102.6,36.54c.01.07.01.15,0,.22-.31.14-.46.32-.55.57-.08,0-.16,0-.24,0-.09-.25-.24-.43-.55-.57,0-.07,0-.15,0-.22.31-.14.46-.32.55-.57.08,0,.16,0,.24,0,.09.25.24.43.55.57Z"/><path class="cls-2" d="M101.07,36.54c.01.07.01.15,0,.22-.31.14-.46.32-.55.57-.08,0-.16,0-.24,0-.09-.25-.24-.43-.55-.57,0-.07,0-.15,0-.22.31-.14.46-.32.55-.57.08,0,.16,0,.24,0,.09.25.24.43.55.57Z"/><path class="cls-2" d="M99.54,36.54c.01.07.01.15,0,.22-.31.14-.46.32-.55.57-.08,0-.16,0-.24,0-.09-.25-.24-.43-.55-.57-.01-.07-.01-.15,0-.22.31-.14.46-.32.55-.57.08,0,.16,0,.24,0,.09.25.24.43.55.57Z"/><path class="cls-2" d="M98.01,36.54c.01.07.01.15,0,.22-.31.14-.46.32-.55.57-.08,0-.16,0-.24,0-.09-.25-.24-.43-.55-.57,0-.07,0-.15,0-.22.31-.14.46-.32.55-.57.08,0,.16,0,.24,0,.09.25.24.43.55.57Z"/><path class="cls-2" d="M96.48,36.54c.01.07.01.15,0,.22-.31.14-.46.32-.55.57-.08,0-.16,0-.24,0-.09-.25-.24-.43-.55-.57-.01-.07-.01-.15,0-.22.31-.14.46-.32.55-.57.08,0,.16,0,.24,0,.09.25.24.43.55.57Z"/><path class="cls-2" d="M94.95,36.54c.01.07.01.15,0,.22-.31.14-.46.32-.55.57-.08,0-.16,0-.24,0-.09-.25-.24-.43-.55-.57-.01-.07-.01-.15,0-.22.31-.14.46-.32.55-.57.08,0,.16,0,.24,0,.09.25.24.43.55.57Z"/><path class="cls-2" d="M93.42,36.54c.01.07.01.15,0,.22-.31.14-.46.32-.55.57-.08,0-.16,0-.24,0-.09-.25-.24-.43-.55-.57,0-.07,0-.15,0-.22.31-.14.46-.32.55-.57.08,0,.16,0,.24,0,.09.25.24.43.55.57Z"/><path class="cls-2" d="M91.89,36.54c.01.07.01.15,0,.22-.31.14-.46.32-.55.57-.08,0-.16,0-.24,0-.09-.25-.24-.43-.55-.57-.01-.07-.01-.15,0-.22.31-.14.46-.32.55-.57.08,0,.16,0,.24,0,.09.25.24.43.55.57Z"/><path class="cls-2" d="M90.36,36.54c.01.07.01.15,0,.22-.31.14-.46.32-.55.57-.08,0-.16,0-.24,0-.09-.25-.24-.43-.55-.57,0-.07,0-.15,0-.22.31-.14.46-.32.55-.57.08,0,.16,0,.24,0,.09.25.24.43.55.57Z"/><path class="cls-2" d="M88.83,36.54c.01.07.01.15,0,.22-.31.14-.46.32-.55.57-.08,0-.16,0-.24,0-.09-.25-.24-.43-.55-.57-.01-.07-.01-.15,0-.22.31-.14.46-.32.55-.57.08,0,.16,0,.24,0,.09.25.24.43.55.57Z"/><path class="cls-2" d="M87.3,36.54c.01.07.01.15,0,.22-.31.14-.46.32-.55.57-.08,0-.16,0-.24,0-.09-.25-.24-.43-.55-.57-.01-.07-.01-.15,0-.22.31-.14.46-.32.55-.57.08,0,.16,0,.24,0,.09.25.24.43.55.57Z"/><path class="cls-2" d="M85.77,36.54c.01.07.01.15,0,.22-.31.14-.46.32-.55.57-.08,0-.16,0-.24,0-.09-.25-.24-.43-.55-.57,0-.07,0-.15,0-.22.31-.14.46-.32.55-.57.08,0,.16,0,.24,0,.09.25.24.43.55.57Z"/><path class="cls-2" d="M84.24,36.54c.01.07.01.15,0,.22-.31.14-.46.32-.55.57-.08,0-.16,0-.24,0-.09-.25-.24-.43-.55-.57-.01-.07-.01-.15,0-.22.31-.14.46-.32.55-.57.08,0,.16,0,.24,0,.09.25.24.43.55.57Z"/><path class="cls-2" d="M82.71,36.54c.01.07.01.15,0,.22-.31.14-.46.32-.55.57-.08,0-.16,0-.24,0-.09-.25-.24-.43-.55-.57,0-.07,0-.15,0-.22.31-.14.46-.32.55-.57.08,0,.16,0,.24,0,.09.25.24.43.55.57Z"/><path class="cls-2" d="M81.18,36.54c.01.07.01.15,0,.22-.31.14-.46.32-.55.57-.08,0-.16,0-.24,0-.09-.25-.24-.43-.55-.57,0-.07,0-.15,0-.22.31-.14.46-.32.55-.57.08,0,.16,0,.24,0,.09.25.24.43.55.57Z"/><path class="cls-2" d="M79.65,36.54c.01.07.01.15,0,.22-.31.14-.46.32-.55.57-.08,0-.16,0-.24,0-.09-.25-.24-.43-.55-.57-.01-.07-.01-.15,0-.22.31-.14.46-.32.55-.57.08,0,.16,0,.24,0,.09.25.24.43.55.57Z"/><path class="cls-2" d="M78.12,36.54c.01.07.01.15,0,.22-.31.14-.46.32-.55.57-.08,0-.16,0-.24,0-.09-.25-.24-.43-.55-.57,0-.07,0-.15,0-.22.31-.14.46-.32.55-.57.08,0,.16,0,.24,0,.09.25.24.43.55.57Z"/><path class="cls-2" d="M76.59,36.54c.01.07.01.15,0,.22-.31.14-.46.32-.55.57-.08,0-.16,0-.24,0-.09-.25-.24-.43-.55-.57-.01-.07-.01-.15,0-.22.31-.14.46-.32.55-.57.08,0,.16,0,.24,0,.09.25.24.43.55.57Z"/><path class="cls-2" d="M75.06,36.54c.01.07.01.15,0,.22-.31.14-.46.32-.55.57-.08,0-.16,0-.24,0-.09-.25-.24-.43-.55-.57,0-.07,0-.15,0-.22.31-.14.46-.32.55-.57.08,0,.16,0,.24,0,.09.25.24.43.55.57Z"/><path class="cls-2" d="M73.53,36.54c.01.07.01.15,0,.22-.31.14-.46.32-.55.57-.08,0-.16,0-.24,0-.09-.25-.24-.43-.55-.57,0-.07,0-.15,0-.22.31-.14.46-.32.55-.57.08,0,.16,0,.24,0,.09.25.24.43.55.57Z"/><path class="cls-2" d="M72,36.54c.01.07.01.15,0,.22-.31.14-.46.32-.55.57-.08,0-.16,0-.24,0-.09-.25-.24-.43-.55-.57-.01-.07-.01-.15,0-.22.31-.14.46-.32.55-.57.08,0,.16,0,.24,0,.09.25.24.43.55.57Z"/><path class="cls-2" d="M70.47,36.54c.01.07.01.15,0,.22-.31.14-.46.32-.55.57-.08,0-.16,0-.24,0-.09-.25-.24-.43-.55-.57,0-.07,0-.15,0-.22.31-.14.46-.32.55-.57.08,0,.16,0,.24,0,.09.25.24.43.55.57Z"/><path class="cls-2" d="M68.94,36.54c.01.07.01.15,0,.22-.31.14-.46.32-.55.57-.08,0-.16,0-.24,0-.09-.25-.24-.43-.55-.57-.01-.07-.01-.15,0-.22.31-.14.46-.32.55-.57.08,0,.16,0,.24,0,.09.25.24.43.55.57Z"/><path class="cls-2" d="M68.66,36.54c.01.07.01.15,0,.22-.31.14-.46.32-.55.57-.08,0-.16,0-.24,0-.09-.25-.24-.43-.55-.57-.01-.07-.01-.15,0-.22.31-.14.46-.32.55-.57.08,0,.16,0,.24,0,.09.25.24.43.55.57Z"/><path class="cls-2" d="M67.13,36.54c.01.07.01.15,0,.22-.31.14-.46.32-.55.57-.08,0-.16,0-.24,0-.09-.25-.24-.43-.55-.57,0-.07,0-.15,0-.22.31-.14.46-.32.55-.57.08,0,.16,0,.24,0,.09.25.24.43.55.57Z"/><path class="cls-2" d="M65.6,36.54c.01.07.01.15,0,.22-.31.14-.46.32-.55.57-.08,0-.16,0-.24,0-.09-.25-.24-.43-.55-.57-.01-.07-.01-.15,0-.22.31-.14.46-.32.55-.57.08,0,.16,0,.24,0,.09.25.24.43.55.57Z"/><path class="cls-2" d="M64.07,36.54c.01.07.01.15,0,.22-.31.14-.46.32-.55.57-.08,0-.16,0-.24,0-.09-.25-.24-.43-.55-.57-.01-.07-.01-.15,0-.22.31-.14.46-.32.55-.57.08,0,.16,0,.24,0,.09.25.24.43.55.57Z"/><path class="cls-2" d="M62.54,36.54c.01.07.01.15,0,.22-.31.14-.46.32-.55.57-.08,0-.16,0-.24,0-.09-.25-.24-.43-.55-.57,0-.07,0-.15,0-.22.31-.14.46-.32.55-.57.08,0,.16,0,.24,0,.09.25.24.43.55.57Z"/><path class="cls-2" d="M61.01,36.54c.01.07.01.15,0,.22-.31.14-.46.32-.55.57-.08,0-.16,0-.24,0-.09-.25-.24-.43-.55-.57-.01-.07-.01-.15,0-.22.31-.14.46-.32.55-.57.08,0,.16,0,.24,0,.09.25.24.43.55.57Z"/><path class="cls-2" d="M59.48,36.54c.01.07.01.15,0,.22-.31.14-.46.32-.55.57-.08,0-.16,0-.24,0-.09-.25-.24-.43-.55-.57,0-.07,0-.15,0-.22.31-.14.46-.32.55-.57.08,0,.16,0,.24,0,.09.25.24.43.55.57Z"/><path class="cls-2" d="M57.95,36.54c.01.07.01.15,0,.22-.31.14-.46.32-.55.57-.08,0-.16,0-.24,0-.09-.25-.24-.43-.55-.57,0-.07,0-.15,0-.22.31-.14.46-.32.55-.57.08,0,.16,0,.24,0,.09.25.24.43.55.57Z"/><path class="cls-2" d="M56.42,36.54c.01.07.01.15,0,.22-.31.14-.46.32-.55.57-.08,0-.16,0-.24,0-.09-.25-.24-.43-.55-.57-.01-.07-.01-.15,0-.22.31-.14.46-.32.55-.57.08,0,.16,0,.24,0,.09.25.24.43.55.57Z"/><path class="cls-2" d="M54.89,36.54c.01.07.01.15,0,.22-.31.14-.46.32-.55.57-.08,0-.16,0-.24,0-.09-.25-.24-.43-.55-.57,0-.07,0-.15,0-.22.31-.14.46-.32.55-.57.08,0,.16,0,.24,0,.09.25.24.43.55.57Z"/><path class="cls-2" d="M53.36,36.54c.01.07.01.15,0,.22-.31.14-.46.32-.55.57-.08,0-.16,0-.24,0-.09-.25-.24-.43-.55-.57-.01-.07-.01-.15,0-.22.31-.14.46-.32.55-.57.08,0,.16,0,.24,0,.09.25.24.43.55.57Z"/><path class="cls-2" d="M51.83,36.54c.01.07.01.15,0,.22-.31.14-.46.32-.55.57-.08,0-.16,0-.24,0-.09-.25-.24-.43-.55-.57,0-.07,0-.15,0-.22.31-.14.46-.32.55-.57.08,0,.16,0,.24,0,.09.25.24.43.55.57Z"/><path class="cls-2" d="M50.3,36.54c.01.07.01.15,0,.22-.31.14-.46.32-.55.57-.08,0-.16,0-.24,0-.09-.25-.24-.43-.55-.57,0-.07,0-.15,0-.22.31-.14.46-.32.55-.57.08,0,.16,0,.24,0,.09.25.24.43.55.57Z"/><path class="cls-2" d="M48.77,36.54c.01.07.01.15,0,.22-.31.14-.46.32-.55.57-.08,0-.16,0-.24,0-.09-.25-.24-.43-.55-.57-.01-.07-.01-.15,0-.22.31-.14.46-.32.55-.57.08,0,.16,0,.24,0,.09.25.24.43.55.57Z"/><path class="cls-2" d="M47.24,36.54c.01.07.01.15,0,.22-.31.14-.46.32-.55.57-.08,0-.16,0-.24,0-.09-.25-.24-.43-.55-.57,0-.07,0-.15,0-.22.31-.14.46-.32.55-.57.08,0,.16,0,.24,0,.09.25.24.43.55.57Z"/><path class="cls-2" d="M45.71,36.54c.01.07.01.15,0,.22-.31.14-.46.32-.55.57-.08,0-.16,0-.24,0-.09-.25-.24-.43-.55-.57-.01-.07-.01-.15,0-.22.31-.14.46-.32.55-.57.08,0,.16,0,.24,0,.09.25.24.43.55.57Z"/><path class="cls-2" d="M44.18,36.54c.01.07.01.15,0,.22-.31.14-.46.32-.55.57-.08,0-.16,0-.24,0-.09-.25-.24-.43-.55-.57-.01-.07-.01-.15,0-.22.31-.14.46-.32.55-.57.08,0,.16,0,.24,0,.09.25.24.43.55.57Z"/><path class="cls-2" d="M42.65,36.54c.01.07.01.15,0,.22-.31.14-.46.32-.55.57-.08,0-.16,0-.24,0-.09-.25-.24-.43-.55-.57,0-.07,0-.15,0-.22.31-.14.46-.32.55-.57.08,0,.16,0,.24,0,.09.25.24.43.55.57Z"/><path class="cls-2" d="M41.12,36.54c.01.07.01.15,0,.22-.31.14-.46.32-.55.57-.08,0-.16,0-.24,0-.09-.25-.24-.43-.55-.57-.01-.07-.01-.15,0-.22.31-.14.46-.32.55-.57.08,0,.16,0,.24,0,.09.25.24.43.55.57Z"/><path class="cls-2" d="M39.59,36.54c.01.07.01.15,0,.22-.31.14-.46.32-.55.57-.08,0-.16,0-.24,0-.09-.25-.24-.43-.55-.57,0-.07,0-.15,0-.22.31-.14.46-.32.55-.57.08,0,.16,0,.24,0,.09.25.24.43.55.57Z"/><path class="cls-2" d="M38.06,36.54c.01.07.01.15,0,.22-.31.14-.46.32-.55.57-.08,0-.16,0-.24,0-.09-.25-.24-.43-.55-.57,0-.07,0-.15,0-.22.31-.14.46-.32.55-.57.08,0,.16,0,.24,0,.09.25.24.43.55.57Z"/><path class="cls-2" d="M36.53,36.54c.01.07.01.15,0,.22-.31.14-.46.32-.55.57-.08,0-.16,0-.24,0-.09-.25-.24-.43-.55-.57-.01-.07-.01-.15,0-.22.31-.14.46-.32.55-.57.08,0,.16,0,.24,0,.09.25.24.43.55.57Z"/><path class="cls-2" d="M35,36.54c.01.07.01.15,0,.22-.31.14-.46.32-.55.57-.08,0-.16,0-.24,0-.09-.25-.24-.43-.55-.57,0-.07,0-.15,0-.22.31-.14.46-.32.55-.57.08,0,.16,0,.24,0,.09.25.24.43.55.57Z"/><path class="cls-2" d="M33.47,36.54c.01.07.01.15,0,.22-.31.14-.46.32-.55.57-.08,0-.16,0-.24,0-.09-.25-.24-.43-.55-.57-.01-.07-.01-.15,0-.22.31-.14.46-.32.55-.57.08,0,.16,0,.24,0,.09.25.24.43.55.57Z"/><path class="cls-2" d="M31.94,36.54c.01.07.01.15,0,.22-.31.14-.46.32-.55.57-.08,0-.16,0-.24,0-.09-.25-.24-.43-.55-.57,0-.07,0-.15,0-.22.31-.14.46-.32.55-.57.08,0,.16,0,.24,0,.09.25.24.43.55.57Z"/><path class="cls-2" d="M30.41,36.54c.01.07.01.15,0,.22-.31.14-.46.32-.55.57-.08,0-.16,0-.24,0-.09-.25-.24-.43-.55-.57,0-.07,0-.15,0-.22.31-.14.46-.32.55-.57.08,0,.16,0,.24,0,.09.25.24.43.55.57Z"/><path class="cls-2" d="M28.88,36.54c.01.07.01.15,0,.22-.31.14-.46.32-.55.57-.08,0-.16,0-.24,0-.09-.25-.24-.43-.55-.57-.01-.07-.01-.15,0-.22.31-.14.46-.32.55-.57.08,0,.16,0,.24,0,.09.25.24.43.55.57Z"/><path class="cls-2" d="M27.35,36.54c.01.07.01.15,0,.22-.31.14-.46.32-.55.57-.08,0-.16,0-.24,0-.09-.25-.24-.43-.55-.57,0-.07,0-.15,0-.22.31-.14.46-.32.55-.57.08,0,.16,0,.24,0,.09.25.24.43.55.57Z"/><path class="cls-2" d="M25.83,36.54c.01.07.01.15,0,.22-.31.14-.46.32-.55.57-.08,0-.16,0-.24,0-.09-.25-.24-.43-.55-.57-.01-.07-.01-.15,0-.22.31-.14.46-.32.55-.57.08,0,.16,0,.24,0,.09.25.24.43.55.57Z"/><path class="cls-2" d="M24.29,36.54c.01.07.01.15,0,.22-.31.14-.46.32-.55.57-.08,0-.16,0-.24,0-.09-.25-.24-.43-.55-.57-.01-.07-.01-.15,0-.22.31-.14.46-.32.55-.57.08,0,.16,0,.24,0,.09.25.24.43.55.57Z"/><path class="cls-2" d="M22.77,36.54c.01.07.01.15,0,.22-.31.14-.46.32-.55.57-.08,0-.16,0-.24,0-.09-.25-.24-.43-.55-.57,0-.07,0-.15,0-.22.31-.14.46-.32.55-.57.08,0,.16,0,.24,0,.09.25.24.43.55.57Z"/><path class="cls-2" d="M21.24,36.54c.01.07.01.15,0,.22-.31.14-.46.32-.55.57-.08,0-.16,0-.24,0-.09-.25-.24-.43-.55-.57-.01-.07-.01-.15,0-.22.31-.14.46-.32.55-.57.08,0,.16,0,.24,0,.09.25.24.43.55.57Z"/><path class="cls-2" d="M19.71,36.54c.01.07.01.15,0,.22-.31.14-.46.32-.55.57-.08,0-.16,0-.24,0-.09-.25-.24-.43-.55-.57,0-.07,0-.15,0-.22.31-.14.46-.32.55-.57.08,0,.16,0,.24,0,.09.25.24.43.55.57Z"/><path class="cls-2" d="M18.18,36.54c.01.07.01.15,0,.22-.31.14-.46.32-.55.57-.08,0-.16,0-.24,0-.09-.25-.24-.43-.55-.57-.01-.07-.01-.15,0-.22.31-.14.46-.32.55-.57.08,0,.16,0,.24,0,.09.25.24.43.55.57Z"/><path class="cls-2" d="M16.65,36.54c.01.07.01.15,0,.22-.31.14-.46.32-.55.57-.08,0-.16,0-.24,0-.09-.25-.24-.43-.55-.57-.01-.07-.01-.15,0-.22.31-.14.46-.32.55-.57.08,0,.16,0,.24,0,.09.25.24.43.55.57Z"/><path class="cls-2" d="M15.12,36.54c.01.07.01.15,0,.22-.31.14-.46.32-.55.57-.08,0-.16,0-.24,0-.09-.25-.24-.43-.55-.57,0-.07,0-.15,0-.22.31-.14.46-.32.55-.57.08,0,.16,0,.24,0,.09.25.24.43.55.57Z"/><path class="cls-2" d="M13.59,36.54c.01.07.01.15,0,.22-.31.14-.46.32-.55.57-.08,0-.16,0-.24,0-.09-.25-.24-.43-.55-.57-.01-.07-.01-.15,0-.22.31-.14.46-.32.55-.57.08,0,.16,0,.24,0,.09.25.24.43.55.57Z"/><path class="cls-2" d="M12.06,36.54c.01.07.01.15,0,.22-.31.14-.46.32-.55.57-.08,0-.16,0-.24,0-.09-.25-.24-.43-.55-.57,0-.07,0-.15,0-.22.31-.14.46-.32.55-.57.08,0,.16,0,.24,0,.09.25.24.43.55.57Z"/><path class="cls-2" d="M10.53,36.54c.01.07.01.15,0,.22-.31.14-.46.32-.55.57-.08,0-.16,0-.24,0-.09-.25-.24-.43-.55-.57,0-.07,0-.15,0-.22.31-.14.46-.32.55-.57.08,0,.16,0,.24,0,.09.25.24.43.55.57Z"/><path class="cls-2" d="M9,36.54c.01.07.01.15,0,.22-.31.14-.46.32-.55.57-.08,0-.16,0-.24,0-.09-.25-.24-.43-.55-.57-.01-.07-.01-.15,0-.22.31-.14.46-.32.55-.57.08,0,.16,0,.24,0,.09.25.24.43.55.57Z"/><path class="cls-2" d="M7.47,36.54c.01.07.01.15,0,.22-.31.14-.46.32-.55.57-.08,0-.16,0-.24,0-.09-.25-.24-.43-.55-.57,0-.07,0-.15,0-.22.31-.14.46-.32.55-.57.08,0,.16,0,.24,0,.09.25.24.43.55.57Z"/><path class="cls-2" d="M5.94,36.54c.01.07.01.15,0,.22-.31.14-.46.32-.55.57-.08,0-.16,0-.24,0-.09-.25-.24-.43-.55-.57-.01-.07-.01-.15,0-.22.31-.14.46-.32.55-.57.08,0,.16,0,.24,0,.09.25.24.43.55.57Z"/><path class="cls-2" d="M4.41,36.54c.01.07.01.15,0,.22-.31.14-.46.32-.55.57-.08,0-.16,0-.24,0-.09-.25-.24-.43-.55-.57,0-.07,0-.15,0-.22.31-.14.46-.32.55-.57.08,0,.16,0,.24,0,.09.25.24.43.55.57Z"/><path class="cls-2" d="M2.88,36.54c.01.07.01.15,0,.22-.31.14-.46.32-.55.57-.08,0-.16,0-.24,0-.09-.25-.24-.43-.55-.57,0-.07,0-.15,0-.22.31-.14.46-.32.55-.57.08,0,.16,0,.24,0,.09.25.24.43.55.57Z"/><path class="cls-2" d="M1.35,36.54c.01.07.01.15,0,.22-.31.14-.46.32-.55.57-.08,0-.16,0-.24,0-.09-.25-.24-.43-.55-.57-.01-.07-.01-.15,0-.22.31-.14.46-.32.55-.57.08,0,.16,0,.24,0,.09.25.24.43.55.57Z"/><path d="M59.47,15.63V4.95c-.72-.69-1.2-1.17-1.74-1.17-.39,0-.78.21-1.08.69-.24-.12-.36-.18-.54-.36.45-.84.87-1.17,2.34-1.68.96-.36,1.29-.66,1.59-1.53.21-.03.39-.03.6,0,.42,1.44,1.83,2.31,3.72,2.04.06.27.09.42.09.69-.84.3-1.53.57-2.49,1.17v10.92c1.17.27,2.31.87,3.36,1.86,1.35-.9,2.46-1.56,3.75-1.83V5.16c-.6-.87-1.23-1.29-2.25-1.44-.06-.21-.06-.48-.03-.75,1.08-.15,2.73-.51,3.75-2.16.21-.03.39-.03.6,0,.27,1.14.9,2.07,2.79,2.04.09.27.12.57.12.81-1.05.39-1.71.63-2.52,1.08v10.98c.9.24,1.62.75,2.25,1.32l.84-.96c.24.15.48.33.66.54l-3,3.66c-.21-.03-.42-.06-.57-.15-.75-1.41-1.98-2.46-3.42-2.46-1.74,0-3.72,1.32-5.04,2.88-.24,0-.42,0-.6-.06-.81-1.62-1.92-2.52-3.54-2.52-1.26,0-1.95.66-2.61,1.38-.24-.09-.42-.24-.6-.39.72-1.74,1.86-3.03,3.57-3.33ZM86.14,16.08c0,.54.27.99.81.99.12,0,.33-.03.57-.12.15.18.24.36.33.57-1.47,1.05-1.71,1.35-2.25,2.43-.21.03-.39.03-.6,0-.36-.72-.96-1.65-2.31-1.98-.03-.21-.03-.39,0-.6.93-.3,1.35-.75,1.35-1.59v-4.71c0-.78-.48-1.17-.84-1.32l-1.86.09c-1.41.12-1.59.84-1.59,1.56v4.14c0,1.2.42,1.65,1.29,1.83.03.21.03.39,0,.6-1.17.42-1.5,1.08-1.95,1.95-.18.03-.39.03-.57,0-.33-.75-1.02-1.62-2.13-2.04-.03-.18-.03-.36,0-.54.9-.33,1.26-.66,1.26-1.68v-4.77c0-.54-.27-.99-.81-.99-.12,0-.33.03-.57.12-.15-.15-.24-.3-.3-.51,1.02-.81,1.83-1.44,2.4-2.52.18-.03.33-.03.51,0,.3.72.87,1.65,1.44,2.04l2.04-.09c1.14-.09,1.98-.81,2.61-1.77.18-.03.36-.03.51,0,.33.75.81,1.59,1.92,2.01.03.18.03.36,0,.54-.9.33-1.26.66-1.26,1.68v4.68ZM94.3,26.31c-3.6,0-5.43-2.31-5.43-3.75,0-1.08.63-1.5,1.23-1.5.75,0,1.23.54,1.23,1.14s-.45.84-.45,1.41c0,.69,1.26,1.89,3.48,1.89,2.37,0,4.17-1.74,4.17-3.75,0-2.28-1.98-2.7-2.4-4.02h-.15l-2.31,2.22c-.87-.51-2.13-1.11-3.72-1.38.03-.6.06-1.29.06-2.37v-3.48c0-.93-.03-1.56-.06-2.07,1.89-1.17,3.69-2.31,5.49-3.57.9.72,2.25,1.8,3.51,1.8.24,0,.57-.06.81-.15.09.09.27.36.33.48-.36.42-.99.93-1.71,1.23v6.66c.99.9,1.35,2.46,1.35,3.54,0,4.29-2.97,5.67-5.43,5.67ZM94.48,17.91l1.65-1.53v-5.94c-.69-.21-1.47-.6-2.34-1.2l-.42.27c-.3.18-.9.57-1.17.81.03.54.06,1.23.06,1.83v3.06c0,1.29-.03,1.65-.03,2.04.78.06,1.65.33,2.25.66ZM107.26,7.26l1.35,1.56c.39.45.66.96.66,1.38,0,.78-.81,1.8-2.37,2.85l-2.43,1.65v.51c0,1.29-.03,1.65-.03,2.04.84.12,2.19.42,2.91.81l1.08-.99c.24.12.48.45.57.63-1.44,1.35-1.71,1.62-2.46,2.4-1.38-.78-2.85-1.2-4.38-1.53.03-.6.06-1.29.06-2.37v-3.48c0-.93-.03-1.56-.06-2.07,1.41-1.05,4.05-2.85,5.1-3.39ZM104.47,13.68l1.32-.9c.99-.66,1.26-1.08,1.26-1.62,0-.33-.09-.69-.51-1.17l-.72-.78-.39.27c-.45.3-.57.39-.99.72.03.57.03,1.2.03,1.77v1.71ZM116.26,19.98c-1.08-.69-3.57-1.38-5.43-.99-.09-.15-.18-.36-.21-.57.39-.27,1.02-.57,1.68-.81v-6.72c0-.54-.42-.99-.96-.99-.12,0-.33.03-.57.12-.12-.15-.24-.3-.3-.51,1.02-.81,1.83-1.44,2.25-2.52.21-.03.39-.03.6,0,.33.69.9,1.62,1.59,2.13,1.35-.48,2.28-.93,2.94-2.1.18-.03.36-.03.54,0,.27,1.05.54,1.53,1.5,1.89.03.21.03.39,0,.6-.81.36-1.74,1.11-1.95,1.8-.21.03-.39.03-.6,0-.18-.93-.54-1.53-1.35-1.53-.24,0-.39-.03-1.08.24l-.36.15v7.11c.72.03,1.83.27,2.52.63l.6-.57c.24.15.42.36.6.6-.72.66-1.35,1.29-2.01,2.04ZM125.98,10.8c-1.62.36-3.24.81-4.86,1.29-.06-.18-.09-1.02,0-1.2,1.62-.36,3.24-.81,4.86-1.29.09.18.06,1.02,0,1.2ZM125.98,14.79c-1.62.36-3.24.81-4.86,1.29-.06-.18-.09-1.02,0-1.2,1.62-.36,3.24-.81,4.86-1.29.09.18.06,1.02,0,1.2ZM143.47,1.83c0,1.11-.84,3.33-4.14,3.33-1.35,0-2.61-.57-3.81-1.23-.54.99-.75,1.65-.75,2.49,0,1.98,2.31,3.96,4.11,6.36,1.08-1.08,1.65-1.95,1.65-2.64,0-.45-.09-.84-.54-1.53.15-.18.27-.3.42-.42.21.12.63.33,1.14.33.45,0,.96-.18,1.38-.72.21.09.36.18.51.33-.27.57-.39,1.08-.39,1.5,0,.51.21.99.57,1.53-.09.18-.24.33-.39.45-.33-.15-.66-.24-.99-.24-.78,0-1.47.6-2.85,2.07.96,1.38,1.68,2.91,1.68,4.65,0,5.4-3.54,8.16-6.81,8.16s-6.51-2.16-6.51-6.51c0-3.69,2.76-5.7,2.76-7.53,0-.57-.39-.9-.96-1.32.12-.21.24-.45.42-.66,1.17.66,2.31,1.35,2.31,3.03,0,2.28-2.58,4.23-2.58,7.29s2.25,4.8,4.68,4.8,4.89-1.98,4.89-5.04c0-5.1-5.91-7.23-5.91-12.18,0-1.86.6-2.91,1.47-4.59-1.5-.87-2.88-1.77-4.29-1.77-2.07,0-3.48,1.32-3.48,3.27,0,1.5.72,2.55,2.4,3.15-.06.3-.15.57-.27.78-1.53-.45-3.03-1.47-3.03-3.93s2.31-5.04,5.88-5.04c4.29,0,6.78,3.27,8.94,3.27,1.08,0,1.68-.78,1.68-1.53,0-.36-.09-.72-.15-.93.21-.09.45-.18.72-.21.18.45.24.81.24,1.23ZM150.94,19.98c-1.08-.69-3.57-1.38-5.43-.99-.09-.15-.18-.36-.21-.57.39-.27,1.02-.57,1.68-.81v-6.72c0-.54-.42-.99-.96-.99-.12,0-.33.03-.57.12-.12-.15-.24-.3-.3-.51,1.02-.81,1.83-1.44,2.25-2.52.21-.03.39-.03.6,0,.33.69.9,1.62,1.59,2.13,1.35-.48,2.28-.93,2.94-2.1.18-.03.36-.03.54,0,.27,1.05.54,1.53,1.5,1.89.03.21.03.39,0,.6-.81.36-1.74,1.11-1.95,1.8-.21.03-.39.03-.6,0-.18-.93-.54-1.53-1.35-1.53-.24,0-.39-.03-1.08.24l-.36.15v7.11c.72.03,1.83.27,2.52.63l.6-.57c.24.15.42.36.6.6-.72.66-1.35,1.29-2.01,2.04ZM163.99,19.95c-1.41-.99-1.83-1.71-2.1-2.34h-.12l-2.46,2.34c-.87-.51-2.13-1.11-3.72-1.38.03-.6.06-1.29.06-2.37v-3.48c0-.93-.03-1.56-.06-2.07,1.89-1.17,3.69-2.31,5.49-3.57.9.72,2.25,1.8,3.51,1.8.24,0,.57-.06.81-.15.09.09.27.36.33.48-.36.42-.99.93-1.71,1.23v6.39c.24.36.63.63.96.87l.75-.69c.21.18.39.36.6.63-.81.69-1.59,1.44-2.34,2.31ZM160.12,17.91l1.65-1.53v-5.94c-.66-.18-1.38-.57-2.34-1.2l-.42.27c-.3.18-.9.57-1.17.81.03.54.06,1.23.06,1.83v3.06c0,1.29-.03,1.65-.03,2.04.78.06,1.65.33,2.25.66ZM167.17,9.42h1.56v-3.75c0-3-.33-3.24-1.89-4.41.15-.27.3-.48.51-.69.78.42,1.38.72,2.22,1.92.81-1.56,2.19-2.37,3.99-2.37.69,0,1.59.24,2.28.72-.09.27-.24.48-.39.69-.66-.33-1.32-.42-1.68-.42-1.56,0-2.79,1.02-2.79,2.94v1.08c1.08-.54,2.13-1.17,3.12-1.74.75,1.05,1.32,1.89,1.32,2.58,0,1.14-1.02,1.71-1.77,2.13l-2.28,1.23v.09h3.63c.03.27.03.57,0,.84h-4.02v7.26c.75.09,1.62.24,2.16.54l.6-.57c.24.18.42.36.6.6-.72.66-1.35,1.29-2.01,2.04-1.08-.69-3.21-1.38-5.07-.99-.09-.18-.18-.39-.21-.57.48-.36,1.02-.72,1.68-.96v-7.35h-1.56c-.03-.27-.03-.57,0-.84ZM172.54,5.13l-1.56.84v2.79l1.68-.96c.57-.33.63-.72.63-1.08,0-.33-.21-.93-.75-1.59ZM182.41,19.83c-1.08-.69-3.57-1.38-5.43-.99-.09-.15-.18-.36-.21-.57.42-.3,1.11-.63,1.83-.84v-7.44h-1.83c-.09-.15-.15-.48-.12-.69l6.48-5.61c.24.18.42.42.54.66l-2.19,1.98c-.69.6-.78,1.08-.72,2.13h3.45c.18.39.12,1.11,0,1.5h-3.36v7.17c.72.06,1.74.3,2.37.63l.6-.57c.24.15.42.36.6.6-.72.66-1.35,1.29-2.01,2.04ZM190.51,18.36c-.96.03-1.17.36-1.98,1.59-.21.03-.39.03-.6,0-.36-.66-.84-1.62-1.95-2.04-.03-.18-.03-.33,0-.51.69-.18,1.26-.69,1.26-1.89v-4.62c0-.54-.27-.99-.81-.99-.12,0-.33.03-.57.12-.15-.15-.24-.33-.33-.54.9-.72,1.71-1.41,2.25-2.49.15-.03.33-.03.48,0,.36.72,1.08,1.74,2.43,2.07.03.18.03.36,0,.54-.69.3-1.35.57-1.35,1.89v4.83c0,.63.27.9.69,1.17l2.31-.09c.6-.03,1.11-.39,1.11-.96v-5.04c0-1.2-.57-1.59-1.29-1.83-.03-.18-.03-.33,0-.51.9-.51,1.59-1.17,2.19-2.04.15-.03.33-.03.48,0,.39.66.87,1.62,1.98,2.04.03.18.03.33,0,.51-.69.18-1.26.69-1.26,1.89v4.62c0,.54.27.99.81.99.12,0,.33-.03.57-.12.12.15.24.33.33.54-1.02.81-1.71,1.41-2.25,2.49-.15.03-.33.03-.48,0-.27-.51-.84-1.38-1.38-1.74l-2.64.12ZM204.13,19.98c-1.08-.69-3.57-1.38-5.43-.99-.09-.15-.18-.36-.21-.57.39-.27,1.02-.57,1.68-.81v-6.72c0-.54-.42-.99-.96-.99-.12,0-.33.03-.57.12-.12-.15-.24-.3-.3-.51,1.02-.81,1.83-1.44,2.25-2.52.21-.03.39-.03.6,0,.33.69.9,1.62,1.59,2.13,1.35-.48,2.28-.93,2.94-2.1.18-.03.36-.03.54,0,.27,1.05.54,1.53,1.5,1.89.03.21.03.39,0,.6-.81.36-1.74,1.11-1.95,1.8-.21.03-.39.03-.6,0-.18-.93-.54-1.53-1.35-1.53-.24,0-.39-.03-1.08.24l-.36.15v7.11c.72.03,1.83.27,2.52.63l.6-.57c.24.15.42.36.6.6-.72.66-1.35,1.29-2.01,2.04Z"/><line class="cls-1" x1="261.81" y1="371.1" x2=".25" y2="371.1"/><path class="cls-2" d="M.36,369.38c-.01-.07-.01-.15,0-.22.31-.14.46-.32.55-.57.08,0,.16,0,.24,0,.09.25.24.43.55.57.01.07.01.15,0,.22-.31.14-.46.32-.55.57-.08,0-.16,0-.24,0-.09-.25-.24-.43-.55-.57Z"/><path class="cls-2" d="M1.89,369.38c-.01-.07-.01-.15,0-.22.31-.14.46-.32.55-.57.08,0,.16,0,.24,0,.09.25.24.43.55.57,0,.07,0,.15,0,.22-.31.14-.46.32-.55.57-.08,0-.16,0-.24,0-.09-.25-.24-.43-.55-.57Z"/><path class="cls-2" d="M3.41,369.38c-.01-.07-.01-.15,0-.22.31-.14.46-.32.55-.57.08,0,.16,0,.24,0,.09.25.24.43.55.57.01.07.01.15,0,.22-.31.14-.46.32-.55.57-.08,0-.16,0-.24,0-.09-.25-.24-.43-.55-.57Z"/><path class="cls-2" d="M4.95,369.38c-.01-.07-.01-.15,0-.22.31-.14.46-.32.55-.57.08,0,.16,0,.24,0,.09.25.24.43.55.57.01.07.01.15,0,.22-.31.14-.46.32-.55.57-.08,0-.16,0-.24,0-.09-.25-.24-.43-.55-.57Z"/><path class="cls-2" d="M6.47,369.38c-.01-.07-.01-.15,0-.22.31-.14.46-.32.55-.57.08,0,.16,0,.24,0,.09.25.24.43.55.57,0,.07,0,.15,0,.22-.31.14-.46.32-.55.57-.08,0-.16,0-.24,0-.09-.25-.24-.43-.55-.57Z"/><path class="cls-2" d="M8,369.38c-.01-.07-.01-.15,0-.22.31-.14.46-.32.55-.57.08,0,.16,0,.24,0,.09.25.24.43.55.57.01.07.01.15,0,.22-.31.14-.46.32-.55.57-.08,0-.16,0-.24,0-.09-.25-.24-.43-.55-.57Z"/><path class="cls-2" d="M9.53,369.38c-.01-.07-.01-.15,0-.22.31-.14.46-.32.55-.57.08,0,.16,0,.24,0,.09.25.24.43.55.57,0,.07,0,.15,0,.22-.31.14-.46.32-.55.57-.08,0-.16,0-.24,0-.09-.25-.24-.43-.55-.57Z"/><path class="cls-2" d="M11.06,369.38c-.01-.07-.01-.15,0-.22.31-.14.46-.32.55-.57.08,0,.16,0,.24,0,.09.25.24.43.55.57,0,.07,0,.15,0,.22-.31.14-.46.32-.55.57-.08,0-.16,0-.24,0-.09-.25-.24-.43-.55-.57Z"/><path class="cls-2" d="M12.59,369.38c-.01-.07-.01-.15,0-.22.31-.14.46-.32.55-.57.08,0,.16,0,.24,0,.09.25.24.43.55.57.01.07.01.15,0,.22-.31.14-.46.32-.55.57-.08,0-.16,0-.24,0-.09-.25-.24-.43-.55-.57Z"/><path class="cls-2" d="M14.12,369.38c-.01-.07-.01-.15,0-.22.31-.14.46-.32.55-.57.08,0,.16,0,.24,0,.09.25.24.43.55.57,0,.07,0,.15,0,.22-.31.14-.46.32-.55.57-.08,0-.16,0-.24,0-.09-.25-.24-.43-.55-.57Z"/><path class="cls-2" d="M15.65,369.38c-.01-.07-.01-.15,0-.22.31-.14.46-.32.55-.57.08,0,.16,0,.24,0,.09.25.24.43.55.57.01.07.01.15,0,.22-.31.14-.46.32-.55.57-.08,0-.16,0-.24,0-.09-.25-.24-.43-.55-.57Z"/><path class="cls-2" d="M17.18,369.38c-.01-.07-.01-.15,0-.22.31-.14.46-.32.55-.57.08,0,.16,0,.24,0,.09.25.24.43.55.57,0,.07,0,.15,0,.22-.31.14-.46.32-.55.57-.08,0-.16,0-.24,0-.09-.25-.24-.43-.55-.57Z"/><path class="cls-2" d="M18.71,369.38c-.01-.07-.01-.15,0-.22.31-.14.46-.32.55-.57.08,0,.16,0,.24,0,.09.25.24.43.55.57,0,.07,0,.15,0,.22-.31.14-.46.32-.55.57-.08,0-.16,0-.24,0-.09-.25-.24-.43-.55-.57Z"/><path class="cls-2" d="M20.24,369.38c-.01-.07-.01-.15,0-.22.31-.14.46-.32.55-.57.08,0,.16,0,.24,0,.09.25.24.43.55.57.01.07.01.15,0,.22-.31.14-.46.32-.55.57-.08,0-.16,0-.24,0-.09-.25-.24-.43-.55-.57Z"/><path class="cls-2" d="M21.77,369.38c-.01-.07-.01-.15,0-.22.31-.14.46-.32.55-.57.08,0,.16,0,.24,0,.09.25.24.43.55.57,0,.07,0,.15,0,.22-.31.14-.46.32-.55.57-.08,0-.16,0-.24,0-.09-.25-.24-.43-.55-.57Z"/><path class="cls-2" d="M23.3,369.38c-.01-.07-.01-.15,0-.22.31-.14.46-.32.55-.57.08,0,.16,0,.24,0,.09.25.24.43.55.57.01.07.01.15,0,.22-.31.14-.46.32-.55.57-.08,0-.16,0-.24,0-.09-.25-.24-.43-.55-.57Z"/><path class="cls-2" d="M24.83,369.38c-.01-.07-.01-.15,0-.22.31-.14.46-.32.55-.57.08,0,.16,0,.24,0,.09.25.24.43.55.57.01.07.01.15,0,.22-.31.14-.46.32-.55.57-.08,0-.16,0-.24,0-.09-.25-.24-.43-.55-.57Z"/><path class="cls-2" d="M26.36,369.38c-.01-.07-.01-.15,0-.22.31-.14.46-.32.55-.57.08,0,.16,0,.24,0,.09.25.24.43.55.57,0,.07,0,.15,0,.22-.31.14-.46.32-.55.57-.08,0-.16,0-.24,0-.09-.25-.24-.43-.55-.57Z"/><path class="cls-2" d="M27.89,369.38c-.01-.07-.01-.15,0-.22.31-.14.46-.32.55-.57.08,0,.16,0,.24,0,.09.25.24.43.55.57.01.07.01.15,0,.22-.31.14-.46.32-.55.57-.08,0-.16,0-.24,0-.09-.25-.24-.43-.55-.57Z"/><path class="cls-2" d="M29.42,369.38c-.01-.07-.01-.15,0-.22.31-.14.46-.32.55-.57.08,0,.16,0,.24,0,.09.25.24.43.55.57,0,.07,0,.15,0,.22-.31.14-.46.32-.55.57-.08,0-.16,0-.24,0-.09-.25-.24-.43-.55-.57Z"/><path class="cls-2" d="M30.95,369.38c-.01-.07-.01-.15,0-.22.31-.14.46-.32.55-.57.08,0,.16,0,.24,0,.09.25.24.43.55.57,0,.07,0,.15,0,.22-.31.14-.46.32-.55.57-.08,0-.16,0-.24,0-.09-.25-.24-.43-.55-.57Z"/><path class="cls-2" d="M32.48,369.38c-.01-.07-.01-.15,0-.22.31-.14.46-.32.55-.57.08,0,.16,0,.24,0,.09.25.24.43.55.57.01.07.01.15,0,.22-.31.14-.46.32-.55.57-.08,0-.16,0-.24,0-.09-.25-.24-.43-.55-.57Z"/><path class="cls-2" d="M34.01,369.38c-.01-.07-.01-.15,0-.22.31-.14.46-.32.55-.57.08,0,.16,0,.24,0,.09.25.24.43.55.57,0,.07,0,.15,0,.22-.31.14-.46.32-.55.57-.08,0-.16,0-.24,0-.09-.25-.24-.43-.55-.57Z"/><path class="cls-2" d="M35.54,369.38c-.01-.07-.01-.15,0-.22.31-.14.46-.32.55-.57.08,0,.16,0,.24,0,.09.25.24.43.55.57.01.07.01.15,0,.22-.31.14-.46.32-.55.57-.08,0-.16,0-.24,0-.09-.25-.24-.43-.55-.57Z"/><path class="cls-2" d="M37.07,369.38c-.01-.07-.01-.15,0-.22.31-.14.46-.32.55-.57.08,0,.16,0,.24,0,.09.25.24.43.55.57,0,.07,0,.15,0,.22-.31.14-.46.32-.55.57-.08,0-.16,0-.24,0-.09-.25-.24-.43-.55-.57Z"/><path class="cls-2" d="M38.6,369.38c-.01-.07-.01-.15,0-.22.31-.14.46-.32.55-.57.08,0,.16,0,.24,0,.09.25.24.43.55.57,0,.07,0,.15,0,.22-.31.14-.46.32-.55.57-.08,0-.16,0-.24,0-.09-.25-.24-.43-.55-.57Z"/><path class="cls-2" d="M40.13,369.38c-.01-.07-.01-.15,0-.22.31-.14.46-.32.55-.57.08,0,.16,0,.24,0,.09.25.24.43.55.57.01.07.01.15,0,.22-.31.14-.46.32-.55.57-.08,0-.16,0-.24,0-.09-.25-.24-.43-.55-.57Z"/><path class="cls-2" d="M41.66,369.38c-.01-.07-.01-.15,0-.22.31-.14.46-.32.55-.57.08,0,.16,0,.24,0,.09.25.24.43.55.57,0,.07,0,.15,0,.22-.31.14-.46.32-.55.57-.08,0-.16,0-.24,0-.09-.25-.24-.43-.55-.57Z"/><path class="cls-2" d="M43.19,369.38c-.01-.07-.01-.15,0-.22.31-.14.46-.32.55-.57.08,0,.16,0,.24,0,.09.25.24.43.55.57.01.07.01.15,0,.22-.31.14-.46.32-.55.57-.08,0-.16,0-.24,0-.09-.25-.24-.43-.55-.57Z"/><path class="cls-2" d="M44.72,369.38c-.01-.07-.01-.15,0-.22.31-.14.46-.32.55-.57.08,0,.16,0,.24,0,.09.25.24.43.55.57.01.07.01.15,0,.22-.31.14-.46.32-.55.57-.08,0-.16,0-.24,0-.09-.25-.24-.43-.55-.57Z"/><path class="cls-2" d="M46.25,369.38c-.01-.07-.01-.15,0-.22.31-.14.46-.32.55-.57.08,0,.16,0,.24,0,.09.25.24.43.55.57,0,.07,0,.15,0,.22-.31.14-.46.32-.55.57-.08,0-.16,0-.24,0-.09-.25-.24-.43-.55-.57Z"/><path class="cls-2" d="M47.78,369.38c-.01-.07-.01-.15,0-.22.31-.14.46-.32.55-.57.08,0,.16,0,.24,0,.09.25.24.43.55.57.01.07.01.15,0,.22-.31.14-.46.32-.55.57-.08,0-.16,0-.24,0-.09-.25-.24-.43-.55-.57Z"/><path class="cls-2" d="M49.31,369.38c-.01-.07-.01-.15,0-.22.31-.14.46-.32.55-.57.08,0,.16,0,.24,0,.09.25.24.43.55.57,0,.07,0,.15,0,.22-.31.14-.46.32-.55.57-.08,0-.16,0-.24,0-.09-.25-.24-.43-.55-.57Z"/><path class="cls-2" d="M50.84,369.38c-.01-.07-.01-.15,0-.22.31-.14.46-.32.55-.57.08,0,.16,0,.24,0,.09.25.24.43.55.57.01.07.01.15,0,.22-.31.14-.46.32-.55.57-.08,0-.16,0-.24,0-.09-.25-.24-.43-.55-.57Z"/><path class="cls-2" d="M52.37,369.38c-.01-.07-.01-.15,0-.22.31-.14.46-.32.55-.57.08,0,.16,0,.24,0,.09.25.24.43.55.57.01.07.01.15,0,.22-.31.14-.46.32-.55.57-.08,0-.16,0-.24,0-.09-.25-.24-.43-.55-.57Z"/><path class="cls-2" d="M53.9,369.38c-.01-.07-.01-.15,0-.22.31-.14.46-.32.55-.57.08,0,.16,0,.24,0,.09.25.24.43.55.57,0,.07,0,.15,0,.22-.31.14-.46.32-.55.57-.08,0-.16,0-.24,0-.09-.25-.24-.43-.55-.57Z"/><path class="cls-2" d="M55.43,369.38c-.01-.07-.01-.15,0-.22.31-.14.46-.32.55-.57.08,0,.16,0,.24,0,.09.25.24.43.55.57.01.07.01.15,0,.22-.31.14-.46.32-.55.57-.08,0-.16,0-.24,0-.09-.25-.24-.43-.55-.57Z"/><path class="cls-2" d="M56.96,369.38c-.01-.07-.01-.15,0-.22.31-.14.46-.32.55-.57.08,0,.16,0,.24,0,.09.25.24.43.55.57,0,.07,0,.15,0,.22-.31.14-.46.32-.55.57-.08,0-.16,0-.24,0-.09-.25-.24-.43-.55-.57Z"/><path class="cls-2" d="M58.49,369.38c-.01-.07-.01-.15,0-.22.31-.14.46-.32.55-.57.08,0,.16,0,.24,0,.09.25.24.43.55.57,0,.07,0,.15,0,.22-.31.14-.46.32-.55.57-.08,0-.16,0-.24,0-.09-.25-.24-.43-.55-.57Z"/><path class="cls-2" d="M60.02,369.38c-.01-.07-.01-.15,0-.22.31-.14.46-.32.55-.57.08,0,.16,0,.24,0,.09.25.24.43.55.57.01.07.01.15,0,.22-.31.14-.46.32-.55.57-.08,0-.16,0-.24,0-.09-.25-.24-.43-.55-.57Z"/><path class="cls-2" d="M61.55,369.38c-.01-.07-.01-.15,0-.22.31-.14.46-.32.55-.57.08,0,.16,0,.24,0,.09.25.24.43.55.57,0,.07,0,.15,0,.22-.31.14-.46.32-.55.57-.08,0-.16,0-.24,0-.09-.25-.24-.43-.55-.57Z"/><path class="cls-2" d="M63.08,369.38c-.01-.07-.01-.15,0-.22.31-.14.46-.32.55-.57.08,0,.16,0,.24,0,.09.25.24.43.55.57.01.07.01.15,0,.22-.31.14-.46.32-.55.57-.08,0-.16,0-.24,0-.09-.25-.24-.43-.55-.57Z"/><path class="cls-2" d="M64.61,369.38c-.01-.07-.01-.15,0-.22.31-.14.46-.32.55-.57.08,0,.16,0,.24,0,.09.25.24.43.55.57,0,.07,0,.15,0,.22-.31.14-.46.32-.55.57-.08,0-.16,0-.24,0-.09-.25-.24-.43-.55-.57Z"/><path class="cls-2" d="M66.14,369.38c-.01-.07-.01-.15,0-.22.31-.14.46-.32.55-.57.08,0,.16,0,.24,0,.09.25.24.43.55.57,0,.07,0,.15,0,.22-.31.14-.46.32-.55.57-.08,0-.16,0-.24,0-.09-.25-.24-.43-.55-.57Z"/><path class="cls-2" d="M67.67,369.38c-.01-.07-.01-.15,0-.22.31-.14.46-.32.55-.57.08,0,.16,0,.24,0,.09.25.24.43.55.57.01.07.01.15,0,.22-.31.14-.46.32-.55.57-.08,0-.16,0-.24,0-.09-.25-.24-.43-.55-.57Z"/><path class="cls-2" d="M69.2,369.38c-.01-.07-.01-.15,0-.22.31-.14.46-.32.55-.57.08,0,.16,0,.24,0,.09.25.24.43.55.57,0,.07,0,.15,0,.22-.31.14-.46.32-.55.57-.08,0-.16,0-.24,0-.09-.25-.24-.43-.55-.57Z"/><path class="cls-2" d="M70.73,369.38c-.01-.07-.01-.15,0-.22.31-.14.46-.32.55-.57.08,0,.16,0,.24,0,.09.25.24.43.55.57.01.07.01.15,0,.22-.31.14-.46.32-.55.57-.08,0-.16,0-.24,0-.09-.25-.24-.43-.55-.57Z"/><path class="cls-2" d="M72.26,369.38c-.01-.07-.01-.15,0-.22.31-.14.46-.32.55-.57.08,0,.16,0,.24,0,.09.25.24.43.55.57.01.07.01.15,0,.22-.31.14-.46.32-.55.57-.08,0-.16,0-.24,0-.09-.25-.24-.43-.55-.57Z"/><path class="cls-2" d="M73.79,369.38c-.01-.07-.01-.15,0-.22.31-.14.46-.32.55-.57.08,0,.16,0,.24,0,.09.25.24.43.55.57,0,.07,0,.15,0,.22-.31.14-.46.32-.55.57-.08,0-.16,0-.24,0-.09-.25-.24-.43-.55-.57Z"/><path class="cls-2" d="M75.32,369.38c-.01-.07-.01-.15,0-.22.31-.14.46-.32.55-.57.08,0,.16,0,.24,0,.09.25.24.43.55.57.01.07.01.15,0,.22-.31.14-.46.32-.55.57-.08,0-.16,0-.24,0-.09-.25-.24-.43-.55-.57Z"/><path class="cls-2" d="M76.85,369.38c-.01-.07-.01-.15,0-.22.31-.14.46-.32.55-.57.08,0,.16,0,.24,0,.09.25.24.43.55.57,0,.07,0,.15,0,.22-.31.14-.46.32-.55.57-.08,0-.16,0-.24,0-.09-.25-.24-.43-.55-.57Z"/><path class="cls-2" d="M78.38,369.38c-.01-.07-.01-.15,0-.22.31-.14.46-.32.55-.57.08,0,.16,0,.24,0,.09.25.24.43.55.57.01.07.01.15,0,.22-.31.14-.46.32-.55.57-.08,0-.16,0-.24,0-.09-.25-.24-.43-.55-.57Z"/><path class="cls-2" d="M79.91,369.38c-.01-.07-.01-.15,0-.22.31-.14.46-.32.55-.57.08,0,.16,0,.24,0,.09.25.24.43.55.57.01.07.01.15,0,.22-.31.14-.46.32-.55.57-.08,0-.16,0-.24,0-.09-.25-.24-.43-.55-.57Z"/><path class="cls-2" d="M81.44,369.38c-.01-.07-.01-.15,0-.22.31-.14.46-.32.55-.57.08,0,.16,0,.24,0,.09.25.24.43.55.57,0,.07,0,.15,0,.22-.31.14-.46.32-.55.57-.08,0-.16,0-.24,0-.09-.25-.24-.43-.55-.57Z"/><path class="cls-2" d="M82.97,369.38c-.01-.07-.01-.15,0-.22.31-.14.46-.32.55-.57.08,0,.16,0,.24,0,.09.25.24.43.55.57.01.07.01.15,0,.22-.31.14-.46.32-.55.57-.08,0-.16,0-.24,0-.09-.25-.24-.43-.55-.57Z"/><path class="cls-2" d="M84.5,369.38c-.01-.07-.01-.15,0-.22.31-.14.46-.32.55-.57.08,0,.16,0,.24,0,.09.25.24.43.55.57,0,.07,0,.15,0,.22-.31.14-.46.32-.55.57-.08,0-.16,0-.24,0-.09-.25-.24-.43-.55-.57Z"/><path class="cls-2" d="M86.03,369.38c-.01-.07-.01-.15,0-.22.31-.14.46-.32.55-.57.08,0,.16,0,.24,0,.09.25.24.43.55.57,0,.07,0,.15,0,.22-.31.14-.46.32-.55.57-.08,0-.16,0-.24,0-.09-.25-.24-.43-.55-.57Z"/><path class="cls-2" d="M87.56,369.38c-.01-.07-.01-.15,0-.22.31-.14.46-.32.55-.57.08,0,.16,0,.24,0,.09.25.24.43.55.57.01.07.01.15,0,.22-.31.14-.46.32-.55.57-.08,0-.16,0-.24,0-.09-.25-.24-.43-.55-.57Z"/><path class="cls-2" d="M89.09,369.38c-.01-.07-.01-.15,0-.22.31-.14.46-.32.55-.57.08,0,.16,0,.24,0,.09.25.24.43.55.57,0,.07,0,.15,0,.22-.31.14-.46.32-.55.57-.08,0-.16,0-.24,0-.09-.25-.24-.43-.55-.57Z"/><path class="cls-2" d="M90.62,369.38c-.01-.07-.01-.15,0-.22.31-.14.46-.32.55-.57.08,0,.16,0,.24,0,.09.25.24.43.55.57.01.07.01.15,0,.22-.31.14-.46.32-.55.57-.08,0-.16,0-.24,0-.09-.25-.24-.43-.55-.57Z"/><path class="cls-2" d="M92.15,369.38c-.01-.07-.01-.15,0-.22.31-.14.46-.32.55-.57.08,0,.16,0,.24,0,.09.25.24.43.55.57,0,.07,0,.15,0,.22-.31.14-.46.32-.55.57-.08,0-.16,0-.24,0-.09-.25-.24-.43-.55-.57Z"/><path class="cls-2" d="M93.68,369.38c-.01-.07-.01-.15,0-.22.31-.14.46-.32.55-.57.08,0,.16,0,.24,0,.09.25.24.43.55.57,0,.07,0,.15,0,.22-.31.14-.46.32-.55.57-.08,0-.16,0-.24,0-.09-.25-.24-.43-.55-.57Z"/><path class="cls-2" d="M95.21,369.38c-.01-.07-.01-.15,0-.22.31-.14.46-.32.55-.57.08,0,.16,0,.24,0,.09.25.24.43.55.57.01.07.01.15,0,.22-.31.14-.46.32-.55.57-.08,0-.16,0-.24,0-.09-.25-.24-.43-.55-.57Z"/><path class="cls-2" d="M96.74,369.38c-.01-.07-.01-.15,0-.22.31-.14.46-.32.55-.57.08,0,.16,0,.24,0,.09.25.24.43.55.57,0,.07,0,.15,0,.22-.31.14-.46.32-.55.57-.08,0-.16,0-.24,0-.09-.25-.24-.43-.55-.57Z"/><path class="cls-2" d="M98.27,369.38c-.01-.07-.01-.15,0-.22.31-.14.46-.32.55-.57.08,0,.16,0,.24,0,.09.25.24.43.55.57.01.07.01.15,0,.22-.31.14-.46.32-.55.57-.08,0-.16,0-.24,0-.09-.25-.24-.43-.55-.57Z"/><path class="cls-2" d="M99.8,369.38c-.01-.07-.01-.15,0-.22.31-.14.46-.32.55-.57.08,0,.16,0,.24,0,.09.25.24.43.55.57.01.07.01.15,0,.22-.31.14-.46.32-.55.57-.08,0-.16,0-.24,0-.09-.25-.24-.43-.55-.57Z"/><path class="cls-2" d="M101.33,369.38c-.01-.07-.01-.15,0-.22.31-.14.46-.32.55-.57.08,0,.16,0,.24,0,.09.25.24.43.55.57,0,.07,0,.15,0,.22-.31.14-.46.32-.55.57-.08,0-.16,0-.24,0-.09-.25-.24-.43-.55-.57Z"/><path class="cls-2" d="M102.86,369.38c-.01-.07-.01-.15,0-.22.31-.14.46-.32.55-.57.08,0,.16,0,.24,0,.09.25.24.43.55.57.01.07.01.15,0,.22-.31.14-.46.32-.55.57-.08,0-.16,0-.24,0-.09-.25-.24-.43-.55-.57Z"/><path class="cls-2" d="M104.39,369.38c-.01-.07-.01-.15,0-.22.31-.14.46-.32.55-.57.08,0,.16,0,.24,0,.09.25.24.43.55.57,0,.07,0,.15,0,.22-.31.14-.46.32-.55.57-.08,0-.16,0-.24,0-.09-.25-.24-.43-.55-.57Z"/><path class="cls-2" d="M105.92,369.38c-.01-.07-.01-.15,0-.22.31-.14.46-.32.55-.57.08,0,.16,0,.24,0,.09.25.24.43.55.57,0,.07,0,.15,0,.22-.31.14-.46.32-.55.57-.08,0-.16,0-.24,0-.09-.25-.24-.43-.55-.57Z"/><path class="cls-2" d="M107.45,369.38c-.01-.07-.01-.15,0-.22.31-.14.46-.32.55-.57.08,0,.16,0,.24,0,.09.25.24.43.55.57.01.07.01.15,0,.22-.31.14-.46.32-.55.57-.08,0-.16,0-.24,0-.09-.25-.24-.43-.55-.57Z"/><path class="cls-2" d="M108.98,369.38c-.01-.07-.01-.15,0-.22.31-.14.46-.32.55-.57.08,0,.16,0,.24,0,.09.25.24.43.55.57,0,.07,0,.15,0,.22-.31.14-.46.32-.55.57-.08,0-.16,0-.24,0-.09-.25-.24-.43-.55-.57Z"/><path class="cls-2" d="M110.51,369.38c-.01-.07-.01-.15,0-.22.31-.14.46-.32.55-.57.08,0,.16,0,.24,0,.09.25.24.43.55.57.01.07.01.15,0,.22-.31.14-.46.32-.55.57-.08,0-.16,0-.24,0-.09-.25-.24-.43-.55-.57Z"/><path class="cls-2" d="M112.04,369.38c-.01-.07-.01-.15,0-.22.31-.14.46-.32.55-.57.08,0,.16,0,.24,0,.09.25.24.43.55.57,0,.07,0,.15,0,.22-.31.14-.46.32-.55.57-.08,0-.16,0-.24,0-.09-.25-.24-.43-.55-.57Z"/><path class="cls-2" d="M113.57,369.38c-.01-.07-.01-.15,0-.22.31-.14.46-.32.55-.57.08,0,.16,0,.24,0,.09.25.24.43.55.57,0,.07,0,.15,0,.22-.31.14-.46.32-.55.57-.08,0-.16,0-.24,0-.09-.25-.24-.43-.55-.57Z"/><path class="cls-2" d="M115.1,369.38c-.01-.07-.01-.15,0-.22.31-.14.46-.32.55-.57.08,0,.16,0,.24,0,.09.25.24.43.55.57.01.07.01.15,0,.22-.31.14-.46.32-.55.57-.08,0-.16,0-.24,0-.09-.25-.24-.43-.55-.57Z"/><path class="cls-2" d="M116.63,369.38c-.01-.07-.01-.15,0-.22.31-.14.46-.32.55-.57.08,0,.16,0,.24,0,.09.25.24.43.55.57,0,.07,0,.15,0,.22-.31.14-.46.32-.55.57-.08,0-.16,0-.24,0-.09-.25-.24-.43-.55-.57Z"/><path class="cls-2" d="M118.16,369.38c-.01-.07-.01-.15,0-.22.31-.14.46-.32.55-.57.08,0,.16,0,.24,0,.09.25.24.43.55.57.01.07.01.15,0,.22-.31.14-.46.32-.55.57-.08,0-.16,0-.24,0-.09-.25-.24-.43-.55-.57Z"/><path class="cls-2" d="M119.69,369.38c-.01-.07-.01-.15,0-.22.31-.14.46-.32.55-.57.08,0,.16,0,.24,0,.09.25.24.43.55.57.01.07.01.15,0,.22-.31.14-.46.32-.55.57-.08,0-.16,0-.24,0-.09-.25-.24-.43-.55-.57Z"/><path class="cls-2" d="M121.22,369.38c-.01-.07-.01-.15,0-.22.31-.14.46-.32.55-.57.08,0,.16,0,.24,0,.09.25.24.43.55.57,0,.07,0,.15,0,.22-.31.14-.46.32-.55.57-.08,0-.16,0-.24,0-.09-.25-.24-.43-.55-.57Z"/><path class="cls-2" d="M122.75,369.38c-.01-.07-.01-.15,0-.22.31-.14.46-.32.55-.57.08,0,.16,0,.24,0,.09.25.24.43.55.57.01.07.01.15,0,.22-.31.14-.46.32-.55.57-.08,0-.16,0-.24,0-.09-.25-.24-.43-.55-.57Z"/><path class="cls-2" d="M124.28,369.38c-.01-.07-.01-.15,0-.22.31-.14.46-.32.55-.57.08,0,.16,0,.24,0,.09.25.24.43.55.57,0,.07,0,.15,0,.22-.31.14-.46.32-.55.57-.08,0-.16,0-.24,0-.09-.25-.24-.43-.55-.57Z"/><path class="cls-2" d="M125.81,369.38c-.01-.07-.01-.15,0-.22.31-.14.46-.32.55-.57.08,0,.16,0,.24,0,.09.25.24.43.55.57.01.07.01.15,0,.22-.31.14-.46.32-.55.57-.08,0-.16,0-.24,0-.09-.25-.24-.43-.55-.57Z"/><path class="cls-2" d="M127.34,369.38c-.01-.07-.01-.15,0-.22.31-.14.46-.32.55-.57.08,0,.16,0,.24,0,.09.25.24.43.55.57.01.07.01.15,0,.22-.31.14-.46.32-.55.57-.08,0-.16,0-.24,0-.09-.25-.24-.43-.55-.57Z"/><path class="cls-2" d="M128.87,369.38c-.01-.07-.01-.15,0-.22.31-.14.46-.32.55-.57.08,0,.16,0,.24,0,.09.25.24.43.55.57,0,.07,0,.15,0,.22-.31.14-.46.32-.55.57-.08,0-.16,0-.24,0-.09-.25-.24-.43-.55-.57Z"/><path class="cls-2" d="M130.4,369.38c-.01-.07-.01-.15,0-.22.31-.14.46-.32.55-.57.08,0,.16,0,.24,0,.09.25.24.43.55.57.01.07.01.15,0,.22-.31.14-.46.32-.55.57-.08,0-.16,0-.24,0-.09-.25-.24-.43-.55-.57Z"/><path class="cls-2" d="M131.93,369.38c-.01-.07-.01-.15,0-.22.31-.14.46-.32.55-.57.08,0,.16,0,.24,0,.09.25.24.43.55.57,0,.07,0,.15,0,.22-.31.14-.46.32-.55.57-.08,0-.16,0-.24,0-.09-.25-.24-.43-.55-.57Z"/><path class="cls-2" d="M133.46,369.38c-.01-.07-.01-.15,0-.22.31-.14.46-.32.55-.57.08,0,.16,0,.24,0,.09.25.24.43.55.57,0,.07,0,.15,0,.22-.31.14-.46.32-.55.57-.08,0-.16,0-.24,0-.09-.25-.24-.43-.55-.57Z"/><path class="cls-2" d="M134.99,369.38c-.01-.07-.01-.15,0-.22.31-.14.46-.32.55-.57.08,0,.16,0,.24,0,.09.25.24.43.55.57.01.07.01.15,0,.22-.31.14-.46.32-.55.57-.08,0-.16,0-.24,0-.09-.25-.24-.43-.55-.57Z"/><path class="cls-2" d="M136.52,369.38c-.01-.07-.01-.15,0-.22.31-.14.46-.32.55-.57.08,0,.16,0,.24,0,.09.25.24.43.55.57,0,.07,0,.15,0,.22-.31.14-.46.32-.55.57-.08,0-.16,0-.24,0-.09-.25-.24-.43-.55-.57Z"/><path class="cls-2" d="M138.05,369.38c-.01-.07-.01-.15,0-.22.31-.14.46-.32.55-.57.08,0,.16,0,.24,0,.09.25.24.43.55.57.01.07.01.15,0,.22-.31.14-.46.32-.55.57-.08,0-.16,0-.24,0-.09-.25-.24-.43-.55-.57Z"/><path class="cls-2" d="M139.58,369.38c-.01-.07-.01-.15,0-.22.31-.14.46-.32.55-.57.08,0,.16,0,.24,0,.09.25.24.43.55.57,0,.07,0,.15,0,.22-.31.14-.46.32-.55.57-.08,0-.16,0-.24,0-.09-.25-.24-.43-.55-.57Z"/><path class="cls-2" d="M141.11,369.38c-.01-.07-.01-.15,0-.22.31-.14.46-.32.55-.57.08,0,.16,0,.24,0,.09.25.24.43.55.57,0,.07,0,.15,0,.22-.31.14-.46.32-.55.57-.08,0-.16,0-.24,0-.09-.25-.24-.43-.55-.57Z"/><path class="cls-2" d="M142.64,369.38c-.01-.07-.01-.15,0-.22.31-.14.46-.32.55-.57.08,0,.16,0,.24,0,.09.25.24.43.55.57.01.07.01.15,0,.22-.31.14-.46.32-.55.57-.08,0-.16,0-.24,0-.09-.25-.24-.43-.55-.57Z"/><path class="cls-2" d="M144.17,369.38c-.01-.07-.01-.15,0-.22.31-.14.46-.32.55-.57.08,0,.16,0,.24,0,.09.25.24.43.55.57,0,.07,0,.15,0,.22-.31.14-.46.32-.55.57-.08,0-.16,0-.24,0-.09-.25-.24-.43-.55-.57Z"/><path class="cls-2" d="M145.7,369.38c-.01-.07-.01-.15,0-.22.31-.14.46-.32.55-.57.08,0,.16,0,.24,0,.09.25.24.43.55.57.01.07.01.15,0,.22-.31.14-.46.32-.55.57-.08,0-.16,0-.24,0-.09-.25-.24-.43-.55-.57Z"/><path class="cls-2" d="M147.23,369.38c-.01-.07-.01-.15,0-.22.31-.14.46-.32.55-.57.08,0,.16,0,.24,0,.09.25.24.43.55.57.01.07.01.15,0,.22-.31.14-.46.32-.55.57-.08,0-.16,0-.24,0-.09-.25-.24-.43-.55-.57Z"/><path class="cls-2" d="M148.76,369.38c-.01-.07-.01-.15,0-.22.31-.14.46-.32.55-.57.08,0,.16,0,.24,0,.09.25.24.43.55.57,0,.07,0,.15,0,.22-.31.14-.46.32-.55.57-.08,0-.16,0-.24,0-.09-.25-.24-.43-.55-.57Z"/><path class="cls-2" d="M150.29,369.38c-.01-.07-.01-.15,0-.22.31-.14.46-.32.55-.57.08,0,.16,0,.24,0,.09.25.24.43.55.57.01.07.01.15,0,.22-.31.14-.46.32-.55.57-.08,0-.16,0-.24,0-.09-.25-.24-.43-.55-.57Z"/><path class="cls-2" d="M151.81,369.38c-.01-.07-.01-.15,0-.22.31-.14.46-.32.55-.57.08,0,.16,0,.24,0,.09.25.24.43.55.57,0,.07,0,.15,0,.22-.31.14-.46.32-.55.57-.08,0-.16,0-.24,0-.09-.25-.24-.43-.55-.57Z"/><path class="cls-2" d="M153.35,369.38c-.01-.07-.01-.15,0-.22.31-.14.46-.32.55-.57.08,0,.16,0,.24,0,.09.25.24.43.55.57,0,.07,0,.15,0,.22-.31.14-.46.32-.55.57-.08,0-.16,0-.24,0-.09-.25-.24-.43-.55-.57Z"/><path class="cls-2" d="M154.87,369.38c-.01-.07-.01-.15,0-.22.31-.14.46-.32.55-.57.08,0,.16,0,.24,0,.09.25.24.43.55.57.01.07.01.15,0,.22-.31.14-.46.32-.55.57-.08,0-.16,0-.24,0-.09-.25-.24-.43-.55-.57Z"/><path class="cls-2" d="M156.4,369.38c-.01-.07-.01-.15,0-.22.31-.14.46-.32.55-.57.08,0,.16,0,.24,0,.09.25.24.43.55.57,0,.07,0,.15,0,.22-.31.14-.46.32-.55.57-.08,0-.16,0-.24,0-.09-.25-.24-.43-.55-.57Z"/><path class="cls-2" d="M157.93,369.38c-.01-.07-.01-.15,0-.22.31-.14.46-.32.55-.57.08,0,.16,0,.24,0,.09.25.24.43.55.57.01.07.01.15,0,.22-.31.14-.46.32-.55.57-.08,0-.16,0-.24,0-.09-.25-.24-.43-.55-.57Z"/><path class="cls-2" d="M159.46,369.38c-.01-.07-.01-.15,0-.22.31-.14.46-.32.55-.57.08,0,.16,0,.24,0,.09.25.24.43.55.57,0,.07,0,.15,0,.22-.31.14-.46.32-.55.57-.08,0-.16,0-.24,0-.09-.25-.24-.43-.55-.57Z"/><path class="cls-2" d="M160.99,369.38c-.01-.07-.01-.15,0-.22.31-.14.46-.32.55-.57.08,0,.16,0,.24,0,.09.25.24.43.55.57,0,.07,0,.15,0,.22-.31.14-.46.32-.55.57-.08,0-.16,0-.24,0-.09-.25-.24-.43-.55-.57Z"/><path class="cls-2" d="M162.52,369.38c-.01-.07-.01-.15,0-.22.31-.14.46-.32.55-.57.08,0,.16,0,.24,0,.09.25.24.43.55.57.01.07.01.15,0,.22-.31.14-.46.32-.55.57-.08,0-.16,0-.24,0-.09-.25-.24-.43-.55-.57Z"/><path class="cls-2" d="M164.05,369.38c-.01-.07-.01-.15,0-.22.31-.14.46-.32.55-.57.08,0,.16,0,.24,0,.09.25.24.43.55.57,0,.07,0,.15,0,.22-.31.14-.46.32-.55.57-.08,0-.16,0-.24,0-.09-.25-.24-.43-.55-.57Z"/><path class="cls-2" d="M165.58,369.38c-.01-.07-.01-.15,0-.22.31-.14.46-.32.55-.57.08,0,.16,0,.24,0,.09.25.24.43.55.57.01.07.01.15,0,.22-.31.14-.46.32-.55.57-.08,0-.16,0-.24,0-.09-.25-.24-.43-.55-.57Z"/><path class="cls-2" d="M167.11,369.38c-.01-.07-.01-.15,0-.22.31-.14.46-.32.55-.57.08,0,.16,0,.24,0,.09.25.24.43.55.57.01.07.01.15,0,.22-.31.14-.46.32-.55.57-.08,0-.16,0-.24,0-.09-.25-.24-.43-.55-.57Z"/><path class="cls-2" d="M168.64,369.38c-.01-.07-.01-.15,0-.22.31-.14.46-.32.55-.57.08,0,.16,0,.24,0,.09.25.24.43.55.57,0,.07,0,.15,0,.22-.31.14-.46.32-.55.57-.08,0-.16,0-.24,0-.09-.25-.24-.43-.55-.57Z"/><path class="cls-2" d="M170.17,369.38c-.01-.07-.01-.15,0-.22.31-.14.46-.32.55-.57.08,0,.16,0,.24,0,.09.25.24.43.55.57.01.07.01.15,0,.22-.31.14-.46.32-.55.57-.08,0-.16,0-.24,0-.09-.25-.24-.43-.55-.57Z"/><path class="cls-2" d="M171.7,369.38c-.01-.07-.01-.15,0-.22.31-.14.46-.32.55-.57.08,0,.16,0,.24,0,.09.25.24.43.55.57,0,.07,0,.15,0,.22-.31.14-.46.32-.55.57-.08,0-.16,0-.24,0-.09-.25-.24-.43-.55-.57Z"/><path class="cls-2" d="M173.23,369.38c-.01-.07-.01-.15,0-.22.31-.14.46-.32.55-.57.08,0,.16,0,.24,0,.09.25.24.43.55.57.01.07.01.15,0,.22-.31.14-.46.32-.55.57-.08,0-.16,0-.24,0-.09-.25-.24-.43-.55-.57Z"/><path class="cls-2" d="M174.76,369.38c-.01-.07-.01-.15,0-.22.31-.14.46-.32.55-.57.08,0,.16,0,.24,0,.09.25.24.43.55.57.01.07.01.15,0,.22-.31.14-.46.32-.55.57-.08,0-.16,0-.24,0-.09-.25-.24-.43-.55-.57Z"/><path class="cls-2" d="M176.29,369.38c-.01-.07-.01-.15,0-.22.31-.14.46-.32.55-.57.08,0,.16,0,.24,0,.09.25.24.43.55.57,0,.07,0,.15,0,.22-.31.14-.46.32-.55.57-.08,0-.16,0-.24,0-.09-.25-.24-.43-.55-.57Z"/><path class="cls-2" d="M177.82,369.38c-.01-.07-.01-.15,0-.22.31-.14.46-.32.55-.57.08,0,.16,0,.24,0,.09.25.24.43.55.57.01.07.01.15,0,.22-.31.14-.46.32-.55.57-.08,0-.16,0-.24,0-.09-.25-.24-.43-.55-.57Z"/><path class="cls-2" d="M179.35,369.38c-.01-.07-.01-.15,0-.22.31-.14.46-.32.55-.57.08,0,.16,0,.24,0,.09.25.24.43.55.57,0,.07,0,.15,0,.22-.31.14-.46.32-.55.57-.08,0-.16,0-.24,0-.09-.25-.24-.43-.55-.57Z"/><path class="cls-2" d="M180.88,369.38c-.01-.07-.01-.15,0-.22.31-.14.46-.32.55-.57.08,0,.16,0,.24,0,.09.25.24.43.55.57,0,.07,0,.15,0,.22-.31.14-.46.32-.55.57-.08,0-.16,0-.24,0-.09-.25-.24-.43-.55-.57Z"/><path class="cls-2" d="M182.41,369.38c-.01-.07-.01-.15,0-.22.31-.14.46-.32.55-.57.08,0,.16,0,.24,0,.09.25.24.43.55.57.01.07.01.15,0,.22-.31.14-.46.32-.55.57-.08,0-.16,0-.24,0-.09-.25-.24-.43-.55-.57Z"/><path class="cls-2" d="M183.94,369.38c-.01-.07-.01-.15,0-.22.31-.14.46-.32.55-.57.08,0,.16,0,.24,0,.09.25.24.43.55.57,0,.07,0,.15,0,.22-.31.14-.46.32-.55.57-.08,0-.16,0-.24,0-.09-.25-.24-.43-.55-.57Z"/><path class="cls-2" d="M185.47,369.38c-.01-.07-.01-.15,0-.22.31-.14.46-.32.55-.57.08,0,.16,0,.24,0,.09.25.24.43.55.57.01.07.01.15,0,.22-.31.14-.46.32-.55.57-.08,0-.16,0-.24,0-.09-.25-.24-.43-.55-.57Z"/><path class="cls-2" d="M187,369.38c-.01-.07-.01-.15,0-.22.31-.14.46-.32.55-.57.08,0,.16,0,.24,0,.09.25.24.43.55.57,0,.07,0,.15,0,.22-.31.14-.46.32-.55.57-.08,0-.16,0-.24,0-.09-.25-.24-.43-.55-.57Z"/><path class="cls-2" d="M188.53,369.38c-.01-.07-.01-.15,0-.22.31-.14.46-.32.55-.57.08,0,.16,0,.24,0,.09.25.24.43.55.57,0,.07,0,.15,0,.22-.31.14-.46.32-.55.57-.08,0-.16,0-.24,0-.09-.25-.24-.43-.55-.57Z"/><path class="cls-2" d="M190.06,369.38c-.01-.07-.01-.15,0-.22.31-.14.46-.32.55-.57.08,0,.16,0,.24,0,.09.25.24.43.55.57.01.07.01.15,0,.22-.31.14-.46.32-.55.57-.08,0-.16,0-.24,0-.09-.25-.24-.43-.55-.57Z"/><path class="cls-2" d="M191.59,369.38c-.01-.07-.01-.15,0-.22.31-.14.46-.32.55-.57.08,0,.16,0,.24,0,.09.25.24.43.55.57,0,.07,0,.15,0,.22-.31.14-.46.32-.55.57-.08,0-.16,0-.24,0-.09-.25-.24-.43-.55-.57Z"/><path class="cls-2" d="M193.12,369.38c-.01-.07-.01-.15,0-.22.31-.14.46-.32.55-.57.08,0,.16,0,.24,0,.09.25.24.43.55.57.01.07.01.15,0,.22-.31.14-.46.32-.55.57-.08,0-.16,0-.24,0-.09-.25-.24-.43-.55-.57Z"/><path class="cls-2" d="M193.4,369.38c-.01-.07-.01-.15,0-.22.31-.14.46-.32.55-.57.08,0,.16,0,.24,0,.09.25.24.43.55.57.01.07.01.15,0,.22-.31.14-.46.32-.55.57-.08,0-.16,0-.24,0-.09-.25-.24-.43-.55-.57Z"/><path class="cls-2" d="M194.93,369.38c-.01-.07-.01-.15,0-.22.31-.14.46-.32.55-.57.08,0,.16,0,.24,0,.09.25.24.43.55.57,0,.07,0,.15,0,.22-.31.14-.46.32-.55.57-.08,0-.16,0-.24,0-.09-.25-.24-.43-.55-.57Z"/><path class="cls-2" d="M196.46,369.38c-.01-.07-.01-.15,0-.22.31-.14.46-.32.55-.57.08,0,.16,0,.24,0,.09.25.24.43.55.57.01.07.01.15,0,.22-.31.14-.46.32-.55.57-.08,0-.16,0-.24,0-.09-.25-.24-.43-.55-.57Z"/><path class="cls-2" d="M197.99,369.38c-.01-.07-.01-.15,0-.22.31-.14.46-.32.55-.57.08,0,.16,0,.24,0,.09.25.24.43.55.57.01.07.01.15,0,.22-.31.14-.46.32-.55.57-.08,0-.16,0-.24,0-.09-.25-.24-.43-.55-.57Z"/><path class="cls-2" d="M199.52,369.38c-.01-.07-.01-.15,0-.22.31-.14.46-.32.55-.57.08,0,.16,0,.24,0,.09.25.24.43.55.57,0,.07,0,.15,0,.22-.31.14-.46.32-.55.57-.08,0-.16,0-.24,0-.09-.25-.24-.43-.55-.57Z"/><path class="cls-2" d="M201.05,369.38c-.01-.07-.01-.15,0-.22.31-.14.46-.32.55-.57.08,0,.16,0,.24,0,.09.25.24.43.55.57.01.07.01.15,0,.22-.31.14-.46.32-.55.57-.08,0-.16,0-.24,0-.09-.25-.24-.43-.55-.57Z"/><path class="cls-2" d="M202.58,369.38c-.01-.07-.01-.15,0-.22.31-.14.46-.32.55-.57.08,0,.16,0,.24,0,.09.25.24.43.55.57,0,.07,0,.15,0,.22-.31.14-.46.32-.55.57-.08,0-.16,0-.24,0-.09-.25-.24-.43-.55-.57Z"/><path class="cls-2" d="M204.11,369.38c-.01-.07-.01-.15,0-.22.31-.14.46-.32.55-.57.08,0,.16,0,.24,0,.09.25.24.43.55.57,0,.07,0,.15,0,.22-.31.14-.46.32-.55.57-.08,0-.16,0-.24,0-.09-.25-.24-.43-.55-.57Z"/><path class="cls-2" d="M205.64,369.38c-.01-.07-.01-.15,0-.22.31-.14.46-.32.55-.57.08,0,.16,0,.24,0,.09.25.24.43.55.57.01.07.01.15,0,.22-.31.14-.46.32-.55.57-.08,0-.16,0-.24,0-.09-.25-.24-.43-.55-.57Z"/><path class="cls-2" d="M207.17,369.38c-.01-.07-.01-.15,0-.22.31-.14.46-.32.55-.57.08,0,.16,0,.24,0,.09.25.24.43.55.57,0,.07,0,.15,0,.22-.31.14-.46.32-.55.57-.08,0-.16,0-.24,0-.09-.25-.24-.43-.55-.57Z"/><path class="cls-2" d="M208.7,369.38c-.01-.07-.01-.15,0-.22.31-.14.46-.32.55-.57.08,0,.16,0,.24,0,.09.25.24.43.55.57.01.07.01.15,0,.22-.31.14-.46.32-.55.57-.08,0-.16,0-.24,0-.09-.25-.24-.43-.55-.57Z"/><path class="cls-2" d="M210.23,369.38c-.01-.07-.01-.15,0-.22.31-.14.46-.32.55-.57.08,0,.16,0,.24,0,.09.25.24.43.55.57,0,.07,0,.15,0,.22-.31.14-.46.32-.55.57-.08,0-.16,0-.24,0-.09-.25-.24-.43-.55-.57Z"/><path class="cls-2" d="M211.76,369.38c-.01-.07-.01-.15,0-.22.31-.14.46-.32.55-.57.08,0,.16,0,.24,0,.09.25.24.43.55.57,0,.07,0,.15,0,.22-.31.14-.46.32-.55.57-.08,0-.16,0-.24,0-.09-.25-.24-.43-.55-.57Z"/><path class="cls-2" d="M213.29,369.38c-.01-.07-.01-.15,0-.22.31-.14.46-.32.55-.57.08,0,.16,0,.24,0,.09.25.24.43.55.57.01.07.01.15,0,.22-.31.14-.46.32-.55.57-.08,0-.16,0-.24,0-.09-.25-.24-.43-.55-.57Z"/><path class="cls-2" d="M214.82,369.38c-.01-.07-.01-.15,0-.22.31-.14.46-.32.55-.57.08,0,.16,0,.24,0,.09.25.24.43.55.57,0,.07,0,.15,0,.22-.31.14-.46.32-.55.57-.08,0-.16,0-.24,0-.09-.25-.24-.43-.55-.57Z"/><path class="cls-2" d="M216.35,369.38c-.01-.07-.01-.15,0-.22.31-.14.46-.32.55-.57.08,0,.16,0,.24,0,.09.25.24.43.55.57.01.07.01.15,0,.22-.31.14-.46.32-.55.57-.08,0-.16,0-.24,0-.09-.25-.24-.43-.55-.57Z"/><path class="cls-2" d="M217.88,369.38c-.01-.07-.01-.15,0-.22.31-.14.46-.32.55-.57.08,0,.16,0,.24,0,.09.25.24.43.55.57.01.07.01.15,0,.22-.31.14-.46.32-.55.57-.08,0-.16,0-.24,0-.09-.25-.24-.43-.55-.57Z"/><path class="cls-2" d="M219.41,369.38c-.01-.07-.01-.15,0-.22.31-.14.46-.32.55-.57.08,0,.16,0,.24,0,.09.25.24.43.55.57,0,.07,0,.15,0,.22-.31.14-.46.32-.55.57-.08,0-.16,0-.24,0-.09-.25-.24-.43-.55-.57Z"/><path class="cls-2" d="M220.94,369.38c-.01-.07-.01-.15,0-.22.31-.14.46-.32.55-.57.08,0,.16,0,.24,0,.09.25.24.43.55.57.01.07.01.15,0,.22-.31.14-.46.32-.55.57-.08,0-.16,0-.24,0-.09-.25-.24-.43-.55-.57Z"/><path class="cls-2" d="M222.47,369.38c-.01-.07-.01-.15,0-.22.31-.14.46-.32.55-.57.08,0,.16,0,.24,0,.09.25.24.43.55.57,0,.07,0,.15,0,.22-.31.14-.46.32-.55.57-.08,0-.16,0-.24,0-.09-.25-.24-.43-.55-.57Z"/><path class="cls-2" d="M224,369.38c-.01-.07-.01-.15,0-.22.31-.14.46-.32.55-.57.08,0,.16,0,.24,0,.09.25.24.43.55.57,0,.07,0,.15,0,.22-.31.14-.46.32-.55.57-.08,0-.16,0-.24,0-.09-.25-.24-.43-.55-.57Z"/><path class="cls-2" d="M225.53,369.38c-.01-.07-.01-.15,0-.22.31-.14.46-.32.55-.57.08,0,.16,0,.24,0,.09.25.24.43.55.57.01.07.01.15,0,.22-.31.14-.46.32-.55.57-.08,0-.16,0-.24,0-.09-.25-.24-.43-.55-.57Z"/><path class="cls-2" d="M227.06,369.38c-.01-.07-.01-.15,0-.22.31-.14.46-.32.55-.57.08,0,.16,0,.24,0,.09.25.24.43.55.57,0,.07,0,.15,0,.22-.31.14-.46.32-.55.57-.08,0-.16,0-.24,0-.09-.25-.24-.43-.55-.57Z"/><path class="cls-2" d="M228.59,369.38c-.01-.07-.01-.15,0-.22.31-.14.46-.32.55-.57.08,0,.16,0,.24,0,.09.25.24.43.55.57.01.07.01.15,0,.22-.31.14-.46.32-.55.57-.08,0-.16,0-.24,0-.09-.25-.24-.43-.55-.57Z"/><path class="cls-2" d="M230.12,369.38c-.01-.07-.01-.15,0-.22.31-.14.46-.32.55-.57.08,0,.16,0,.24,0,.09.25.24.43.55.57,0,.07,0,.15,0,.22-.31.14-.46.32-.55.57-.08,0-.16,0-.24,0-.09-.25-.24-.43-.55-.57Z"/><path class="cls-2" d="M231.65,369.38c-.01-.07-.01-.15,0-.22.31-.14.46-.32.55-.57.08,0,.16,0,.24,0,.09.25.24.43.55.57,0,.07,0,.15,0,.22-.31.14-.46.32-.55.57-.08,0-.16,0-.24,0-.09-.25-.24-.43-.55-.57Z"/><path class="cls-2" d="M233.18,369.38c-.01-.07-.01-.15,0-.22.31-.14.46-.32.55-.57.08,0,.16,0,.24,0,.09.25.24.43.55.57.01.07.01.15,0,.22-.31.14-.46.32-.55.57-.08,0-.16,0-.24,0-.09-.25-.24-.43-.55-.57Z"/><path class="cls-2" d="M234.71,369.38c-.01-.07-.01-.15,0-.22.31-.14.46-.32.55-.57.08,0,.16,0,.24,0,.09.25.24.43.55.57,0,.07,0,.15,0,.22-.31.14-.46.32-.55.57-.08,0-.16,0-.24,0-.09-.25-.24-.43-.55-.57Z"/><path class="cls-2" d="M236.24,369.38c-.01-.07-.01-.15,0-.22.31-.14.46-.32.55-.57.08,0,.16,0,.24,0,.09.25.24.43.55.57.01.07.01.15,0,.22-.31.14-.46.32-.55.57-.08,0-.16,0-.24,0-.09-.25-.24-.43-.55-.57Z"/><path class="cls-2" d="M237.77,369.38c-.01-.07-.01-.15,0-.22.31-.14.46-.32.55-.57.08,0,.16,0,.24,0,.09.25.24.43.55.57.01.07.01.15,0,.22-.31.14-.46.32-.55.57-.08,0-.16,0-.24,0-.09-.25-.24-.43-.55-.57Z"/><path class="cls-2" d="M239.3,369.38c-.01-.07-.01-.15,0-.22.31-.14.46-.32.55-.57.08,0,.16,0,.24,0,.09.25.24.43.55.57,0,.07,0,.15,0,.22-.31.14-.46.32-.55.57-.08,0-.16,0-.24,0-.09-.25-.24-.43-.55-.57Z"/><path class="cls-2" d="M240.83,369.38c-.01-.07-.01-.15,0-.22.31-.14.46-.32.55-.57.08,0,.16,0,.24,0,.09.25.24.43.55.57.01.07.01.15,0,.22-.31.14-.46.32-.55.57-.08,0-.16,0-.24,0-.09-.25-.24-.43-.55-.57Z"/><path class="cls-2" d="M242.36,369.38c-.01-.07-.01-.15,0-.22.31-.14.46-.32.55-.57.08,0,.16,0,.24,0,.09.25.24.43.55.57,0,.07,0,.15,0,.22-.31.14-.46.32-.55.57-.08,0-.16,0-.24,0-.09-.25-.24-.43-.55-.57Z"/><path class="cls-2" d="M243.89,369.38c-.01-.07-.01-.15,0-.22.31-.14.46-.32.55-.57.08,0,.16,0,.24,0,.09.25.24.43.55.57.01.07.01.15,0,.22-.31.14-.46.32-.55.57-.08,0-.16,0-.24,0-.09-.25-.24-.43-.55-.57Z"/><path class="cls-2" d="M245.42,369.38c-.01-.07-.01-.15,0-.22.31-.14.46-.32.55-.57.08,0,.16,0,.24,0,.09.25.24.43.55.57.01.07.01.15,0,.22-.31.14-.46.32-.55.57-.08,0-.16,0-.24,0-.09-.25-.24-.43-.55-.57Z"/><path class="cls-2" d="M246.95,369.38c-.01-.07-.01-.15,0-.22.31-.14.46-.32.55-.57.08,0,.16,0,.24,0,.09.25.24.43.55.57,0,.07,0,.15,0,.22-.31.14-.46.32-.55.57-.08,0-.16,0-.24,0-.09-.25-.24-.43-.55-.57Z"/><path class="cls-2" d="M248.48,369.38c-.01-.07-.01-.15,0-.22.31-.14.46-.32.55-.57.08,0,.16,0,.24,0,.09.25.24.43.55.57.01.07.01.15,0,.22-.31.14-.46.32-.55.57-.08,0-.16,0-.24,0-.09-.25-.24-.43-.55-.57Z"/><path class="cls-2" d="M250.01,369.38c-.01-.07-.01-.15,0-.22.31-.14.46-.32.55-.57.08,0,.16,0,.24,0,.09.25.24.43.55.57,0,.07,0,.15,0,.22-.31.14-.46.32-.55.57-.08,0-.16,0-.24,0-.09-.25-.24-.43-.55-.57Z"/><path class="cls-2" d="M251.54,369.38c-.01-.07-.01-.15,0-.22.31-.14.46-.32.55-.57.08,0,.16,0,.24,0,.09.25.24.43.55.57,0,.07,0,.15,0,.22-.31.14-.46.32-.55.57-.08,0-.16,0-.24,0-.09-.25-.24-.43-.55-.57Z"/><path class="cls-2" d="M253.07,369.38c-.01-.07-.01-.15,0-.22.31-.14.46-.32.55-.57.08,0,.16,0,.24,0,.09.25.24.43.55.57.01.07.01.15,0,.22-.31.14-.46.32-.55.57-.08,0-.16,0-.24,0-.09-.25-.24-.43-.55-.57Z"/><path class="cls-2" d="M254.6,369.38c-.01-.07-.01-.15,0-.22.31-.14.46-.32.55-.57.08,0,.16,0,.24,0,.09.25.24.43.55.57,0,.07,0,.15,0,.22-.31.14-.46.32-.55.57-.08,0-.16,0-.24,0-.09-.25-.24-.43-.55-.57Z"/><path class="cls-2" d="M256.13,369.38c-.01-.07-.01-.15,0-.22.31-.14.46-.32.55-.57.08,0,.16,0,.24,0,.09.25.24.43.55.57.01.07.01.15,0,.22-.31.14-.46.32-.55.57-.08,0-.16,0-.24,0-.09-.25-.24-.43-.55-.57Z"/><path class="cls-2" d="M257.66,369.38c-.01-.07-.01-.15,0-.22.31-.14.46-.32.55-.57.08,0,.16,0,.24,0,.09.25.24.43.55.57,0,.07,0,.15,0,.22-.31.14-.46.32-.55.57-.08,0-.16,0-.24,0-.09-.25-.24-.43-.55-.57Z"/><path class="cls-2" d="M259.19,369.38c-.01-.07-.01-.15,0-.22.31-.14.46-.32.55-.57.08,0,.16,0,.24,0,.09.25.24.43.55.57,0,.07,0,.15,0,.22-.31.14-.46.32-.55.57-.08,0-.16,0-.24,0-.09-.25-.24-.43-.55-.57Z"/><path class="cls-2" d="M260.72,369.38c-.01-.07-.01-.15,0-.22.31-.14.46-.32.55-.57.08,0,.16,0,.24,0,.09.25.24.43.55.57.01.07.01.15,0,.22-.31.14-.46.32-.55.57-.08,0-.16,0-.24,0-.09-.25-.24-.43-.55-.57Z"/></g></svg>