<?xml version="1.0" encoding="UTF-8"?>
<svg xmlns="http://www.w3.org/2000/svg" baseProfile="tiny" version="1.2" viewBox="0 0 255.28 299.10001">
  <!-- Generator: Adobe Illustrator 28.6.0, SVG Export Plug-In . SVG Version: 1.2.0 Build 709)  -->
  <g>
    <g id="Layer_1">
      <g id="Layer_2">
        <rect width="255.28" height="299.10001" fill="#ffefe3"/>
        <g id="Layer_1-2">
          <path d="M180.7799,216.80465c.60532-.23097.83631-.30266,1.21065-.30266,1.82393,0,2.66024,1.21065,2.66024,3.87089l-.07965,36.8212c0,6.53114,2.27793,8.88072,10.70467,11.00733,2.04696-2.9629,2.66024-3.71957,5.39216-6.90549l-1.2903-1.59296c-.75664.60532-1.06728.75667-2.05491.75667-2.9629,0-4.63551-1.6726-4.63551-4.70719,0-3.56824,1.13896-6.9851,4.4762-13.73926l3.87885-7.67009c4.2532.07965,5.39216,1.13896,6.45149,5.69481l4.55586,19.28275c.90799,3.95051,2.73192,6.53114,5.46384,7.82141.90799.45399,2.04696.83629,3.33725,1.2903,2.27793-2.9629,2.88324-3.64786,5.7665-6.6028l-1.13896-1.82393c-.68497.231-1.21065.38233-1.59296.38233-1.36199,0-3.33725-1.21063-4.02222-2.50891-.3823-.60532-.60532-1.52127-.90799-2.66024l-3.41689-16.0172c-2.19827-10.402-3.71956-12.22596-10.17103-12.22596h-.68497c1.06728-1.89562,1.89562-3.33725,2.42926-4.32487,2.50095-4.70719,4.40453-6.37979,7.28777-6.37979,1.89562,0,3.03459.68497,4.63551,2.81157h1.59296c1.67261-3.03459,2.1266-3.71956,4.02222-6.45149-3.71956-2.5806-5.5435-3.33725-7.82141-3.33725s-4.02222.90799-6.45149,3.33725c-2.04696,2.04696-3.71956,4.17354-4.93816,6.30014-.454.68497-2.73192,5.00984-6.83379,12.75162l-3.49654,6.68246-2.42926,5.54349v-27.25549c0-4.4762-.23097-5.00984-2.42926-6.37979-1.2903-.75664-2.9629-1.44163-4.85853-1.89562-2.66024,3.18592-3.26557,3.87089-5.46384,6.37979l.83631,2.04696h.01592Z" fill="#232348"/>
          <path d="M192.73503,153.48461c0,20.19869-3.47264,25.00146-8.45063,25.00146-1.77614,0-3.56026-.89205-3.56026-2.40537,0-1.68853,1.87173-2.22217,1.87173-4.71515,0-1.77614-.97966-3.64788-3.64787-3.64788-2.93901,0-4.45232,2.75582-4.45232,4.80276,0,4.53992,4.18151,8.10019,9.60552,8.10019,7.74177,0,14.85432-10.13916,15.92161-28.29092,1.15489-.53364,2.13455-1.15489,3.11423-1.77614,6.84972,14.85432,10.856,24.55544,16.1048,29.97945,2.49298-2.84344,7.65415-8.18779,10.05156-10.23475-.62125-.80445-1.15489-1.33807-1.77614-1.87173l-4.00628,3.73549c-6.40369-7.20813-9.16747-14.94192-14.67909-27.84488,1.77614-3.20185,2.84344-7.02495,3.64787-11.30204,1.5133.2708,2.66821.44602,4.98596.44602,4.18151,0,9.25508-3.11423,9.25508-9.34269,0-1.68853-.35841-4.00629-1.95934-6.40369-.79648.17522-1.4257.44602-2.04696.79648.53364,1.15489.80445,1.87172.80445,2.93901,0,2.58059-1.95934,3.91867-5.16117,3.91867-2.40537,0-3.91867-.2708-7.12052-.89205-1.60091,8.09222-2.93901,21.52882-11.11884,25.00146v-1.68853c0-14.32067-3.73549-26.96079-15.65876-26.96079-5.87004,0-14.32067,3.64788-14.32067,13.97024,0,9.07189,7.20813,12.90295,13.88262,12.90295.26284-.62125.26284-1.77614.17523-2.49298-5.3364-.44602-11.11884-2.5806-11.11884-10.94362,0-5.3364,3.02662-10.40997,9.1595-10.40997,8.18779,0,10.49759,14.14546,10.49759,29.62901M141.58519,130.79293c-1.60091,2.75582-2.66821,6.22847-2.66821,10.32236.97966.17523,2.04696.17523,3.02662,0,0-4.62753,1.33807-8.80904,6.40369-16.90127-.44602-.44602-1.15489-.97967-1.95934-1.33809-2.66821,2.93901-5.07357,3.73549-7.38336,3.73549-4.71515,0-8.45063-4.53992-11.83567-7.82939-2.30979,2.04694-4.62753,3.8231-7.20813,5.60721-9.4303,6.58688-19.21902,15.57115-19.21902,30.95911s11.83567,25.71033,26.60238,25.71033c10.76839,0,19.75267-5.95765,19.75267-15.92161,0-2.66821-.80445-5.42401-3.20185-8.00461l.08761-.2708c3.47264-.44602,6.58688-2.93901,8.18779-8.53825-.80445-.44602-1.60091-.62125-2.40537-.70887-1.60091,3.73549-3.28946,3.8231-6.31606,2.93901-3.64787-1.06728-8.80904-3.20185-12.81534-3.20185-6.22846,0-9.60552,4.45232-12.27374,8.80904.62126.53364,1.2425.89205,2.04694,1.2425,2.6682-3.11423,4.18151-3.56026,6.67449-3.56026,3.91868,0,9.25508,1.95934,11.92328,3.64788,3.47264,2.13455,4.53992,4.62753,4.53992,8.10019,0,7.47097-6.5789,10.94362-13.16578,10.94362-11.20645,0-20.90756-9.7011-20.90756-24.19702,0-13.61182,4.26913-20.28631,12.71976-26.15635,3.91867,3.20184,8.53825,6.14085,13.34102,6.14085,2.75582,0,4.98596-1.15489,5.78242-1.68853l.26284.17523.00798-.01592h.00003ZM57.24608,158.01657c4.18151,0,9.07189-2.84344,11.65248-5.42401-.35842-.70887-.62126-1.2425-1.15489-1.77614-1.77615,1.06728-3.20185,1.77614-5.16118,1.77614-4.18151,0-9.51791-3.37707-14.14546-3.37707-5.42401,0-8.80906,4.0939-11.83567,5.78242-.08761-1.15489-.17522-2.40537-.17522-3.73549,0-12.80739,4.18151-19.30663,12.54454-25.17668,7.02494,5.78243,12.90296,8.45064,19.12345,4.62754l.17522.08761c-1.33809,2.40537-2.6682,5.78242-2.8514,9.34268.97967.2708,1.51331.35841,2.49298.2708.80444-6.14085,3.37707-10.32236,7.02494-16.19241-.44603-.62126-1.15489-.79648-1.77615-1.2425-8.00461,8.53825-14.32068.53363-19.03584-3.8231l-7.38335,5.16119c-9.4303,6.58688-19.21902,15.65876-19.21902,30.5131,0,17.17207,12.45692,26.33157,27.22364,26.33157,9.70111,0,17.08446-5.69481,20.19869-14.4083-.62126-.35841-1.33809-.62125-2.30979-.80445-3.37707,8.36302-10.22678,10.49758-15.57115,10.49758-9.07189,0-18.15174-6.05324-20.19869-19.21904,3.02662-1.2425,4.80277-2.13455,7.02494-2.13455,4.97799,0,7.91699,2.93901,13.34101,2.93901" fill="#232348"/>
          <path d="M210.35315,50.53976l.35841.35842c-4.00628,7.47097-8.98427,13.87466-14.05784,20.1987h-.35841c-1.33807-4.98595-5.42401-10.40997-8.53825-15.38796l8.00461-9.60554c5.07357,2.6682,10.40998,4.53993,14.59149,4.44435M204.5707,30.43665c-15.12513,0-25.44748,9.69315-25.44748,20.73233,0,9.60553,12.45693,19.84028,12.45693,28.37853,0,6.31608-4.97799,8.72144-7.20813,8.72144-.97966,0-2.22217-.70886-2.66821-3.20184-.53364-2.75582-2.04696-4.53993-4.89038-4.53993-3.02662,0-4.62753,2.22217-4.62753,4.71515,0,4.26913,4.35674,6.67449,8.80904,6.67449,7.29574,0,15.39594-7.12052,15.74638-17.17207,2.40537-2.75582,4.44435-5.3364,6.22847-7.65416h.53364c3.8231,7.38336,6.31606,12.99056,10.49759,23.12974,2.40537.89205,4.80276.89205,7.29574.70886,1.95934-2.6682,4.00628-5.16119,6.04527-7.29573-.17523-.53363-.35841-.97967-.70887-1.51331-2.66821.17522-5.24879.17522-7.74177-.89205-3.11423-6.93733-7.29574-15.48355-10.67281-21.26598,3.64788-5.3364,6.31606-10.13917,9.34268-15.74638-.2708-.35842-.62125-.80444-1.06728-1.15489-.70887.17522-1.5133.26283-2.40537.26283-5.60721,0-11.56487-4.26912-14.59148-6.04527l-13.07818,16.1924c-1.33807-2.40536-2.30978-4.80277-2.30978-6.84971,0-6.67449,8.72144-13.43659,20.10313-13.43659,10.40998,0,19.9279,5.69482,20.28631,20.63676.79648.08761,1.95934.08761,2.75582,0,.08761-16.36764-10.76041-23.40054-22.6837-23.40054M128.68224,55.4381c-3.28946-2.40536-5.16119-3.47264-5.16119-6.22846,0-2.30979,1.87172-5.87004,4.53994-10.67281,2.66821,1.95933,5.07357,5.42401,6.84972,11.47726.89205-.08761,1.77614-.35842,2.40537-.62126-.44602-2.13457-1.15489-3.91868-1.87173-5.51164l1.95934-3.37707,4.98596,2.22218c3.8231,1.68853,6.14085,2.04696,7.74177,1.77615l.17523.17522c-4.44435,9.07189-10.23475,12.80737-15.30035,16.28002-1.60091-1.87172-3.73549-3.64788-6.31606-5.51164M105.55251,69.13754c0-22.50848,2.84342-33.00607,14.32068-33.00607,1.95933,0,4.0939.2708,6.05323,1.15489l-4.26913,7.82938c-2.30979,4.18151-3.11424,6.58688-3.11424,9.16747,0,4.98595,4.26913,6.93732,9.87634,11.38965,5.60721,4.45231,6.05324,6.58688,6.05324,8.72144,0,4.00629-3.37707,6.40369-7.20813,6.40369-5.60721,0-9.1595-2.939-9.1595-8.53825,0-2.30979.97967-4.35673,1.77615-5.87004-.62126-.53363-1.4257-.97967-2.13457-1.24251-1.95933,2.75581-2.49298,5.60721-2.49298,7.91699,0,6.22846,5.2488,10.32237,11.56487,10.32237,7.74177,0,12.01091-6.14084,12.01091-12.71976,0-3.02662-.80445-5.5196-2.40537-7.82939,2.75582-1.87172,4.97799-3.47264,7.02494-5.07357,4.26912,2.30979,8.63383,7.02494,8.63383,15.21274,0,8.80904-7.55859,19.03584-22.42086,19.03584s-24.10941-6.31608-24.10941-22.86689M118.27226,32.39599c-7.917,0-21.35358,6.22847-21.35358,33.36448,0,23.66337,18.32697,28.99977,32.11402,28.99977,15.57115,0,29.97945-11.30204,29.97945-27.13602,0-8.09222-4.80276-13.78704-9.43031-16.72605,2.40537-3.64787,4.89038-8.72144,7.29574-14.05784-.35841-.35841-.97966-.80444-1.5133-.89206-2.84344,1.87172-6.49129,1.15489-9.43031-.44603l-6.40369-3.37707-4.80276,9.60554h-.35841c-1.33807-2.49298-3.02662-4.35674-4.89038-5.78243.44602-.89206.97966-1.77615,1.5133-2.75581-.70887-.44603-1.5133-.80444-2.22217-1.06728l-1.33809,2.49298c-3.02662-1.60092-6.22846-2.22218-9.1595-2.22218M76.19431,84.97153c-.44603-.70886-1.06728-1.2425-1.68853-1.77615-5.42402,4.98596-11.38964,7.47097-19.39425,7.47097-10.49759,0-19.56947-6.05323-19.56947-20.0155,0-26.86522,1.51331-34.16096,8.53825-34.16096,3.56026,0,6.4913,2.49298,9.07189,6.14085-1.68853,3.91071-2.85139,7.91699-2.85139,12.80737,0,3.73548,1.68853,7.29575,6.67449,11.20645,2.22218,1.77615,5.78243,3.82309,5.78243,7.82939,0,3.64788-3.91868,5.78244-7.12051,5.78244-4.89038,0-8.53825-3.73548-8.72144-11.20645-.70887-.17522-1.68853-.17522-2.49298,0-.2708,6.93733,2.30979,13.88262,10.76839,13.88262,6.7621,0,12.36931-5.78244,12.36931-13.2534,0-1.87172-.35842-3.38503-.89205-4.71516,3.82309-4.62755,7.02494-5.24879,9.78872-4.26912.44603-.44603.70886-.89205.97967-1.51331-2.13457-2.13457-2.58059-4.45231-.89205-6.7621-.44603-.44603-.89205-.80444-1.51331-1.06728-2.6682,3.28946-4.62755,2.85139-6.84971,1.68853-.44603.35842-.89205.89205-1.15489,1.33012,2.49298,3.56026.70887,5.60721-1.68853,8.45063-1.33809-1.68853-3.02662-3.11423-5.07357-4.80277-4.35673-3.64787-6.31608-5.16118-6.31608-8.1878,0-1.4257.44603-3.11423,1.06728-4.80277h.08761c1.68853,2.49298,3.37707,4.98595,4.71516,6.93732.89205-.35842,1.4257-.70887,2.04694-1.15489-2.13457-3.28946-4.00629-6.05323-5.60721-8.45063.26283-.53364.53363-1.15489.70887-1.60092,4.00629.53364,8.45063,1.51331,11.83567,2.49298l3.02662-9.51791c-.80445-.35841-1.60092-.53364-2.40536-.62126l-.97967,3.02662c-3.37707-.89206-6.22846-1.33809-11.38964-2.22218-.79648,2.04694-1.77615,4.18151-2.6682,6.22847h-.17522c-3.73549-4.62754-6.40369-6.31608-10.32236-6.31608-11.19848-.01594-17.42695,12.17815-17.42695,33.52377,0,17.70572,14.50387,26.51477,26.60238,26.51477s18.68538-4.45231,23.12974-8.89666" fill="#232348"/>
          <path d="M152.95093,214.54264c-1.21065.30266-2.11863.52567-2.64432.52567-2.03898,0-6.34793-1.5133-10.35423-3.5523-.90799-.454-2.19031-1.28233-3.93461-2.34165l-3.02662,2.57262-4.53197,3.92663c-4.00629-2.42129-5.28862-3.24964-9.14357-5.89393-6.1966,2.87529-8.23558,4.61161-12.32152,10.05156-4.76295,6.34793-6.73024,11.93922-6.73024,19.35442,0,11.41352,5.06561,20.33408,14.59149,25.70237,4.38063,2.49298,9.37455,3.78328,14.28882,3.78328,15.49947,0,29.3343-12.17019,29.3343-25.77405,0-3.17795-.75664-7.02495-1.9673-9.67721-.454-1.05932-1.28233-2.49298-2.49298-4.38859h-33.18925c1.81597-1.66463,3.09829-2.94697,3.9346-3.85495.60533-.60532,1.88766-2.03898,3.92663-4.46028.67702-.82833,1.73632-2.03898,3.09829-3.5523,1.5133.67702,2.64432,1.21065,3.32928,1.58499,3.48061,1.66463,5.59129,2.72396,6.42759,3.09829.60532.22302,1.5133.60532,2.72396,1.131l3.77531-2.57262,5.43994-3.70362-.53364-1.9673v.00799h.00003ZM107.75078,235.93606l8.16391-.15133h25.8537c4.6833,0,6.5789.75666,8.01256,3.32133,1.131,2.11863,1.81596,4.6833,1.81596,7.40723,0,7.33556-2.26998,10.80823-8.53825,13.14985-2.94697,1.13102-6.04527,1.66465-9.30286,1.66465-11.03122,0-20.63676-6.04526-24.10941-15.19679-1.131-2.87528-1.51331-4.83463-1.88766-10.20288M114.93502,216.35861c3.62398,2.03898,4.6116,2.57262,8.38692,4.76294-2.26996,3.40097-3.24964,4.53197-5.82226,6.95325-3.02662,2.72396-4.76295,3.63194-9.59757,4.84258,0-7.55859,1.131-10.13121,7.03291-16.55878" fill="#232348"/>
          <path d="M32.95349,235.31481l6.36386-.22302c4.77887-.07169,7.58247-.15133,10.45776-.15133,3.4169,0,8.49046.07965,15.31628.23098l6.51519.15133c1.44163-1.66463,1.89562-2.04696,4.7709-4.16558.75665-.53364,1.74429-1.2903,3.18592-2.3496l-.98763-1.59296c-2.34961.90799-3.40893,1.13896-5.23286,1.13896h-27.05638l1.59296-1.74429,6.14085-7.65415,2.88325-2.50095c5.00188,3.18592,6.29218,3.87089,11.89939,6.14085,4.24523-3.25759,5.23286-3.94256,8.8648-6.21254l-.98763-1.89562c-1.29029.30266-2.27792.454-2.88325.454-2.8036,0-6.74617-1.66463-14.17731-6.06119-2.58059,2.19827-3.2576,2.8036-6.36386,5.22489-3.71955-1.81596-4.69922-2.3496-8.72145-5.08155-6.81786,4.24523-9.16747,6.06119-11.66841,9.02409-4.24523,4.9302-6.89751,12.5047-6.89751,19.78452,0,9.02409,4.16558,18.94823,9.85244,23.64744,4.85055,4.01425,14.78264,7.20016,22.36511,7.20016,1.51331,0,2.58059-.07967,6.51519-.37435l2.58059-2.7319,4.0939-3.6399,6.96919-6.74618-1.66465-1.74429c-6.44351,5.53555-9.93209,6.9692-16.59862,6.9692-10.84007,0-20.08719-5.15322-24.48375-13.72333-1.74429-3.40892-2.34961-5.75855-2.65227-11.36573M48.33349,220.53216c-5.23286,7.35149-7.35149,9.01613-15.15699,12.13037.38231-7.50282,1.51331-10.08342,6.89751-15.91365,3.71159,1.2903,4.61958,1.66463,8.25948,3.79123" fill="#232348"/>
        </g>
      </g>
    </g>
  </g>
</svg>