<?xml version="1.0" encoding="UTF-8"?><svg id="Layer_2" xmlns="http://www.w3.org/2000/svg" viewBox="0 0 255.28 299.1"><g id="Layer_1-2"><path d="M194.36,233.99c.76-.29,1.05-.38,1.52-.38,2.29,0,3.34,1.52,3.34,4.86l-.1,46.23c0,8.2,2.86,11.15,13.44,13.82,2.57-3.72,3.34-4.67,6.77-8.67l-1.62-2c-.95.76-1.34.95-2.58.95-3.72,0-5.82-2.1-5.82-5.91,0-4.48,1.43-8.77,5.62-17.25l4.87-9.63c5.34.1,6.77,1.43,8.1,7.15l5.72,24.21c1.14,4.96,3.43,8.2,6.86,9.82,1.14.57,2.57,1.05,4.19,1.62,2.86-3.72,3.62-4.58,7.24-8.29l-1.43-2.29c-.86.29-1.52.48-2,.48-1.71,0-4.19-1.52-5.05-3.15-.48-.76-.76-1.91-1.14-3.34l-4.29-20.11c-2.76-13.06-4.67-15.35-12.77-15.35h-.86c1.34-2.38,2.38-4.19,3.05-5.43,3.14-5.91,5.53-8.01,9.15-8.01,2.38,0,3.81.86,5.82,3.53h2c2.1-3.81,2.67-4.67,5.05-8.1-4.67-3.24-6.96-4.19-9.82-4.19s-5.05,1.14-8.1,4.19c-2.57,2.57-4.67,5.24-6.2,7.91-.57.86-3.43,6.29-8.58,16.01l-4.39,8.39-3.05,6.96v-34.22c0-5.62-.29-6.29-3.05-8.01-1.62-.95-3.72-1.81-6.1-2.38-3.34,4-4.1,4.86-6.86,8.01l1.05,2.57Z"/><path d="M209.37,154.49c0,25.36-4.36,31.39-10.61,31.39-2.23,0-4.47-1.12-4.47-3.02,0-2.12,2.35-2.79,2.35-5.92,0-2.23-1.23-4.58-4.58-4.58-3.69,0-5.59,3.46-5.59,6.03,0,5.7,5.25,10.17,12.06,10.17,9.72,0,18.65-12.73,19.99-35.52,1.45-.67,2.68-1.45,3.91-2.23,8.6,18.65,13.63,30.83,20.22,37.64,3.13-3.57,9.61-10.28,12.62-12.85-.78-1.01-1.45-1.68-2.23-2.35l-5.03,4.69c-8.04-9.05-11.51-18.76-18.43-34.96,2.23-4.02,3.57-8.82,4.58-14.19,1.9.34,3.35.56,6.26.56,5.25,0,11.62-3.91,11.62-11.73,0-2.12-.45-5.03-2.46-8.04-1,.22-1.79.56-2.57,1,.67,1.45,1.01,2.35,1.01,3.69,0,3.24-2.46,4.92-6.48,4.92-3.02,0-4.92-.34-8.94-1.12-2.01,10.16-3.69,27.03-13.96,31.39v-2.12c0-17.98-4.69-33.85-19.66-33.85-7.37,0-17.98,4.58-17.98,17.54,0,11.39,9.05,16.2,17.43,16.2.33-.78.33-2.23.22-3.13-6.7-.56-13.96-3.24-13.96-13.74,0-6.7,3.8-13.07,11.5-13.07,10.28,0,13.18,17.76,13.18,37.2M145.15,126c-2.01,3.46-3.35,7.82-3.35,12.96,1.23.22,2.57.22,3.8,0,0-5.81,1.68-11.06,8.04-21.22-.56-.56-1.45-1.23-2.46-1.68-3.35,3.69-6.37,4.69-9.27,4.69-5.92,0-10.61-5.7-14.86-9.83-2.9,2.57-5.81,4.8-9.05,7.04-11.84,8.27-24.13,19.55-24.13,38.87s14.86,32.28,33.4,32.28c13.52,0,24.8-7.48,24.8-19.99,0-3.35-1.01-6.81-4.02-10.05l.11-.34c4.36-.56,8.27-3.69,10.28-10.72-1.01-.56-2.01-.78-3.02-.89-2.01,4.69-4.13,4.8-7.93,3.69-4.58-1.34-11.06-4.02-16.09-4.02-7.82,0-12.06,5.59-15.41,11.06.78.67,1.56,1.12,2.57,1.56,3.35-3.91,5.25-4.47,8.38-4.47,4.92,0,11.62,2.46,14.97,4.58,4.36,2.68,5.7,5.81,5.7,10.17,0,9.38-8.26,13.74-16.53,13.74-14.07,0-26.25-12.18-26.25-30.38,0-17.09,5.36-25.47,15.97-32.84,4.92,4.02,10.72,7.71,16.75,7.71,3.46,0,6.26-1.45,7.26-2.12l.33.22ZM39.26,160.18c5.25,0,11.39-3.57,14.63-6.81-.45-.89-.78-1.56-1.45-2.23-2.23,1.34-4.02,2.23-6.48,2.23-5.25,0-11.95-4.24-17.76-4.24-6.81,0-11.06,5.14-14.86,7.26-.11-1.45-.22-3.02-.22-4.69,0-16.08,5.25-24.24,15.75-31.61,8.82,7.26,16.2,10.61,24.01,5.81l.22.11c-1.68,3.02-3.35,7.26-3.58,11.73,1.23.34,1.9.45,3.13.34,1.01-7.71,4.24-12.96,8.82-20.33-.56-.78-1.45-1-2.23-1.56-10.05,10.72-17.98.67-23.9-4.8l-9.27,6.48c-11.84,8.27-24.13,19.66-24.13,38.31,0,21.56,15.64,33.06,34.18,33.06,12.18,0,21.45-7.15,25.36-18.09-.78-.45-1.68-.78-2.9-1.01-4.24,10.5-12.84,13.18-19.55,13.18-11.39,0-22.79-7.6-25.36-24.13,3.8-1.56,6.03-2.68,8.82-2.68,6.25,0,9.94,3.69,16.75,3.69"/><path d="M231.49,25.24l.45.45c-5.03,9.38-11.28,17.42-17.65,25.36h-.45c-1.68-6.26-6.81-13.07-10.72-19.32l10.05-12.06c6.37,3.35,13.07,5.7,18.32,5.58M224.23,0c-18.99,0-31.95,12.17-31.95,26.03,0,12.06,15.64,24.91,15.64,35.63,0,7.93-6.25,10.95-9.05,10.95-1.23,0-2.79-.89-3.35-4.02-.67-3.46-2.57-5.7-6.14-5.7-3.8,0-5.81,2.79-5.81,5.92,0,5.36,5.47,8.38,11.06,8.38,9.16,0,19.33-8.94,19.77-21.56,3.02-3.46,5.58-6.7,7.82-9.61h.67c4.8,9.27,7.93,16.31,13.18,29.04,3.02,1.12,6.03,1.12,9.16.89,2.46-3.35,5.03-6.48,7.59-9.16-.22-.67-.45-1.23-.89-1.9-3.35.22-6.59.22-9.72-1.12-3.91-8.71-9.16-19.44-13.4-26.7,4.58-6.7,7.93-12.73,11.73-19.77-.34-.45-.78-1.01-1.34-1.45-.89.22-1.9.33-3.02.33-7.04,0-14.52-5.36-18.32-7.59l-16.42,20.33c-1.68-3.02-2.9-6.03-2.9-8.6,0-8.38,10.95-16.87,25.24-16.87,13.07,0,25.02,7.15,25.47,25.91,1,.11,2.46.11,3.46,0,.11-20.55-13.51-29.38-28.48-29.38M128.95,31.39c-4.13-3.02-6.48-4.36-6.48-7.82,0-2.9,2.35-7.37,5.7-13.4,3.35,2.46,6.37,6.81,8.6,14.41,1.12-.11,2.23-.45,3.02-.78-.56-2.68-1.45-4.92-2.35-6.92l2.46-4.24,6.26,2.79c4.8,2.12,7.71,2.57,9.72,2.23l.22.22c-5.58,11.39-12.85,16.08-19.21,20.44-2.01-2.35-4.69-4.58-7.93-6.92M99.91,48.59c0-28.26,3.57-41.44,17.98-41.44,2.46,0,5.14.34,7.6,1.45l-5.36,9.83c-2.9,5.25-3.91,8.27-3.91,11.51,0,6.26,5.36,8.71,12.4,14.3,7.04,5.59,7.6,8.27,7.6,10.95,0,5.03-4.24,8.04-9.05,8.04-7.04,0-11.5-3.69-11.5-10.72,0-2.9,1.23-5.47,2.23-7.37-.78-.67-1.79-1.23-2.68-1.56-2.46,3.46-3.13,7.04-3.13,9.94,0,7.82,6.59,12.96,14.52,12.96,9.72,0,15.08-7.71,15.08-15.97,0-3.8-1.01-6.93-3.02-9.83,3.46-2.35,6.25-4.36,8.82-6.37,5.36,2.9,10.84,8.82,10.84,19.1,0,11.06-9.49,23.9-28.15,23.9s-30.27-7.93-30.27-28.71M115.88,2.46c-9.94,0-26.81,7.82-26.81,41.89,0,29.71,23.01,36.41,40.32,36.41,19.55,0,37.64-14.19,37.64-34.07,0-10.16-6.03-17.31-11.84-21,3.02-4.58,6.14-10.95,9.16-17.65-.45-.45-1.23-1.01-1.9-1.12-3.57,2.35-8.15,1.45-11.84-.56l-8.04-4.24-6.03,12.06h-.45c-1.68-3.13-3.8-5.47-6.14-7.26.56-1.12,1.23-2.23,1.9-3.46-.89-.56-1.9-1.01-2.79-1.34l-1.68,3.13c-3.8-2.01-7.82-2.79-11.5-2.79M63.05,68.47c-.56-.89-1.34-1.56-2.12-2.23-6.81,6.26-14.3,9.38-24.35,9.38-13.18,0-24.57-7.6-24.57-25.13,0-33.73,1.9-42.89,10.72-42.89,4.47,0,8.15,3.13,11.39,7.71-2.12,4.91-3.58,9.94-3.58,16.08,0,4.69,2.12,9.16,8.38,14.07,2.79,2.23,7.26,4.8,7.26,9.83,0,4.58-4.92,7.26-8.94,7.26-6.14,0-10.72-4.69-10.95-14.07-.89-.22-2.12-.22-3.13,0-.34,8.71,2.9,17.43,13.52,17.43,8.49,0,15.53-7.26,15.53-16.64,0-2.35-.45-4.25-1.12-5.92,4.8-5.81,8.82-6.59,12.29-5.36.56-.56.89-1.12,1.23-1.9-2.68-2.68-3.24-5.59-1.12-8.49-.56-.56-1.12-1.01-1.9-1.34-3.35,4.13-5.81,3.58-8.6,2.12-.56.45-1.12,1.12-1.45,1.67,3.13,4.47.89,7.04-2.12,10.61-1.68-2.12-3.8-3.91-6.37-6.03-5.47-4.58-7.93-6.48-7.93-10.28,0-1.79.56-3.91,1.34-6.03h.11c2.12,3.13,4.24,6.26,5.92,8.71,1.12-.45,1.79-.89,2.57-1.45-2.68-4.13-5.03-7.6-7.04-10.61.33-.67.67-1.45.89-2.01,5.03.67,10.61,1.9,14.86,3.13l3.8-11.95c-1.01-.45-2.01-.67-3.02-.78l-1.23,3.8c-4.24-1.12-7.82-1.68-14.3-2.79-1,2.57-2.23,5.25-3.35,7.82h-.22c-4.69-5.81-8.04-7.93-12.96-7.93C8.43,4.24.61,19.55.61,46.35c0,22.23,18.21,33.29,33.4,33.29s23.46-5.59,29.04-11.17"/><path d="M159.42,231.15c-1.52.38-2.66.66-3.32.66-2.56,0-7.97-1.9-13-4.46-1.14-.57-2.75-1.61-4.94-2.94l-3.8,3.23-5.69,4.93c-5.03-3.04-6.64-4.08-11.48-7.4-7.78,3.61-10.34,5.79-15.47,12.62-5.98,7.97-8.45,14.99-8.45,24.3,0,14.33,6.36,25.53,18.32,32.27,5.5,3.13,11.77,4.75,17.94,4.75,19.46,0,36.83-15.28,36.83-32.36,0-3.99-.95-8.82-2.47-12.15-.57-1.33-1.61-3.13-3.13-5.51h-41.67c2.28-2.09,3.89-3.7,4.94-4.84.76-.76,2.37-2.56,4.93-5.6.85-1.04,2.18-2.56,3.89-4.46,1.9.85,3.32,1.52,4.18,1.99,4.37,2.09,7.02,3.42,8.07,3.89.76.28,1.9.76,3.42,1.42l4.74-3.23,6.83-4.65-.67-2.47ZM102.67,258.01l10.25-.19h32.46c5.88,0,8.26.95,10.06,4.17,1.42,2.66,2.28,5.88,2.28,9.3,0,9.21-2.85,13.57-10.72,16.51-3.7,1.42-7.59,2.09-11.68,2.09-13.85,0-25.91-7.59-30.27-19.08-1.42-3.61-1.9-6.07-2.37-12.81M111.69,233.43c4.55,2.56,5.79,3.23,10.53,5.98-2.85,4.27-4.08,5.69-7.31,8.73-3.8,3.42-5.98,4.56-12.05,6.08,0-9.49,1.42-12.72,8.83-20.79"/><path d="M8.76,257.23l7.99-.28c6-.09,9.52-.19,13.13-.19,4.29,0,10.66.1,19.23.29l8.18.19c1.81-2.09,2.38-2.57,5.99-5.23.95-.67,2.19-1.62,4-2.95l-1.24-2c-2.95,1.14-4.28,1.43-6.57,1.43H25.5l2-2.19,7.71-9.61,3.62-3.14c6.28,4,7.9,4.86,14.94,7.71,5.33-4.09,6.57-4.95,11.13-7.8l-1.24-2.38c-1.62.38-2.86.57-3.62.57-3.52,0-8.47-2.09-17.8-7.61-3.24,2.76-4.09,3.52-7.99,6.56-4.67-2.28-5.9-2.95-10.95-6.38-8.56,5.33-11.51,7.61-14.65,11.33-5.33,6.19-8.66,15.7-8.66,24.84,0,11.33,5.23,23.79,12.37,29.69,6.09,5.04,18.56,9.04,28.08,9.04,1.9,0,3.24-.1,8.18-.47l3.24-3.43,5.14-4.57,8.75-8.47-2.09-2.19c-8.09,6.95-12.47,8.75-20.84,8.75-13.61,0-25.22-6.47-30.74-17.23-2.19-4.28-2.95-7.23-3.33-14.27M28.07,238.67c-6.57,9.23-9.23,11.32-19.03,15.23.48-9.42,1.9-12.66,8.66-19.98,4.66,1.62,5.8,2.09,10.37,4.76"/></g></svg>