<?xml version="1.0" encoding="UTF-8"?><svg id="Layer_2" xmlns="http://www.w3.org/2000/svg" viewBox="0 0 27 27"><defs><style>.cls-1{fill:none;}.cls-2{fill:#3c50ff;}</style></defs><g id="Layer_2-2"><rect class="cls-1" width="27" height="27" transform="translate(27 27) rotate(180)"/><path class="cls-2" d="M20.57,13.5l3.06-3.06c1.95-1.95,1.95-5.12,0-7.07-1.95-1.95-5.12-1.95-7.07,0l-3.06,3.07-3.06-3.07c-1.95-1.95-5.12-1.95-7.07,0-1.95,1.95-1.95,5.12,0,7.07l3.06,3.06-3.06,3.06c-1.95,1.95-1.95,5.12,0,7.07.98.98,2.26,1.46,3.54,1.46s2.56-.49,3.54-1.46l3.06-3.07,3.06,3.07c.98.98,2.26,1.46,3.54,1.46s2.56-.49,3.54-1.46c1.95-1.95,1.95-5.12,0-7.07l-3.06-3.06Z"/></g></svg>