<?xml version="1.0" encoding="UTF-8"?><svg id="Layer_2" xmlns="http://www.w3.org/2000/svg" viewBox="0 0 888 476.5"><g id="Layer_2-2"><path d="M57.5,233c-2.67,12-4,22.5-4,31.5,0,12.34,3.08,27,9.25,44,6.16,17,12.75,30.84,19.75,41.5-14.34-34-21.5-66.66-21.5-98,0-18.66,2.5-34.83,7.5-48.5-4.67,7.67-8.34,17.5-11,29.5Z"/><path d="M280.5,308c0,8.67-1.34,19.17-4,31.5-4.34,18.67-6.5,32.83-6.5,42.5,0,15.33,4.83,24.33,14.5,27-1.34-1-2.92-2.34-4.75-4-1.84-1.67-3.34-3.84-4.5-6.5-1.17-2.67-1.75-6.34-1.75-11,0-5.34,1.16-12,3.5-20,3-11.33,5.25-20.75,6.75-28.25s2.25-14.75,2.25-21.75c0-12.33-2.5-23.5-7.5-33.5,1.33,9,2,17,2,24Z"/><path d="M150.25,383.25c4.5-2.84,8.08-5.09,10.75-6.75,8-6.67,17.83-10,29.5-10,4.66,0,9.5.5,14.5,1.5-10.34-7-15.5-16.83-15.5-29.5,0-7.33,1.5-16.66,4.5-28,2.66-12,4-20.66,4-26,0-18.66-2.42-34.41-7.25-47.25-4.84-12.83-11.75-27.08-20.75-42.75-7.67-13.33-13.34-24.66-17-34-3.67-9.33-5.5-20.16-5.5-32.5,0-8.66,2.16-17.41,6.5-26.25,4.33-8.83,9-16.25,14-22.25l9.75-9.75c3.83-3.83,7.08-8,9.75-12.5,2.66-4.5,4-9.58,4-15.25,0-3.33-.59-6-1.75-8-1.17-2-2.34-3.33-3.5-4-1.17-.66-1.92-1-2.25-1,.33,0,.91.42,1.75,1.25.83.84,1.66,2,2.5,3.5.83,1.5,1.25,3.42,1.25,5.75,0,6-3.92,11.75-11.75,17.25-7.84,5.5-14.75,8.25-20.75,8.25-3.34,0-7-.83-11-2.5-3.34-1-7.17-1.91-11.5-2.75-4.34-.83-9.5-1.25-15.5-1.25-22.34,0-42.59,5.84-60.75,17.5-18.17,11.67-32.42,25.75-42.75,42.25C5.16,134.75,0,149.34,0,162c0,11.67,2.33,20,7,25,4.66,5,9.16,7.5,13.5,7.5,2.33,0,3.75-.75,4.25-2.25.09-.26.17-.5.25-.75-.67,1.34-2,2-4,2-2.67,0-4.84-1.58-6.5-4.75-1.67-3.16-2.5-8.08-2.5-14.75,0-15.66,4.75-30.33,14.25-44,9.5-13.66,21.5-24.58,36-32.75,14.5-8.16,29.08-12.25,43.75-12.25,9.66,0,16.75,1,21.25,3,3.4,1.51,6.85,3.79,10.36,6.83-26.81,23.6-50.1,49.07-69.86,76.42-20.84,28.84-36.5,55.67-47,80.5-10.5,24.84-15.75,44.09-15.75,57.75,0,10.34.83,19.75,2.5,28.25,1.66,8.5,3.75,16.09,6.25,22.75,2.5,6.67,4.58,12.16,6.25,16.5,2.33,6.33,4,11.91,5,16.75,1,4.83,1.5,10.41,1.5,16.75,3.33-10,6.08-17.25,8.25-21.75,2.16-4.5,6.5-8.92,13-13.25,6.5-4.34,15.41-6.5,26.75-6.5,6.66,0,13.75,1.83,21.25,5.5,7.5,3.66,11.25,8,11.25,13,0,3.66-1.17,6.33-3.5,8,4-2,6-5.84,6-11.5,0-10.34-11-19.16-33-26.5-12-4-21.92-12.25-29.75-24.75-7.84-12.5-11.75-28.58-11.75-48.25,0-23.33,5.25-46.16,15.75-68.5,10.5-22.33,23.41-42.83,38.75-61.5,13.74-16.73,29.91-34.81,48.47-54.22-4.77,7.08-8.34,13.74-10.72,19.97-3.5,9.17-5.25,18.42-5.25,27.75,0,8.67,1.16,15.42,3.5,20.25,2.33,4.84,6.16,10.25,11.5,16.25,5.66,7,10.33,13.75,14,20.25,1.28,2.27,2.51,4.98,3.69,8.11-3.03-.24-6.26-.36-9.69-.36-13.34,0-24.17,1.84-32.5,5.5-8.34,3.67-14.42,8-18.25,13-3.84,5-5.75,9.5-5.75,13.5,0,5.67,2.33,9.67,7,12-1.34-1-2.5-2.33-3.5-4-1-1.66-1.5-3.66-1.5-6,0-4.66,2.75-9.25,8.25-13.75s13.91-6.75,25.25-6.75c15.62,0,27.73,2.3,36.35,6.87.14.62.27,1.24.4,1.88,2.83,13.5,4.25,31.09,4.25,52.75s-2,36.59-6,47.75c-4,11.17-9.67,22.42-17,33.75-4.34,6.66-7.59,12.41-9.75,17.25-2.17,4.83-3.25,10.58-3.25,17.25,0,6.33,2.08,11.5,6.25,15.5,4.16,4,9.08,5.5,14.75,4.5-10.67-1.34-16-7.17-16-17.5,0-4.67,1.58-8.92,4.75-12.75,3.16-3.84,7-7.17,11.5-10Z"/><path d="M26,188.5c-.28.83-.61,1.83-1,3,0,0,0,0,0,0,.66-1.33,1-2.33,1-3Z"/><path d="M42.75,123.5c-11.5,13-18.09,25.84-19.75,38.5,8.33-15.66,17.08-28,26.25-37,9.16-9,22.08-18.33,38.75-28-18.67,4.67-33.75,13.5-45.25,26.5Z"/><path d="M221.25,320.25c2.16-8.16,3.25-17.08,3.25-26.75,0-17.66-3.75-37.5-11.25-59.5s-17.42-43.16-29.75-63.5c-7-11.66-12-21.08-15-28.25-3-7.16-4.5-14.25-4.5-21.25,0-13.66,7-29.33,21-47-4,4.67-8.25,9.84-12.75,15.5-4.5,5.67-8.25,11.67-11.25,18-3,6.34-4.5,13.17-4.5,20.5,0,8.67,2.66,18.17,8,28.5l12.5,22.5c12,21.67,21.25,40.34,27.75,56,6.5,15.67,11.25,33.17,14.25,52.5.66,4.67,1,8.5,1,11.5,0,15.67-3.5,31-10.5,46,5.66-8.33,9.58-16.58,11.75-24.75Z"/><path d="M575.5,231.5c1.66,8,3.91,13.5,6.75,16.5,2.83,3,7.41,5.84,13.75,8.5-3.67-2-6.42-4.5-8.25-7.5-1.84-3-3.75-7.16-5.75-12.5l-3-12c-1.67-8.66-3.5-16.08-5.5-22.25-2-6.16-4.84-11.41-8.5-15.75,3.66,10,6.33,20.84,8,32.5l2.5,12.5Z"/><path d="M445,144.5c-.67-7.33-1-12.66-1-16,0-22.33,4.58-41.25,13.75-56.75,9.16-15.5,22.75-31.75,40.75-48.75-38.67,17.34-58,46.17-58,86.5,0,10,1.5,21.67,4.5,35Z"/><path d="M700,135c1.66-16.66,3.58-29.58,5.75-38.75,2.16-9.16,5.25-17.66,9.25-25.5,4-7.83,10.66-19.58,20-35.25-13.34,13.67-22.59,27.92-27.75,42.75-5.17,14.84-7.59,33.75-7.25,56.75Z"/><path d="M796,128c0,12.34-3.34,23.84-10,34.5,5.66-9,9.83-16.08,12.5-21.25,2.66-5.16,4-10.41,4-15.75,0-10-6.17-21.33-18.5-34,3,3.67,5.75,8.75,8.25,15.25s3.75,13.59,3.75,21.25Z"/><path d="M634.5,132.5c4,10,7.16,22.5,9.5,37.5-.67-34.33-11-55.83-31-64.5,10.33,8,17.5,17,21.5,27Z"/><path d="M528.5,110.5c1.66,1.34,2.5,4,2.5,8,0,4.34-1.5,9.17-4.5,14.5-2.34,4.34-4.17,8.59-5.5,12.75-1.34,4.17-2,9.42-2,15.75,0,8,1,14.67,3,20,2,5.34,5,11.5,9,18.5,4.66,8,8.33,15.17,11,21.5,2.66,6.34,4.66,14.67,6,25,2,16,5.75,26.59,11.25,31.75,5.5,5.17,13.08,7.75,22.75,7.75,6.33,0,14.08-3.83,23.25-11.5,9.16-7.66,17.16-18.75,24-33.25,6.83-14.5,10.25-31.41,10.25-50.75,0-16.33-2.84-31-8.5-44-5.67-13-13-23.08-22-30.25-9-7.16-18.34-10.75-28-10.75-13.34,0-23.34,3.5-30,10.5-6.67,7-10,14.67-10,23,0,6.67,1.83,13.42,5.5,20.25,3.66,6.84,9.5,10.25,17.5,10.25,3,0,6-1.08,9-3.25,3-2.16,4.5-4.41,4.5-6.75,0-2-.5-3.66-1.5-5,.33,1,.5,2.67.5,5,0,1-.92,2.5-2.75,4.5-1.84,2-4.09,3-6.75,3-3.67,0-6.92-1.33-9.75-4-2.84-2.66-4.25-7.16-4.25-13.5s1.75-10.91,5.25-13.75c3.5-2.83,7.58-4.25,12.25-4.25,7.33,0,15.16,3.5,23.5,10.5,8.33,7,15.33,17.5,21,31.5,5.66,14,8.5,30.84,8.5,50.5,0,7-1.59,14.59-4.75,22.75-3.17,8.17-7.34,15.09-12.5,20.75-5.17,5.67-10.75,8.5-16.75,8.5-6.34,0-11.5-2.75-15.5-8.25s-6.84-14.41-8.5-26.75c-2-15.66-4.5-28.83-7.5-39.5-3-10.66-7.17-18.66-12.5-24-6.34-6.33-10.75-11.41-13.25-15.25-2.5-3.83-3.75-7.91-3.75-12.25,0-7.66,1.5-15.66,4.5-24,1.66-4,2.5-7.33,2.5-10,0-6.33-3-9.5-9-9.5-2.67,0-5.34,1-8,3,1.33-.66,3-1,5-1,1.66,0,3.33.67,5,2Z"/><path d="M861,344.5c0,11.67-3.92,22.84-11.75,33.5-7.84,10.66-17.09,16-27.75,16-8.67,0-15.5-3.67-20.5-11-5-7.34-7.5-15.66-7.5-25,0-7.33,2.41-15.08,7.25-23.25,4.83-8.16,12.08-18.58,21.75-31.25,12.33-16.66,21.5-30.33,27.5-41,6-10.66,9-21.66,9-33,0-13.66-4.92-23.83-14.75-30.5-9.84-6.66-21.75-10-35.75-10-21.34,0-39.34,4-54,12-14.67,8-25.5,17.59-32.5,28.75-7,11.17-10.5,21.42-10.5,30.75,0,12,3.08,21.34,9.25,28,6.16,6.67,13.91,10,23.25,10,6.33,0,13.58-2.41,21.75-7.25,8.16-4.83,15.25-11.16,21.25-19,6-7.83,9.16-16.41,9.5-25.75-2.67,11.34-7.75,19.59-15.25,24.75-7.5,5.17-13.92,7.75-19.25,7.75-16.67,0-25-8.83-25-26.5,0-19,6.16-32.16,18.5-39.5,12.33-7.33,24.66-11,37-11,8.66,0,16.5,3.5,23.5,10.5s10.5,15.5,10.5,25.5-2.5,20.84-7.5,31.5c-5,10.67-12.5,24.34-22.5,41-7.88,12.84-14.1,23.77-18.66,32.77-1.42-7.53-5.2-13.54-11.34-18.02-8-5.83-19.17-8.75-33.5-8.75-22.67,0-40.42,6.75-53.25,20.25-12.84,13.5-19.25,31.42-19.25,53.75,0,13.33,4.91,23.75,14.75,31.25,9.83,7.5,20.58,11.25,32.25,11.25,10.33,0,18.91-2.09,25.75-6.25,6.83-4.17,11.75-9.09,14.75-14.75,3-5.67,4.5-10.67,4.5-15,0-5-.75-8.75-2.25-11.25-1.36-2.27-3.78-4.62-7.21-7.03.21.22.44.46.71.78.83,1,1.58,2.41,2.25,4.25.66,1.83,1,4.25,1,7.25,0,5-1.84,9.25-5.5,12.75-3.67,3.5-8.17,5.25-13.5,5.25-9.34,0-18.42-3-27.25-9-8.84-6-13.25-15.5-13.25-28.5,0-10.33,3.16-19.08,9.5-26.25,6.33-7.16,13.91-12.5,22.75-16,8.83-3.5,16.91-5.25,24.25-5.25,5.66,0,10.83,1.34,15.5,4,4.66,2.67,8.33,5.75,11,9.25,2.66,3.5,4,6.25,4,8.25,0,3.34-1.09,6.59-3.25,9.75-2.17,3.17-5.25,4.75-9.25,4.75-4.34,0-7.84-1-10.5-3-2.67-2-5.34-5.33-8-10,1,4,3,7.59,6,10.75,3,3.17,7,4.75,12,4.75,3.7,0,6.83-.66,9.41-1.94-1.26,4.78-1.91,9.43-1.91,13.94,0,26.33,12,39.5,36,39.5,12.66,0,23.33-3.92,32-11.75,8.66-7.84,15.16-17,19.5-27.5,4.33-10.5,6.5-19.41,6.5-26.75,0-8.66-1.67-15.5-5-20.5,2,5.34,3,11,3,17Z"/><path d="M627,380.5c0-11.66,2-23.83,6-36.5,2.33-7.66,5.83-15.83,10.5-24.5,10.33-18.33,22.33-45.16,36-80.5,14.66-38,26.16-63.91,34.5-77.75,8.33-13.83,14.5-20.75,18.5-20.75,3.33,0,6.58,1.17,9.75,3.5,3.16,2.34,4.75,6,4.75,11,0,8-3.34,15.59-10,22.75-6.67,7.17-13.67,12.42-21,15.75,12.33-.66,23.41-4.5,33.25-11.5,9.83-7,17.41-15.25,22.75-24.75,5.33-9.5,8-18.41,8-26.75,0-10-2.17-17.41-6.5-22.25-4.34-4.83-10-7.25-17-7.25-15.34,0-29.75,13.5-43.25,40.5s-25.42,57.5-35.75,91.5c1.66-8.66,3.5-21.75,5.5-39.25s3.83-34.75,5.5-51.75c2-26.33,4-44.83,6-55.5l3.5-15.5c4-14.66,5.66-26.83,5-36.5.33,6-1.59,13.84-5.75,23.5-4.17,9.67-9.67,18.09-16.5,25.25-6.84,7.17-14.09,10.75-21.75,10.75-8.67,0-15.17-1.83-19.5-5.5-4.34-3.66-9.84-10.16-16.5-19.5,2.66,6,7.33,15,14,27,9.66,16.34,17,31.34,22,45,5,13.67,7.5,30.17,7.5,49.5,0,22.67-4.25,43.17-12.75,61.5-8.5,18.34-17.67,33.17-27.5,44.5-9.84,11.34-23.09,25.17-39.75,41.5-13.34,13-22.42,26.67-27.25,41-4.84,14.33-6.75,28.33-5.75,42,2-20.67,7.25-35.25,15.75-43.75s16.91-12.75,25.25-12.75c6.33,0,11.08,1.59,14.25,4.75,3.16,3.16,6.41,8.41,9.75,15.75,1.66,4.33,3.5,9.16,5.5,14.5,2,5.33,4.66,10.41,8,15.25,3.33,4.83,8.16,9.58,14.5,14.25-13-11.34-19.5-27.5-19.5-48.5Z"/><path d="M680.5,294.25c3.66-5.83,6.5-11.91,8.5-18.25,2-6.33,3.75-12.25,5.25-17.75s2.25-11.08,2.25-16.75c0-3-.67-9.83-2-20.5-1.34,14.67-4.5,31.17-9.5,49.5-2.34,8.67-5.17,16.17-8.5,22.5-3.34,6.34-7.5,13.34-12.5,21-5.67,8.34-10.17,16.34-13.5,24,2.66-4.33,7.66-11.66,15-22,6.33-8.66,11.33-15.91,15-21.75Z"/><path d="M702.25,357.5c-2.5,3.34-3.75,7.34-3.75,12,0,4.33.75,8.25,2.25,11.75s4.08,7.58,7.75,12.25c-4.34-6.67-6.5-13.17-6.5-19.5,0-8.33,3-15.83,9-22.5-3.34.67-6.25,2.67-8.75,6Z"/><path d="M743.04,378.72c-.46-.47-.82-.72-1.04-.72.36.24.7.48,1.04.72Z"/><path d="M341.25,389.75c-7.84-6.84-16.09-10.42-24.75-10.75,23-11.66,38.66-24.83,47-39.5,8.33-14.66,12.33-28.83,12-42.5,0-8.33-1.34-17.83-4-28.5-2.67-10.66-7.42-20.16-14.25-28.5-6.84-8.33-16.25-12.5-28.25-12.5-11,0-20.5,2.75-28.5,8.25s-14.5,11.92-19.5,19.25c-2.34,3.44-4.76,7.33-7.25,11.64l12.25-67.14c7.33-44.33,12.5-72,15.5-83,3-12.66,5.33-21.33,7-26,1.66-4.66,4.25-9.5,7.75-14.5s10.75-14.83,21.75-29.5c-12,10.67-23.5,18.17-34.5,22.5-11,4.34-17,6.5-18,6.5s-13,.34-36,1c-18.34,1-31.34,6.42-39,16.25-7.67,9.84-11.67,20.42-12,31.75,0,8,1.83,14.42,5.5,19.25,3.66,4.84,8.83,7.25,15.5,7.25,6,0,10.66-1.66,14-5s5-7,5-11c0-5.33-2.34-8.5-7-9.5,2.66,1.67,4,4.34,4,8s-1.5,6.75-4.5,9.25-6.17,3.75-9.5,3.75c-4,0-7-.91-9-2.75-2-1.83-3.17-5.25-3.5-10.25,0-7.33,2.91-13.66,8.75-19,5.83-5.33,12.58-9.33,20.25-12,7.66-2.66,14-4,19-4,7.73,0,14.55.39,20.45,1.18-2.79,8.99-4.94,20.66-6.45,35.07-2.34,22.17-4.34,51.92-6,89.25-1.67,25.67-4.92,50.17-9.75,73.5-4.84,23.34-9.25,40.5-13.25,51.5-2.67,7.34-8.75,14.92-18.25,22.75s-19.09,13.58-28.75,17.25l-12.5,4c-9.34,2.33-16.09,4.91-20.25,7.75-4.17,2.83-6.25,7.25-6.25,13.25,0,9.33,2.83,16,8.5,20,5.66,4,11,6,16,6,4.66,0,8.75-.84,12.25-2.5,3.5-1.67,6.75-4.5,9.75-8.5-5.34,5.66-11.67,8.5-19,8.5s-12.67-1.84-17-5.5c-4.34-3.67-6.5-7.67-6.5-12,0-7.34,6.16-11,18.5-11,5,0,8.66.16,11,.5,8.66.33,16.33,1.16,23,2.5,8.66,1.66,15.66,5.16,21,10.5s11,12.66,17,22c7,11,13.41,19.08,19.25,24.25,5.83,5.16,13.91,7.75,24.25,7.75,13.66,0,24.91-3.5,33.75-10.5,8.83-7,15.25-15,19.25-24s6-16.5,6-22.5c0-13-3.92-22.92-11.75-29.75ZM326.25,436.5c-5.84,5-13.59,7.5-23.25,7.5-5.34-.34-11.34-2.34-18-6-6.67-3.67-14.67-8.67-24-15-8.67-6.34-14.67-10.17-18-11.5-9-3.67-22-5.5-39-5.5l-.99.04c1.09-.24,2.26-.5,3.49-.79,5-1.17,11.41-3.92,19.25-8.25,7.83-4.34,15.08-10.67,21.75-19,6.33-7.34,10.5-14.75,12.5-22.25s3.66-18.08,5-31.75c.83-13.33,2.72-27.24,5.64-41.72.27-.8.56-1.64.86-2.53,2.33-6.83,5.66-13.33,10-19.5,4.33-6.16,9.33-9.25,15-9.25,9,.34,18.25,4.25,27.75,11.75s17.16,16.5,23,27c5.83,10.5,8.58,20.09,8.25,28.75.33,9.67-2.92,19.59-9.75,29.75-6.84,10.17-15.25,18.25-25.25,24.25-13.34,7.66-20,14-20,19,0,3,1.33,5.5,4,7.5-1.34-1.67-2-3.84-2-6.5,0-2.34.91-4.34,2.75-6,1.83-1.67,4.08-2.5,6.75-2.5,6,0,11.33,2.91,16,8.75,4.66,5.83,7,12.41,7,19.75,0,11-2.92,19-8.75,24Z"/><path d="M774,214c-12.34,10-18.5,20.84-18.5,32.5,0,5,1.33,9.67,4,14-.67-4.66-1-7.83-1-9.5,0-6.33,1.25-12.25,3.75-17.75s6.41-11.91,11.75-19.25Z"/><path d="M860,188c2.66,2.34,5.66,5.34,9,9,3.33,3.67,6.25,8.17,8.75,13.5,2.5,5.34,3.75,11.5,3.75,18.5s-1.5,15-4.5,24c-6.34,19.67-13.09,34.42-20.25,44.25-7.17,9.84-16.25,19.59-27.25,29.25l-8,7c17-11,32.33-25.16,46-42.5,13.66-17.33,20.5-37,20.5-59,0-19.66-9.34-34.33-28-44Z"/><path d="M376.5,246.5c4.33,8.67,6.83,21.67,7.5,39,3.33-8,5-15.33,5-22,0-19-11.17-31.16-33.5-36.5,9.66,4.34,16.66,10.84,21,19.5Z"/><path d="M358.5,393c2,1.66,3.75,4.91,5.25,9.75,1.5,4.83,2.25,9.91,2.25,15.25,0,9.33-2.67,17.83-8,25.5,8-7.67,12-16.84,12-27.5,0-5.34-1.09-10.17-3.25-14.5-2.17-4.34-4.92-7.17-8.25-8.5Z"/><path d="M315,141c-1,2.34-2.17,5.84-3.5,10.5-4.67,15.67-7.67,28.67-9,39-1.34,10.34-1.67,20.5-1,30.5,1-12,2.66-22.58,5-31.75,2.33-9.16,7.16-23.75,14.5-43.75,6-16.33,9-30.83,9-43.5,0-7.33-1.34-16-4-26l.5,9.5c0,8.34-.84,16.25-2.5,23.75-1.67,7.5-4.67,18.09-9,31.75Z"/><path d="M507,363.75c14.66-29.83,22-60.91,22-93.25,0-16-2.59-31.58-7.75-46.75-5.17-15.16-12.17-27.5-21-37-8.84-9.5-18.42-14.25-28.75-14.25s-19.75,6.09-28.25,18.25c-6.12,8.77-11.25,19.4-15.38,31.88,1.74-15.52,2.63-32.22,2.63-50.13l-.5-27.5c-.34-5-.5-12.33-.5-22,0-12.66.83-24.16,2.5-34.5,1.66-10.33,4.83-21.16,9.5-32.5,2.33-5.66,5.66-12.83,10-21.5,3-5.66,5.16-10.33,6.5-14,1.33-3.66,2-7.5,2-11.5,0-2.33-.42-4.08-1.25-5.25-.84-1.16-2.42-2.41-4.75-3.75,1,.67,1.83,1.59,2.5,2.75.66,1.17,1,3.25,1,6.25,0,6.67-3.5,12.92-10.5,18.75-7,5.84-19.5,11.25-37.5,16.25-14.67,4-27.42,12.84-38.25,26.5-10.84,13.67-16.25,30.34-16.25,50,0,13.34,1.5,24.84,4.5,34.5,3,9.67,6.75,17.09,11.25,22.25,4.5,5.17,9.08,7.75,13.75,7.75s8-1.75,10-5.25,3-7.08,3-10.75c0-2.66-.25-5-.75-7s-1.75-4.5-3.75-7.5c.66,1.67,1.33,3.67,2,6,.66,2.34,1,5,1,8,0,4-.92,7-2.75,9-1.84,2-3.75,3-5.75,3-4.34,0-8.59-3.66-12.75-11-4.17-7.33-6.25-18.16-6.25-32.5,0-17.66,3.83-31.91,11.5-42.75,6.28-8.88,14.7-16.35,25.24-22.44,2.99,8.91,5.74,20.05,8.26,33.44,3.66,19.5,5,35.42,4,47.75-4,52.34-8.75,92.84-14.25,121.5-5.5,28.67-13.09,50.92-22.75,66.75-9.67,15.84-23.17,28.91-40.5,39.25l17,2.5c13,1.33,22.33,3,28,5,6.66,2.33,12.41,5.08,17.25,8.25,4.83,3.16,10.25,7.25,16.25,12.25,7.33,6,12.66,9.16,16,9.5-5-5.67-10.09-15.42-15.25-29.25-5.17-13.84-7.75-27.41-7.75-40.75,0-15,2.66-37.33,8-67,2.53-15.42,4.62-29.28,6.28-41.61,4.95-15.45,10.2-26.25,15.72-32.39,6-6.66,12.66-10,20-10,6.33,0,12.58,3.84,18.75,11.5,6.16,7.67,11.33,18.92,15.5,33.75,4.16,14.84,6.25,32.25,6.25,52.25,0,21-6,44.75-18,71.25s-26.75,49.16-44.25,68c-17.5,18.83-33.92,28.25-49.25,28.25-5.34,0-10.17-1.34-14.5-4,1.66,1.66,4,3.16,7,4.5,3,1.33,6.16,2,9.5,2,18.66,0,38.75-9.34,60.25-28,21.5-18.67,39.58-42.92,54.25-72.75Z"/><path d="M452.25,245.25c2.83-4.83,8.75-14.25,17.75-28.25-12.67,8.34-21.75,17.84-27.25,28.5-5.5,10.67-8.25,22.67-8.25,36,0,11,1.41,21.92,4.25,32.75,2.83,10.84,7.41,26.75,13.75,47.75-8-27.66-12-50.66-12-69,0-10.66,1.25-20.08,3.75-28.25,2.5-8.16,5.16-14.66,8-19.5Z"/><path d="M495.75,419.5c-12.17,13-29.75,29.16-52.75,48.5,22-15.34,40.16-29.59,54.5-42.75,14.33-13.17,26.16-27.92,35.5-44.25,9.33-16.33,14.66-34.83,16-55.5-8.34,22.67-16.25,40.75-23.75,54.25s-17.34,26.75-29.5,39.75Z"/></g></svg>