<?xml version="1.0" encoding="UTF-8"?><svg id="Layer_2" xmlns="http://www.w3.org/2000/svg" viewBox="0 0 893.5 437.5"><g id="Layer_2-2"><path d="M463.75,201.75c-3.5,1.5-6.75,3.75-9.75,6.75,12.66,1.67,33,3.17,61,4.5l45.5,2.5c-37.34-10.66-64.34-16-81-16-7,0-12.25.75-15.75,2.25Z"/><path d="M62.61,145.26c20.96-7.11,39.44-12.45,55.39-16.01,17.51-3.91,41.59-8.44,72.21-13.61,15.96,23.95,36.39,45.08,61.29,63.36-20.36-23.02-36.77-44.8-49.29-65.36,9.08-1.5,18.67-3.04,28.79-4.64-8-.66-14-1-18-1-4.56,0-9.2.13-13.93.37-3.43-5.89-6.55-11.69-9.32-17.37-8.78-18-15.43-36.66-19.99-55.99,13.55-10.26,27.46-19.77,41.74-28.51-14.74,4.8-29.27,11.46-43.61,19.96-1.39-6.9-2.53-13.89-3.39-20.96-1,7.34-1.5,14.5-1.5,21.5,0,.8.03,1.6.04,2.4-11.9,7.42-23.66,16.11-35.29,26.1-27.17,23.34-50.34,50.42-69.5,81.25-1.47,2.37-2.89,4.74-4.28,7.11-12.02,5.19-21.35,10.08-27.97,14.64,8.61-3.29,16.87-6.33,24.81-9.15-14.93,26.66-24.71,53.37-29.31,80.15,10.53-30.57,24.25-58.64,41.11-84.24ZM99.25,98.75c20.4-21.77,41.82-41.4,64.26-58.93,1.91,24.89,9.47,48.06,22.66,69.5-13.95,1.32-28.58,3.62-43.91,6.93-25.5,5.5-48.84,12.25-70,20.25-1.71.65-3.38,1.29-5.01,1.93,9.7-13.99,20.35-27.23,32.01-39.68Z"/><path d="M617,143.5c7,0,14.25-2.66,21.75-8,7.5-5.33,13.75-12.75,18.75-22.25s7.5-19.91,7.5-31.25c0-9.33-3-17.66-9-25,1,12.34-.09,25-3.25,38-3.17,13-7.84,23.75-14,32.25-6.17,8.5-13.09,12.75-20.75,12.75-9.34,0-17.09-3.58-23.25-10.75-6.17-7.16-9.25-19.41-9.25-36.75,0-14.33,1.5-26.5,4.5-36.5-10.34,12.34-15.5,25.84-15.5,40.5,0,12,4.08,22.84,12.25,32.5,8.16,9.67,18.25,14.5,30.25,14.5Z"/><path d="M458.16,94.63c1.68.99,3.84,2.48,6.48,4.43-.08,1.96-.14,3.93-.14,5.93,0,15,2.5,28,7.5,39l-.5-22c0-5.99.11-11.9.34-17.71,37.78,25.89,62.5,40.29,74.16,43.21-6-8-16.09-16.25-30.25-24.75-13.32-7.99-27.9-15.46-43.73-22.42,0-.03,0-.06,0-.09,1.87.59,3.85,1.18,5.97,1.76,7.33,2,15.33,3,24,3,14,0,24.41-2.41,31.25-7.25,6.83-4.83,10.25-10.91,10.25-18.25,0-8.33-3.17-14.41-9.5-18.25-6.34-3.83-14.17-5.75-23.5-5.75-6,0-11.59.75-16.75,2.25-5.17,1.5-8.59,3.25-10.25,5.25,13-2.33,22.33-3.5,28-3.5,7,0,12.25,1.42,15.75,4.25,3.5,2.84,5.25,7.42,5.25,13.75,0,7.67-2.34,13.59-7,17.75-4.67,4.17-10.34,6.25-17,6.25-7.34,0-15.17-.75-23.5-2.25-4.66-.84-8.92-1.68-12.8-2.52.84-15.03,2.43-29.45,4.8-43.23-3.67,5-6.67,12.17-9,21.5-1.59,6.37-2.63,13.05-3.13,20.03-.37-.09-.75-.19-1.12-.28-5.84-1.5-9.59-2.58-11.25-3.25.93.63,3.33,1.9,7.15,3.82-.49-.22-.98-.44-1.49-.69Z"/><path d="M716.47,33.07c.02,1.14.03,2.28.03,3.43,0,18.67-2,37.5-6,56.5-3.34,16.34-7.34,29.92-12,40.75-2.77,6.42-6.95,14.34-12.52,23.74-12-1.08-24.49-2.73-37.48-4.99,12.83,2.85,24.94,5.14,36.36,6.88-3.58,5.97-7.69,12.5-12.36,19.62,6.35-5.98,12.27-12.26,17.79-18.82,15.81,2.21,30.21,3.32,43.21,3.32,24,0,47.33-3.58,70-10.75,10.75-3.4,21.54-7.95,32.36-13.64,15.46,20.92,27.86,43.88,37.14,68.89-6.49-27.02-16.31-51.39-29.47-73.1,9.46-5.43,18.95-11.72,28.47-18.9-10.81,5.41-21.18,10.29-31.11,14.65-10.67-16.76-23.37-31.9-38.14-45.4-23.57-21.53-50.92-40.5-82.04-56.93-1.7-7.47-4.1-16.91-7.21-28.32,1.45,8.23,2.37,16.91,2.77,26.02-13.56-6.97-27.8-13.49-42.77-19.52,15.09,8.92,29.41,17.78,42.97,26.57ZM821.5,121.25c3.74,4.27,7.32,8.64,10.77,13.1-13.73,5.76-26.57,10.48-38.52,14.15-22.84,7-48.09,10.5-75.75,10.5-8.34,0-16.97-.34-25.87-1,3.65-4.45,7.11-9.03,10.37-13.75,8.66-12.5,14.83-28.25,18.5-47.25,2.33-12.66,3.5-24.5,3.5-35.5,0-8.88-.66-17.04-1.98-24.47,10.56,6.95,20.64,13.86,30.23,20.72,23.5,16.84,46.41,38,68.75,63.5Z"/><path d="M458.16,94.63c-.84-.5-1.56-.88-2.16-1.13.73.41,1.45.79,2.16,1.13Z"/><path d="M596.73,302.85c5.62-7.82,10.48-16.02,14.52-24.6,6.83-14.5,10.25-28.58,10.25-42.25,0-18.66-6.67-35.16-20-49.5,2,9.67,3.83,19.25,5.5,28.75,1.66,9.5,2.5,18.25,2.5,26.25,0,12.34-2,24.67-6,37-2.57,7.91-6.17,16.24-10.79,24.97-6.36.94-13.09,1.78-20.21,2.53,6.24,1.04,12.17,1.67,17.8,1.9-1.94,3.47-4.05,7.01-6.3,10.6,3.14-3.42,6.1-6.94,8.89-10.52.71.01,1.41.02,2.11.02,21.66,0,41.83-3.58,60.5-10.75,18.66-7.16,28.33-17.75,29-31.75-13.34,11.67-28.17,20.59-44.5,26.75-11.41,4.31-25.84,7.84-43.27,10.6Z"/><path d="M150.2,277.92c5.61-2.29,11.36-4.6,17.3-6.92-6.75,1.08-13.29,2.31-19.64,3.7-5.81-8.16-11.52-17.06-17.11-26.7-10.1-17.38-19.85-38.8-29.26-64.22,7.38-8.75,15.54-17.51,24.51-26.28-9.35,7.32-17.99,14.78-25.95,22.37-2.37-6.53-4.72-13.32-7.05-20.37,1.56,7.72,3.2,15.18,4.94,22.39-44.28,42.99-66.44,90.19-66.44,141.61,0,4.15.15,8.36.45,12.61-10.75,10.17-21.4,21.64-31.95,34.39,10.79-10.64,21.59-20.26,32.42-28.87,2.7,27.29,11.39,56.58,26.08,87.87-5-22.34-8.59-40-10.75-53-2.17-13-3.25-27.5-3.25-43.5,0-.19,0-.37,0-.56,9.57-6.94,19.15-13.09,28.74-18.44,18.15-10.12,40.1-20.61,65.84-31.47,5.58,7.79,11.79,15.37,18.66,22.72,18.5,19.83,43.41,36.91,74.75,51.25-26-20.67-46.17-38.25-60.5-52.75-7.43-7.51-14.69-16.13-21.8-25.83ZM73.5,303.5c-9.68,6.07-19.29,13.15-28.82,21.22,1.03-26.84,7.04-53.42,18.07-79.72,8.13-19.38,20.26-38.83,36.35-58.35,5.02,20.15,10.74,38.27,17.15,54.35,5.06,12.69,11.54,24.89,19.44,36.62-23.86,6.24-44.6,14.86-62.19,25.88Z"/><path d="M469,282.25c-5,2.17-8.84,5.25-11.5,9.25,8,.67,15.16,1,21.5,1,25,0,53.66-1.83,86-5.5-32-5.33-55.5-8-70.5-8-12,0-20.5,1.09-25.5,3.25Z"/><path d="M727.5,251.5c0-7.66-.92-14.91-2.75-21.75-1.84-6.83-5.09-18.08-9.75-33.75l1,28c0,18-1.67,33.84-5,47.5-3.34,13.67-8.84,29.84-16.5,48.5,12-13.33,20.5-25.41,25.5-36.25,5-10.83,7.5-21.58,7.5-32.25Z"/><path d="M893.5,344c-7.94-10.9-16.2-20.36-24.76-28.39-1.52-17.36-5.36-34.06-11.49-50.11-8.17-21.33-20.5-39.91-37-55.75-11.03-10.58-23.67-18.95-37.9-25.15-1.19-3.59-2.47-7.29-3.85-11.1.58,3.38,1.08,6.75,1.51,10.11-6.36-2.63-13.03-4.84-20.01-6.61,7.13,2.9,13.94,6.35,20.46,10.35,1.02,8.96,1.54,17.84,1.54,26.65,0,22-3.22,41.77-9.62,59.33-7.45-.97-15.22-1.76-23.38-2.33,7.73,1.72,15.11,3.58,22.15,5.59-2.47,6.26-5.35,12.23-8.65,17.91-13,22.34-32.17,45.16-57.5,68.5,37.19-27.31,62.37-55.17,75.58-83.58,13.72,4.35,26.03,9.29,36.92,14.83,11.31,5.76,25.1,14.14,41.32,25.1.79,7.27,1.18,14.65,1.18,22.15,0,32.33-7.34,64.33-22,96,10.33-14.67,18.16-31,23.5-49,5.33-18,8-36.5,8-55.5,0-2.13-.05-4.26-.11-6.37,7.57,5.29,15.6,11.07,24.11,17.37ZM847.5,299c-16.34-10.33-32.09-17.25-47.25-20.75-5.62-1.3-11.49-2.44-17.63-3.44,5.91-14.13,8.88-28.4,8.88-42.81,0-9.66-1.17-19.08-3.5-28.25-1.15-4.51-2.5-9.24-4.05-14.19,10.11,6.62,19.47,14.6,28.05,23.94,15,16.34,26.75,35.59,35.25,57.75,4.26,11.1,7.45,22.52,9.57,34.24-3.07-2.34-6.18-4.5-9.32-6.49Z"/><path d="M559,254.5c-35.34-10.66-60.84-16-76.5-16-8,0-14.25,1.17-18.75,3.5-4.5,2.34-8.75,6-12.75,11,13.66-1,28-1.5,43-1.5,20,0,41.66,1,65,3Z"/><path d="M282,236.5c0,18-2.84,32.5-8.5,43.5-5.67,11-14.67,16.5-27,16.5-6.67,0-13.67-2.66-21-8-7.34-5.33-13.67-13.5-19-24.5-5.34-11-8-24.5-8-40.5,0-9.33,1-19.5,3-30.5-7,17.67-10.5,34.67-10.5,51s4.33,31,13,42c8.66,11,22.66,16.5,42,16.5,8.33,0,16.41-3.08,24.25-9.25,7.83-6.16,14.16-14.33,19-24.5,4.83-10.16,7.25-21.08,7.25-32.75,0-19.66-7-37.16-21-52.5,4.33,18,6.5,35.67,6.5,53Z"/><path d="M330.5,114c0-7.66-2.42-12.91-7.25-15.75-4.84-2.83-13.59-4.41-26.25-4.75-5,0-10-1.5-15-4.5s-7.5-7.16-7.5-12.5c0-4.66,2-8.25,6-10.75s11.33-3.75,22-3.75c9,0,18.66,2,29,6-4.67-4.66-9.67-8.08-15-10.25-5.34-2.16-11.67-3.25-19-3.25-8,0-15.5,2-22.5,6s-10.5,9.84-10.5,17.5c0,6.34,2.08,10.92,6.25,13.75,4.16,2.84,12.91,4.59,26.25,5.25,9,.34,15.5,2.25,19.5,5.75s6,7.42,6,11.75-1.75,7.92-5.25,10.75c-3.5,2.84-9.42,4.25-17.75,4.25-12.34,0-27-3.83-44-11.5,7.33,7,14.16,12.09,20.5,15.25,6.33,3.17,13.66,4.75,22,4.75s15.83-2.16,22.5-6.5c6.66-4.33,10-10.16,10-17.5Z"/><path d="M417.25,291c-13.5-11.33-28.17-21.91-44-31.75-12.83-7.96-24.17-13.9-34.04-17.82,0,0,0-.01,0-.02,10.81,2.39,20.91,3.59,30.29,3.59,14,0,25.08-2.33,33.25-7,8.16-4.66,12.25-10.16,12.25-16.5,0-9.33-3.5-16.16-10.5-20.5-7-4.33-15.67-6.5-26-6.5-11.34,0-20.67,1.84-28,5.5,6.66-1,12.66-1.5,18-1.5,12,0,21.08,1.92,27.25,5.75,6.16,3.84,9.25,8.59,9.25,14.25,0,7-3.25,12.5-9.75,16.5s-14.59,6-24.25,6c-11.67,0-19.92-.25-24.75-.75-1.69-.17-4.02-.51-6.96-.99.75-17.34,2.98-37.42,6.71-60.26-11.8,20.81-18.1,40.16-18.9,58.07-3.2-.61-6.72-1.3-10.6-2.07,2.57,1.03,6.08,2.84,10.51,5.42,0,.19-.01.39-.01.58,0,17.67,5.66,38.84,17,63.5-3.34-17.66-5-35.16-5-52.5,0-1.37.01-2.76.04-4.17.97.62,1.95,1.26,2.96,1.92,12,7.84,24.5,16.25,37.5,25.25,28,20,49.83,34.5,65.5,43.5-5-7-14.25-16.16-27.75-27.5Z"/><path d="M354.5,61.5c9,2.34,22.33,3.5,40,3.5,1.1,0,2.18,0,3.25-.02-7.5,22-11.25,41.84-11.25,59.52,0,3,.33,8.17,1,15.5,3.66-8,6.75-18.25,9.25-30.75s3.75-24.08,3.75-34.75c0-2.94-.17-6.13-.47-9.54,20.34-.25,36.34-1.9,47.97-4.96-13-2.66-26.67-4-41-4-13,0-30.5,1.84-52.5,5.5Z"/></g></svg>