<?xml version="1.0" encoding="UTF-8"?><svg id="Layer_2" xmlns="http://www.w3.org/2000/svg" viewBox="0 0 563.5 309"><g id="Layer_2-2"><path d="M220.25,78.25c.83,2.17,1.25,4.92,1.25,8.25l-1,8.5-6,34c-.67,5.67-2.34,12.34-5,20l31-1.5c-2.34-1.66-3.5-5.5-3.5-11.5l1-9.5,6-34.5c.66-4,1.58-8.25,2.75-12.75,1.16-4.5,1.91-7.58,2.25-9.25-1,.34-3.09.67-6.25,1-3.17.34-6.59.5-10.25.5-2.34,0-7.84-.33-16.5-1,2,3,3.41,5.59,4.25,7.75Z"/><path d="M314.5,130l35.39-.87,7.61,20.87,30-20c-3,.34-6.25-.41-9.75-2.25-3.5-1.83-6.09-4.91-7.75-9.25l-13.5-35c-2-5.33-3-9.16-3-11.5l.5-3-21,1-28.5,46.5,10,13.5ZM336,91l9.29,25.5h-24.29l15-25.5Z"/><path d="M249.5,127c-1,6.67-2,11.17-3,13.5-1,2.34-2.5,4.84-4.5,7.5,6-.33,11.83-.5,17.5-.5l14.5.5c-2.34-4.33-3.5-9.16-3.5-14.5,0-3.66.5-8,1.5-13l.61-3.97,21.89,31.47h13c4.33,0,8.58.09,12.75.25,4.16.17,8.41.09,12.75-.25-10.67-5.66-17.67-10.83-21-15.5l-22-28.5c2-2.33,6.5-7.08,13.5-14.25,7-7.16,13.83-13.75,20.5-19.75l-29.5.5c-2.34,6.34-5.92,12.59-10.75,18.75-3.31,4.22-6.17,7.84-8.62,10.88,2.28-15.17,4.41-25.23,6.37-30.13l-13.5.5-13,.5c1,2,1.5,5,1.5,9,0,2.67-.17,4.67-.5,6l-6.5,41Z"/><path d="M152.5,135l49,52.5,29.5-26c-4.34,0-8,.09-11,.25-3,.17-5.5-.33-7.5-1.5-2-1.16-5.17-3.91-9.5-8.25l-21.5-22.5c9.33-2,17.08-6.25,23.25-12.75,6.16-6.5,9.25-14.75,9.25-24.75,0-7-2.25-12.58-6.75-16.75-4.5-4.16-10.59-6.58-18.25-7.25-5-.33-12.84-.5-23.5-.5h-25.5c1.33,3,2,7.17,2,12.5,0,4-.5,8.34-1.5,13l-14,56.5c-3,13.67-7.5,23.84-13.5,30.5,10,0,22.5-.83,37.5-2.5-1.34-3.66-2-8.16-2-13.5,0-3,.16-5.16.5-6.5l3.5-22.5ZM166.5,86.5c3.66-1,6.83-1.5,9.5-1.5,9.33,0,14,3.84,14,11.5,0,6.67-3.42,11.75-10.25,15.25-6.84,3.5-13.92,4.92-21.25,4.25l8-29.5Z"/><path d="M470.5,216c-3-4-8.5-7.83-16.5-11.5-9.67-4-15.5-6.5-17.5-7.5s-3-2.83-3-5.5c0-5.33,3.83-8,11.5-8,3.66,0,7.75,1,12.25,3s8.75,5,12.75,9l7-23c-10.67-5-20.84-7.5-30.5-7.5-8.34,0-16.34,2.59-24,7.75-7.67,5.17-11.5,12.42-11.5,21.75,0,7,2.25,12.42,6.75,16.25,4.5,3.84,10.75,7.25,18.75,10.25,11.33,3.67,17,8.17,17,13.5,0,2.67-.92,4.67-2.75,6-1.84,1.34-4.09,2-6.75,2-6.34,0-12.67-2.66-19-8l-21,21.5c4,0,10.33.67,19,2,9.33,1.34,16.66,2,22,2,7.66,0,14.58-2.75,20.75-8.25,6.16-5.5,9.25-12.58,9.25-21.25,0-5.66-1.5-10.5-4.5-14.5Z"/><path d="M169,173.5c-2.67,10.67-9.42,19.75-20.25,27.25-10.84,7.5-21.25,11.25-31.25,11.25-12.67,0-23.92-4.58-33.75-13.75-9.84-9.16-14.75-26.08-14.75-50.75,0-.16,0-.33,0-.49,20.52.06,36.19.39,46.99.99l12.5-51c-7.67,6-13.92,10.34-18.75,13-4.84,2.67-10.42,4-16.75,4h-19.29c2.46-8.15,5.89-15.82,10.29-23,10-16.33,22.41-29,37.25-38,14.83-9,28.75-13.5,41.75-13.5,16.66,0,29.66,4.67,39,14l22.5-43c-14-7-30-10.5-48-10.5-27.34,0-52.42,7.75-75.25,23.25-22.84,15.5-40.92,35.34-54.25,59.5-5.71,10.34-10.18,20.76-13.44,31.25H6.5L0,146.5c2-.33,5-.5,9-.5,6.66,0,11.83.17,15.5.5l2.86.08c-.23,3.3-.36,6.61-.36,9.92,0,19.34,3.91,36.09,11.75,50.25,7.83,14.17,18.16,25,31,32.5,12.83,7.5,26.58,11.25,41.25,11.25,19.33,0,36.25-3.91,50.75-11.75,14.5-7.83,26.41-18.41,35.75-31.75l-28.5-33.5Z"/><path d="M422.5,232.5c-3.67-1.66-6.5-3.16-8.5-4.5-2-1.33-3.67-4.5-5-9.5l-14-41.5c-1-4-1.5-6.83-1.5-8.5l.5-3.5h-29.5l-32.5,65.5h13l43.41.47,9.09,26.03,25-24.5ZM357.5,215.5l14.5-31.5,11,31.5h-25.5Z"/><path d="M556.5,203.5l7-34.5c-5.34.67-11.34,1-18,1l-17.5-.5c4.66,4.34,7,9.34,7,15l-1.5,12-3.16,16.96-22.9-.43c2.59-14.56,5.77-29.57,9.56-45.03h-36.5c4.66,5,7,10.34,7,16,0,2-.34,5.67-1,11l-5,28.5c-2.34,14.34-5,25.67-8,34h32.5c-2.34-2.66-3.5-6.66-3.5-12l1-9.5,1.43-8.4,22.71.37-2.15,11.53c-1,5.67-1.75,9.67-2.25,12-.5,2.34-1.25,4.67-2.25,7l31,.5c-1.34-3-2-7.5-2-13.5,0-3.33.33-7,1-11l5.5-31Z"/><path d="M332,173.5l-27,22-8,61h45c14,0,23.66,1.34,29,4l12.5-21.5h-58l6.5-65.5Z"/><path d="M307,272.5l-40.5-52.5,72.5-59.5-55,.5c-.67,2.34-1.75,5.5-3.25,9.5s-3.75,7.84-6.75,11.5l-31,38.5,3-17c1.33-10,3.16-18.5,5.5-25.5,2.33-7,4.33-12.83,6-17.5l-21.5.5-14.5,13-15,87c-1.34,7.34-3,12.92-5,16.75-2,3.84-4.5,7.25-7.5,10.25l46-2c-1.34-2.66-2.17-5.33-2.5-8-.34-2.66-.5-4.5-.5-5.5l4-37.5,49.5,74,40.5-29c-12,.67-20-1.83-24-7.5Z"/></g></svg>