<?xml version="1.0" encoding="UTF-8"?><svg id="Layer_2" xmlns="http://www.w3.org/2000/svg" viewBox="0 0 858 473.5"><g id="Layer_2-2"><path d="M64.5,319.5c-10.67,0-20.67,1.84-30,5.5-1.67,1-3.25.84-4.75-.5-1.5-1.33-2.25-2.83-2.25-4.5,0-2,2.16-3.83,6.5-5.5,7-2.66,16-4,27-4,12.33,0,25.08,3.75,38.25,11.25,13.16,7.5,19.75,21.92,19.75,43.25,0,12.33-2.92,23.16-8.75,32.5-5.84,9.33-13.17,16.41-22,21.25-8.84,4.83-17.92,7.25-27.25,7.25-25.67,0-45.67-11.17-60-33.5-.67-1-1-2.34-1-4s.83-3,2.5-4c3-1.67,5.5-.5,7.5,3.5,3,5.66,8.5,12,16.5,19s19.16,10.5,33.5,10.5c12.66,0,23.91-4.75,33.75-14.25,9.83-9.5,14.75-21.75,14.75-36.75,0-11.33-2.5-20.5-7.5-27.5s-10.92-12-17.75-15c-6.84-3-13.09-4.5-18.75-4.5ZM16,421.5l38.5-87c1.33-3.66,3.33-5.5,6-5.5s4,1.5,4,4.5l-.5,2.5-38,86.5c-1,2-2,3.66-3,5-1,1.33-2.34,2-4,2-2.67,0-4-1.34-4-4l1-4ZM178.5,252c-10,0-20,.84-30,2.5-10,1.67-25,4.5-45,8.5-14.67,3-26.5,5.25-35.5,6.75s-16.5,2.09-22.5,1.75c12.66-1.66,24.25-5.25,34.75-10.75s23.75-14.75,39.75-27.75c-8,1.34-15.34,2-22,2-4.67,0-9-.33-13-1,19-5,34.25-13.41,45.75-25.25,11.5-11.83,19.58-24.16,24.25-37,4.66-12.83,7.16-24.08,7.5-33.75,0-15.33-4.75-30.08-14.25-44.25-9.5-14.16-24.09-22.91-43.75-26.25,14.66.67,24.91,2.09,30.75,4.25,5.83,2.17,12.75,6.25,20.75,12.25l-10.5-18c-8.34-13.66-14.59-25.25-18.75-34.75-4.17-9.5-6.42-19.91-6.75-31.25,4,17,12.16,32.34,24.5,46,12.33,13.67,26.75,24.25,43.25,31.75s32.91,11.42,49.25,11.75c11.33,0,20.41-2,27.25-6,6.83-4,11.41-10.5,13.75-19.5.33,3-.09,6.25-1.25,9.75-1.17,3.5-2.59,6.75-4.25,9.75-3.34,7-6,13.84-8,20.5-2,6.67-3,15.34-3,26,0,15,1.16,29,3.5,42-6-14.33-10.84-24.66-14.5-31-3.67-6.33-9.84-12.91-18.5-19.75-8.67-6.83-20.5-11.91-35.5-15.25,2.33,7,3.66,13.34,4,19,.33,5.67.33,12,0,19,0,13.34-3,26.5-9,39.5,20.33-14,33.83-26,40.5-36-1.67,5-2.5,11.17-2.5,18.5-.67,8-1.67,13.84-3,17.5-2,5.34-5.67,10.09-11,14.25-5.34,4.17-10.17,6.25-14.5,6.25-4,0-7.17-1.25-9.5-3.75-2.34-2.5-3.67-5.25-4-8.25-7,18.34-12.84,31-17.5,38,9-1.33,21-2.5,36-3.5,13.66-.66,25-3.5,34-8.5s20.83-15.33,35.5-31c-4.67,7-8.09,14.09-10.25,21.25-2.17,7.17-3.42,15.25-3.75,24.25,0,12.34,3,27.5,9,45.5-9.67-6.33-22.5-12.25-38.5-17.75s-33.84-8.25-53.5-8.25ZM129,328c0-13.66,5-25.16,15-34.5,10-9.33,21.83-14,35.5-14,5.33,0,11.25,1.17,17.75,3.5,6.5,2.34,9.75,5.5,9.75,9.5,0,2.67-1.5,4-4.5,4-1.34,0-3.34-.83-6-2.5-2.67-1.66-5.5-3-8.5-4s-7-1.5-12-1.5-10.5,1.59-16.5,4.75c-6,3.17-11,7.59-15,13.25-4,5.67-6,12.17-6,19.5,0,9,2.75,16,8.25,21s12.75,7.5,21.75,7.5c4.33,0,8.91-.91,13.75-2.75,4.83-1.83,7.75-2.75,8.75-2.75,2.66,0,4,1.17,4,3.5,0,2.67-3,5.09-9,7.25-6,2.17-12.34,3.25-19,3.25-9,0-17.59-2.75-25.75-8.25-8.17-5.5-12.25-14.41-12.25-26.75ZM167,323.5l-30.5-1c-1.34,0-2.5-.5-3.5-1.5s-1.5-2-1.5-3c0-1.33.5-2.41,1.5-3.25,1-.83,2.33-1.25,4-1.25h.5l29.5,1c5,0,7.5,1.5,7.5,4.5,0,1.34-.42,2.42-1.25,3.25s-2.92,1.25-6.25,1.25ZM216.5,358.5c0-9,2.91-15.5,8.75-19.5,5.83-4,11.75-6,17.75-6,3.66,0,6.5.42,8.5,1.25,2,.84,4.33,2.17,7,4,2.66,1.84,4.83,2.75,6.5,2.75,3,0,4.5-1.5,4.5-4.5,0-3.33-2.67-6.25-8-8.75-5.34-2.5-10.67-3.75-16-3.75-11,0-20.17,3.75-27.5,11.25-7.34,7.5-11,15.59-11,24.25,0,4.67,1,8.83,3,12.5,2,3.66,5.16,8.16,9.5,13.5,5.33,7.33,9.33,13.5,12,18.5,2.66,5,4,11.16,4,18.5,0,9.33-4.42,17.5-13.25,24.5-8.84,7-18.25,10.5-28.25,10.5-8.34,0-16.42-3-24.25-9-7.84-6-11.75-13.5-11.75-22.5,0-10.67,4.5-20,13.5-28,4-3.34,6-5.67,6-7,0-2.67-1.5-4-4.5-4-1.67,0-4.59,1.5-8.75,4.5-4.17,3-7.92,7.58-11.25,13.75-3.34,6.16-5,13.58-5,22.25s2.41,15.41,7.25,21.25c4.83,5.83,10.58,10.25,17.25,13.25,6.66,3,12.83,4.5,18.5,4.5,14,0,26.41-4.17,37.25-12.5,10.83-8.34,16.25-19.67,16.25-34,0-8-1.42-14.75-4.25-20.25-2.84-5.5-6.92-11.59-12.25-18.25-4-5-6.92-9.09-8.75-12.25-1.84-3.17-2.75-6.75-2.75-10.75ZM259,100.5l-11-9.5c-2.67-3-5.42-5.5-8.25-7.5-2.84-2-7.09-4.16-12.75-6.5,7.33,1.34,13.5,3.34,18.5,6,5,2.67,10.83,7.5,17.5,14.5-4.34-9-8.59-16.58-12.75-22.75-4.17-6.16-10.09-13.75-17.75-22.75,15,14.67,27.83,24.67,38.5,30l-9.5,19.5-2.5-1ZM243,302c-3.34,0-5.67-.41-7-1.25-1.34-.83-2-2.25-2-4.25s2.16-3,6.5-3h115.5c5,0,8.08.17,9.25.5,1.16.34,1.75,1.34,1.75,3,0,2-.84,3.34-2.5,4-1.67.67-4.34,1-8,1h-113.5ZM279,84.5c9,4,17.5,6.17,25.5,6.5,2.33,0,5.08-.91,8.25-2.75,3.16-1.83,5.75-4.58,7.75-8.25l-1,21.5c0,9.34.83,18.17,2.5,26.5l3,14.5c8.33,37.67,12.16,62,11.5,73,3.66-9.66,7.5-18.83,11.5-27.5,4.66-9.66,8.16-18.33,10.5-26,5.66-18,8.5-32.33,8.5-43,0-6.66-2.75-14.41-8.25-23.25-5.5-8.83-14.92-16.75-28.25-23.75,17.66,7.34,30.5,12.25,38.5,14.75s16,3.92,24,4.25c2.66,0,6.33-.5,11-1.5,4.66-1,9.5-2.16,14.5-3.5,6.33-1.66,12.83-3.16,19.5-4.5,6.66-1.33,12-1.83,16-1.5,2.66-.33,7.5.17,14.5,1.5-13,3-24.59,7.75-34.75,14.25-10.17,6.5-19.59,16.92-28.25,31.25-12.34,19.67-23.25,41.25-32.75,64.75s-14.75,41.92-15.75,55.25c2.33,8.34,7.16,15.42,14.5,21.25,7.33,5.84,16,10.09,26,12.75-10,1-25.17-1.16-45.5-6.5-4.34-1-8.59-2-12.75-3-4.17-1-7.59-1.66-10.25-2-6.34-.66-15.17-.33-26.5,1-5.34,1-10.5,1.5-15.5,1.5-2,0-4.67-.33-8-1,9.33-2.33,16.16-6.25,20.5-11.75,4.33-5.5,6.5-11.25,6.5-17.25,0-17-4.17-39.16-12.5-66.5-6.67-22.66-15.67-45.16-27-67.5,1-6,5.16-13.83,12.5-23.5ZM268.5,389l25.5-89.5h10.5l-25,89.5c-1.34,6-3.67,9-7,9-1.34,0-2.42-.5-3.25-1.5-.84-1-1.25-2.34-1.25-4s.16-2.84.5-3.5ZM307,445.5c-2.67,7-5.17,10.5-7.5,10.5-2.67,0-4-1.5-4-4.5,0-1.67.5-3.5,1.5-5.5l33-88.5c1-3,2-5.33,3-7,1-1.66,2.33-2.5,4-2.5,2.33,0,3.5,1.34,3.5,4,0,2.34-.67,5-2,8l-13.5,37-3,1-.5,8-14.5,39.5ZM314.5,345c-2.67,0-4-1.16-4-3.5,0-1,2.33-3.5,7-7.5,4.66-4,11-7.66,19-11,8-3.33,17-5,27-5,11.66,0,20.91,3,27.75,9,6.83,6,10.25,15.67,10.25,29,0,6.67-2.09,14-6.25,22-4.17,8-10.42,14.75-18.75,20.25-8.34,5.5-18.34,8.25-30,8.25-3.67,0-6.17-.17-7.5-.5-1.34-.34-3.84-1.67-7.5-4l52,54.5c2.66,2.33,4,4.16,4,5.5,0,2.66-1.5,4-4.5,4-2.34,0-5-1.34-8-4l-54-59c-1-.67-2-1.59-3-2.75-1-1.17-1.5-2.42-1.5-3.75,0-3,1.66-4.5,5-4.5,1,0,2.16.5,3.5,1.5,1.33,1,3.5,1.83,6.5,2.5,3,.66,8.33,1,16,1,6,0,12.41-1.5,19.25-4.5,6.83-3,12.75-7.75,17.75-14.25s7.5-14.75,7.5-24.75c0-7-2.75-13.16-8.25-18.5-5.5-5.33-12.42-8-20.75-8-14.67,0-27.84,4.5-39.5,13.5-4,3.34-6.5,5-7.5,5l-1.5-.5ZM546.5,212l-39.5,8c0-1-.5-2.25-1.5-3.75s-1.5-2.75-1.5-3.75.83-2.66,2.5-5c-2.67-1.66-6.09-7.16-10.25-16.5-4.17-9.33-7.92-20.66-11.25-34-3.34-13.33-5.34-26.33-6-39-4,16-8.42,30.34-13.25,43-4.84,12.67-10.92,27.84-18.25,45.5l-9,22.5c6.33-9.66,14-15.91,23-18.75,9-2.83,19.16-4.25,30.5-4.25,5.33.34,10.25.75,14.75,1.25s7.41.92,8.75,1.25c7.66.34,14.83-1.83,21.5-6.5,6.66-4.66,12-10.66,16-18,4-7.33,6.16-14.66,6.5-22,5,8,7.66,16.67,8,26-.34,7.67-3,15.5-8,23.5s-11.5,14.59-19.5,19.75c-8,5.17-16.84,7.75-26.5,7.75-8,0-17-1.66-27-5-8-2.66-14.34-4-19-4-11.67,0-20.17,4.17-25.5,12.5-1,7-1.5,11.34-1.5,13,0,15.67,8.16,23.5,24.5,23.5l6-.5c-3.67,1.34-7.67,2-12,2-7,0-16.67-2.16-29-6.5-11.67-4-21.34-6.5-29-7.5-8.67-1.33-15.5-2-20.5-2h-17c17-9.33,39-37,66-83,6.33-9.66,11.5-21.25,15.5-34.75s5.5-26.75,4.5-39.75c3,9.34,4.5,16.5,4.5,21.5l-.5,5c1.66-4.33,3.58-9.41,5.75-15.25,2.16-5.83,4.08-12.08,5.75-18.75,1.66-6.66,2.5-13.16,2.5-19.5,0-7.66-1.34-14.66-4-21,3.33,3.34,6.33,6.42,9,9.25,2.66,2.84,5.08,4.92,7.25,6.25,2.16,1.34,4.75,2,7.75,2,2.33,0,6-2.5,11-7.5,8.33-8.33,17-14.83,26-19.5-8,6.67-13.84,13.17-17.5,19.5-3.67,6.34-5.67,13.5-6,21.5,0,6.34,3.5,19.17,10.5,38.5,7,19.34,16.16,41.5,27.5,66.5,1.66,3.34.5,6.17-3.5,8.5,6,2.67,9.66,5.34,11,8ZM493.5,311l-30,79.5c-3.34,8.66-7.92,15.33-13.75,20-5.84,4.66-10.92,7-15.25,7-5.67,0-10-1.59-13-4.75-3-3.17-4.5-6.25-4.5-9.25,0-3.34,1-7.84,3-13.5l22-65.5c1.33-2.66,2-4.83,2-6.5,0-3.33-1.17-5-3.5-5-3.34,0-6.17,2.67-8.5,8l-20,64c-.67,2.33-1.67,5.33-3,9-1.34,3.66-2,7-2,10,0,7.33,2.83,13,8.5,17,5.66,4,11.16,6,16.5,6,6,0,12.91-2.5,20.75-7.5,7.83-5,14.41-14.34,19.75-28l30-76c.66-1.66,1.33-3.16,2-4.5.66-1.33,1-2.5,1-3.5,0-2.66-1.5-4-4.5-4-3.34,0-5.84,2.5-7.5,7.5ZM485,416.5c0-7.67,1.83-16.09,5.5-25.25,3.66-9.17,9.25-17,16.75-23.5s16.58-9.75,27.25-9.75,19.66,3.34,26,10c1.33,1.33,2,3,2,5s-.5,3.16-1.5,3.5c-1.67,1.33-3,1.75-4,1.25s-3.34-2.25-7-5.25c-4.34-3.34-9.84-5-16.5-5-6,0-12,2.08-18,6.25-6,4.16-11,9.83-15,17-4,7.16-6,15.08-6,23.75,0,11.66,3,20.16,9,25.5,6,5.33,13,8,21,8,6,0,10.66-.84,14-2.5,3.33-1.67,7.16-4.34,11.5-8,3-2.34,5.33-3.5,7-3.5s2.66.5,3,1.5c.66,1,.75,2.33.25,4-.5,1.66-1.75,3.33-3.75,5-3.67,3-8.67,5.83-15,8.5-6.34,2.66-13,4-20,4-8.67,0-16.92-3.34-24.75-10-7.84-6.67-11.75-16.84-11.75-30.5ZM515.5,240c1.33,5,2.33,8.84,3,11.5.66,2.67,1,5.5,1,8.5-.34,5-2.25,9.09-5.75,12.25-3.5,3.17-8.92,6.09-16.25,8.75,12-1.66,23.66-4,35-7,10.66-2.66,19.33-4,26-4l18.5.5c3.66.34,9.5.5,17.5.5,14,0,25.5-2.16,34.5-6.5-15.34,1-28.42-1.58-39.25-7.75-10.84-6.16-22.42-16.91-34.75-32.25-10.67,11.67-23.84,16.84-39.5,15.5ZM585,247c2.33-8.66,3.75-14.33,4.25-17,.5-2.66.75-7.16.75-13.5,0-24.33-5.42-45.58-16.25-63.75-10.84-18.16-24.09-32.08-39.75-41.75l11,5.5c10.66,5,20.16,9.34,28.5,13-4-7.33-10.92-16-20.75-26-9.84-10-22.59-22.33-38.25-37,13,9,24.75,15.17,35.25,18.5,10.5,3.34,20.91,5,31.25,5,11,0,26.33-6.5,46-19.5-7.67,10.67-12.42,17.67-14.25,21-1.84,3.34-2.75,7.5-2.75,12.5,0,3,1.25,9.09,3.75,18.25,2.5,9.17,5.41,19.09,8.75,29.75,6.33,20.67,10.33,34.17,12,40.5,3.33-3.66,7.91-6.91,13.75-9.75,5.83-2.83,11.91-4.25,18.25-4.25,19.66.34,35.08-.91,46.25-3.75,11.16-2.83,19.33-6.66,24.5-11.5,5.16-4.83,9.58-10.91,13.25-18.25-4.34,15.67-13.34,28.67-27,39-13.67,10.34-28.34,15.5-44,15.5l-26.5-.5c-4.34,0-7.59.25-9.75.75-2.17.5-4.42,1.59-6.75,3.25,3.33,14,5.83,25.84,7.5,35.5,1.66,9.67,2.5,21.17,2.5,34.5,0,5.67-.17,10-.5,13-3.34-14.33-7.75-24.83-13.25-31.5-5.5-6.66-14.59-10.16-27.25-10.5-4-.33-7.42-.25-10.25.25-2.84.5-6.25,1.42-10.25,2.75ZM651,306.5l-100.5,3c-3.67,0-6.17-.41-7.5-1.25-1.34-.83-2-2.08-2-3.75,0-2,.83-3.25,2.5-3.75,1.66-.5,4.66-.75,9-.75l96.5-2.5c5.66,0,9.16.09,10.5.25,1.33.17,2,1.42,2,3.75s-.84,3.75-2.5,4.25c-1.67.5-4.34.75-8,.75ZM598.5,306l9.5-.5-23,90c-2.34,7.33-5.17,11-8.5,11-2.34,0-3.5-1.34-3.5-4,0-1.67.5-4.34,1.5-8,1.33-3,5.08-16.34,11.25-40,6.16-23.66,10.41-39.83,12.75-48.5ZM629,330.5l5,41.5-13.5,2.5,3.5,38.5-18,1.5,18.5,59,.5-43.5,16.5-2-4.5-42.5,15-3-6-55.5-17,3.5ZM717,179l-37,2c-2.67-1.33-4.34-2.33-5-3-.67-.66-1.67-3.5-3-8.5-5-14.66-11.42-30-19.25-46-7.84-16-17.09-27-27.75-33,23.66-3,44.25-10,61.75-21s32.75-31,45.75-60c-1,7-3.17,13.92-6.5,20.75-3.34,6.84-7.84,15.09-13.5,24.75-5.34,9-9.59,16.92-12.75,23.75-3.17,6.84-5.09,13.25-5.75,19.25,6.33-6.66,11.66-11.83,16-15.5,4.33-3.66,10.33-6.66,18-9-6.67,6.67-11.42,11.5-14.25,14.5-2.84,3-5.59,7.34-8.25,13-2.67,5.67-4,12.34-4,20,0,13.67,4.83,29.67,14.5,48,1,2.34,1.5,4.5,1.5,6.5l-.5,3.5ZM682.5,225.5c0-9.66-.34-17.83-1-24.5,10.33-.66,18.66-1.83,25-3.5,6.33-1.66,13-4.5,20-8.5,7.66,14.34,16.41,25.84,26.25,34.5,9.83,8.67,22.58,13,38.25,13l7-.5c-5.34,1.34-10,2-14,2-6.67,0-13.5-.91-20.5-2.75-7-1.83-13.17-4.41-18.5-7.75l9,6c13,8.67,23.25,15,30.75,19s16.5,7.34,27,10c10.5,2.67,23.58,4.17,39.25,4.5-5.67,1.34-12.5,2-20.5,2-10,0-20.25-.91-30.75-2.75-10.5-1.83-23.75-4.41-39.75-7.75-23-5-39.67-7.66-50-8-16.67,0-30.67,4.84-42,14.5,4.33-6.33,7.75-13.08,10.25-20.25,2.5-7.16,3.91-13.58,4.25-19.25ZM670.5,353c0-17.33,4.25-31.91,12.75-43.75,8.5-11.83,19.58-17.75,33.25-17.75,9,0,17.25,3.25,24.75,9.75s11.25,15.75,11.25,27.75c0,13.34-2.5,24.92-7.5,34.75s-11.25,17.33-18.75,22.5c-7.5,5.16-14.59,7.75-21.25,7.75-8.67,0-16.59-3.5-23.75-10.5-7.17-7-10.75-17.17-10.75-30.5ZM708,384c9.33,0,17.41-5,24.25-15,6.83-10,10.25-23.33,10.25-40,0-7.66-2.42-14.25-7.25-19.75-4.84-5.5-11.42-8.25-19.75-8.25-9,0-17.25,4.59-24.75,13.75-7.5,9.17-11.25,21.75-11.25,37.75,0,10,2.5,17.75,7.5,23.25s12,8.25,21,8.25ZM742,418.5l36-106c1.33-3.66,2.58-6.08,3.75-7.25s2.91-1.75,5.25-1.75c2,0,3,.84,3,2.5,0,2.34-.67,5.34-2,9l-37,107.5c-1,2.66-2.09,4.58-3.25,5.75-1.17,1.16-2.75,1.75-4.75,1.75-1.67,0-2.5-1.17-2.5-3.5s.5-5,1.5-8ZM802.5,409l-17.5-91,5-13,20,92,34.5-103c2.66-7.66,5.16-11.5,7.5-11.5,1,0,1.83.17,2.5.5,2.33,1,3.5,2.84,3.5,5.5,0,3.34-1.17,7.67-3.5,13l-36.5,103.5c-1.67,4.66-3.09,8-4.25,10-1.17,2-2.42,3-3.75,3-2,0-3.5-.42-4.5-1.25-1-.84-2-3.42-3-7.75Z"/></g></svg>