<?xml version="1.0" encoding="UTF-8"?><svg id="Layer_2" xmlns="http://www.w3.org/2000/svg" viewBox="0 0 333.27 107.12"><g id="Layer_2-2"><path d="M30.7,93.8h4.24l-1.21-19.36-9.38.76c-1.06-4.84-3.03-10.44,7.87-11.04h1.06l-1.97-33.43c-.15-3.02-.15-4.99,0-6.81-13.16,2.88-17.24,8.77-17.24,12.86,0,2.12.45,4.24,2.27,7.41-.76.61-2.27,1.66-6.2,1.66-4.99,0-10.14-3.18-10.14-10.89,0-15.88,17.7-16.94,26.62-20.27,8.02-2.87,10.14-10.89,16.04-10.89,1.97,0,4.54,1.06,4.54,5.75s-3.18,6.81-2.87,14.83l1.51,39.03,19.06-1.21-.76-10.29c-.91-12.25-2.42-22.84-2.42-34.19S66.71.17,75.48.17c2.72,0,6.66,1.06,9.23,3.63-8.02,13.77-10.14,13.92-8.62,51.43,1.21,31.01,9.23,33.43,16.04,33.43,2.72,0,5.75-.45,9.98-1.66,2.87,13.77-4.99,18.15-14.52,18.15-18.3,0-20.88-19.97-21.63-28.89l-.3-4.08-19.51,1.36.76,19.81c3.93-.3,8.02-.6,11.8-1.21,1.06,2.57,1.51,3.93,1.51,6.81s-1.36,8.17-8.17,8.17-19.97-1.06-30.41-1.21c-.45-3.93-1.06-12.1,9.08-12.1M105.6,18.63c5.14,0,19.36,5.45,19.36,29.04,0,17.85-8.92,32.07-20.88,32.07-10.14,0-21.33-9.98-21.33-29.5,0-16.49,6.96-31.62,22.84-31.62M113,51.29c0-9.83-3.48-19.51-9.83-19.51s-9.08,7.41-9.08,15.13c0,12.25,4.54,20.72,10.29,20.72,5.45,0,8.62-6.35,8.62-16.34M123.29,77.76c0-1.97,0-5.75,9.08-6.35l-1.51-48.86h-8.02c-.76-1.21-1.06-3.02-1.06-4.23,0-5.14,2.57-7.11,22.39-7.11.76,5.75-.3,8.62-1.97,9.83l1.97,50.22c3.63.15,5.3.15,9.38.15,9.38,0,14.37-1.51,19.06-3.63,1.97,3.02,1.97,5.44,1.97,7.71,0,5.75-4.84,7.11-11.65,7.11-6.2,0-17.55-1.06-24.96-1.06-5.9,0-8.32.15-13.16.76-1.06-1.51-1.51-3.03-1.51-4.54M151.29,55.67c0-1.36.3-3.03,4.84-3.93l-1.06-41.15c-2.12-.15-3.93-.15-5.9-.15-.76-1.51-1.06-2.72-1.06-4.08,0-4.08,1.36-6.66,21.48-6.2.15,4.39-.15,8.02-3.02,9.68l1.36,41.45h5.14c5.14,0,9.23-1.36,13.01-3.03,1.21,2.57,1.97,4.39,1.97,6.66,0,5.14-3.33,6.35-8.62,6.35-8.62,0-13.01-1.66-27.08-.91-.76-1.97-1.06-2.72-1.06-4.69M195.46,0c9.83,0,22.69,11.04,29.04,51.89,3.33-.76,6.2-2.42,8.62-4.08,1.66,1.82,2.88,4.54,2.88,6.81,0,4.84-4.69,6.51-8.92,6.51h-.91l2.72,13.61c1.51-.15,2.87-.3,4.23-.45.91,2.87,1.06,4.39,1.06,6.05,0,1.36-.76,6.2-5.29,6.2s-15.43-1.36-23.9-.91c-.61-2.57-.76-3.78-.76-6.05s1.51-4.84,7.56-4.84c1.82,0,3.93,0,6.2.15l-2.88-14.22c-4.84-.15-10.59-.3-15.58-.45l-1.82,8.93c-6.66,34.04-21.18,37.51-31.01,37.51s-13.01-5.14-13.01-8.77c0-1.97.15-3.48.61-5.6,28.59.91,32.68-14.37,37.51-34.79l8.32-36.76c-4.24-5.75-9.68-9.53-16.18-9.68C185.31,4.4,189.24.02,195.45.02M205.59,29.52l-4.54,22.84h12.4c-1.66-6.81-4.24-15.28-7.87-22.84M242.34,35.72c-4.99-8.92-10.59-14.07-14.82-16.04,3.02-5.9,5.29-8.32,10.44-8.32s10.89,3.78,15.73,21.18c4.69,16.94,7.56,32.52,16.94,40.54,1.51-9.23.91-18.76.91-23.75,0-9.83-4.23-14.82-9.83-17.85,2.42-4.54,4.84-6.66,8.17-6.66s11.2,1.21,11.2,14.07-2.57,28.59-3.33,38.42c1.81.61,3.78,1.06,5.9,1.36-1.66,7.11-6.2,8.93-9.98,8.93-6.96,0-16.64-7.11-25.41-37.97,2.12,24.2,4.08,56.88-9.83,56.88-3.63,0-9.38-2.12-10.44-9.83,10.74-6.96,13.77-8.32,14.37-60.96M288.65,96.23l1.06-73.67c-4.84-1.21-10.74-2.42-14.22-2.87.15-5.6,1.81-8.77,11.19-8.77,4.24,0,46.59.91,46.59,45.38,0,27.68-12.86,50.68-46.59,50.68-11.19.15-12.71-3.78-11.8-13.16,4.84,1.36,9.53,2.27,13.77,2.42M300.9,25.45l-1.06,70.34c14.67-1.66,21.18-19.97,21.18-38.42,0-19.66-11.04-29.2-20.12-31.92"/></g></svg>