<?xml version="1.0" encoding="UTF-8"?>
<svg xmlns="http://www.w3.org/2000/svg" baseProfile="tiny" version="1.2" viewBox="0 0 469 468">
  <!-- Generator: Adobe Illustrator 28.6.0, SVG Export Plug-In . SVG Version: 1.2.0 Build 709)  -->
  <g>
    <g id="Layer_2">
      <g id="Layer_2-2">
        <path d="M232,137.5l-14.5,4c11-2.66,20.5-4,28.5-4,6.33,0,9.5,1.17,9.5,3.5,0,3.34-2.84,7.67-8.5,13,11.66-4.66,21.25-10.41,28.75-17.25,7.5-6.83,11.91-13.25,13.25-19.25,1.32999-.66,4.66-2.58,10-5.75,5.32999-3.16,11.5-5.91,18.5-8.25,13.66,11.67,23.32999,19.42,29,23.25,5.66,3.84,13,6.75,22,8.75-3.67001-1.33-6.67001-2.75-9-4.25-2.34-1.5-4.67001-3.25-7-5.25l15.5,1c8.66,0,15.75-.91,21.25-2.75,5.5-1.83,10.41-4.58,14.75-8.25-8,3.34-15.5,5-22.5,5-5.67001,0-12.5-1.33-20.5-4,10.66,0,19.66-3,27-9-3,1.67-7.5,2.5-13.5,2.5-9.67001,0-21-2.16-34-6.5-9.34-3-14-8.5-14-16.5,0-3,.82999-6.16,2.5-9.5-4,2.34-12.84,9.17-26.5,20.5,2.32999-3,6-8.33,11-16,7-11,12.66-19.33,17-25,7.66-9.66,14.5-17,20.5-22s12.5-8.83,19.5-11.5c-5.34,0-14.34,4.34-27,13-5,3-9.92001,5.84-14.75,8.5-4.84,2.67-8.92001,4-12.25,4-6.67001,0-11.17001-2.25-13.5-6.75-2.34-4.5-4.5-11.75-6.5-21.75-.34,8,.32999,15.67,2,23,1.66,7.34,2.5,11.84,2.5,13.5,0,8.34-2.09,17.42-6.25,27.25-4.17001,9.84-9.75,19.25-16.75,28.25-5,6.67-10.42001,11.42-16.25,14.25-5.84,2.84-15.75,6.25-29.75,10.25Z"/>
        <path d="M113,81.25c2.33.84,4.33,2.92,6,6.25,5.66-5,13.83-7.5,24.5-7.5,7,0,15.41,1.67,25.25,5,9.83,3.34,19.41,8.67,28.75,16,3.33-.66,9-1,17-1,3.33,0,8.33,1.92,15,5.75,6.66,3.84,11.83,7.75,15.5,11.75-2.34-3.66-3.84-6.5-4.5-8.5-.67-2-1-4.33-1-7,0-3.66,1.83-8.91,5.5-15.75,3.66-6.83,10-14.41,19-22.75l-11.5,7.5c-9.67,6.67-18,13-25,19-8-1.33-13.17-4.83-15.5-10.5-2,1.34-4,2-6,2-5,0-10.59-3.58-16.75-10.75-6.17-7.16-10.75-16.75-13.75-28.75-5.67-2-10.34-6-14-12-3.67-6-7.84-16-12.5-30,5,19.34,7.58,29.42,7.75,30.25.16.84.41,7.09.75,18.75-4.34-2-7.92-3.83-10.75-5.5-2.84-1.66-5.92-4-9.25-7,8.66,9.34,15.33,16.25,20,20.75,4.66,4.5,9.16,8.42,13.5,11.75l9,7.5c-10.67-2.66-18.67-4.41-24-5.25-5.34-.83-10.34-1.41-15-1.75-16-1.66-23.67-7.33-23-17-2.34,11-15,23.17-38,36.5,13-6,21.16-9,24.5-9s6.16.42,8.5,1.25Z"/>
        <path d="M462,172c-16.34,3-30.84,8.17-43.5,15.5,4-8,5.32999-14.5,4-19.5-3.34,12.67-11,23.34-23,32-2.34,1.67-7.17001,4.5-14.5,8.5-10,5.34-16.34,9-19,11,2.32999-1,4.32999-1.66,6-2,1.66-.33,3.5-.5,5.5-.5,2.66,0,5,1,7,3s3,5,3,9c0,5-1.84,11.25-5.5,18.75-3.67001,7.5-8.84,14.59-15.5,21.25,2.32999-.66,4.32999-.66,6,0,1.66.67001,2.5,1.84,2.5,3.5s-.92001,3.84-2.75,6.5c-1.84,2.67001-3.59,4.5-5.25,5.5-6-2.32999-11.67001-4.75-17-7.25-5.34-2.5-10.67001-5.75-16-9.75,8.66-4,18.32999-7.5,29-10.5,1.32999-12,4.66-22,10-30-9.34-3.33-15.92001-6.25-19.75-8.75-3.84-2.5-6.92001-7.25-9.25-14.25-11.34,5.67-23.5,8.5-36.5,8.5-7.67001,0-15.42001-1-23.25-3-7.62-1.94-14.20001-5-19.76999-9.14999,1.95999-.72,3.56-1.25999,4.76999-1.60001,4.16-1.16,10.91-1.75,20.25-1.75,8.32999,0,15.41.59,21.25,1.75,5.82999,1.17,13.07999,2.92,21.75,5.25-3-2-6.17001-3.83-9.5-5.5l19.5-7c9-2.66,16.32999-4.83,22-6.5-8,10-12.84,17-14.5,21,8-8,14.16-12.83,18.5-14.5-3.34,6-5.25,9.75-5.75,11.25s-.92001,3.59-1.25,6.25c4-8,10.16-15.58,18.5-22.75,8.32999-7.16,16.91-12.91,25.75-17.25,8.82999-4.33,15.75-6.5,20.75-6.5,4,0,6,3,6,9,1.32999-3.66,2.82999-7.83,4.5-12.5,1.66-4.66,4.75-9.75,9.25-15.25s11.25-11.91,20.25-19.25c-13.67001,8.67-22.75,14.17-27.25,16.5-4.5,2.34-9.92001,3.34-16.25,3,6.32999-8.33,11.82999-18.41,16.5-30.25,4.66-11.83,7-23.08,7-33.75,0-2-.34-5.33-1-10-2.34,18.34-7.17001,32.84-14.5,43.5-1-8-5.34-15.83-13-23.5,5,10,7.5,17.5,7.5,22.5,0,5.34-2.25,11.5-6.75,18.5s-13.09,12.5-25.75,16.5c-1.34,7.34-7.59,13.67-18.75,19-11.17001,5.34-24.25,8.34-39.25,9,9-7.66,16-17.16,21-28.5-8.67001,10.34-16.5,17.92-23.5,22.75-7,4.84-16,8.42-27,10.75,4.32999-3,7.32999-5.16,9-6.5,1.66-1.33,3.66-2.5,6-3.5-1-1-1.5-2.66-1.5-5,0-4.33,2.66-8.5,8-12.5-2-2-3-4.33-3-7,0-4.33,3.82999-7.83,11.5-10.5-5.34.34-11.67001-1.16-19-4.5-9-4.33-15.5-6.66-19.5-7,4,3,6.91,5.92,8.75,8.75,1.82999,2.84,2.75,6.25,2.75,10.25,0,2.67-.84,5.09-2.5,7.25-1.67001,2.17-4.17001,3.75-7.5,4.75.66,2.34.32999,5.84-1,10.5-1.34,4.67-4.42001,8.84-9.25,12.5-4.84,3.67-11.75,5.5-20.75,5.5-9.45,0-19.3-2.81-29.53-8.44,4.35001-5.03,8.03-10.38,11.03-16.06-4.91,5.19-9.89,9.78999-14.92,13.8-.03-.02-.05-.03-.08-.05-11.67-7.16-19.17-16.91-22.5-29.25,2.33,9.34,5.25,16.75,8.75,22.25.35001.55.7,1.08,1.05,1.60001-3.84,4.84-9.77,9.56-17.8,14.14999-9.34,5.34-19.84,8-31.5,8-10.67,0-22.34-3-35-9-4.67,2-9.84,3.5-15.5,4.5,8-5,14.33-9.16,19-12.5l-6.02-14.67999c4.27,2.49001,9.10001,6.03999,14.52,10.67999,3-6,7.16-9,12.5-9,4.66,0,9,2.5,13,7.5,1-10.66,4.41-19.91,10.25-27.75,5.83-7.83,15.41-12.41,28.75-13.75-5.34-1.33-9.42-2.66-12.25-4-2.84-1.33-6.25-3.83-10.25-7.5,5,1,8,1.5,9,1.5,2.33,0,4.16-.5,5.5-1.5-5.67,1.34-11.84-.83-18.5-6.5-6.34-5.33-12.34-9.08-18-11.25-5.67-2.16-12.84-3.25-21.5-3.25,4.66-.66,8.33-1.16,11-1.5,2.66-.33,5-1,7-2l-19,1c-7.34,0-12-.33-14-1-.67,2.34-3.25,5.67-7.75,10-4.5,4.34-11.25,9.17-20.25,14.5l19.5-8c-4.67,8-8,14.67-10,20-2,5.34-3,10.67-3,16,0,9.67,2.66,16.5,8,20.5-.67-2.33-.75-4.41-.25-6.25.5-1.83,1.58-2.75,3.25-2.75s3.54.36,5.59,1.06c-1.28,3.92-2.97,7.74001-5.09,11.44-2.67,4.67-7.5,10.5-14.5,17.5-10.34-2.66-18.5-6.58-24.5-11.75-6-5.16-9.17-13.41-9.5-24.75l-2,9v1.5c-8.67-4.66-15.42-9.08-20.25-13.25-4.84-4.16-7.25-10.41-7.25-18.75,0-5,1.16-10.08,3.5-15.25,2.33-5.16,7.16-10.91,14.5-17.25-6,3.34-11.34,7.5-16,12.5-4.67,5-7.34,10.5-8,16.5-.34-10.33,0-18.25,1-23.75s3.83-11.91,8.5-19.25c-6,8.34-10.17,15.09-12.5,20.25-2.34,5.17-3.5,11.92-3.5,20.25,0,14.67,4.5,27,13.5,37-7.34-3.33-12.09-5.33-14.25-6-2.17-.66-6.42-1.33-12.75-2,10,3,17.5,5.92,22.5,8.75,5,2.84,9.83,7.25,14.5,13.25-2,4.34-4.59,7.17-7.75,8.5-3.17,1.34-7.59,2.34-13.25,3-7.67.67-13.5,1.84-17.5,3.5,8-1,16-1.5,24-1.5,9.66,0,17.33.34,23,1,16.33,2.67,30,7.5,41,14.5-6.67,1.67-12,3.34-16,5,11.66-2,19.66-3.16,24-3.5,4.33-.33,11.5-.5,21.5-.5,15.33,0,29.16,2.34,41.5,7-3.34,1.67-6.5,3.59-9.5,5.75-2.39,1.73-4.56,3.50999-6.53,5.34-6.09,1.27-14.08,1.91-23.97,1.91-18,0-27.34-3-28-9-3.34,1.67-6.42,2.75-9.25,3.25-2.84.5-7.75.75-14.75.75-15.67,0-23.5-3.5-23.5-10.5l.5-4c.33-1.66.5-4,.5-7v-2c-1,5.34-2.42,9.59-4.25,12.75-1.84,3.17-4.42,6.75-7.75,10.75-4.34,4.67-10,9.67-17,15-7.67,6.34-13.67,11.84-18,16.5-4.34,4.67-7.5,10.17001-9.5,16.5,4.33-7,8.25-12.16,11.75-15.5,3.5-3.33,8.91-6.66,16.25-10-10.34,13-17.5,23.42001-21.5,31.25-4,7.84-7,18.09-9,30.75,4.66-17.32999,11.5-31.75,20.5-43.25s24.16-21.91,45.5-31.25c4.33,5.67,6.5,10.17,6.5,13.5,0,3-1.42,6.17-4.25,9.5-2.84,3.34-5.42,5-7.75,5s-4.17-.66-5.5-2c.66,7,1,16,1,27l-12,12-8,6.5c-7.34,6.34-13.09,11.75-17.25,16.25-4.17,4.5-8.59,10.92001-13.25,19.25,12.66-11.66,24.5-20.32999,35.5-26,11-5.66,23.83-8.5,38.5-8.5,8.33,0,14.33.5,18,1.5-2.34-1.66-4.84-2.82999-7.5-3.5-2.67-.66-5.17-1.16-7.5-1.5,7.33-.32999,13.25-.32999,17.75,0,4.5.34,11.25,1.34,20.25,3-5.34-3-10.09-5.16-14.25-6.5-4.17-1.32999-9.09-2.5-14.75-3.5-7.34-1-13-3-17-6,3.33-2,6.16-3.32999,8.5-4-2.67-8-4-15-4-21,0-3,1.25-6.41,3.75-10.25,2.5-3.83,6.08-5.91,10.75-6.25.66-2.66,2.33-5.16,5-7.5,2.66-2.33,6.5-3.5,11.5-3.5,1.66,2.34,2.5,5.5,2.5,9.5s-1,7.84-3,11.5c3.33,4,5,10.34,5,19,0,4.34-.84,9.84-2.5,16.5,2.33-4.32999,4.83-11.5,7.5-21.5,2-7.32999,3.66-12.66,5-16,1-2,2.41-4,4.25-6,1.83-2,3.75-4,5.75-6,1.33,5,2,9.67,2,14,0,2.67-.84,5.92-2.5,9.75-1.67,3.84-4,7.25-7,10.25,3.66,3,5.5,7.17001,5.5,12.5v3.5c0,11.67001-8.67,18.84-26,21.5-11.67,1.67001-18.75,2.92001-21.25,3.75-2.5.84-5.59,2.09-9.25,3.75,6.33-2,12.5-3,18.5-3l12,1c11.33,1.34,20.33,2,27,2,3.33,0,6.33-.32999,9-1-3.34,1.67001-6.75,3.09-10.25,4.25-3.5,1.17001-7.42,1.75-11.75,1.75-2.67-.32999-5.5-.5-8.5-.5,7.66,3.34,14.83,5,21.5,5l10.5-1,10-.5,16.5,1c-3-.66-5.17-1.5-6.5-2.5-1.34-1-2.5-2.5-3.5-4.5h12c3.66,0,6.33.34,8,1-7.34,9.34-20.84,14-40.5,14-16.34,0-28.34-3.82999-36-11.5-3.67,1-6.92,1.75-9.75,2.25-2.84.5-9.59.75-20.25.75-18.67,0-29.34-4.16-32-12.5,1,6.34,1.5,10,1.5,11,0,2.34-.84,5.59-2.5,9.75-1.67,4.17001-4.17,7.75-7.5,10.75-7.67,6.67001-13.25,11.84-16.75,15.5s-5.42,7.66-5.75,12c5-9,12-15.5,21-19.5-5.34,12-8,22.16-8,30.5,0,5,.66,9.5,2,13.5-.34-2.67001-.5-6.17001-.5-10.5s.58-8.09,1.75-11.25c1.16-3.17001,3.58-7.09,7.25-11.75,10-13.32999,20.16-23.16,30.5-29.5,10.66,3.34,19,6.67001,25,10-2,5.67001-4.17,10-6.5,13,2.33,4.34,3.75,8,4.25,11s.75,6.32999.75,10c0,10.32999-2.67,19-8,26-6.34-.67001-13-3.5-20-8.5s-11.84-11.17001-14.5-18.5c2,7.66,5.08,14.25,9.25,19.75,4.16,5.5,10.58,11.41,19.25,17.75-1.67,1-3.25,1.82999-4.75,2.5-1.5.66-3.42,1.16-5.75,1.5,7,.32999,12,.75,15,1.25s6.33,1.75,10,3.75c9,4.66,15,9.66,18,15,7.33.32999,13.5,1.16,18.5,2.5,5,1.32999,12.83,4.82999,23.5,10.5-3.67-3.67001-10.17-8.34-19.5-14-9-5.34-16.09-10.25-21.25-14.75-5.17-4.5-8.59-9.92001-10.25-16.25.33,0,1,.25,2,.75s2.16,1.41,3.5,2.75c.66-5.34,1.75-10,3.25-14s5.58-8,12.25-12c-3.34-1.34-5.92-2.75-7.75-4.25-1.84-1.5-2.75-4.42001-2.75-8.75,0-7.66,2.16-13.32999,6.5-17,6.66,1.67001,11.33,2.5,14,2.5l5-.5c-6.34-2-11.5-5.32999-15.5-10,13,2.34,23.33,3.5,31,3.5l16.5-1c-10.34,7.67001-19.84,17-28.5,28-4-4-7.5-9.67001-10.5-17,.33,9.66,2.41,17.66,6.25,24,3.83,6.32999,10.91,14.5,21.25,24.5-.34,4-1,7.25-2,9.75s-3,4.75-6,6.75c10-1.34,17.83-2.92001,23.5-4.75,5.66-1.84,14.66-5.92001,27-12.25-1.34,3.66-3.25,6.75-5.75,9.25l-6.75,6.75c8.66-4.34,17.25-12.25,25.75-23.75s15.75-23.92001,21.75-37.25c-7.67-7-13.34-12.32999-17-16-3.67-3.66-6.84-8.16-9.5-13.5-2.67,1.67001-5.42,3.17001-8.25,4.5-2.84,1.34-5.25,2.17001-7.25,2.5-2.67-3-4.84-5.5-6.5-7.5-1.67-2-2.67-3.66-3-5,10.33-8,20.16-12.5,29.5-13.5-10,5.34-17.67,11-23,17,7-4,13.33-6.66,19-8,5.66-1.32999,12.5-2,20.5-2,12.33,0,24.66,2.67001,37,8-6.34-4-13.84-7.5-22.5-10.5,2.33-1.66,3.83-3.07999,4.5-4.25.66-1.16,1.16-2.07999,1.5-2.75-1.67,1.34-3.67,2-6,2h-1.5c-3,0-6.67-1.16-11-3.5-4.34-2.32999-6.84-4.66-7.5-7-.34-1-.5-2.66-.5-5,0-4,1-9.5,3-16.5,4,1,7.58,2.75,10.75,5.25,3.16,2.5,6.66,5.5,10.5,9,3.83,3.5,6.41,5.75,7.75,6.75-5-.66-9.67-2.16-14-4.5,7.66,8.34,14.41,14.59,20.25,18.75,5.82999,4.17001,14.75,8.09,26.75,11.75,1.66-2,4.07999-3.75,7.25-5.25,3.16-1.5,6.07999-2.57999,8.75-3.25,5,2.67001,9.5,6,13.5,10-2.34,2-6.17001,4.17001-11.5,6.5-5.34,2.34-11.5,5-18.5,8,3.32999.34,6.66,2,10,5l-11,26c-1.67001-3.67001-4.09-7.84-7.25-12.5-3.17001-4.66-6.42001-8.66-9.75-12,2.66-4.66,5.41-8.07999,8.25-10.25,2.82999-2.16,8.41-3.91,16.75-5.25-4,0-7.84.09-11.5.25-3.67001.17001-7.84-.25-12.5-1.25,5-2,8.82999-3.16,11.5-3.5-2.67001-.32999-5.84-.41-9.5-.25-3.67001.17001-7.84.25-12.5.25-11.34,0-19.84-.66-25.5-2,6,2.67001,12.66,4.84,20,6.5-4.67,1.67001-13,0-25-5-7-3-14-4.82999-21-5.5,13,7.34,24.66,17.17001,35,29.5-1.67,8.34-3.34,15.57999-5,21.75-1.67,6.16-3,11.07999-4,14.75-4.67,7.66-9.17,14.16-13.5,19.5-4.34,5.32999-9.67,11-16,17-4.34,4-8.59,7-12.75,9-4.17,2-8.5,3.66-13,5-4.5,1.32999-8.75,2.5-12.75,3.5,7,0,13.66-1.17001,20-3.5-5.34,4.66-9.5,9.66-12.5,15-3,5.32999-5,10-6,14,7.66-11,14.5-19.09,20.5-24.25,6-5.17001,12.83-7.75,20.5-7.75s12.66,6,16,18c.33-9.34,1.33-16.59,3-21.75,1.66-5.17001,5.16-13.09,10.5-23.75.66,6.32999,1.41,11,2.25,14,.83,3,2.08,6,3.75,9-.34-3.67001-.5-9-.5-16,0-9.34.83-18.84,2.5-28.5,7.66-10,13.82999-17.34,18.5-22,2.66,3.66,5.32999,7.41,8,11.25,2.66,3.82999,4.66,8.25,6,13.25-3,5-5.92001,9-8.75,12-2.84,3-7.09,6.82999-12.75,11.5,4-2,7.82999-4.09,11.5-6.25,3.66-2.17001,6.82999-4.59,9.5-7.25-6.34,13-16.17001,26.5-29.5,40.5,6.33-4.67001,12.41-9.5,18.25-14.5,5.82999-5,10.75-9.34,14.75-13,0,8.32999.25,14.25.75,17.75s1.41,6.91,2.75,10.25c-.34-8.67001.57999-16.92001,2.75-24.75,2.16-7.84,5.25-16.42001,9.25-25.75,4-8.67001,7-15,9-19s5-8.5,9-13.5c1,3.66,1.66,6.32999,2,8,.32999,1.66.5,3.16.5,4.5,0,7.32999-2.17001,16.66-6.5,28-3.67001,8.66-5,15.16-4,19.5,1-3.67001,2.57999-7.42001,4.75-11.25,2.16-3.84,4.07999-7.09,5.75-9.75.32999,4,.16,7.5-.5,10.5-.67001,3-2,7.32999-4,13-1.67001,4.32999-4.25,8.57999-7.75,12.75-3.5,4.16-6.42001,6.25-8.75,6.25s-3.5-.84-3.5-2.5v-1.5c-9.34,13.32999-18.17001,21.16-26.5,23.5,10-1.67001,18.32999-3.67001,25-6,6.66-2.34,13-5.34,19-9,6-3.67001,12.16-7.5,18.5-11.5,8.66-1.67001,16.16-4,22.5-7,6.32999-3,11.07999-5.75,14.25-8.25,3.16-2.5,5.07999-4.09,5.75-4.75-8.67001,3-15.34,4.91-20,5.75-4.67001.82999-10.17001,1.41-16.5,1.75,1.66-10,6.41-19.09,14.25-27.25,7.82999-8.17001,18.41-12.75,31.75-13.75-7.34,4-12.67001,7.25-16,9.75-3.34,2.5-6.17001,5.75-8.5,9.75,8.66-8,17.16-12,25.5-12,6,0,9,2.32999,9,7,0,2.32999-1,6-3,11,5-6.67001,7.82999-13,8.5-19,1,1.66,1.5,4.32999,1.5,8,0,11-5.17001,21.75-15.5,32.25-10.34,10.5-28.17001,17.41-53.5,20.75,8.66,0,15.75-.34,21.25-1,5.5-.67001,12.41-1.84,20.75-3.5-6,5-9,10.82999-9,17.5,2-4.67001,4.66-8.92001,8-12.75,3.32999-3.84,8.66-8.09,16-12.75,8.66-5.67001,15.75-12.09,21.25-19.25,5.5-7.17001,9.57999-16.42001,12.25-27.75,9-8,15.75-15,20.25-21s6.91-13.32999,7.25-22c-7.34,16-16.17001,22.82999-26.5,20.5-1.67001-7.32999-2.5-18.82999-2.5-34.5,0-18.66,1.16-35.5,3.5-50.5-4.34,10.34-7.92001,17.34-10.75,21-2.84,3.67001-6.92001,7.5-12.25,11.5,3.66-7.32999,5.66-13.32999,6-18-4.34,9.67001-11.09,18.5-20.25,26.5-9.17001,8-22.09,13.34-38.75,16,10.32999.67001,15.5,3,15.5,7,0,1.67001-1.67001,5.84-5,12.5-3.34,6.66-6.92001,12.75-10.75,18.25-3.84,5.5-7.09,8.25-9.75,8.25-2,0-3.75-2.84-5.25-8.5-1.5-5.67001-2.09-13.32999-1.75-23,3.66,4,6.25,7.25,7.75,9.75s2.25,6.07999,2.25,10.75c.32999-1.67001.5-4.17001.5-7.5,0-7-2.34-16.32999-7-28,.32999-1.66.66-3.16,1-4.5.32999-1.32999,1-2.66,2-4-1.34.67001-3,2-5,4-1.34-3.66-3.17001-6.32999-5.5-8l-3,2c-.34-3.32999,1-7,4-11s7.16-5.5,12.5-4.5c-5-2-9-5.41-12-10.25-3-4.82999-5.17001-9.41-6.5-13.75-1.34-4.32999-2.17001-7.16-2.5-8.5,6,2.34,10.75,4.67001,14.25,7,3.5,2.34,6.91,5.67001,10.25,10-4.34-.32999-9.17001-1.66-14.5-4,2,3,6.41,5.75,13.25,8.25,6.82999,2.5,14.57999,3.75,23.25,3.75-7.67001,9.34-19.5,16.34-35.5,21,14.66-1,29.66-4.66,45-11,15.32999-6.32999,26.5-16,33.5-29-8,7.34-14.34,11-19,11-1.67001,0-3.34-.5-5-1.5,4,0,7-.5,9-1.5-1.34-.32999-2.25-.82999-2.75-1.5-.5-.66-.75-1.66-.75-3,0-2.32999.66-4.82999,2-7.5,1.32999-2.66,3.66-4.82999,7-6.5l-.5,4c0,1.67001.16,2.84.5,3.5,3.66-5.66,8-9.82999,13-12.5,8,3.34,13.32999,8.84,16,16.5.66-6-.5-10.66-3.5-14,2.32999,1,4.16,2.67001,5.5,5,0-3-.34-5.32999-1-7,1,2,2.57999,4.92001,4.75,8.75,2.16,3.84,4.16,8.84,6,15,1.82999,6.17001,2.75,13.25,2.75,21.25,0,10-2.34,18.67001-7,26,9.32999-8.66,16.16-20.32999,20.5-35,1.66,6,2.5,10.5,2.5,13.5,0,3.67001-.84,8.34-2.5,14,2-3.32999,3.32999-6.5,4-9.5.66-3,1-7,1-12,0-7-1.84-16.57999-5.5-28.75-3.67001-12.16-8.34-23.75-14-34.75,5-4,9.75-9.08,14.25-15.25,4.5-6.16,6.75-11.25,6.75-15.25-6.67001,8.34-15,15-25,20-7.34-15.33-11-29.16-11-41.5,6.32999-5.66,11.5-10,15.5-13s11.16-6.16,21.5-9.5ZM137,104.5c6,.67,11.16,1.75,15.5,3.25,4.33,1.5,9.83,3.92,16.5,7.25.66,7.67,1,16.5,1,26.5-4.67,3-8.5,4.5-11.5,4.5-1.67,0-3-.16-4-.5,1,0,2.25-.5,3.75-1.5s2.41-2.16,2.75-3.5c-1,1.34-2.67,2.34-5,3-2.34.67-4.34,1-6,1-2,0-4.84-1.08-8.5-3.25-3.67-2.16-7.5-5.75-11.5-10.75,1.33-12.33,3.66-21,7-26ZM199.5,350.25c5.33,1.84,10,4.92001,14,9.25,0,8-2,17.66-6,29-7,2.32999-13,3.91-18,4.75-5,.82999-10.5,1.07999-16.5.75-5.67-6.34-9.5-12.67001-11.5-19,2.66-5.67001,5.83-10.92001,9.5-15.75,3.66-4.82999,6.66-9.07999,9-12.75,7.66.67001,14.16,1.92001,19.5,3.75ZM222.07001,168.48c2.42999,3.53,4.74001,6.25999,6.92,8.17-5.27,3.75-10.59,6.87-15.99001,9.35001,4.37-6.28999,7.38-12.12,9.07001-17.52ZM184.5,299.25c-7.67,6.84-14.67,10.25-21,10.25-2.34,0-5.09-.66-8.25-2-3.17-1.32999-5.59-2.82999-7.25-4.5l1-15c2.33-1,4.5-2,6.5-3s4-1.82999,6-2.5c-1.67,5-2.5,9.34-2.5,13,0,1,.5,4,1.5,9,2.33-6.32999,5.5-12.25,9.5-17.75s10-10.75,18-15.75c-1.67.67001-3.25.42001-4.75-.75-1.5-1.16-2.25-2.75-2.25-4.75.33-2,.91-4.91,1.75-8.75.83-3.83,1.25-6.91,1.25-9.25,0-1.33-.34-2.66-1-4,0,3.34-.5,6.5-1.5,9.5s-4,6.5-9,10.5c-4,3.34-7.09,5.75-9.25,7.25-2.17,1.5-4.92,2.75-8.25,3.75-3-5.66-4.5-10.5-4.5-14.5,0-2.66.91-6,2.75-10,1.83-4,4.41-7.66,7.75-11,6-.66,11.16-1,15.5-1,12.33,0,19.16,4.84,20.5,14.5,1,7,1.5,12.5,1.5,16.5,0,2.67001-.34,6-1,10-1,6.67001-5.34,13.42001-13,20.25ZM215,277.25c-6.34,10.5-11.67,17.59-16,21.25l-.5-10,1-11.5c.66-4.66,3.16-13.16,7.5-25.5,4.33-12.33,8.5-22.5,12.5-30.5,3.33,11,5,21.84,5,32.5,0,5.34-3.17,13.25-9.5,23.75ZM232,268c2.33-3.66,5.66-7.66,10-12-.34-8.33-.84-14.83-1.5-19.5-.67-4.66-1.17-8.33-1.5-11,16.66,9.67,27.16,19,31.5,28-13,9.34-25.84,14.17001-38.5,14.5ZM294,307c-4,0-8.34-2.16-13-6.5-4.67001-4.32999-7-9-7-14,0-1,.32999-2.5,1-4.5-2.67001,2-5.67001,3-9,3-2.34,0-5.42001-.82999-9.25-2.5-3.84-1.66-7.09-4.16-9.75-7.5,6.33-1.66,15.66-4.32999,28-8l.5,7.5v3.5c2.32999-3,4.5-7.32999,6.5-13,2-1,4.16-2.07999,6.5-3.25,2.32999-1.16,4.5-2.41,6.5-3.75-5,1-8.67001,1.5-11,1.5,3.32999-8.33,5.32999-16.5,6-24.5-7.67001-4.33-15.34-8.16-23-11.5-7.67001-3.33-17.67-7.16-30-11.5-1.34,3.34-7.34,5-18,5l-21-.5c-11,0-21.17.67-30.5,2,13-.66,24.33,1,34,5-13.67,1-24,3-31,6-2.67-.33-6.17-.5-10.5-.5-5.67,0-10.34.17-14,.5,4.24001-3.92,9.61-7.67,16.10001-11.27,14.24001-6.81,27.20999-10.23,38.89999-10.23s20.16,1.17,26.5,3.5c-8-4.33-16.67-7.33-26-9,12.75999-6.47,23.39-13.99001,31.91-22.53,2.84,1.96001,6.53,4.28999,11.09,7.03-6,2.34-10.84,4.75-14.5,7.25-3.67,2.5-7.34,5.75-11,9.75,8-3,14.66-5.16,20-6.5,5.33-1.33,12.33-2.33,21-3-6,3.67-9.92,6.5-11.75,8.5-1.84,2-3.42,4-4.75,6,9.13-3.98,16.07001-6.84,20.84-8.60001,5.66,6.8,14.04001,11.84,25.16,15.10001l-16.5,1-7-.5c16.66,4.34,28.82999,9.5,36.5,15.5.66,8.67.5,15.67-.5,21-1,5.34-3.84,10.67001-8.5,16,3.32999,4.67001,5.66,9.17001,7,13.5,1.32999,4.34,2.82999,11.34,4.5,21-3.67001,2.67001-7.34,4-11,4ZM379,345.5c11.66-14.32999,22.16-22.32999,31.5-24-.34,8.67001-2.17001,18.17001-5.5,28.5l-2.5,12c-4.34,2-9.5,3.32999-15.5,4-8,1.32999-14.17001,2.82999-18.5,4.5,5-8.67001,9.41-15.25,13.25-19.75,3.82999-4.5,8.41-8.75,13.75-12.75-5.34,1.67001-10.84,4.17001-16.5,7.5ZM315,260c4-7,6-14.66,6-23,0-2-.34-4.33-1-7,2.32999-1.33,5.16-2,8.5-2,3,0,6.75,1.42,11.25,4.25,4.5,2.84,8.41,6.42,11.75,10.75-1.67001,2.67-4.09,5.75-7.25,9.25-3.17001,3.5-6.92001,6.42001-11.25,8.75-6-.32999-12-.66-18-1ZM416,231.5c0,4.67.5,9.5,1.5,14.5-6.67001,5-14.67001,12.17001-24,21.5,0-4.32999,1-9,3-14s4.5-9.33,7.5-13c-4.34,3.34-8.84,8-13.5,14,3.32999-12.66,7.32999-23.08,12-31.25,4.66-8.16,10.66-15.75,18-22.75-3,14.34-4.5,24.67-4.5,31Z"/>
      </g>
    </g>
  </g>
</svg>