<?xml version="1.0" encoding="UTF-8"?><svg id="Layer_2" xmlns="http://www.w3.org/2000/svg" viewBox="0 0 1375 948"><g id="Layer_2-2"><path d="M749,500c0-28,17-49,39-49,12,0,32,13,32,38,0,22-18,39-38,39s-33-12-33-28ZM868,683c0-61,39-122,110-122,29,0,69,21,69,61,0,30-42,77-141,58l-9-12c20,0,98-9,98-51,0-12-11-29-32-29s-50,21-50,62,27,108,89,108c22,0,48-14,48-48,0-7-2-16-5-20,4-4,10-7,15-7s20,4,20,37-37,84-98,84c-70,0-114-60-114-121ZM763,689c0-26-2-68-21-68-6,0-12,2-17,6-3-3-4-6-4-10,0-12,24-44,65-44,13,0,27,8,27,28,0,26-9,67-9,103s4,63,28,63c5,0,12-2,16-4,6,21-19,43-62,43-18,0-28-11-28-23,0-34,5-68,5-94ZM541,643c0-35,47-68,97-68,38,0,61,23,61,44,0,23-14,33-30,33-10,0-21-3-26-9,5-8,6-16,6-22,0-11-8-23-24-23s-26,12-26,30,6,31,44,50c50,25,64,40,64,72,0,46-49,71-93,71s-82-30-82-65c0-20,17-40,37-40,6,0,11,1,17,5-5,12-8,23-8,35,0,17,9,39,39,39,17,0,35-11,35-33s-18-34-50-51-61-33-61-68ZM426,777c15,0,27-11,27-44,0-65-42-112-66-112-18,0-30,15-30,45,0,64,44,111,69,111ZM297,700c0-57,45-111,117-111,39,0,99,30,99,116,0,52-42,108-105,108-52,0-111-36-111-113ZM276,514c-35,0-112-28-151-28-65,0-87,43-87,68,0,39,39,52,58,52s30-9,33-19c0,0-24-6-24-29,0-19,23-37,49-37s70,14,109,14,70-12,70-31c0-15-16-23-38-23-54,0-118,44-118,128,0,74,25,142,25,190s-21,117-81,117c-19,0-56-18-56-74,0-28,22-63,61-62-5-24-27-40-60-40S0,771,0,815c0,61,45,133,132,133,68,0,129-57,129-172,0-61-14-140-14-180,0-49,15-66,29-82ZM1091,191c45-44,56-83,56-116s-17-52-35-52c-33,0-59,37-59,75s21,75,69,123l141,143c34,34,70,80,70,136,0,62-49,149-144,149-29,0-64-19-64-54,0-19,13-42,54-53,10,43,23,66,54,66,17,0,56-10,56-83,0-50-34-85-70-120l-173-174c-25-26-50-59-50-105,0-79,56-126,130-126,26,0,70,12,70,69,0,28-12,78-92,136l-13-14ZM964,379c0-60,34-106,109-171l11,15c-34,33-74,67-74,116,0,31,22,94,105,94,61,0,91-38,121-59s47-76,47-98c0-12-19-35-53-42l2-9c23,2,73,8,140-6l3,8c-23,12-48,17-57,45s-32,98-61,118l-16,15c-34,33-84,84-147,84-77,0-130-50-130-110ZM780,69l-1-7c12-2,92-28,103-34l4,6c-8,14-13,44-13,142s-5,149,5,154,33,12,33,12l-3,10c-29-5-71-10-128-6l-1-9c13-3,27-7,34-12s13-90,13-151,0-91-8-96c-10-7-22-10-38-9ZM688,200c7-17,42-64,66-64,11,0,18,5,23,11l-31,78-6-2c-1-7-11-23-28-23-10,0-23,4-23,4l-1-4ZM598,176l-2-7c21-7,62-22,75-30,17,13,21,23,20,55-1,46-3,52-3,91,0,29,2,34,24,43,8,3,23,5,27,6l-2,10s-75-5-128,10l-2-10c19-7,20-8,26-12s11-7,11-42,0-78-4-92-24-23-42-22ZM442,356c-23,0-56-23-56-50,0-19,12-34,121-84l2,18c-12,6-68,20-68,46,0,22,21,28,33,28s25-12,37-22v5c-17,25-33,39-44,53-7,3-16,6-25,6ZM393,227c-3-2-6-9-6-16,0-35,52-64,96-64,66,0,68,38,68,56s-2,49-2,68,0,41,12,42,17,0,22-1l4,5-27,40c-6,2-11,2-20,2s-41-7-41-33,3-53,3-106c0-18-2-42-37-42-13,0-20,1-26,3-4,5-5,14,2,30-6,5-39,16-48,16ZM182,258l40-43c109,140,260,223,309,223,35,0,68-15,81-22l6,8c-48,39-102,72-120,72-46,0-200-83-316-238ZM173,221s23,0,33-4c9-8,90-76,90-115,0-14-19-25-31-28l-1-9c41,2,93,5,134-1l2,11c-10,5-22,10-37,24-14,14-38,41-50,53-14,13-55,48-89,74l-21,28-9,11s-13-1-21,0v-44ZM48,68c34,0,88-1,136-22l5,7c-11,16-11,43-10,92,1,69-2,104-2,104,0,0,3,58,3,95s-3,66,17,77,39,19,63,23l-1,11c-17-2-86-10-111-10-10,0-49,2-79,10l-3-8c14-7,52-19,53-74s0-88,0-118-2-85-3-106c-1-38-8-57-31-65-7-2-23-6-37-7v-9Z"/></g></svg>