<?xml version="1.0" encoding="UTF-8"?><svg id="Layer_2" xmlns="http://www.w3.org/2000/svg" viewBox="0 0 712 353.54"><g id="Layer_2-2"><path d="M171.25,133.04c13.16,12.34,29.25,18.5,48.25,18.5,20,0,36.83-6,50.5-18,13.66-12,20.5-29,20.5-51,0-15.33-3.42-28.25-10.25-38.75-6.84-10.5-15.5-18.33-26-23.5-10.5-5.16-21.09-7.75-31.75-7.75-11.34,0-22.5,2.84-33.5,8.5-11,5.67-20,13.84-27,24.5-7,10.67-10.5,23.5-10.5,38.5,0,20.34,6.58,36.67,19.75,49ZM184,51.54l13-15,26,23.5,22.5-23,19,13-28.5,28.5,25.5,27-17.5,16-25-26-25.5,28.5-15.5-12.5,30-35-24-25Z"/><polygon points="176 175.54 98.5 94.54 142.5 32.04 107 8.54 51.5 78.54 46.5 6.54 0 16.54 14 212.04 73 135.54 116.5 179.54 176 175.54"/><path d="M349,151.29c11.66,5.5,22.83,8.25,33.5,8.25,17,0,32.16-3.5,45.5-10.5l-10-44c-3.67,2-8.09,3.84-13.25,5.5-5.17,1.67-10.25,2.5-15.25,2.5-10.67,0-19.34-3.08-26-9.25-6.67-6.16-10-13.75-10-22.75,0-12.33,4.58-22.08,13.75-29.25,9.16-7.16,19.75-10.75,31.75-10.75,3.66,0,6.5.17,8.5.5L401,.04c-32-.66-55.67,7.42-71,24.25-15.34,16.84-23,37.92-23,63.25,0,15.34,4.08,28.42,12.25,39.25,8.16,10.84,18.08,19,29.75,24.5Z"/><path d="M454.75,131.54c15.83,11,34.91,16.5,57.25,16.5,12.33,0,24-3.25,35-9.75s19.83-15.33,26.5-26.5c6.66-11.16,10-23.08,10-35.75,0-26.66-7.09-46-21.25-58C548.08,6.04,530.5.04,509.5.04c-28,0-48.09,8-60.25,24-12.17,16-18.25,34.17-18.25,54.5,0,24.34,7.91,42,23.75,53ZM482,50.29c7.33-6.83,16.83-10.25,28.5-10.25,10.66,0,19.16,3.09,25.5,9.25,6.33,6.17,9.5,14.42,9.5,24.75s-3.5,19.42-10.5,26.25c-7,6.84-15.17,10.25-24.5,10.25-10,0-19.09-3.08-27.25-9.25-8.17-6.16-12.25-14.41-12.25-24.75s3.66-19.41,11-26.25Z"/><path d="M489,169.04c0-4-2.67-6-8-6-3,0-6.67,1.34-11,4-1.34-6.33-3.67-10-7-11-.67-.33-1.67-.5-3-.5-4.67,0-8.17,3.34-10.5,10-.34,1-.5,2.67-.5,5,0,4.34,1.16,9.25,3.5,14.75.74,1.74,1.52,3.41,2.33,5.03-2.67.96-6.6,2.2-11.83,3.72l.5,1c4.36-1.02,8.39-2.09,12.1-3.2,1.52,2.92,3.15,5.67,4.9,8.2l1.5-.5-5.11-8.09c9.01-2.78,16.05-5.83,21.11-9.16,7.33-4.83,11-9.25,11-13.25Z"/><path d="M582,210.54c-9.34,0-18.34,2.09-27,6.25-8.67,4.17-18.67,11.25-30,21.25,6.66-10,9.66-18.5,9-25.5,0-3.66-1.34-6.5-4-8.5-2.67-2-5.84-3-9.5-3-9.67,0-18.17,4.59-25.5,13.75-7.34,9.17-12.34,21.09-15,35.75h1.5c1.66-10,5.5-20,11.5-30s12.66-15,20-15c6.33,0,9.5,3.5,9.5,10.5,0,3.34-.84,8.09-2.5,14.25-1.67,6.17-4.84,12.09-9.5,17.75-4.34,5.34-10.67,12.17-19,20.5-9.67,9.67-17.34,18-23,25-10,12-15,20.16-15,24.5,0,2,1,3.66,3,5,2,1.33,4.41,1.33,7.25,0,2.83-1.34,5.25-3.84,7.25-7.5,10.33-19.33,25.83-41.33,46.5-66,10-12,20-20.91,30-26.75,10-5.83,18.33-8.75,25-8.75,7,0,10.5,3.17,10.5,9.5,0,5.34-2.17,11.84-6.5,19.5-4.34,7.67-9,13.67-14,18l-8,7c-9.34,8-16.5,15.17-21.5,21.5-5,6.34-7.5,13.34-7.5,21,0,4.66,1.5,8.33,4.5,11,3,2.66,6.83,4,11.5,4,5.33,0,10.66-1.34,16-4,5.33-2.67,10-6.5,14-11.5l-.5-1c-7.34,8.33-14.5,12.5-21.5,12.5-3.67,0-6.5-1.09-8.5-3.25-2-2.17-3-5.09-3-8.75,0-5.33,2.66-11.66,8-19,5.33-7.33,11.5-14,18.5-20,11-9.66,19.25-18.5,24.75-26.5s8.25-14.66,8.25-20c0-9-5.17-13.5-15.5-13.5Z"/><path d="M429,311.79c-6,4.16-11.84,6.25-17.5,6.25-4,0-7.09-.92-9.25-2.75-2.17-1.84-3.25-3.92-3.25-6.25,0-8.66,7.66-21.5,23-38.5,24.33-27,36.5-44.66,36.5-53s-5.5-12.5-16.5-12.5c-10.34,0-19.17,3.34-26.5,10-7.34,6.67-13,15.17-17,25.5l1,.5c10.33-22.66,23.33-34,39-34,4.66,0,7,2,7,6,0,3.67-2.09,9.09-6.25,16.25-4.17,7.17-13.09,19.25-26.75,36.25-11,13.67-18.42,23.42-22.25,29.25-3.84,5.84-5.75,11.25-5.75,16.25,0,4.66,2.25,7.83,6.75,9.5,4.5,1.66,8.58,2.5,12.25,2.5,6.66,0,14.08-2.42,22.25-7.25,8.16-4.84,14.25-11.41,18.25-19.75l-1-.5c-3.34,6.67-8,12.08-14,16.25Z"/><path d="M688.5,212.54c-18.34,0-34.67,5.59-49,16.75-14.34,11.17-25.5,24.25-33.5,39.25s-12,27.34-12,37c0,8.33,2.58,14.66,7.75,19,5.16,4.33,11.91,6.5,20.25,6.5,10.66,0,21.08-3.92,31.25-11.75,10.16-7.84,15.41-16.58,15.75-26.25h-1c0,4-1.84,8.67-5.5,14-3.67,5.33-8.59,9.91-14.75,13.75-6.17,3.83-12.92,5.75-20.25,5.75-6.34,0-10.84-1.75-13.5-5.25-2.67-3.5-4-8.92-4-16.25,0-15.33,4.75-29.91,14.25-43.75,2.18-3.17,4.43-6.2,6.76-9.11,10.92,6.9,22.42,10.36,34.49,10.36,12.66,0,23.58-3.33,32.75-10,9.16-6.66,13.75-13.83,13.75-21.5,0-12.33-7.84-18.5-23.5-18.5ZM687.5,251.04c-7,5.34-14.84,8-23.5,8-7,0-12.59-.33-16.75-1-3.7-.59-9.05-2.63-16.04-6.12,7.77-9.67,16.36-17.88,25.79-24.63,12.33-8.83,21.66-13.25,28-13.25,4.66,0,8,1.5,10,4.5s3,6.67,3,11c0,9-3.5,16.17-10.5,21.5Z"/><path d="M104.5,215.04c13-7.66,26-11.5,39-11.5,2.33,0,5.83.34,10.5,1l1-1c-3-1-6.84-1.5-11.5-1.5-13.67,0-27,4-40,12l1,1Z"/><path d="M382.25,215.29c-1.5-.83-3.42-1.25-5.75-1.25-5.34,0-11.84,5.67-19.5,17-6.14,9.07-11.95,18.58-17.44,28.5h-.06c-3,6-8.34,12.92-16,20.75-7.67,7.84-15.75,14.59-24.25,20.25s-15.59,8.5-21.25,8.5c-5,0-8.5-1.34-10.5-4s-3-6.5-3-11.5c0-14,6.08-28.33,18.25-43,12.16-14.66,26.16-27,42-37,15.83-10,27.75-15,35.75-15,5.33,0,9.91.5,13.75,1.5,3.83,1,7.75,2.25,11.75,3.75s6.66,2.25,8,2.25c3,0,4.5-1.16,4.5-3.5,0-2-2.5-3.58-7.5-4.75-5-1.16-10.17-1.75-15.5-1.75-26,0-48.67,6-68,18-19.34,12-34.25,26-44.75,42s-15.75,29-15.75,39c0,6.67,1.75,11.75,5.25,15.25s8.41,5.25,14.75,5.25c10.66,0,23.66-5.92,39-17.75,10.85-8.37,19.95-17.21,27.29-26.51-3.05,5.68-6.32,10.94-9.79,15.76-5.67,8.34-9.17,13.84-10.5,16.5-1.67,3-2.5,5.83-2.5,8.5,0,4.33,1.91,7.58,5.75,9.75,3.83,2.16,7.41,3.25,10.75,3.25,8.66,0,16.75-4.25,24.25-12.75,7.5-8.5,12.75-18.08,15.75-28.75l-1-.5c-3.34,10.67-7.92,19.5-13.75,26.5-5.84,7-11.92,10.5-18.25,10.5-6,0-9-3-9-9,0-4,4.16-13.16,12.5-27.5,8.33-14.33,16.5-27.16,24.5-38.5,3.66-5.33,7.33-9.83,11-13.5l8.5-8.5c2-2,3-3.5,3-4.5,0-1.33-.75-2.41-2.25-3.25Z"/><path d="M222,257.04c-2.67,0-4.34,1.09-5,3.25-.67,2.17-.84,5.09-.5,8.75.33,3.67.5,7.34.5,11,0,13.67-3.42,25.91-10.25,36.75-6.84,10.83-15.17,19.25-25,25.25-9.84,6-19.09,9-27.75,9-11.34,0-20-3.25-26-9.75s-9-17.25-9-32.25c0-24.66,9.41-48,28.25-70,18.83-22,40.91-39.83,66.25-53.5,25.33-13.66,46-20.5,62-20.5,8,0,14.5,1.34,19.5,4,5,2.67,7.5,6.5,7.5,11.5,0,8.67-6.92,15.75-20.75,21.25-13.84,5.5-29.75,8.59-47.75,9.25-15.34,0-28.34-.83-39-2.5l-.5,1.5c13.33,1.67,24.66,2.5,34,2.5,15.33,0,28.75-1.58,40.25-4.75,11.5-3.16,20.25-7.25,26.25-12.25s9-10.16,9-15.5-2.75-9.75-8.25-13.25-12.92-5.25-22.25-5.25c-27,0-54,7.84-81,23.5-27,15.67-49.09,35.25-66.25,58.75-17.17,23.5-25.75,45.75-25.75,66.75,0,15.33,4.25,26.33,12.75,33,8.5,6.66,19.91,10,34.25,10s27.33-4.17,40-12.5c12.66-8.34,22.83-19.17,30.5-32.5,7.66-13.33,11.5-27,11.5-41,0-7-2.5-10.5-7.5-10.5Z"/></g></svg>