<?xml version="1.0" encoding="UTF-8"?><svg id="Layer_2" xmlns="http://www.w3.org/2000/svg" viewBox="0 0 1097.5 454.5"><g id="Layer_2-2"><path d="M539,62c2.33,0,6.41-3.5,12.25-10.5,5.83-7,8.75-11.5,8.75-13.5,0-2.66-1-4-3-4-3.34,0-7.75,3.25-13.25,9.75s-8.25,11.25-8.25,14.25c0,2.67,1.16,4,3.5,4Z"/><path d="M136,292.25c-5.67-3.99-11.95-6.44-18.81-7.34,4-1.08,7.86-2.95,11.56-5.66,6.16-4.5,9.25-10.41,9.25-17.75,0-9.33-3.5-15.91-10.5-19.75-7-3.83-15.67-5.75-26-5.75h-58.5v109h61c13.33,0,23.83-2.83,31.5-8.5,7.66-5.66,11.5-13.5,11.5-23.5,0-8.66-3.67-15.58-11-20.75ZM92,251.5c8,0,14.25,1,18.75,3s6.75,6,6.75,12c0,5.34-2,9.25-6,11.75s-10.34,3.75-19,3.75h-29v-30.5h28.5ZM103,329.5h-39.5v-33.5h38c6.66,0,12.33,1.34,17,4,4.66,2.67,7,7.34,7,14,0,10.34-7.5,15.5-22.5,15.5Z"/><polygon points="850 329.5 785.5 329.5 785.5 295.5 824.5 295.5 824.5 281.5 785.5 281.5 785.5 251.5 846 251.5 846 236 785.5 236 765 236 765 345 770 345 785.5 345 850 345 850 329.5"/><path d="M1093,235.5c-3,0-6.5.5-10.5,1.5l-21.5,5c-22,4.67-38.25,8-48.75,10s-22.59,3.5-36.25,4.5l5-19,2-6.5c31.33-24.66,47-43.66,47-57,0-3.33-.92-6-2.75-8-1.84-2-4.25-3-7.25-3-15,0-29.5,21.67-43.5,65-11.67,9-25.17,18.5-40.5,28.5-4.34-8.66-9.59-14.83-15.75-18.5-6.17-3.66-11.59-5.5-16.25-5.5-5.67,0-10,1.09-13,3.25-3,2.17-4.5,4.59-4.5,7.25,0,11,13.5,17.5,40.5,19.5l-11,7c-3,1.67-5.09,3-6.25,4-1.17,1-1.75,2-1.75,3,0,1.34,1.66,1.59,5,.75,3.33-.83,9.5-4.25,18.5-10.25,5,11,8.5,24.17,10.5,39.5-22,14.34-41.25,28.59-57.75,42.75s-29.75,26.41-39.75,36.75c-9,9.33-17.17,19.58-24.5,30.75-7.34,11.16-12.5,19.75-15.5,25.75-3.67,8-4.84,12-3.5,12s3.16-2.17,5.5-6.5c18.33-28,38.25-52.67,59.75-74,21.5-21.34,47.08-41.33,76.75-60,.66,6.34,1,16.17,1,29.5,0,9.66,1.5,14.5,4.5,14.5,1.33,0,2.66-1.59,4-4.75,1.33-3.17,2.33-6.59,3-10.25l9.5-42c25.66-14.66,55.16-29.16,88.5-43.5l30.5-12.5c9-3.33,13.5-5.66,13.5-7,0-1.66-1.5-2.5-4.5-2.5ZM999.5,190.75c4.33-7.16,8.25-12.08,11.75-14.75,3.5-2.66,5.91-4,7.25-4,2,0,3,1.17,3,3.5,0,10-11.67,24.84-35,44.5,4.33-12.33,8.66-22.08,13-29.25ZM960,248l13.5-10-5,19-13.5.5h-8.5l13.5-9.5ZM895,244c0-2,.75-3.41,2.25-4.25,1.5-.83,2.91-1.25,4.25-1.25,9.66,0,17.83,6,24.5,18-20.67-2-31-6.16-31-12.5ZM939,263.5h16.5l11.5-.5-7.5,32.5-12,7c-1.67-14.66-4.5-27.66-8.5-39ZM950.5,340c0-10.33-.67-20.16-2-29.5l9-5-7,34.5ZM967.5,291l7-28.5c20.33-1.66,46.33-5.5,78-11.5-28.67,10-57,23.34-85,40Z"/><polygon points="262 236 262 345 282.5 345 282.5 298.5 328 298.5 328 283 282.5 283 282.5 251.5 343 251.5 343 236 282.5 236 262 236"/><polygon points="182.5 295.5 221.5 295.5 221.5 281.5 182.5 281.5 182.5 251.5 243 251.5 243 236 182.5 236 162 236 162 345 167 345 182.5 345 247 345 247 329.5 182.5 329.5 182.5 295.5"/><path d="M725.5,326c-5.34,2.34-11.5,3.5-18.5,3.5-12.34,0-22.25-3.33-29.75-10-7.5-6.66-11.25-16-11.25-28,0-12.66,3.91-22.58,11.75-29.75,7.83-7.16,17.25-10.75,28.25-10.75s21.83,3,32.5,9l9-16.5c-12.34-6.66-25.5-10-39.5-10-18,0-33.09,5.25-45.25,15.75-12.17,10.5-18.25,25.25-18.25,44.25,0,18,5.83,31.5,17.5,40.5,11.66,9,25.66,13.5,42,13.5,10,0,18.58-1.42,25.75-4.25,7.16-2.83,13.91-6.41,20.25-10.75l-8-15c-5.67,3.34-11.17,6.17-16.5,8.5Z"/><path d="M681.5,188.5c3.96-4.36,6.74-9.2,8.35-14.51,3.34-.99,6.56-2.07,9.65-3.24,16.33-6.16,28.83-12.58,37.5-19.25.31-.24.61-.47.91-.71-4.6,9.94-6.91,20-6.91,30.21,0,6,1.33,10.67,4,14,2.66,3.34,6.33,5,11,5,6.66,0,15.41-4.91,26.25-14.75,5.17-4.69,10.67-10.68,16.49-17.92-1.48,4.93-2.24,9.17-2.24,12.67,0,17,10,25.5,30,25.5,10.33,0,20-2.5,29-7.5s16.25-11.58,21.75-19.75c5.5-8.16,8.25-16.75,8.25-25.75,0-14-5.17-22.16-15.5-24.5l-.5,1c5.66,2.34,9.5,5.42,11.5,9.25,2,3.84,3,8.75,3,14.75,0,5.67-2.09,12.59-6.25,20.75-4.17,8.17-10.59,15.25-19.25,21.25-8.67,6-19.34,9-32,9-6.34,0-11.75-2.66-16.25-8-4.5-5.33-6.75-13-6.75-23,0-4.66.33-8.5,1-11.5.19-.86.39-1.66.59-2.41,4.46-6.01,9.09-12.7,13.91-20.09,2-2.33,4.41-5.83,7.25-10.5,2.83-4.66,4.25-8,4.25-10,0-1.33-.5-2-1.5-2-2.34,0-6.17,4-11.5,12-5.34,8-10.17,17.09-14.5,27.25-1.15,2.69-2.13,5.22-2.97,7.61-4.66,6.05-9.83,11.93-15.53,17.64-9.67,9.67-17,14.5-22,14.5-7.34,0-11-7.16-11-21.5,0-6,2.75-15.08,8.25-27.25,5.5-12.16,12.5-23,21-32.5s17.08-14.25,25.75-14.25c3.33,0,7.16.84,11.5,2.5,4.33,1.67,7.5,2.5,9.5,2.5,3,0,4.83-.33,5.5-1s1-1.66,1-3c0-1.66-1.34-3.25-4-4.75-2.67-1.5-7.5-2.25-14.5-2.25-8.34,0-18.5,4.25-30.5,12.75s-22.34,19.5-31,33c-1.38,2.14-2.63,4.29-3.79,6.45-12.38,10.78-28.94,19.17-49.66,25.16.63-2.82.95-5.77.95-8.85,0-2.66-.5-5.91-1.5-9.75-1-3.83-2-7.41-3-10.75-3-8.33-4.5-14.83-4.5-19.5,0-4,.41-7.33,1.25-10,.83-2.66,2.25-5,4.25-7,1.66-1.66,3.83-2.5,6.5-2.5l8.5,1c4.66,0,7-1.5,7-4.5,0-3.33-2.67-5-8-5s-10.67,3-16,9c-15,16.34-34.84,33.25-59.5,50.75-9.34,6.62-18.92,11.97-28.73,16.04.48-2.5.73-5.09.73-7.79s-.5-5.91-1.5-9.75c-1-3.83-2-7.41-3-10.75-3-8.33-4.5-14.83-4.5-19.5,0-4,.41-7.33,1.25-10,.83-2.66,2.25-5,4.25-7,1.66-1.66,3.83-2.5,6.5-2.5l8.5,1c4.66,0,7-1.5,7-4.5,0-3.33-2.67-5-8-5s-10.67,3-16,9c-29,33-51.17,56.67-66.5,71-15.34,14.34-28,21.5-38,21.5-2.34,0-4.5-1.08-6.5-3.25-2-2.16-3-5.75-3-10.75,0-9.11.55-17.02,1.62-23.77,7.89-9.53,15.43-19.6,22.62-30.23,12.16-18,18.25-28.5,18.25-31.5,0-1.66-.67-2.5-2-2.5-3,0-8.5,5.75-16.5,17.25s-15.17,24.42-21.5,38.75c-1.07,2.42-2.04,4.76-2.93,7.02-9.6,11.39-18.79,20.72-27.57,27.98-9.67,8-17.5,12-23.5,12s-10.09-1.83-12.25-5.5c-2.17-3.66-3.25-9.5-3.25-17.5,0-11.94,3.58-26.71,10.72-44.31,6.71-3.71,16.46-12.18,29.28-25.44,14.66-15.16,27.83-31.5,39.5-49,11.66-17.5,17.5-31.58,17.5-42.25,0-5.66-2-8.5-6-8.5-5.34,0-16.42,9.75-33.25,29.25-16.84,19.5-32,42.17-45.5,68-5.55,10.62-9.94,20.89-13.21,30.81-5.11,1.32-10.86,2.48-17.29,3.44-8.84,1.34-15.75,2-20.75,2-4.34,0-8.51-.21-12.54-.6,1.2-.57,2.38-1.19,3.54-1.9,6-3.66,10.83-8,14.5-13,3.66-5,5.5-9.5,5.5-13.5,0-5-1.67-8.75-5-11.25-3.34-2.5-7.34-3.75-12-3.75-10.67,0-20.75,4.59-30.25,13.75-9.5,9.17-17.17,19.92-23,32.25-5.84,12.34-8.75,22.5-8.75,30.5,0,1.2.06,2.37.15,3.51-2.82,3.41-8.53,6.99-17.15,10.74-10.34,4.5-23.17,6.75-38.5,6.75-4.63,0-8.27-.16-10.93-.49,11.41-11.3,20.22-23.47,26.43-36.51,6.66-14,13.33-31.83,20-53.5,5.33-17.33,10.16-31.16,14.5-41.5,4.33-10.33,10.58-20.08,18.75-29.25,8.16-9.16,18.91-16.41,32.25-21.75v-1c-16.34,3-30.59,8.42-42.75,16.25-12.17,7.84-22.59,16.59-31.25,26.25-8.67,9.67-19.17,22.84-31.5,39.5-12,16-22.34,29.09-31,39.25-8.67,10.17-19.25,20.25-31.75,30.25-9.79,7.83-20.77,14.62-32.9,20.41,11.89-7.36,21.28-15.66,28.15-24.91,8.66-11.66,14.5-23.41,17.5-35.25,3-11.83,5.33-26.58,7-44.25,1.66-13.66,3.33-24.66,5-33,1.66-8.33,4.83-16.08,9.5-23.25,4.66-7.16,11.5-13.08,20.5-17.75V0c-37,3-67.92,10-92.75,21-24.84,11-43.17,24.42-55,40.25-11.84,15.84-17.75,32.75-17.75,50.75v3h1.5v-1.5c0-28,13.5-52.08,40.5-72.25C139.76,21.64,179.42,8.25,232.48,1.09c-10.04,2.84-19.7,8.39-28.98,16.66-10.67,9.5-20.42,20.5-29.25,33-8.84,12.5-19.59,29.09-32.25,49.75-13.67,21.67-25,38.75-34,51.25s-19,23.09-30,31.75c-11,8.67-22.34,13-34,13-27.67,0-41.84-15.66-42.5-47H0c0,17.67,4.33,30.17,13,37.5,8.66,7.34,18.83,11,30.5,11,13.66,0,26.33-4.5,38-13.5,11.66-9,22.16-20,31.5-33,9.33-13,20.66-30.5,34-52.5,17.33-29.33,32.58-52,45.75-68,11.53-14.01,24.27-23.42,38.22-28.23-8.46,4.33-15.2,9.82-20.22,16.48-6.17,8.17-10.42,17-12.75,26.5-2.34,9.5-4.67,22.09-7,37.75-2.67,16.67-5.34,30.42-8,41.25-2.67,10.84-7.5,21.5-14.5,32s-16.84,19.59-29.5,27.25l.5,1c16.66-6.33,31.41-14.41,44.25-24.25,12.83-9.83,23.75-20.08,32.75-30.75,9-10.66,19.5-24,31.5-40,12.33-16.66,22.75-29.83,31.25-39.5,8.5-9.66,18.66-18.33,30.5-26,9.86-6.39,20.96-11.13,33.25-14.28-13.92,5.52-25.42,13.03-34.5,22.53-10.67,11.17-18.75,23.17-24.25,36-5.5,12.84-11.25,29.42-17.25,49.75-4.67,16-9.17,29.67-13.5,41-4.34,11.34-9.84,21.84-16.5,31.5-8-1-13.34-1.5-16-1.5-6.34,0-9.5,1.5-9.5,4.5s3.33,4.5,10,4.5c3.66,0,6.5-.41,8.5-1.25,2-.83,4-2.08,6-3.75.33-.31.65-.63.98-.95l8.52.45c12,0,24-1.58,36-4.75,10.27-2.71,18.21-6.83,23.84-12.34.72,5.65,2.6,10.52,5.66,14.59,4,5.34,10.5,8,19.5,8,9.66,0,18-3.66,25-11,7-7.33,11.33-15.83,13-25.5l-1.5-.5c-2.34,11-6.75,19.59-13.25,25.75-6.5,6.17-13.92,9.25-22.25,9.25-4.67,0-8.5-2.08-11.5-6.25-3-4.16-4.5-9.58-4.5-16.25,0-12.33,3.33-24.5,10-36.5,6.66-12,14.41-21.91,23.25-29.75,8.83-7.83,15.75-11.75,20.75-11.75,3,0,5.16,1.17,6.5,3.5,1.33,2.34,2,5,2,8,0,5-2,10.59-6,16.75-3.61,5.57-8.46,9.83-14.51,12.82-.83-.1-1.67-.2-2.49-.32-5.67-.83-9.67-1.41-12-1.75-3,0-4.5.84-4.5,2.5,0,1,.66,1.84,2,2.5,1.33.67,2.66,1,4,1,4.78,0,9.32-.87,13.64-2.58,3.15.39,7.26.58,12.36.58,7.33,0,16.16-.83,26.5-2.5,5.58-.9,10.09-1.7,13.53-2.41-4.35,13.64-6.53,26.61-6.53,38.91,0,7.67,2,14,6,19s9.83,7.5,17.5,7.5c10,0,22.08-7.41,36.25-22.25,4.24-4.44,8.38-9.04,12.45-13.77-2.79,8.25-4.2,15.27-4.2,21.02s1.58,10,4.75,12c3.16,2,6.08,3,8.75,3h.5c10,0,21.41-5.75,34.25-17.25,12.83-11.5,30.25-29.25,52.25-53.25l14.46-15.94c-.67,1.14-1.32,2.36-1.96,3.69-2,4.17-3,8.59-3,13.25,0,5,1.5,11.67,4.5,20,2.66,9.34,4,16,4,20,0,1.05-.05,2.08-.14,3.08-13.83,4.77-28.11,7.1-42.86,6.92l-.12.5h-.38c-.67,0-1.75.42-3.25,1.25-1.5.84-2.25,2.25-2.25,4.25,0,3,1.66,6,5,9,3.33,3,8.16,4.5,14.5,4.5,11.66,0,20.83-3.66,27.5-11,4.69-5.16,7.73-10.99,9.12-17.48,4.99-1.99,9.87-4.25,14.63-6.77,19.83-10.5,34.5-20.08,44-28.75,7.25-6.61,15.52-14.69,24.81-24.21-1.06,1.6-2.08,3.42-3.06,5.46-2,4.17-3,8.59-3,13.25,0,5,1.5,11.67,4.5,20,2.66,9.34,4,16,4,20,0,1.13-.06,2.23-.17,3.3-12.96,3.26-27.4,5.66-43.33,7.2-.67,0-1.75.42-3.25,1.25-1.5.84-2.25,2.25-2.25,4.25,0,3,1.66,6,5,9,3.33,3,8.16,4.5,14.5,4.5,11.66,0,20.83-3.66,27.5-11ZM431.25,110.75c12.83-26.16,26.91-50.16,42.25-72,15.33-21.83,25.16-32.75,29.5-32.75,1.33,0,2.41.67,3.25,2,.83,1.34,1.25,3,1.25,5,0,7.67-5.09,19.67-15.25,36-10.17,16.34-22.25,32.34-36.25,48-12.03,13.46-22.7,23.34-32.02,29.66,2.14-5.08,4.55-10.38,7.27-15.91ZM581.75,190.25c-5.84,5.17-12.09,7.75-18.75,7.75-4,0-6.67-1.25-8-3.75-1.25-2.34-2.79-6.51-4.61-12.48,13.98-1.05,27.28-3.73,39.9-8.04-.76,6.64-3.6,12.15-8.53,16.52ZM648,194.25c-1.25-2.33-2.78-6.5-4.61-12.47,14.6-.99,27.79-2.96,39.57-5.91-1.08,5.69-3.82,10.49-8.22,14.38-5.84,5.17-12.09,7.75-18.75,7.75-4,0-6.67-1.25-8-3.75Z"/><polygon points="376.5 236 353.5 236 353.5 251.5 376.5 251.5 376.5 329.5 353.5 329.5 353.5 345 376.5 345 397 345 420 345 420 329.5 397 329.5 397 251.5 420 251.5 420 236 397 236 376.5 236"/><path d="M622,288.25c7.33-6.5,11-13.75,11-21.75,0-10-3.42-17.58-10.25-22.75-6.84-5.16-15.09-7.75-24.75-7.75h-58v109h20.5v-46h22.5l29.5,46h25l-33.12-48.22c6.99-1.48,12.87-4.32,17.62-8.53ZM589.5,251.5c7.33,0,13,1.09,17,3.25,4,2.17,6,6.25,6,12.25,0,5.34-1.75,9.67-5.25,13-3.5,3.34-8.09,5-13.75,5h-33v-33.5h29Z"/><polygon points="460 295.5 499 295.5 499 281.5 460 281.5 460 251.5 520.5 251.5 520.5 236 460 236 439.5 236 439.5 345 444.5 345 460 345 524.5 345 524.5 329.5 460 329.5 460 295.5"/></g></svg>