<?xml version="1.0" encoding="UTF-8"?><svg id="Layer_2" xmlns="http://www.w3.org/2000/svg" viewBox="0 0 1839 666.33"><g id="Layer_2-2"><path d="M1490,529.28c0-29,8-32,23-42v-20h-81v20c12,4,23,13,23,42v59c0,28,8,77,81,77,79,0,82-60,82-99v-32c0-34,6-37,20-47v-20h-72v20c11,4,22,18,22,47v34c0,29,1,68-49,68-32,0-49-16-49-53v-54ZM1700,601.28c78-9,127-31,127-77,0-27-11-57-72-57h-94v20c16,4,22,13,22,42v74c0,20,0,34-26,39v20h95v-20c-26-3-33-10-33-41v-95c0-16-3-16,25-16s44,13,44,38c0,28-17,47-88,51v22ZM1318,460.28c-79,0-111,56-111,104s31,102,108,102,106-58,106-106-23-100-103-100ZM1316,638.28c-33,0-70-20-70-75,0-45,25-76,71-76,29,0,66,21,66,76,0,45-28,75-67,75ZM1092,579.28l54,83h53v-20c-8-3-30-11-40-24l-37-51-30,12ZM1038,596.28c78-5,137-30,137-77,0-29-15-52-76-52h-99v20c16,4,22,13,22,42v74c0,20,0,34-26,39v20h84v-20c-16-3-23-10-23-41v-85c0-17,2-25,34-25,23,0,47,7,47,34,0,34-34,49-100,51v20ZM759,562.28c0,50,31,103,107,103,35,0,67-13,95-32v-68h-66v21c23,4,32,12,32,36-11,7-30,13-51,13-38,0-75-19-75-74,0-45,28-73,66-73,26,0,47,8,62,36h32v-58h-22l-9,16c-19-14-34-22-67-22-67,0-104,54-104,102ZM1615,216.28h167v-34h-168l1,34ZM1839,35.28V14.28h-100v21c16,4,27,17,27,46v279c0,34-8,36-28,46v21h100v-21c-16-4-27-17-27-46V81.28c0-34,8-36,28-46ZM1664,35.28V14.28h-100v21c16,4,27,17,27,46v279c0,34-8,36-28,46v21h100v-21c-16-4-27-17-27-46V81.28c0-34,8-36,28-46ZM1531,14.28h-241l-5,104,26,2c4-21,10-80,46-80,24,0,31-3,31,21v305c0,31-34,36-60,39v22h165v-22c-26-3-60-8-60-39V61.28c0-24,7-21,31-21,36,0,42,59,46,80l26-2-5-104ZM1084,291.28c103-32,181-65,181-166,0-72-32-111-117-111h-107v21c16,4,27,17,27,46v287c0,20-10,32-36,37v22h141v-22c-26-3-60-8-60-39V56.28c0-13,9-17,20-17,50,0,87,22,87,94,0,64-40,104-136,126v32ZM811,301.28V81.28c0-34,8-36,28-46V14.28h-100v21c16,4,27,17,27,46v220c0,58,17,126,110,126,82,0,105-65,105-124V81.28c0-34,8-36,28-46V14.28h-95v21c16,4,27,17,27,46v212c0,59-7,95-62,95-33,0-68-22-68-87ZM344,308.28c14-12,25-36,28-46-15,21-29,33-45,37-9-8-11-14-15-25-15,5-20,17-20,24,0,25,30,29,52,10ZM314,224.28c5-17,72-62,95-70-8,25-59,48-75,57s-12,7-20,13ZM366,598.28c48-16,65-22,102-12s66,41,66,41c-27-12-58-31-91-33-18-1-27-3-77,4ZM115,480.28c20,26,39,45,58,58,67-10,75-9,120-19-28,30-99,29-115,31-36-10-54-43-63-70ZM58,373.28c50-30,142-81,172-101,14-32,49-90,56-137,2,65-57,155-57,155-113,71-212,98-171,83ZM461,77.28c-8,28-19,70,26,112-17-36-30-53-26-112ZM191,448.28c-8-3-57-33-39-57,16-22,54-46,72-56-19,16-24,23-46,49s0,47,13,64ZM350,438.28c16,14,35,56,45,71,9-10,43-30,132,20-29-33-80-56-103-56-16,0-27,6-34,13-18-33-26-45-40-48ZM7,7.28C9,101.28,0,171.28,0,251.28s4,176,3,253,1,157,1,157l24,2c47-1,160-3,288-7s307,11,342,10c-2-54,0-171,3-256s-2-153,3-256c0-45,10-127,7-153l-65-1c-80-1-62,7-222,3C324-.72,112-2.72,7,7.28ZM170,494.28s-47-64-52-96c23-26,75-64,127-90,27-39,37-63,61-101,36-30,56-47,94-72-3-16-6-69,57-95l1,5s-50,19-44,83l7-2c-1-6,0-14,5-23,1,30,3,59,23,73-11-23-13-54-13-60,0-26,10-77,63-77,45,0,56,44,52,86l7,2c8-41,6-41,8-54,8-1,15-1,22,3,4,8-10,286-26,414,20-93,30-158,39-237,12-116-11,229-8,293,7-15,11-97,11-97v159l3,29c-61-61-142-105-178-105-20,0-38,11-48,23-6-34-32-62-52-70,9-9,12-13,24-23-67,36-183,32-183,32Z"/></g></svg>