<?xml version="1.0" encoding="UTF-8"?><svg id="Layer_2" xmlns="http://www.w3.org/2000/svg" viewBox="0 0 878 481.02"><g id="Layer_2-2"><path d="M236.5,134.52c.33,1.67.5,3.34.5,5,9.66-2,20-3,31-3,4.33,0,10.16.34,17.5,1,.66-4.66.16-8.08-1.5-10.25-1.67-2.16-6.5-3.08-14.5-2.75V53.52l-32.5,6c.33,4,1.16,6.84,2.5,8.5,1.33,1.67,3.16,2.5,5.5,2.5,2.66,0,5.66-.5,9-1.5-.34,9.67-.34,20.5,0,32.5.33,12,.66,19.84,1,23.5-7,.34-11.84,1.25-14.5,2.75-2.67,1.5-4,3.75-4,6.75Z"/><path d="M668.5,375.02l-4,.5c-.34,11.66-2.84,22-7.5,31-4.67,9-9.5,15.16-14.5,18.5-10.34-4-18.75-7.84-25.25-11.5-6.5-3.67-13.92-8.5-22.25-14.5,3-16,4.5-30.5,4.5-43.5,0-11.66-1-24.16-3-37.5,25.66,7.34,46.16,15.5,61.5,24.5,16.33-32.66,24.5-59,24.5-79,0-6-.67-11-2-15l-3.5,1c.33,2,.5,4.67.5,8,0,10.67-3.34,19.84-10,27.5l-65.5-20.5c-15.34,22.34-35.84,43.5-61.5,63.5,3.33,12.67,5.75,27.17,7.25,43.5s1.91,30.5,1.25,42.5l-7.5,12c5.33,4.33,17.25,12.33,35.75,24,18.5,11.66,32.58,19.66,42.25,24,6.66-7.67,13.16-15.84,19.5-24.5l13-18c8-10.67,12.83-20.17,14.5-28.5,1.66-8.34,2.33-17.67,2-28Z"/><path d="M562.75,122.27c-2.5,1.84-3.75,5.42-3.75,10.75l24-.5c7.33,0,14.16.5,20.5,1.5.33-1,.5-2.5.5-4.5,0-8.33-5.34-12.16-16-11.5l-.5-18c0-6.66.5-13.16,1.5-19.5.66-6.66,2.33-12.41,5-17.25,2.66-4.83,6.33-7.25,11-7.25,1.66,0,3.16.67,4.5,2,1.33,1.34,2.91,2.67,4.75,4,1.83,1.34,4.25,2,7.25,2,2.33,0,4.33-.83,6-2.5s2.5-4,2.5-7-1.17-5.58-3.5-7.75c-2.34-2.16-5.34-3.25-9-3.25-5.34,0-11.25,2.34-17.75,7-6.5,4.67-10.75,12-12.75,22l1.5-28.5-29,1c.33,2.34.75,4.67,1.25,7,.5,2.34,1.75,4,3.75,5s5.33,1.5,10,1.5c-.34,5.34-.5,12.34-.5,21s.16,14.67.5,18c0,3.67.08,7.25.25,10.75.16,3.5.08,7.09-.25,10.75-5.34.34-9.25,1.42-11.75,3.25Z"/><path d="M678,28.52c4-.33,7.25-1.91,9.75-4.75,2.5-2.83,3.58-6.75,3.25-11.75,0-2.66-1.17-5-3.5-7-2.34-2-5-3-8-3-4.34,0-7.92,1.5-10.75,4.5-2.84,3-4.09,6.5-3.75,10.5,1,7.67,5.33,11.5,13,11.5Z"/><path d="M707.75,145.77c3.83,3.84,10.25,5.59,19.25,5.25,6,0,11.66-1.66,17-5,3.8-2.37,7.13-4.84,10-7.39.02,5.62,1.34,10.59,4,14.89,2.66,4.34,6.5,6.5,11.5,6.5,4,0,8-1.08,12-3.25,4-2.16,6-5.41,6-9.75l-1-5c-3,2.34-6,3.5-9,3.5-4,0-6-2.83-6-8.5,0-4.33,2-13.83,6-28.5l3-11.5c1-4,1.5-7.83,1.5-11.5,0-8.33-2.75-14.58-8.25-18.75-5.5-4.16-13.09-6.25-22.75-6.25-9,0-16.67,1.42-23,4.25-6.34,2.84-10.17,7.25-11.5,13.25-.34,1-.5,2.5-.5,4.5,0,2.67.75,4.75,2.25,6.25s3.58,2.25,6.25,2.25c7.66,0,11.5-4.66,11.5-14,0-6,4.33-9,13-9,12.33,0,18.5,5.5,18.5,16.5,0,3.68-.95,8.95-2.83,15.77-16.94,1.65-29.92,3.89-38.92,6.73-9.5,3-15.92,6.5-19.25,10.5-3.34,4-4.84,9.17-4.5,15.5,0,4.67,1.91,8.92,5.75,12.75ZM731.25,113.27c8.05-2.89,18.54-5.01,31.46-6.37-.8,2.54-1.7,5.25-2.71,8.12-3.34,8-5.17,14-5.5,18-.11.43-.19.94-.27,1.48-1.01.76-2.08,1.52-3.23,2.27-4.34,2.84-9.17,4.25-14.5,4.25-6.34.34-10.92-.41-13.75-2.25-2.84-1.83-4.42-4.75-4.75-8.75,0-8,4.41-13.58,13.25-16.75Z"/><path d="M684.5,144.02c1-2.66,1.5-4.83,1.5-6.5,0-2.33-.92-4.25-2.75-5.75-1.84-1.5-4.92-2.91-9.25-4.25,1.66-9.33,3.58-22.5,5.75-39.5,2.16-17,3.58-28.33,4.25-34-9.34-.66-17.17-1.5-23.5-2.5l-11.5-1.5-.5,6c0,3.34,1.16,5.84,3.5,7.5,2.33,1.67,7,2.67,14,3l-6.5,59.5c-4-.66-7.17-1-9.5-1-9,0-13.34,3.67-13,11,22.33,2,38.16,4.67,47.5,8Z"/><path d="M477.5,152.52c-19,0-35.17,6.67-48.5,20-.34.34-.5.67-.5,1s.5.17,1.5-.5c8.33-6.33,17-10.83,26-13.5,9-2.66,16.66-4,23-4,12.66,0,26.08,1.84,40.25,5.5,14.16,3.67,29.58,8.5,46.25,14.5,9.01,3.19,16.06,5.48,21.16,6.88-1.47,2.67-2.86,5.45-4.16,8.37-2.73,6.13-4.32,11.41-4.81,15.87-4.21,3.63-8.85,6.76-13.94,9.38-5.84,3-10.75,4.5-14.75,4.5-4.67,0-7-2.66-7-8s1.91-10.25,5.75-14.75c3.83-4.5,7.41-6.75,10.75-6.75,2.33,0,3.5,1.34,3.5,4s-1.5,4.92-4.5,6.75c-3,1.84-6,2.59-9,2.25-.34,0-.5.09-.5.25s.16.25.5.25c4.33.67,8.16,0,11.5-2,3.33-2,5-4.5,5-7.5,0-1.66-.59-2.91-1.75-3.75-1.17-.83-2.42-1.25-3.75-1.25-3,0-5.59.59-7.75,1.75-2.17,1.17-5.42,3.42-9.75,6.75-7.15,5.91-14,10.05-20.57,12.47.38-1.89.57-3.72.57-5.47,0-3-.59-5.41-1.75-7.25-1.17-1.83-2.75-2.75-4.75-2.75-4,0-7.67,1.67-11,5s-7.84,8.84-13.5,16.5l4.26-20.43c2.15-2.28,4.23-4.63,6.24-7.07,6.33-7.66,9.5-13.5,9.5-17.5,0-2.66-.84-4-2.5-4-4,0-8.17,5.17-12.5,15.5-1.6,4.28-3.06,9.27-4.38,14.98-3.55,3.58-7.25,7.01-11.12,10.27-7.34,6.17-12.5,9.25-15.5,9.25-4,0-6-2.83-6-8.5,0-3.33.91-7.41,2.75-12.25,1.83-4.83,3.41-8.58,4.75-11.25,1.33-3.66,1.16-5.5-.5-5.5-1,0-2.17,1.5-3.5,4.5-1.34,3-2.84,6.5-4.5,10.5-1.67,4-4.09,7.67-7.25,11-3.17,3.34-5.59,5-7.25,5-3,0-4.5-2.33-4.5-7,0-6.33,1.66-11.33,5-15,3.33-3.66,6.33-5.5,9-5.5,2.33,0,3.5,1.17,3.5,3.5,0,1.67-1,3.17-3,4.5-.34.34-.42.59-.25.75.16.17.41.09.75-.25,2.33-1.33,3.5-3.16,3.5-5.5,0-2.66-1.5-4-4.5-4-3.34,0-7.17,1.92-11.5,5.75-4.34,3.84-6.5,9.42-6.5,16.75,0,2.34.58,4.34,1.75,6,1.16,1.67,2.75,2.5,4.75,2.5,2.33,0,5.08-1.41,8.25-4.25,3.16-2.83,5.75-6.41,7.75-10.75-1.34,3.67-2,7.34-2,11,0,6.34,2.5,9.5,7.5,9.5,4,0,9.83-3.08,17.5-9.25,3.69-2.96,7.21-6.11,10.59-9.42-.94,4.34-1.81,9.06-2.59,14.17-1,4.67-1.67,8.25-2,10.75-.34,2.5-.17,3.75.5,3.75,1.33,0,2.5-3.16,3.5-9.5,4.66,6.34,10.16,9.5,16.5,9.5,4.66,0,8.33-2.83,11-8.5,1.46-3.1,2.5-6.04,3.16-8.85,3.31-1.04,6.76-2.67,10.34-4.9,4-2.5,7.33-4.75,10-6.75-3,3.34-4.5,7.34-4.5,12,0,6.34,3.5,9.5,10.5,9.5,5.33,0,11.16-1.83,17.5-5.5,5.03-2.91,9.21-5.72,12.56-8.42-.03.48-.06.96-.06,1.42,0,5.34,2,8,6,8,4.33,0,11.66-3.5,22-10.5l8.74-4.89c-3.81,6.07-7.06,11.71-9.74,16.89-2.67,5.34-3.34,8-2,8,.33,0,.83-.5,1.5-1.5.66-1,1.5-2,2.5-3,7.33-8.33,14-14.25,20-17.75s10.16-5.25,12.5-5.25c1.66,0,2.5.84,2.5,2.5,0,2-2.17,5.84-6.5,11.5-4.67,6-7,10.67-7,14,0,5.34,3.33,8,10,8,7,0,13-1.5,18-4.5s8.66-6.41,11-10.25c2.33-3.83,3.5-7.08,3.5-9.75,0-4.66-2-7.5-6-8.5v.5c3.33,1.67,5,4,5,7,0,6.34-3.09,11.84-9.25,16.5-6.17,4.67-12.42,7-18.75,7s-9.5-2.16-9.5-6.5c0-2,1.5-5.33,4.5-10,3-4.66,5.5-8.5,7.5-11.5.66-1,1-2.16,1-3.5,0-2.33-1.5-3.5-4.5-3.5-4,0-8.92,1.84-14.75,5.5-5.84,3.67-11.75,8.17-17.75,13.5l6-10c1.72-2.99,3.51-5.9,5.37-8.74l-.37.74c8-4.66,15.91-10.83,23.75-18.5,7.83-7.66,11.75-13,11.75-16,0-2-1.17-3-3.5-3-6,0-13.92,6.92-23.75,20.75-4.44,6.24-8.39,12.11-11.92,17.64-15.69,10.06-25.15,15.11-28.33,15.11-4,0-6-2.83-6-8.5,0-.67.04-1.37.1-2.07,8.02-7.52,14.23-14.6,18.6-21.23,3.33-.4,6.84-1.21,10.55-2.45,5.5-1.83,9.91-3.91,13.25-6.25.33-.33.5-.58.5-.75s-.34-.08-1,.25c-3.67,2-7.34,3.75-11,5.25-2.77,1.13-6.48,1.83-11.14,2.11.12-.2.27-.41.39-.61,4.5-7.5,6.75-12.58,6.75-15.25s-1-4-3-4c-2.67,0-6.25,2.92-10.75,8.75-2.47,3.2-4.76,6.66-6.88,10.37-2.4-.45-4.94-1.06-7.62-1.87-6.17-1.83-14.09-4.58-23.75-8.25-15.67-6-29.59-10.58-41.75-13.75-12.17-3.16-24.42-4.75-36.75-4.75ZM496,193.02c1.33-5.66,3.5-10.75,6.5-15.25s5.16-6.75,6.5-6.75c.66,0,1,.67,1,2,0,3-3.09,8.17-9.25,15.5-1.62,1.93-3.29,3.81-4.99,5.66l.24-1.16ZM513.75,218.27c-2.84,6.17-6.09,9.25-9.75,9.25-4,0-8.34-2.83-13-8.5,2.66-3,5.33-6.33,8-10,2.66-3.66,5.25-6.58,7.75-8.75,2.5-2.16,5.08-3.25,7.75-3.25.66,0,1.41.5,2.25,1.5.83,1,1.25,2.17,1.25,3.5,0,4.67-1.42,10.09-4.25,16.25ZM635.75,177.52c8.16-9,13.58-13.5,16.25-13.5,1,0,1.5.5,1.5,1.5,0,2.67-3.59,7.34-10.75,14-7.15,6.65-14.87,12.96-23.17,18.94,4.92-7.49,10.3-14.48,16.17-20.94ZM581.24,203.75c.55-4.2,2.13-8.85,4.76-13.98,1.17-2.29,2.4-4.49,3.68-6.6,2.38.56,4.16.85,5.32.85.87,0,1.75-.04,2.64-.11-5.4,7.55-10.87,14.15-16.41,19.84ZM597.25,172.52c4.16-5,6.75-7.5,7.75-7.5s1.5.5,1.5,1.5c0,3.08-2.5,8.23-7.48,15.44-.97.03-1.97.06-3.02.06-1.69,0-3.48-.12-5.37-.36,2.08-3.28,4.28-6.33,6.62-9.14Z"/><path d="M875.5,347.52l-2,.5c.33,2,.5,4.84.5,8.5,0,15.34-6.34,28.33-19,39-10.67-12-21.09-21.92-31.25-29.75-10.17-7.83-21.92-11.75-35.25-11.75-.67,0-1.31,0-1.93.02,30.28-25.18,45.43-51.02,45.43-77.52,0-8-1.34-15.66-4-23-2.67-7.33-6.17-13.66-10.5-19-13.67,10.67-27.42,22.59-41.25,35.75-11.32,10.77-20.79,20.93-28.42,30.47,2.47-19.49,4.36-33.73,5.67-42.72,2-14,4.5-25.5,7.5-34.5s7.83-16.58,14.5-22.75c6.66-6.16,16-9.25,28-9.25,18.33,0,33.08,5.59,44.25,16.75,11.16,11.17,16.75,24.42,16.75,39.75,0,10.67-1.25,19-3.75,25s-5.92,11.84-10.25,17.5l3,1.5c10-11.33,15-26,15-44,0-14.33-4.25-27.83-12.75-40.5-8.5-12.66-25.59-20.83-51.25-24.5-8.34-1.33-17-2-26-2-18.34,0-32.59,3.42-42.75,10.25-10.17,6.84-17.92,16.25-23.25,28.25-3.34-6-6.84-11.41-10.5-16.25-3.67-4.83-7.42-9.08-11.25-12.75-3.84-3.66-7.25-7-10.25-10l-3.5,3c17,27.34,25.5,63.5,25.5,108.5,0,15.67-.75,31-2.25,46s-3.75,33-6.75,54l-3,24-23.5,21.5,69,35.5,46-29-47.5-32c.7-6.85,1.86-17.17,3.49-30.96.36-.17.72-.33,1.09-.51,6.85.1,12.26.42,16.17.96,4.83.66,8.58,2.5,11.25,5.5,3.33,3.66,10.33,13.16,21,28.5,10.66,15.33,17.16,25.5,19.5,30.5,16.33-11.34,29.16-20.84,38.5-28.5,9.33-7.67,17.08-16.09,23.25-25.25,6.16-9.17,9.25-18.91,9.25-29.25,0-4.33-.84-9.5-2.5-15.5ZM770.5,282.52l7.5,13c4,7.67,6,15.5,6,23.5,0,10.67-3.42,20.17-10.25,28.5-6.84,8.34-13.75,14.67-20.75,19-3.99,2.47-8.77,5.28-14.28,8.4,1.33-11.16,2.92-24.29,4.78-39.4,1.18-9.63,2.28-18.48,3.29-26.55,6.08-7.9,13.98-16.72,23.71-26.45Z"/><path d="M525,376.02l-2,2c5.66,7,8.5,16,8.5,27,0,9.33-4.5,19.5-13.5,30.5-5.34-2.67-11.34-8.84-18-18.5,6-51.66,8.33-88.33,7-110-9.67-9.66-19.34-17.16-29-22.5-9.67-5.33-21.84-11.16-36.5-17.5l-11.5,7.5c-17.67,11.67-31.75,22.34-42.25,32-10.5,9.67-15.75,20.67-15.75,33,0,11.34,3.91,19.5,11.75,24.5,7.83,5,17.08,7.5,27.75,7.5,1,0,1.97-.02,2.91-.06-7.88,3.65-14.94,7.41-21.16,11.31-15.17,9.5-22.75,22.08-22.75,37.75,0,9.33,1.66,17.25,5,23.75,3.33,6.5,8.83,14.75,16.5,24.75l7.5,10c18.51-9.82,36.17-20.47,53.03-31.93,10.55,11.47,23.03,22.78,37.47,33.93,6.33-5.34,13.16-12,20.5-20,7.33-8,12.33-14,15-18,3.66-6,6.58-11.5,8.75-16.5,2.16-5,3.25-11.17,3.25-18.5,0-5.67-.92-11-2.75-16-1.84-5-5.09-10.34-9.75-16ZM389.75,358.02c-6.17-5.33-9.25-11.83-9.25-19.5,0-9.66,2.5-16.75,7.5-21.25s9.83-6.75,14.5-6.75c10.33,0,26.66,7,49,21,.65,8.04,1.22,15.97,1.71,23.8-1.22.5-2.61,1.06-4.21,1.7-5,2-10.92,4-17.75,6-6.84,2-12.92,3-18.25,3-9.34,0-17.09-2.66-23.25-8ZM435.5,436.52c-7-8.34-12.17-15.09-15.5-20.25-3.34-5.17-5-10.25-5-15.25,0-6,2-11.34,6-16,4-4.67,9.33-9,16-13,5.55-3.33,11.09-6.41,16.64-9.28,1.23,21.6,1.86,42.37,1.86,62.28v10.72l-13.5,8.78-6.5-8Z"/><path d="M342.5,138.02c7.66-.33,14-2.25,19-5.75s8.83-7.08,11.5-10.75c2-3.33,3-5.83,3-7.5,0-2.66-1.84-4.16-5.5-4.5-2.34,4.34-5.17,7.84-8.5,10.5-3.34,2.67-8,4.17-14,4.5-8.34,0-15-3.08-20-9.25-5-6.16-7.5-14.08-7.5-23.75,0-10.66,2.5-19,7.5-25s9.83-9,14.5-9c2.66,0,6.83,2.17,12.5,6.5,4.33,3.67,7.33,5.5,9,5.5,2.66,0,5.16-1,7.5-3,2.33-2,3.5-4.16,3.5-6.5,0-4-1.75-7.33-5.25-10-3.5-2.66-7.59-4-12.25-4-15.34.34-28,5.42-38,15.25-10,9.84-14.84,21.75-14.5,35.75.33,27.34,12.83,41,37.5,41Z"/><path d="M99.5,47.52c1.66,0,4.16-.33,7.5-1,6.66,11.67,19.5,33.34,38.5,65,19,31.67,29.5,47.5,31.5,47.5,2-.33,4.66-8,8-23,2.66-11.33,5.16-21.33,7.5-30l9-31.5c2.33-8.33,4.66-16.66,7-25,2.33-8.33,4.5-15.33,6.5-21,4.33-.66,7.33-1.41,9-2.25,1.66-.83,2.5-2.58,2.5-5.25l-1-6.5c-2.67,0-8.42.42-17.25,1.25-8.84.84-16.25,1.75-22.25,2.75,1,7.67,4.33,11.5,10,11.5,2,0,3.5-.16,4.5-.5l-3.5,16c-2.67,13-5.75,27.09-9.25,42.25-3.5,15.17-6.92,28.59-10.25,40.25l-53-88c4.66-1.66,7-3.66,7-6s-.84-4.66-2.5-7c-5.67,2-12.25,3.5-19.75,4.5s-14.92,2-22.25,3c2,8.67,6.16,13,12.5,13Z"/><path d="M261,27.02c3.33-.33,6.16-1.83,8.5-4.5,2.33-2.66,3.5-6,3.5-10,0-8.66-4.17-12.83-12.5-12.5-3.67,0-6.92,1.34-9.75,4-2.84,2.67-4.25,5.5-4.25,8.5,0,4.67,1.33,8.25,4,10.75,2.66,2.5,6.16,3.75,10.5,3.75Z"/><path d="M380.5,167.02c1,0,2.33-.91,4-2.75,1.66-1.83,2.5-3.41,2.5-4.75,0-1-.67-1.5-2-1.5-1,0-2.42.84-4.25,2.5-1.84,1.67-2.75,3.17-2.75,4.5s.83,2,2.5,2Z"/><path d="M276.48,166.24c-6.36.79-11.52,3.8-15.48,9.03-4.67,6.17-7,12.42-7,18.75,0,7.67,2.5,13.34,7.5,17,.33.34.58.42.75.25s.08-.41-.25-.75c-4.67-4-7-9.66-7-17,0-5.33,2.08-11,6.25-17,3.62-5.21,8.56-8.41,14.82-9.6-.64,1.09-1.26,2.2-1.82,3.35-3.17,6.5-4.75,12.42-4.75,17.75,0,4.34,1.08,7.67,3.25,10,2.16,2.34,4.91,3.5,8.25,3.5.19,0,.37-.02.55-.02-2.13,2.8-4.15,5.8-6.05,9.02-4.34,7.34-6.5,14.34-6.5,21,0,3.67,1.08,6.75,3.25,9.25,2.16,2.5,5.41,3.75,9.75,3.75,6.33,0,12.33-3.33,18-10,5.66-6.66,8.5-12.5,8.5-17.5,0-2.33-.59-4.25-1.75-5.75-1.17-1.5-2.59-2.25-4.25-2.25-2.34,0-4.34.75-6,2.25-1.67,1.5-2.67,3.42-3,5.75,0,.34.08.5.25.5s.25-.16.25-.5c.33-2.33,1.33-4.16,3-5.5,1.66-1.33,3.33-2,5-2,3,0,4.5,2.34,4.5,7,0,6-2.42,11.59-7.25,16.75-4.84,5.17-9.42,7.75-13.75,7.75-3,0-5.34-1.16-7-3.5-1.67-2.33-2.5-5.33-2.5-9,0-6,1.66-12.41,5-19.25,1.4-2.88,2.92-5.58,4.54-8.1,4.46-.71,8.45-2.51,11.96-5.4,4.66-3.83,7-7.08,7-9.75,0-1.33-.67-2-2-2-2.67,0-6.75,2.59-12.25,7.75-2.64,2.48-5.14,5.21-7.51,8.19-1.69-.26-3.18-1.41-4.49-3.44-1.5-2.33-2.25-5.83-2.25-10.5,0-6.95,1.69-13.43,5.05-19.43l12.95.43c6.66,0,12.08-1.5,16.25-4.5,4.16-3,6.25-6,6.25-9,0-4.33-3-6.5-9-6.5-7.34,0-13.92,2.25-19.75,6.75-4.59,3.54-8.33,7.7-11.27,12.47ZM292.75,191.77c4.5-4.83,7.75-7.25,9.75-7.25,1,0,1.5.67,1.5,2,0,2.34-2.25,5.17-6.75,8.5-3.55,2.63-7.16,4.21-10.82,4.76,1.96-2.92,4.07-5.59,6.32-8.01ZM307.5,148.02c5.66,0,8.5,1.84,8.5,5.5,0,3.34-2.25,6.34-6.75,9-4.5,2.67-9.59,4-15.25,4l-12.66-.45c1.25-2.16,2.72-4.26,4.41-6.3,6.5-7.83,13.75-11.75,21.75-11.75Z"/><path d="M399.5,56.27c2.66.17,5.33.09,8-.25l.5,56.5c0,9.34,1.41,15.84,4.25,19.5,2.83,3.67,7.41,5.5,13.75,5.5,4.66,0,8.75-1.33,12.25-4,3.5-2.66,5.91-5.33,7.25-8,1-3,1.5-4.83,1.5-5.5,0-2.33-1.34-3.5-4-3.5-.67,1.34-1.84,3.09-3.5,5.25-1.67,2.17-3.67,3.42-6,3.75-4.34,0-7.25-1.25-8.75-3.75s-2.25-6.91-2.25-13.25v-53l11,.5c2,0,4-.25,6-.75s3-1.75,3-3.75c-.34-2-.75-3.33-1.25-4-.5-.66-1.75-1-3.75-1l-15.5,1c0-2.66.33-5.75,1-9.25.66-3.5,1.16-6.58,1.5-9.25v-2c0-3-1-4.5-3-4.5s-3.34,1.5-4,4.5c-2,6.67-4.17,11.17-6.5,13.5s-6,4.84-11,7.5c-1.34.67-2.42,1.25-3.25,1.75-.84.5-1.25,1.42-1.25,2.75,0,2.34,1.33,3.59,4,3.75Z"/><path d="M253.75,326.52c-3.5-11-8.09-21.16-13.75-30.5-6.34-10.33-9.5-17.5-9.5-21.5.33-1.66.5-3.33.5-5l-2-2c-2.34,1.34-7.59,4.17-15.75,8.5-8.17,4.34-17.42,8.84-27.75,13.5-9.34,4.22-17.43,7.33-24.32,9.37,1.28-.79,2.56-1.57,3.82-2.37,45.66-27.33,68.5-53.16,68.5-77.5,0-4.66-.67-8.91-2-12.75-1.34-3.83-3.17-8.41-5.5-13.75-3.67-7.66-6.09-14-7.25-19-1.17-5-1.25-8.5-.25-10.5l-2-2c-16,11.34-30.92,21.09-44.75,29.25-11.74,6.94-24.52,13.32-38.3,19.17l-.45-25.42c0-12.66.66-22.25,2-28.75,1.33-6.5,4-12.41,8-17.75l-2-2-9,8.5c-13.34,11.67-23.25,21.75-29.75,30.25s-11.42,19.59-14.75,33.25c-4-5-8-8.83-12-11.5-4-2.66-9.34-4-16-4-10,0-18.67,4-26,12-7.34,8-11,18-11,30,0,10.67,1.75,19.42,5.25,26.25,3.5,6.84,8.58,14.25,15.25,22.25,6.66,8,11.58,14.84,14.75,20.5,3.16,5.67,4.75,12.17,4.75,19.5,0,10.34-3.09,18.59-9.25,24.75s-13.25,9.25-21.25,9.25-14.34-2.5-20-7.5c-5.67-5-8.5-11.83-8.5-20.5s1.66-15.16,5-20.5c3.33-5.33,7.83-10.16,13.5-14.5l-1.5-2c-5.67,3.67-10.5,8.75-14.5,15.25s-6,13.75-6,21.75c0,9.34,2.75,17.34,8.25,24,5.5,6.67,12.75,10,21.75,10s17.75-4.25,25.25-12.75,11.25-17.91,11.25-28.25c0-16.33-6-31.33-18-45-15-17.33-22.5-32-22.5-44,0-9.33,2.08-16.5,6.25-21.5,4.16-5,9.41-7.5,15.75-7.5s12.16,2.5,17.5,7.5c5.33,5,8.66,11.34,10,19,4,25.34,8.66,75.17,14,149.5-15,13-30.5,28.16-46.5,45.5l1,1.5c2.66-1,6-1.5,10-1.5,11,0,27.16,3,48.5,9,14.33,4,26.41,7.25,36.25,9.75,9.83,2.5,16.25,4.08,19.25,4.75,5.33-5,15.75-14.92,31.25-29.75,10.28-9.84,17.79-17.43,22.58-22.79-1.21,17.26-9.47,33.11-24.83,47.54-4.34,4.33-11,8.08-20,11.25-9,3.16-19.67,4.75-32,4.75-6,0-12.84-.5-20.5-1.5l-.5,4c10.66.66,18.16,1,22.5,1,16,0,30.25-2.42,42.75-7.25,12.5-4.84,26.75-13.75,42.75-26.75,14-11.67,23.66-24.09,29-37.25,5.33-13.17,8-24.58,8-34.25s-1.75-20-5.25-31ZM176.5,233.52c3.66,8.67,5.5,17.17,5.5,25.5,0,14-5.25,24.75-15.75,32.25-9.46,6.76-20.21,11.28-32.24,13.57l-.48-88.69c9.66-4.32,18.33-8.53,25.98-12.63,8.66,13.34,14.33,23.34,17,30ZM201.75,399.02c-4.84,3-10.25,4.5-16.25,4.5l-5-.5c-7.67-1-16.34-2.59-26-4.75-8.07-1.81-14.73-3.33-20.01-4.55l-.44-79.86c2.23-1.13,4.88-2.49,7.95-4.09,1.42-.74,2.82-1.5,4.22-2.25,6.71-1.55,15.63-4.04,26.78-7.5,4.33,7.34,7.16,11.84,8.5,13.5,6,9.34,11,18.17,15,26.5,10.28,19.58,15.45,36.67,15.5,51.3-3.28,2.92-6.7,5.49-10.25,7.7Z"/><path d="M399,233.52c-5.67,5-8.5,9.67-8.5,14,0,2.34.66,4.09,2,5.25,1.33,1.17,3,1.75,5,1.75,3.33,0,6.83-1.41,10.5-4.25,3.66-2.83,7.33-7.08,11-12.75,2.23-3.44,3.77-6.88,4.64-10.33,7.49.83,22.11,4.77,43.86,11.83,19,5.67,34.41,10,46.25,13,11.83,3,22.08,4.5,30.75,4.5,14.66,0,24.33-1.91,29-5.75,4.66-3.83,7-7.91,7-12.25,0-1.66-.59-3.41-1.75-5.25-1.17-1.83-2.75-3.25-4.75-4.25l-.5.5c3.33,1.67,5,4.34,5,8s-2.75,7.17-8.25,10.5c-5.5,3.34-15.09,5-28.75,5-10.67,0-22.09-1.5-34.25-4.5-12.17-3-26.09-7-41.75-12-8.67-2.66-17.17-5.08-25.5-7.25-6.66-1.73-12.02-2.76-16.13-3.11.4-1.88.63-3.76.63-5.64,0-4.33-1.17-7.75-3.5-10.25-2.34-2.5-5.84-3.75-10.5-3.75-2.67,0-5.34.5-8,1.5,8.66-8,13-14.33,13-19,0-4-2.17-6-6.5-6-4,0-11.84,5.17-23.5,15.5-4,3.34-8,6.5-12,9.5s-7.17,4.5-9.5,4.5c-4,0-6-2-6-6l.48-3.36c2-1.75,3.92-3.55,5.77-5.39,5.5-5.5,8.25-9.75,8.25-12.75,0-1.66-.67-2.5-2-2.5-2.34,0-5.5,2.5-9.5,7.5-3.88,4.85-5.86,9.86-5.98,15.02-2.78,2.35-5.7,4.6-8.77,6.73-6.5,4.5-11.75,6.75-15.75,6.75-1.67,0-3.25-.91-4.75-2.75-1.5-1.83-2.25-4.75-2.25-8.75s.91-9.17,2.74-15.12c5.5-7.11,10.52-14.16,15.01-21.13,4.83-7.5,7.25-12.58,7.25-15.25,0-2-.67-3-2-3-2.67,0-6.25,2.67-10.75,8-4.5,5.34-8.42,12-11.75,20-3.34,8-5,15.84-5,23.5,0,10.67,4,16,12,16,3,0,7.91-2.33,14.75-7,3.24-2.21,6.33-4.52,9.27-6.93.19,5.28,3.01,7.93,8.48,7.93,2.33,0,5.58-1.58,9.75-4.75,4.16-3.16,8.41-6.58,12.75-10.25,4-3.66,8.08-7.08,12.25-10.25,4.16-3.16,7.41-4.75,9.75-4.75,2,0,3,1.34,3,4,0,6-7,14.84-21,26.5-.34.34-.34.67,0,1,.33.34.66.34,1,0,4-3,7.25-5.08,9.75-6.25,2.5-1.16,5.08-1.75,7.75-1.75,4,0,6.91,1.34,8.75,4,1.83,2.67,2.75,5.5,2.75,8.5,0,1.97-.25,3.98-.72,6.03-8.22.3-14.98,2.79-20.28,7.47ZM338.25,164.02c4.16-6.66,6.91-10,8.25-10,.66,0,1,.67,1,2,0,2-2.42,6.75-7.25,14.25-4,6.2-8.29,12.22-12.86,18.08,3.23-9.79,6.85-17.91,10.86-24.33ZM364.25,190.27c2.83-4.16,4.91-6.25,6.25-6.25.66,0,1,.5,1,1.5,0,2-2.59,5.75-7.75,11.25-1.57,1.67-3.2,3.28-4.89,4.86,1.07-3.85,2.86-7.63,5.39-11.36ZM416,234.77c-2.67,5.17-5.84,9.59-9.5,13.25s-6.67,5.5-9,5.5c-4,0-6-2-6-6s2.5-8.41,7.5-13.25c4.65-4.49,11.34-6.87,20.03-7.19-.67,2.5-1.67,5.06-3.03,7.69Z"/><path d="M335.75,262.52c2.5-9,5.91-15.58,10.25-19.75,4.33-4.16,10.33-7.75,18-10.75l-1-3c-22.67,3.67-39.59,9.75-50.75,18.25-11.17,8.5-19.09,20.42-23.75,35.75-8.34-9.33-19.84-14.33-34.5-15l-.5,3c13,4.34,21.16,10.25,24.5,17.75,3.33,7.5,5,16.42,5,26.75-.34,11.67-.84,25.17-1.5,40.5-.67,15.34-1.17,26.16-1.5,32.5l-.5,28.5-22,21.5c11,10,30.16,23.33,57.5,40,3.33-3,6.41-6,9.25-9,2.83-3,5.58-5.84,8.25-8.5l10.5-11c12.33-12.34,18.5-26.34,18.5-42,0-6.67-1.67-13.84-5-21.5-3.34-7.67-7.17-13.83-11.5-18.5l-2,1.5c8,10.66,12,22.16,12,34.5s-3.67,21.83-11,29.5l-21-19,7.5-113c1-17,2.75-30,5.25-39Z"/><path d="M499,135.02c9,0,17-2.83,24-8.5,7-5.66,12.41-12.75,16.25-21.25,3.83-8.5,5.75-16.91,5.75-25.25-.34-8.33-3.25-16-8.75-23s-14.09-10.5-25.75-10.5c-13.67,0-24.75,5.34-33.25,16-8.5,10.67-12.75,22.34-12.75,35s3.33,21.67,10,28c6.66,6.34,14.83,9.5,24.5,9.5ZM482.75,68.77c4.5-5.16,10.58-7.91,18.25-8.25,8,0,15.16,3.34,21.5,10,6.33,6.67,9.5,15.17,9.5,25.5,0,6.67-2.75,12.5-8.25,17.5s-11.59,7.5-18.25,7.5c-7,0-13.5-3-19.5-9s-9.17-13.5-9.5-22.5c-.34-8.66,1.75-15.58,6.25-20.75Z"/></g></svg>