<?xml version="1.0" encoding="UTF-8"?><svg id="Layer_2" xmlns="http://www.w3.org/2000/svg" viewBox="0 0 950.5 400"><g id="Layer_2-2"><path d="M327,156.5c-2.34,0-4,1.17-5,3.5-1,2.34-1.5,4.67-1.5,7,0,4,1.33,6,4,6,1.66,0,3.16-1.08,4.5-3.25,1.33-2.16,2-4.75,2-7.75,0-3.66-1.34-5.5-4-5.5Z"/><path d="M319,209c-2.34,0-4,1.17-5,3.5-1,2.34-1.5,4.67-1.5,7,0,4,1.33,6,4,6,1.66,0,3.16-1.08,4.5-3.25,1.33-2.16,2-4.75,2-7.75,0-3.66-1.34-5.5-4-5.5Z"/><path d="M267.5,356.5c-6-8-14.42-19.42-25.25-34.25-10.84-14.83-18.25-25.58-22.25-32.25l-34.5-57c-4.34-7.33-9.5-15.58-15.5-24.75-6-9.16-11.34-16.91-16-23.25-2.67-3.66-4-6.66-4-9,0-2,.83-4.16,2.5-6.5,1.66-2.33,4.5-5.33,8.5-9,8.33-7.66,22.66-21.66,43-42,8.33-8.33,17.5-18.16,27.5-29.5l10.5-11c8-8,14.16-13.83,18.5-17.5l11.5-10.5c3.33-3.33,6.16-6.33,8.5-9,2.33-2.66,3.5-4.83,3.5-6.5,0-5-2.34-7.5-7-7.5-6.67,0-13.17,3.17-19.5,9.5l-11,12.5c-8,10-15.5,18.5-22.5,25.5l-21,21c-7.34,6.67-14.67,13.67-22,21-5.34,5.34-10.75,11-16.25,17s-10.59,11.67-15.25,17c-13,14.67-21.34,23.67-25,27l-24,24.5c-10,10.67-16.17,17.17-18.5,19.5-9,8.34-16.5,14.84-22.5,19.5l-8.5,7.5c-2.67,2.67-4,5.17-4,7.5,0,1.67.5,3,1.5,4s2.33,1.5,4,1.5c2.66,0,5.16-.83,7.5-2.5,7-6,14.75-13,23.25-21s15.08-14.16,19.75-18.5c1.66-1.66,3.5-2.5,5.5-2.5,1.33,0,2.66.67,4,2,6.66,7.67,15.5,18.59,26.5,32.75,11,14.17,20.33,27.09,28,38.75,6,9.34,12.33,19.5,19,30.5,6.66,11,13.16,21.66,19.5,32l14.5,24,6.5,11c3.66,5.33,6.08,8.66,7.25,10,1.16,1.33,2.91,2,5.25,2,1.66,0,3.66-.84,6-2.5,2.33-1.67,5.5-4.34,9.5-8l15.5-13.5c2.66-2.34,4-4.84,4-7.5,0-1.67-.67-3.5-2-5.5-1.34-2-2.84-4.17-4.5-6.5Z"/><path d="M669,160.5l-.5,13c0,2.34.83,3.5,2.5,3.5h1l4-2.5,17.5-13c2-1.66,3-4.16,3-7.5,0-4,.33-10,1-18,.66-8,1-14.66,1-20,0-5.66.33-12.83,1-21.5l.5-12c0-3.33-1.09-5.16-3.25-5.5-2.17-.33-5.75-.5-10.75-.5h-11c-3.34,0-5.42.5-6.25,1.5-.84,1-1.25,3.17-1.25,6.5l-.5,35.5c0,5,.33,11.5,1,19.5.66,8.67,1,15.67,1,21Z"/><path d="M364.75,120.75c-6.84-3.83-12.59-5.75-17.25-5.75l-14.5,1c-4,0-8-.83-12-2.5-6.67-2-13.34-3-20-3-12.67,0-24,5.17-34,15.5-10,10.34-17.84,22.67-23.5,37-5.67,14.34-8.5,26.84-8.5,37.5,0,13.67,2.33,26.25,7,37.75,4.66,11.5,10.91,20.67,18.75,27.5,7.83,6.84,16.25,10.25,25.25,10.25,3.33,0,6.91-.83,10.75-2.5,3.83-1.66,7.33-3.33,10.5-5,3.16-1.66,5.41-2.5,6.75-2.5l18,1c6,0,13.83-3.33,23.5-10,9.66-6.66,18.16-16.25,25.5-28.75,7.33-12.5,11-27.25,11-44.25s-2.84-31.66-8.5-42c-5.67-10.33-11.92-17.41-18.75-21.25ZM370.5,189.5c0,11.34-3.09,22.59-9.25,33.75-6.17,11.17-13.92,20.34-23.25,27.5-9.34,7.17-18.67,10.75-28,10.75-3.34,0-7.67-2.5-13-7.5-5.34-5-10-11.66-14-20-4-8.33-6-17.33-6-27,0-22,6-41.83,18-59.5,4-6,9.83-11.16,17.5-15.5,7.66-4.33,14-6.5,19-6.5,4.33,0,9.16,2.09,14.5,6.25,5.33,4.17,9.83,9.09,13.5,14.75,4,6,6.91,12.25,8.75,18.75,1.83,6.5,2.58,14.59,2.25,24.25Z"/><path d="M86,167.5c1.33,3.34,2.75,6.09,4.25,8.25,1.5,2.17,2.91,3.25,4.25,3.25,3.33,0,12.66-8.33,28-25,2.33-2.66,3.5-5.33,3.5-8,0-3.33-1.17-6.5-3.5-9.5-9.34-15-14.67-23.66-16-26l-13.5-21.5-18-26-15-21-10.5-15.5-14.5-21.5c-2.34-3.33-5-5-8-5-1.67,0-3.67.67-6,2-2.34,1.34-4.67,2.67-7,4-3.67,1.67-6.92,3.34-9.75,5-2.84,1.67-4.25,3.34-4.25,5,0,2.67,1,5.67,3,9,2,3.34,5.16,8.17,9.5,14.5,3.33,4.67,7.83,12,13.5,22l15,25c12.66,20.34,25.33,42.34,38,66,3.66,7.34,6,12.34,7,15Z"/><path d="M872.41,183.46c.2.02.38.04.59.04,1.66,0,3.25-.91,4.75-2.75,1.5-1.83,2.25-3.58,2.25-5.25,0-1.33-.34-2.5-1-3.5-.67-1-1.67-1.5-3-1.5-2,0-3.75.67-5.25,2-1.5,1.34-2.25,3.34-2.25,6,0,1.22.21,2.21.61,2.99-1.18,2.57-3.05,6.39-5.61,11.51-3.34,6.67-6,11.5-8,14.5s-4.75,7.92-8.25,14.75c-2.56,5-4.45,8.79-5.67,11.38-.35-.08-.71-.13-1.08-.13-1.67,0-3,.59-4,1.75-1,1.17-1.5,2.59-1.5,4.25,0,4.34,1.66,6.5,5,6.5,3.66,0,5.5-2.33,5.5-7,0-1.37-.36-2.51-1.04-3.43,1.71-4.04,5.71-11.89,12.04-23.57l15.91-28.54Z"/><path d="M947.25,252c-2.17-3-4.67-5.08-7.5-6.25-2.84-1.16-4.75-1.25-5.75-.25s-.75,3.5.75,7.5,2.25,7.17,2.25,9.5c0,7.67-2.5,13.17-7.5,16.5-5,3.34-10.34,5-16,5-15.34,0-23-5.5-23-16.5,0-5,1.33-9.66,4-14,12.33-16,21-29.25,26-39.75s7.5-21.91,7.5-34.25c0-16.33-4-28.16-12-35.5-8-7.33-16.17-11-24.5-11-6.34,0-11.67.59-16,1.75-4.34,1.17-6.84,1.75-7.5,1.75l-19.5-1.5c-15.67,0-28.84,4.84-39.5,14.5-10.67,9.67-18.67,21.17-24,34.5-5.34,13.34-8,25.34-8,36,0,22.34,5.66,39.42,17,51.25,11.33,11.84,24.5,17.75,39.5,17.75,6.66,0,12.41-1.5,17.25-4.5,4.83-3,8.33-6.33,10.5-10,2.16-3.66,2.91-6.16,2.25-7.5-1-1.33-2.59-1.75-4.75-1.25-2.17.5-4.75,1.34-7.75,2.5-3,1.17-6,1.75-9,1.75-10.34,0-18.25-4.75-23.75-14.25s-8.25-19.58-8.25-30.25c0-11.66,2.41-22.75,7.25-33.25,4.83-10.5,11.25-19.91,19.25-28.25,7-7,14.33-12.25,22-15.75,7.66-3.5,14.33-5.25,20-5.25,7,0,13.25,3.92,18.75,11.75,5.5,7.84,8.25,18.59,8.25,32.25,0,9.34-1.5,20.09-4.5,32.25-3,12.17-6.34,21.59-10,28.25-2.34,4.34-5,8-8,11-3,3.67-5.25,7-6.75,10s-2.25,6.67-2.25,11c0,9.34,3.16,16.09,9.5,20.25,6.33,4.17,12.5,6.25,18.5,6.25,10,0,18.66-2.5,26-7.5,7.33-5,12.91-11,16.75-18,3.83-7,5.75-13,5.75-18,0-4-1.09-7.5-3.25-10.5Z"/><path d="M771.5,303c-18.34-17.66-29.5-28-33.5-31-5.34-4.66-11.5-10.66-18.5-18-4.67-5.33-8.84-9.5-12.5-12.5-6-5.66-12-11.33-18-17-9-9-14.17-14-15.5-15-1-1-1.5-1.83-1.5-2.5,0-2,3.5-5.5,10.5-10.5,9.33-7,18.33-14.5,27-22.5,3.66-3.33,7.83-6.66,12.5-10,4.66-3.33,10-6.83,16-10.5,6-3.66,12.83-8.66,20.5-15l9-6.5c3-2,5.66-4.08,8-6.25,2.33-2.16,3.5-3.75,3.5-4.75,0-1.33-.42-2.58-1.25-3.75-.84-1.16-2.09-1.75-3.75-1.75-5.34,0-12.84,4.17-22.5,12.5-7.67,6.67-16.5,13.17-26.5,19.5-4.34,2.67-18.17,13.67-41.5,33-8,6.67-14.17,11.5-18.5,14.5-4.67,3.34-7.75,5.75-9.25,7.25s-2.25,3.25-2.25,5.25c0,1.67,2.33,4.67,7,9,4.66,4.34,8.5,8,11.5,11,1.66,1.67,2.5,3.5,2.5,5.5l-1,17.5c0,7.67-.34,16.5-1,26.5l-1,14c0,3.67.25,6.59.75,8.75.5,2.17,1.08,4.42,1.75,6.75.33,1.34,1.66,2,4,2,2.66,0,6.16-.75,10.5-2.25,4.33-1.5,7.66-2.58,10-3.25,3.33-1,5-4.83,5-11.5l-1-26-.5-6.5c0-3,1.5-3.33,4.5-1,3,2.34,8.33,7.5,16,15.5l12.5,13c16,15.34,31.83,30.83,47.5,46.5,5.33,4.66,9.33,5.83,12,3.5,1.33-1,2-2.5,2-4.5,0-3-2-6.5-6-10.5l-19-18.5Z"/><path d="M426,165.5c.33,3,1.5,7.17,3.5,12.5,1.33,4,2.41,6.92,3.25,8.75.83,1.84,2.08,2.75,3.75,2.75,1.33,0,4.58-3.33,9.75-10,5.16-6.66,9.41-12.16,12.75-16.5,2-2.66,3-4.83,3-6.5,0-1.33-.67-3.58-2-6.75-1.34-3.16-3-7.08-5-11.75-11.67-27.33-21.34-48.33-29-63-4.34-8-8.34-18.5-12-31.5-2-7.66-4-12.16-6-13.5-1.34-.66-2.5-1-3.5-1-4,0-8,1.67-12,5-4.34,3.34-6.5,7.5-6.5,12.5,0,3.67,1.5,9.67,4.5,18l6,20c4,14,7.33,24.17,10,30.5l8,19c4.66,10.67,7.5,17.5,8.5,20.5,1.66,4.67,2.66,8.34,3,11Z"/><path d="M491.75,162.5c4.83-7,9.25-12.5,13.25-16.5s10.33-11,19-21l13-14.5c7.66-8.66,13-14.83,16-18.5,13.33-15,20.5-23,21.5-24,8.66-8.66,15.91-16.33,21.75-23,5.83-6.66,8.75-12,8.75-16,0-2.33-1.5-3.5-4.5-3.5s-6.34,2.5-10,7.5c-6,8-10.67,13.84-14,17.5l-23.5,24.5-9.5,10.5-14.5,16-7.5,7.5c-14.34,14.34-25.34,26.84-33,37.5l-18.5,24.5-17.5,23c-5,7-10.67,14.17-17,21.5-6.34,7.34-10.67,12.5-13,15.5-1,1.34-.92,3.17.25,5.5,1.16,2.34,3.08,3.5,5.75,3.5,1.33,0,4-2.66,8-8,1.66-1.66,3.25-3.33,4.75-5,1.5-1.66,2.58-2.5,3.25-2.5,1.33,0,2.41,1.5,3.25,4.5.83,3,1.75,6.34,2.75,10,1,3.67,1.91,6.59,2.75,8.75.83,2.17,1.91,3.25,3.25,3.25s3.91-2,7.75-6c3.83-4,7.08-6.83,9.75-8.5l9-6c3-1.66,5.58-3.25,7.75-4.75,2.16-1.5,3.25-2.75,3.25-3.75,0-2.66-2.67-10.16-8-22.5-2.67-6.66-4.42-11.5-5.25-14.5-.84-3-.75-5.33.25-7,2.33-3.33,5.91-8.5,10.75-15.5Z"/><path d="M621,133.5c-9-6.33-19.34-9.5-31-9.5-13.34,0-24.59,3.42-33.75,10.25-9.17,6.84-16.09,15.5-20.75,26-4.67,10.5-7,21.09-7,31.75,0,8.67,1.58,15.5,4.75,20.5,3.16,5,7.91,10.5,14.25,16.5,3,2.34,5.66,5,8,8,5.66,7,11.33,16.5,17,28.5,5.66,12,8.5,22.17,8.5,30.5,0,6.34-2.75,13-8.25,20s-11.25,10.5-17.25,10.5c-5,0-9.25-2-12.75-6s-6.09-8.58-7.75-13.75c-1.67-5.16-2.5-9.25-2.5-12.25l1.5-14c0-4-1.17-6-3.5-6-5,0-8.84,4.25-11.5,12.75-2.67,8.5-4,16.09-4,22.75,0,14.33,3.66,25.58,11,33.75,7.33,8.16,16.33,12.25,27,12.25,8.66,0,17.33-3.17,26-9.5,8.66-6.34,15.75-14.42,21.25-24.25s8.25-19.91,8.25-30.25-3.42-19.58-10.25-27.75c-6.84-8.16-15.59-16.25-26.25-24.25-5-3.33-8.17-5.83-9.5-7.5-4-4.33-7.5-9.83-10.5-16.5-3-6.66-4.5-12.33-4.5-17,0-13.33,4.33-24.08,13-32.25,8.66-8.16,17.83-12.25,27.5-12.25,8.33,0,15.33,1.92,21,5.75,5.66,3.84,8.83,8.59,9.5,14.25,1,7.34,3,11,6,11,2.33,0,4.58-1.83,6.75-5.5,2.16-3.66,3.25-7.83,3.25-12.5,0-16.33-4.5-27.66-13.5-34Z"/></g></svg>