<?xml version="1.0" encoding="UTF-8"?>
<svg xmlns="http://www.w3.org/2000/svg" baseProfile="tiny" version="1.2" viewBox="0 0 700 1153.62794">
  <!-- Generator: Adobe Illustrator 28.6.0, SVG Export Plug-In . SVG Version: 1.2.0 Build 709)  -->
  <g>
    <g id="b">
      <g>
        <path d="M.5152,960.99554h4.6369c5.26495-10.55206,9.33026-18.04456,12.19348-22.4776,2.8606-4.43542,5.46613-7.35297,7.81415-8.75531v-.00006c2.34534-1.40479,5.46613-2.10449,9.3598-2.10449h44.99554c5.26489,0,9.41614.95233,12.45105,2.86224,3.03223,1.90741,5.72369,4.82501,8.07178,8.75531,2.34528,3.9278,6.09674,11.16785,11.24884,21.71991h4.63702c0-18.29718.22803-31.76685.68695-40.409h-16.48694v-81.82861c0-4.15143.17169-7.04272.5152-8.67114.34351-1.62573,1.14313-2.91742,2.40436-3.8725,1.25848-.95233,3.60645-1.99158,7.04126-3.11493l-.8587-4.37756c-2.51971.22614-5.32385.39465-8.41516.50513-3.09137.11316-7.50024.16827-13.22394.16827h-36.06519c-18.7785,0-31.42822-.22363-37.95422-.6734l-.8587,4.37756c4.12164,1.12335,6.9823,2.13354,8.58691,3.03076,1.60205.89972,2.66193,2.21771,3.17712,3.9566.51526,1.74164.82916,4.57507.94464,8.50287,0,28.84924-1.9751,49.30652-5.92499,61.37134-3.04126,9.29138-6.47559,16.15961-10.29712,20.62555H0c.22815,4.37756.34351,13.52484.34351,27.44446.11261,2.58081.17169,6.90326.17169,12.9646ZM28.76624,899.79248c4.06274-14.64813,6.09674-36.67603,6.09674-66.08569v-7.23981h30.56952v94.11957H19.97272c3.51208-5.40875,6.44562-12.33392,8.79352-20.79407Z"/>
        <path d="M141.5119,927.06897c6.29529,2.97272,13.33673,4.46167,21.12384,4.46167,9.84546,0,18.31702-2.33087,25.41718-6.98737,7.09766-4.65656,11.84998-10.85986,14.25452-18.60498v-.00012l-3.09149-3.53589c-2.97839,1.34698-5.89789,2.30206-8.75848,2.8623-2.8631.56311-6.24152.84192-10.13281.84192-10.07599,0-17.8902-2.21521-23.44232-6.65057-2.92889-2.33746-5.07684-5.47162-6.46069-9.3858l48.1073-.46405c.34369-3.25415.51532-6.90326.51532-10.94397,0-8.97894-3.12073-16.02167-9.35974-21.13068-6.24158-5.10645-14.91437-7.66095-26.01855-7.66095-6.98486,0-13.73883,1.71259-20.26495,5.13531-6.52612,3.42542-11.84998,8.4187-15.97174,14.98517-4.12164,6.56647-6.18256,14.28528-6.18256,23.15106,0,8.08191,1.80322,15.01398,5.40979,20.79388,3.60645,5.78259,8.55737,10.16016,14.85541,13.13306ZM151.47266,862.58252c1.94568-3.87262,4.80878-5.8089,8.58685-5.8089,2.8606,0,4.89471,1.32068,6.09705,3.95679,1.20184,2.63861,1.80322,5.97717,1.80322,10.01813,0,3.99683-.31958,8.42236-.94708,13.26453l-17.94928.61102c-.33929-2.15137-.51031-4.47467-.51031-6.97253,0-6.17181.97144-11.19666,2.91962-15.06909l-.00006.00006Z"/>
        <path d="M270.83032,859.46759c1.94543,0,3.71918.75775,5.32385,2.27301,1.60217,1.51526,3.54755,4.37756,5.83917,8.58704,2.28888,4.20923,5.38025,10.63623,9.27399,19.27832l4.6369-.6734-1.03046-36.87335-7.21307.50507c-3.89355.33679-9.27374.50507-16.14337.50507h-41.38916c-6.75684,0-12.13708-.16827-16.14337-.50507l-7.21313-.50507-1.03046,36.87335,4.63715.6734c3.89081-8.64215,6.98212-15.06909,9.27374-19.27832,2.28906-4.20947,4.2345-7.07178,5.83917-8.58704,1.60193-1.51526,3.37573-2.27301,5.32385-2.27301,1.21826,0,2.42065.08313,3.60663.24512v47.06732c0,5.72455-.85883,9.84967-2.57617,12.37512-1.71741,2.5257-4.6369,4.23828-8.75867,5.1355l1.0304,4.20929c6.41071-.22638,15.34119-.33679,26.79132-.33679,11.44745,0,20.37793.11041,26.79132.33679l1.03046-4.20929c-4.12177-.89722-7.04126-2.6098-8.75867-5.1355-1.71741-2.52551-2.57623-6.65057-2.57623-12.37512v-47.08881c1.12964-.14685,2.2735-.22363,3.43481-.22363Z"/>
        <path d="M341.32721,960.06964v-.00012c-.85883-1.85205-1.28809-4.63019-1.28809-8.33435v-20.32166c1.40698.07568,2.89038.117,4.46521.117,9.38654,0,18.03265-2.04938,25.9325-6.14545,7.90009-4.09613,14.19525-9.93402,18.89124-17.51062,4.69354-7.5766,7.0415-16.41632,7.0415-26.51837,0-9.98938-2.57623-17.78961-7.72839-23.40369-5.1521-5.61157-11.73724-8.41852-19.74988-8.41852-11.86206,0-21.47888,5.38098-28.85217,16.13727v-16.13727l-2.40442-1.5155c-9.96075,3.48053-23.30011,7.01642-40.0152,10.60742v3.53589c2.8606,1.57312,4.92151,3.00427,6.18262,4.2934,1.25867,1.29187,2.11725,2.9754,2.57623,5.05115.45599,2.07843.68695,5.08014.68695,9.008v72.73633c0,4.60138-.71661,7.68732-2.14691,9.26038-1.4328,1.57062-3.80774,2.69397-7.12708,3.36761l1.03046,4.37756c6.75415-.33661,14.59784-.50507,23.52814-.50507,6.41064,0,13.05225.11041,19.92169.33679l8.0719.16827.85858-4.37756c-2.8631-.67358-5.01001-1.34698-6.44012-2.02057-1.43298-.6734-2.57617-1.93622-3.43475-3.78833ZM340.03912,871.18383c2.5567-1.07184,4.73389-1.61395,6.52612-1.61395v.00006c4.80872,0,8.67285,2.47034,11.59235,7.40833,2.91943,4.94067,4.37939,11.89905,4.37939,20.87799,0,8.64484-1.34723,15.1825-4.03595,19.61536-2.69147,4.43542-6.2121,6.65057-10.56189,6.65057-2.86334,0-5.32404-.53137-7.3847-1.59943-.17792-.09198-.34589-.18353-.51532-.27515v-51.06378Z"/>
        <path d="M416.46143,923.02789c8.81506,5.66669,19.34747,8.50269,31.59985,8.50269,8.35626,0,16.34216-1.45996,23.95764-4.37756,7.61298-2.9176,13.91089-7.63196,18.89124-14.14325v-.00006c4.98035-6.50861,7.47076-14.87201,7.47076-25.08728,0-7.5188-1.71741-14.14325-5.15222-19.8678-3.43481-5.72473-8.4743-10.18646-15.11298-13.38556-6.6416-3.1991-14.5415-4.79871-23.70001-4.79871-8.93048,0-17.23285,1.37598-24.90222,4.12512-7.67181,2.75177-13.96973,7.32422-18.89124,13.72235-4.92395,6.39813-7.38477,14.76129-7.38477,25.08728,0,14.48004,4.40619,24.55603,13.22394,30.22278ZM440.76233,864.09777c1.54584-4.54602,4.20782-6.81909,7.98596-6.81909,4.46521,0,7.78455,3.73315,9.96094,11.19684,2.17365,7.46619,3.26294,16.81073,3.26294,28.03369,0,7.40833-.4024,13.07776-1.20209,17.00555h-.00006c-.80237,3.93048-1.91864,6.59546-3.349,7.9978-1.43274,1.40479-3.23615,2.10455-5.40961,2.10455-4.58069,0-7.9859-3.39368-10.21863-10.18646-2.23254-6.79004-3.34875-15.40588-3.34875-25.84503,0-11.11249.77277-18.94177,2.3183-23.48785Z"/>
        <path d="M598.41748,864.43457c.39984-2.07574,1.229-3.70416,2.49017-4.88287,1.25848-1.17847,3.31934-2.10455,6.18268-2.77814l-.85876-4.37756c-2.17621.22614-6.01086.33661-11.50653.33661h-13.39563c-9.61737,0-16.83026-.11047-21.63904-.33661l-1.0304,4.37756c1.94537,1.01019,3.31927,1.93622,4.12177,2.77814.79968.84192,1.34424,2.04938,1.63135,3.62.20636,1.14099.33826,2.78986.39569,4.93256l-18.68579,29.53534v-23.86053c0-5.83521.34351-9.87598,1.03046-12.12268.68689-2.24426,2.17365-3.87268,4.46521-4.88287l-.85883-4.37756c-1.94812.22614-6.18243.33661-12.70856.33661h-8.41522c-9.96094,0-18.14807-.11047-24.55872-.33661l-1.03046,4.37756c2.97607.89972,5.06635,1.79694,6.26849,2.69397,1.20227.89978,1.97504,2.10474,2.3186,3.62.34344,1.51532.51526,4.06982.51526,7.66101v37.37842c0,3.9303-.20123,6.8479-.60114,8.75531l.00006.00018c-.40259,1.90991-1.23169,3.39618-2.49017,4.46167-1.26135,1.06824-3.32202,1.8811-6.18262,2.44153l1.0304,4.37756c8.24353-.22363,16.48682-.33679,24.73041-.33679,10.07355,0,17.5174.11316,22.32611.33679l1.03046-4.20929c-1.94812-.56042-3.37854-1.34698-4.29364-2.35718-.91772-1.01019-1.57507-2.63617-1.97491-4.88287-.25549-1.42432-.42853-3.32526-.52112-5.69995l18.63953-29.46234v26.57544c0,5.61407-.37311,9.42871-1.11621,11.4491-.74609,2.02063-2.43402,3.42542-5.06641,4.20947l1.0304,4.37756c4.34979-.22363,11.56293-.33679,21.63904-.33679,10.07355,0,18.31708.11316,24.73041.33679l1.03046-4.20929c-2.74786-.56042-4.75238-1.34698-6.0108-2.35718-1.26141-1.01019-2.12-2.6098-2.57623-4.79871-.45874-2.18866-.68689-5.64038-.68689-10.35474v-32.66406c0-4.15143.19855-7.26636.60114-9.34454Z"/>
        <path d="M529.46423,833.03338h.00006c5.15222,3.14374,13.79565,4.71436,25.93274,4.71436,12.1344,0,20.78027-1.57062,25.9325-4.71436,5.15222-3.14124,7.72827-7.01367,7.72827-11.61761,0-7.74512-5.49573-12.3465-16.48694-13.80646l-5.32385,10.10205c-2.40436,4.60413-4.55109,7.91364-6.44037,9.93402-1.88898,2.02039-3.6922,3.03076-5.40967,3.03076s-3.52063-1.01038-5.40985-3.03076c-1.88898-2.02039-4.03577-5.3299-6.44012-9.93402l-5.32404-10.10205c-10.99115,1.45996-16.48688,6.06134-16.48688,13.80646,0,4.60388,2.57623,8.47632,7.72815,11.61761Z"/>
        <path d="M623.74786,870.32769c2.28912-4.20947,4.23462-7.07178,5.83917-8.58704,1.60199-1.51526,3.37579-2.27301,5.32391-2.27301,1.21826,0,2.42065.08313,3.60663.24512v47.06732c0,5.72455-.85883,9.84967-2.57623,12.37512-1.71741,2.5257-4.63684,4.23828-8.75867,5.1355l1.03046,4.20929c6.41058-.22638,15.34113-.33679,26.79126-.33679,11.44751,0,20.37793.11041,26.79132.33679l1.0304-4.20929c-4.12177-.89722-7.04126-2.6098-8.75873-5.1355-1.71741-2.52551-2.57623-6.65057-2.57623-12.37512v-47.08881c1.12958-.14685,2.27362-.22363,3.43488-.22363,1.94543,0,3.71918.75775,5.32385,2.27301,1.60217,1.51526,3.54761,4.37756,5.83917,8.58704,2.28894,4.20923,5.38025,10.63623,9.27399,19.27832l4.6369-.6734-1.0304-36.87335-7.21307.50507c-3.89355.33679-9.2738.50507-16.14343.50507h-41.3891c-6.7569,0-12.13708-.16827-16.14343-.50507l-7.21307-.50507-1.0304,36.87335,4.63708.6734c3.89081-8.64215,6.98218-15.06909,9.27374-19.27832Z"/>
        <polygon points="698.96954 852.05926 698.96954 852.05926 698.9696 852.05926 698.96954 852.05926"/>
        <path d="M148.19458,991.63946c-7.36401.2348-13.12219.3493-17.27747.3493-3.8017,0-7.24438-.1145-10.33087-.3493l-44.43195,86.43549-48.90222-86.43549-6.41223.3493c-6.17572,0-11.63898-.23193-16.3869-.69861l-.71252,10.30304c4.63116.46643,7.71753,1.28247,9.26215,2.4447,1.54193,1.1651,2.25439,3.20337,2.13745,6.11194l-1.42493,78.58173c-.11969,2.09546-.53436,3.63989-1.24677,4.62769-.71246.99036-1.98993,1.68896-3.82965,2.09546-1.84235.4093-4.72009.67114-8.63867.78589l.53442,8.90576c6.6488-.23193,12.76324-.34912,18.34613-.34912,5.22388,0,11.16028.11719,17.81183.34912l.53436-8.90576c-3.91852-.11475-6.70996-.34937-8.37158-.69861-1.66425-.34937-2.79144-1.01758-3.38428-2.00818-.59552-.98767-.89044-2.58936-.89044-4.80225l.49115-76.42224,46.35388,83.23254h6.59052l44.91846-87.4032.67987,81.81531c-.11969,1.74609-.50653,3.05591-1.15771,3.92908-.65411.87317-1.8703,1.51416-3.65155,1.9209-1.78107.4093-4.63098.67114-8.54968.78564l.53442,8.90601c7.12476-.23193,13.95172-.34937,20.48358-.34937,5.9364,0,11.04333.11731,15.31824.34937l.53448-8.90601c-3.20618-.1145-5.55243-.34912-7.03583-.69836-1.48615-.34937-2.49365-.87317-3.02808-1.57153-.53436-.69861-.80145-1.86084-.80145-3.49268l-1.06873-82.2489c0-1.86066.44531-3.25769,1.33582-4.19086.89062-.93054,2.04846-1.57178,3.47345-1.9209h-.00006c1.42499-.3493,4.39166-.93054,8.90582-1.74634l-.71246-9.08057Z"/>
        <path d="M239.92548,1094.49426c-.59552-.69836-.89069-1.86084-.89069-3.49243v-45.75208c0-1.62897.26721-2.79407.8017-3.49249.53424-.69861,1.66144-1.22247,3.38422-1.57178,1.71991-.34906,4.48077-.58105,8.28247-.69843l-.53442-8.90601c-6.65161.23474-12.76599.3493-18.34607.3493-5.34357,0-11.34119-.11456-17.99005-.3493l-.53448,8.90601c3.79913.11737,6.55981.3493,8.28259.69843,1.72009.3493,2.84991.87317,3.38434,1.57178.5343.69843.80151,1.86353.80151,3.49249v.26514l-40.96722,33.51917v-33.7843c0-1.62897.26703-2.79407.80151-3.49249.53424-.69861,1.66144-1.22247,3.38416-1.57178,1.71991-.34906,4.48083-.58105,8.28253-.69843l-.53424-8.90601c-6.65167.23474-12.76624.3493-18.34631.3493-5.34357,0-11.34119-.11456-17.98999-.3493l-.5343,8.90601c3.79889.11737,6.55981.3493,8.28259.69843,1.71991.3493,2.84991.87317,3.38416,1.57178.53424.69843.80145,1.86353.80145,3.49249v45.75208c0,1.63159-.29773,2.79407-.8905,3.49243-.59552.69836-1.75348,1.22241-3.47339,1.57153-1.72272.34937-4.48364.58411-8.28253.69861l.53448,8.90576c6.6488-.23193,12.64642-.34912,17.98981-.34912,5.81677,0,12.0509.11719,18.70251.34912l.53448-8.90576c-3.8017-.1145-6.56262-.34937-8.28253-.69861-1.72272-.34912-2.88068-.87317-3.47345-1.57153-.59552-.69836-.89044-1.86084-.89044-3.49243v-.44263l40.96722-32.83569v33.27832c0,1.63159-.29779,2.79407-.89069,3.49243-.59558.69836-1.7533,1.22241-3.47321,1.57153-1.72272.34937-4.48364.58411-8.28253.69861l.53424,8.90576c6.64899-.23193,12.64642-.34912,17.99005-.34912,5.81677,0,12.05084.11719,18.70251.34912l.53424-8.90576c-3.8017-.1145-6.56238-.34937-8.28253-.69861-1.72272-.34912-2.88049-.87317-3.47321-1.57153Z"/>
        <path d="M330.49799,1041.58258l.00006-.00012c.53448-.69843,1.66144-1.22229,3.38422-1.57159,1.72009-.3493,4.48083-.58124,8.28253-.69843l-.53424-8.90601c-6.65167.23474-12.76624.3493-18.34631.3493-5.8194,0-11.81702-.11456-17.99005-.3493l-.53418,8.90601c3.67932.11719,6.38153.34906,8.10425.69843,1.72015.3493,2.87787.87317,3.47339,1.57159.59271.69867.8905,1.86371.8905,3.49268v21.07697c-1.71265.87402-3.40527,1.59338-5.07635,2.14819-3.50397,1.16504-7.63116,1.74634-12.37921,1.74634-6.65161,0-11.13245-1.24976-13.44794-3.75452-2.31543-2.50208-3.47339-6.89764-3.47339-13.18439v-8.03259c0-2.21021.71246-3.66724,2.13745-4.3656,1.42499-.69861,4.51135-1.16248,9.26227-1.39703l-.53448-8.90601c-4.27466.23474-10.03583.3493-17.27734.3493-6.17584,0-11.99524-.11456-17.45581-.3493l-.53424,8.90601c3.56244.11719,6.14514.34906,7.74811.69843,1.60315.3493,2.69958.87317,3.2951,1.57159.59296.69867.89075,1.86371.89075,3.49268v13.27142c0,14.55414,7.65906,21.82831,22.97717,21.82831,5.22406,0,10.56744-.78589,16.03082-2.35742,2.87799-.82837,5.4856-1.78149,7.8371-2.85229v15.86194c0,1.5144-.32837,2.64941-.97955,3.40515-.65399.75867-1.90094,1.30981-3.7406,1.65906-1.84229.34937-4.66168.58386-8.46057.69836l.53424,8.90601c6.64905-.23193,13.00269-.34937,19.05878-.34937,5.81677,0,11.81439.11731,17.99005.34937l.53424-8.90601c-3.68195-.1145-6.3844-.34912-8.10437-.69836-1.72272-.34937-2.88043-.87317-3.47339-1.57153-.59552-.69861-.89044-1.86084-.89044-3.49268v-45.75189c0-1.62897.26721-2.79407.80145-3.49268Z"/>
        <path d="M436.74585,1094.49426h.00006c-.59552-.69836-.89069-1.86084-.89069-3.49243v-45.75208c0-1.62897.26721-2.79407.80164-3.49249.53424-.69861,1.66144-1.22247,3.38422-1.57178,1.71985-.34906,4.48077-.58105,8.28247-.69843l-.53442-8.90601c-6.65167.23474-12.76599.3493-18.34613.3493-5.34357,0-11.34113-.11456-17.98999-.3493l-.53448,8.90601c3.79907.11737,6.55981.3493,8.28247.69843,1.72015.3493,2.84998.87317,3.38446,1.57178.53424.69843.80145,1.86353.80145,3.49249v.26514l-40.96722,33.51917v-33.7843c0-1.62897.26703-2.79407.80151-3.49249.53424-.69861,1.66144-1.22247,3.38416-1.57178,1.71991-.34906,4.48083-.58105,8.28253-.69843l-.53424-8.90601c-6.65167.23474-12.76617.3493-18.34631.3493-5.34363,0-11.34119-.11456-17.98999-.3493l-.53424,8.90601c3.79889.11737,6.55975.3493,8.28253.69843,1.71991.3493,2.84991.87317,3.38416,1.57178.53418.69843.80145,1.86353.80145,3.49249v45.75208c0,1.63159-.29773,2.79407-.8905,3.49243-.59552.69836-1.75342,1.22241-3.47339,1.57153-1.72272.34937-4.48364.58411-8.28253.69861l.53448,8.90576c6.64886-.23193,12.64648-.34912,17.98987-.34912,5.81677,0,12.0509.11719,18.70245.34912l.53455-8.90576c-3.8017-.1145-6.56268-.34937-8.28259-.69861-1.72266-.34912-2.88068-.87317-3.47339-1.57153-.59546-.69836-.89044-1.86084-.89044-3.49243v-.44263l40.96716-32.83569v33.27832c0,1.63159-.29773,2.79407-.89069,3.49243-.59552.69836-1.75323,1.22241-3.47314,1.57153-1.72272.34937-4.48364.58411-8.28259.69861l.5343,8.90576c6.64899-.23193,12.64642-.34912,17.98999-.34912,5.81677,0,12.0509.11719,18.70251.34912l.5343-8.90576c-3.80176-.1145-6.5625-.34937-8.28259-.69861-1.72266-.34912-2.88049-.87317-3.47314-1.57153Z"/>
        <path d="M479.13739,1030.93035v-.00006c-5.58289,0-11.69751-.11456-18.34625-.3493l-.53424,8.90601c3.79883.11737,6.55981.3493,8.28253.69843,1.71985.3493,2.84991.87317,3.38416,1.57178.53424.69843.80151,1.86353.80151,3.49249v45.75214c0,1.63159-.29785,2.79407-.8905,3.49243-.59558.69836-1.75354,1.22241-3.47339,1.57153-1.72278.34937-4.4837.58411-8.28253.69861l.53448,8.90576c6.6488-.23193,12.76312-.34912,18.34601-.34912,4.86786,0,11.69464.11719,20.48376.34912l.53448-8.90576c-4.51447-.1145-7.74829-.37659-9.70758-.78589-1.95941-.40649-3.2951-1.1051-4.00763-2.09546-.7124-.98767-1.06873-2.64673-1.06873-4.97693v-48.7207h15.67444c3.56238,0,5.93628.23474,7.12476.69861,1.18542.46643,2.04828,1.60168,2.58264,3.40515.5343,1.80634,1.21619,5.50085,2.04828,11.08875l.53442,3.49268,10.33099-.69861-1.60315-27.7655c-10.0943.3493-24.34369.52386-42.74847.52386Z"/>
        <path d="M593.84399,1095.54223l.00006-.00024c-1.18829-.46387-2.02051-1.54175-2.49371-3.23059-.47577-1.68616-.71252-4.5675-.71252-8.64392v-2.09546l.35626-27.41626v-.52386c0-7.44897-2.25696-13.38617-6.76849-17.81201-4.51422-4.42279-11.16309-6.6358-19.94934-6.6358-6.05585,0-11.39941,1.02063-16.03064,3.05609-4.6311,2.03827-8.16559,4.45294-10.5979,7.24695-2.43518,2.79407-3.65143,5.1814-3.65143,7.15967,0,1.9809.80151,3.52252,2.40448,4.62762,1.60315,1.10773,4.30286,1.48431,8.10455,1.13501,1.06866-3.84174,1.78119-6.2265,2.13739-7.15967.35632-.93036,1.12701-1.97827,2.31549-3.14319.94897-.93054,2.61066-1.65906,4.98737-2.18286,2.3739-.52386,4.98737-.78589,7.83704-.78589,11.27997,0,16.92133,5.76263,16.92133,17.28796v.52405l-.07056,6.98694c-9.56879,1.52759-17.44269,3.09973-23.61914,4.71301-7.12476,1.86353-12.67719,4.33838-16.65399,7.42151-3.97998,3.08594-5.9671,7.01526-5.9671,11.78735,0,5.3562,1.98712,9.92639,5.9671,13.70825,3.97681,3.7843,8.87524,5.67542,14.69458,5.67542,4.39185,0,9.02295-1.04797,13.89337-3.14343,4.17194-1.7959,8.12555-3.89307,11.86237-6.28809.21613,1.14172.50415,2.16577.87305,3.0575.89056,2.15564,2.16516,4.22119,3.82971,6.19922,4.03534-1.16504,7.71753-2.15283,11.04321-2.96863l5.87787-1.57153-.5343-6.2865c-2.84998,0-4.87036-.23193-6.05609-.69861ZM578.37317,1089.70227c-7.77557,4.58813-14.79309,6.88721-21.04346,6.88721v.00012c-3.68201,0-6.53186-.98767-8.54956-2.96863-2.02075-1.97803-3.02814-4.24829-3.02814-6.8103,0-3.026,2.07617-5.58813,6.23413-7.68359,4.15527-2.09558,10.62598-3.78174,19.41498-5.06421l7.1405-1.0448-.16846,16.6842Z"/>
        <path d="M691.71765,1096.06579c-1.72278-.34912-2.88049-.87317-3.47339-1.57153h-.00018c-.59558-.69836-.89044-1.86084-.89044-3.49243v-45.75208c0-1.62897.26721-2.79407.80151-3.49249.53442-.69861,1.66144-1.22247,3.38434-1.57178,1.71991-.34906,4.48065-.58105,8.28235-.69843l-.53424-8.90601c-6.65173.23474-12.76624.3493-18.34631.3493-5.34357,0-11.341-.11456-17.98981-.3493l-.53448,8.90601c3.79895.11737,6.55981.3493,8.28253.69843,1.71997.3493,2.84998.87317,3.38416,1.57178.53455.69843.80176,1.86353.80176,3.49249v17.63727h-38.29553v-17.63727c0-1.62897.26703-2.79407.80151-3.49249.5343-.69861,1.6615-1.22247,3.38416-1.57178,1.71991-.34906,4.4809-.58105,8.28259-.69843l-.5343-8.90601c-6.65155.23474-12.76617.3493-18.34625.3493-5.34363,0-11.34125-.11456-17.99005-.3493l-.53424,8.90601c3.79889.11737,6.55975.3493,8.28253.69843,1.71991.3493,2.84998.87317,3.38416,1.57178.53424.69843.80151,1.86353.80151,3.49249v45.75208c0,1.63159-.29773,2.79407-.89044,3.49243-.59558.69836-1.75348,1.22241-3.47339,1.57153-1.72278.34937-4.48364.58411-8.28253.69861l.53442,8.90576c6.64886-.23193,12.64642-.34912,17.98987-.34912,5.81683,0,12.0509.11719,18.70251.34912l.53448-8.90576c-3.8017-.1145-6.56262-.34937-8.28259-.69861-1.72272-.34912-2.88062-.87317-3.47339-1.57153-.59552-.69836-.89044-1.86084-.89044-3.49243v-17.98657h38.29553v17.98657c0,1.63159-.29797,2.79407-.89075,3.49243-.59552.69836-1.7533,1.22241-3.47339,1.57153-1.72272.34937-4.48346.58411-8.28235.69861l.5343,8.90576c6.6488-.23193,12.64642-.34912,17.99005-.34912,5.81653,0,12.0509.11719,18.70227.34912l.53448-8.90576c-3.8017-.1145-6.56268-.34937-8.28253-.69861Z"/>
        <path d="M9.48877,132.01837c-.42188,2.00427-1.29279,3.42798-2.60992,4.27032-1.31854.84515-3.61249,1.52948-6.87885,2.05646l.47339,3.79553c5.48157-.42047,14.02222-.63281,25.62189-.63281l20.24463.15802c1.89777.10657,4.42908.15875,7.59106.15875,8.22455,0,16.73804-1.73975,25.54321-5.21924,8.80237-3.47943,16.29047-9.22565,22.4585-17.23926h.00006c6.16803-8.01221,9.25281-18.2926,9.25281-30.84113,0-11.1748-2.32111-20.48206-6.95892-27.91504-4.64215-7.43372-10.65149-12.89038-18.03088-16.36987-7.3808-3.47937-15.28931-5.21912-23.72412-5.21912-5.16699,0-10.43842.15808-15.81561.47473-3.16339.10596-6.43262.2124-9.80627.31616-3.37506.10645-6.95892.15796-10.75446.15796-11.49384,0-19.61115-.21021-24.35626-.63281l-.79083,4.1123,3.16339.94885c2.21381.63281,3.66254,1.2406,4.349,1.81921.685.58057,1.13263,1.63599,1.3443,3.16333.21021,1.52954.31604,4.45557.31604,8.77734v63.5799c0,4.85095-.21167,8.27893-.63214,10.2804ZM48.55377,46.61267c8.54059,0,15.34222,3.66479,20.40338,10.99194,5.06116,7.33008,7.64252,19.16418,7.74982,35.50684.10297,27.62616-9.22852,41.4375-27.99445,41.4375-2.42694,0-4.349-.05151-5.77338-.15802-.30829-.02246-.5932-.047-.86951-.0722V47.20813c2.36511-.38232,4.5426-.59546,6.48413-.59546Z"/>
        <path d="M137.43811,141.11248c5.79767,2.79297,12.2818,4.19165,19.45386,4.19165,9.06689,0,16.86816-2.18951,23.40662-6.56354,6.53705-4.37469,10.91321-10.20172,13.12701-17.47668l-2.84595-3.32141c-2.74292,1.26489-5.43298,2.16229-8.06726,2.6886-2.63568.52911-5.74762.79083-9.33148.79083-9.27856,0-16.47485-2.08081-21.58752-6.24744-2.69751-2.19562-4.67578-5.13983-5.95032-8.81671l44.30304-.43542c.31604-3.05682.47479-6.4848.47479-10.28033,0-8.43408-2.87451-15.04987-8.61926-19.84918-5.74908-4.79663-13.7348-7.19629-23.96155-7.19629-6.43262,0-12.65222,1.60876-18.66296,4.82446-6.00934,3.21704-10.91315,7.90771-14.70868,14.07581s-5.6933,13.41876-5.6933,21.74701c0,7.59174,1.66034,14.10303,4.98108,19.53247,3.32214,5.43158,7.88135,9.54388,13.68188,12.33618ZM146.61084,80.53796c1.79193-3.63757,4.42908-5.45667,7.90857-5.45667,2.63428,0,4.50769,1.2406,5.61462,3.71692,1.10687,2.47827,1.66034,5.61456,1.66034,9.4101,0,3.75012-.30627,7.91858-.88281,12.46088l-16.51923.57361c-.31256-2.02094-.47009-4.20331-.47009-6.54968,0-5.79767.89526-10.51776,2.6886-14.15515Z"/>
        <path d="M205.91907,88.92047c.42047,1.95209.63214,4.77155.63214,8.46124v28.78461c0,4.32465-.63214,7.19635-1.89777,8.62-1.26422,1.42371-3.21637,2.50555-5.85205,3.24207l.94958,4.1123c5.37726-.3161,12.33618-.47479,20.87677-.47479,6.22101,0,11.96576.10651,17.24005.31677l4.58636.15802.79083-4.1123c-1.58173-.63281-2.7959-1.23773-3.63824-1.81836-.84515-.57849-1.50159-1.63391-1.97638-3.16345-.47479-1.52734-.71222-3.76831-.71222-6.7215v-39.03461c2.64539-1.59705,5.3338-2.40363,8.06592-2.40363,6.64288,0,9.96503,4.06079,9.96503,12.17883v29.2594c0,2.95319-.23743,5.19415-.71222,6.7215-.47479,1.52954-1.13409,2.58496-1.97644,3.16339-.84521.58063-2.05652,1.18561-3.63818,1.81842l.79083,4.1123,4.58636-.15802c5.27142-.21027,11.01758-.31677,17.23999-.31677,8.54065,0,15.49957.15875,20.87677.47479l.94818-4.1123c-2.63574-.73651-4.58636-1.81836-5.85205-3.24207h.00006c-1.26422-1.42371-1.89777-4.29535-1.89777-8.62v-37.48328c0-6.95892-1.95209-12.07233-5.85199-15.34149-3.90137-3.26709-8.75232-4.9032-14.54999-4.9032-9.23724,0-18.56927,4.74207-27.99451,14.20459v-14.36255l-2.21381-1.42371c-9.17273,3.2699-21.4574,6.59143-36.85114,9.96423v3.32153c2.63428,1.47803,4.53204,2.82227,5.6933,4.0329,1.15985,1.21344,1.95068,2.79517,2.37256,4.74512Z"/>
        <path d="M330.5448,132.17639c-.42188,1.8985-1.23993,3.19055-2.45123,3.87488-1.21411.68719-3.55951,1.3443-7.039,1.97711l.47479,4.1123c5.16559-.31604,13.70618-.47479,25.62189-.47479,11.91425,0,20.4549.15875,25.62189.47479l.47479-4.1123c-3.47943-.63281-5.8277-1.28992-7.039-1.97711-1.21271-.68433-2.03076-1.97644-2.45117-3.87488-.42188-1.89777-.63214-5.3772-.63214-10.43842v-26.88684h36.37634v26.88684c0,5.06122-.21313,8.54065-.63214,10.43842-.42328,1.8985-1.24133,3.19055-2.45117,3.87488-1.21417.68719-3.55957,1.3443-7.039,1.97711l.47479,4.1123c5.16553-.31604,13.70471-.47479,25.62189-.47479,11.91425,0,20.4549.15875,25.62189.47479l.47479-4.1123c-3.47949-.63281-5.8277-1.28992-7.039-1.97711-1.21271-.68433-2.03076-1.97644-2.45123-3.87488-.42188-1.89777-.63208-5.3772-.63208-10.43842v-63.5799c0-3.89917.15729-6.61499.47333-8.14526.3175-1.52661,1.05402-2.73999,2.21527-3.63745,1.15839-.89453,3.32068-1.87061,6.48413-2.92603l-.79089-4.1123c-4.74512.42261-12.8653.63281-24.35626.63281-11.49384,0-19.61249-.21021-24.3562-.63281l-.79083,4.1123c3.16339,1.05542,5.32288,2.03149,6.48413,2.92603,1.15839.89746,1.89777,2.11084,2.21381,3.63745.31744,1.53027.47479,4.24609.47479,8.14526v28.46851h-36.37634v-28.46851c0-3.89917.15875-6.61499.47479-8.14526.31604-1.52661,1.05255-2.73999,2.21381-3.63745,1.15839-.89453,3.32074-1.87061,6.48413-2.92603l-.79083-4.1123c-4.74371.42261-12.86536.63281-24.35626.63281-11.49384,0-19.61108-.21021-24.3562-.63281l-.79089,4.1123c3.16345,1.05542,5.32288,2.03149,6.48413,2.92603,1.15985.89746,1.89777,2.11084,2.21527,3.63745.31604,1.53027.47333,4.24609.47333,8.14526v63.5799c0,5.06122-.21167,8.54065-.63208,10.43842Z"/>
        <path d="M467.35077,106.31781c-6.74872,1.95209-11.86139,4.40332-15.34082,7.35431-3.47949,2.95319-5.21991,6.69727-5.21991,11.22925,0,3.16345.81512,6.32611,2.45117,9.4895,1.63324,3.16345,4.0058,5.77264,7.11768,7.82916,3.10907,2.05579,6.72156,3.08405,10.83313,3.08405,4.32324,0,8.48627-1.08258,12.49487-3.2428,3.18774-1.71844,6.64813-4.33832,10.37128-7.82886.32971,1.59064.79425,3.04639,1.41138,4.34943,1.42438,3.00537,3.55957,5.50879,6.40546,7.51306,4.74512-1.37146,8.85669-2.47906,12.33618-3.32141,3.47943-.84308,8.69934-1.89777,15.65826-3.16339l-.31604-4.74445c-2.32104-.31677-3.98138-.87018-4.98248-1.66107-1.0025-.79083-1.63605-2.13513-1.89777-4.0329-.26459-1.89777-.34326-4.90314-.23743-9.01544l.63354-27.20288c.2088-8.43475-1.92633-14.60291-6.40546-18.505-4.4834-3.89917-12.36475-5.85193-23.64551-5.85193-5.3772,0-11.22925.87024-17.55603,2.60999-6.32538,1.73975-11.62396,4.08716-15.89429,7.03833-4.27026,2.95312-6.40546,6.16803-6.40546,9.64746,0,2.63641,1.42297,4.66577,4.27032,6.08875,2.84741,1.42365,8.01154,2.18945,15.49957,2.29388l4.27032-12.65295c1.26569-4.11224,3.74121-6.16803,7.43372-6.16803,3.26642,0,5.6933,1.66028,7.27502,4.98181,1.58167,3.32141,2.31818,8.62,2.21381,15.89496l-.06915,3.16534c-9.22638,1.50665-16.79718,3.11401-22.70538,4.82184ZM485.06415,131.06945c-2.84595,0-5.11554-1.07971-6.80017-3.24207-1.68756-2.16022-2.53131-4.82379-2.53131-7.98718,0-2.42401.79083-4.5592,2.37256-6.40546,1.58167-1.84344,4.05865-3.08405,7.43372-3.71686l4.35352-.72534-.39929,18.28137c-.02032.87085-.00354,1.70447.03259,2.51886-1.63568.84924-3.1239,1.27667-4.46161,1.27667Z"/>
        <path d="M553.07159,106.31781c-6.74872,1.95209-11.86139,4.40332-15.34082,7.35431-3.47943,2.95319-5.21991,6.69727-5.21991,11.22925,0,3.16345.81519,6.32611,2.45123,9.4895,1.63318,3.16345,4.00574,5.77264,7.11768,7.82916,3.10907,2.05579,6.72156,3.08405,10.83313,3.08405,4.32324,0,8.48627-1.08258,12.49487-3.2428,3.18774-1.71844,6.64813-4.33832,10.37134-7.82886.32971,1.59064.79425,3.04639,1.41138,4.34943,1.42438,3.00537,3.55951,5.50879,6.40546,7.51306,4.74506-1.37146,8.85669-2.47906,12.33612-3.32141,3.47949-.84308,8.6994-1.89777,15.65833-3.16339l-.31604-4.74445c-2.32104-.31677-3.98138-.87018-4.98248-1.66107-1.0025-.79083-1.63605-2.13513-1.89777-4.0329-.26459-1.89777-.34326-4.90314-.23743-9.01544l.63354-27.20288c.2088-8.43475-1.92633-14.60291-6.40546-18.505-4.4834-3.89917-12.36481-5.85193-23.64551-5.85193-5.3772,0-11.22919.87024-17.55603,2.60999-6.32538,1.73975-11.62396,4.08716-15.89429,7.03833-4.27032,2.95312-6.40546,6.16803-6.40546,9.64746,0,2.63641,1.42297,4.66577,4.27032,6.08875,2.84735,1.42365,8.01147,2.18945,15.49957,2.29388l4.27032-12.65295c1.26562-4.11224,3.74115-6.16803,7.43372-6.16803,3.26636,0,5.69324,1.66028,7.27496,4.98181,1.58173,3.32141,2.31818,8.62,2.21381,15.89496l-.06915,3.16534c-9.22638,1.50665-16.79724,3.11401-22.70544,4.82184ZM570.78503,131.06945c-2.84589,0-5.11548-1.07971-6.80017-3.24207-1.68756-2.16022-2.53131-4.82379-2.53131-7.98718,0-2.42401.79083-4.5592,2.37256-6.40546,1.58173-1.84344,4.05865-3.08405,7.43372-3.71686l4.35352-.72534-.39923,18.28137h-.00006c-.02032.87079-.00348,1.70447.03265,2.51886-1.63574.8493-3.1239,1.27667-4.46167,1.27667Z"/>
        <path d="M614.59375,161.43573c0,5.58746,2.71436,9.69977,8.14594,12.33691,5.42871,2.63428,12.99396,3.95355,22.69586,3.95355,11.0705,0,20.71802-1.76691,28.94263-5.29785,8.22455-3.53381,14.55139-7.74982,18.979-12.65295,4.42908-4.90314,6.64288-9.20062,6.64288-12.88959,0-4.74512-1.55743-8.59283-4.66504-11.54602-3.11194-2.95032-7.51239-4.69006-13.20709-5.21918l-26.72882-2.53058c-5.6933-.52631-9.59607-1.21063-11.70404-2.05579-2.10944-.84308-3.16199-2.05652-3.16199-3.63824,0-1.19336.27124-2.17676.81293-2.95306,3.80939.59747,8.12341.89728,12.94611.89728,4.21594,0,9.17273-.71149,14.86743-2.13513,5.6933-1.42371,10.80591-4.03296,15.34082-7.82916,4.53204-3.79553,6.80164-8.90814,6.80164-15.34082,0-5.27142-1.66174-9.88495-4.98248-13.83917-.435-.51782-.88977-1.01721-1.35992-1.50244h11.24487v-7.43359h-22.74353c-.06451-.02515-.12494-.05396-.18976-.07861-5.37726-2.05664-11.1778-3.08484-17.39734-3.08484-10.86169,0-19.90289,2.37256-27.12494,7.11768-7.22351,4.74438-10.83313,11.49384-10.83313,20.24396,0,7.2757,2.82019,13.0755,8.46198,17.39801,2.46655,1.89166,5.6347,3.36902,9.50421,4.43262-2.5188,1.58832-4.53406,2.90857-6.02466,3.94928-2.26959,1.58173-4.1402,3.45514-5.61462,5.61462-1.4787,2.16235-2.21521,4.66577-2.21521,7.51312,0,4.42834,1.47589,7.82843,4.42908,10.20099.46234.37177.99524.71973,1.56122,1.05658-3.69348,2.17242-6.6261,4.27319-8.75757,6.29773-3.11194,2.95032-4.66644,5.95575-4.66644,9.01471ZM654.13342,73.18347c2.53131,0,4.66644,2.50562,6.40546,7.51245,1.74048,5.00897,2.60999,11.09839,2.60999,18.26752,0,10.12231-2.31964,15.1828-6.95892,15.1828-2.42694,0-4.48199-2.00146-6.16809-6.01007-1.6875-4.00574-2.52985-10.80664-2.52985-20.40198,0-9.69965,2.21381-14.55072,6.64142-14.55072ZM641.64001,150.04852l23.88147,3.00537c4.63928.63208,8.11877,1.42291,10.43842,2.37183,2.31818.94958,3.47943,2.26672,3.47943,3.95428,0,2.42401-1.52881,4.21594-4.58636,5.3772-3.05902,1.15912-6.95892,1.73975-11.70404,1.73975-6.43262,0-12.09875-.58063-17.00116-1.73975-4.90387-1.16125-8.6994-2.6886-11.388-4.58636s-4.0329-4.00861-4.0329-6.32611c0-2.1416.61969-4.04681,1.85022-5.72021,2.5097.81372,5.52716,1.45618,9.06293,1.92401Z"/>
        <path d="M24.52411,436.12567v.00006c4.1076,0,8.23639-.92438,12.38629-2.77313,4.14771-1.84821,7.59894-4.70215,10.3526-8.56512,2.7514-3.86078,4.12762-8.62695,4.12762-14.29578,0-4.1076-1.08984-7.49646-3.26514-10.1676-2.17859-2.66895-5.85382-5.27826-11.03009-7.82574l-11.70764-5.79254c-3.94385-1.97186-6.55371-3.32751-7.82629-4.06689-1.27484-.73944-2.46503-1.92957-3.57385-3.57385-1.10986-1.64258-1.66376-3.77826-1.66376-6.40875,0-3.77777,1.25146-6.83954,3.75879-9.1814,2.50519-2.34131,6.18152-3.51251,11.03015-3.51251,4.5177,0,8.33777,1.1712,11.46136,3.51251,3.1214,2.34192,5.17633,6.47009,6.16144,12.3858h3.08124c.57391-7.31146,1.31384-13.31018,2.21875-17.99335-5.8349-2.95752-12.1601-4.43634-18.979-4.43634-5.01245,0-9.61261.98566-13.80377,2.95758-4.19006,1.97186-7.51764,4.78735-9.98151,8.44196-2.46503,3.6568-3.69751,7.90875-3.69751,12.75574,0,4.60181,1.27264,8.29932,3.82007,11.09137,2.54639,2.79431,6.57263,5.4649,12.07764,8.01074l8.9964,4.19006c5.09381,2.30115,8.50385,4.60236,10.22888,6.90186,1.72614,2.30121,2.58868,5.29944,2.58868,8.9964,0,3.77997-1.1712,6.90137-3.51251,9.36633-2.34131,2.46503-6.1001,3.69751-11.27637,3.69751-5.50507,0-10.1275-1.3963-13.86511-4.19061-3.73871-2.79205-6.18256-6.98212-7.33258-12.57019h-2.83502c-.73883,7.39447-1.56122,13.26947-2.46387,17.62335,4.60016,1.97186,8.76904,3.36987,12.50891,4.19006,3.73761.82019,7.74268,1.23248,12.0152,1.23248Z"/>
        <path d="M86.8847,388.55456c1.97137,0,3.73767.20618,5.29889.61627,1.56012.41229,3.10022,1.00684,4.62244,1.78687,1.51892.78174,3.05896,1.58301,4.62134,2.4032v-.00006c2.21759-2.29895,3.32751-4.31317,3.32751-6.03882,0-1.64258-.61627-2.87512-1.84875-3.69696-.98621-.73938-2.44604-1.33441-4.37506-1.78741-1.93121-.45026-4.12878-.67755-6.59375-.67755-5.34125,0-10.29016,1.10938-14.85022,3.32751-4.56006,2.2182-8.23859,5.46497-11.03009,9.73578-2.79376,4.27307-4.19006,9.40869-4.19006,15.40515,0,5.75244,1.2113,10.59888,3.63507,14.54266,2.42267,3.94379,5.52509,6.90131,9.30505,8.87323,3.77777,1.97192,7.72156,2.95813,11.83136,2.95813,3.77777,0,7.33258-.55438,10.66016-1.66376,3.32751-1.10938,6.05774-2.65002,8.19513-4.62189l-1.3551-3.20386c-3.77997,1.39801-7.72375,2.09503-11.83136,2.09503-5.9151,0-10.74371-1.8894-14.48132-5.66937-3.73871-3.77777-5.60754-9.36633-5.60754-16.7608,0-6.40826,1.41748-10.94708,4.2525-13.61829,2.83386-2.66888,6.30402-4.00507,10.41382-4.00507Z"/>
        <path d="M130.88037,345.54339l-1.23248-.8631c-5.01251,2.21875-11.33771,4.56006-18.979,7.02509v1.72559c3.20386.90485,5.38025,1.62311,6.53137,2.15631,1.15002.53546,1.88885,1.17126,2.21875,1.91064.32764.73938.49255,2.01422.49255,3.82007v63.34631c0,2.13739-.55389,3.67798-1.66376,4.62134-1.10883.94556-3.26514,1.70612-6.47009,2.28003l.61621,3.20435c4.60016-.16382,8.79022-.24628,12.57019-.24628,3.77887,0,7.96893.08246,12.57135.24628l.61621-3.20435c-3.2049-.57391-5.36127-1.33447-6.47003-2.28003l-.00006-.00006c-1.10992-.9433-1.66376-2.48395-1.66376-4.62134v-31.53485c1.97876-1.28192,4.03046-2.32092,6.16138-3.09607,2.7113-.98572,5.25769-1.47882,7.6413-1.47882,8.05139,0,12.07764,4.10931,12.07764,12.32391v23.78589c0,2.13739-.55493,3.67798-1.66376,4.62134-1.10883.94556-3.26624,1.70612-6.47009,2.28003l.61627,3.20435c4.60016-.16382,8.79022-.24628,12.57019-.24628,3.77887,0,7.96893.08246,12.57129.24628l.61627-3.20435c-3.20496-.57391-5.36127-1.33447-6.47009-2.28003-1.10992-.9433-1.66376-2.48395-1.66376-4.62134v-27.85278c0-5.25708-1.47882-9.28333-4.4375-12.07764-2.95752-2.79205-6.81995-4.19006-11.58392-4.19006-4.60242,0-8.93512,1.23254-13.00256,3.69751-2.77319,1.68066-5.08685,3.40118-6.96265,5.15857v-24.8775c0-8.46149.28644-14.78894.86255-18.979Z"/>
        <path d="M222.13794,385.16516v.00006c-3.65625-3.08069-8.19513-4.62134-13.61768-4.62134-4.84869,0-9.44885,1.25366-13.80273,3.75879-4.35608,2.50739-7.86859,6.03882-10.53754,10.59888-2.6712,4.56-4.00507,9.79761-4.00507,15.71326,0,5.66888,1.19012,10.39441,3.57379,14.17267,2.38141,3.77997,5.50281,6.5932,9.36633,8.44196,3.86023,1.84875,8.05139,2.77313,12.57019,2.77313,4.02515,0,8.07257-.6781,12.14008-2.03375,4.06635-1.35565,7.16656-2.81323,9.30389-4.37506l-1.10876-3.08069c-1.7251.57562-3.90369,1.10883-6.53137,1.60193-2.6311.4931-5.17633.73938-7.6413.73938-3.45123,0-6.84009-.7182-10.1676-2.15686-3.32751-1.4364-6.12128-3.75879-8.38013-6.96265-2.20874-3.13019-3.3291-7.1673-3.38013-12.10199l37.20929-.22247c.32764-3.1214.49371-6.2851.49371-9.4895,0-5.42255-1.82983-9.67444-5.48499-12.75574ZM205.56268,387.5689c3.53149,0,6.36536.82184,8.50269,2.46442,2.13629,1.64484,3.24512,4.35614,3.32758,8.13385,0,1.20508-.07245,2.56909-.20276,4.06024l-27.05853.83417c.49396-4.68848,1.84973-8.28156,4.09222-10.74823,2.87512-3.16205,6.65509-4.74445,11.33881-4.74445Z"/>
        <path d="M249.68201,385.84326c.98627-.41003,2.66895-.65692,5.05371-.73938l-.24738-3.20435-13.18646.12311c-4.19006,0-6.98383-.0401-8.38013-.12311l-.36993,3.32751c1.88885.65857,3.2038,1.76794,3.94379,3.32751l21.93652,46.46179h6.16248l16.2677-35.98608c1.8064-4.0246,3.55267-7.14819,5.23761-9.36633,1.68268-2.21875,3.55261-3.77832,5.60754-4.68317l-.24628-3.20441c-2.62994.16553-5.21863.24628-7.76385.24628l-11.58508-.24628-.37,3.20441c1.97247.49255,3.30634,1.10883,4.00507,1.84821.69763.73993,1.04865,1.80859,1.04865,3.20435,0,1.23254-.20612,2.7113-.61621,4.43689-.41235,1.7251-1.43872,4.4787-3.0813,8.25702l-9.1402,20.93402c-.34332-1.18475-.7453-2.25134-1.21234-3.18701l-13.43274-29.08527c-.73999-1.55957-1.10992-2.79205-1.10992-3.69696,0-.82074.49365-1.4364,1.47876-1.84875Z"/>
        <path d="M341.62042,397.92089c0-5.42255-1.82977-9.67444-5.48492-12.75574l-.00006.00006c-3.65625-3.08069-8.19513-4.62134-13.61768-4.62134-4.84869,0-9.44885,1.25366-13.80273,3.75879-4.35608,2.50739-7.86859,6.03882-10.53754,10.59888-2.67114,4.56-4.00507,9.79761-4.00507,15.71326,0,5.66888,1.19019,10.39441,3.57379,14.17267,2.38147,3.77997,5.50281,6.5932,9.36639,8.44196,3.86017,1.84875,8.05139,2.77313,12.57019,2.77313,4.02515,0,8.07257-.6781,12.14001-2.03375,4.06635-1.35565,7.16656-2.81323,9.30396-4.37506l-1.10883-3.08069c-1.72504.57562-3.90369,1.10883-6.53137,1.60193-2.63104.4931-5.17627.73938-7.6413.73938-3.45123,0-6.84009-.7182-10.1676-2.15686-3.32751-1.4364-6.12128-3.75879-8.38013-6.96265-2.20874-3.13019-3.3291-7.1673-3.38013-12.10199l37.20935-.22247c.32764-3.1214.49365-6.2851.49365-9.4895ZM319.56018,387.5689c3.53143,0,6.3653.82184,8.50269,2.46442,2.13629,1.64484,3.24512,4.35614,3.32758,8.13385,0,1.20508-.07245,2.56909-.20276,4.06024l-27.05853.83417c.49396-4.68848,1.84973-8.28156,4.09222-10.74823,2.87506-3.16205,6.65509-4.74445,11.33881-4.74445Z"/>
        <path d="M350.24689,387.56884v1.7251c2.62775.82239,4.53888,1.60187,5.73016,2.34186,1.19012.73938,1.97241,1.49994,2.34241,2.28003.36884.78174.55383,1.86932.55383,3.26569v27.48279c0,2.13739-.55383,3.67798-1.66376,4.62134-1.10883.94556-3.26514,1.70612-6.47009,2.28003l.61627,3.20435c4.60016-.16382,8.79022-.24628,12.57019-.24628,3.77881,0,7.96887.08246,12.57129.24628l.61621-3.20435c-3.20496-.57391-5.36127-1.33447-6.47009-2.28003h.00006c-1.10986-.94336-1.66376-2.48395-1.66376-4.62134v-31.46698c4.26337-3.17065,8.94434-4.76593,14.04895-4.76593,3.77881,0,6.69519.94556,8.75006,2.83441,2.05273,1.89111,3.0813,5.17633,3.0813,9.8595v23.539c0,2.13739-.55499,3.67798-1.66376,4.62134-1.10883.94556-3.2663,1.70612-6.47009,2.28003l.61621,3.20435c4.60016-.16382,8.79022-.24628,12.57019-.24628,3.77887,0,7.96893.08246,12.57129.24628l.61627-3.20435c-3.20496-.57391-5.36133-1.33447-6.47009-2.28003-1.10986-.9433-1.66376-2.48395-1.66376-4.62134v-27.85278c0-5.09326-1.54114-9.07715-4.62244-11.95447-3.08014-2.87457-7.20886-4.31323-12.38519-4.31323-6.23535,0-12.56201,3.09357-18.97894,9.26331v-8.40076l-1.23248-.86255c-2.46503,1.315-4.93005,2.4455-7.39502,3.3894-2.46503.94495-5.8349,2.15631-10.10522,3.63562Z"/>
        <path d="M420.98541,387.56884v1.7251c2.71124.90485,4.57898,1.62366,5.60754,2.15686,1.02637.53546,1.68268,1.19183,1.97131,1.97192.28754.78174.43127,2.03314.43127,3.75879v27.48279c0,2.13739-.55383,3.67798-1.66376,4.62134-1.10883.94556-3.26514,1.70612-6.47009,2.28003l.61627,3.20435c4.60016-.16382,8.79022-.24628,12.57019-.24628,3.77881,0,7.96887.08246,12.57129.24628l.61621-3.20435c-3.20496-.57391-5.36127-1.33447-6.47009-2.28003l.00006-.00006c-1.10986-.9433-1.66376-2.48395-1.66376-4.62134v-24.27838c0-8.46149.28638-14.78894.86255-18.97955l-1.23254-.86249c-2.7113,1.23248-7.43738,3.1236-14.17267,5.66937l-3.57379,1.35565Z"/>
        <path d="M433.18555,365.50866c2.30011,0,4.0675-.69702,5.29999-2.09558,1.23254-1.39575,1.84875-3.1615,1.84875-5.29883,0-1.97192-.65857-3.63568-1.97241-4.99133-1.315-1.35565-2.91748-2.03375-4.80634-2.03375-1.97131,0-3.65625.6781-5.05255,2.03375-1.39856,1.35565-2.09503,3.18488-2.09503,5.48389,0,1.89111.65637,3.51251,1.97131,4.86816v-.00006c1.31384,1.35565,2.91522,2.03375,4.80627,2.03375Z"/>
        <path d="M472.62347,380.54382c-2.46503,1.315-4.93005,2.4455-7.39502,3.3894-2.46503.94495-5.8349,2.15631-10.10522,3.63562v1.7251c2.62775.82239,4.53888,1.60187,5.73016,2.34186,1.19012.73938,1.97241,1.49994,2.34241,2.28003.36884.78174.55383,1.86932.55383,3.26569v27.48279c0,2.13739-.55383,3.67798-1.66376,4.62134-1.10883.94556-3.26514,1.70612-6.47009,2.28003l.61627,3.20435c4.60016-.16382,8.79022-.24628,12.57019-.24628,3.77881,0,7.96887.08246,12.57129.24628l.61621-3.20435c-3.20496-.57391-5.36127-1.33447-6.47009-2.28003h.00006c-1.10986-.94336-1.66376-2.48395-1.66376-4.62134v-31.46704c4.26337-3.17065,8.94427-4.76587,14.04889-4.76587,3.77881,0,6.69519.94556,8.75006,2.83441,2.05273,1.89111,3.0813,5.17633,3.0813,9.8595v23.539c0,2.13739-.55499,3.67798-1.66376,4.62134-1.10883.94556-3.2663,1.70612-6.47009,2.28003l.61621,3.20435c4.60016-.16382,8.79022-.24628,12.57019-.24628,3.77887,0,7.96893.08246,12.57129.24628l.61627-3.20435c-3.20496-.57391-5.36127-1.33447-6.47003-2.28003h-.00006c-1.10986-.9433-1.66376-2.48395-1.66376-4.62134v-27.85278c0-5.09326-1.54114-9.07715-4.62244-11.95447-3.08014-2.87457-7.20886-4.31323-12.38519-4.31323-6.23529,0-12.56201,3.09351-18.97888,9.26324v-8.4007l-1.23248-.86255Z"/>
        <path d="M522.6568,448.44958c0,4.76453,2.15747,8.21521,6.47009,10.3526,4.31372,2.13568,9.75525,3.20435,16.33008,3.20435,5.58636,0,10.70026-.9054,15.34277-2.71124,4.64136-1.80865,8.29767-4.21179,10.96881-7.21002,2.66895-2.99994,4.00507-6.22327,4.00507-9.6745,0-3.86243-1.29382-6.90131-3.88141-9.11951-2.58868-2.21869-6.84003-3.77826-12.75629-4.68317l-14.41895-2.21869c-4.19006-.65637-6.2851-2.09503-6.2851-4.31323,0-1.06702.38892-2.15686,1.1712-3.26569.35437-.50464.84906-1.1394,1.45062-1.87347,1.99237.37592,4.14886.5791,6.49817.5791,3.77777,0,7.47528-.77948,11.09143-2.34131,3.61395-1.56012,6.55145-3.75879,8.8114-6.59375,2.25885-2.83441,3.38995-6.0578,3.38995-9.6745,0-3.12134-1.10992-6.05774-3.32751-8.8114-.66443-.8241-1.39935-1.59436-2.18903-2.32275,1.46613.10876,3.09344.16595,4.90033.16595h6.16138v-5.66888h-20.57727c-2.70782-.90002-5.50128-1.35565-8.3844-1.35565-4.02625,0-7.68359.82184-10.96881,2.46442-3.28625,1.64484-5.89612,3.92487-7.82513,6.84009-1.93121,2.91742-2.89624,6.22375-2.89624,9.92072,0,5.09552,1.91003,9.2644,5.7301,12.50891,1.60645,1.36493,3.50171,2.42499,5.65253,3.2157l-.16748.17371c-2.54742,2.54749-4.35608,4.56006-5.42255,6.03882-1.06866,1.47882-1.60248,3.08124-1.60248,4.80634,0,2.21875.94385,3.98615,2.83496,5.29944.69727.4856,1.35718.87311,1.99872,1.21283-3.15765,1.81976-5.79767,3.75653-7.91492,5.81219-2.79376,2.71124-4.19006,5.79193-4.19006,9.24261ZM539.29443,389.91021c2.29901-2.2182,5.05261-3.32758,8.25757-3.32758,3.77771,0,6.92029,1.23254,9.42761,3.69751,2.50513,2.46448,3.75879,5.58807,3.75879,9.36639,0,3.69696-1.06873,6.71637-3.20386,9.05823-2.13733,2.34131-4.80627,3.51196-8.01123,3.51196-3.86243,0-7.10748-1.25146-9.73633-3.75879-2.62994-2.50513-3.94269-5.56525-3.94269-9.1814,0-4.0246,1.14893-7.14819,3.45013-9.36633ZM538.3031,434.60608l19.23151,3.24524c6.07892,1.06647,9.12006,3.73761,9.12006,8.01068,0,3.28467-1.56232,5.66882-4.68372,7.14764-3.12366,1.47876-6.82111,2.21869-11.09143,2.21869-12.65375,0-18.97894-3.41052-18.97894-10.22943,0-3.53394,2.13757-6.99713,6.40253-10.39282Z"/>
        <path d="M626.91803,426.51306c-1.72504.57562-3.90369,1.10883-6.53137,1.60193-2.63104.4931-5.17627.73938-7.6413.73938-3.45123,0-6.84009-.7182-10.1676-2.15686-3.32751-1.4364-6.12128-3.75879-8.38013-6.96265-2.2088-3.13019-3.3291-7.1673-3.38013-12.10199l37.20929-.22247c.32764-3.1214.49365-6.2851.49365-9.4895,0-5.42255-1.82983-9.67444-5.48499-12.75574l.00006.00006c-3.65625-3.08069-8.19513-4.62134-13.61768-4.62134-4.84863,0-9.44879,1.25366-13.80267,3.75879-4.35608,2.50739-7.86859,6.03882-10.53754,10.59888-2.67114,4.56-4.00507,9.79761-4.00507,15.71326,0,5.66888,1.19012,10.39441,3.57379,14.17267,2.38141,3.77997,5.50281,6.5932,9.36633,8.44196,3.86023,1.84875,8.05139,2.77313,12.57019,2.77313,4.02509,0,8.07251-.6781,12.14001-2.03375,4.06635-1.35565,7.16656-2.81323,9.30396-4.37506l-1.10883-3.08069ZM606.46027,387.5689c3.53143,0,6.3653.82184,8.50269,2.46442,2.13623,1.64484,3.24506,4.35614,3.32751,8.13385,0,1.20508-.07239,2.56909-.2027,4.06024l-27.05853.83417c.49396-4.68848,1.84973-8.28156,4.09222-10.74823,2.87512-3.16205,6.65509-4.74445,11.33881-4.74445Z"/>
        <path d="M637.14691,389.29394c2.62769.82239,4.53882,1.60187,5.7301,2.34186,1.19012.73938,1.97241,1.49994,2.34241,2.28003.36884.78174.55383,1.86932.55383,3.26569v27.48279c0,2.13739-.55383,3.67798-1.66376,4.62134-1.10883.94556-3.26514,1.70612-6.47009,2.28003l.61627,3.20435c4.60016-.16382,8.79022-.24628,12.57019-.24628,3.77887,0,7.96893.08246,12.57129.24628l.61627-3.20435c-3.20496-.57391-5.36127-1.33447-6.47009-2.28003-1.10992-.94336-1.66376-2.48395-1.66376-4.62134v-31.46704c4.26343-3.17065,8.94434-4.76587,14.04889-4.76587,3.77887,0,6.69519.94556,8.75012,2.83441,2.05267,1.89111,3.08124,5.17633,3.08124,9.8595v23.539c0,2.13739-.55493,3.67798-1.66376,4.62134-1.10883.94556-3.26624,1.70612-6.47009,2.28003l.61627,3.20435c4.60016-.16382,8.79022-.24628,12.57019-.24628,3.77887,0,7.96893.08246,12.57129.24628l.61627-3.20435c-3.20496-.57391-5.36127-1.33447-6.47009-2.28003-1.10992-.9433-1.66376-2.48395-1.66376-4.62134v-27.85278c0-5.09326-1.5412-9.07715-4.62244-11.95447-3.08014-2.87457-7.20892-4.31323-12.38519-4.31323-6.23529,0-12.56207,3.09357-18.97894,9.26331v-8.40076l-1.23248-.86255c-2.46503,1.315-4.92999,2.4455-7.39502,3.3894-2.46497.94495-5.83484,2.15631-10.10516,3.63562v1.7251Z"/>
        <path d="M10.58197,290.05224c-.51617.68835-1.5484,1.20447-3.0968,1.5484-1.5484.34448-4.04388.57556-7.48517.68835l.51617,8.77606c5.27533-.22864,11.06921-.34387,17.37927-.34387,7.3399,0,14.9115.11523,22.71472.34387l.51611-8.77606c-6.42645-.2287-10.84125-.80121-13.25024-1.72064-2.40906-.91705-3.61414-2.80994-3.61414-5.67871v-34.04919c3.32166.09705,6.86115.15002,10.66956.15002.94385,0,1.85004-.02911,2.76025-.05511l29.41766,39.11682c1.26154,1.60785,2.06458,2.95459,2.40906,4.04388.34448,1.09167.91705,3.41425,1.72125,6.96899l12.21674-.17224,11.87354.17224.34448-8.60382c-5.27777-.68835-8.72028-1.31732-10.32507-1.89288-1.60724-.57257-3.32849-2.00574-5.16254-4.30194l-28.86035-36.97742c3.42255-.80963,6.49066-1.89368,9.15845-3.28821,6.36646-3.32605,10.83997-7.51276,13.42188-12.56183,2.58069-5.04675,3.87097-10.32452,3.87097-15.83093,0-10.09344-2.89752-17.40692-8.68903-21.93988-5.7951-4.53058-14.08325-6.79675-24.86566-6.79675-2.98395,0-7.34229.11523-13.07739.34387-4.47473.34387-8.89191.51611-13.25024.51611-6.31006,0-12.10394-.11279-17.37927-.34387l-.51617,8.77551c3.44128.11578,5.93677.34448,7.48517.68835,1.5484.34448,2.58063.86066,3.0968,1.54901.51611.68835.77417,1.83649.77417,3.44128v82.76929c0,1.60779-.25806,2.75287-.77417,3.44128ZM38.88892,198.3352c8.71661,0,15.25592,1.69427,19.61664,5.07611,4.35834,3.3855,6.53931,9.03418,6.53931,16.94965,0,7.3429-2.86871,12.76349-8.60382,16.26117-5.73749,3.50073-12.90576,5.24841-21.50958,5.24841-3.40027,0-6.95898-.31982-10.66956-.94391v-41.75043c5.18286-.54895,10.07098-.841,14.62701-.841Z"/>
        <path d="M105.99713,264.75683c0,7.45874,1.48956,14.05383,4.47351,19.78894,2.98157,5.73749,7.22711,10.21161,12.73413,13.42188,5.5058,3.21021,11.92987,4.81805,19.27222,4.81805,7.68439,0,14.3089-1.77704,19.87476-5.33417,5.56342-3.55475,9.77893-8.31635,12.64764-14.28253,2.86633-5.96375,4.30194-12.56122,4.30194-19.78894,0-11.70123-3.18323-20.96344-9.54968-27.79016-6.36768-6.82379-14.94391-10.23871-25.72626-10.23871-7.11426,0-13.56714,1.60785-19.35864,4.81805-5.79388,3.21326-10.35388,7.80267-13.67993,13.76642-3.32849,5.96613-4.98969,12.9057-4.98969,20.82117ZM125.35571,243.16143c4.30194-4.9903,10.12225-7.48572,17.46576-7.48572,7.57153,0,13.42188,2.75348,17.55096,8.25989,4.13025,5.50647,6.19476,12.50488,6.19476,20.99347,0,8.71906-2.00812,15.60223-6.02191,20.64899-4.01746,5.04968-9.63611,7.57153-16.86322,7.57153-7.22827,0-13.16498-2.72351-17.81018-8.17352-4.64642-5.44763-6.96906-12.53247-6.96906-21.25153,0-8.71667,2.151-15.57281,6.45288-20.56311Z"/>
        <polygon points="247.27258 243.41949 247.27252 243.41949 247.27252 243.41949 247.27258 243.41949"/>
        <path d="M197.62762,285.83612c3.26965,5.56586,7.65802,9.78192,13.16382,12.64764,5.50708,2.86633,11.64185,4.30194,18.41278,4.30194,4.93091,0,9.37805-.54553,13.33551-1.63483,3.9574-1.08868,7.08179-2.49487,9.37799-4.21552l-2.75348-7.39929c-5.16132,2.06451-10.55554,3.09741-16.17419,3.09741-7.45874,0-13.93921-2.32324-19.44507-6.96906-5.50702-4.64636-8.25934-12.13153-8.25934-22.45599,0-8.1441,2.23621-14.62701,6.71094-19.44507,4.47357-4.81799,9.98059-7.22705,16.51874-7.22705,3.44128,0,6.42407.51611,8.9483,1.5484,2.52185,1.03284,5.79144,2.81293,9.8089,5.33478,2.98157-2.98218,4.47357-5.6192,4.47357-7.91541,0-.80121-.17169-1.66187-.51617-2.5813-.34448-.91705-.8042-1.60541-1.37671-2.06512-3.44128-3.09741-9.40808-4.64581-17.89667-4.64581-7.45752,0-14.16846,1.5484-20.13281,4.64581-5.96552,3.09741-10.64197,7.60095-14.02325,13.5083-3.38605,5.90973-5.07727,13.05096-5.07727,21.42316,0,7.80261,1.63477,14.48413,4.90442,20.047Z"/>
        <path d="M285.29962,196.27075c0-3.89862.22803-9.74957.68774-17.55219-5.04846.91943-11.24329,1.83649-18.58441,2.75354l-5.5058.85999v7.74384c4.58636.91943,7.62793,1.9787,9.11993,3.18323,1.48956,1.20447,2.23737,3.35547,2.23737,6.45282v86.55444c0,1.60785-.25806,2.75354-.77417,3.44128-.51617.68842-1.60846,1.20514-3.26965,1.54901-1.66486.34393-4.33197.57556-8.00128.68842l.51611,8.77606c6.42291-.22864,12.32965-.34448,17.72382-.34448,5.61865,0,11.4126.11578,17.37933.34448l.51611-8.77612c-3.55652-.11279-6.16718-.34448-7.82959-.68835-1.66364-.34387-2.78235-.8606-3.35486-1.54901l-.00006.00006c-.57611-.68781-.8606-1.8335-.8606-3.44128v-40.06757c8.07941-7.0119,15.64941-10.52325,22.7135-10.52325,5.73511,0,9.98059,1.49261,12.73413,4.47418,2.75348,2.98462,4.13025,7.74384,4.13025,14.28253v32.17853c0,1.60779-.28809,2.75293-.8606,3.44128-.57495.68842-1.69366,1.20453-3.35608,1.5484-1.66364.34448-4.33075.57556-8.00128.68842l.51611,8.77606c6.42407-.2287,12.38965-.34393,17.89667-.34393,5.39056,0,11.18445.11523,17.37927.34393l.51617-8.77606c-3.67297-.11285-6.31006-.34393-7.91486-.68842-1.60846-.34387-2.69714-.85999-3.26965-1.5484-.57617-.68835-.86066-1.8335-.86066-3.44128v-38.54559c0-7.22711-2.12451-12.81934-6.36646-16.77734-4.24548-3.95807-10.09698-5.93677-17.55212-5.93677-5.39423,0-10.4967,1.11871-15.31476,3.35547-4.08801,1.89838-8.2196,4.40295-12.38965,7.4978v-39.93372Z"/>
        <path d="M418.05408,232.40667h-.00006c-5.10492-4.70282-11.84589-7.05542-20.21802-7.05542-6.771,0-12.93579,1.60779-18.49921,4.81805-5.5647,3.2132-9.98059,7.88904-13.24908,14.02441-3.26965,6.13837-4.90448,13.33606-4.90448,21.5954,0,11.81708,3.44128,20.93701,10.32391,27.36053,6.88379,6.42584,15.94495,9.63605,27.18823,9.63605,5.61987,0,10.78241-.68835,15.48761-2.06451,4.70166-1.37677,8.25934-2.92578,10.6684-4.64642l-3.0968-7.74323c-5.62225,2.64014-11.58899,3.95746-17.89667,3.95746-8.14648,0-15.22833-2.09155-21.25146-6.28064-5.76074-4.00452-8.75916-11.03668-9.00909-21.07928h51.59857c.34326-3.78577.51611-7.74377.51611-11.87347,0-9.06055-2.55426-15.94373-7.65796-20.64893ZM379.7677,242.21502c4.12909-4.70282,9.46448-7.05548,16.00256-7.05548,4.70282,0,8.91833,1.29095,12.64771,3.87164,3.72699,2.58124,5.59222,7.08478,5.59222,13.5083,0,.70129-.07532,1.79449-.224,3.26965h-39.65643c.85687-5.72345,2.72137-10.27155,5.63794-13.59412Z"/>
        <path d="M465.46155,269.74719c5.04608,1.37671,8.83185,2.66705,11.35614,3.87158,2.52185,1.20453,4.21667,2.49542,5.07611,3.87158.8606,1.37677,1.2915,3.09741,1.2915,5.16254,0,3.09741-1.40674,5.67865-4.21667,7.74323-2.81232,2.06512-6.45288,3.09741-10.92645,3.09741-4.24548,0-7.94482-.77423-11.09924-2.32263-3.15564-1.54901-6.56812-3.87219-10.23865-6.9696l-6.02197.86066,1.72003,12.73346c2.52185,1.14813,5.87793,2.26678,10.06702,3.35547,4.18671,1.08929,8.57385,1.63483,13.16382,1.63483,8.02893,0,14.8551-2.09155,20.47736-6.28064,5.61865-4.1861,8.43097-9.77893,8.43097-16.77734,0-5.39117-1.60724-9.66309-4.81805-12.81995-3.21204-3.15381-9.17877-5.93671-17.89545-8.34576-6.53931-1.72064-11.07166-3.6405-13.59473-5.76447-2.52423-2.12158-3.78455-4.78864-3.78455-8.00128,0-3.09741,1.31671-5.56348,3.9574-7.39935l-.00006.00006c2.63708-1.83405,5.67871-2.75348,9.12-2.75348,8.60382,0,14.85504,2.64008,18.75604,7.91541l6.53931-1.20447-2.58185-12.73352c-2.86877-1.03229-5.76392-1.8335-8.68909-2.40906-2.92517-.57251-6.68451-.8606-11.27094-.8606-4.24548,0-8.46216.89001-12.64764,2.66705-4.18909,1.78009-7.65802,4.41779-10.4115,7.91547-2.75232,3.50073-4.12909,7.65802-4.12909,12.47607,0,5.16193,1.66125,9.46381,4.98969,12.9057,3.32611,3.44135,9.12,6.25366,17.38055,8.43164Z"/>
        <path d="M524.65491,210.03643c-3.32843,6.31067-6.19482,10.78424-8.60382,13.42188-2.40906,2.64069-5.62225,4.59003-9.63611,5.85095l.51617,7.22705h9.29156v49.21399c0,11.35669,6.02319,17.0354,18.0683,17.0354,3.55414,0,7.1983-.40332,10.92645-1.20453,3.72693-.80121,7.14185-1.89288,10.23865-3.26965l-2.06451-7.57092c-4.13031.91943-8.9483,1.37671-14.45416,1.37671-3.21326,0-5.79395-.71533-7.74323-2.15094-1.95288-1.43317-2.92633-4.15729-2.92633-8.17413v-45.25592h24.6076v-9.46448h-24.35596c.18707-4.10205.72968-9.59271,1.64124-16.51923l-5.50586-.51617Z"/>
        <path d="M603.46625,225.35125c-6.771,0-12.93579,1.60779-18.49921,4.81805-5.56464,3.2132-9.98059,7.88904-13.24902,14.02441-3.26965,6.13837-4.90448,13.33606-4.90448,21.5954,0,11.81708,3.44128,20.93701,10.32385,27.36053,6.88379,6.42584,15.94489,9.63605,27.18823,9.63605,5.61987,0,10.78241-.68835,15.48761-2.06451,4.70166-1.37677,8.2594-2.92578,10.6684-4.64642l-3.0968-7.74323c-5.62231,2.64014-11.58905,3.95746-17.89667,3.95746-8.14655,0-15.22839-2.09155-21.25153-6.28064-5.76074-4.00452-8.75916-11.03668-9.00909-21.07928h51.59857c.34326-3.78577.51611-7.74377.51611-11.87347,0-9.06055-2.55432-15.94373-7.65802-20.64893h.00012c-5.10498-4.70282-11.84589-7.05542-20.21808-7.05542ZM585.39789,242.21502c4.12909-4.70282,9.46448-7.05548,16.00256-7.05548,4.70282,0,8.91833,1.29095,12.64771,3.87164,3.72693,2.58124,5.59222,7.08478,5.59222,13.5083,0,.70129-.07538,1.79449-.22406,3.26965h-39.65637c.85687-5.72345,2.72137-10.27155,5.63794-13.59412Z"/>
        <path d="M656.12024,289.7077c-.57495.68835-1.6936,1.20508-3.35486,1.54901-1.66486.34387-4.33191.57556-8.00128.68835l.51611,8.77606c6.42285-.22864,12.38959-.34448,17.89545-.34448,7.57159,0,14.56702.11584,20.99347.34448l.51611-8.77606c-6.31006-.22864-10.49677-.65894-12.56128-1.29089l.00006-.00006c-2.06573-.62891-3.09802-1.9787-3.09802-4.04321v-37.23792c2.65466-3.23596,5.49182-5.7417,8.51855-7.5025,3.1532-1.8335,6.33643-2.75293,9.54968-2.75293,3.67059,0,7.22711.45972,10.6684,1.37677,1.48956-2.6377,2.23737-5.21893,2.23737-7.74377,0-4.35834-2.64069-6.5387-7.91486-6.5387-2.98517,0-6.82739,1.26331-11.53021,3.78577h.00006c-3.92493,2.10559-7.76599,5.22369-11.52899,9.32391v-11.73297c-4.58881.91943-10.55554,1.83588-17.89545,2.75293l-5.67865.86066v7.74316c4.58636.91943,7.65674,1.97876,9.20636,3.18323,1.5484,1.20453,2.32257,3.35547,2.32257,6.45288v37.685c0,1.60779-.28802,2.75348-.8606,3.44128Z"/>
        <path d="M24.52771,765.5144c8.83307,0,19.05286.13251,30.65784.39532l.79199-5.14227c-7.64929-1.18726-13.38623-2.89954-17.20813-5.14301v-.00006c-3.82745-2.24072-5.737-6.19714-5.737-11.86786v-35.20905h16.61487c6.19781,0,10.64746,1.35419,13.35175,4.05505,2.70154,2.70428,4.58075,7.22015,5.63763,13.54974l5.14233-.79126-.19733-5.93427-.19727-14.83496.19727-14.83496.19733-5.93427-5.14233-.79059c-1.05688,6.32959-2.9361,10.81372-5.63763,13.45044-2.70428,2.63879-7.15393,3.95575-13.35175,3.95575h-16.61487v-52.41376c5.3728-.52856,12.15875-.79468,20.37329-.79468,9.22906,0,16.12091.82507,20.66992,2.47247,4.55042,1.65088,7.84387,4.32068,9.89001,8.0108,2.0434,3.6936,3.85779,9.42987,5.44031,17.20886l5.14233-.59326-1.77991-36.79083c-6.46271.26562-20.11108.39532-40.94519.39532h-23.33978c-9.62781,0-18.52856-.1297-26.70349-.39532l-.79059,5.14301c5.53827,1.05688,9.42639,2.47253,11.66986,4.25238,2.24066,1.78058,3.36243,4.71661,3.36243,8.80206v91.97711c0,4.08887-1.25421,7.02222-3.75842,8.80206-2.50562,1.78058-6.59521,3.19891-12.26318,4.25305l.79059,5.14227c8.96698-.26288,16.87842-.39532,23.73712-.39532Z"/>
        <path d="M117.88525,763.63501c6.19641,2.96716,12.92267,4.45038,20.17596,4.45038,6.45996,0,12.95581-1.08795,19.48334-3.26379,6.52759-2.17584,11.50293-4.5152,14.93433-7.02148l-1.78125-4.94501c-2.7691.92377-6.26404,1.77991-10.48328,2.57117-4.22198.79126-8.30743,1.18658-12.26312,1.18658-5.53833,0-10.97864-1.15277-16.31824-3.46106-5.341-2.30554-9.82513-6.0329-13.45111-11.1759-3.54468-5.02393-5.34131-11.50287-5.42322-19.42303l59.72021-.35687c.52429-5.00983.79059-10.08801.79059-15.23029,0-8.70337-2.9361-15.52759-8.80273-20.4726v-.00018c-5.86804-4.94501-13.15308-7.41748-21.85651-7.41748-7.78174,0-15.16473,2.01233-22.15314,6.0329-6.99121,4.02405-12.62885,9.69202-16.91156,17.01086-4.28687,7.31885-6.42957,15.72491-6.42957,25.2196,0,9.09869,1.91095,16.68317,5.73694,22.74713,3.8233,6.06671,8.83313,10.58191,15.03235,13.54907ZM137.86389,690.35009c5.66803,0,10.21704,1.3197,13.64703,3.95642,3.42865,2.63947,5.20856,6.99048,5.341,13.05444,0,1.93842-.10956,4.11609-.32025,6.5163l-43.44794,1.33942c.79083-7.5329,2.97925-13.28894,6.58136-17.2511,4.61523-5.07471,10.68195-7.61548,18.19879-7.61548Z"/>
        <path d="M232.01617,766.10772l.79059-5.14301c-5.93433-1.18658-10.02246-2.60223-12.26318-4.25238v.00012c-2.24487-1.64746-3.36243-4.45038-3.36243-8.4068v-47.74261c2.44861-1.53741,5.05182-2.64044,7.81213-3.28998,3.36243-.79059,6.29578-1.18658,8.80273-1.18658,3.68945,0,8.17499.79126,13.44971,2.37384,2.10828-3.42798,3.16516-6.45923,3.16516-9.09869,0-3.03198-.95758-5.30719-2.86847-6.82422-1.91235-1.51428-4.25238-2.27454-7.02155-2.27454-3.55975,0-7.38715,1.45215-11.47253,4.35101-3.2749,2.32495-7.23907,5.76807-11.86719,10.29193v-14.44556l-1.97858-1.38458c-3.95569,2.11102-7.91144,3.92535-11.86853,5.43964-3.95569,1.5177-9.36432,3.46173-16.21887,5.8349v2.76917c4.2179,1.3197,7.28369,2.57184,9.19739,3.75842,1.90955,1.18658,3.1651,2.40765,3.75842,3.65906.59326,1.25488.88989,3.00092.88989,5.24164v44.10968c0,3.43073-.88989,5.9032-2.6698,7.41748-1.78125,1.5177-5.24164,2.7381-10.38531,3.65906l.98926,5.14301c7.38306-.26288,14.30658-.39532,20.76929-.39532,8.30743,0,15.75531.13251,22.35187.39532Z"/>
        <path d="M327.25287,757.30566c-1.77991,1.5177-5.24164,2.7381-10.38531,3.65906l.98926,5.14301c7.3844-.26288,14.10925-.39532,20.17596-.39532,6.06403,0,12.78888.13251,20.17603.39532l.98792-5.14301c-5.14233-.92096-8.60406-2.14136-10.38397-3.65906h-.00006c-1.77985-1.51422-2.6698-3.98676-2.6698-7.41748v-44.70294c0-8.17432-2.47247-14.56873-7.41748-19.18671-4.94501-4.61383-11.5719-6.92285-19.87933-6.92285-10.00684,0-20.1618,4.96509-30.46051,14.86737v-13.48279l-1.97858-1.38458c-3.95575,2.11102-7.91144,3.92535-11.86853,5.43964-3.95575,1.5177-9.36432,3.46173-16.21887,5.8349v2.76917c4.21783,1.3197,7.28363,2.57184,9.19733,3.75842,1.90961,1.18658,3.16516,2.40765,3.75842,3.65906.59332,1.25488.88995,3.00092.88995,5.24164v44.10968c0,3.43073-.88995,5.9032-2.6698,7.41748-1.78125,1.5177-5.24164,2.7381-10.38531,3.65906l.98926,5.14301c7.383-.26288,14.10925-.39532,20.17596-.39532,6.06396,0,12.78882.13251,20.17462.39532l.98926-5.14301c-5.14227-.92096-8.60406-2.14136-10.38391-3.65906v.00006c-1.77991-1.51422-2.6698-3.98676-2.6698-7.41748v-50.513c6.8418-5.08832,14.35614-7.64044,22.54907-7.64044,6.06256,0,10.74542,1.5177,14.04303,4.54968,3.2948,3.03479,4.94501,8.30743,4.94501,15.82361v37.78009c0,3.43073-.88995,5.9032-2.6698,7.41748Z"/>
        <path d="M390.54584,763.33856c5.34094,3.16443,11.10828,4.74701,17.3075,4.74701,10.65009,0,20.30396-4.50037,28.96283-13.49719.31287,1.63373.77832,3.36328,1.39978,5.18964,1.2514,3.69354,2.99817,6.39441,5.24164,8.10944,9.49402-3.03131,17.4068-5.34027,23.73572-6.92285v-3.95575c-5.67078-1.4494-9.5285-3.26379-11.57056-5.43964-2.04614-2.17584-3.06714-5.89978-3.06714-11.1759v-87.03137c0-13.58081.46082-23.73639,1.38525-30.46124l-1.97858-1.38458c-7.51544,3.82605-17.67175,7.58447-30.46057,11.2746v2.76917c4.48138,1.58252,7.71417,3.03473,9.69269,4.35168,1.97717,1.31976,3.32794,2.8678,4.05371,4.64838.72437,1.77991,1.08862,4.32068,1.08862,7.61481v29.62219c-.77563-.29785-1.54504-.58942-2.27521-.8421-3.62732-1.2514-8.4054-1.87921-14.33966-1.87921-7.51685,0-14.90399,1.81439-22.15454,5.43964-7.2533,3.62872-13.2207,9.00006-17.90076,16.12091-4.68152,7.12085-7.02155,15.75873-7.02155,25.91156,0,8.83588,1.64746,16.38647,4.94501,22.64777,3.29486,6.26471,7.61481,10.97797,12.95581,14.14307ZM395.49084,697.867c4.94495-5.80115,11.83405-8.70343,20.66992-8.70343,4.87738,0,9.16425.52844,12.85779,1.58258,2.3291.66718,4.77679,1.56842,7.31818,2.65448v55.0556c-1.3844,1.1524-2.83124,2.19672-4.35168,3.1131-4.48419,2.70428-9.09943,4.05505-13.84576,4.05505-8.70343,0-15.89191-3.03198-21.55988-9.09869-5.67212-6.06396-8.5061-14.30652-8.5061-24.72498,0-10.15283,2.47253-18.12982,7.41754-23.93372Z"/>
        <path d="M516.24725,764.42645c4.39941-1.98517,8.31219-4.70404,11.75226-8.13257.28815,1.84967.78308,3.44586,1.50012,4.7702,1.31628,2.44147,3.42725,4.716,6.32886,6.82355,4.61523-1.97784,11.6712-4.02057,21.16522-6.13159l-.59326-4.74701c-5.27612,0-8.83582-1.25214-10.68195-3.75842-1.84747-2.50354-2.70428-6.78967-2.57043-12.85712l.39459-34.021c.1297-8.43781-2.40765-14.93433-7.61481-19.48334-5.21124-4.54968-12.29761-6.82422-21.26318-6.82422-6.8587,0-12.9903,1.15552-18.39612,3.46106-5.40857,2.30896-9.62646,5.01331-12.65912,8.11011-3.03406,3.09961-4.54901,5.77008-4.54901,8.0108,0,2.37384,1.2514,4.05505,3.75842,5.04364,2.50287.98926,5.8653,1.28595,10.08728.89062,1.45013-4.87738,2.53735-8.14117,3.26447-9.79132.72302-1.64746,1.81024-2.80023,3.26312-3.46179,1.97852-.92102,4.28406-1.38458,6.92352-1.38458,6.32892,0,11.60229,1.9137,15.82428,5.73627,4.2179,3.82672,6.26129,9.29669,6.13159,16.41754l-.09125,5.84039c-9.4989,1.66095-17.42627,3.27545-23.74384,4.84082-7.45197,1.84814-13.78088,4.61731-18.98938,8.30743-5.2099,3.69354-7.81213,8.50543-7.81213,14.4397,0,6.06677,2.27386,11.17523,6.82288,15.32965,4.55035,4.15369,10.11902,6.23022,16.71417,6.23022,4.6153,0,9.62512-1.22034,15.03369-3.65906ZM494.48877,743.36059c0-4.08545,1.35071-6.98773,4.05505-8.70276,2.70154-1.71228,6.82416-2.96716,12.36249-3.75842l17.16833-2.53784-.3548,22.71313-.00006.00006c-.00391.12396-.0011.23969-.00378.36212-2.42224,1.67719-5.17798,3.01898-8.30499,3.9895-3.82599,1.18658-6.8573,1.78058-9.09796,1.78058-5.01263,0-8.90076-1.41559-11.66986-4.25305-2.76917-2.83398-4.15442-6.0329-4.15442-9.59332Z"/>
        <path d="M598.82629,757.30566c-1.77985-1.51422-2.6698-3.98676-2.6698-7.41748v-96.52612c0-13.58081.45941-23.73639,1.38385-30.46124l-1.97858-1.38458c-8.04388,3.56049-18.19745,7.31818-30.46057,11.2746v2.76917c5.14227,1.45215,8.6358,2.60492,10.48328,3.46106,1.84473.85956,3.03265,1.87921,3.5611,3.06647.52429,1.18658.79059,3.23273.79059,6.13159v101.66907c0,3.43073-.88995,5.9032-2.6698,7.41748-1.78125,1.5177-5.24164,2.7381-10.38531,3.65906l.98926,5.14301c7.383-.26288,14.10925-.39532,20.17596-.39532,6.06396,0,12.78888.13251,20.17462.39532l.98926-5.14301c-5.14227-.92096-8.60406-2.14136-10.38391-3.65906h.00006Z"/>
        <path d="M700,706.96569c0-8.70337-2.93604-15.52759-8.80273-20.4726v-.00018c-5.86804-4.94501-13.15308-7.41748-21.85651-7.41748-7.78174,0-15.16473,2.01233-22.15314,6.0329-6.99115,4.02405-12.62878,9.69202-16.9115,17.01086-4.28687,7.31885-6.42963,15.72491-6.42963,25.2196,0,9.09869,1.91095,16.68317,5.737,22.74713,3.82324,6.06671,8.83313,10.58191,15.03229,13.54907,6.19641,2.96716,12.92267,4.45038,20.17596,4.45038,6.45996,0,12.95581-1.08795,19.48334-3.26379s11.50293-4.5152,14.93433-7.02148l-1.78125-4.94501c-2.76917.92377-6.26404,1.77991-10.48328,2.57117-4.22198.79126-8.30737,1.18658-12.26312,1.18658-5.53833,0-10.97864-1.15277-16.31824-3.46106-5.341-2.30554-9.82513-6.0329-13.45111-11.1759-3.54468-5.02393-5.34131-11.50287-5.42322-19.42303l59.72021-.35687c.52429-5.00983.79059-10.08801.79059-15.23029ZM664.59442,690.35009c5.66797,0,10.21698,1.3197,13.64703,3.95642,3.42871,2.63947,5.20856,6.99048,5.341,13.05444,0,1.93842-.10956,4.11609-.32025,6.5163l-43.44794,1.33942c.79083-7.5329,2.97925-13.28894,6.58136-17.2511,4.61523-5.07471,10.68195-7.61548,18.19879-7.61548Z"/>
        <path d="M20.25665,570.82342c9.24805,0,15.87738.12323,19.88812.36853l.36853-3.19202c-2.70081-.49121-4.52356-1.00128-5.46381-1.53467-.94135-.53119-1.57629-1.53412-1.90265-3.00775-.32745-1.47308-.49066-4.17389-.49066-8.10242v-20.87h28.2359v20.87c0,3.92859-.16541,6.62939-.49066,8.10242-.32861,1.47363-.96356,2.47656-1.90271,3.00775-.94244.53339-2.76294,1.04346-5.46375,1.53467l.36853,3.19202c4.00958-.2453,10.63782-.36853,19.88806-.36853,9.24805,0,15.87744.12323,19.88812.36853l.36853-3.19202c-2.70081-.49121-4.52356-1.00128-5.46381-1.53467-.94128-.53119-1.57629-1.53412-1.90265-3.00775h.00006c-.32751-1.47308-.49066-4.17389-.49066-8.10242v-49.35175c0-3.02661.12207-5.13464.36743-6.32239.2464-1.185.81812-2.12689,1.71948-2.82349.89917-.69434,2.57764-1.45197,5.03308-2.27124l-.61383-3.19202c-3.68323.32806-9.98627.49121-18.9057.49121-8.92169,0-15.22357-.16315-18.9057-.49121l-.61389,3.19202c2.45551.81927,4.13171,1.5769,5.03308,2.27124.89917.69653,1.47308,1.63843,1.71844,2.82349.2464,1.18774.36853,3.29578.36853,6.32239v22.09772h-28.2359v-22.09772c0-3.02661.12323-5.13464.36853-6.32239.24536-1.185.81708-2.12689,1.71844-2.82349.89917-.69434,2.57758-1.45197,5.03308-2.27124l-.61389-3.19202c-3.68213.32806-9.98621.49121-18.9057.49121-8.92163,0-15.22247-.16315-18.9057-.49121l-.61383,3.19202c2.45551.81927,4.13171,1.5769,5.03308,2.27124.90027.69653,1.47308,1.63843,1.71948,2.82349.24536,1.18774.36743,3.29578.36743,6.32239v49.35175c0,3.92859-.16431,6.62939-.49066,8.10242-.32745,1.47363-.9624,2.47656-1.90265,3.00775-.94244.53339-2.763,1.04346-5.46381,1.53467l.36853,3.19202c4.00964-.2453,10.63898-.36853,19.88812-.36853Z"/>
        <path d="M101.40314,495.8139c0,3.60223,1.20667,6.32245,3.62219,8.16406,2.41327,1.84161,5.83118,2.7619,10.25043,2.7619,4.00958,0,7.2843-.92029,9.8219-2.7619,2.5354-1.84161,3.80536-4.56183,3.80536-8.16406,0-7.52905-4.50244-11.29443-13.50403-11.29443-4.41925,0-7.85712,1.00348-10.31262,3.00775-2.45551,2.00647-3.68323,4.76886-3.68323,8.28668Z"/>
        <path d="M101.95599,565.54498c-1.0246,1.14673-2.72192,1.96375-5.09418,2.45496l.49066,3.19202c5.07306-.2453,11.04858-.36853,17.92328-.36853,6.46509,0,12.19415.12323,17.18732.36853l.61383-3.19202c-2.04694-.57172-3.56-1.41144-4.54242-2.51654-.98132-1.1051-1.47308-3.33411-1.47308-6.69098v-26.64014c0-8.51099.24536-14.2406.73712-17.18677l-1.71954-1.10504c-2.12909.98242-4.9931,1.94482-8.59308,2.88507-3.60217.94189-8.3078,2.0675-14.11792,3.37573l-7.24323,1.71899v2.57812c2.21014,1.14728,3.8053,2.19073,4.78772,3.13043.98242.94189,1.65735,2.14856,2.02588,3.62158.36859,1.47308.55176,3.68323.55176,6.62939v20.99261c0,3.35687-.51178,5.60699-1.53412,6.75256Z"/>
        <path d="M140.56549,515.94738l-.61389,3.19202c2.94617.73651,4.99091,1.41199,6.13763,2.02588,1.14557.61328,1.92261,1.53412,2.33228,2.76184.40961,1.22778.61383,3.27472.61383,6.13818,0,17.99158-2.33612,29.93915-7.00732,35.84766h-7.72449c.16321,6.05603.24646,12.03101.24646,17.92383.07996,1.79944.12213,4.74554.12213,8.83899h3.3147c3.19257-6.54889,5.8512-11.35553,7.98029-14.42487,2.12695-3.06934,4.11176-5.07526,5.95337-6.0155,1.84161-.94189,4.19385-1.41205,7.05896-1.41205h17.67908c3.76312,0,6.8125.65442,9.14587,1.96429,2.33228,1.30823,4.43811,3.41681,6.3219,6.32245,1.88159,2.90448,4.29712,7.42749,7.24323,13.56567h3.3147c0-11.53979.16315-20.46149.49066-26.76282h-10.55682v-35.72443h-.00006c0-3.02716.12213-5.13525.36743-6.32245.24646-1.18555.81702-2.10638,1.71954-2.76239.89917-.65442,2.57758-1.30823,5.03308-1.96429l-.61389-3.19202h-4.17389c-1.47302.0827-5.2384.12262-11.29498.12262h-20.86945l-22.22034-.12262ZM169.04669,565.91296h-19.69275c1.53522-2.60651,2.72083-5.65222,3.54889-9.14594,1.67621-7.07843,2.51654-15.93848,2.51654-26.57855v-9.20752h13.62732v44.93201Z"/>
        <path d="M211.89001,528.77655c-2.94611,4.78772-4.41919,10.41583-4.41919,16.88037,0,5.89282,1.28882,10.94702,3.86639,15.16138,2.57867,4.21606,6.11761,7.40808,10.62006,9.5755,4.50024,2.16797,9.53333,3.2536,15.1004,3.2536,7.03784,0,13.09332-1.69952,18.16858-5.09467,5.07416-3.39569,8.47101-7.9187,10.18939-13.56567l-2.20905-2.57812c-2.12915.98187-4.21722,1.67841-6.26196,2.08691-2.04584.41071-4.46136.61389-7.24323.61389-7.20215,0-12.78809-1.61517-16.75659-4.84937-2.09137-1.70227-3.61609-3.99451-4.60516-6.84381l34.37518-.33783c.2453-2.3728.36853-5.03363.36853-7.97974,0-6.54669-2.23126-11.68188-6.69043-15.40729-4.46252-3.72321-10.66119-5.58594-18.5993-5.58594-4.99316,0-9.82086,1.24884-14.48651,3.74487-4.66455,2.49707-8.47095,6.13812-11.41711,10.9259ZM229.07733,523.37487c1.39093-2.82349,3.43787-4.23547,6.13873-4.23547,2.04474,0,3.49896.96295,4.35815,2.88507.85919,1.92377,1.28876,4.35815,1.28876,7.30432,0,2.91089-.23755,6.14648-.68542,9.67236l-12.82086.44519c-.2431-1.56891-.36627-3.26221-.36627-5.08392,0-4.50024.69489-8.16406,2.08691-10.98755Z"/>
        <path d="M268.23859,523.06793c2.04474,1.14728,3.51782,2.19073,4.41919,3.13043.90027.94189,1.51416,2.16962,1.84161,3.68323.32635,1.51526.49176,3.70374.49176,6.56775v53.03436c0,3.35522-.51282,5.60535-1.53522,6.75256-1.0246,1.14502-2.72186,1.96375-5.09412,2.45496l.73602,3.19202c4.8277-.2453,10.43469-.36853,16.81873-.36853,4.5824,0,9.3302.08105,14.24115.24585l5.7702.12268.61383-3.19202c-2.04694-.49121-3.58221-.98187-4.60455-1.47308-1.0235-.49121-1.84052-1.41205-2.45441-2.76239-.61383-1.35034-.92133-3.37573-.92133-6.07654v-14.82617c1.01129.05591,2.0603.09436,3.19257.09436,6.70929,0,12.8902-1.49469,18.53711-4.48138,5.64697-2.98663,10.14722-7.24268,13.50409-12.76752,3.35461-5.52429,5.03308-11.96942,5.03308-19.33533,0-7.28375-1.84161-12.97119-5.52374-17.06464-3.68323-4.09119-8.39105-6.13812-14.11792-6.13812h-.00006c-8.47986,0-15.35455,3.92578-20.62518,11.76935v-11.76935l-1.71844-1.10504c-7.12,2.53815-16.65558,5.11633-28.60437,7.73444v2.57812ZM298.5614,529.64904c1.8266-.78076,3.38403-1.17944,4.66565-1.17944,3.43677,0,6.19977,1.80109,8.28668,5.40161,2.08698,3.60223,3.13043,8.67639,3.13043,15.22302,0,6.30304-.96356,11.0697-2.88513,14.30225v-.00006c-1.92377,3.23419-4.44031,4.84937-7.55072,4.84937-2.04584,0-3.8053-.388-5.27838-1.16669-.13214-.06958-.2431-.13818-.36853-.20752v-37.22253Z"/>
        <path d="M378.7876,563.45739c-.28754,1.47363-.85919,2.47656-1.71844,3.00775-.86029.53339-2.51764,1.04346-4.97198,1.53467l.36743,3.19202c3.60107-.2453,9.8219-.36853,18.66034-.36853,8.83954,0,15.26355.12323,19.27423.36853l.36853-3.19202c-2.70081-.49121-4.54242-1.00128-5.52484-1.53467-.98132-.53119-1.63733-1.55353-1.96368-3.06879v.00006c-.32855-1.51361-.49066-4.1933-.49066-8.04138v-25.04388c0-3.02716.12213-5.13519.36743-6.32239.24646-1.18555.83923-2.10638,1.78058-2.76245.94019-.65381,2.63977-1.3504,5.09521-2.08691l-.61383-3.19202c-5.56702.16486-10.72333.24585-15.46893.24585h-19.76489c-7.85712,0-15.30573-.08105-22.34357-.24585l-.61389,3.19202c2.94617.73651,4.99091,1.43311,6.13873,2.08691,1.14447.65607,1.92151,1.59631,2.33228,2.82349.40851,1.22778.61383,3.27472.61383,6.13873,0,8.59308-.69714,15.34564-2.08691,20.2561-.49176,1.63794-1.04346,2.76239-1.65735,3.37573-.61389.61389-1.61737.88086-3.0083.79816l-9.69873-.36798c-.73602,3.27417-1.10455,5.81183-1.10455,7.61121,0,1.63794.16321,3.15149.49066,4.54242.81812,4.01068,3.51898,6.0155,8.10358,6.0155,3.43677,0,6.23969-1.43091,8.40881-4.29712,2.16797-2.86346,3.8053-7.65173,4.91095-14.36328,1.10455-6.70984,1.65735-15.75421,1.65735-27.13135v-5.52429h12.8902v34.25134c0,3.92859-.14429,6.62939-.42957,8.10242Z"/>
        <path d="M433.35553,516.13159c-4.90985,1.3504-9.02271,3.17255-12.33734,5.4632-3.3147,2.2923-4.97205,4.78778-4.97205,7.48859,0,2.04639,1.10455,3.62158,3.3147,4.72614,2.21014,1.10504,6.21863,1.69952,12.03094,1.78052l3.3147-9.82135c.98242-3.19202,2.90393-4.78778,5.77014-4.78778,2.5354,0,4.41925,1.28882,5.64697,3.86694,1.22772,2.57819,1.79944,6.69098,1.71838,12.33795l-.05383,2.45697c-7.16162,1.16949-13.03784,2.41711-17.62408,3.7428-5.23846,1.51526-9.20697,3.41791-11.90778,5.70856-2.70081,2.2923-4.05176,5.19849-4.05176,8.71631,0,2.45551.63275,4.9104,1.90265,7.36591,1.2677,2.45551,3.10931,4.48083,5.52484,6.07709,2.41333,1.5957,5.21735,2.39386,8.40881,2.39386,3.35577,0,6.58722-.84033,9.69873-2.51709,2.47882-1.33618,5.16962-3.37469,8.06525-6.09106.25586,1.23438.60168,2.37897,1.08069,3.39026,1.10559,2.33282,2.76294,4.276,4.97198,5.83179,3.68323-1.06458,6.87469-1.92432,9.5755-2.57812,2.70081-.65442,6.75262-1.47308,12.15424-2.45551l-.24536-3.68268c-1.80164-.24585-3.09045-.67548-3.86749-1.28937l.00006.00012c-.7782-.61389-1.26996-1.65735-1.47308-3.13043-.20538-1.47308-.26642-3.80591-.18427-6.99792l.49176-21.1153c.16205-6.54724-1.4953-11.33502-4.97205-14.36383-3.4801-3.02661-9.59772-4.54242-18.35394-4.54242-4.17389,0-8.71631.67548-13.62732,2.02588ZM447.38965,561.59997c-1.27496.66376-2.43439.99823-3.4762.99823v.00006c-2.20905,0-3.9707-.83813-5.27838-2.51654-1.30988-1.67676-1.96484-3.74426-1.96484-6.19977,0-1.88159.61383-3.53894,1.84161-4.97205,1.22772-1.43085,3.15039-2.39386,5.77014-2.88507l3.37909-.56305-.30975,14.19031c-.0155.67792.01001,1.31403.03833,1.94788Z"/>
        <path d="M517.81793,519.1394c1.39093.73657,2.37225,1.41205,2.94617,2.02588.57172.61334.9613,1.4942,1.16669,2.63922.20312,1.14722.3064,2.98828.3064,5.52429v11.54034h-12.15308v-9.3302c0-4.25488.2453-7.20105.73596-8.83954.49066-1.63623,1.55414-2.82349,3.19147-3.56l-.61273-3.19202c-1.39313.16486-4.42029.24591-9.08484.24591h-6.0155c-7.12109,0-12.97345-.08105-17.55585-.24591l-.73596,3.19202c2.12689.65607,3.62103,1.30988,4.48022,1.96429.85919.65607,1.41205,1.53467,1.65735,2.63922.24536,1.10504.36853,2.96777.36853,5.58588v27.25403c0,2.86566-.14429,4.9931-.42957,6.38403-.28754,1.39258-.88031,2.47601-1.78058,3.25305-.90137.77875-2.37445,1.37152-4.41919,1.78003l.73596,3.19202c5.89343-.16321,11.78571-.2453,17.67908-.2453,7.20105,0,12.52161.08215,15.95953.2453l.73596-3.06934c-1.39203-.40851-2.41443-.98187-3.06934-1.71838-.65607-.73651-1.12561-1.92212-1.41095-3.56055-.28864-1.63568-.42957-4.13171-.42957-7.48859v-8.59369h12.15308v9.82141c0,4.09338-.26642,6.87469-.79816,8.34833-.53284,1.47308-1.7395,2.49713-3.62103,3.06879l.73596,3.19202c3.10931-.16321,8.26562-.2453,15.46887-.2453,7.20105,0,13.09332.08215,17.67798.2453l.73706-3.06934c-1.96484-.40851-3.39685-.98187-4.29712-1.71838-.90137-.73651-1.51526-1.9032-1.84161-3.49896-.32745-1.5957-.49066-4.11285-.49066-7.55017v-23.8161c0-3.02716.14209-5.2984.42963-6.81366l-.00012-.00006c.28528-1.51355.87805-2.70081,1.77948-3.56.90027-.85974,2.37335-1.53467,4.42035-2.02588l-.61389-3.19202c-1.55634.16486-4.29712.24591-8.22565.24591h-9.5755c-6.87469,0-12.03101-.08105-15.46887-.24591l-.73596,3.19202Z"/>
        <path d="M571.89514,572.23541c1.84161-.94189,4.19385-1.41205,7.05896-1.41205h17.67908c3.76312,0,6.8125.65442,9.14594,1.96429,2.33228,1.30823,4.43805,3.41681,6.3219,6.32245,1.88159,2.90448,4.29712,7.42749,7.24323,13.56567h3.3147c0-11.53979.16321-20.46149.49066-26.76282h-10.55682v-35.72443h-.00006c0-3.02716.12213-5.13525.36743-6.32245.24646-1.18555.81702-2.10638,1.71948-2.76239.89917-.65442,2.57758-1.30823,5.03308-1.96429l-.61389-3.19202h-4.17389c-1.47308.0827-5.23846.12262-11.29498.12262h-20.86938l-22.2204-.12262-.61389,3.19202c2.94617.73651,4.99091,1.41199,6.13757,2.02588,1.14563.61328,1.92267,1.53412,2.33228,2.76184.40961,1.22778.61389,3.27472.61389,6.13818,0,17.99158-2.33612,29.93915-7.00732,35.84766h-7.72449c.16321,6.05603.24646,12.03101.24646,17.92383.07996,1.79944.12213,4.74554.12213,8.83899h3.3147c3.19257-6.54889,5.8512-11.35553,7.98035-14.42487,2.12689-3.06934,4.11169-5.07526,5.95331-6.0155ZM572.8775,556.76702c1.67621-7.07843,2.51654-15.93848,2.51654-26.57855v-9.20752h13.62726v44.93201h-19.69269c1.53522-2.60651,2.72076-5.65222,3.54889-9.14594Z"/>
        <path d="M695.703,566.40429c-.90137-.73651-1.51526-1.9032-1.84161-3.49896l-.00012-.00012c-.32745-1.5957-.49066-4.11285-.49066-7.55017v-23.8161c0-3.02716.14209-5.2984.42963-6.81366.28528-1.51355.87805-2.70081,1.77948-3.56.90027-.85974,2.37335-1.53467,4.42035-2.02588l-.61389-3.19202c-1.55634.16486-4.29712.24591-8.22565.24591h-9.5755c-6.87469,0-12.03101-.08105-15.46887-.24591l-.73596,3.19202c1.39093.73657,2.37225,1.41205,2.94617,2.02588.57172.61334.9613,1.4942,1.16669,2.63922.14709.83191.24146,2.03387.28253,3.59583l-13.35699,21.53436v-17.39575c0-4.25488.2453-7.20105.73596-8.83954.49066-1.63623,1.55414-2.82349,3.19147-3.56l-.61273-3.19202c-1.39313.16486-4.42035.24591-9.08484.24591h-6.0155c-7.12115,0-12.97345-.08105-17.55585-.24591l-.73596,3.19202c2.12689.65607,3.62103,1.30988,4.48029,1.96429.85919.65607,1.41205,1.53467,1.65735,2.63922.2453,1.10504.36853,2.96777.36853,5.58588v27.25403c0,2.86566-.14429,4.9931-.42963,6.38403-.28754,1.39258-.88031,2.47601-1.78058,3.25305-.90137.77875-2.37445,1.37152-4.41919,1.78003l.73596,3.19202c5.89337-.16321,11.78564-.2453,17.67908-.2453,7.20105,0,12.52167.08215,15.95953.2453l.73596-3.06934c-1.39203-.40851-2.41443-.98187-3.06934-1.71838-.65607-.73651-1.12561-1.92212-1.41089-3.56055-.18317-1.03815-.3064-2.42566-.37244-4.15692l13.32367-21.4812v19.37732c0,4.09338-.26642,6.87469-.79816,8.34833-.53284,1.47308-1.7395,2.49713-3.62103,3.06879l.73596,3.19202c3.10931-.16321,8.26562-.2453,15.46887-.2453,7.20105,0,13.09332.08215,17.67798.2453l.73706-3.06934c-1.96484-.40851-3.39795-.98187-4.29712-1.71838Z"/>
      </g>
    </g>
  </g>
</svg>